<svg xmlns="http://www.w3.org/2000/svg" width="106" height="66" fill-rule="nonzero"><path fill="#ff5f00" d="M37 8h32v51H37z"/><path d="M40.488 32.995C40.48 22.87 45.094 13.305 53 7.054 39.57-3.58 20.28-2.03 8.692 10.612s-11.59 32.133 0 44.776S39.57 69.58 53 58.946c-7.91-6.253-12.523-15.823-12.512-25.95z" fill="#eb001b"/><path d="M102.7 53v-.83h.5V52H102v.17h.47V53h.22zm2.3 0v-1h-.36l-.42.714-.42-.714h-.36v1h.26v-.757l.4.65h.27l.4-.65V53h.25zm1-19.995c0 12.633-7.16 24.157-18.44 29.678A32.56 32.56 0 0 1 53 58.943C60.902 52.687 65.516 43.124 65.516 33S60.902 13.313 53 7.057a32.56 32.56 0 0 1 34.559-3.739C98.84 8.838 106 20.362 106 32.995v.01z" fill="#f79e1b"/></svg>