<svg xmlns="http://www.w3.org/2000/svg" width="86" height="66"><defs><linearGradient x1="-57.5270968%" y1="50.1241953%" x2="232.39121%" y2="50.1241953%" id="A"><stop stop-color="#007940" offset="0%"/><stop stop-color="#00873f" offset="22.85%"/><stop stop-color="#40a737" offset="74.33%"/><stop stop-color="#5cb531" offset="100%"/></linearGradient><linearGradient x1="0.182516704%" y1="49.95997%" x2="100.273441%" y2="49.95997%" id="B"><stop stop-color="#007940" offset="0%"/><stop stop-color="#00873f" offset="22.85%"/><stop stop-color="#40a737" offset="74.33%"/><stop stop-color="#5cb531" offset="100%"/></linearGradient><linearGradient x1="-62.8015845%" y1="49.8578253%" x2="253.671294%" y2="49.8578253%" id="C"><stop stop-color="#007940" offset="0%"/><stop stop-color="#00873f" offset="22.85%"/><stop stop-color="#40a737" offset="74.33%"/><stop stop-color="#5cb531" offset="100%"/></linearGradient><linearGradient x1="0.175556793%" y1="50.0058048%" x2="101.808162%" y2="50.0058048%" id="D"><stop stop-color="#1f286f" offset="0%"/><stop stop-color="#004e94" offset="47.51%"/><stop stop-color="#0066b1" offset="82.61%"/><stop stop-color="#006fbc" offset="100%"/></linearGradient><linearGradient x1="-0.575855512%" y1="49.9142191%" x2="98.13299%" y2="49.9142191%" id="E"><stop stop-color="#6c2c2f" offset="0%"/><stop stop-color="#882730" offset="17.35%"/><stop stop-color="#be1833" offset="57.31%"/><stop stop-color="#dc0436" offset="85.85%"/><stop stop-color="#e60039" offset="100%"/></linearGradient></defs><g fill-rule="nonzero"><path d="M86 52.695C86 60.03 80.007 66 72.648 66H0V13.305C0 5.97 5.993 0 13.352 0H86v52.695z" fill="#fff"/><path d="M61.6 39.46h5.367c.153 0 .51-.052.664-.052 1.022-.207 1.89-1.14 1.89-2.435 0-1.244-.87-2.176-1.89-2.435-.153-.052-.46-.052-.664-.052H61.6v4.975z" fill="url(#A)"/><path d="M66.353 5.104c-5.11 0-9.302 4.197-9.302 9.43v9.794h13.136c.307 0 .664 0 .92.052 2.964.155 5.162 1.7 5.162 4.405 0 2.125-1.482 3.938-4.242 4.3v.104c3.016.207 5.316 1.917 5.316 4.56 0 2.85-2.556 4.715-5.93 4.715H57v19.173h13.647c5.11 0 9.302-4.197 9.302-9.43V5.104H66.353z" fill="url(#B)"/><path d="M68.858 29.406a2.19 2.19 0 0 0-1.891-2.228c-.102 0-.358-.052-.51-.052H61.6v4.56h4.856c.153 0 .46 0 .51-.052a2.19 2.19 0 0 0 1.891-2.228z" fill="url(#C)"/><path d="M13.374 5C8.252 5 4.05 9.236 4.05 14.517v23.48c2.612 1.307 5.327 2.144 8.042 2.144 3.227 0 4.97-1.987 4.97-4.706V24.35h7.99v11.034c0 4.288-2.612 7.792-11.474 7.792-5.38 0-9.58-1.203-9.58-1.203V62h13.677C22.8 62 27 57.764 27 52.483V5H13.374z" fill="url(#D)"/><path d="M41.323 5C36.2 5 32 9.228 32 14.5v12.423c2.356-2.036 6.454-3.34 13.062-3.027 3.535.157 7.325 1.148 7.325 1.148v4.02c-1.895-.992-4.15-1.88-7.07-2.088-5.02-.365-8.042 2.14-8.042 6.525 0 4.437 3.022 6.942 8.042 6.525 2.92-.21 5.174-1.148 7.07-2.088v4.02s-3.74.992-7.325 1.148c-6.608.313-10.706-.992-13.062-3.027V62h13.677C50.8 62 55 57.772 55 52.5V5H41.323z" fill="url(#E)"/></g></svg>