<svg xmlns="http://www.w3.org/2000/svg" xmlns:xlink="http://www.w3.org/1999/xlink" width="202" height="66"><defs><path d="M104.52 44.87c-.115-8.988 8.1-14.004 14.27-16.986 6.35-3.06 8.484-5.022 8.46-7.758-.048-4.188-5.066-6.036-9.763-6.108-8.193-.126-12.956 2.2-16.744 3.942l-2.95-13.674c3.8-1.734 10.835-3.246 18.132-3.312 17.126 0 28.33 8.37 28.39 21.348.067 16.47-23 17.382-22.852 24.744.055 2.232 2.206 4.614 6.92 5.22 2.333.306 8.775.54 16.077-2.8l2.866 13.23c-3.927 1.416-8.975 2.772-15.26 2.772-16.12 0-27.458-8.484-27.55-20.628m70.35 19.488a7.43 7.43 0 0 1-6.939-4.578L143.466 1.946h17.113l3.406 9.318H184.9l1.976-9.318h15.083l-13.162 62.412H174.87m2.394-16.86l4.94-23.436h-13.526l8.587 23.436M83.77 64.358L70.28 1.946h16.307l13.484 62.412h-16.3m-24.125 0L42.67 21.878l-6.866 36.12c-.806 4.032-3.987 6.36-7.52 6.36H.535l-.388-1.812c5.696-1.224 12.168-3.198 16.09-5.3 2.4-1.3 3.085-2.418 3.872-5.484L33.114 1.946H50.35L76.77 64.358H59.645" id="A"/><linearGradient x1="16.1481739%" y1="40.1328614%" x2="85.8318643%" y2="60.3411825%" id="B"><stop stop-color="#222357" offset="0%"/><stop stop-color="#254aa5" offset="100%"/></linearGradient></defs><g transform="matrix(1 0 0 -1 0 66)" fill="none" fill-rule="evenodd"><mask id="C" fill="#fff"><use xlink:href="#A"/></mask><g mask="url(#C)"><path fill="url(#B)" fill-rule="nonzero" d="M-20.986 57.792l198.843 72.504L223.093 8.678 24.252-63.826"/></g></g></svg>