<svg width="100" height="51" viewBox="0 0 100 51" fill="none" xmlns="http://www.w3.org/2000/svg">
<g clip-path="url(#clip0_3056_40960)">
<path d="M77.3545 24.6683C75.3439 19.855 72.4162 15.5371 68.7125 11.821C65.0088 8.10479 60.7055 5.20264 55.9436 3.18529C50.97 1.06176 45.7143 0 40.2822 0C34.8501 0 29.5591 1.06176 24.5855 3.18529C19.7884 5.20264 15.485 8.14018 11.7813 11.8563C8.0776 15.5371 5.18519 19.855 3.1746 24.6683C1.0582 29.6586 0 34.932 0 40.3824H5.00882C5.00882 20.8459 20.776 5.02568 40.2469 5.02568C59.7178 5.02568 75.485 20.8459 75.485 40.3824H80.4938C80.4938 34.932 79.4356 29.6586 77.3545 24.6683Z" fill="#45DBCC"/>
<path d="M27.1608 39.9576C28.6422 38.8958 29.5946 37.3032 29.5946 35.4982C29.5946 32.3129 26.5964 29.7292 22.8927 29.7292C19.189 29.7292 16.1907 32.3129 16.1907 35.4982H18.9068C18.9068 34.7195 19.2595 33.9409 19.9297 33.3392C20.7057 32.6314 21.7287 32.2421 22.8574 32.2421C23.9862 32.2421 25.0444 32.6314 25.7851 33.3392C26.4553 33.9409 26.808 34.7195 26.808 35.4982C26.808 36.2768 26.4553 37.0554 25.7851 37.6571C25.0091 38.3649 23.9862 38.7542 22.8574 38.7542H21.3759V41.2671H22.928C24.1625 41.2671 25.3265 41.6918 26.1731 42.4704C26.9138 43.1428 27.3371 43.9923 27.3371 44.8771C27.3371 45.7619 26.9138 46.6113 26.1731 47.2837C25.3265 48.0624 24.1625 48.4871 22.928 48.4871C21.6934 48.4871 20.5294 48.0624 19.6828 47.2837C19.0832 46.7175 18.6952 46.045 18.5541 45.3372H15.8027C16.0849 48.4871 19.1537 50.9999 22.928 50.9999C26.8786 50.9999 30.0885 48.2747 30.0885 44.8771C30.0532 42.8597 28.9244 41.0901 27.1608 39.9576ZM44.9033 43.8861C44.9033 46.4697 42.7869 48.5578 40.2119 48.5578C37.6369 48.5578 35.5205 46.4697 35.5205 43.8861C35.5205 41.3025 37.6369 39.2143 40.2119 39.2143C42.7869 39.2143 44.9033 41.3025 44.9033 43.8861ZM47.4077 43.8861C47.4077 39.9576 44.1978 36.7369 40.2119 36.7369C40.0355 36.7369 39.8592 36.7369 39.6475 36.7723L44.5858 30.0832H41.4817L34.4976 39.5682C33.5805 40.7716 33.0161 42.258 33.0161 43.8861C33.0161 47.8146 36.226 51.0353 40.2119 51.0353C44.1978 50.9999 47.4077 47.8146 47.4077 43.8861ZM53.5452 38.1526V32.596H63.4923V30.0832H51.0408V41.621H53.5452C54.3565 40.2053 55.8733 39.1789 57.6369 39.1789C60.2119 39.1789 62.3283 41.2671 62.3283 43.8507C62.3283 46.4343 60.2119 48.5224 57.6369 48.5224C55.5558 48.5224 53.7922 47.1775 53.1925 45.3018H50.6175C51.2877 48.5224 54.1802 50.9645 57.6722 50.9645C61.6581 50.9645 64.868 47.7792 64.868 43.8153C64.868 39.8514 61.6581 36.6661 57.6722 36.6661C55.8027 36.7369 54.5329 37.4093 53.5452 38.1526Z" fill="#808287"/>
<path d="M96.8257 43.4614H95.9792V50.3983H96.8257V48.2747L98.7658 50.3983H99.9298L97.8487 48.1332L100 45.8327H98.8363L96.8257 47.9916V43.4614ZM90.1591 45.8327H89.3125V50.3983H90.1591V47.8147C90.1591 47.4607 90.3002 47.1068 90.5118 46.8945C90.7234 46.6467 91.0409 46.5405 91.3584 46.5405C92.0638 46.5405 92.5929 47.1422 92.5929 47.85V50.4337H93.4395V47.85C93.4395 46.6821 92.4871 45.7619 91.3584 45.7619C90.8645 45.7619 90.4413 45.9743 90.1591 46.2928V45.8327ZM82.8928 48.1332C82.8928 47.2484 83.5982 46.5405 84.4448 46.5405C85.2913 46.5405 85.9263 47.2484 85.9263 48.1332C85.9263 49.018 85.2913 49.7258 84.4448 49.7258C83.5982 49.7258 82.8928 49.018 82.8928 48.1332ZM82.0462 48.1332C82.0462 49.4427 83.1044 50.5398 84.4448 50.5398C85.0444 50.5398 85.5735 50.2921 85.9263 49.9028V50.4337H86.7728V45.8681H85.9263V46.399C85.5735 46.0097 85.0444 45.7619 84.4448 45.7619C83.1044 45.7265 82.0462 46.7883 82.0462 48.1332ZM76.3672 48.1332C76.3672 47.2484 77.0021 46.5405 77.8487 46.5405C78.6952 46.5405 79.4007 47.2484 79.4007 48.1332C79.4007 49.018 78.6952 49.7258 77.8487 49.7258C76.9668 49.7258 76.3672 49.018 76.3672 48.1332ZM76.3672 43.4614H75.4854V50.3983H76.3319V49.8674C76.6846 50.2567 77.2137 50.5044 77.8134 50.5044C79.1185 50.5044 80.212 49.4427 80.212 48.0978C80.212 46.7529 79.1538 45.6911 77.8134 45.6911C77.2137 45.6911 76.6846 45.9389 76.3319 46.3282V43.4614H76.3672Z" fill="#808287"/>
</g>
<defs>
<clipPath id="clip0_3056_40960">
<rect width="100" height="51" fill="white"/>
</clipPath>
</defs>
</svg>
