<svg width="100" height="42" viewBox="0 0 100 42" fill="none" xmlns="http://www.w3.org/2000/svg">
<path d="M56.3893 7.78763C58.3123 6.65074 60.6249 7.02929 61.5214 8.6181C62.432 10.2069 61.5933 12.4227 59.6705 13.5455C57.7334 14.6676 55.4349 14.3032 54.5237 12.7292C53.6278 11.1256 54.4521 8.90972 56.3893 7.78763Z" fill="#D52B1E"/>
<path fill-rule="evenodd" clip-rule="evenodd" d="M67.192 10.5805C65.0237 13.8309 58.8503 18.6386 54.8922 18.1022C46.3655 16.9505 48.5172 8.66924 51.5382 3.90342C53.4612 0.78375 51.3646 0.725796 51.0755 0.682022C50.049 0.521661 47.3023 1.70239 44.1518 3.49527C45.2794 3.37869 46.2622 3.53903 46.9706 3.99066C48.9657 5.25887 47.9829 8.4365 44.7881 11.0623C41.6073 13.6715 37.3711 14.7794 35.3921 13.5112C34.3082 12.8262 34.1053 11.5722 34.6547 10.1295C32.5005 12.0389 30.9105 13.8614 30.5923 15.2899C30.4333 16.0624 31.3439 16.4558 32.4573 16.3393C41.3355 15.0858 45.3368 21.3979 51.7118 22.0539C60.8611 22.9867 65.3865 16.8935 68.9563 10.6542C69.043 10.5229 69.101 10.3773 69.1298 10.2607C69.1587 10.1294 69.1587 9.99843 69.1444 9.89627C69.1298 9.79411 69.0864 9.6922 69.0288 9.61938C68.9708 9.54626 68.8985 9.48812 68.8118 9.45878C68.725 9.42968 68.6239 9.41525 68.5083 9.44435C68.3781 9.45878 68.2625 9.51716 68.1181 9.60471C67.9733 9.67752 67.8286 9.80878 67.6696 9.96908C67.5252 10.1294 67.3661 10.3335 67.1925 10.5814L67.192 10.5805Z" fill="#D52B1E"/>
<path fill-rule="evenodd" clip-rule="evenodd" d="M39.7183 7.60253C41.0482 6.50942 42.8269 6.0427 43.6506 6.56737C44.4891 7.10678 44.0699 8.43363 42.7399 9.52674C41.4101 10.6199 39.6462 11.0866 38.8077 10.5471C37.9834 10.0221 38.3883 8.69565 39.7183 7.60253Z" fill="#00335B"/>
<path d="M31.707 38.1313C31.707 38.1735 31.693 38.2012 31.6652 38.2437C31.6511 38.2717 31.6093 38.3 31.5535 38.328C31.512 38.3419 31.4421 38.356 31.3447 38.3699C31.2471 38.384 31.1357 38.384 30.9965 38.384C30.8433 38.384 30.7317 38.384 30.6342 38.3699C30.5369 38.3699 30.4533 38.356 30.3975 38.3419C30.3276 38.3138 30.2723 38.2858 30.2303 38.2576C30.2095 38.2365 30.1921 38.2154 30.1747 38.1945C30.1572 38.1734 30.1398 38.1524 30.1191 38.1313L27.0409 34.0302V38.1313C27.0409 38.1735 27.0271 38.2154 27.0131 38.2437C26.9856 38.2714 26.9441 38.2994 26.9029 38.3272L26.9017 38.328L26.8964 38.3293C26.8423 38.3427 26.7871 38.3564 26.6925 38.3699C26.6089 38.384 26.4975 38.384 26.3583 38.384C26.2329 38.384 26.1215 38.384 26.0378 38.3699C25.9543 38.356 25.8846 38.3419 25.8291 38.328C25.7743 38.3005 25.7465 38.2728 25.719 38.2453L25.7173 38.2437C25.7035 38.2154 25.6895 38.1735 25.6895 38.1313V27.1479C25.6895 27.1058 25.7035 27.0636 25.7173 27.0356C25.7453 26.9934 25.7731 26.9651 25.8289 26.9513C25.8845 26.9233 25.9541 26.9091 26.0377 26.895C26.0753 26.895 26.1185 26.8921 26.166 26.889C26.2242 26.8851 26.2891 26.8809 26.3581 26.8809C26.4366 26.8809 26.5061 26.8853 26.5669 26.8893C26.614 26.8923 26.6558 26.895 26.6923 26.895C26.79 26.9091 26.8455 26.9233 26.9014 26.9513C26.9429 26.9652 26.985 26.9934 27.0128 27.0356C27.0268 27.0636 27.0406 27.1057 27.0406 27.1479V33.8485L29.7986 30.7726C29.8404 30.7163 29.8822 30.6744 29.9378 30.632C29.9796 30.604 30.0352 30.576 30.105 30.548C30.1746 30.52 30.2582 30.5058 30.3559 30.4917C30.3922 30.4917 30.4339 30.4891 30.4809 30.4861C30.5417 30.4822 30.6114 30.4778 30.69 30.4778C30.7591 30.4778 30.8281 30.482 30.89 30.4858C30.9407 30.4889 30.9867 30.4917 31.0242 30.4917C31.1219 30.5058 31.1912 30.52 31.247 30.5338C31.2532 30.537 31.2593 30.5399 31.2651 30.5427L31.2745 30.5473L31.2751 30.5476C31.3172 30.5678 31.3494 30.5834 31.3724 30.6182C31.4005 30.6462 31.4145 30.6883 31.4145 30.7305C31.4145 30.7902 31.3943 30.8397 31.3712 30.8961L31.3658 30.9092L31.3587 30.9271C31.3166 30.9972 31.2611 31.0674 31.1777 31.152L28.5314 33.8488L31.5121 37.7385C31.5817 37.837 31.6233 37.9068 31.6513 37.9631C31.6931 38.0197 31.7072 38.076 31.7072 38.132L31.707 38.1313Z" fill="#D52B1E"/>
<path d="M23.2122 38.1315C23.2122 38.1736 23.1985 38.2155 23.1844 38.2438C23.1566 38.2718 23.1285 38.3001 23.073 38.3281C23.0312 38.342 22.9616 38.3561 22.878 38.37C22.7806 38.3842 22.669 38.3842 22.5438 38.3842C22.4184 38.3842 22.307 38.3842 22.2094 38.37C22.1257 38.3561 22.0562 38.342 22.0143 38.3281C21.9587 38.3001 21.9307 38.2718 21.9029 38.2438C21.8752 38.2155 21.8752 38.1736 21.8752 38.1315V33.8058C21.8752 33.3845 21.8333 33.0478 21.7775 32.7948C21.708 32.528 21.6105 32.3034 21.4851 32.1206C21.3597 31.9378 21.2065 31.7975 20.9975 31.699C20.8027 31.6008 20.5797 31.5446 20.3149 31.5446C19.9807 31.5446 19.6461 31.671 19.298 31.9098C18.9638 32.1486 18.6154 32.4997 18.2394 32.963V38.1316C18.2394 38.1738 18.2254 38.2156 18.2114 38.2439L18.2108 38.2447C18.1832 38.2725 18.1555 38.3005 18.1002 38.3283C18.0584 38.3421 17.9887 38.3562 17.9052 38.3701C17.8075 38.3843 17.6961 38.3843 17.571 38.3843C17.4315 38.3843 17.3341 38.3843 17.2365 38.3701C17.1531 38.3562 17.0833 38.3421 17.0277 38.3283C16.9859 38.3002 16.9441 38.2719 16.9301 38.2439C16.9023 38.2156 16.9023 38.1738 16.9023 38.1316V30.742C16.9023 30.6857 16.9023 30.6577 16.9164 30.6294C16.9441 30.6014 16.9719 30.5734 17.0137 30.5454C17.0696 30.5174 17.1251 30.5032 17.2087 30.4891C17.2386 30.4891 17.276 30.4865 17.3188 30.4837C17.3762 30.4798 17.4433 30.4752 17.5151 30.4752C17.5749 30.4752 17.6306 30.4792 17.6824 30.4829C17.7271 30.4861 17.7688 30.4891 17.8075 30.4891C17.8914 30.5032 17.947 30.5174 17.9887 30.5454C18.0306 30.5734 18.0726 30.6018 18.0863 30.6299C18.1003 30.658 18.1142 30.686 18.1142 30.7421V31.7109C18.518 31.2475 18.9363 30.9102 19.3539 30.6856C19.7577 30.4751 20.176 30.3625 20.5936 30.3625C21.081 30.3625 21.4853 30.4468 21.8191 30.6155C22.1529 30.7841 22.4321 31.0087 22.6412 31.2897C22.8362 31.5704 22.9894 31.8932 23.0731 32.2728C23.1704 32.652 23.2122 33.1015 23.2122 33.6212L23.2122 38.1315Z" fill="#D52B1E"/>
<path d="M71.5642 37.9591C71.5785 37.875 71.5921 37.7486 71.5921 37.5802C71.5921 37.4821 71.5921 37.4116 71.5785 37.3412C71.5642 37.271 71.5506 37.2291 71.5369 37.187C71.5226 37.1446 71.5084 37.1168 71.4811 37.1027C71.4674 37.0885 71.4395 37.0885 71.4116 37.0885C71.37 37.0885 71.3141 37.1027 71.2583 37.1168C71.2161 37.1446 71.1472 37.1728 71.0629 37.2008C70.9934 37.2291 70.9102 37.2569 70.8122 37.2852C70.7148 37.2993 70.6037 37.3131 70.4778 37.3131C70.0881 37.3131 69.8232 37.187 69.6705 36.9201C69.5172 36.6673 69.4471 36.2738 69.4471 35.7683V31.653H71.3278C71.4116 31.653 71.4674 31.6111 71.5226 31.5127C71.5785 31.4284 71.5921 31.288 71.5921 31.0914C71.5921 30.9791 71.5921 30.8948 71.5785 30.8246C71.5642 30.7542 71.5506 30.6981 71.5226 30.6418C71.5119 30.6099 71.4858 30.586 71.4615 30.5641C71.4537 30.5572 71.446 30.5504 71.4395 30.5436C71.4116 30.5295 71.37 30.5156 71.3278 30.5156H69.4471V28.7603C69.4471 28.7179 69.4335 28.6898 69.4061 28.6477C69.3919 28.6197 69.3503 28.5917 69.3081 28.5636C69.2523 28.5353 69.1828 28.5215 69.0996 28.5073C69.0628 28.5073 69.0206 28.5046 68.9737 28.5016C68.9131 28.4976 68.8436 28.4932 68.7652 28.4932C68.6957 28.4932 68.631 28.4974 68.5727 28.5013C68.5252 28.5045 68.4825 28.5073 68.4444 28.5073C68.3613 28.5214 68.2912 28.5353 68.2359 28.5636C68.1801 28.5916 68.1522 28.6196 68.1243 28.6477C68.1213 28.6562 68.1183 28.6641 68.1159 28.6717C68.1052 28.7017 68.0963 28.7264 68.0963 28.7602V30.5156H67.08C67.0378 30.5156 66.9956 30.5294 66.9683 30.5436C66.9261 30.5716 66.8988 30.5996 66.8709 30.6418C66.8566 30.6981 66.843 30.7541 66.8287 30.8245C66.815 30.8947 66.8008 30.979 66.8008 31.0913C66.8008 31.2879 66.8287 31.4283 66.8709 31.5126C66.9261 31.611 66.9956 31.6529 67.0657 31.6529H68.0963V35.9643C68.0963 36.4 68.1379 36.765 68.2217 37.0739C68.2912 37.3968 68.4308 37.6497 68.5977 37.8604C68.7789 38.0715 69.0016 38.226 69.2666 38.3242C69.5309 38.4226 69.8653 38.4786 70.2413 38.4786C70.3667 38.4786 70.492 38.4645 70.6174 38.4503C70.6869 38.4427 70.7558 38.4307 70.8229 38.4191C70.8769 38.4098 70.9298 38.4006 70.9797 38.3943C71.0914 38.366 71.1882 38.338 71.2726 38.2961C71.3557 38.2537 71.4252 38.2115 71.4674 38.1697C71.5084 38.1275 71.5369 38.0575 71.5642 37.9591Z" fill="#D52B1E"/>
<path d="M65.8633 37.7631C65.8633 37.861 65.8496 37.9592 65.8353 38.0297C65.8217 38.0998 65.808 38.1561 65.7801 38.2121C65.7694 38.2443 65.7421 38.2685 65.7177 38.2905L65.7088 38.2987C65.7041 38.3027 65.6999 38.3066 65.6963 38.3106C65.6542 38.3247 65.6132 38.3386 65.571 38.3386H61.0576C60.9323 38.3386 60.8491 38.2967 60.7654 38.2266C60.6959 38.142 60.668 38.0158 60.668 37.833V37.5519C60.668 37.4821 60.668 37.4117 60.6816 37.3413C60.6959 37.2853 60.7096 37.2293 60.7238 37.173C60.7517 37.1028 60.7796 37.0465 60.8212 36.9763C60.8485 36.9076 60.902 36.8258 60.9567 36.7435L60.9602 36.7375L64.1917 31.6676H61.0576C60.9602 31.6676 60.8907 31.6254 60.8491 31.5273C60.7933 31.443 60.7654 31.2885 60.7654 31.0919C60.7654 31.0407 60.769 30.9933 60.7731 30.9479C60.7761 30.9059 60.7796 30.8654 60.7796 30.8251C60.7933 30.7546 60.8076 30.6986 60.8349 30.6423C60.8628 30.6002 60.8907 30.5722 60.9323 30.5441C60.9602 30.53 61.0024 30.5161 61.0576 30.5161H65.2645C65.3203 30.5161 65.3762 30.53 65.4177 30.5441C65.4593 30.5583 65.5021 30.5867 65.5431 30.6285C65.571 30.6708 65.5989 30.7126 65.6132 30.7829C65.6262 30.8389 65.6405 30.9091 65.6405 31.0076V31.2743C65.6405 31.3445 65.6405 31.415 65.6262 31.4851C65.6132 31.5553 65.5989 31.6116 65.571 31.6815C65.5567 31.7378 65.5288 31.808 65.4872 31.8784C65.4724 31.9035 65.4575 31.9304 65.4421 31.9584C65.4142 32.0088 65.3839 32.063 65.3476 32.1172L62.131 37.1872H65.571C65.6132 37.1872 65.6542 37.201 65.6827 37.2151C65.7243 37.2432 65.7522 37.2712 65.7801 37.3133C65.808 37.3555 65.8217 37.4118 65.8353 37.4958C65.8496 37.5663 65.8633 37.6506 65.8633 37.7631Z" fill="#D52B1E"/>
<path d="M59.3898 37.2462C59.4034 37.176 59.4034 37.1059 59.4034 37.0077C59.4034 36.8951 59.4034 36.7966 59.3898 36.7267C59.3856 36.703 59.3832 36.6805 59.3803 36.6593C59.3737 36.6052 59.3678 36.5604 59.3482 36.5301C59.3339 36.4741 59.306 36.4317 59.2781 36.4175C59.2502 36.3895 59.2223 36.3757 59.1807 36.3757C59.1112 36.3757 59.0274 36.4317 58.9163 36.5301C58.8688 36.5618 58.8195 36.5977 58.766 36.636L58.7649 36.637C58.6787 36.6998 58.5825 36.7697 58.4702 36.8391C58.3027 36.9653 58.1085 37.0779 57.8715 37.1761C57.6344 37.2742 57.3695 37.3164 57.0493 37.3164C56.7292 37.3164 56.4363 37.2601 56.1862 37.1478C55.935 37.0215 55.7265 36.8391 55.5453 36.6003C55.3784 36.3615 55.2388 36.0667 55.155 35.7015C55.0582 35.3363 55.016 34.9293 55.016 34.4374C55.016 33.4965 55.1972 32.7801 55.531 32.2746C55.8797 31.769 56.3811 31.5161 57.0214 31.5161C57.3422 31.5161 57.6071 31.5582 57.8435 31.6564C58.0663 31.7407 58.2754 31.8533 58.4286 31.9515C58.5956 32.0638 58.7346 32.162 58.8326 32.2604C58.9437 32.3447 59.0417 32.3866 59.1112 32.3866C59.1943 32.3866 59.2502 32.3447 59.2923 32.2604C59.3482 32.1761 59.3755 32.0358 59.3755 31.8109C59.3755 31.755 59.3713 31.7036 59.3672 31.6593C59.3642 31.6258 59.3618 31.5964 59.3618 31.5721C59.3618 31.5033 59.3482 31.448 59.3351 31.3929L59.3339 31.3896C59.3197 31.3333 59.2924 31.2914 59.2644 31.2634C59.2543 31.2332 59.2234 31.1961 59.186 31.1519C59.1712 31.1341 59.1551 31.115 59.1391 31.0948C59.069 31.0385 58.9579 30.9542 58.8189 30.856C58.6793 30.7717 58.5124 30.6874 58.3312 30.6172C58.1358 30.5471 57.941 30.4907 57.7182 30.4486C57.4954 30.3923 57.2721 30.3784 57.0357 30.3784C56.548 30.3784 56.1025 30.4627 55.6843 30.6172C55.2803 30.7859 54.9186 31.0246 54.6121 31.3615C54.2919 31.6985 54.0549 32.1337 53.8737 32.6535C53.7068 33.1732 53.6094 33.8047 53.6094 34.5211C53.6094 35.1674 53.6931 35.7293 53.8321 36.2206C53.9711 36.7119 54.1802 37.1194 54.4588 37.4562C54.7374 37.7934 55.0718 38.0603 55.49 38.229C55.8934 38.4115 56.3531 38.4955 56.8824 38.4955C57.1331 38.4955 57.3838 38.4675 57.6208 38.4256C57.8715 38.369 58.08 38.313 58.289 38.229C58.4981 38.1444 58.6793 38.06 58.8462 37.9616L58.886 37.9328L58.9241 37.9053C59.0417 37.8206 59.1343 37.7532 59.1807 37.6951C59.2502 37.6388 59.2923 37.5827 59.3197 37.5406C59.3339 37.5126 59.3482 37.4704 59.3618 37.4142C59.3755 37.372 59.3898 37.3157 59.3898 37.2455V37.2462Z" fill="#D52B1E"/>
<path d="M96.3367 41.0658C96.3088 41.1498 96.2256 41.22 96.086 41.2622C95.9607 41.3043 95.7516 41.3326 95.4872 41.3326C95.334 41.3326 95.2229 41.3326 95.1386 41.3182C95.0554 41.3043 94.9859 41.2766 94.9443 41.248C94.8885 41.2061 94.8742 41.164 94.8606 41.1077C94.8606 41.0516 94.8742 40.9956 94.9021 40.911L95.9191 38.3407C95.8633 38.3127 95.8217 38.2847 95.7795 38.2287C95.7237 38.1862 95.6963 38.1302 95.6821 38.0742L93.0636 31.0113C93.0221 30.899 93.0078 30.8008 93.0078 30.7445C93.0078 30.6744 93.0221 30.618 93.0636 30.5759C93.1195 30.5479 93.189 30.5198 93.2864 30.5057C93.3838 30.4916 93.5092 30.4777 93.6761 30.4777C93.7616 30.4777 93.8383 30.482 93.9066 30.4858C93.9606 30.4888 94.0093 30.4916 94.0527 30.4916C94.1501 30.5057 94.2196 30.5198 94.2754 30.5479C94.3307 30.562 94.3729 30.59 94.3865 30.6319C94.415 30.6743 94.4424 30.7303 94.4703 30.8008L96.5595 36.741H96.5874L98.607 30.7711L98.6136 30.7563C98.6522 30.6658 98.6795 30.601 98.7324 30.5745C98.7739 30.5323 98.844 30.5185 98.9415 30.5043C99.0252 30.4902 99.1642 30.4763 99.3311 30.4763C99.485 30.4763 99.6103 30.4902 99.7078 30.5043C99.8052 30.5185 99.8889 30.5465 99.9305 30.5745C99.9721 30.6166 100.001 30.6729 100.001 30.7431C100.001 30.7994 99.9863 30.8834 99.9448 30.9819L96.3367 41.0658Z" fill="#D52B1E"/>
<path d="M92.1772 30.8547C92.1909 30.7987 92.1909 30.7563 92.1909 30.7141C92.1909 30.6723 92.1909 30.6298 92.163 30.6018C92.1493 30.5739 92.1214 30.56 92.0661 30.5319C92.0246 30.5039 91.9539 30.4895 91.8844 30.4895C91.8481 30.4895 91.8089 30.4868 91.7644 30.4838C91.7079 30.48 91.6426 30.4756 91.5642 30.4756C91.4882 30.4756 91.4204 30.4797 91.3593 30.4835C91.3076 30.4866 91.2601 30.4895 91.2161 30.4895C91.1323 30.5036 91.0622 30.5177 91.007 30.5316L91.0058 30.5325C90.9642 30.5604 90.9232 30.5882 90.8953 30.6159C90.868 30.6573 90.8543 30.6987 90.8407 30.7401L90.8395 30.7423L89.099 36.837L89.0848 36.9069L89.0711 36.837L87.3158 30.7304C87.3158 30.6961 87.2974 30.6617 87.2831 30.635C87.2795 30.629 87.2766 30.6233 87.2742 30.6181C87.2463 30.5763 87.2189 30.5623 87.1637 30.5344L87.1625 30.5338C87.1209 30.52 87.0514 30.5058 86.9677 30.4917C86.9303 30.4917 86.8869 30.4889 86.8394 30.4858C86.7812 30.482 86.7164 30.4778 86.6469 30.4778C86.5685 30.4778 86.499 30.4822 86.4384 30.4861C86.3915 30.489 86.3493 30.4917 86.3131 30.4917C86.2293 30.5059 86.1598 30.52 86.1176 30.5339C86.063 30.5619 86.0351 30.5896 86.0071 30.6173L86.0066 30.6182C85.9792 30.6595 85.9656 30.7009 85.9519 30.7423L85.9507 30.7446L84.3356 36.8393L84.3213 36.9092L84.2934 36.8393L82.5244 30.7446C82.5102 30.7025 82.4965 30.6603 82.4686 30.6182C82.4549 30.5906 82.4139 30.563 82.3729 30.5351L82.3712 30.5338C82.3153 30.5199 82.2458 30.5058 82.1478 30.4917C82.1128 30.4917 82.07 30.4892 82.0201 30.4863C81.953 30.4823 81.8746 30.4778 81.7861 30.4778C81.7195 30.4778 81.6607 30.4817 81.6061 30.4853C81.5574 30.4886 81.5116 30.4916 81.4659 30.4916C81.3821 30.4916 81.3126 30.5058 81.2568 30.5338C81.2146 30.5479 81.173 30.5759 81.1457 30.6039C81.1314 30.632 81.1172 30.6744 81.1172 30.7163C81.1172 30.7584 81.1172 30.8009 81.1314 30.8569C81.135 30.8707 81.1386 30.8854 81.1421 30.901C81.1534 30.9484 81.1665 31.0042 81.1873 31.0674L83.3323 38.0887C83.3459 38.145 83.3739 38.1871 83.416 38.2296C83.4434 38.2714 83.4855 38.2997 83.555 38.3278C83.6251 38.3416 83.7083 38.3557 83.82 38.3696C83.9311 38.3838 84.0701 38.3838 84.2376 38.3838C84.3908 38.3838 84.5298 38.3838 84.6415 38.3696C84.7532 38.3696 84.8506 38.3557 84.9201 38.3278C84.9896 38.3136 85.046 38.2856 85.0734 38.2434C85.1149 38.201 85.1428 38.1591 85.1571 38.0887L86.5774 32.7241L86.5917 32.6539L86.6196 32.7241L88.1516 38.0887C88.1652 38.145 88.1931 38.1871 88.2211 38.2296C88.2632 38.2714 88.3048 38.2997 88.3743 38.3278C88.4438 38.3416 88.5418 38.3557 88.6529 38.3696C88.7646 38.3838 88.9036 38.3838 89.0711 38.3838C89.238 38.3838 89.377 38.3838 89.4744 38.3696C89.5861 38.3696 89.6699 38.3557 89.7394 38.3278C89.7952 38.3136 89.851 38.2856 89.879 38.2434C89.9205 38.201 89.9485 38.1591 89.9621 38.0887L92.1214 31.0674C92.1422 31.0042 92.1552 30.9486 92.1665 30.9011V30.9004L92.1707 30.8826C92.1731 30.8737 92.1748 30.8651 92.1772 30.8569V30.8547Z" fill="#D52B1E"/>
<path fill-rule="evenodd" clip-rule="evenodd" d="M76.3782 38.4938H76.3081C75.7093 38.4938 75.18 38.3956 74.7345 38.2272C74.2747 38.0445 73.8987 37.7777 73.6065 37.4265C73.3136 37.0893 73.0909 36.6679 72.9376 36.1767C72.7986 35.6847 72.7148 35.1235 72.7148 34.4914C72.7148 33.9016 72.7986 33.3396 72.9513 32.8341C73.1045 32.3286 73.3415 31.8932 73.648 31.5279C73.9682 31.1626 74.3585 30.8673 74.8183 30.6713C75.2774 30.4747 75.793 30.3762 76.3782 30.3621H76.4619C77.0607 30.3621 77.59 30.4605 78.0355 30.643C78.4816 30.8117 78.8576 31.0784 79.1635 31.4295C79.4564 31.7667 79.6791 32.1881 79.8324 32.6793C79.9856 33.1849 80.0551 33.7325 80.0551 34.3366C80.0551 34.9544 79.972 35.5021 79.8187 36.0076C79.6655 36.5132 79.4284 36.9628 79.1083 37.3275C78.8017 37.6928 78.4115 37.9738 77.938 38.1841C77.4925 38.3807 76.9627 38.4792 76.3782 38.4931V38.4938ZM76.3782 31.5022C75.9879 31.5022 75.6677 31.5723 75.3749 31.7129C75.0963 31.8535 74.8598 32.064 74.6787 32.317C74.4838 32.5839 74.3585 32.8928 74.2611 33.2437C74.1773 33.609 74.1357 33.988 74.1357 34.4098C74.1357 34.8169 74.1637 35.1963 74.2332 35.5473C74.3169 35.9123 74.428 36.2215 74.6092 36.4882C74.7767 36.755 75.0131 36.9655 75.2917 37.1203C75.584 37.2745 75.9463 37.3446 76.3639 37.3446H76.3782C76.7678 37.3446 77.1029 37.2745 77.3951 37.1344C77.6731 36.9936 77.9101 36.7969 78.0913 36.5303C78.2861 36.2774 78.4257 35.9681 78.5095 35.6173C78.5926 35.2523 78.6342 34.873 78.6342 34.4376C78.6342 34.0304 78.5927 33.6653 78.5232 33.3143C78.4537 32.9632 78.3283 32.6401 78.1608 32.3734C77.9939 32.1066 77.7705 31.8958 77.4783 31.7413C77.186 31.5869 76.8373 31.5025 76.4061 31.5025L76.3782 31.5022Z" fill="#D52B1E"/>
<path fill-rule="evenodd" clip-rule="evenodd" d="M0.515429 38.3394C0.390032 38.3394 0.278655 38.2976 0.167217 38.213C0.0556012 38.1289 0 37.9745 0 37.764V28.2715C0 28.061 0.0556012 27.9204 0.167217 27.822C0.278655 27.7379 0.390032 27.6958 0.515429 27.6958H3.10594C3.64917 27.7097 4.10865 27.766 4.45674 27.8783C4.86079 28.0047 5.19511 28.1731 5.4737 28.4119C5.73828 28.6365 5.94702 28.9178 6.07247 29.2548C6.21189 29.5918 6.28151 29.9712 6.28151 30.3924C6.28151 30.6453 6.25347 30.8841 6.18385 31.123C6.12831 31.3477 6.04467 31.5584 5.91927 31.755C5.80789 31.9517 5.66842 32.1203 5.48742 32.2747C5.30643 32.4292 5.11141 32.5557 4.8744 32.6539C5.16701 32.7099 5.43165 32.8083 5.68226 32.9629C5.93312 33.1032 6.15593 33.2859 6.33687 33.5106C6.53189 33.7352 6.67136 34.002 6.78274 34.2828C6.89412 34.5918 6.94972 34.9291 6.94972 35.2802C6.94972 35.6172 6.9082 35.9259 6.82456 36.2069C6.74092 36.4881 6.61552 36.7549 6.46232 36.9797C6.30913 37.2043 6.12813 37.4009 5.9191 37.5696C5.69628 37.7379 5.4595 37.8785 5.19499 37.9909C4.91639 38.1032 4.63774 38.2014 4.33129 38.2577C4.02483 38.314 3.66242 38.342 3.27274 38.342L0.515429 38.3394ZM2.97764 28.853C3.02266 28.8563 3.06603 28.8596 3.10624 28.8596C3.38484 28.8735 3.62167 28.9018 3.80243 28.9719C4.05299 29.0421 4.24801 29.1544 4.4012 29.295C4.5544 29.4495 4.66554 29.6181 4.7354 29.8286C4.80496 30.0392 4.83276 30.2782 4.83276 30.5308C4.83276 30.7554 4.80496 30.9803 4.7354 31.205C4.66554 31.4157 4.56812 31.6124 4.41493 31.7669C4.26173 31.9352 4.08073 32.0617 3.85797 32.1599C3.66266 32.2442 3.4121 32.2863 3.10594 32.3005H1.37913V28.8457H2.82735C2.87808 28.8457 2.92893 28.8493 2.97764 28.853ZM1.37913 37.1752V33.4251H3.10594C3.52372 33.4393 3.87223 33.4672 4.16449 33.5516C4.44344 33.6359 4.69399 33.7623 4.87493 33.9307C5.06995 34.0852 5.22314 34.2818 5.32074 34.5206C5.41816 34.7593 5.474 35.0542 5.474 35.3635C5.474 35.6583 5.41816 35.9252 5.32074 36.1494C5.20913 36.3746 5.06995 36.5571 4.88865 36.7115C4.70765 36.866 4.49892 36.9784 4.26196 37.0485C4.02513 37.1331 3.74654 37.175 3.41252 37.175L1.37913 37.1752Z" fill="#D52B1E"/>
<path fill-rule="evenodd" clip-rule="evenodd" d="M10.9749 38.4937C11.1281 38.4937 11.2951 38.4799 11.4623 38.4515C11.7132 38.4097 11.9778 38.3254 12.2144 38.1986C12.6184 38.0164 12.9664 37.7494 13.2872 37.3985V38.1428C13.2872 38.1988 13.3149 38.2551 13.3429 38.2834C13.3758 38.3167 13.4263 38.3324 13.4872 38.3513C13.5034 38.3563 13.5204 38.3615 13.538 38.3674C13.6213 38.3816 13.7327 38.3816 13.8722 38.3816C14.0113 38.3816 14.123 38.3816 14.2064 38.3674C14.2252 38.3599 14.244 38.3534 14.2622 38.3471C14.3116 38.3299 14.3568 38.3142 14.3873 38.2834C14.4292 38.2551 14.4432 38.1988 14.4432 38.1428V33.1572C14.4432 32.6938 14.4014 32.2863 14.29 31.9495C14.1923 31.5984 14.0254 31.3175 13.7886 31.0787C13.5658 30.8399 13.2731 30.6716 12.897 30.5451C12.5347 30.4328 12.0748 30.3623 11.5598 30.3623H11.4622L11.4571 30.3626C11.2082 30.3766 10.9591 30.3907 10.7098 30.4466C10.4315 30.5029 10.1806 30.5592 9.94356 30.6432C9.70672 30.7275 9.51171 30.8118 9.33053 30.91C9.14953 30.9943 9.02408 31.0786 8.95452 31.149C8.87088 31.2331 8.82912 31.3032 8.81504 31.3875C8.7873 31.4577 8.7873 31.57 8.7873 31.7106C8.7873 31.7949 8.7873 31.8651 8.80132 31.9353C8.81504 32.0054 8.82912 32.0617 8.85686 32.1039C8.87088 32.1461 8.89868 32.1741 8.9405 32.2021C8.9683 32.2162 9.01006 32.2304 9.05188 32.2304C9.12173 32.2304 9.21909 32.1882 9.34455 32.118C9.48373 32.0338 9.65094 31.9494 9.84596 31.8513C10.041 31.7528 10.2778 31.6685 10.5421 31.5842C10.8067 31.514 11.0994 31.4719 11.4338 31.4719H11.4616C11.7539 31.4719 12.0048 31.514 12.2136 31.5842C12.4226 31.6544 12.6039 31.767 12.729 31.9073C12.8685 32.0476 12.9659 32.2304 13.0217 32.455C13.0775 32.6797 13.1053 32.9326 13.1053 33.213V33.789H12.102C11.8792 33.789 11.6565 33.8029 11.4617 33.817C11.1412 33.8311 10.835 33.8733 10.5564 33.9435C10.0968 34.0278 9.72062 34.1823 9.40045 34.3786C9.09405 34.5894 8.8432 34.8423 8.67634 35.1509C8.50912 35.4601 8.42578 35.8251 8.42578 36.2326C8.42578 36.5978 8.48138 36.9062 8.60648 37.1878C8.73194 37.4687 8.89916 37.7072 9.12221 37.9036C9.34503 38.0863 9.6096 38.2411 9.91582 38.3392C10.2363 38.4377 10.5847 38.4937 10.9749 38.4937ZM11.3234 34.7936C11.3685 34.7869 11.4149 34.7801 11.4623 34.7721C11.6155 34.758 11.7828 34.758 11.9638 34.758H13.1061V36.331C12.7856 36.6962 12.4651 36.9772 12.1586 37.1596C11.9358 37.2861 11.699 37.3704 11.4624 37.4125C11.365 37.4267 11.2674 37.4267 11.1838 37.4267C10.752 37.4267 10.4039 37.3141 10.1668 37.0895C9.91629 36.8648 9.80491 36.5558 9.80491 36.1764C9.80491 35.9516 9.84673 35.7552 9.93031 35.5723C10.0137 35.4037 10.1391 35.2495 10.3203 35.1369C10.5013 35.0107 10.7241 34.9123 11.0029 34.8559C11.1025 34.8259 11.2093 34.8104 11.3234 34.7936Z" fill="#D52B1E"/>
<path fill-rule="evenodd" clip-rule="evenodd" d="M48.4569 38.4938H48.3731C47.7743 38.4938 47.2451 38.3956 46.799 38.2272C46.3534 38.0445 45.9774 37.7777 45.6709 37.4265C45.3787 37.0893 45.1559 36.6679 45.0021 36.1767C44.8631 35.6847 44.7793 35.1235 44.7793 34.4914C44.7793 33.9016 44.8631 33.3396 45.0163 32.8341C45.1696 32.3286 45.4066 31.8932 45.7125 31.5279C46.0333 31.1626 46.4229 30.8673 46.8827 30.6713C47.3425 30.4747 47.8575 30.3762 48.4569 30.3621H48.5264C49.1251 30.3621 49.6544 30.4605 50.1005 30.643C50.546 30.8117 50.922 31.0784 51.2286 31.4295C51.5208 31.7667 51.7436 32.1881 51.8968 32.6793C52.0501 33.1849 52.1196 33.7325 52.1196 34.3366C52.1196 34.9544 52.0364 35.5021 51.8832 36.0076C51.7299 36.5132 51.4935 36.9628 51.1864 37.3275C50.8662 37.6928 50.4759 37.9738 50.0025 38.1841C49.557 38.3807 49.042 38.4792 48.4569 38.4931V38.4938ZM48.4569 31.5022C48.0666 31.5022 47.7322 31.5723 47.4399 31.7129C47.1613 31.8535 46.9243 32.064 46.7437 32.317C46.5625 32.5839 46.4229 32.8928 46.3255 33.2437C46.2418 33.609 46.2002 33.988 46.2002 34.4098C46.2002 34.8169 46.2281 35.1963 46.3119 35.5473C46.3814 35.9123 46.5067 36.2215 46.6736 36.4882C46.8411 36.755 47.0776 36.9655 47.3561 37.1203C47.649 37.2745 48.0108 37.3446 48.4426 37.3446H48.4569C48.8329 37.3446 49.1673 37.2745 49.4596 37.1344C49.7382 36.9936 49.9752 36.7969 50.17 36.5303C50.3512 36.2774 50.4902 35.9681 50.5739 35.6173C50.6571 35.2523 50.6993 34.873 50.6993 34.4376C50.6993 34.0304 50.6714 33.6653 50.5882 33.3143C50.5187 32.9632 50.3928 32.6401 50.2258 32.3734C50.0583 32.1066 49.8356 31.8958 49.5427 31.7413C49.2505 31.5869 48.9024 31.5025 48.4705 31.5025L48.4569 31.5022Z" fill="#D52B1E"/>
<path fill-rule="evenodd" clip-rule="evenodd" d="M39.7865 34.282C39.9956 34.282 40.1904 34.282 40.3852 34.2679C40.7892 34.226 41.1515 34.1556 41.4717 34.0432C41.9315 33.8888 42.3354 33.65 42.6556 33.3554C42.9763 33.0464 43.2264 32.6812 43.4082 32.26C43.5751 31.8384 43.6589 31.347 43.6589 30.8136C43.6589 30.4203 43.603 30.055 43.4914 29.7182C43.3803 29.3951 43.2264 29.1004 43.0179 28.8473C42.8088 28.5947 42.5588 28.3839 42.2659 28.2016C41.9731 28.033 41.6808 27.9207 41.3879 27.8505C41.1099 27.7942 40.8587 27.7521 40.6502 27.7241C40.6098 27.7241 40.5694 27.7208 40.5278 27.7174C40.4827 27.7137 40.4363 27.7099 40.3852 27.7099C40.3241 27.7099 40.2635 27.7066 40.2005 27.7033C40.1346 27.6997 40.0668 27.696 39.9956 27.696H37.7389C37.5997 27.696 37.4743 27.7521 37.3489 27.8364C37.2375 27.9348 37.1816 28.0893 37.1816 28.3139V38.1331C37.1816 38.1753 37.1957 38.203 37.224 38.2454C37.2375 38.2735 37.2793 38.3017 37.3354 38.3156C37.3909 38.3436 37.4602 38.3577 37.5439 38.3716C37.6415 38.3857 37.7529 38.3857 37.8921 38.3857C38.0175 38.3857 38.1289 38.3857 38.2266 38.3716C38.3102 38.3577 38.3798 38.3436 38.4356 38.3156C38.4904 38.3019 38.5182 38.2742 38.5459 38.2465L38.5471 38.2454C38.5746 38.203 38.5886 38.1753 38.5886 38.1331V34.285L39.7865 34.282ZM39.8839 28.8747C40.0514 28.8747 40.2183 28.8747 40.3852 28.903C40.4577 28.903 40.5195 28.9135 40.589 28.9254L40.6223 28.931C40.8729 28.959 41.1099 29.0574 41.347 29.1977C41.5834 29.338 41.7925 29.563 41.9457 29.844C42.1126 30.1388 42.1964 30.504 42.1964 30.9394C42.1964 31.2483 42.1406 31.5429 42.0431 31.8239C41.9457 32.091 41.8061 32.3295 41.6113 32.5118C41.4159 32.7084 41.1794 32.8629 40.9008 32.9752C40.7476 33.0315 40.5807 33.0736 40.3852 33.1016C40.2183 33.1297 40.0371 33.1441 39.856 33.1441H38.5883V28.8743L39.8839 28.8747Z" fill="#D52B1E"/>
</svg>
