<svg width="100" height="42" viewBox="0 0 100 42" fill="none" xmlns="http://www.w3.org/2000/svg">
<g clip-path="url(#clip0_870_84316)">
<path fill-rule="evenodd" clip-rule="evenodd" d="M9.37748 15.915C9.23267 15.0223 9.24332 14.3602 9.24332 13.9271C7.6307 16.259 5.70127 16.259 4.89499 16.259C2.79354 16.259 1.8431 15.656 1.26593 15.108C0.403843 14.2426 0 13.065 0 11.91C0 10.7576 0.403842 8.62899 3.0798 7.38898C4.86842 6.58068 7.4308 6.58068 8.84219 6.58068C8.84219 5.63223 8.81363 5.16997 8.64027 4.65259C8.26498 3.58457 7.14122 3.4411 6.74138 3.4411C6.13565 3.4411 5.50068 3.70082 5.12612 4.24875C4.80997 4.73822 4.80997 5.20052 4.80997 5.54389H0.633635C0.662192 4.76682 0.749199 3.21062 2.27612 2.11809C3.59917 1.167 5.29945 0.936523 6.68091 0.936523C7.89305 0.936523 10.4242 1.13909 11.8648 2.80815C12.8457 3.98841 12.8736 5.71859 12.8736 6.38143L12.9029 12.2288C12.9029 13.4655 12.9274 14.7042 13.1865 15.915H9.37744H9.37748ZM4.14778 11.4199C4.14778 12.4002 4.80997 13.4947 6.22068 13.4947C6.99645 13.4947 7.6307 13.1195 8.03587 12.6599C8.78439 11.7373 8.84219 10.6149 8.84219 9.05872C6.10511 8.82824 4.14778 9.69167 4.14778 11.4199Z" fill="#1A1919"/>
<path fill-rule="evenodd" clip-rule="evenodd" d="M15.6719 15.915H19.9359V1.3125H15.6719V15.915Z" fill="#1A1919"/>
<path fill-rule="evenodd" clip-rule="evenodd" d="M26.7527 4.10412L26.6644 1.31261H22.6621C22.7484 2.14614 22.864 4.24893 22.864 4.94166V15.9151H27.126V8.74405C27.126 6.9282 27.385 4.70916 31.7055 5.11301V1.2834C28.2491 1.11004 27.298 2.8661 26.7527 4.10412H26.7527Z" fill="#1A1919"/>
<path fill-rule="evenodd" clip-rule="evenodd" d="M45.4086 27.9297C43.4805 27.9297 42.0685 26.3763 42.0685 23.1291C42.0685 22.2265 42.0685 18.7256 45.2101 18.7256C48.2918 18.7256 48.3496 22.4829 48.3496 23.61C48.3496 24.3445 48.3496 27.9297 45.4087 27.9297H45.4086ZM46.3624 15.7814C45.6125 15.7814 43.6838 15.8405 42.2425 17.74V11.3633H37.9785V30.53H42.0984C42.1854 29.6354 42.2159 29.0084 42.2425 28.5488C43.5696 30.8222 45.8696 30.8183 46.6194 30.8183C49.5298 30.8183 52.6972 28.9154 52.6972 23.4725C52.6972 18.5735 49.905 15.7814 46.3624 15.7814Z" fill="#1A1919"/>
<path fill-rule="evenodd" clip-rule="evenodd" d="M62.1178 27.2766C61.7153 27.7382 61.081 28.1101 60.304 28.1101C58.8906 28.1101 58.2291 27.0162 58.2291 26.0346C58.2291 24.3084 60.1884 23.4449 62.9248 23.6754C62.9248 25.2289 62.867 26.354 62.1178 27.2766ZM66.9577 20.9955C66.9577 20.334 66.9271 18.6051 65.9481 17.4222C64.5082 15.7505 61.9744 15.5513 60.7649 15.5513C59.3814 15.5513 57.6805 15.7817 56.3568 16.7335C54.8299 17.8274 54.7442 19.3829 54.7163 20.1586H58.8907C58.8907 19.8146 58.8907 19.3543 59.2088 18.8635C59.5841 18.3169 60.2163 18.0578 60.8214 18.0578C61.2252 18.0578 62.3483 18.2007 62.7229 19.2673C62.8956 19.7847 62.9249 20.2456 62.9249 21.1968C61.5135 21.1968 58.9491 21.1968 57.1658 22.0024C54.4852 23.2398 54.082 25.3737 54.082 26.5254C54.082 27.6791 54.4852 28.8607 55.348 29.7228C55.9251 30.2713 56.8762 30.8744 58.9783 30.8744C59.7853 30.8744 61.7154 30.8744 63.328 28.5419C63.328 28.9749 63.3028 29.6371 63.4469 30.5304H67.2666C67.0068 29.3182 66.9843 28.0823 66.9843 26.8416L66.9577 20.9955H66.9577Z" fill="#1A1919"/>
<path fill-rule="evenodd" clip-rule="evenodd" d="M83.0299 18.3165C82.6553 17.3096 81.4478 15.5801 78.5972 15.5801C75.427 15.5801 74.2741 17.4524 73.8702 18.1152L73.758 15.9274H69.666C69.753 16.9343 69.753 18.5177 69.753 18.5735V30.5299H74.0429V22.1315C74.0429 21.009 74.3053 20.289 74.5623 19.9151C75.0239 19.2217 75.8574 18.7906 76.7793 18.7906C77.8752 18.7906 78.538 19.3937 78.8522 20.0294C79.0853 20.489 79.0853 21.009 79.0853 21.6107V30.5299H83.4343V22.6641C83.4343 19.9576 83.346 19.2091 83.0298 18.3164L83.0299 18.3165Z" fill="#1A1919"/>
<path fill-rule="evenodd" clip-rule="evenodd" d="M36.8008 1.30322L21.4922 30.5103H25.9255L41.2348 1.30322H36.8008Z" fill="#84BF41"/>
<path fill-rule="evenodd" clip-rule="evenodd" d="M99.6607 15.9262H94.8521L90.4665 21.9754V11.3042H86.2324V30.53H90.4665V22.6084L94.9616 30.53H99.9994L94.7006 22.2351L99.6607 15.9262Z" fill="#1A1919"/>
<path fill-rule="evenodd" clip-rule="evenodd" d="M24.2818 37.8169C24.2572 37.6675 24.1795 37.0697 23.3513 37.0697C22.3105 37.0697 22.1279 38.1324 22.1279 38.8497C22.1279 39.6626 22.3597 40.54 23.3446 40.54C23.6077 40.54 23.858 40.4736 24.0413 40.281C24.1988 40.1136 24.2346 39.931 24.2519 39.8273H24.9094C24.8204 40.6748 24.038 41.0282 23.2968 41.0282C21.7805 41.0282 21.4883 39.6905 21.4883 38.8537C21.4883 37.9484 21.841 36.5928 23.3759 36.5928C23.9842 36.5928 24.8437 36.8359 24.9194 37.8169H24.2818V37.8169Z" fill="#1A1919"/>
<path fill-rule="evenodd" clip-rule="evenodd" d="M27.252 36.6519H27.8437V40.431H29.8462V40.9603H27.252V36.6519Z" fill="#1A1919"/>
<path fill-rule="evenodd" clip-rule="evenodd" d="M31.6504 36.6519H34.3549V37.1599H32.2481V38.5023H34.2533V39.003H32.2481V40.4383H34.4007V40.9603H31.6504V36.6519Z" fill="#1A1919"/>
<path fill-rule="evenodd" clip-rule="evenodd" d="M36.9648 36.6519H37.7951L39.9158 40.2165V36.6519H40.4644V40.9603H39.7006L37.5088 37.3034V40.9603H36.9648V36.6519Z" fill="#1A1919"/>
<path fill-rule="evenodd" clip-rule="evenodd" d="M46.7661 39.7018C46.7794 40 46.8153 40.5565 47.8063 40.5565C48.7016 40.5565 48.8151 40 48.8151 39.7861C48.8151 39.3039 48.4259 39.207 47.8242 39.0575C47.1653 38.8961 46.8758 38.8257 46.6533 38.6769C46.3019 38.4365 46.2069 38.1144 46.2069 37.8275C46.2069 36.9494 47.0345 36.5688 47.8467 36.5688C48.1343 36.5688 48.7102 36.616 49.0595 36.9919C49.2966 37.2563 49.3099 37.5465 49.3239 37.7265H48.7016C48.671 37.1892 48.2174 37.0697 47.793 37.0697C47.1966 37.0697 46.8392 37.3387 46.8392 37.7684C46.8392 38.1523 47.0883 38.2818 47.6143 38.4066C48.6411 38.6697 48.7547 38.6936 49.0038 38.8596C49.4043 39.124 49.4355 39.5417 49.4355 39.7217C49.4355 40.4835 48.8384 41.064 47.7346 41.064C47.4071 41.064 46.737 41.0082 46.3956 40.5739C46.1511 40.2557 46.1465 39.913 46.1465 39.7018H46.7661V39.7018Z" fill="#1A1919"/>
<path fill-rule="evenodd" clip-rule="evenodd" d="M51.9023 36.6519H52.4935V38.5381L54.2921 36.6519H55.1097L53.1809 38.5793L55.3182 40.9603H54.4814L52.4935 38.6769V40.9603H51.9023V36.6519Z" fill="#1A1919"/>
<path fill-rule="evenodd" clip-rule="evenodd" d="M58.0366 36.6519V39.3205C58.0366 39.7801 58.1382 39.972 58.2272 40.0989C58.4955 40.4556 58.9133 40.5207 59.2122 40.5207C60.3765 40.5207 60.3765 39.6074 60.3765 39.2966V36.6519H60.9563V39.3099C60.9563 39.5417 60.949 40.0252 60.6023 40.4556C60.1792 40.9869 59.523 41.0507 59.2121 41.0507C58.8043 41.0507 58.0917 40.9364 57.6892 40.3659C57.5604 40.1739 57.4395 39.9222 57.4395 39.2786V36.6519H58.0366H58.0366Z" fill="#1A1919"/>
<path fill-rule="evenodd" clip-rule="evenodd" d="M63.8633 36.6519H65.3079C65.8345 36.6519 66.1919 36.6811 66.4841 36.9992C66.7006 37.2191 66.8009 37.5126 66.8009 37.8328C66.8009 38.1635 66.692 38.4418 66.4589 38.6769C66.2343 38.9027 65.9362 39.0469 65.1584 39.0469H64.461V40.9604H63.8633V36.6519V36.6519ZM64.461 38.5461H65.171C65.5662 38.5461 66.168 38.5162 66.168 37.8109C66.168 37.1354 65.6087 37.1354 65.2966 37.1354H64.461V38.5461Z" fill="#1A1919"/>
<path fill-rule="evenodd" clip-rule="evenodd" d="M69.0645 40.9597H69.6622V36.6519H69.0645V40.9597Z" fill="#1A1919"/>
<path fill-rule="evenodd" clip-rule="evenodd" d="M72.5723 36.6519H73.4025L75.5212 40.2165V36.6519H76.0738V40.9603H75.3087L73.1149 37.3034V40.9603H72.5723V36.6519Z" fill="#1A1919"/>
<path fill-rule="evenodd" clip-rule="evenodd" d="M79.6759 39.2674L77.9922 36.6519H78.7341L80.0066 38.7653L81.2951 36.6519H81.9639L80.2789 39.2966V40.9617H79.6759V39.2674Z" fill="#1A1919"/>
<path fill-rule="evenodd" clip-rule="evenodd" d="M87.2285 36.6519H88.6717C89.1984 36.6519 89.5571 36.6811 89.8467 36.9992C90.0632 37.2191 90.1648 37.5126 90.1648 37.8328C90.1648 38.1635 90.0572 38.4418 89.8241 38.6769C89.5969 38.9027 89.3001 39.0469 88.5223 39.0469H87.8249V40.9604H87.2285V36.6519V36.6519ZM87.8249 38.5461H88.5349C88.9268 38.5461 89.5345 38.5162 89.5345 37.8109C89.5345 37.1354 88.9726 37.1354 88.6598 37.1354H87.8249V38.5461Z" fill="#1A1919"/>
<path fill-rule="evenodd" clip-rule="evenodd" d="M92.3086 36.6519H93.7551C94.2805 36.6519 94.6398 36.6811 94.9307 36.9992C95.146 37.2191 95.2469 37.5126 95.2469 37.8328C95.2469 38.1635 95.1407 38.4418 94.9075 38.6769C94.679 38.9027 94.3822 39.0469 93.6037 39.0469H92.9057V40.9604H92.3086V36.6519V36.6519ZM92.9057 38.5461H93.6177C94.0129 38.5461 94.6139 38.5162 94.6139 37.8109C94.6139 37.1354 94.0534 37.1354 93.7432 37.1354H92.9057V38.5461Z" fill="#1A1919"/>
<path fill-rule="evenodd" clip-rule="evenodd" d="M97.4355 36.6519H100.001V37.1599H98.0433V38.5023H99.8896V39.003H98.0433V40.9603H97.4355V36.6519Z" fill="#1A1919"/>
<path fill-rule="evenodd" clip-rule="evenodd" d="M23.8958 35.564L23.3884 36.0893L22.8783 35.564H22.25L23.0018 36.351H23.771L24.5255 35.564H23.8958Z" fill="#1A1919"/>
</g>
<defs>
<clipPath id="clip0_870_84316">
<rect width="100" height="40.1274" fill="white" transform="translate(0 0.936523)"/>
</clipPath>
</defs>
</svg>
