<svg width="100" height="48" viewBox="0 0 100 48" fill="none" xmlns="http://www.w3.org/2000/svg">
<g clip-path="url(#clip0_876_99080)">
<path d="M3.72337 0.117188H96.2762C98.3322 0.117228 99.9996 1.78461 99.9996 3.8406L99.9996 44.1596C99.9996 46.2156 98.3322 47.8829 96.2762 47.8829L3.72337 47.883C1.66742 47.8829 4.05609e-05 46.2156 4.05609e-05 44.1595L0 3.8406C4.05609e-05 1.78461 1.66742 0.117228 3.72341 0.117228L3.72337 0.117188Z" fill="#2870ED"/>
<path d="M25.8017 16.0915C28.0091 16.0915 28.7166 16.4373 28.7166 17.2937V18.1671H25.8017C24.1709 18.1671 23.6602 18.8755 23.6602 21.4447C23.6602 24.0139 24.1708 24.7223 25.8017 24.7223H28.7166V25.5957C28.7166 26.4521 28.0081 26.7979 25.8017 26.7979C22.7879 26.7979 21.207 25.184 21.207 21.4457C21.207 17.7074 22.7879 16.0926 25.8017 16.0926V16.0915ZM25.423 15.5809C25.2251 15.5809 25.1102 15.532 24.9124 15.3011L23.5294 13.6213C23.4634 13.5394 23.4634 13.4405 23.4634 13.3745H24.4187C24.6326 13.3745 24.7315 13.4235 24.9623 13.6213L25.7528 14.2968L26.5272 13.6213C26.7741 13.4235 26.857 13.3745 27.0868 13.3745H28.0251C28.0251 13.4405 28.0251 13.5394 27.9591 13.6213L26.5762 15.3011C26.3783 15.5319 26.2634 15.5809 26.0496 15.5809H25.4241H25.423H25.423Z" fill="white"/>
<path d="M29.5401 17.0796C29.5401 16.4871 29.8039 16.1744 30.4135 16.1744L36.4081 16.1743V17.3275C36.4081 17.92 36.0953 18.2009 35.4698 18.2009L31.9283 18.2009V20.3914H35.7986V22.2849H31.9283V24.7062H36.49V25.8594C36.49 26.4519 36.1773 26.7158 35.5677 26.7158H30.4124C29.8029 26.7158 29.5391 26.403 29.5391 25.8105V17.0818L29.5401 17.0797V17.0796Z" fill="white"/>
<path d="M40.6905 16.0913C42.8149 16.0913 44.0341 16.3222 44.0341 17.2605V18.1658L40.9213 18.1658C39.9989 18.1658 39.6361 18.4456 39.6361 18.9732C39.6361 20.4061 44.5935 20.1594 44.5935 23.6839C44.5935 25.3637 43.5563 26.7966 40.5425 26.7966C38.6489 26.7966 37.084 26.5328 37.084 25.6275V24.7211L40.6585 24.7211C41.5967 24.7211 42.0584 24.4243 42.0584 23.8158C42.0584 22.2679 37.118 22.4988 37.118 18.9083C37.118 17.3275 38.2382 16.0924 40.6924 16.0924L40.6903 16.0913H40.6905Z" fill="white"/>
<path d="M48.1012 21.0489L51.165 16.618C51.4118 16.2393 51.5437 16.1733 51.8565 16.1733H54.0639C54.0639 16.3212 54.031 16.4531 53.9161 16.618L50.5235 21.2787L54.0809 26.269C54.1629 26.401 54.2288 26.5659 54.2288 26.7138L52.1203 26.7138C51.6597 26.7138 51.5108 26.6808 51.2139 26.2361L48.1012 21.8553V26.7138H45.7129V17.0787C45.7129 16.4862 45.9767 16.1734 46.5863 16.1734H48.1012V21.049V21.0489Z" fill="white"/>
<path d="M60.0083 16.1405C60.4371 16.1405 60.6339 16.1894 60.7328 16.5522L63.4168 26.3192C63.4498 26.4671 63.4658 26.616 63.4658 26.7149H61.5721C61.1445 26.7149 61.0126 26.6979 60.9136 26.3362L60.3211 24.0958L57.4392 24.0957L56.8467 26.3362C56.7648 26.6989 56.6329 26.7149 56.2041 26.7149L54.3105 26.7149C54.3105 26.616 54.3265 26.4841 54.3595 26.3192L57.0605 16.5522C57.1595 16.1894 57.3574 16.1405 57.785 16.1405H60.0084H60.0083ZM57.8339 22.2841H59.8924L58.9041 18.6117H58.8222L57.8339 22.2841ZM59.7605 15.3341C59.5466 15.5649 59.4307 15.5809 59.2169 15.5809L58.2615 15.5809C58.2615 15.515 58.2615 15.416 58.3275 15.3341L59.7105 13.6543C59.9083 13.4235 60.0232 13.3745 60.2211 13.3745H61.1593C61.2913 13.3745 61.3572 13.4235 61.3572 13.4894C61.3572 13.5714 61.3243 13.6373 61.1923 13.7862L59.7594 15.3341L59.7605 15.3341Z" fill="white"/>
<path d="M66.5436 23.8829H75.951V22.6202H66.5617C66.5542 22.4744 66.5585 19.6265 66.5393 18.3106C66.5234 17.1882 67.2893 16.0957 68.7372 16.1201C71.3755 16.1638 74.017 16.1638 76.6552 16.118C77.7925 16.0978 78.8276 16.9329 78.8265 18.2914C78.8265 18.4808 78.8255 18.7127 78.8255 18.9584L69.4096 18.9584V20.1915L78.8255 20.1893C78.8255 20.3585 78.8287 23.2106 78.8255 24.5372C78.8212 25.8723 77.9659 26.7116 76.6148 26.7127C73.9979 26.7127 71.3809 26.7127 68.7638 26.7127C67.4021 26.7127 66.55 25.8637 66.5447 24.5031C66.5447 24.3137 66.5447 24.1244 66.5447 23.8829L66.5436 23.8829Z" fill="white"/>
<path d="M72.6958 14.802C71.5831 14.802 70.6831 13.885 70.6895 12.7595C70.6948 11.6531 71.5991 10.7542 72.7033 10.7573C73.8065 10.7595 74.7086 11.6627 74.7108 12.768C74.7129 13.8914 73.8097 14.8041 72.6959 14.8031L72.6958 14.802Z" fill="white"/>
<path d="M23.0418 30.3326C23.9716 30.3326 24.6014 30.3613 24.6014 30.8262V31.1071H23.0322C22.5961 31.1071 22.3344 31.2911 22.3344 31.5624C22.3344 32.473 24.8535 32.2113 24.8535 33.8485C24.8535 34.6432 24.3397 35.273 22.8673 35.273C22.0056 35.273 21.2109 35.273 21.2109 34.8272V34.4974H22.9546C23.5354 34.4974 23.7876 34.3229 23.7876 33.9358C23.7876 33.1123 21.2589 33.2581 21.2589 31.6305C21.2589 30.8166 21.9174 30.3326 23.0419 30.3326L23.0418 30.3325V30.3326Z" fill="white"/>
<path d="M26.558 36.6776H25.541V30.3808H26.074C26.4325 30.3808 26.558 30.5744 26.558 30.8075V30.9437C26.8485 30.6245 27.3038 30.333 27.8751 30.333C29.0953 30.333 29.6485 31.282 29.6485 32.8032C29.6485 34.3244 29.0963 35.2734 27.8751 35.2734C27.3038 35.2734 26.8485 34.983 26.558 34.6723V36.6777H26.558L26.558 36.6776ZM27.5176 31.1362C27.14 31.1362 26.8198 31.2915 26.5581 31.4947V34.101C26.8198 34.3043 27.1389 34.4596 27.5176 34.4596C28.3027 34.4596 28.5931 33.8883 28.5931 32.8032C28.5931 31.718 28.3027 31.1372 27.5176 31.1372V31.1362V31.1362Z" fill="white"/>
<path d="M30.2285 32.8032C30.2285 31.4469 30.7221 30.333 32.3593 30.333C33.9965 30.333 34.4902 31.4469 34.4902 32.8032C34.4902 34.1596 33.9966 35.2734 32.3593 35.2734C30.7221 35.2734 30.2285 34.1596 30.2285 32.8032ZM33.4444 32.8032C33.4444 31.6798 33.1923 31.0596 32.3593 31.0596C31.5263 31.0596 31.2837 31.6798 31.2837 32.8032C31.2837 33.9266 31.5263 34.5468 32.3593 34.5468C33.1922 34.5468 33.4444 33.9362 33.4444 32.8032Z" fill="white"/>
<path d="M36.3032 29.9935C36.1777 29.9935 36.1096 29.9552 35.9936 29.8286L35.1798 28.8797C35.1309 28.8307 35.1309 28.7733 35.1309 28.7339L35.5766 28.7339C35.7128 28.7339 35.7702 28.7626 35.9064 28.8797L36.4394 29.335L36.9819 28.8797C37.117 28.7637 37.1755 28.7339 37.3022 28.7339H37.7479C37.7479 28.7723 37.7479 28.8307 37.7096 28.8797L36.8862 29.8286C36.7702 29.9542 36.7021 29.9935 36.5766 29.9935L36.3053 29.9935H36.3032ZM35.2957 35.2243V30.3807H35.8288C36.1585 30.3807 36.2936 30.6233 36.3128 30.9913C36.7096 30.4775 37.2138 30.3328 37.6011 30.3328C37.7756 30.3328 37.95 30.3818 37.95 30.5754V31.3307H37.7075C36.9617 31.3307 36.6032 31.486 36.3128 31.6892V35.2254H35.2957V35.2243Z" fill="white"/>
<path d="M39.3744 29.8778H38.3574V29.3161C38.3574 29.0065 38.4734 28.832 38.7936 28.832L39.3744 28.8321V29.8779V29.8778V29.8778ZM38.3574 30.382H38.9287C39.2489 30.382 39.3744 30.5565 39.3744 30.8661V35.2256L38.3574 35.2256V30.3819V30.382V30.382Z" fill="white"/>
<path d="M41.67 30.3808H42.7551V31.1361L41.67 31.1362V33.9554C41.67 34.333 41.719 34.4788 42.0477 34.4788L42.7551 34.4787V34.7308C42.7551 35.1373 42.4062 35.2543 41.8541 35.2543C40.7499 35.2543 40.6531 34.6639 40.6531 33.9564V31.1372L40.0137 31.1372V30.5755L40.653 30.3819L41.0211 29.6064C41.1275 29.4032 41.2052 29.316 41.3893 29.316L41.6701 29.3159V30.3819V30.3808L41.67 30.3808Z" fill="white"/>
<path d="M46.8245 34.4979V34.7692C46.8245 35.166 46.2915 35.2734 45.1192 35.2734C43.4915 35.2734 42.9883 34.1596 42.9883 32.8032C42.9883 31.4469 43.5213 30.333 45.1096 30.333C46.3883 30.333 47.0564 31.0692 47.0564 32.1639C47.0564 32.4064 47.0564 32.5905 47.0075 33.0745H44.0426C44.0426 34.1107 44.4299 34.4989 45.2341 34.4989L46.8224 34.4989L46.8245 34.4979ZM46.0298 32.3957C46.0394 32.3085 46.0394 32.134 46.0394 32.0276C46.0394 31.5914 45.8553 31.0584 45.1192 31.0584C44.4415 31.0584 44.083 31.4457 44.0437 32.3957L46.0298 32.3957Z" fill="white"/>
<path d="M48.8491 35.2241H47.832V29.3146C47.832 29.0051 47.948 28.8306 48.2682 28.8306H48.8491V35.2242V35.2241Z" fill="white"/>
<path d="M49.9141 35.2245V30.3808H50.4471C50.8056 30.3808 50.9312 30.5649 50.9312 30.7979V30.9437C51.3482 30.5075 51.8514 30.333 52.3556 30.333C53.3631 30.333 53.8471 30.9437 53.8471 31.8351V35.2255L52.83 35.2255V31.883C52.83 31.35 52.4907 31.1372 51.9481 31.1372C51.58 31.1372 51.2024 31.2926 50.9311 31.4958V35.2255H49.9141V35.2245L49.9141 35.2245Z" fill="white"/>
<path d="M58.0506 35.2241C57.7016 35.2241 57.5665 35.0401 57.5665 34.807V34.6708C57.1495 35.107 56.607 35.2719 56.1516 35.2719C55.2315 35.2719 54.6602 34.7389 54.6602 33.9155C54.6602 32.7049 55.9878 32.3751 57.5665 32.3071V31.9006C57.5665 31.29 57.1304 31.106 56.5101 31.106H55.0187V30.8251C55.0187 30.3603 55.5996 30.3315 56.6751 30.3315C57.8762 30.3315 58.5836 30.8358 58.5836 31.8528V35.224L58.0506 35.224L58.0506 35.2241ZM57.5665 32.9188C56.2389 32.9379 55.7357 33.1996 55.7357 33.7709C55.7357 34.2752 56.1038 34.4486 56.5973 34.4486C56.9559 34.4486 57.324 34.3135 57.5665 34.0996V32.9177V32.9188V32.9188Z" fill="white"/>
</g>
<defs>
<clipPath id="clip0_876_99080">
<rect width="100" height="47.7658" fill="white" transform="translate(0 0.117188)"/>
</clipPath>
</defs>
</svg>
