<svg width="100" height="36" viewBox="0 0 100 36" fill="none" xmlns="http://www.w3.org/2000/svg">
<g clip-path="url(#clip0_870_85469)">
<path d="M54.8924 16.8083L65.9338 10.5348C66.8748 9.90742 66.373 9.40553 65.6828 9.40553V9.15458H73.5248V9.40553C72.2701 9.53102 70.8899 10.2838 69.8861 10.8484L59.9112 16.4318L71.4544 25.2775C72.3327 25.9676 73.0855 26.595 74.0893 26.6577V26.9086H66.1847L54.8924 17.8747V24.8383C54.8924 25.9676 55.5825 26.6577 56.7117 26.6577V26.9086H48.1797V26.6577C49.309 26.6577 49.9991 25.9676 49.9991 24.8383L49.999 11.1621C49.999 10.0328 49.3089 9.34275 48.1797 9.34275V9.0918H56.7117V9.34275C55.5825 9.34275 54.8924 10.0328 54.8924 11.1621V16.8083L54.8924 16.8083ZM99.999 21.827C99.999 24.9011 97.1131 26.8458 90.1495 26.9086H76.7242V26.6577C77.8535 26.6577 78.5436 25.9676 78.5436 24.8383V11.1621C78.5436 10.0328 77.8535 9.34275 76.7242 9.34275V9.0918H90.9651C96.8622 9.0918 98.9325 11.0366 98.9325 13.2323C98.9325 16.2436 95.733 17.2474 92.7845 17.4983C95.9212 17.4356 99.999 18.502 99.999 21.827H99.999V21.827ZM93.6627 13.797C93.6627 11.3503 90.7769 11.0366 87.8283 11.0366C86.5108 11.0366 85.068 11.0993 83.4368 11.2876V16.5573C83.4368 16.5573 85.1934 16.62 86.3854 16.62C92.2198 16.5573 93.6627 15.8045 93.6627 13.7969V13.797ZM89.0203 24.9011C91.5298 24.9011 94.6665 24.4619 94.6665 21.7643C94.6665 18.0629 88.2675 18.3767 83.4369 18.6903V23.4582C83.4369 24.1483 84.2524 24.7756 85.2562 24.8383C86.3227 24.9011 89.0203 24.9011 89.0203 24.9011V24.9011Z" fill="black"/>
<path d="M0 0.120605H35.6963V18.251H0V0.120605Z" fill="#ED1A3B"/>
<path d="M0 18H7.65372V19.6938H28.0426V18H35.6963V35.8795H0V18Z" fill="black"/>
</g>
<defs>
<clipPath id="clip0_870_85469">
<rect width="100" height="35.7591" fill="white" transform="translate(0 0.120605)"/>
</clipPath>
</defs>
</svg>
