<svg width="100" height="16" viewBox="0 0 100 16" fill="none" xmlns="http://www.w3.org/2000/svg">
<g clip-path="url(#clip0_870_85854)">
<path d="M83.8727 3.72429L82.0394 6.38931L80.1878 3.72429V7.16692H80.7432V5.35219L82.0394 7.27707L83.3356 5.35219V7.16634H83.8727V3.72429ZM86.5945 3.77996C85.6312 3.77996 84.8542 4.557 84.8542 5.50097C84.8542 6.44494 85.6312 7.22255 86.5945 7.22255C87.5572 7.22255 88.3348 6.44494 88.3348 5.50097C88.3348 4.557 87.5572 3.77996 86.5945 3.77996ZM86.5945 6.68585C85.9465 6.68585 85.4279 6.14919 85.4279 5.50097C85.4279 4.83462 85.9465 4.31663 86.5945 4.31663C87.2421 4.31663 87.7607 4.85296 87.7607 5.50097C87.7794 6.16731 87.2427 6.68585 86.5945 6.68585ZM89.3161 3.72429V7.16692H89.8528V4.89047L92.5375 7.27818V3.85336H92.0004V6.12984L89.3161 3.72429ZM96.1294 3.85394H93.6855V7.1671L96.1294 7.16692V6.66711H94.2222V5.7413H96.0369V5.26063L94.2222 5.26085V4.35378H96.1294V3.85397V3.85394ZM99.999 3.85394H99.4067L98.3696 5.37172L97.3331 3.85394H96.7406L98.1105 5.87152V7.16656L98.6474 7.16638V5.87134L99.999 3.85394ZM81.9286 8.77727H80.2066V12.0904L81.9655 12.0902C82.5766 12.0902 83.0207 11.6455 83.0207 11.1088C83.0207 10.7202 82.8169 10.4425 82.484 10.313C82.7244 10.2017 82.8913 9.9432 82.8913 9.62849C82.8913 9.14688 82.5022 8.77705 81.9286 8.77705V8.77727H81.9286ZM80.7433 10.1466V9.2583H81.8173C82.1508 9.2583 82.3358 9.46177 82.3358 9.7025C82.3358 9.94323 82.132 10.1467 81.8173 10.1467H80.7433V10.1466ZM80.7433 11.6087V10.6095H81.8729C82.2246 10.6095 82.4465 10.8317 82.4465 11.1093C82.4465 11.3866 82.2243 11.6085 81.8729 11.6085L80.7433 11.6087V11.6087ZM85.3905 8.64759L83.4651 12.0902H84.0761L84.5022 11.3313L86.3167 11.3315L86.7421 12.0904L87.3532 12.0902L85.3905 8.64759ZM84.7429 10.8686L85.3905 9.68373L86.039 10.8686H84.7429H84.7429ZM88.1308 8.64759V12.0715H88.6681V9.8137L91.3528 12.201V8.7772H90.8155V11.0536L88.1308 8.64755V8.64759ZM95.4627 8.77723H94.7038L93.0375 10.295V8.77723H92.4821V12.0717L93.0375 12.0715V10.9793L93.6117 10.4613L94.8704 12.0717L95.5371 12.0715L94.0002 10.091L95.4627 8.7772V8.77723ZM28.0676 3.5392L23.4023 9.73936L18.7363 3.5392V12.0533H20.4029V8.31472L23.4023 12.3862L26.4017 8.31433V12.053H28.0682L28.0676 3.5392ZM33.7519 3.6874C31.3455 3.6874 29.4013 5.61224 29.4013 7.96269C29.4013 10.3317 31.3455 12.238 33.7519 12.238C36.159 12.238 38.1031 10.3131 38.1031 7.96269C38.1031 5.59372 36.159 3.6874 33.7525 3.6874H33.7519ZM33.7523 10.5908C32.308 10.5908 31.1414 9.40646 31.1414 7.96269C31.1414 6.50079 32.308 5.33461 33.7519 5.33461C35.1963 5.33461 36.3625 6.51895 36.3625 7.96269C36.3625 9.42462 35.1963 10.5908 33.7519 10.5908H33.7523ZM39.1953 3.5392V12.0533H40.8617V7.00041L47.3234 12.3862L47.3236 3.8721H45.6576V8.92504L39.1953 3.5392ZM55.2847 3.87249H48.9712V12.0527L55.2847 12.053V10.5539H50.6932V8.6847H55.0813V7.2228L50.6932 7.22259V5.39028H55.2853L55.2847 3.87253V3.87249ZM64.413 3.87249H56.2293V5.39024H58.692V12.053H60.3952V5.39024H63.5243L64.413 3.87249ZM66.3759 3.5392L61.5061 12.0717L63.3946 12.0715L64.2835 10.4981L68.5047 10.4983L69.3936 12.0717L71.2822 12.0715L66.3758 3.5392H66.3759ZM65.0242 9.14703L66.3573 6.75968L67.7092 9.14743L65.0243 9.14761V9.14703H65.0242ZM75.189 0.577637H75.6949V15.3472H75.189V0.577637Z" fill="#140757"/>
<path d="M1.55472 4.40925L5.24017 7.96257L1.55566 11.5159V4.40925H1.55472ZM12.9424 0.522461L6.4426 6.79642L0 0.577517V15.3476L6.40628 9.14633L7.64661 7.96257L11.3311 4.40925V11.5161L8.85027 9.12835L7.64625 10.2949L12.998 15.4771V0.522461L12.9424 0.522461Z" fill="url(#paint0_linear_870_85854)"/>
</g>
<defs>
<linearGradient id="paint0_linear_870_85854" x1="-3.65653" y1="13.1505" x2="11.5373" y2="1.35975" gradientUnits="userSpaceOnUse">
<stop stop-color="#140757"/>
<stop offset="0.25098" stop-color="#140757"/>
<stop offset="0.290196" stop-color="#270953"/>
<stop offset="0.431373" stop-color="#6D1042"/>
<stop offset="0.54902" stop-color="#A41535"/>
<stop offset="0.658824" stop-color="#CC192C"/>
<stop offset="0.74902" stop-color="#E41B26"/>
<stop offset="0.8" stop-color="#ED1C24"/>
<stop offset="1" stop-color="#ED1C24"/>
</linearGradient>
<clipPath id="clip0_870_85854">
<rect width="100" height="14.9546" fill="white" transform="translate(0 0.522461)"/>
</clipPath>
</defs>
</svg>
