<svg width="72" height="56" viewBox="0 0 72 56" fill="none" xmlns="http://www.w3.org/2000/svg">
<path fill-rule="evenodd" clip-rule="evenodd" d="M36.3203 24.3312C42.8958 24.3312 48.2267 18.9955 48.2267 12.4156C48.2267 5.83526 42.8962 0.5 36.3203 0.5C29.7434 0.5 24.4121 5.8357 24.4121 12.4156C24.4121 18.9955 29.7434 24.3312 36.3203 24.3312Z" fill="#00ACEC"/>
<path fill-rule="evenodd" clip-rule="evenodd" d="M45.1021 22.057C42.833 24.5173 38.8324 26.979 33.6998 26.979C29.7171 26.979 26.2881 25.4307 24.1076 23.7088C11.1071 25.0732 1.43945 27.0088 1.43945 27.0088V32.2756L70.3363 32.2686L70.3442 21.4077C70.3438 21.4081 58.5874 21.3344 45.1021 22.057Z" fill="#00ACEC"/>
<path fill-rule="evenodd" clip-rule="evenodd" d="M15.8178 54.79C14.5912 55.144 12.7749 55.4994 11.1064 55.4994C5.4136 55.4994 0.849609 52.4104 0.849609 46.1073C0.849609 40.1828 5.61015 37.2197 11.1064 37.2197C12.9223 37.2197 14.002 37.4479 15.7687 37.7773V42.4352C14.689 42.0803 13.5843 41.7763 12.4809 41.7763C9.68322 41.7763 7.57298 43.321 7.57298 46.2082C7.57298 49.245 9.53493 50.7889 12.2598 50.7889C13.4619 50.7889 14.6157 50.5362 15.8178 50.1049V54.79ZM31.3744 42.3584C29.7444 41.7741 28.026 41.4746 26.2944 41.4731C25.2643 41.4731 23.4726 41.4999 23.4726 42.6375C23.4726 44.9425 32.4786 42.7643 32.4786 49.5741C32.4786 54.3091 27.9379 55.4994 24.1346 55.4994C21.6067 55.4994 19.5215 55.2449 17.0677 54.6632V50.0817C18.8345 50.8402 20.9943 51.2451 22.9571 51.2451C24.5027 51.2451 25.9013 50.917 25.9013 50.0308C25.9013 47.6511 16.8962 49.8026 16.8962 42.9411C16.8962 38.0809 21.8037 37.2197 25.7048 37.2197C27.5457 37.2197 29.5818 37.4479 31.3739 37.8282L31.3744 42.3584ZM42.9798 55.4998C36.9922 55.4998 33.4833 52.3849 33.4833 46.3604C33.4833 40.436 36.9917 37.2202 42.9798 37.2202C48.9666 37.2202 52.5487 40.436 52.5487 46.3604C52.5487 52.3849 48.967 55.4998 42.9798 55.4998ZM42.9798 51.2451C45.5805 51.2451 45.6542 48.257 45.677 46.36C45.6538 44.7139 45.4827 41.4731 42.9798 41.4731C40.5506 41.4731 40.3545 44.7139 40.3545 46.36C40.3545 48.2575 40.6234 51.2451 42.9798 51.2451ZM54.1706 37.5242H64.9416C67.9118 37.5242 70.8319 38.5122 70.8319 41.8789C70.8319 44.3099 69.5798 45.5993 67.298 46.2086V46.2591C69.6794 46.5873 71.1504 48.5119 71.1504 50.2839C71.1504 54.7395 67.6665 55.1945 64.1076 55.1945H54.1706V37.5242ZM60.3548 51.5505H62.072C63.2741 51.5505 64.5749 51.0947 64.5749 49.7263C64.5749 48.207 63.3478 47.9293 62.1215 47.9293H60.3548V51.5505ZM60.3548 44.2831H61.9974C63.1516 44.2831 64.4024 43.9291 64.4024 42.5875C64.4024 41.2713 63.3227 40.8668 62.1448 40.8668H60.3548V44.2831Z" fill="#003A66"/>
<path fill-rule="evenodd" clip-rule="evenodd" d="M4.25977 35.9366C4.25977 35.9366 6.32613 37.713 9.44981 37.7257C12.4019 37.7358 14.5903 36.2691 15.7367 35.035L15.237 34.6538C15.237 34.6538 13.7396 36.3069 10.8945 36.2775C7.87744 36.2468 6.16117 34.1909 6.16117 34.1909L4.25977 35.9366Z" fill="#003A66"/>
</svg>
