<svg width="100" height="26" viewBox="0 0 100 26" fill="none" xmlns="http://www.w3.org/2000/svg">
<g clip-path="url(#clip0_876_100089)">
<path d="M37.1387 11.8193L34.8956 7.74556H33.9833V11.8193H31.8027V1.5163H35.9391C36.6452 1.5163 37.2575 1.63508 37.7697 1.87241C38.2821 2.10975 38.682 2.45355 38.9507 2.90956C39.2256 3.36557 39.3569 3.90917 39.3569 4.54652C39.3569 5.29626 39.1568 5.92116 38.7571 6.42717C38.3572 6.93322 37.7886 7.2832 37.0514 7.48938L39.5505 11.8255L37.1263 11.8257L37.1388 11.8193H37.1387ZM33.9897 3.39081V6.0151L35.689 6.01485C36.145 6.01485 36.495 5.90246 36.7326 5.67126C36.9763 5.4462 37.095 5.11514 37.095 4.67779C37.095 4.24041 36.9763 3.89686 36.7326 3.69068C36.4888 3.49067 36.1389 3.38464 35.6704 3.38464L33.9897 3.38438V3.39077V3.39081ZM45.8234 3.80314H47.8978V11.8193H45.8234V10.8634C45.5646 11.2248 45.2211 11.5192 44.8238 11.7195C44.4177 11.9256 43.9678 12.0319 43.4617 12.0319C42.8058 12.0319 42.2184 11.8507 41.706 11.4947C41.1936 11.1385 40.7876 10.6386 40.5002 9.99514C40.2128 9.35165 40.069 8.62689 40.069 7.82069C40.069 7.01452 40.2128 6.27114 40.5002 5.63396C40.7876 4.99047 41.1874 4.49056 41.706 4.13445C42.2184 3.77833 42.8058 3.59724 43.4617 3.59724C43.9678 3.59724 44.424 3.70353 44.8238 3.91581C45.23 4.12835 45.5611 4.41572 45.8234 4.77798V3.80956V3.80317V3.80314ZM45.005 9.88247C45.2799 9.70134 45.4924 9.43259 45.6485 9.08901C45.8046 8.73903 45.8858 8.3206 45.8858 7.82065C45.8858 7.32078 45.8046 6.90228 45.6485 6.5523C45.4924 6.20233 45.2798 5.94001 45.005 5.75888C44.7301 5.57775 44.4177 5.48399 44.0677 5.48399C43.7177 5.48399 43.3992 5.57775 43.1179 5.75888C42.843 5.94001 42.6244 6.20875 42.4744 6.5523C42.3245 6.90228 42.2494 7.32074 42.2494 7.82065C42.2494 8.32057 42.3245 8.73903 42.4744 9.08901C42.6244 9.43902 42.8431 9.70134 43.1179 9.88247C43.3928 10.0636 43.7116 10.1574 44.0677 10.1574C44.4238 10.1574 44.7362 10.0636 45.005 9.88247ZM49.8472 2.34113C49.6221 2.11607 49.5036 1.8162 49.5036 1.45395C49.5036 1.09166 49.616 0.791542 49.8472 0.566732C50.0722 0.341669 50.3721 0.223145 50.7344 0.223145C51.0966 0.223145 51.3904 0.335531 51.6154 0.566732C51.8405 0.791794 51.9465 1.09166 51.9465 1.45395C51.9465 1.8162 51.8341 2.11632 51.6154 2.34113C51.3904 2.56619 51.103 2.68475 50.7344 2.68475C50.3657 2.68475 50.072 2.57233 49.8472 2.34113ZM51.7465 11.8193H49.6722V3.80314H51.7465V11.8193ZM56.1889 3.80314H58.3881V5.62122H56.1889V11.8193H54.1146V5.62122H52.7524V3.80314H54.1146V3.31575C54.1146 2.43467 54.3644 1.76616 54.8704 1.29763C55.3765 0.835262 56.0701 0.59796 56.9448 0.59796C57.2697 0.59796 57.5757 0.629117 57.8695 0.691682C58.1633 0.754284 58.4318 0.835514 58.6755 0.93541L58.1444 2.52868C57.8695 2.41626 57.5758 2.36005 57.2508 2.36005C56.8758 2.36005 56.6073 2.44745 56.4385 2.6163C56.2696 2.78516 56.1886 3.05365 56.1886 3.40359V3.79725L56.1889 3.80317V3.80314Z" fill="#222011"/>
<path d="M61.4934 3.8031H63.6927V5.62118H61.4934V11.8193H59.4191V5.62118H58.057V3.8031H59.4191V3.31572C59.4191 2.43464 59.669 1.76613 60.175 1.29759C60.681 0.835226 61.3746 0.597924 62.2493 0.597924C62.5743 0.597924 62.8803 0.629081 63.174 0.691646C63.4678 0.754248 63.7363 0.835478 63.98 0.935374L63.449 2.52865C63.174 2.41622 62.8803 2.36001 62.5554 2.36001C62.1804 2.36001 61.9119 2.44742 61.743 2.61627C61.5742 2.78512 61.4932 3.05361 61.4932 3.40355V3.79722L61.4934 3.80314V3.8031ZM71.7653 8.55155H66.3545C66.4232 9.15746 66.6232 9.59506 66.9482 9.86994C67.2731 10.1448 67.748 10.2761 68.3728 10.2761C68.804 10.2761 69.2099 10.2136 69.5786 10.0886C69.9472 9.9637 70.2658 9.78257 70.5409 9.55141L71.4345 10.9761C71.0283 11.3197 70.5598 11.582 70.0223 11.7634C69.4747 11.945 68.9013 12.038 68.3247 12.038C68.3136 12.038 68.3025 12.038 68.2911 12.038C67.4226 12.038 66.6728 11.8694 66.048 11.5381C65.4231 11.2068 64.9421 10.7258 64.6172 10.1012C64.2861 9.47635 64.1236 8.73293 64.1236 7.87055C64.1236 7.00813 64.2861 6.27728 64.611 5.62736C64.936 4.98387 65.392 4.48392 65.9793 4.12784C66.5729 3.77173 67.2476 3.59678 68.0038 3.59678C68.7599 3.59678 69.422 3.77176 69.9907 4.10918C70.5593 4.4528 70.9903 4.94018 71.3028 5.57754C71.6088 6.21489 71.7651 6.96467 71.7651 7.82069V8.54545L71.7654 8.55159L71.7653 8.55155ZM66.3545 7.12713H69.6721C69.622 6.53346 69.4534 6.08998 69.1722 5.79617C68.8909 5.50241 68.5037 5.35883 68.0226 5.35883C67.0542 5.35883 66.4981 5.9525 66.3545 7.13323V7.12709V7.12713ZM73.2148 2.34113C72.9897 2.11607 72.8712 1.8162 72.8712 1.45395C72.8712 1.09166 72.9836 0.791542 73.2148 0.566732C73.4398 0.341669 73.7397 0.223145 74.102 0.223145C74.4643 0.223145 74.758 0.335531 74.983 0.566732C75.2081 0.791794 75.3141 1.09166 75.3141 1.45395C75.3141 1.8162 75.2017 2.11632 74.983 2.34113C74.758 2.56619 74.4706 2.68476 74.102 2.68476C73.7334 2.68476 73.4396 2.57233 73.2148 2.34113ZM75.1141 11.8193H73.0398V3.80314H75.1141V11.8193ZM77.7634 11.7693C77.1948 11.5943 76.7199 11.3194 76.3265 10.9444L77.2949 9.45743C77.8886 10.026 78.6507 10.3071 79.5693 10.3071C79.9755 10.3071 80.2815 10.2445 80.4877 10.1196C80.6938 9.99464 80.8001 9.80098 80.8001 9.55094C80.8001 9.3384 80.7063 9.16367 80.5188 9.02601C80.3313 8.88857 79.9878 8.76365 79.4942 8.6387C78.8568 8.4949 78.3321 8.3388 77.9259 8.1702C77.5198 8.0016 77.1887 7.75787 76.9325 7.44548C76.6826 7.13305 76.5513 6.72076 76.5513 6.22081C76.5513 5.68361 76.6887 5.22121 76.9575 4.82754C77.2262 4.43388 77.6199 4.12784 78.126 3.91531C78.632 3.70277 79.2193 3.59674 79.8817 3.59674C80.5065 3.59674 81.0875 3.6905 81.6186 3.87162C82.1496 4.05275 82.5995 4.3215 82.9743 4.67757L82.0058 6.10225C81.731 5.85239 81.4122 5.65851 81.0374 5.52746C80.6624 5.39616 80.2752 5.32746 79.869 5.32746C79.4628 5.32746 79.1941 5.39002 78.9879 5.50858C78.7879 5.62736 78.6819 5.80848 78.6819 6.05218C78.6819 6.19601 78.7255 6.31453 78.8132 6.40829C78.9005 6.50205 79.0505 6.59581 79.263 6.68957C79.4756 6.78332 79.7754 6.87069 80.1753 6.96445C80.7189 7.09575 81.1938 7.25186 81.5874 7.43295C81.9811 7.61408 82.306 7.8703 82.5558 8.20775C82.8057 8.53881 82.937 8.96362 82.937 9.48245C82.937 10.0012 82.8057 10.4448 82.5433 10.832C82.2809 11.2132 81.8998 11.5131 81.3937 11.7256C80.8877 11.9382 80.2815 12.0442 79.5756 12.0442C78.9383 12.0442 78.3385 11.9568 77.7701 11.7818L77.7635 11.7693L77.7634 11.7693ZM91.4216 8.55155H86.0108C86.0796 9.15746 86.2796 9.59506 86.6045 9.86994C86.9295 10.1448 87.4043 10.2761 88.0291 10.2761C88.4604 10.2761 88.8663 10.2136 89.2349 10.0886C89.6036 9.9637 89.9221 9.78257 90.1972 9.55141L91.0908 10.9761C90.6846 11.3197 90.2161 11.582 89.6787 11.7634C89.1311 11.945 88.5576 12.038 87.981 12.038C87.9699 12.038 87.9588 12.038 87.9475 12.038C87.0789 12.038 86.3292 11.8694 85.7043 11.5381C85.0795 11.2068 84.5984 10.7258 84.2735 10.1012C83.9424 9.47635 83.78 8.73293 83.78 7.87055C83.78 7.00813 83.9425 6.27728 84.2674 5.62736C84.5923 4.98387 85.0483 4.48392 85.6356 4.12784C86.2293 3.77173 86.904 3.59678 87.6601 3.59678C88.4162 3.59678 89.0784 3.77176 89.647 4.10918C90.2157 4.4528 90.6466 4.94018 90.9591 5.57754C91.2652 6.21489 91.4215 6.96467 91.4215 7.82069V8.54545L91.4217 8.55159L91.4216 8.55155ZM86.0108 7.12713H89.3284C89.2784 6.53346 89.1098 6.08998 88.8285 5.79617C88.5473 5.50241 88.16 5.35883 87.679 5.35883C86.7105 5.35883 86.1544 5.9525 86.0108 7.13323V7.12709V7.12713ZM98.6567 3.96556C99.0879 4.21543 99.419 4.57151 99.6502 5.04643C99.8814 5.52129 100 6.08998 100 6.75848V11.8193H97.9069V7.0147C97.9069 6.5023 97.7881 6.11499 97.5508 5.85264C97.3135 5.59638 96.951 5.46533 96.47 5.46533C96.1075 5.46533 95.7828 5.54656 95.5077 5.70902C95.2328 5.87152 94.9827 6.11521 94.7704 6.43378V11.8134L92.6961 11.8132V3.8031H94.7704V4.74036C95.0203 4.37785 95.3515 4.09687 95.7639 3.89072C96.1701 3.69068 96.6324 3.58464 97.1321 3.58464C97.7194 3.58464 98.2255 3.7096 98.6567 3.95329V3.96556ZM38.9568 21.0852C39.2506 21.504 39.3941 22.0161 39.3941 22.6223C39.3941 23.5596 39.0942 24.2843 38.4944 24.7968C37.8946 25.3092 37.045 25.559 35.9391 25.559L31.8027 25.5588V15.2557H35.5766C36.67 15.2557 37.5135 15.4931 38.1071 15.9618C38.7008 16.4303 39.0007 17.0988 39.0007 17.9549C39.0007 18.9734 38.5634 19.7106 37.6823 20.1541C38.2384 20.3541 38.6632 20.6666 38.957 21.085L38.9568 21.0852ZM33.9833 17.1052V19.517H35.408C35.8704 19.517 36.2139 19.4171 36.4326 19.2109C36.6513 19.0109 36.7575 18.711 36.7575 18.3173C36.7575 17.8861 36.6388 17.5737 36.4076 17.3865C36.1764 17.199 35.8264 17.1052 35.364 17.1052H33.9833L33.9833 17.1052ZM35.6828 23.7093C36.1577 23.7093 36.5138 23.6094 36.7512 23.4032C36.9885 23.2032 37.1073 22.8783 37.1073 22.4348C37.1073 22.0225 36.9949 21.7101 36.7637 21.5101C36.5325 21.31 36.1577 21.204 35.6328 21.204H33.9833V23.7031H35.6828V23.7093V23.7093ZM45.9609 17.5487H48.0352V25.5649H45.9609V24.609C45.702 24.9701 45.3585 25.2645 44.9613 25.4648C44.5551 25.671 44.1052 25.7772 43.5991 25.7772C42.9432 25.7772 42.3558 25.5961 41.8434 25.24C41.331 24.8839 40.925 24.384 40.6376 23.7405C40.3502 23.097 40.2064 22.3723 40.2064 21.5661C40.2064 20.7598 40.3502 20.0165 40.6376 19.3793C40.925 18.7358 41.3248 18.2359 41.8434 17.8798C42.3558 17.5237 42.9432 17.3426 43.5991 17.3426C44.1052 17.3426 44.5615 17.4489 44.9613 17.6612C45.3674 17.8737 45.6985 18.1611 45.9609 18.5233V17.5549V17.5488V17.5487ZM45.1424 23.628C45.4173 23.4469 45.6298 23.1782 45.7859 22.8346C45.942 22.4846 46.0232 22.0662 46.0232 21.5663C46.0232 21.0664 45.942 20.6479 45.7859 20.2979C45.6298 19.9479 45.4172 19.6856 45.1424 19.5045C44.8675 19.3233 44.5551 19.2296 44.2051 19.2296C43.8551 19.2296 43.5366 19.3233 43.2553 19.5045C42.9805 19.6856 42.7618 19.9543 42.6118 20.2979C42.4619 20.6479 42.3868 21.0663 42.3868 21.5663C42.3868 22.0662 42.4619 22.4846 42.6118 22.8346C42.7618 23.1846 42.9805 23.4469 43.2553 23.628C43.5302 23.8092 43.849 23.9029 44.2051 23.9029C44.5612 23.9029 44.8736 23.8092 45.1424 23.628ZM55.7702 17.705C56.2014 17.9549 56.5325 18.311 56.7637 18.7859C56.9948 19.2607 57.1136 19.8294 57.1136 20.4979V25.5588H55.0204V20.7541C55.0204 20.2417 54.9016 19.8544 54.6643 19.5921C54.427 19.3359 54.0645 19.2048 53.5835 19.2048C53.221 19.2048 52.8962 19.286 52.6211 19.4485C52.3463 19.611 52.0962 19.8547 51.8839 20.1732V25.5528L49.8096 25.5526V17.5364H51.8839V18.4737C52.1338 18.1112 52.465 17.8302 52.8774 17.624C53.2836 17.424 53.7459 17.318 54.2456 17.318C54.8329 17.318 55.339 17.4429 55.7702 17.6866V17.705ZM62.8118 21.2914L66.0234 25.5651L63.5365 25.5649L60.7937 21.9285V25.5649H58.7194V14.6559H60.7937V20.8101L63.3991 17.5548L65.8671 17.555L62.8054 21.2977L62.8118 21.2914V21.2914Z" fill="#222011"/>
<path d="M0 1.51611H24.0425V25.5586H0V1.51611Z" fill="#FCEE21"/>
<path fill-rule="evenodd" clip-rule="evenodd" d="M17.3879 11.8317L20.4495 8.77009L21.268 9.58857C21.268 9.05747 21.1119 7.24552 19.6561 5.83359C18.0253 4.24671 16.4008 5.17761 15.8386 5.7337C15.2763 6.28982 12.8895 8.68273 12.8895 8.68273L13.6207 9.4138L12.0149 11.0196L10.4091 9.4138L11.1402 8.68273L8.1912 5.7337C7.62894 5.17147 5.99809 4.24671 4.37366 5.83359C2.91783 7.25188 2.76172 9.06386 2.76172 9.58857C2.76172 10.1132 3.5802 8.77623 3.5802 8.77623L6.64183 11.8379L7.48536 10.9944L7.48464 8.97649L8.3532 9.84504V12.288L9.54667 13.4814L3.34243 19.6857L5.79786 22.1411L12.0021 15.9369L18.2064 22.1411L20.6618 19.6857L14.4575 13.4814L15.6511 12.288V9.84504L16.5194 8.97649V10.9946L17.3629 11.8381L17.3879 11.8317Z" fill="#222011"/>
</g>
<defs>
<clipPath id="clip0_876_100089">
<rect width="100" height="25.5541" fill="white" transform="translate(0 0.223145)"/>
</clipPath>
</defs>
</svg>
