<svg width="100" height="50" viewBox="0 0 100 50" fill="none" xmlns="http://www.w3.org/2000/svg">
<g clip-path="url(#clip0_870_86127)">
<path fill-rule="evenodd" clip-rule="evenodd" d="M49.9989 0.00390625H0V49.9977H49.9989V0.00390625Z" fill="url(#paint0_radial_870_86127)"/>
<path fill-rule="evenodd" clip-rule="evenodd" d="M49.3375 49.9974H36.2623C35.6697 49.9551 35.0875 49.9074 34.5214 49.8439C33.786 49.7646 33.0768 49.7909 32.4048 49.6639C31.6535 49.5264 29.9496 48.9919 29.9496 48.9919C29.9496 48.9919 31.0079 49.0289 32.4525 49.1771C33.0345 49.2406 33.7436 49.4364 34.5744 49.4946C36.5992 49.6411 39.3779 49.7633 42.9549 49.7633C43.5187 49.7633 44.1037 49.7604 44.7075 49.7539C46.3319 49.6111 48.3797 49.5634 49.999 49.5529V49.9339C49.7766 49.9602 49.5545 49.9814 49.3375 49.9974V49.9974ZM49.8138 0.00363025H49.0942C48.5527 0.39346 47.8077 0.756246 46.9118 0.756246C46.2403 0.756246 45.4837 0.552245 44.6652 0.00363025H44.3107C44.6757 0.400635 45.2471 0.876736 46.0779 1.16773C46.0779 1.16773 46.0726 1.16773 46.0627 1.16773C45.9169 1.16773 44.7663 1.13075 43.4904 0.00363025H43.1993C43.538 0.516922 44.0302 1.14659 44.5751 1.49052C44.5751 1.49052 43.4533 1.22071 42.2469 0.00363025H41.9929C42.5697 0.855593 43.6596 2.05153 45.3424 2.1944C45.5148 2.20904 45.6834 2.21622 45.8492 2.21622C47.7776 2.21622 49.2287 1.25124 49.8137 0.00363025H49.8138ZM40.0827 0.00363025H39.7124C40.1039 0.866249 40.6384 1.1361 40.6384 1.1361C39.6647 1.09908 38.5429 0.495779 37.7756 0.00363025H37.437C38.8269 1.41053 40.2909 1.65703 41.1451 1.65703C41.6043 1.65703 41.8871 1.58588 41.8871 1.58588C41.0669 1.14136 40.4797 0.538065 40.0826 0.00363025H40.0827ZM32.7542 0.00363025H32.4948C32.6377 1.10956 33.1191 3.07268 34.8073 3.79762C34.8073 3.79762 34.1669 2.99333 34.9712 2.64417C34.9712 2.64417 36.3152 3.98812 37.6275 4.24209C37.6275 4.24209 36.9555 4.68775 35.9649 4.68775C35.2522 4.68843 34.3751 4.45793 33.4631 3.66528C33.4631 3.66528 34.2304 5.01478 35.5109 5.26871C35.5109 5.26871 34.9924 5.44155 34.3221 5.44155C33.3591 5.44155 32.0827 5.08522 31.5741 3.3478C31.5741 3.3478 31.283 6.4222 29.6216 6.77666C29.6216 6.77666 29.6216 6.1312 30.0343 5.55966C30.4206 5.02523 31.3572 2.88745 31.6217 0.00358779H31.5266C31.2196 1.44284 30.4364 4.70239 29.6216 5.3957C28.5633 6.29513 28.0817 7.18946 28.4998 8.21592C28.4998 8.21592 27.9547 7.70279 27.9865 6.84013C27.9865 6.84013 27.5367 8.27939 27.7644 9.17372C27.7644 9.17372 26.7377 8.02024 27.1557 6.454C27.3781 5.26867 28.9178 5.36386 29.394 3.28424C29.394 3.28424 28.6585 4.66002 27.6321 5.04633C27.6321 5.04633 29.2988 3.34775 29.2988 1.04066C29.2988 1.04066 28.8808 3.28424 27.0287 4.85052C25.1662 6.42211 25.9704 7.63924 25.9704 7.63924C25.9704 7.63924 26.0023 6.48558 26.7377 6.06765C26.7377 6.06765 26.2563 8.02024 27.2192 9.14205C27.2192 9.14205 26.3832 8.76105 26.1292 8.24776C26.1292 8.24776 26.0827 10.6453 29.193 10.6453C29.7121 10.6453 30.3189 10.5783 31.0291 10.4225C31.0291 10.4225 29.8779 11.0228 28.3668 11.0228C27.3508 11.0228 26.1727 10.7518 25.071 9.84563C23.0865 8.21587 22.8009 7.1259 22.9597 5.94062C22.9597 5.94062 22.6369 6.67608 21.9648 7.1259C21.2928 7.57572 19.5625 8.82448 21.6791 10.4224C21.6791 10.4224 20.9753 9.5281 21.2293 8.82448C21.2293 8.82448 21.6474 10.0733 22.6685 10.6818C22.6685 10.6818 21.7426 9.30601 21.9965 8.60214C21.9965 8.60214 22.9278 10.6818 24.2083 11.2902C24.2083 11.2902 23.4728 11.2902 22.8643 10.8722C22.8643 10.8722 23.3458 11.576 24.0496 12.0575C24.0496 12.0575 23.7103 12.188 23.1895 12.188C22.2964 12.188 20.8678 11.8042 19.6948 9.7186C19.6948 9.7186 19.0862 10.0098 18.7635 10.5229C18.7635 10.5229 19.048 10.2808 19.3426 10.2808C19.4901 10.2808 19.6401 10.3413 19.7583 10.5229C20.1075 11.0681 19.9805 11.4491 19.5306 11.8352C19.0862 12.2162 17.6734 12.5074 16.4881 13.9783C15.9008 14.7137 15.0807 15.8409 15.3346 17.857C15.5621 19.6138 16.2976 21.217 17.5147 22.2118C17.5147 22.2118 14.7737 21.7462 13.5461 18.5924C12.8052 16.7034 12.6783 14.4598 14.9853 11.8987C14.9853 11.8987 13.0962 10.9358 16.7474 6.77144C16.7474 6.77144 16.2975 4.69186 18.9222 4.11506C18.9222 4.11506 18.5623 2.13615 20.7847 0.00358779H18.356C18.8693 0.606886 18.7159 1.22602 18.5995 1.51701L18.5254 1.60702C18.1814 1.28418 17.5094 0.691543 16.4934 0.00358779H13.1862C13.3874 0.273565 13.6308 0.707379 13.8 1.34239C13.5461 1.21006 13.2921 1.08838 13.0328 0.972049C12.9641 0.749708 12.8052 0.337079 12.5196 0.00358779H11.874C11.9905 0.162415 12.1015 0.352915 12.181 0.596187C11.8423 0.453365 11.5089 0.32103 11.1702 0.194045C11.149 0.151716 11.1174 0.0830228 11.0697 0.00354534H8.00064C7.28636 0.723173 6.23855 1.22067 5.48195 1.51162C5.07441 1.41643 4.65113 1.32647 4.22262 1.23646C5.2174 0.860772 5.9634 0.34748 6.39738 0.00350288H5.51893C4.95813 0.485123 4.28079 0.860772 3.70933 1.13062L3.55585 1.0936C3.08489 1.00364 2.62989 0.918937 2.19072 0.828973C2.93154 0.601452 3.55054 0.289316 4.03216 0.00350288H3.16437C2.67226 0.310501 2.15357 0.559123 1.72511 0.733787C1.15365 0.617288 0.603341 0.500959 0.0793501 0.38446C0.571499 0.294623 1.00548 0.156938 1.39701 0.00346042H8.49118e-05V1.52737C0.307083 1.54856 0.809719 1.58571 1.46048 1.64922C1.18533 1.93486 0.714363 2.28415 8.49118e-05 2.63335V3.23665C1.03185 2.83446 2.0955 2.16765 2.54527 1.76555C2.89978 1.80788 3.28074 1.86086 3.67757 1.91903C2.95794 2.79218 1.31235 3.6123 0.412884 3.87162C0.275242 3.84512 0.137727 3.80815 8.49118e-05 3.78165V5.82408C0.153563 5.66007 0.301734 5.48541 0.449905 5.30561L1.51869 5.18393L2.01084 5.12559L1.98965 5.15744L1.92083 5.25793C1.91035 5.27377 1.29121 6.13108 8.49118e-05 7.05704V7.602C0.783184 7.02537 1.7145 6.21573 2.61414 5.15209L2.63528 5.12559L4.15923 4.99861L4.09037 5.09927L4.06388 5.13625C4.04804 5.15744 2.70393 6.94585 4.24559e-05 8.19999V11.015C0.597991 10.3324 0.883634 9.74509 0.989477 9.48063C1.16414 9.44344 1.3388 9.40646 1.51347 9.36944C1.05834 10.3748 0.460307 11.0785 4.24559e-05 11.5125V12.3432C0.117008 12.3397 0.234696 12.338 0.352851 12.338C1.55864 12.338 2.80574 12.5209 3.78872 13.0893C3.34421 13.1263 2.89443 13.174 2.43943 13.2375C2.04773 12.9941 1.2806 12.629 4.24559e-05 12.412V12.883C0.412841 13.0311 0.846655 13.2163 1.23831 13.4333C0.82547 13.5073 0.412841 13.6026 4.24559e-05 13.7031V14.1422C0.301692 14.0894 0.603341 14.0418 0.89964 13.9994L0.883634 14.0788C0.873148 14.1318 0.687998 15.0789 4.24559e-05 15.989V16.6293L0.148214 16.5076C0.15887 16.497 1.233 15.5869 1.77797 13.9306L1.7938 13.8724C2.10611 13.8354 2.4129 13.7984 2.71989 13.7666L2.6934 13.8513C2.67226 13.9306 2.11129 15.9097 0.968334 16.5975L4.24559e-05 16.7298V16.8727C0.185193 16.8568 0.354549 16.841 0.486799 16.8303C1.4193 16.7417 2.65808 16.6523 3.918 16.6523C4.38128 16.6523 4.84698 16.6646 5.3021 16.6928C3.64581 16.8938 2.10607 17.132 0.703791 17.3966C0.47627 17.4389 0.253929 17.4813 0.0369791 17.5236L0 17.5341V18.6506C0.259321 18.2749 0.44982 17.9575 0.560927 17.7616C0.978948 17.6823 1.38109 17.6083 1.76209 17.5448C1.26463 18.5766 0.582113 19.4232 0 20.0263V20.508C1.34929 19.4443 2.27007 17.9944 2.60335 17.4071C3.00019 17.3489 3.37601 17.2959 3.73582 17.2536C2.95786 18.8782 1.73555 20.111 1.17993 20.6189C0.777792 20.6613 0.386306 20.7036 0 20.7512V21.7144C0.26467 21.418 0.391656 21.1429 0.407492 21.0846C0.44982 21.0846 0.71432 21.0583 0.820163 21.0476C0.63497 21.5874 0.275199 21.9049 0.0265349 22.0742L4.24559e-05 22.09V23.053C0.217035 23.016 0.434027 22.9843 0.650806 22.9473C0.45517 23.3442 0.227479 23.6668 4.24559e-05 23.9315V24.2701C0.619134 23.7304 1.02667 23.1537 1.21182 22.8574C1.52935 22.8097 1.84679 22.7567 2.15897 22.7092C1.61931 23.8363 0.783184 24.4976 0.396878 24.757C0.280549 24.757 0.148214 24.757 4.24559e-05 24.7516V26.4449C0.174706 26.3021 0.354549 26.1539 0.539827 25.9846C0.597991 25.9793 0.650806 25.9688 0.709141 25.9635C1.00548 25.9158 1.31762 25.863 1.64563 25.8099C1.37043 26.2174 0.883634 26.7784 0.105843 27.2864L4.24559e-05 27.2545V27.625L0.0793501 27.6409C1.11651 27.8367 2.12195 27.9477 2.98974 28.0112C3.25424 28.0484 3.64055 28.0959 4.15388 28.133L2.89974 28.5511L2.38645 28.7204C2.63995 28.7027 2.89507 28.695 3.14208 28.695C3.34374 28.695 3.53942 28.7004 3.72521 28.7097C4.2385 28.7309 4.67236 28.7732 4.91584 28.805C4.76767 28.8525 4.62485 28.895 4.48186 28.9374C4.09033 29.059 3.73586 29.1754 3.40772 29.2866C3.23306 29.3447 3.06905 29.3977 2.91557 29.4559C1.50816 29.948 0.878497 30.2655 0.878497 30.2655C1.24884 30.1702 2.41825 29.8475 3.78872 29.4717C3.48703 29.8315 2.92092 30.403 2.0901 30.8793C1.83613 30.8582 1.59282 30.8316 1.37048 30.7893C0.217034 30.5776 0.809719 29.678 1.40767 29.0009C1.40767 29.0009 0.26985 29.6834 0.412841 30.5246C0.546365 31.3407 2.13014 31.4178 2.72159 31.4178C2.8586 31.4178 2.94207 31.4136 2.94207 31.4136C2.94207 31.4136 0.941969 32.4297 4.21205 32.7789C5.19168 32.4102 5.72012 31.3554 5.90247 31.3554C5.90362 31.3554 5.90413 31.3554 5.90532 31.3554C6.04296 31.3661 5.96879 31.7471 5.2757 32.9112C5.56784 32.9224 5.85063 32.9277 6.12464 32.9277C6.36163 32.9277 6.59208 32.924 6.81544 32.9165C6.81544 32.9165 7.83672 32.4879 8.73619 30.9956L8.95853 30.9851C8.95853 30.9851 8.65153 32.1704 7.84725 32.8635C8.09608 32.853 8.33936 32.837 8.56688 32.8158C8.21237 33.0275 7.91072 33.2287 7.65157 33.4085C7.50858 33.5143 7.37641 33.6096 7.25457 33.6995C6.83124 34.0223 6.57209 34.2711 6.43445 34.414C6.34444 34.5091 6.30211 34.5621 6.30211 34.5621C6.36044 34.5091 6.4291 34.4563 6.50327 34.3981C6.65144 34.2816 6.83128 34.1599 7.04305 34.0276C7.31056 33.9541 7.81736 33.8348 8.28934 33.8348C8.46167 33.8348 8.62869 33.8506 8.77848 33.8901C8.4663 34.0329 8.15951 34.1704 7.86835 34.3081C7.64087 34.414 7.42384 34.5198 7.21754 34.6203C6.53494 34.9589 5.98458 35.2606 5.68315 35.4987C5.69898 35.2976 5.76245 35.1441 5.76245 35.1441C5.33913 35.5622 4.88935 36.43 5.94765 36.885C6.04296 36.8427 6.25982 36.7263 6.57209 36.5146V36.5093C7.64622 35.8162 8.18583 34.9324 8.38703 34.5409L9.26532 34.1864C8.70452 35.3082 7.75206 36.2023 7.25987 36.6151V36.6204L7.22824 36.6468L7.15938 36.6998C6.98472 36.8426 6.75189 37.0173 6.66192 37.0861C7.09778 37.1608 7.53155 37.1955 7.96672 37.1955C8.88385 37.1955 9.80816 37.0424 10.7734 36.7949C10.8476 36.7791 10.927 36.7579 11.001 36.7368C11.0539 36.7209 11.1068 36.7051 11.1651 36.6944C10.8846 36.9061 10.5248 37.1919 10.128 37.5411C9.96915 37.6839 9.80515 37.8321 9.63587 37.9909C9.28655 38.3296 8.93208 38.7052 8.60925 39.102C8.51941 39.2132 8.42941 39.3297 8.34475 39.446L8.33405 39.4514H8.3394C8.23356 39.5942 8.13841 39.7319 8.04841 39.8747C8.04841 39.8747 8.24421 39.6736 8.59868 39.3456C9.01088 39.1863 9.83283 38.9069 10.5043 38.9069C10.5918 38.9069 10.6765 38.9116 10.7576 38.9223C10.6411 39.0123 10.5301 39.1021 10.4189 39.1868C10.2019 39.3614 9.9956 39.5254 9.81049 39.6789C8.31821 40.9012 7.79439 41.4886 7.65675 41.658C7.58275 41.4515 7.57205 41.1975 7.61973 40.8853C7.63038 40.8113 7.64091 40.7319 7.65675 40.642C6.80491 42.0853 7.59574 42.7221 8.90971 42.7221C8.98269 42.7221 9.05737 42.7203 9.1332 42.7162C9.20185 42.6528 9.30769 42.5574 9.42954 42.4251C9.50885 42.3299 9.60403 42.2188 9.70469 42.0864L9.72588 42.0601L9.73102 42.0547C10.0857 41.568 10.6465 40.626 10.7523 39.4514C11.0328 39.2502 11.3133 39.0492 11.5885 38.8587C11.5725 39.372 11.4456 40.5467 10.6623 41.732L10.6307 41.785L10.62 41.8008C10.5407 41.9225 10.456 42.0283 10.3766 42.1341C10.2073 42.3458 10.0538 42.5151 9.95332 42.6156C10.0803 42.5893 10.2126 42.5628 10.345 42.5258C10.62 42.4569 10.9958 42.3088 11.4456 42.1076C11.2815 42.3088 11.1121 42.5521 10.9535 42.8272L10.9112 42.9067C10.747 43.1977 10.5988 43.5257 10.4718 43.9015C10.4718 43.9015 10.8 43.4147 11.3026 42.8221C11.6543 42.6527 12.1846 42.4392 12.6268 42.4392C12.7372 42.4392 12.8424 42.4527 12.9378 42.4834L12.2498 43.1395L11.8213 43.5522L11.8053 43.5629C11.6994 43.6738 10.6518 44.7745 10.3291 45.1608C10.2285 44.9386 10.2232 44.6423 10.345 44.2402L10.3555 44.1925L10.3237 44.256C9.62526 45.4036 10.3497 46.0891 11.378 46.0891C11.4878 46.0891 11.6002 46.0816 11.7155 46.0656C12.2605 45.9916 12.9008 45.9174 13.9696 45.4359C12.9483 47.4837 13.3134 48.4838 13.3134 48.4838C13.3346 47.8384 13.541 47.198 13.8109 46.6319C13.8638 46.5154 13.9219 46.4042 13.9803 46.2984C14.3366 46.1062 15.0332 45.7899 15.5958 45.7899C15.6682 45.7899 15.7387 45.7946 15.8057 45.8064C15.7105 45.9175 15.6205 46.0286 15.5305 46.1398C15.3137 46.4043 15.102 46.6689 14.8956 46.9281C14.758 47.1081 14.6257 47.2828 14.4934 47.4574C14.0914 47.9916 13.7102 48.5157 13.3769 49.0236C13.3769 49.0236 13.8902 48.505 14.6734 47.7218C14.7051 48.0077 14.7211 48.6214 14.4352 49.3304C14.3117 49.3428 14.19 49.3493 14.0714 49.3493C13.9314 49.3493 13.7944 49.3398 13.6627 49.3199C13.6627 49.3199 14.1388 49.5274 14.8408 49.5274C15.1537 49.5274 15.5106 49.4863 15.8903 49.3674C15.8903 49.3674 15.6205 49.6321 15.3137 49.9972H17.3931L17.3984 49.9866L17.4038 49.9972H17.9434C17.9329 49.759 17.9222 49.5632 17.9117 49.4363C18.1392 49.1876 18.372 48.939 18.6049 48.6954C18.6472 49.1346 18.663 49.5791 18.6684 49.9973H19.023C19.06 49.2404 19.0442 48.595 19.0335 48.2352C19.261 47.9917 19.4938 47.7484 19.7213 47.5049C19.8697 48.3515 19.8748 49.267 19.8378 49.9973H20.1395C20.293 48.7696 20.2453 47.5049 20.2135 46.981C20.4251 46.764 20.6315 46.5419 20.8379 46.3249C21.0496 47.6479 20.9173 49.1558 20.8221 49.9231L20.7479 49.9973H22.2242C22.129 49.8226 22.0549 49.7326 22.0549 49.7326L22.711 49.14C22.8327 49.4098 22.928 49.7009 23.018 49.9973H23.7905C23.653 49.0765 23.4043 48.4891 23.4043 48.4891L24.0551 47.8754C24.2933 48.505 24.4201 49.2828 24.4836 49.9973H24.9757C24.9704 48.3304 24.5631 47.3197 24.5631 47.3197L25.325 46.5261C25.817 47.4256 25.8012 49.0077 25.7323 49.9973H27.8331V49.9496C27.8331 49.9496 27.5051 46.9176 27.2828 45.8751C27.2828 45.8751 26.9178 44.2137 26.4574 42.6474C26.1082 41.4515 24.743 40.5202 24.1133 40.3985C23.1078 40.2133 22.1079 39.7635 22.0179 38.4671C22.1344 38.9275 22.5417 39.4514 23.7165 39.6472C25.5367 39.9487 26.1398 41.1975 26.1398 41.1975C26.1398 41.1975 25.6107 39.6101 24.0974 39.192C22.6052 38.7794 21.9278 38.5147 22.0497 37.6788C22.213 36.7962 22.7016 36.7686 22.7628 36.7686C22.7668 36.7686 22.7691 36.7686 22.7691 36.7686C22.7691 36.7686 22.1977 37.8163 23.9174 38.2237C25.6107 38.6259 25.8119 39.5995 25.8119 39.5995C25.8119 39.5995 25.0711 32.747 25.3302 28.2599C25.3302 28.2599 23.5683 27.7148 22.621 25.8205C22.621 25.8205 23.1766 28.0853 24.2984 28.5986C24.5008 28.692 24.3989 28.7379 24.1433 28.7379C23.63 28.7379 22.4982 28.5533 21.9649 28.1965C21.9649 28.1965 23.5576 29.8367 23.4254 31.5353C22.9545 30.1066 22.092 29.8632 22.092 29.8632C22.092 29.8632 23.8751 32.5725 21.7743 33.8054C21.7743 33.8054 22.9914 32.3925 21.9648 31.3079C21.9648 31.3079 22.1606 33.1333 20.5574 33.2286C20.5285 33.2303 20.4992 33.231 20.4704 33.231C18.9023 33.2315 17.5353 30.7211 20.3669 28.4557C20.3669 28.4557 19.2132 28.842 18.7001 29.4135C18.4196 29.728 17.8823 29.9491 17.4366 29.9491C17.1166 29.9491 16.8445 29.8356 16.7475 29.5616L16.737 29.5193L16.7317 29.4876C16.7105 29.3288 16.7422 29.1224 16.774 28.9478C16.8745 28.4875 17.3083 26.72 18.1391 25.2279C18.8694 23.9261 18.1233 23.053 17.7106 22.7039C18.1203 22.7686 18.4837 22.7867 18.7624 22.7867C19.1211 22.7867 19.3402 22.7567 19.3402 22.7567C19.3402 22.7567 19.5044 24.069 19.0969 25.1273C18.6947 26.1909 17.9381 27.1964 17.8851 28.3605C17.8851 28.3605 18.5942 26.6407 19.3508 25.9369C20.0451 25.2868 19.9735 24.8098 19.9564 24.7351C19.9846 24.8498 20.2251 25.928 19.5995 26.6937C18.9433 27.5032 18.9433 28.514 18.9433 28.514C18.9433 28.514 19.3984 27.519 19.8058 27.1963C20.5096 26.6407 20.4619 25.9263 20.4619 25.9263C20.8483 27.1751 21.6155 27.9106 21.6155 27.9106C21.388 27.5561 21.2292 26.7253 21.1975 26.085C21.1657 25.4449 20.6524 23.9368 20.6524 23.9368C21.2927 24.0054 22.2875 25.2172 22.2875 25.2172C21.9512 23.6556 22.2952 23.2847 22.6973 23.2847C23.0614 23.2847 23.4728 23.5875 23.4728 23.5875C23.0865 22.7567 23.0283 21.873 23.15 21.3757C23.2376 21.021 23.6033 20.4397 23.7563 20.4397C23.8249 20.4397 23.8509 20.5561 23.7902 20.8624C23.5997 21.8572 24.2083 23.0742 24.2083 23.0742C23.9491 21.963 24.2508 21.0899 24.748 20.381C24.748 20.381 24.4729 22.4129 25.9122 23.5875C27.3461 24.7623 27.161 26.1644 27.161 26.1644C27.6371 24.9791 27.2827 24.2966 26.7535 23.6775C27.3621 23.6563 27.7695 23.651 27.7695 23.651C27.2456 23.5346 26.8117 23.4235 26.436 23.323C26.2878 23.1588 26.1343 22.9948 25.9861 22.8202C26.8011 22.7938 27.3832 22.7779 27.3832 22.7779C26.6476 22.6033 26.0868 22.434 25.6212 22.3017C25.5258 22.1429 25.4465 21.9895 25.3883 21.8361C26.3301 21.8043 27.0232 21.7779 27.0232 21.7779C26.2719 21.5874 25.7058 21.3969 25.2295 21.2539C25.2083 21.127 25.1978 21.0053 25.1978 20.889C26.3459 20.8306 27.0232 20.7513 27.0232 20.7513C26.3196 20.6031 25.7481 20.4126 25.2506 20.2963C25.2771 20.1587 25.3142 20.0316 25.3511 19.9205C26.5366 19.8042 27.4942 19.7142 27.4942 19.7142C26.7323 19.5818 26.1449 19.4443 25.6635 19.3438C25.8328 19.1745 25.9757 19.021 26.0868 18.8834C27.4096 18.8252 28.5314 18.7775 28.5314 18.7775C27.6742 18.6294 26.9863 18.4812 26.4094 18.3914C26.489 18.2272 26.5471 18.0632 26.5948 17.8834C27.8278 17.8304 28.8384 17.7828 28.8384 17.7828C27.9441 17.6346 27.2561 17.5287 26.7111 17.4494L26.7376 17.3435C26.8011 17.1054 26.8539 16.9361 26.9016 16.8091C28.1451 16.7193 29.0394 16.6821 29.0394 16.6821C28.2299 16.5763 27.5631 16.4811 26.9969 16.4018C26.9916 16.2906 26.9546 16.1689 26.8646 15.9624C26.8435 15.9096 26.8328 15.8566 26.8381 15.8038C28.415 15.6609 29.6585 15.5974 29.6585 15.5974C28.6637 15.4651 27.9229 15.3539 27.3198 15.2799C27.579 15.1369 27.8911 15.0048 28.1504 14.8778C29.3992 14.7296 30.3305 14.6396 30.3305 14.6396C29.7114 14.5603 29.177 14.4807 28.6956 14.4226C28.8066 14.2056 28.7961 13.9728 28.7801 13.8406C29.9707 13.7083 30.865 13.6341 30.865 13.6341C30.3729 13.5283 29.9179 13.4436 29.4946 13.3908C29.9495 13.1791 30.3624 12.9675 30.7327 12.7559C30.8439 12.687 30.9551 12.6235 31.0609 12.56C32.4736 11.6922 33.2726 10.7767 33.6959 9.62864C34.3467 7.88234 35.6379 7.10455 36.6063 6.76057C35.6062 6.78706 34.5109 7.18925 34.0399 7.73417C33.492 8.37033 32.8081 8.63733 32.1655 8.63733C31.1572 8.63733 30.2513 7.98003 30.1348 7.06222C30.1348 7.06222 30.7057 8.01535 32.0962 8.01535C32.2143 8.01535 32.3385 8.00818 32.4684 7.99353C32.4684 7.99353 30.9656 7.73417 30.6111 6.67591C30.6111 6.67591 31.4512 7.29967 32.2762 7.29967C32.3173 7.29967 32.3585 7.29853 32.3995 7.295C32.3995 7.295 31.0238 6.8029 31.156 5.87694C31.156 5.87694 31.8333 6.75356 32.8123 6.75356C32.8677 6.75356 32.924 6.75055 32.9816 6.74473C34.0928 6.62306 34.7277 6.21026 35.6855 6.18376C35.7362 6.18211 35.7855 6.18143 35.8337 6.18143C36.6956 6.18143 37.3083 6.43425 38.1196 6.46427C41.4744 6.21561 44.7657 4.53282 44.7657 4.53282C47.4537 4.47466 49.057 3.38473 49.9989 2.17296V0.797216L49.9249 0.918852C49.1828 2.04368 47.9 3.06011 46.0216 3.06011C45.8227 3.06011 45.6176 3.04848 45.4059 3.02496C44.4123 2.91615 42.6709 2.28648 42.2922 1.83849C42.4209 1.99715 43.0718 2.74513 44.1571 3.05663C45.3741 3.41114 45.3741 3.92443 44.2207 3.95627C44.1988 3.95674 44.1771 3.95674 44.1553 3.95674C43.628 3.95674 43.2377 3.8351 42.8714 3.71275C42.5144 3.59043 42.1864 3.46875 41.7842 3.46875C41.7335 3.46875 41.6814 3.47058 41.6277 3.47457C40.7724 3.53341 40.2415 4.03023 39.3313 4.03023C39.256 4.03023 39.179 4.02671 39.0985 4.0197C38.0402 3.92439 36.6326 3.15708 36.4739 1.58566C36.4739 1.58566 36.3693 1.59449 36.1941 1.59449C35.481 1.59449 33.5947 1.45099 32.7541 0.00341797L32.7542 0.00363025ZM26.4679 0.00363025H24.9017C23.4254 0.384629 22.2029 0.284136 21.2293 0.691585C19.6949 1.33186 19.5307 3.31612 19.5307 3.31612C20.171 1.68106 20.7797 1.49052 21.4517 1.07254C21.8038 0.857885 22.5093 0.806216 23.1054 0.806216C23.6557 0.806216 24.1132 0.850201 24.1132 0.850201C23.9174 0.977186 23.6318 1.58583 23.6318 1.58583C23.6318 1.58583 24.0974 1.16764 25.235 0.691543C25.7272 0.479858 26.1293 0.24168 26.468 0.00358779L26.4679 0.00363025ZM31.7752 49.9974H30.5581C30.3306 49.9232 30.1771 49.8704 30.1771 49.8704C30.1771 49.8704 30.8332 49.9074 31.7752 49.9974H31.7752ZM21.9066 45.2139C21.7268 45.4044 21.5414 45.5949 21.351 45.7905C21.3722 46.3408 21.404 48.1294 21.1077 49.6587L21.8273 48.9761C21.9066 48.4205 22.1131 46.7167 21.9066 45.2139ZM15.5199 46.8753C15.3452 47.05 15.1759 47.2193 15.0172 47.378C15.1548 48.2511 14.8003 49.0607 14.6786 49.2989C14.9166 49.2617 15.1601 49.2036 15.3982 49.1347C15.668 48.2088 15.5939 47.3356 15.5199 46.8753V46.8753ZM16.4723 45.9229C16.2765 46.1187 16.0808 46.3145 15.8956 46.4997C16.1019 47.4944 15.7739 48.5951 15.5992 49.0712C15.8267 48.9972 16.049 48.9179 16.2607 48.8332C16.5994 47.7272 16.5412 46.5473 16.4723 45.9228V45.9229ZM22.9226 44.1661C22.7533 44.3354 22.5788 44.5154 22.3988 44.7006C22.42 45.4519 22.42 47.2828 22.0708 48.7432L22.8433 48.013C22.9226 47.4733 23.1449 45.7059 22.9226 44.1661ZM17.3136 45.0816C17.1496 45.2456 16.9857 45.4096 16.8268 45.5684C17.0755 46.9388 16.6522 48.3041 16.4989 48.7326C16.7634 48.6163 17.012 48.4998 17.229 48.3887C17.2873 48.1241 17.3295 47.8648 17.3613 47.6268C17.5148 46.4361 17.409 45.563 17.3136 45.0816ZM18.2556 44.1503C18.0598 44.3408 17.864 44.5366 17.6735 44.7269C17.8058 45.5684 17.7635 46.4043 17.6788 47.0605C17.663 47.1875 17.6471 47.304 17.6312 47.4098C17.6153 47.4998 17.5995 47.5791 17.5888 47.6585L17.5783 47.7061C17.5253 47.9813 17.4776 48.1876 17.4513 48.2776L17.536 48.2299L17.6365 48.1559L18.1128 47.8384C18.5096 46.452 18.3666 44.9175 18.2556 44.1502V44.1503ZM23.8699 43.1871C23.7269 43.3353 23.5787 43.4835 23.4201 43.6476C23.4412 44.3566 23.4517 46.2721 23.0919 47.7801L23.7215 47.1823C23.7215 47.1823 24.309 45.3672 23.8698 43.1871L23.8699 43.1871ZM19.1551 43.2613C18.9699 43.4465 18.7794 43.6316 18.5889 43.8221C18.9965 45.7324 18.3508 47.6585 18.3508 47.6585L18.2714 47.7326L19.0599 47.2087C19.4514 45.6847 19.2768 44.0286 19.1551 43.2613ZM19.9752 42.457C19.8272 42.6052 19.6737 42.7534 19.5149 42.912C19.9277 44.7006 19.4674 46.5208 19.3191 47.0288L20.044 46.3885C20.425 44.5259 20.171 43.1397 19.9752 42.457V42.457ZM14.1494 46.0341L14.1176 46.0499L14.1018 46.0764L14.1494 46.0341ZM20.9648 41.5099C20.7797 41.6844 20.5838 41.8697 20.3776 42.0707C20.7902 43.7904 20.552 45.3778 20.4357 45.9599C20.6262 45.7535 20.822 45.5419 21.023 45.3303C21.3351 43.6581 21.1553 42.3088 20.9648 41.5099ZM16.2712 44.6899C15.7304 44.6899 15.0707 44.9858 14.7049 45.1767L14.6098 45.3037C14.5093 45.4361 14.4086 45.5896 14.3028 45.7482C14.9949 45.2303 15.6934 45.1351 16.123 45.1351C16.216 45.1351 16.2965 45.1391 16.3612 45.1451C16.467 45.0181 16.5782 44.8911 16.6894 44.7641H16.6787C16.5577 44.7118 16.4188 44.6899 16.2712 44.6899ZM11.8105 43.9333C11.2337 44.4359 10.7311 44.87 10.3449 45.198C10.5195 45.5419 10.9216 45.6847 11.4138 45.6954C11.8106 45.0816 11.8317 44.3038 11.8106 43.9333H11.8105ZM12.7525 43.1132C12.5355 43.3037 12.3291 43.4835 12.1227 43.6635C12.1704 44.6848 11.8475 45.3514 11.5989 45.6901C11.8212 45.6847 12.0592 45.6584 12.292 45.6107C12.7684 44.7111 12.7841 43.637 12.7525 43.1132ZM13.7896 42.2084C13.5461 42.4201 13.308 42.6317 13.07 42.838C13.1335 44.4043 12.7153 45.2297 12.4721 45.5737C12.7577 45.5049 13.0382 45.4202 13.2817 45.3303C13.816 44.198 13.8213 42.838 13.7896 42.2084V42.2084ZM14.8743 41.2559C14.6309 41.4728 14.3823 41.6898 14.1335 41.9067C14.2023 43.6053 13.7525 44.7746 13.5357 45.2244C13.7313 45.1397 13.9378 45.0446 14.1495 44.9439C14.4881 44.2403 14.6733 43.4095 14.7684 42.674C14.8426 42.1183 14.8691 41.6208 14.8743 41.2559V41.2559ZM15.9856 40.2875C15.7369 40.5045 15.4829 40.7215 15.2341 40.9436C15.2341 41.2771 15.2129 41.5997 15.1812 41.9014C15.0384 43.2718 14.6203 44.3143 14.377 44.8276C14.6045 44.7164 14.8373 44.5948 15.0808 44.4625C15.8321 43.129 15.9644 41.2294 15.9856 40.2875ZM17.1285 39.2875C16.8799 39.5043 16.6205 39.732 16.3559 39.9648C16.3824 42.2877 15.5516 43.9228 15.3241 44.3249C15.6151 44.1608 15.9062 43.9915 16.2026 43.817C16.975 42.3247 17.1127 40.2769 17.1285 39.2875ZM22.5311 40.6684C22.7163 42.0284 22.5735 43.2402 22.4623 43.8486C22.7691 43.5523 23.0761 43.256 23.3883 42.965C23.4729 42.3406 23.3777 41.4199 23.3354 41.0601C23.0707 40.9173 22.7903 40.7954 22.5311 40.6684ZM18.1868 38.3614C17.9805 38.5414 17.7582 38.7319 17.5307 38.9328C17.5412 41.2876 16.7846 43.0285 16.4724 43.6528C16.737 43.4888 17.0015 43.3248 17.2662 43.1555C18.118 41.51 18.1921 39.1922 18.1868 38.3614ZM19.0388 37.6206C18.9011 37.7424 18.7476 37.8746 18.5889 38.0123C18.7264 40.4517 17.917 42.2877 17.5623 42.965C17.864 42.7639 18.1603 42.5682 18.4513 42.3671C19.3033 40.4887 19.1127 38.2186 19.0387 37.6206L19.0388 37.6206ZM10.3555 39.732C10.1173 39.9013 9.87919 40.0707 9.64118 40.2452C9.54052 41.1553 8.96906 41.8697 8.60925 42.2347C8.64292 42.2365 8.67756 42.2371 8.71276 42.2371C8.92805 42.2371 9.17438 42.2089 9.45586 42.1501C10.0696 41.2453 10.2866 40.2028 10.3555 39.732ZM13.7255 41.3306C13.2945 41.3306 12.7907 41.5093 12.4032 41.6844C12.2604 41.8114 12.1175 41.9491 11.9799 42.0866L11.8317 42.2348C12.3992 41.9244 13.0188 41.8726 13.3575 41.8726C13.4515 41.8726 13.5238 41.8768 13.5673 41.8803L13.6043 41.8433L14.0859 41.383C13.9754 41.3465 13.8536 41.3306 13.7254 41.3306L13.7255 41.3306ZM9.26018 40.5151C8.73105 40.8961 8.19658 41.2876 7.66745 41.6793C7.78378 41.9756 8.03261 42.1607 8.41875 42.2189C8.9902 41.5311 9.19671 40.8485 9.26018 40.5151ZM12.7737 38.0281C12.509 38.2133 12.2339 38.4038 11.9588 38.5996C11.9111 40.1288 11.2338 41.2399 10.9058 41.6951C11.1651 41.5946 11.4349 41.4781 11.7206 41.3511C12.5725 39.9965 12.7472 38.6737 12.7737 38.0281ZM14.1123 37.0968C13.832 37.2926 13.5357 37.499 13.2287 37.7106C13.1599 39.2927 12.5461 40.5045 12.1228 41.1606C12.3556 41.0494 12.6044 40.9278 12.8584 40.8008C13.9218 39.2875 14.0965 37.7582 14.1123 37.0967V37.0968ZM20.8908 36.9963C20.9861 38.9277 20.5679 40.2028 20.2823 40.822C20.6051 40.478 20.9014 40.1658 21.1607 39.8907C21.1871 39.7848 21.2136 39.679 21.2347 39.5785C21.3141 38.0334 21.1447 37.3242 20.8908 36.9963ZM15.303 36.282C15.0755 36.4407 14.8268 36.6046 14.5675 36.7898C14.504 38.6789 13.6627 40.0495 13.2605 40.5891C13.6097 40.4093 13.9537 40.2188 14.287 40.0283C15.192 38.5519 15.3083 36.9805 15.303 36.282ZM16.4671 35.4935C16.2554 35.6363 16.0068 35.8057 15.721 35.9962C15.6998 37.8746 15.012 39.2292 14.6363 39.8272C14.9327 39.6525 15.2236 39.4832 15.5041 39.3087C16.3931 37.9223 16.4778 36.2185 16.4671 35.4935ZM17.0809 35.0807C17.0386 35.1072 16.9909 35.139 16.9327 35.176C16.9697 37.0651 16.2608 38.4672 15.8798 39.0759C16.2608 38.8377 16.6259 38.5996 16.9804 38.3614C17.4302 37.1868 17.5042 36.0015 17.4937 35.2765C17.3455 35.2184 17.2078 35.1549 17.0809 35.0807H17.0809ZM11.9823 37.6194C11.3838 37.6194 10.666 37.8146 10.1915 37.9699C9.90037 38.2028 9.63057 38.4302 9.39239 38.6365L9.3819 38.6472C10.1492 38.249 10.92 38.1697 11.4068 38.1697C11.5343 38.1697 11.6425 38.1751 11.726 38.1816L11.7525 38.1604C11.9642 37.9964 12.1863 37.8376 12.4191 37.6629C12.2858 37.6325 12.1381 37.6195 11.9823 37.6195V37.6194ZM18.0122 35.4193C17.9805 36.4988 17.7107 37.4037 17.4408 38.0439C17.7847 37.8005 18.1234 37.5624 18.4355 37.3296C18.6367 36.6841 18.7054 36.0331 18.7107 35.4935C18.4514 35.4881 18.2239 35.4565 18.0123 35.4193H18.0122ZM13.2994 36.5283C12.6949 36.5283 12.1934 36.6364 11.8318 36.7476C11.6466 36.8746 11.472 36.9963 11.2973 37.1233C11.2286 37.1761 11.1598 37.2238 11.091 37.2768C11.5461 37.1021 11.9853 37.0121 12.3609 36.9751C12.5803 36.9533 12.7778 36.9456 12.9431 36.9456C13.1371 36.9456 13.2858 36.9556 13.3716 36.9645C13.5516 36.8375 13.7421 36.7 13.9325 36.5676C13.7109 36.5399 13.4992 36.5283 13.2994 36.5283H13.2994ZM19.7689 35.4141C19.5891 35.4458 19.4091 35.467 19.224 35.4828C19.171 36.0808 19.0335 36.5888 18.8907 36.9856C19.1763 36.7687 19.4515 36.5571 19.7054 36.3506C19.6949 36.2925 19.6843 36.2236 19.6843 36.1389C19.6843 35.8849 19.7161 35.6417 19.7689 35.4141ZM10.7418 33.5991L9.68886 34.0172C9.49819 34.488 8.88975 35.7317 7.50344 36.6681C7.71394 36.6846 7.92677 36.6911 8.14542 36.6911C8.21305 36.6911 8.28123 36.6904 8.35005 36.6893C8.89502 36.2132 10.0908 35.0544 10.7418 33.5991H10.7418ZM12.2181 33.0064L11.1968 33.414C11.0275 33.8056 10.239 35.4565 8.60407 36.6788C8.98507 36.6576 9.36602 36.6153 9.73102 36.5623C10.2443 36.0808 11.5461 34.7262 12.2181 33.0064ZM13.6415 32.435L12.6307 32.8425C12.4667 33.2817 11.7047 35.1549 9.9745 36.5253C10.3713 36.4565 10.7418 36.3718 11.0645 36.2767L11.1279 36.2555C11.4826 35.9062 12.9271 34.4034 13.6415 32.435ZM7.84207 34.758L5.6778 35.6205C5.68315 35.8903 5.79947 36.2025 6.21741 36.393C6.26509 36.4141 6.33395 36.4301 6.38677 36.4513C6.79426 36.1073 7.42388 35.504 7.84203 34.758H7.84207ZM15.0701 31.8635L14.1071 32.2498C13.9166 32.7842 13.1228 34.7474 11.4561 36.1496C11.7948 36.0331 12.2551 35.8638 12.7737 35.6682C13.2868 35.0914 14.4616 33.6468 15.0701 31.8635V31.8635ZM15.4669 35.4881C15.3717 35.4881 15.1919 35.4935 14.959 35.5147C14.7368 35.5305 14.467 35.5623 14.1812 35.6205C13.9483 35.6682 13.7051 35.7263 13.4669 35.811C13.3822 35.8375 13.2976 35.8745 13.2076 35.9115C13.0805 35.9645 12.9535 36.028 12.8319 36.102C12.8319 36.102 13.0912 36.0491 13.4192 36.0068C13.652 35.9785 13.9178 35.9538 14.1571 35.9538C14.3688 35.9538 14.5598 35.9732 14.6891 36.028L14.7421 35.9962L14.9061 35.8903L15.5357 35.4881H15.4669H15.4669ZM15.4246 31.7948C15.2448 32.4086 14.6256 34.1547 13.1917 35.5093C13.5515 35.377 13.9271 35.2288 14.287 35.0913C14.5728 34.742 15.0436 34.0754 15.5358 33.0329C15.4299 32.5884 15.4141 32.1386 15.4246 31.7948V31.7948ZM15.6839 33.4827C15.4564 33.9377 15.1548 34.451 14.7103 34.9273C15.3294 34.6892 15.8851 34.4669 16.2449 34.3293C16.1337 34.197 16.0279 34.0542 15.9114 33.9007C15.8216 33.7683 15.7474 33.6309 15.6839 33.4827L15.6839 33.4827ZM16.5517 29.8792L16.5464 29.8846C16.3877 30.1491 14.4405 33.6309 18.3455 34.1865C18.3455 34.1865 17.483 33.5779 17.6735 32.6203C17.6735 32.6203 18.0175 33.3816 19.1546 33.3816C19.2716 33.3816 19.3968 33.3734 19.5308 33.3557C19.5308 33.3557 17.5519 32.5196 18.5573 30.022C18.5573 30.022 17.4407 30.8582 17.6419 32.234C17.6419 32.234 16.4036 31.7207 16.5517 29.8792V29.8792ZM10.4983 30.7417L9.65702 30.9058C9.38186 31.89 8.79975 32.5779 8.71505 32.6784L8.6939 32.6996L8.80505 32.6784L9.12789 32.6203L9.22842 32.5991L9.31839 32.5831L9.4559 32.5619L9.50358 32.5091L9.56175 32.4561C9.67824 32.3398 9.78409 32.2181 9.87409 32.0911C10.3237 31.4613 10.4984 30.7416 10.4984 30.7416L10.4983 30.7417ZM11.8213 30.4718L11.0698 30.6253C10.9693 31.0433 10.8212 31.4085 10.673 31.6942C10.6148 31.8106 10.5565 31.9111 10.5037 32.0012C10.4455 32.0912 10.3978 32.1705 10.3555 32.234L10.3237 32.2763V32.2815L10.3025 32.308L10.2601 32.3661L10.2338 32.4033L10.2762 32.3926L10.6095 32.3345L10.747 32.308L10.9058 32.2815L10.964 32.2181L11.0593 32.1123L11.1017 32.0593L11.1175 32.0435L11.1757 31.9588L11.218 31.9005L11.2338 31.8793L11.2445 31.8635C11.3662 31.673 11.472 31.4771 11.5513 31.292C11.7367 30.8475 11.8213 30.4719 11.8213 30.4719L11.8213 30.4718ZM13.2605 31.8899C13.3345 31.9058 13.3981 31.9269 13.4562 31.9481L13.4669 31.9428C13.4034 31.9216 13.3345 31.9004 13.2605 31.8899ZM13.3029 30.1067L13.2976 30.112L12.3609 30.3607C12.3239 30.6042 12.2498 30.8263 12.1599 31.0275C12.0804 31.2233 11.9853 31.3925 11.9059 31.5143L11.8688 31.5724L11.8636 31.5831L11.8529 31.5989L11.8052 31.6624L11.7841 31.6941L11.7789 31.7048L11.7259 31.7683C11.8529 31.7313 11.9588 31.6889 12.0646 31.6413L12.1176 31.6148L12.2551 31.5512L12.3346 31.5089C12.3979 31.4719 12.4614 31.4347 12.5144 31.3978L12.5514 31.3714L12.6414 31.3079L12.6784 31.2707L12.8266 31.1386L12.8848 31.0751L12.9059 31.0537L13.0013 30.9269L13.0701 30.8263L13.1494 30.6834C13.2869 30.3978 13.3029 30.1701 13.3029 30.1173V30.1066L13.3029 30.1067ZM5.7307 28.9321C5.3497 29.0325 4.96356 29.1437 4.58256 29.2495C3.74644 30.2178 2.30183 30.837 2.30183 30.837L2.12199 30.8793C2.4095 30.9045 2.71229 30.9151 3.02447 30.9151C3.37312 30.9151 3.73293 30.9016 4.09576 30.8793L3.92641 30.8739C4.87355 30.2073 5.48203 29.3342 5.7307 28.9321ZM7.30759 28.4929C7.03244 28.5669 6.74149 28.6515 6.44514 28.7309C5.66718 29.948 4.12743 30.8686 4.10625 30.8793C4.59305 30.8528 5.08524 30.8105 5.56134 30.7576C6.55612 29.8263 7.12244 28.8474 7.30759 28.4929ZM8.95853 28.1224C8.81036 28.133 8.66754 28.1435 8.52451 28.1489C8.38168 28.1912 8.22821 28.2335 8.06424 28.2812C7.47695 29.403 6.43449 30.2971 5.88413 30.7204C6.32864 30.6729 6.75728 30.6199 7.15942 30.5669C8.26005 29.5563 8.81571 28.4293 8.95853 28.1224ZM10.4983 27.9954C10.1915 28.0272 9.89515 28.0535 9.60934 28.0747C8.97437 29.2653 7.90023 30.1701 7.43458 30.5299C7.77325 30.4876 8.09069 30.4453 8.3712 30.4136C8.49288 30.3978 8.61986 30.3818 8.75738 30.3659C9.78931 29.403 10.3343 28.3498 10.4983 27.9954ZM11.964 27.826C11.6889 27.8577 11.4191 27.8949 11.1597 27.9265C10.5513 29.059 9.52999 29.9426 9.0378 30.3289C9.48231 30.2654 9.96911 30.1913 10.4717 30.1119C11.3925 29.1171 11.8687 28.0483 11.964 27.826H11.964ZM12.4932 27.8684C12.0064 28.8525 11.2444 29.6409 10.7946 30.0538C11.2497 29.9796 11.7047 29.8898 12.1439 29.7998C12.673 29.1383 13.0277 28.4717 13.2287 28.0219C13.0065 28.0112 12.7577 27.9689 12.4932 27.8684H12.4932ZM16.52 27.4979C16.2712 27.8789 15.8374 28.0535 15.5304 28.133C15.3347 28.1858 15.1919 28.1965 15.1919 28.1965C15.1601 28.3445 15.1124 28.4821 15.0596 28.6145C14.9272 28.9425 14.7472 29.223 14.5886 29.4346C14.4139 29.6728 14.2658 29.8263 14.2658 29.8263L14.5516 29.7945L14.7156 29.7786L15.3029 29.7151C16.012 29.3183 16.3295 28.3657 16.4512 27.8472C16.4989 27.6355 16.52 27.4979 16.52 27.4979ZM11.3926 23.1589C11.3926 23.1589 10.6518 24.8047 11.7841 26.7254C12.4667 27.8842 14.0225 27.9424 14.0225 27.9424C14.0225 27.9424 13.9272 27.9742 13.7578 28.0007C13.3715 28.7415 12.816 29.3606 12.4297 29.7415C12.816 29.6568 13.181 29.5669 13.5145 29.477C14.0276 28.8314 14.197 28.3181 14.2605 27.916L14.2393 27.9107L14.2605 27.9054L14.2658 27.8789H14.3558C14.8849 27.6885 17.0173 26.7096 15.2394 23.5241C15.2394 23.5241 15.5146 23.7304 15.8956 23.8311C16.1814 24.339 16.7263 25.5932 16.0914 26.8471C15.9644 27.1011 15.7844 27.3604 15.5464 27.6091C15.5464 27.6091 15.6839 27.5721 15.8798 27.4609C16.0333 27.3711 16.2238 27.2334 16.4036 27.0322C16.6629 26.7466 16.901 26.3286 16.9962 25.7359C17.0862 25.1803 17.0597 24.4765 16.8003 23.5664L17.409 22.6457C16.4142 22.4341 15.2182 21.9366 14.2711 20.7883C14.2869 21.2804 14.3769 22.2275 14.8214 22.9632C14.8214 22.9632 14.0582 21.7591 13.0823 21.7591C12.8071 21.7591 12.515 21.8549 12.218 22.1008C11.3979 22.7779 12.1015 25.4766 12.2285 25.7623C12.2285 25.7623 11.1702 24.5665 11.3925 23.1589H11.3926ZM8.48753 24.7358C8.19118 24.7835 7.8844 24.831 7.57205 24.8787C6.48208 26.6301 4.40786 27.7995 4.11156 27.9584C4.24903 27.9742 4.37606 27.9849 4.49256 27.9954C4.83653 27.9954 5.17516 27.9849 5.50852 27.9742C7.3976 26.6619 8.22307 25.265 8.48757 24.7358L8.48753 24.7358ZM10.1966 24.466C9.88976 24.5135 9.55117 24.5665 9.18066 24.6247C8.26536 26.3867 6.30742 27.662 5.81531 27.9635C6.30742 27.9423 6.78377 27.916 7.23873 27.8788C9.06964 26.5772 9.93213 25.0214 10.1966 24.466ZM6.8261 25.0003C6.45559 25.0586 6.07998 25.1168 5.70429 25.1749C4.67236 26.6142 2.93158 27.572 2.56642 27.7625C3.03738 27.8313 3.49238 27.8895 3.90522 27.9318C5.52962 26.8682 6.42392 25.6513 6.8261 25.0003ZM10.7258 24.6141C9.8105 26.3073 8.14372 27.482 7.57205 27.8524C8.10118 27.8048 8.59868 27.752 9.05363 27.6936C10.0061 27.0905 10.5036 26.3813 10.8476 25.6617C10.7734 25.323 10.7311 24.9685 10.7258 24.6141L10.7258 24.6141ZM4.99519 25.2861L4.91049 25.2966L4.89465 25.3019C4.60366 25.3495 4.31254 25.3919 4.02155 25.4395C3.18024 26.5454 1.84144 27.3445 1.4235 27.572C1.73564 27.6301 2.04778 27.6832 2.36012 27.7308C3.79403 26.7889 4.59305 25.8682 4.99519 25.2861V25.2861ZM11.0274 26.2597C10.5564 26.937 9.8316 27.4238 9.44533 27.6408C10.4666 27.5085 11.2391 27.371 11.6519 27.2914C11.5619 27.1963 11.4772 27.0956 11.3926 26.9793C11.2444 26.7623 11.1228 26.519 11.0274 26.2597V26.2597ZM3.36004 25.5454C2.98435 25.6036 2.60874 25.6617 2.24893 25.7199C1.61396 26.5084 0.724977 27.0905 0.312136 27.3392C0.597991 27.408 0.899598 27.4715 1.20647 27.535C2.36008 26.7995 3.02672 26.0216 3.36004 25.5454ZM3.64055 22.4868C3.32837 22.5345 3.00558 22.5822 2.68275 22.6297C2.46057 23.0107 1.7516 24.0901 0.613827 24.7569L0.761998 24.7516C0.926005 24.7411 1.38113 24.7146 2.00545 24.6723C2.40245 24.3389 3.1591 23.5928 3.64055 22.4868ZM5.12748 22.2698C4.83114 22.3122 4.519 22.3545 4.20152 22.4022C3.98449 22.7727 3.20669 24.0108 2.22775 24.6616C2.59291 24.6353 3.00019 24.6088 3.4447 24.5823C3.91031 24.159 4.64068 23.3811 5.12748 22.2699V22.2698ZM6.65674 22.053C6.36554 22.0953 6.04292 22.1377 5.69359 22.1905C5.50844 22.5557 4.88931 23.6509 3.66165 24.5664C4.03734 24.5399 4.42896 24.5134 4.82579 24.487C5.31259 24.0796 6.14341 23.2487 6.65674 22.053ZM8.2018 21.8413C8.2018 21.8413 7.84716 21.8888 7.26518 21.9684C7.05884 22.3494 6.39207 23.4604 5.0956 24.471C5.46076 24.4499 5.82588 24.4235 6.19105 24.397C6.60907 24.0689 7.60381 23.1959 8.21763 21.8413H8.2018ZM9.8209 21.6825C9.58807 21.6983 9.34993 21.7195 9.11193 21.7407L8.83677 21.7725C8.59859 22.1589 7.67263 23.5609 6.44506 24.3812C6.91067 24.3494 7.37102 24.323 7.81014 24.2912C8.14363 24.0319 9.17009 23.1482 9.8209 21.6825ZM11.3925 21.5397C11.0855 21.5662 10.7629 21.5978 10.4242 21.6297C10.2283 21.9947 9.38708 23.4446 8.12232 24.2701C8.57745 24.2382 8.99543 24.2119 9.37643 24.1854C9.78396 23.8467 10.7734 22.9259 11.3925 21.5397H11.3925ZM10.911 23.0689C10.5459 23.4658 10.1331 23.8626 9.71505 24.1642C10.1491 24.1377 10.5035 24.1112 10.7364 24.0954C10.7575 23.7355 10.8157 23.3864 10.911 23.0689ZM18.2449 16.8937C18.2449 16.8937 16.1283 19.7459 19.0757 22.2435C19.0757 22.2435 17.5411 20.0634 18.2449 16.8937ZM1.9314 20.9259L1.42877 20.9682C1.42346 20.9787 1.17993 21.7037 0.359814 22.2063L0.867798 22.1535C1.19594 21.9895 1.69858 21.6614 1.9314 20.9259ZM2.99505 20.8305L2.51343 20.8835C2.46057 20.9947 2.29657 21.635 1.4446 22.1428L1.98426 22.0742C2.31775 21.8888 2.74622 21.5027 2.99505 20.8305ZM4.03734 20.7459L3.56655 20.7882C3.5612 20.7936 3.34421 21.5555 2.56107 22.0688L2.9579 22.0212C3.28609 21.8413 3.83636 21.4655 4.03739 20.7459H4.03734ZM4.97396 20.6824C4.87882 20.693 4.64064 20.7196 4.59831 20.7247C4.57178 20.8201 4.27548 21.6031 3.64051 21.9735C3.70402 21.9684 4.01616 21.9048 4.01616 21.9048C4.02686 21.8995 4.69346 21.6297 4.97396 20.6824ZM5.81009 20.6296C5.73061 20.64 5.48195 20.656 5.44493 20.6612C5.39194 20.8994 5.16977 21.5185 4.65113 21.8413L5.01098 21.7619C5.02164 21.7567 5.67775 21.4073 5.81009 20.6296ZM6.58257 20.5714C6.49257 20.5872 6.2704 20.6084 6.22807 20.6137C6.20688 20.8201 5.88405 21.529 5.43958 21.7195C5.51375 21.709 5.89988 21.5925 5.89988 21.5925C5.90523 21.5874 6.40269 21.2857 6.58253 20.5714H6.58257ZM12.1703 21.4655L12.165 21.4709L12.1862 21.4655H12.1703ZM18.9064 17.7827C18.9064 17.7827 17.8163 19.9576 19.5095 21.402C19.5095 21.402 18.9064 20.2167 18.9064 17.7827ZM17.2396 17.3435C17.2396 17.3435 15.668 18.9097 17.626 21.2168C17.626 21.2168 16.758 19.3596 17.2396 17.3435ZM16.467 17.407C16.467 17.407 15.0224 18.8146 16.6259 20.6083C16.6259 20.6083 16.1126 18.8781 16.467 17.407ZM5.83132 17.063C5.46615 17.0841 5.05352 17.116 4.59835 17.1583C4.21201 17.7879 3.09024 19.4812 1.5558 20.5872C2.01075 20.5449 2.46592 20.5078 2.90509 20.476C3.37605 20.148 4.68832 19.116 5.83132 17.063ZM7.11476 17.0255C6.98476 17.0255 6.83892 17.0267 6.67793 17.0313C6.34444 17.5446 5.06936 19.3912 3.30192 20.4443C3.89456 20.4072 4.42904 20.3701 4.86286 20.349C5.52432 19.8991 6.83128 18.8357 7.70439 17.0683L7.55621 17.0313C7.44039 17.0283 7.29222 17.0255 7.11472 17.0255H7.11476ZM8.38708 17.3223C8.02722 17.8833 6.93712 19.4389 5.28618 20.3279C5.69902 20.3014 5.95295 20.2909 5.95295 20.2909C7.58275 20.0262 8.87388 18.3225 9.10135 17.7933C8.91085 17.6133 8.66754 17.4547 8.38708 17.3224V17.3223ZM10.7734 17.7245L9.85282 18.005C8.64635 19.7299 7.19644 20.1797 7.19644 20.1797L7.51928 20.1481C9.33418 19.7194 10.7734 17.7245 10.7734 17.7245V17.7245ZM12.3027 17.2324L11.4931 17.6345C10.3766 19.349 8.715 20.0686 8.715 20.0686L9.43463 19.8834C11.2709 19.148 12.3027 17.2324 12.3027 17.2324ZM26.288 16.2536L26.2668 16.3064C26.2245 16.4018 26.1345 16.6186 26.0023 16.8779C25.9282 17.0155 25.8488 17.1637 25.7588 17.3119C25.6266 17.5287 25.4836 17.7403 25.325 17.9308L25.235 18.0473C24.6265 18.7193 24.3672 19.7776 24.3672 19.7776C24.4995 19.4971 24.7905 19.2114 25.1026 18.9309C25.3302 18.7246 25.5578 18.5183 25.7483 18.3171C25.8646 18.1902 25.9651 18.0685 26.034 17.952L26.0551 17.9045C26.1293 17.751 26.1821 17.5658 26.2191 17.3753C26.2509 17.1954 26.2721 17.0155 26.2826 16.8514C26.2986 16.608 26.2933 16.4069 26.2933 16.3118L26.2879 16.2536L26.288 16.2536ZM21.3563 18.333C21.5045 18.9509 21.9113 19.2743 22.417 19.2743C22.9933 19.2743 23.6981 18.8535 24.2932 17.968C24.4201 17.7775 24.5419 17.5763 24.6582 17.3435C24.6847 17.2853 24.7059 17.2377 24.7324 17.1848C24.7694 17.116 24.8011 17.0472 24.8329 16.9783C24.9757 16.6874 25.1027 16.4334 25.2404 16.2112C25.2986 16.1212 25.3567 16.0365 25.4202 15.9572C25.6637 15.6397 25.9705 15.4016 26.4469 15.2004C26.579 15.1423 26.7325 15.0894 26.8967 15.0364L26.9918 15.0048C27.6003 14.8248 27.939 14.5814 28.119 14.3538C28.246 14.1898 28.3042 14.0258 28.32 13.8935C28.3412 13.74 28.3148 13.6237 28.3095 13.5602C27.6585 13.6553 27.0765 13.83 26.5369 14.1263C26.4362 14.1844 26.3411 14.2428 26.2457 14.3063C26.0764 14.4173 25.9071 14.5443 25.7431 14.6873C25.6373 14.7878 25.5314 14.8883 25.4256 15.0048C25.1981 15.2481 24.9335 15.6979 24.6425 16.2006C24.4836 16.4758 24.3196 16.7667 24.1504 17.0526C23.6794 17.8357 23.1609 18.5607 22.6371 18.7193C22.5059 18.7588 22.3836 18.7752 22.2707 18.7752C21.6874 18.7752 21.3565 18.333 21.3565 18.333H21.3563ZM27.2193 13.0522C27.2193 13.0522 27.0288 13.0522 26.7537 13.0892C26.3303 13.1527 25.7112 13.3167 25.2351 13.756C24.1132 14.7825 23.7588 17.2484 21.3882 17.3753C21.3882 17.3753 21.6704 17.5017 22.089 17.5017C22.4605 17.5017 22.9398 17.4017 23.4255 17.0261C23.6688 16.8409 23.9121 16.5869 24.1449 16.2376C24.2084 16.1424 24.2721 16.0419 24.3356 15.9308C25.1822 14.4333 25.8119 13.6025 26.6902 13.2269C26.8595 13.1527 27.0288 13.0892 27.2193 13.0522ZM21.584 13.6925C21.1342 14.428 20.1394 13.8512 19.8854 15.0048C19.6114 16.2418 20.3545 16.8251 21.2782 16.8251C21.7656 16.8251 22.3035 16.6627 22.7691 16.3488C24.2402 15.354 24.3672 13.2427 25.6795 12.8564C25.5718 12.8482 25.472 12.8441 25.3778 12.8441C24.4089 12.8441 24.1144 13.2874 23.4729 14.0736C22.7691 14.9414 21.8061 15.0683 21.8061 15.0683C22.4146 14.7509 22.4781 13.6608 22.4781 13.6608C21.9331 14.5867 20.9753 14.6502 20.9753 14.6502C21.6475 14.3645 21.584 13.6926 21.584 13.6926L21.584 13.6925ZM11.7629 13.9305C10.8053 15.7508 8.80501 16.5762 8.78387 16.5869L9.25483 16.6397C11.0486 16.2694 12.6095 14.2375 12.673 14.1475L12.7207 14.084C12.4773 14.0417 12.1545 13.9835 11.7629 13.9305H11.7629ZM10.1068 13.7348C9.17018 15.7773 7.34992 16.4652 7.33408 16.4757L8.23356 16.5392C9.63048 16.1317 11.1016 13.9782 11.1651 13.8882L11.1915 13.8512C10.8634 13.8088 10.4983 13.7719 10.1068 13.7348ZM4.49786 13.629C4.18038 13.6502 3.85758 13.666 3.52426 13.6925C3.05861 15.3223 1.97382 16.301 1.96316 16.3117L1.72515 16.5234L2.47645 16.4599C3.58773 15.9678 4.35487 14.0152 4.49786 13.629ZM8.32356 13.613C7.73092 15.4809 6.34448 16.2059 6.32864 16.2112L5.97949 16.3857L6.77312 16.4492C8.54569 15.8143 9.17548 14.0947 9.30765 13.666C8.99547 13.6448 8.66754 13.629 8.32352 13.613H8.32356ZM6.1488 13.576C5.83132 13.5813 5.50852 13.5867 5.17516 13.6025C4.64073 15.3328 3.56659 16.1901 3.55594 16.2006L3.2649 16.4229L4.03739 16.3541C5.40799 15.5709 5.98462 14.0998 6.1488 13.576ZM6.75728 13.576C6.24399 15.4069 4.93168 16.1636 4.91584 16.1689L4.58252 16.3594L5.3708 16.3911C7.01656 15.7245 7.59324 14.121 7.74136 13.5919C7.42384 13.5813 7.09591 13.576 6.75724 13.576H6.75728ZM20.2557 11.1578C20.2557 11.1578 20.5997 12.1051 18.5889 12.8775C16.5782 13.6553 16.0014 15.7826 16.0014 15.7826C16.0014 15.7826 17.1497 13.8565 19.1339 13.1686C20.8167 12.5813 20.8537 11.6711 20.2557 11.1578H20.2557ZM8.54569 12.2161C8.54569 12.2161 8.66219 12.2902 8.80501 12.4173C8.9902 12.5759 9.21785 12.8248 9.32365 13.1104C9.53534 13.1315 9.74698 13.1474 9.94797 13.1739C9.85796 12.994 9.67812 12.7452 9.38182 12.5389L9.32883 12.5019C9.25483 12.4542 9.17013 12.4119 9.08017 12.3749C8.92147 12.3008 8.75215 12.2426 8.54569 12.2161ZM6.6356 11.8351C6.6356 11.8351 6.78377 11.8934 6.99011 11.9939L7.10644 12.0521C7.48744 12.2637 7.98489 12.6024 8.06955 13.0204C8.30773 13.0364 8.54051 13.0522 8.76803 13.068C8.69921 12.9357 8.52451 12.6394 8.17539 12.3749C8.09073 12.3061 7.99024 12.2373 7.87905 12.1791C7.77856 12.1209 7.66741 12.0732 7.55091 12.0256C7.38155 11.9621 7.19105 11.9092 6.97945 11.8774C6.86843 11.8563 6.75728 11.8458 6.6356 11.8351ZM2.88624 11.9851C2.45989 11.9851 1.97496 12.0174 1.4235 12.0944C1.4235 12.0944 3.92106 12.1103 4.81535 13.0152H4.90518C5.20683 12.9992 5.50848 12.9887 5.79947 12.9834C5.78597 12.961 5.22033 11.9851 2.88624 11.9851ZM4.63767 11.7429C4.51017 11.7429 4.37669 11.7469 4.2385 11.7504C4.06384 11.7611 3.88399 11.7716 3.69353 11.7876C3.69353 11.7876 3.91571 11.7876 4.23319 11.8192L4.27552 11.8246C4.9898 11.9039 6.15925 12.1579 6.56139 12.9569L6.99537 12.9834C7.15407 12.9887 7.30755 12.994 7.46103 12.9992C7.408 12.8722 7.05884 12.1791 5.81527 11.8827C5.74657 11.8669 5.67775 11.8458 5.60358 11.8351C5.36558 11.7876 5.09564 11.7558 4.79412 11.7452C4.74296 11.7434 4.69061 11.7429 4.63763 11.7429H4.63767ZM10.8316 10.5493C10.6041 10.8933 10.2284 11.3589 9.61995 11.9145C9.74163 11.9621 9.85278 12.0044 9.95862 12.0467C10.2708 11.7822 10.8316 11.2636 11.3079 10.6023C11.1491 10.5863 10.9904 10.5704 10.8316 10.5493H10.8316ZM9.41349 10.2265C9.22834 10.5335 8.89502 10.9779 8.30768 11.5124C8.4452 11.5494 8.57218 11.5811 8.69921 11.6182C9.03253 11.3271 9.46117 10.8986 9.82098 10.343C9.68351 10.3059 9.54583 10.2688 9.41349 10.2265ZM3.29657 9.01999C3.09024 9.05183 2.87324 9.09416 2.64581 9.13649L2.62462 9.21584C2.60879 9.26882 2.28595 10.2741 1.0107 11.4806C1.16953 11.4489 1.32305 11.4277 1.48167 11.4013C1.905 11.0519 2.70397 10.2741 3.29657 9.02003V9.01999ZM8.29703 9.83493C8.08004 10.2265 7.70973 10.7397 7.09591 11.2795C7.24408 11.3007 7.38155 11.3219 7.51924 11.3482C8.01652 10.9302 8.40287 10.4064 8.64635 9.97244C8.52451 9.92494 8.41353 9.88261 8.29703 9.83493ZM4.9 8.82949C4.75701 8.83484 4.60884 8.84549 4.43953 8.85598L4.39206 8.86133C4.2914 9.15767 3.88926 10.126 2.64581 11.2319C2.84696 11.2054 3.04795 11.1895 3.24376 11.1684C3.72521 10.7344 4.4079 9.96722 4.9 8.82949ZM7.14877 9.32159C6.91594 9.7819 6.49265 10.4329 5.72552 11.1365C5.86303 11.1419 5.99537 11.1525 6.13284 11.163C6.51919 10.835 7.04313 10.2899 7.50862 9.49095C7.37646 9.43279 7.25461 9.37462 7.14877 9.32159ZM5.87882 8.84549C5.79947 9.09951 5.43962 10.0308 4.26503 11.1154C4.42373 11.1103 4.57721 11.1103 4.72534 11.1103C5.16985 10.7239 5.83645 10.0148 6.34444 8.91949C6.2546 8.893 6.10643 8.86664 5.87882 8.84549ZM27.6637 9.51744C27.6637 9.51744 28.7627 10.1654 30.0761 10.1654C30.9062 10.1654 31.8222 9.90659 32.6007 9.06227C32.6007 9.06227 31.4712 9.79905 29.6439 9.79905C29.0518 9.79905 28.3868 9.72208 27.6637 9.5174L27.6637 9.51744ZM13.9641 8.4273C13.5726 8.95129 12.7472 9.37462 12.1439 9.62864C12.0222 9.68145 11.9059 9.72913 11.8052 9.76611C11.5884 9.85076 11.4456 9.89844 11.4402 9.89844L11.7259 9.93011L11.927 9.9513C12.1757 9.9513 12.419 9.91428 12.6467 9.85611C14.0276 9.51209 15.0172 8.32155 15.0224 8.31102L15.1336 8.1417C15.1336 8.1417 15.0277 8.2422 14.6468 8.34804C14.3928 8.41868 14.1742 8.43036 14.0565 8.43036C13.9978 8.43036 13.9641 8.42735 13.9641 8.42735V8.4273ZM12.5567 8.1628L12.5355 8.18399C11.5672 9.08346 10.3659 9.55442 10.1703 9.62859L10.1438 9.63908L10.8 9.78725C10.8846 9.76606 10.9639 9.73439 11.0433 9.71325C12.3292 9.31625 13.4245 8.3691 13.6732 7.92998L13.8267 7.66013L13.5673 7.82413C13.2405 8.02397 12.8819 8.16582 12.6496 8.16582C12.6302 8.16582 12.6114 8.16463 12.5937 8.1628H12.5567ZM11.1968 7.86646L11.1702 7.893C10.1491 8.91945 9.04315 9.24229 9.0378 9.24229L8.78383 9.32159L9.39226 9.4963C10.8792 9.19996 12.3345 7.7872 12.5672 7.57551C12.5672 7.57551 12.1386 7.80834 11.7789 7.8612C11.65 7.88 11.5396 7.88586 11.4495 7.88586C11.2886 7.88586 11.1967 7.8665 11.1967 7.8665L11.1968 7.86646ZM10.1173 7.35852L10.0856 7.38501C9.08017 8.36914 7.94787 8.69197 7.93717 8.69732L7.72553 8.76084L8.15421 8.93533L8.24935 8.97248L8.38703 8.93015C9.46117 8.62315 10.7894 7.79238 11.2549 7.26325C11.2549 7.26325 11.1756 7.32158 10.6888 7.36391C10.5406 7.37673 10.4295 7.38157 10.3466 7.38157C10.1603 7.38157 10.1173 7.35856 10.1173 7.35856V7.35852ZM6.24395 4.93497L5.44497 5.00379L4.71999 5.06195L4.69885 5.08849L4.68301 5.09914C2.53992 7.63368 0.222342 8.70781 0.195849 8.71847L0.746162 8.67083C4.34434 7.47485 6.13275 5.09914 6.14876 5.07265L6.24395 4.93497ZM9.07482 6.75522L9.0378 6.78171C8.01134 7.88234 6.83654 8.27913 6.82071 8.28448L6.60372 8.36914L7.16987 8.53315C7.25983 8.50682 7.35519 8.47498 7.45037 8.438C8.60398 7.98814 10.0591 6.89821 10.3607 6.63354C10.3607 6.63354 10.1649 6.71289 9.72045 6.75004C9.56043 6.76707 9.43179 6.77237 9.33295 6.77237C9.1571 6.77237 9.07478 6.75522 9.07478 6.75522H9.07482ZM8.17535 5.03032L7.54038 5.07265L6.85242 5.12029L6.83128 5.14665L6.75728 5.23131C4.72534 7.54902 2.50294 8.46963 2.4818 8.48033L2.98974 8.45384C5.41848 7.69719 6.99011 6.32141 7.67789 5.61227C7.78904 5.50124 7.87374 5.40593 7.93721 5.33193C8.02722 5.23127 8.0749 5.16775 8.08008 5.16257L8.17539 5.03028L8.17535 5.03032ZM7.76251 6.32676L7.715 6.36378C6.61955 7.5384 5.14863 8.1417 5.13279 8.14701L5.82058 8.26334C7.38151 7.77658 8.94265 6.26328 9.00613 6.19977C9.00613 6.19977 8.79444 6.31075 8.32883 6.35312C8.25181 6.36025 8.1818 6.36259 8.1188 6.36259C7.89013 6.36259 7.76247 6.32676 7.76247 6.32676H7.76251ZM15.0912 5.70762C14.9854 5.80281 14.8425 5.91931 14.6626 6.05682C14.1599 6.42729 13.3979 6.89825 12.5036 7.08875C12.7153 7.13112 12.9323 7.17345 13.1493 7.19978C13.8689 6.98295 14.9642 6.56481 15.5621 5.95098C15.4033 5.87163 15.2446 5.79232 15.0912 5.70762H15.0912ZM14.1969 5.26315C14.0806 5.36364 13.9059 5.50129 13.6838 5.66529C13.1494 6.05164 12.3555 6.53844 11.5196 6.75008C11.6254 6.80294 11.7417 6.85593 11.8582 6.89825C12.3503 6.77127 13.3768 6.41664 14.3134 5.54879L14.4669 5.39549C14.3769 5.34781 14.2869 5.30548 14.1969 5.26315ZM13.3133 4.83978C13.2021 4.93497 13.0381 5.0673 12.8318 5.21547C12.3239 5.58064 11.5884 6.03559 10.7946 6.26328C10.8899 6.34794 10.9957 6.42725 11.1121 6.51195C11.657 6.32676 12.562 5.91931 13.525 5.05686L13.6096 4.98269C13.5091 4.93501 13.4086 4.88219 13.3133 4.83982V4.83978ZM12.3555 4.41115C12.2603 4.49045 12.091 4.62279 11.8635 4.7868C11.4507 5.07796 10.8739 5.44291 10.2284 5.70227C10.3131 5.79228 10.3978 5.88229 10.4878 5.97743C11.0221 5.76574 11.7894 5.37948 12.5884 4.68095L12.7154 4.56997C12.5937 4.51695 12.4774 4.46413 12.3556 4.41115H12.3555ZM11.2655 3.95084L11.0327 4.15718C11.0169 4.17301 10.9004 4.27885 10.7045 4.42184C10.4612 4.61234 10.0907 4.86636 9.64105 5.09379C9.74159 5.1838 9.83155 5.27364 9.92139 5.36895C10.4082 5.13082 10.9904 4.78166 11.6042 4.26832L11.7416 4.14669C11.583 4.07783 11.4242 4.01435 11.2655 3.95084ZM10.1226 3.50102L9.88972 3.73915C9.86857 3.75499 9.72575 3.88202 9.48758 4.05668C9.28642 4.21016 9.01661 4.39535 8.69378 4.57515C8.88963 4.63349 9.05894 4.70749 9.20707 4.79215C9.5564 4.59112 9.93205 4.33184 10.2972 3.99852L10.4505 3.86083L10.6359 3.69152C10.4612 3.62266 10.2919 3.56449 10.1226 3.50102ZM6.41322 2.38456C6.06406 2.78139 5.07441 3.80263 3.67749 4.34763C4.04265 4.38461 4.39198 4.41115 4.71464 4.43764C5.76776 4.0408 6.61437 3.11467 7.08517 2.53273C6.85769 2.4797 6.63552 2.43219 6.41322 2.38456ZM8.90028 3.06716C8.59859 3.38983 7.79431 4.21012 7.37637 4.38996H7.4187C7.48217 4.38996 7.54569 4.38996 7.59319 4.39531C7.72553 4.40062 7.84721 4.41645 7.96371 4.42698C8.27584 4.25763 8.60916 4.03545 8.94265 3.76034C9.06433 3.65985 9.18597 3.554 9.30247 3.44285L9.47182 3.25766C9.27598 3.18884 9.09082 3.13068 8.90037 3.06716H8.90028ZM7.74132 2.69134C7.25983 3.24696 6.29154 4.20477 5.6882 4.42694L5.79939 4.42176C6.04805 4.4111 6.27035 4.40575 6.47669 4.39527C7.07999 4.14125 7.92125 3.31578 8.27576 2.85552C8.09596 2.79719 7.92125 2.74433 7.74132 2.69134ZM4.63525 2.06172C4.0373 2.83951 2.25938 3.81846 1.42873 4.05129C1.84675 4.12011 2.25938 4.17832 2.65638 4.2313C3.69867 3.94014 4.94743 2.98768 5.52958 2.2152C5.22793 2.16222 4.93163 2.10936 4.63529 2.06172H4.63525ZM12.3131 3.67564C12.599 3.79728 12.8741 3.91378 13.1281 4.0248C13.2886 4.06598 13.7819 4.17547 14.4704 4.17547C14.7591 4.17547 15.0823 4.15594 15.4298 4.10432C15.6838 4.06713 15.959 3.95615 16.2448 3.79728C16.1018 3.67029 15.8901 3.50098 15.5938 3.28398C15.203 3.41585 14.2329 3.70035 12.9606 3.70035C12.7525 3.70035 12.5361 3.69267 12.3132 3.67568L12.3131 3.67564ZM14.1545 2.37382C13.6466 2.60151 12.4031 3.06712 10.7575 3.07761C11.1279 3.20994 11.4825 3.34228 11.8158 3.47979C12.6094 3.46396 13.9906 3.35811 14.9696 2.86066C14.7314 2.70735 14.4563 2.54848 14.1546 2.37386L14.1545 2.37382ZM15.5991 0.913418C16.0331 1.58019 16.2076 2.56966 16.2448 2.79201C16.4881 2.95601 16.7262 3.13068 16.959 3.31048C17.2554 3.04598 16.8214 1.69138 15.8743 1.05102C15.7843 1.00869 15.6891 0.961011 15.5991 0.913375L15.5991 0.913418ZM12.4772 1.52202C12.1121 1.76538 10.9796 2.43733 9.39218 2.60151C9.7097 2.70735 10.0271 2.81315 10.3235 2.91899C11.1226 2.82898 12.5143 2.59616 13.4984 2.01935C13.1862 1.85539 12.8476 1.69138 12.4772 1.52207V1.52202ZM10.7416 0.797088C10.3977 1.0404 9.23891 1.78652 7.60911 2.05637C8.04828 2.18336 8.47691 2.31039 8.88958 2.44272C9.67803 2.27336 10.9268 1.9189 11.7946 1.22042C11.4664 1.07759 11.112 0.93991 10.7416 0.797088ZM13.9693 0.188611C14.361 0.680589 14.5619 1.45324 14.6361 1.78652C14.8901 1.92939 15.1388 2.07756 15.3874 2.23104C15.2658 1.3474 14.9113 0.765289 14.7101 0.500789C14.4773 0.400296 14.2287 0.294453 13.9693 0.188611ZM8.82607 0.135626C8.52438 0.400296 7.48727 1.20976 5.97936 1.63304C6.3762 1.72836 6.76246 1.82885 7.13815 1.92939C7.93709 1.71252 9.19123 1.27323 10.0114 0.527281C9.6357 0.394946 9.23891 0.267961 8.82607 0.135626ZM45.5987 49.2344C44.4934 49.2344 43.6061 49.1932 42.9772 49.1504C42.2117 49.1679 41.4268 49.1786 40.6343 49.1786C38.8087 49.1786 36.9461 49.1233 35.204 48.9757C34.1827 48.8911 33.2091 48.9069 32.299 48.7534C31.4893 48.6159 29.6479 48.0814 29.6479 48.0814C29.6479 48.0814 30.7909 48.1238 32.3043 48.2773C33.0767 48.3566 34.061 48.5683 35.2569 48.6425C37.1554 48.7623 39.6012 48.8516 42.6226 48.8516C42.9354 48.8516 43.2552 48.8504 43.5803 48.8488C45.5171 48.7006 48.0675 48.6688 49.9989 48.6688V49.0286C48.3027 49.1839 46.8182 49.2345 45.5988 49.2345L45.5987 49.2344ZM45.7793 48.3436C44.7651 48.3436 43.9278 48.3113 43.2947 48.2719C42.4451 48.2919 41.5679 48.3043 40.6813 48.3043C39.0227 48.3043 37.3288 48.2626 35.712 48.1556C34.5267 48.0761 33.3837 48.0868 32.3254 47.9228C31.4207 47.7851 29.3199 47.219 29.3199 47.219C29.3199 47.219 30.6427 47.2983 32.352 47.4623C33.2514 47.5523 34.3997 47.7693 35.8125 47.8433C37.6104 47.9375 39.84 48.0087 42.522 48.0087C42.7049 48.0087 42.8907 48.008 43.0777 48.0075C45.0303 47.8275 47.8135 47.7798 49.9989 47.7747V48.1715C48.3815 48.2997 46.961 48.3437 45.7793 48.3437V48.3436ZM44.7416 47.5218C43.8831 47.5218 43.167 47.49 42.6174 47.4518C41.8307 47.4718 41.0228 47.483 40.2073 47.483C39.055 47.483 37.8874 47.46 36.7438 47.4041C35.1987 47.3301 33.6959 47.2772 32.3254 47.0602C31.2672 46.8962 28.9918 46.2877 28.9918 46.2877C28.9918 46.2877 30.3782 46.3882 32.4048 46.5945C33.5373 46.7057 34.9977 46.9492 36.8231 47.0285C38.3295 47.0949 40.0826 47.136 42.0875 47.136C42.3157 47.136 42.5467 47.1355 42.7814 47.1344C44.898 46.9279 47.9616 46.8485 49.9989 46.8222V47.1502C47.9358 47.436 46.1479 47.5219 44.7416 47.5219V47.5218ZM44.276 46.6857C42.926 46.6857 41.7854 46.6392 40.9664 46.5894C40.7636 46.5905 40.5602 46.591 40.3562 46.591C39.6124 46.591 38.8604 46.5822 38.1091 46.5575C36.1195 46.494 34.1511 46.4782 32.3783 46.203C31.1878 46.0179 28.8066 45.4146 28.8066 45.4146C28.8066 45.4146 30.1719 45.4622 32.4048 45.7109C33.8441 45.8749 35.7755 46.166 38.2361 46.2507C39.3925 46.2942 40.673 46.317 42.0699 46.317C42.5456 46.317 43.0354 46.3142 43.538 46.3089C45.6018 46.2135 48.0358 46.1025 49.9989 46.0125V46.3935C47.9123 46.6152 45.9357 46.6857 44.276 46.6857ZM41.3639 45.9096C39.0639 45.9096 36.4851 45.8191 33.7329 45.5734C31.7856 45.3987 28.5103 44.4198 28.5103 44.4198C28.5103 44.4198 32.082 44.9489 36.13 45.1976C38.8445 45.3617 37.8179 45.2664 41.2998 45.6209C41.5749 45.6244 41.8536 45.6256 42.1357 45.6256C43.6433 45.6256 45.2543 45.5792 47.0145 45.4992L46.9987 45.4939C47.7818 45.3352 48.8718 45.2187 49.9989 45.1341V45.6474C49.6584 45.6639 49.3486 45.6708 49.0683 45.6708C48.716 45.6708 48.4115 45.6597 48.1522 45.642C46.3831 45.785 44.0655 45.9095 41.3639 45.9095V45.9096ZM35.9783 44.8408C34.7737 44.8408 33.7377 44.6891 32.5795 44.5521C30.9127 44.3563 29.3728 43.8748 28.2352 43.5362C28.2352 43.5362 29.5263 43.642 33.2409 43.9911C34.6114 44.1181 35.3627 44.1341 35.9448 44.3881C36.2493 44.5214 36.6303 44.5598 37.0236 44.5598C37.286 44.5598 37.5534 44.5426 37.8074 44.5256C38.0537 44.5086 38.2895 44.491 38.497 44.491C38.544 44.491 38.5894 44.4921 38.6329 44.4939C40.3643 44.5621 42.1987 44.6026 44.3195 44.6026C45.6465 44.6026 47.0862 44.5868 48.6813 44.5521C49.0781 44.4886 49.5226 44.4305 49.9989 44.3774V44.7954C49.2635 44.7796 48.7766 44.7161 48.5227 44.6685C46.6871 44.7573 44.2623 44.8389 41.6431 44.8389C40.9782 44.8389 40.3003 44.8338 39.617 44.8219C39.2244 44.8185 38.3677 44.7314 37.6423 44.7314C37.2718 44.7314 36.9355 44.7543 36.7122 44.8219C36.4593 44.8349 36.2159 44.8408 35.9784 44.8408H35.9783ZM47.3632 43.9483C45.8174 43.9483 44.0478 43.9013 42.0617 43.7743C42.0617 43.7743 46.1732 43.6208 49.9989 43.5308V43.9013C49.2088 43.9295 48.3298 43.9483 47.3632 43.9483ZM38.5194 43.8318C37.7034 43.8318 36.9449 43.8178 36.2412 43.7901C35.8248 43.773 35.3792 43.636 34.9589 43.636C34.8495 43.636 34.7425 43.6455 34.6378 43.6685C34.4432 43.6813 34.2497 43.6866 34.0592 43.6866C32.9774 43.6866 31.9768 43.5031 31.1983 43.3773C29.5421 43.1075 27.8542 42.4248 27.8542 42.4248C28.4733 42.4725 30.0289 42.6418 31.6217 42.8693C32.8228 43.0387 33.5266 43.1657 34.1246 43.3561C34.4485 43.4708 34.8395 43.4938 35.1998 43.4938C35.3229 43.4938 35.4415 43.4915 35.5532 43.4885C35.669 43.4855 35.7767 43.4826 35.872 43.4826C35.9418 43.4826 36.0054 43.4838 36.0612 43.4885C39.2414 43.716 41.5061 43.7743 41.5061 43.7743C40.4344 43.8137 39.4407 43.8318 38.5194 43.8318H38.5194ZM49.9989 43.0705C48.4855 43.0705 46.7605 43.0387 44.8133 42.9382C44.8133 42.9382 46.6759 42.7635 49.9989 42.6684V43.0705ZM37.0519 42.9082C36.307 42.9082 35.6243 42.8728 34.8706 42.8058C34.4385 42.7642 33.777 42.5548 33.2497 42.5548C33.1767 42.5548 33.1067 42.559 33.0397 42.5678C32.9257 42.5813 32.7999 42.5872 32.6664 42.5872C31.9451 42.5872 30.9926 42.4125 30.3675 42.2608C28.6002 41.827 27.4256 41.2132 27.4256 41.2132C28.0287 41.3137 29.1399 41.3719 30.4047 41.6154C31.2565 41.7794 31.7856 41.9011 32.4629 42.192C32.8788 42.4197 33.5312 42.4478 34.0622 42.4478C34.1603 42.4478 34.2538 42.4467 34.3415 42.446C34.4443 42.4432 34.5385 42.4408 34.6202 42.4408C34.7014 42.4408 34.77 42.4432 34.823 42.4513C37.6434 42.7795 39.0562 42.8377 39.0562 42.8377C38.3001 42.8854 37.6557 42.9082 37.0519 42.9082ZM49.4855 42.2979C48.6407 42.2979 47.6788 42.2539 46.6017 42.1445C46.6017 42.1445 47.9669 41.8694 49.9989 41.7529V42.2927C49.833 42.2962 49.662 42.2978 49.4855 42.2978V42.2979ZM36.4304 41.8664C35.2451 41.8664 34.2768 41.7794 33.1825 41.6206C32.8316 41.5654 32.0456 41.3407 31.5693 41.3407C31.5 41.3407 31.4376 41.3454 31.3835 41.356C31.326 41.3649 31.259 41.3689 31.186 41.3689C30.6868 41.3689 29.8743 41.1825 29.3992 41.049C28.0604 40.6681 26.997 40.1019 26.997 40.1019C27.6689 40.1813 28.4044 40.3031 29.4522 40.5411C30.1982 40.7158 30.648 40.8216 30.9973 40.9909C31.4892 41.2819 32.5794 41.2026 33.0556 41.2661C36.0929 41.6524 38.564 41.7899 38.564 41.7899C37.7562 41.8417 37.0624 41.8664 36.4304 41.8664ZM49.8477 41.3678C49.2116 41.3678 48.4579 41.3049 47.5912 41.1286C47.5912 41.1286 48.5437 40.9169 49.9988 40.8586V41.3665C49.9495 41.3672 49.8988 41.3677 49.8476 41.3677L49.8477 41.3678ZM36.4474 40.8681C34.5771 40.8681 33.1039 40.6835 31.7432 40.4301C31.3241 40.3553 30.6263 40.1255 30.2089 40.1255C30.1518 40.1255 30.1007 40.1296 30.0553 40.139C30.0172 40.1436 29.9725 40.1455 29.923 40.1455C29.562 40.1455 28.94 40.0343 28.6002 39.9273C27.6847 39.6309 26.8435 39.139 26.8435 39.139C27.4202 39.1495 28.1981 39.2923 28.6319 39.3982C29.2087 39.5411 29.4733 39.647 29.8383 39.8586C30.2723 40.1019 31.3464 40.0808 31.8439 40.155C35.1774 40.6311 38.49 40.8004 38.49 40.8004C37.7562 40.8474 37.0796 40.8681 36.4474 40.8681V40.8681ZM49.8484 40.4895C49.2122 40.4895 48.4584 40.426 47.5912 40.2448C47.5912 40.2448 48.6072 40.0385 49.9988 39.975V40.4883C49.9495 40.4888 49.8995 40.4894 49.8483 40.4894L49.8484 40.4895ZM36.1546 39.9492C33.9263 39.9492 32.3007 39.7045 30.8331 39.3719C30.3563 39.2642 29.508 38.9579 29.0271 38.9579C29.0112 38.9579 28.9959 38.9584 28.9812 38.959C28.97 38.959 28.9594 38.959 28.9477 38.959C28.646 38.959 28.1987 38.892 27.9282 38.795C27.2614 38.5515 26.489 38.1812 26.489 38.1812C26.5425 38.1766 26.6048 38.1747 26.673 38.1747C27.0756 38.1747 27.6901 38.2494 28.0341 38.3399C28.2828 38.4034 28.5844 38.5676 28.8066 38.7209C29.1241 38.9274 30.1877 38.9856 30.6798 39.0703C34.2727 39.6576 38.49 39.8692 38.49 39.8692C37.6404 39.9246 36.8667 39.9492 36.1546 39.9492L36.1546 39.9492ZM49.9989 39.7052C49.0094 39.6417 47.7552 39.504 46.2155 39.393C45.1835 39.377 44.6862 39.3665 44.6862 39.3665C44.6862 39.3665 42.8606 39.2872 41.3949 38.8585C41.3949 38.8585 42.1568 38.9144 42.9677 38.9144C43.6933 38.9144 44.4576 38.8697 44.7497 38.6997C44.7497 38.6997 42.3845 38.0436 41.8023 37.6944C41.8023 37.6944 43.1728 37.9272 43.8026 38.0119C44.7074 38.1336 45.5063 38.2077 46.1732 38.2501C46.1932 38.2501 46.2132 38.2501 46.2332 38.2501C47.0391 38.2501 47.7446 38.1466 48.1839 38.0384C48.6119 37.9384 48.7777 37.8337 48.5179 37.8337C48.4761 37.8337 48.4232 37.8366 48.3584 37.8426C48.1891 37.8549 47.9439 37.8631 47.6476 37.8631C46.5176 37.8631 44.6457 37.7402 43.4216 37.2288C43.4216 37.2288 45.3494 37.5903 47.262 37.5903C47.8941 37.5903 48.525 37.5509 49.0834 37.4458C49.2739 37.4139 49.6707 37.0383 49.3058 37.0383C48.9682 37.0653 48.6519 37.0765 48.3615 37.0765C47.0533 37.0765 46.2525 36.8531 46.2525 36.8531C46.4324 36.8566 46.6142 36.8583 46.7975 36.8583C47.6994 36.8583 48.6308 36.812 49.4485 36.689C49.6337 36.6415 49.84 36.2974 49.5755 36.2022C48.8824 36.2675 48.3038 36.2821 47.9158 36.2821C47.5783 36.2821 47.3848 36.271 47.3848 36.271C48.1628 36.1547 48.5489 36.0911 49.3533 35.89C49.5756 35.8741 49.5279 35.7418 49.4751 35.6995H49.5014C49.2369 35.6043 48.9618 35.509 48.6866 35.4773C48.6361 35.4708 48.5843 35.4678 48.5315 35.4678C48.2315 35.4678 47.8993 35.562 47.5437 35.6518C47.178 35.743 46.7863 35.8347 46.3842 35.8347C46.3442 35.8347 46.3037 35.8335 46.263 35.8318C45.3582 35.7841 45.2047 35.2022 43.7392 35.2022C42.729 35.2022 42.4327 35.5514 41.2462 35.5514C40.7172 35.5514 40.0116 35.482 38.9873 35.2815L39.797 34.5195C40.1921 34.6159 40.5308 34.6617 40.8446 34.6617C41.2209 34.6617 41.5614 34.5959 41.9189 34.4719C42.5608 34.2491 43.1365 33.5606 44.2964 33.5606C44.3218 33.5606 44.3476 33.5611 44.3741 33.5618C45.5434 33.5964 45.7875 34.2807 46.6117 34.2807C46.791 34.2807 46.998 34.2484 47.2473 34.1702C47.4695 34.0274 47.8611 33.6888 48.1575 33.6623C48.1575 33.6623 48.0621 33.5671 47.9299 33.4243C47.7853 33.4848 47.3702 33.6382 46.948 33.6382C46.5223 33.6382 46.089 33.4818 45.9192 32.9163C45.9192 32.9163 46.2514 33.2425 46.864 33.2425C47.081 33.2425 47.3326 33.2013 47.6176 33.0908L47.4748 32.9321C47.1731 32.5776 46.5382 32.9587 46.1625 32.3447C45.9138 31.932 45.7338 31.5141 45.1572 31.2389C44.969 31.1489 44.809 31.1184 44.6557 31.1184C44.5022 31.1184 44.3557 31.1489 44.1941 31.1807C44.0224 31.21 43.8378 31.2394 43.618 31.2394C43.6003 31.2394 43.5826 31.2394 43.5645 31.2389C42.8819 31.2124 42.3262 30.5827 42.3262 30.5827C42.3262 30.5827 42.8378 30.7249 43.2323 30.7249C43.4117 30.7249 43.5675 30.6956 43.6385 30.6091L43.6861 30.4716C43.6468 30.4746 43.6003 30.4763 43.548 30.4763C43.2147 30.4763 42.6455 30.3951 42.1517 29.9425C42.1517 29.9425 42.696 30.1341 43.2752 30.1336C43.2975 30.1336 43.3199 30.1336 43.3422 30.133C43.2893 30.0748 43.2735 30.006 43.337 29.9266C43.4334 29.7985 43.6422 29.7413 43.9162 29.7413C44.2888 29.7413 44.7821 29.8473 45.279 30.0271C46.1374 30.3365 46.4354 30.8908 47.7583 30.8908C47.8382 30.8908 47.9217 30.8884 48.0093 30.8844C48.602 30.8579 48.9036 30.6991 49.0993 30.5139C48.3215 30.4504 47.5754 30.3022 47.5754 30.3022C48.2475 30.3022 49.2423 30.0641 49.5333 29.9901C49.6445 29.8843 49.7819 29.8101 49.9989 29.7784V31.3975L49.8878 31.4928L49.9989 31.498V31.8208C49.8189 31.7997 49.6814 31.7945 49.5968 31.7945C49.4856 31.9213 49.3744 32.059 49.2793 32.2018C49.5332 32.2125 49.766 32.2337 49.9989 32.2812V32.6835C49.6337 32.5828 49.3109 32.5405 49.0941 32.5247C48.9988 32.7257 48.9299 32.9215 48.9036 33.1068C49.3004 33.1068 49.6444 33.1492 49.9989 33.2761V33.7523C49.5544 33.5618 49.1627 33.4929 48.9194 33.4718C48.9722 33.6729 49.1153 33.8422 49.3692 33.9427C49.6021 34.0274 49.8084 34.1437 49.9989 34.2602V39.7052H49.9989ZM46.2683 30.8472C46.707 31.3675 47.1491 31.5317 47.5325 31.5317C48.1904 31.5317 48.6759 31.0484 48.6759 31.0484C48.3197 31.1554 47.9893 31.1954 47.6948 31.1954C46.8263 31.1954 46.2683 30.8472 46.2683 30.8472H46.2683ZM37.3505 39.053C34.0264 39.053 31.6211 38.6257 29.8225 38.1601C29.3357 38.0331 28.6002 37.7421 28.1874 37.7421C27.8911 37.7156 27.5684 37.6944 27.3514 37.6097C26.854 37.4192 26.235 37.0965 26.235 37.0965C26.245 37.0965 26.255 37.0965 26.2655 37.0965C26.5472 37.0965 27.1021 37.1629 27.3726 37.2393C27.5948 37.3028 27.8701 37.3928 28.1081 37.5779C28.4044 37.7526 29.5208 37.8743 29.9972 37.9538C34.188 38.7051 39.8921 38.9749 39.8921 38.9749C38.9896 39.0291 38.1442 39.0531 37.3505 39.0531V39.053ZM36.9919 38.0619C32.2177 38.0619 29.0424 37.1346 27.4256 36.5356C27.1979 36.525 26.9282 36.4456 26.7746 36.3768C26.3671 36.2128 25.9334 35.9853 25.9334 35.9853C25.9392 35.9853 25.9464 35.9853 25.9527 35.9853C26.1485 35.9853 26.6448 36.0558 26.8593 36.1123C27.0287 36.1598 27.2562 36.2868 27.4256 36.4138C31.3888 37.4563 39.49 37.9801 39.49 37.9801C38.6135 38.0366 37.7809 38.0619 36.9919 38.0619H36.9919ZM37.1682 36.9283C32.1572 36.9283 28.78 35.9235 27.2349 35.3292C27.0021 35.2973 26.8011 35.255 26.6635 35.1968C26.346 35.0592 25.9122 34.8212 25.9122 34.8212C25.9264 34.8198 25.9422 34.8194 25.9599 34.8194C26.162 34.8194 26.5625 34.9005 26.7377 34.9587C26.8858 35.0063 26.9916 35.1122 27.2509 35.2285C31.1455 36.308 39.6592 36.8478 39.6592 36.8478C38.7891 36.9029 37.9585 36.9283 37.1682 36.9283ZM37.4964 35.8646C30.1447 35.8646 26.2562 33.8369 26.2562 33.8369C31.5211 35.5936 40.0721 35.7841 40.0721 35.7841C39.1713 35.8395 38.3123 35.8646 37.4964 35.8646ZM36.1041 34.8063C29.8825 34.8063 26.3778 32.9744 26.3778 32.9744C29.9972 34.493 39.1143 34.6677 39.1143 34.6677C38.0502 34.7647 37.0461 34.8063 36.1041 34.8063ZM36.4416 33.9369C30.4822 33.9369 26.3778 32.186 26.3778 32.186C31.5353 33.6387 36.9207 33.7822 38.8438 33.7822C39.3159 33.7822 39.58 33.7734 39.58 33.7734C38.4888 33.8881 37.4393 33.9369 36.4416 33.9369H36.4416ZM36.334 33.0561C30.3817 33.0561 26.362 31.2758 26.362 31.2758C31.654 32.7662 36.4011 32.9361 38.2924 32.9361C38.8521 32.9361 39.162 32.9214 39.162 32.9214C38.1795 33.0156 37.2347 33.0561 36.334 33.0561ZM37.8755 32.4211C36.136 32.4211 34.3927 32.1595 33.4949 32.0008C28.3939 31.3922 26.1873 30.2705 26.1873 30.2705C29.5632 31.2282 32.2461 31.731 34.098 32.0008C36.3581 32.1906 38.5898 32.216 39.6258 32.216C40.0063 32.216 40.2256 32.2125 40.2256 32.2125C39.5006 32.3641 38.6887 32.4211 37.8755 32.4211ZM20.3532 31.8773C20.0511 31.8773 19.7353 31.711 19.626 31.4029C19.4038 30.7626 20.1074 30.1859 20.1074 30.1859C19.8852 30.6304 20.3033 30.7256 20.3033 30.7256C20.3033 30.7256 20.3586 30.7162 20.4384 30.7162C20.6489 30.7162 21.0299 30.7832 21.007 31.2705C20.9875 31.685 20.6784 31.8773 20.3532 31.8773V31.8773ZM38.4753 31.6703C37.3752 31.6703 36.3639 31.5468 35.7596 31.4557C28.8754 30.8367 26.2138 29.3604 26.2138 29.3604C29.9337 30.5244 33.2725 31.096 35.1881 31.35C36.2146 31.4258 37.2177 31.451 38.099 31.451C39.8611 31.451 41.1357 31.35 41.1357 31.35C40.3007 31.5903 39.3595 31.6703 38.4753 31.6703ZM40.5371 30.9302C38.8845 30.9302 36.7491 30.6832 36.7491 30.6832C38.139 30.7167 39.2219 30.7279 40.0479 30.7279C41.7007 30.7279 42.3261 30.6832 42.3261 30.6832C42.0687 30.8684 41.3632 30.9302 40.5371 30.9302H40.5371ZM36.3628 30.6304C30.3305 30.2546 26.489 28.3338 26.489 28.3338C31.5899 30.1806 36.3628 30.6304 36.3628 30.6304ZM40.8623 30.197C39.7388 30.197 38.2254 30.101 38.2254 30.101C39.6535 29.9954 40.5489 29.9612 41.1099 29.9612C42.0894 29.9612 42.0511 30.0641 42.0511 30.0641C42.0299 30.1645 41.5108 30.197 40.8623 30.197ZM49.9989 29.5984C49.3427 29.4344 48.8982 29.3816 48.8982 29.3816C49.2093 29.3491 49.4962 29.3356 49.7602 29.3356C49.8419 29.3356 49.9212 29.3367 49.9989 29.3393V29.5984ZM35.7066 29.5509C31.2195 29.3604 28.0499 27.773 28.0499 27.773C32.008 29.2016 35.7066 29.5509 35.7066 29.5509ZM41.1846 29.5021C40.4301 29.5021 39.4213 29.4028 39.4213 29.4028C40.3449 29.3086 40.9369 29.2786 41.3162 29.2786C41.9824 29.2786 41.9929 29.3709 41.9929 29.3709C41.9566 29.4702 41.6114 29.5021 41.1846 29.5021ZM41.5061 28.8694C40.9518 28.8694 40.2149 28.7571 40.2149 28.7571C40.8359 28.6766 41.2544 28.6513 41.5368 28.6513C42.0329 28.6513 42.1041 28.7306 42.1041 28.7306C42.0611 28.8359 41.8112 28.8694 41.5061 28.8694ZM49.9989 28.7624C49.327 28.5824 48.8718 28.519 48.8718 28.519C49.1541 28.4908 49.4151 28.479 49.6549 28.479C49.7749 28.479 49.8896 28.4819 49.9989 28.4873V28.7624ZM35.3257 28.5561C32.6853 28.4131 31.1349 27.5772 31.1349 27.5772C33.3468 28.2068 35.3257 28.5561 35.3257 28.5561ZM42.1387 28.2468C41.8013 28.2468 41.3526 28.154 41.3526 28.154C41.7296 28.0886 41.9841 28.0679 42.1558 28.0679C42.4581 28.0679 42.5009 28.1328 42.5009 28.1328C42.4744 28.2191 42.3234 28.2468 42.1387 28.2468ZM49.9989 27.9686C49.1946 27.7306 48.6336 27.6564 48.6336 27.6564C48.946 27.6223 49.2276 27.6065 49.4845 27.6065C49.6673 27.6065 49.8385 27.6148 49.9989 27.6299V27.9686ZM26.4649 27.8176C24.8363 27.8169 23.8857 26.503 23.8857 26.503C24.4995 26.9475 25.4254 27.0743 25.4254 27.0743C25.4254 26.9475 25.1133 26.233 24.4995 25.6985C23.8222 25.1219 23.6317 23.8731 23.6317 23.8731C23.9174 24.4497 24.4571 25.1059 24.8486 25.3493C25.5601 25.7957 25.7483 26.6787 25.9281 26.6787C25.9423 26.6787 25.9564 26.6735 25.9704 26.6616C26.2456 26.4288 26.3833 26.1802 25.6159 25.4128C24.4995 24.2911 24.3355 23.4286 24.3355 23.4286C24.3355 23.4286 24.8486 24.3229 25.9387 25.217C27.3515 26.3865 26.5789 27.8153 26.5789 27.8153C26.5407 27.8164 26.5025 27.8176 26.4648 27.8176L26.4649 27.8176ZM49.9989 27.122C49.1628 26.8733 48.5702 26.794 48.5702 26.794C48.8937 26.7545 49.1876 26.7375 49.454 26.7375C49.6496 26.7375 49.8308 26.7463 49.9989 26.7621V27.122ZM14.5755 26.503C12.9606 26.503 12.011 23.231 12.9376 22.82C13.0946 22.7495 13.2363 22.7178 13.3651 22.7178C14.6079 22.7178 14.5991 25.6986 14.5991 25.6986C14.5991 25.6986 14.3481 24.3539 13.9166 24.3539C13.879 24.3539 13.8402 24.3646 13.8001 24.3863C12.8688 24.8996 14.5991 26.503 14.5991 26.503C14.5916 26.503 14.5839 26.503 14.5756 26.503H14.5755ZM49.9989 26.2807C49.1311 26.0162 48.5067 25.9315 48.5067 25.9315C48.8272 25.8939 49.1193 25.8767 49.3858 25.8767C49.608 25.8767 49.8115 25.8885 49.9989 25.9103V26.2807ZM49.9989 25.4394C49.0993 25.1589 48.4431 25.0742 48.4431 25.0742C48.7713 25.0349 49.07 25.0166 49.341 25.0166C49.5815 25.0166 49.8002 25.0307 49.9989 25.0584V25.4394ZM49.9989 24.5979C49.0676 24.3018 48.385 24.2118 48.385 24.2118C48.702 24.1729 48.9906 24.1553 49.2547 24.1553C49.5286 24.1553 49.7754 24.1741 49.9989 24.2064V24.5979ZM49.9989 23.7355C49.0676 23.4392 48.385 23.3491 48.385 23.3491C48.7248 23.3021 49.0318 23.281 49.3109 23.281C49.5621 23.281 49.7907 23.2981 49.9989 23.328V23.7355ZM49.9989 22.8942C49.0358 22.582 48.3215 22.4867 48.3215 22.4867C48.6548 22.4397 48.9571 22.4197 49.2323 22.4197C49.5163 22.4197 49.7703 22.4415 49.9989 22.4762V22.8942ZM39.623 22.0817C37.7863 22.0817 36.3258 21.3226 36.3258 21.3226C37.5141 21.6736 38.7045 21.7759 39.6888 21.7759C41.0634 21.7759 42.0352 21.5766 42.0352 21.5766C41.2181 21.9499 40.3878 22.0817 39.623 22.0817ZM49.9989 22.0317C49.0358 21.7194 48.3215 21.6242 48.3215 21.6242C48.6713 21.5749 48.9876 21.5542 49.2735 21.5542C49.541 21.5542 49.7814 21.5725 49.9989 21.603V22.0317ZM40.3797 21.2579C39.9552 21.2579 39.6647 21.2221 39.6647 21.2221C41.0881 21.1851 41.9453 20.3648 42.5591 20.1954C42.4904 20.0133 42.2892 19.9444 42.0101 19.9444C41.4068 19.9444 40.442 20.2649 39.6754 20.4494C39.4666 20.4994 39.2379 20.5212 39.0016 20.5212C37.9133 20.5212 36.6487 20.0586 36.2836 19.7458C35.9449 19.4553 35.2976 19.4188 34.9983 19.4188C34.9001 19.4188 34.8389 19.423 34.8389 19.423C34.8389 19.423 36.9555 18.0154 38.9081 17.7879C39.1105 17.765 39.3073 17.7544 39.4984 17.7544C41.1564 17.7544 42.3686 18.5287 42.3686 18.5287C42.3686 18.5287 41.6108 16.8612 39.0133 16.8612C38.9893 16.8612 38.9646 16.8619 38.9398 16.8619C36.2836 16.8936 34.04 19.3911 34.04 19.3911C33.983 19.3965 33.926 19.3988 33.8683 19.3988C32.9505 19.3988 32.0134 18.7615 32.0134 18.7615C32.0134 18.7615 32.0974 18.7738 32.2486 18.7738C32.5731 18.7738 33.2068 18.7168 33.9765 18.3593L31.6164 18.0577C32.0239 17.9613 32.5325 17.9302 33.0159 17.9302C33.7506 17.9302 34.4263 18.0013 34.5956 18.0206C34.6643 17.9783 34.7278 17.936 34.7966 17.8883C34.9183 17.8036 35.0506 17.7031 35.1988 17.6027L32.2409 17.338C33.2363 17.2017 34.0481 17.1616 34.6626 17.1616C35.1947 17.1616 35.5792 17.1916 35.8072 17.2163C36.1089 17.0523 36.4634 16.8935 36.8815 16.7614C35.0718 16.7137 33.3785 16.6767 33.3785 16.6767C34.6385 16.4597 35.9614 16.3885 37.1544 16.3885C37.9703 16.3885 38.7258 16.422 39.358 16.465C39.7653 16.4755 40.2098 16.5125 40.6861 16.576C40.7708 16.5867 40.8448 16.5972 40.9082 16.6025C40.9289 16.6044 40.9478 16.6049 40.9654 16.6049C41.2611 16.6049 41.1576 16.3615 40.9929 16.1316C40.2721 15.9947 38.1492 15.9694 36.6793 15.9694C35.8191 15.9694 35.183 15.9782 35.183 15.9782C37.1884 15.6184 38.0086 15.6395 39.0405 15.6236C39.6544 15.6184 40.4956 15.4596 40.9136 15.4596C43.0302 15.4596 44.533 16.7084 45.3955 16.9781C45.2844 17.0312 45.1521 17.0577 44.9509 17.0681C44.6441 17.0946 44.2685 17.2058 44.7129 17.4122C45.0305 17.5496 45.5066 17.719 45.8717 17.8566C45.8717 17.8566 44.9774 17.8143 44.5383 17.7985C44.5313 17.7985 44.5241 17.7978 44.5171 17.7978C44.0685 17.7978 44.1073 18.3011 44.2948 18.3116C44.9139 18.3751 46.1627 18.5339 46.5649 18.6663C46.5649 18.6663 45.1363 18.7298 44.1838 18.7456C43.951 18.7456 44.2261 19.1743 44.5595 19.1954C45.4643 19.296 45.8929 19.5234 45.8929 19.5234C45.5859 19.5446 44.6758 19.5605 44.1204 19.5658C43.7564 19.5916 43.4177 20.0321 43.7029 20.0321C43.7075 20.0321 43.7128 20.0314 43.7182 20.0314C44.7023 20.0526 45.1363 20.2272 45.1363 20.2272C44.8293 20.2484 43.6652 20.3596 43.1572 20.4124L43.1519 20.4177C42.9667 20.4336 42.5064 20.7194 42.755 20.7246C43.4641 20.7511 44.2525 20.8887 44.2525 20.8887C44.2413 20.8876 44.2255 20.8869 44.2055 20.8869C43.8633 20.8869 42.317 21.0516 41.6967 21.1268C41.2253 21.2303 40.7514 21.2579 40.3798 21.2579H40.3797ZM37.894 19.0597C37.804 19.0597 37.6898 19.072 37.5588 19.1108C37.0296 19.2695 36.7385 19.5023 36.7385 19.5023C37.4323 19.9945 38.1296 20.1296 38.6871 20.1296C39.3707 20.1296 39.8447 19.9256 39.8447 19.9256C39.8447 19.9256 39.5672 19.9651 39.1963 19.9651C38.656 19.9651 37.9163 19.8816 37.5428 19.4707C37.5682 19.4723 37.5923 19.473 37.6158 19.473C38.1391 19.473 38.1196 19.0897 38.1196 19.0897C38.1196 19.0897 38.0361 19.0597 37.894 19.0597ZM40.2257 19.1955C40.051 19.1955 40.0826 19.3225 40.0826 19.4812C40.0826 19.64 40.051 19.7722 40.2257 19.7722C40.4055 19.7722 40.7653 19.64 40.7653 19.4812C40.7653 19.3225 40.4055 19.1955 40.2257 19.1955ZM49.9989 21.1479C49.0676 20.8516 48.385 20.7618 48.385 20.7618C48.722 20.7176 49.0253 20.6982 49.2998 20.6982C49.5556 20.6982 49.7873 20.7152 49.9989 20.7458V21.1479ZM15.4352 20.6083C12.3926 17.1795 14.9854 14.4279 14.9854 14.4279C13.7049 18.2378 15.4352 20.6083 15.4352 20.6083ZM49.9989 20.2485C49.1365 19.9838 48.512 19.8991 48.512 19.8991C48.8642 19.8516 49.1823 19.8304 49.4686 19.8304C49.6596 19.8304 49.8361 19.8398 49.9989 19.8568V20.2485ZM49.9989 19.3065C48.9565 19.0843 48.2157 19.0313 48.2157 19.0313C48.7578 18.958 49.2304 18.9285 49.6438 18.9285C49.7673 18.9285 49.8854 18.9315 49.9989 18.9362V19.3065ZM49.9989 18.2693C48.7818 18.0788 47.9512 18.0207 47.9512 18.0207C48.5661 17.9755 49.1106 17.959 49.5991 17.959C49.7367 17.959 49.8696 17.9602 49.9989 17.9625V18.2693ZM49.9989 17.3487C48.4485 17.137 47.3637 17.0841 47.3637 17.0841C48.154 17.0107 48.8501 16.9812 49.4668 16.9812C49.6515 16.9812 49.8285 16.9842 49.9989 16.9889V17.3487ZM49.9989 16.4491C48.8136 16.2851 48.004 16.2428 48.004 16.2428C48.7606 16.1581 49.4167 16.1264 49.9989 16.1264V16.4491ZM45.8293 16.3016C45.4988 16.3016 45.2097 16.2139 45.0038 16.1053C44.4747 15.8353 44.136 15.7401 44.136 15.7401C44.2214 15.7201 44.32 15.7101 44.4235 15.7101C44.6722 15.7101 44.948 15.7659 45.1308 15.8671C45.5964 16.1264 46.1468 16.2746 46.1468 16.2746C46.0379 16.2934 45.9316 16.3016 45.8293 16.3016ZM49.9989 15.4808C49.401 15.4173 49.0358 15.3961 49.0358 15.3961C49.3798 15.3696 49.6973 15.3538 49.9989 15.3485V15.4808ZM15.2712 12.5387C15.2712 12.5387 16.4565 11.417 16.9061 10.1682C17.3559 8.91941 17.5464 8.60192 17.8692 8.24746C17.8692 8.24746 17.8292 8.23044 17.7557 8.23044C17.6088 8.23044 17.3277 8.29862 16.9644 8.70772C17.0861 8.51192 17.3506 7.95643 16.9696 7.18916C16.9696 7.18916 17.5647 7.80825 18.4214 7.80825C18.9428 7.80825 19.5618 7.57895 20.2028 6.83979C20.2028 6.83979 19.1496 8.34256 19.5306 9.27387C19.5306 9.27387 19.0545 8.6654 19.0862 8.12039C19.0862 8.12039 18.2502 8.31089 17.8692 8.98284C17.4829 9.65483 17.1972 11.4169 15.2711 12.5387L15.2712 12.5387ZM49.9989 11.8826C48.6073 11.6286 47.6495 11.5281 47.6495 11.5281C47.7065 11.5275 47.763 11.5275 47.8189 11.5275C48.6467 11.5275 49.3646 11.5639 49.999 11.6233V11.8826H49.9989ZM49.9989 10.7397C47.7077 10.4063 45.9033 10.364 45.9033 10.364C46.7089 10.2946 47.4214 10.2652 48.0524 10.2652C48.8148 10.2652 49.4575 10.3081 49.999 10.3745V10.7397H49.9989ZM49.9989 9.59136C47.3797 9.25269 45.3318 9.21036 45.3318 9.21036C46.2361 9.14404 47.038 9.11585 47.7506 9.11585C48.6308 9.11585 49.3728 9.15937 49.9989 9.22637V9.59136ZM49.9989 8.3744C47.914 8.12039 46.3584 8.08341 46.3584 8.08341C47.1892 8.01574 47.9276 7.98691 48.5838 7.98691C49.1065 7.98691 49.5768 8.00525 49.9989 8.03573V8.3744ZM25.4571 7.67061C24.6581 7.09381 24.8805 6.19969 24.8805 6.19969C24.3037 6.48533 24.3988 7.34782 24.3988 7.34782C23.5999 5.94041 25.3302 5.04607 26.3833 4.21007C27.4416 3.3793 28.3094 0.691246 28.3094 0.691246C28.177 3.08831 26.579 4.69161 25.9388 5.45887C25.2985 6.23136 25.4572 7.67065 25.4572 7.67065L25.4571 7.67061ZM49.9989 7.16263C48.3585 6.98283 47.1943 6.95629 47.1943 6.95629C48.01 6.88582 48.7266 6.8558 49.3616 6.8558C49.5838 6.8558 49.7961 6.85932 49.9989 6.86633V7.16263ZM49.9989 5.98269C48.5862 5.83983 47.623 5.81869 47.623 5.81869C48.442 5.74685 49.1616 5.72286 49.8008 5.72286C49.8678 5.72286 49.9336 5.72286 49.999 5.72333V5.98269H49.9989ZM18.7359 5.77283C18.0092 5.77283 17.5147 5.2049 17.5147 5.2049C17.8381 5.43357 18.1497 5.53287 18.4465 5.53287C19.4431 5.53287 20.2763 4.40991 20.8429 3.25235C21.412 2.09352 22.5434 1.95936 23.0372 1.95936C23.186 1.95936 23.277 1.97172 23.277 1.97172C21.8696 3.53796 22.3194 5.59104 22.3194 5.59104C21.5521 3.79728 22.351 2.54848 22.351 2.54848C21.3881 2.73898 21.7426 3.08831 20.2663 4.88207C19.7088 5.56166 19.1792 5.77283 18.7359 5.77283ZM23.277 5.2049C23.3459 4.72324 23.8221 3.82912 24.7534 3.41097C25.6794 2.99295 26.0657 1.9082 26.0657 1.9082C26.0657 1.9082 25.4519 2.35271 24.8804 2.44799C23.9543 2.61199 23.3723 3.60147 23.3723 3.60147C23.3723 3.60147 23.5998 2.28916 24.9756 1.97172C26.1186 1.70187 26.7059 0.722918 26.7059 0.722918C26.6107 2.16217 25.9387 3.41097 24.8804 3.86079C23.8221 4.3053 23.277 5.20494 23.277 5.20494V5.2049ZM49.9989 4.80272C48.8241 4.69687 48.0517 4.68087 48.0517 4.68087C48.7766 4.6174 49.4167 4.59103 49.9989 4.58572V4.80272ZM40.793 2.86596C36.952 2.86596 36.601 0.177912 36.601 0.177912C37.5004 2.41614 40.8606 2.86596 40.8606 2.86596C40.8376 2.86596 40.8153 2.86596 40.793 2.86596ZM42.2922 1.83832C42.2845 1.82949 42.278 1.82066 42.2715 1.81234C42.2752 1.81718 42.2822 1.82601 42.2922 1.83832ZM42.2715 1.81234C42.2692 1.80949 42.2681 1.80767 42.2681 1.80767C42.2692 1.80949 42.2704 1.81068 42.2715 1.81234Z" fill="url(#paint1_radial_870_86127)"/>
<path fill-rule="evenodd" clip-rule="evenodd" d="M99.9994 49.9987V0.00146484H50V49.9987H99.9994Z" fill="url(#paint2_linear_870_86127)"/>
<path d="M66.8099 25.0015V32.2555H70.6856V33.3614H64.9785V25.0015H66.8099Z" fill="#FEFEFE"/>
<path d="M72.0977 33.3614H73.9303V25.0015H72.0977V33.3614Z" fill="#FEFEFE"/>
<path d="M77.8591 29.0769C77.8591 31.0553 79.1391 32.4904 80.8799 32.4904C81.512 32.4904 82.1323 32.2676 82.6185 31.8713C83.3058 31.2952 83.6479 30.4627 83.6479 29.3696C83.6479 27.3083 82.3956 25.8879 80.6035 25.8879C78.9821 25.8879 77.8591 27.192 77.8591 29.0769ZM85.5729 29.1304C85.5729 31.7554 83.5556 33.5346 80.5754 33.5346C79.2707 33.5346 78.1643 33.1647 77.3612 32.4793C76.4604 31.712 75.9336 30.5278 75.9336 29.2479C75.9336 27.8904 76.4887 26.7557 77.5433 25.953C78.5447 25.1876 79.6006 24.8438 80.944 24.8438C83.7274 24.8438 85.5729 26.5594 85.5729 29.1304Z" fill="#FEFEFE"/>
<path d="M89.3841 28.8905C90.0814 28.9181 90.2395 28.9181 90.3435 28.9181C91.7304 28.9181 92.3619 28.4302 92.3619 27.3642C92.3619 26.7169 92.0868 26.2831 91.557 26.0843C91.2955 25.9784 90.9909 25.9396 90.333 25.9396C89.9784 25.9396 89.9085 25.9396 89.3841 25.9531V28.8905ZM87.5508 25.0013C89.6469 24.9643 90.6887 24.939 90.6887 24.939C92.0726 24.939 92.6924 25.0429 93.2462 25.3858C93.944 25.8191 94.2869 26.4388 94.2869 27.2556C94.2869 28.352 93.4579 29.1903 92.1673 29.5678C93.3279 31.9713 94.2869 32.7433 95.3293 32.6652L95.3698 32.7303L95.234 33.2566C95.1952 33.4288 94.8402 33.5218 94.208 33.5218C93.2039 33.5218 92.4678 33.1108 91.7805 32.1635C91.4136 31.6467 91.0697 31.0182 90.4894 29.8278C90.2523 29.8401 90.0814 29.8553 89.8186 29.8553C89.6715 29.8553 89.5646 29.8553 89.3841 29.8401V33.3611H87.5508V25.0013Z" fill="#FEFEFE"/>
<path d="M58.8088 44.3354C59.7964 44.3354 60.4267 44.179 60.8489 43.8356C61.2305 43.5211 61.4398 43.0754 61.4398 42.5716C61.4398 41.9136 61.1111 41.3875 60.5583 41.1259C60.1762 40.9419 59.5984 40.8624 58.7581 40.8624H57.6646V44.3224L58.8088 44.3354ZM58.7717 40.2057C59.5984 40.2057 59.9271 40.1257 60.2439 39.8512C60.5583 39.5731 60.7172 39.2044 60.7172 38.7223C60.7172 38.1803 60.5178 37.7716 60.1492 37.5223C59.8752 37.3536 59.5201 37.273 58.8892 37.273C58.5312 37.273 58.3759 37.273 57.6646 37.326V40.2057H58.7717L58.7717 40.2057ZM56.6387 36.6681C57.3376 36.6552 57.3618 36.6552 57.9275 36.6441C58.4031 36.6299 58.7823 36.6299 58.9798 36.6299C60.1762 36.6299 60.756 36.7587 61.2163 37.1549C61.6085 37.5119 61.8355 38.008 61.8355 38.5624C61.8355 39.4296 61.4268 39.9682 60.5073 40.322C61.1 40.4262 61.3738 40.5225 61.6773 40.7295C62.2281 41.1005 62.558 41.7585 62.558 42.4658C62.558 43.4129 62.0183 44.2419 61.151 44.6499C60.532 44.9299 59.927 45.0046 58.4148 45.0046H56.6387V36.6681H56.6387Z" fill="#EFBE26"/>
<path d="M67.4693 37.7503L65.8284 41.6659H68.9314L67.4693 37.7503H67.4693ZM68.0643 36.6685L71.2867 45.005H70.1654L69.1813 42.3097H65.5508L64.433 45.005H63.3789L67.2487 36.6685H68.0642H68.0643Z" fill="#EFBE26"/>
<path d="M73.4194 36.6685L79.103 43.2963L78.916 36.6685H79.8389L79.8249 44.9685L79.3782 45.1243L73.367 38.1807L73.5622 45.0049H72.6426V36.6685H73.4194Z" fill="#EFBE26"/>
<path d="M89.2284 36.6685L84.9535 40.3736L89.4283 45.005H87.979L83.7418 40.546L87.8997 36.6685H89.2285H89.2284ZM82.6523 36.6685H83.6788V45.005H82.6523V36.6685Z" fill="#EFBE26"/>
<path d="M57.4754 30.3553L58.9319 26.7247L60.2735 30.3553H57.4754ZM59.8455 24.6528H57.021L56.9293 24.7328C56.9293 24.7328 56.7129 25.4371 56.6946 25.6083C56.7218 25.944 58.3081 25.6383 58.3081 25.6383L54.6387 33.3613H56.2473L57.0904 31.3019H60.6574L61.4094 33.3613H63.4242L59.8455 24.6529L59.8455 24.6528Z" fill="#FEFEFE"/>
</g>
<defs>
<radialGradient id="paint0_radial_870_86127" cx="0" cy="0" r="1" gradientUnits="userSpaceOnUse" gradientTransform="translate(24.9997 25.0011) scale(6.48399)">
<stop stop-color="#F4CF71"/>
<stop offset="1" stop-color="#F1BF28"/>
</radialGradient>
<radialGradient id="paint1_radial_870_86127" cx="0" cy="0" r="1" gradientUnits="userSpaceOnUse" gradientTransform="translate(24.9997 25.0008) scale(6.48399)">
<stop stop-color="#702723"/>
<stop offset="1" stop-color="#702723"/>
</radialGradient>
<linearGradient id="paint2_linear_870_86127" x1="99.9994" y1="25.0001" x2="49.9998" y2="25.0001" gradientUnits="userSpaceOnUse">
<stop stop-color="#752741"/>
<stop offset="0.501961" stop-color="#752741"/>
<stop offset="1" stop-color="#552630"/>
</linearGradient>
<clipPath id="clip0_870_86127">
<rect width="100" height="49.9972" fill="white" transform="translate(0 0.00146484)"/>
</clipPath>
</defs>
</svg>
