<svg width="100" height="20" viewBox="0 0 100 20" fill="none" xmlns="http://www.w3.org/2000/svg">
<g clip-path="url(#clip0_870_90958)">
<path d="M36.3758 10.8592V12.252H37.3486C37.7276 12.252 37.968 12.2413 38.0702 12.22C38.2263 12.1916 38.3537 12.1222 38.451 12.0124C38.5499 11.9026 38.5995 11.7545 38.5995 11.5696C38.5995 11.4135 38.5615 11.2812 38.4857 11.1718C38.4097 11.0624 38.3005 10.9832 38.157 10.9339C38.0134 10.8841 37.7032 10.8592 37.225 10.8592H36.3758V10.8592ZM36.3758 8.78728V9.99162H37.0651C37.4749 9.99162 37.7294 9.98585 37.8288 9.97368C38.0085 9.95263 38.1503 9.89065 38.253 9.78743C38.356 9.68454 38.4076 9.54865 38.4076 9.38048C38.4076 9.219 38.3627 9.08841 38.2738 8.98794C38.185 8.88682 38.0532 8.82606 37.8784 8.80425C37.7743 8.79299 37.4749 8.78725 36.9793 8.78725H36.3758V8.78728ZM35.3242 7.91992H37.4058C37.8183 7.91992 38.1244 7.937 38.3275 7.97122C38.5296 8.00588 38.7114 8.07726 38.8711 8.18665C39.0311 8.29492 39.1647 8.44041 39.2715 8.62146C39.3781 8.80284 39.431 9.00642 39.431 9.23105C39.431 9.47543 39.3647 9.69898 39.2332 9.90296C39.1018 10.1064 38.9243 10.2591 38.6991 10.361C39.016 10.4534 39.2602 10.6107 39.431 10.8344C39.6015 11.057 39.6868 11.319 39.6868 11.6189C39.6868 11.8567 39.6313 12.0876 39.5201 12.3116C39.4109 12.5348 39.2602 12.7134 39.0696 12.8477C38.8791 12.9811 38.6444 13.0638 38.365 13.0952C38.1893 13.1135 37.7672 13.1251 37.0977 13.1295H35.3242V7.91992Z" fill="black"/>
<path d="M42.6492 11.318C42.5221 11.3603 42.3185 11.4115 42.0422 11.4705C41.7646 11.5288 41.5838 11.5879 41.4983 11.6448C41.3686 11.7369 41.3028 11.8547 41.3028 11.9969C41.3028 12.136 41.3552 12.2564 41.4597 12.3592C41.5635 12.4611 41.6965 12.5121 41.8568 12.5121C42.0373 12.5121 42.2089 12.4531 42.3724 12.3342C42.4929 12.2441 42.5725 12.1338 42.611 12.0039C42.6364 11.9186 42.6493 11.756 42.6493 11.5163V11.318L42.6492 11.318ZM41.3134 10.5072L40.4079 10.3437C40.5101 9.97823 40.6847 9.70855 40.933 9.5332C41.1824 9.35843 41.5516 9.27026 42.0421 9.27026C42.4874 9.27026 42.8189 9.32294 43.0362 9.42868C43.2548 9.53406 43.4073 9.66743 43.4961 9.83C43.585 9.9922 43.6299 10.2908 43.6299 10.7246L43.6197 11.8897C43.6197 12.2213 43.6343 12.4667 43.6667 12.6237C43.6982 12.7816 43.7591 12.95 43.8467 13.1295H42.8593C42.8331 13.0638 42.8012 12.9655 42.7638 12.8352C42.7468 12.7757 42.7345 12.7366 42.7278 12.7174C42.5568 12.8838 42.3747 13.0086 42.1803 13.0908C41.9862 13.1735 41.7795 13.2153 41.5591 13.2153C41.1704 13.2153 40.8637 13.1099 40.6398 12.8992C40.4164 12.6881 40.3047 12.4219 40.3047 12.0991C40.3047 11.8866 40.3558 11.696 40.458 11.5283C40.5594 11.362 40.7015 11.2341 40.8851 11.1451C41.0687 11.0562 41.3345 10.9779 41.6796 10.9117C42.1467 10.8246 42.4698 10.7428 42.6493 10.6672V10.5672C42.6493 10.3751 42.6018 10.2386 42.5075 10.1573C42.4125 10.0754 42.2343 10.0346 41.9716 10.0346C41.7929 10.0346 41.6547 10.0693 41.5556 10.1393C41.4557 10.2089 41.3753 10.332 41.3134 10.5072L41.3134 10.5072Z" fill="black"/>
<path d="M48.0446 13.1295H47.0462V11.2033C47.0462 10.7966 47.0251 10.5324 46.9822 10.4125C46.9398 10.2934 46.8697 10.2002 46.7732 10.1338C46.6781 10.0676 46.5636 10.0347 46.4285 10.0347C46.2552 10.0347 46.1006 10.082 45.9627 10.177C45.8253 10.2717 45.7308 10.3974 45.6794 10.5534C45.6291 10.7104 45.6042 10.9985 45.6042 11.4208V13.1295H44.6055V9.35579H45.5325V9.91011C45.862 9.48359 46.276 9.27026 46.7754 9.27026C46.9963 9.27026 47.1987 9.31026 47.3802 9.38918C47.5625 9.46843 47.6997 9.57031 47.7937 9.69273C47.8871 9.81642 47.9521 9.95646 47.9891 10.1128C48.0253 10.269 48.0446 10.493 48.0446 10.7841V13.1295L48.0446 13.1295Z" fill="black"/>
<path d="M49.0234 13.1294V7.91992H50.0218V10.6849L51.1903 9.35572H52.4193L51.1299 10.7344L52.5115 13.1294H51.4355L50.4872 11.4348L50.0218 11.9217V13.1294H49.0234Z" fill="black"/>
<path d="M53.1055 13.1295V9.35575H54.1034V13.1295H53.1055ZM53.1055 8.84393V7.91992H54.1034V8.84393H53.1055Z" fill="black"/>
<path d="M56.8868 11.4349L57.9099 11.3349C57.9715 11.679 58.0965 11.931 58.2845 12.0925C58.4733 12.2529 58.7275 12.3342 59.0464 12.3342C59.3859 12.3342 59.6401 12.2622 59.8122 12.1187C59.9845 11.9759 60.0708 11.8079 60.0708 11.6154C60.0708 11.4927 60.0338 11.3882 59.9614 11.3021C59.889 11.2153 59.7637 11.1402 59.5831 11.0762C59.4601 11.0331 59.1794 10.9571 58.7416 10.8485C58.1782 10.7089 57.7825 10.5369 57.5552 10.3334C57.2355 10.0462 57.0757 9.69677 57.0757 9.28419C57.0757 9.01909 57.1499 8.77128 57.3002 8.5399C57.4509 8.3087 57.6672 8.1327 57.9507 8.01168C58.2337 7.89125 58.5754 7.83081 58.9763 7.83081C59.6296 7.83081 60.1219 7.97443 60.4519 8.26097C60.7816 8.54773 60.9559 8.93017 60.9726 9.40903L59.921 9.45517C59.8761 9.18736 59.7788 8.99504 59.6303 8.87757C59.4834 8.76038 59.2613 8.70153 58.9655 8.70153C58.6599 8.70153 58.4208 8.76489 58.248 8.88995C58.1358 8.97085 58.0806 9.07851 58.0806 9.21335C58.0806 9.33679 58.1329 9.44195 58.2367 9.52997C58.3702 9.64128 58.6923 9.75706 59.2033 9.87796C59.7148 9.9988 60.0931 10.1241 60.3384 10.2531C60.5831 10.3824 60.7749 10.5584 60.9136 10.7824C61.0523 11.0061 61.1218 11.2834 61.1218 11.6124C61.1218 11.9115 61.0394 12.1908 60.8727 12.4517C60.7079 12.7118 60.4731 12.9056 60.1691 13.0327C59.8663 13.1589 59.4891 13.222 59.0361 13.222C58.3782 13.222 57.8725 13.0705 57.5192 12.766C57.1669 12.4614 56.9558 12.0169 56.8867 11.4349L56.8868 11.4349Z" fill="black"/>
<path d="M62.9586 11.1789C62.9586 11.603 63.0421 11.9169 63.2103 12.1187C63.379 12.3215 63.5832 12.4232 63.8251 12.4232C64.0572 12.4232 64.2506 12.3303 64.4044 12.1435C64.5579 11.9583 64.635 11.6523 64.635 11.2292C64.635 10.8331 64.5556 10.5393 64.3972 10.3472C64.2377 10.1556 64.0418 10.0596 63.8079 10.0596C63.5631 10.0596 63.361 10.1535 63.1998 10.3419C63.0387 10.5303 62.9586 10.8095 62.9586 11.1789ZM61.9707 9.35583H62.9016V9.91014C63.0225 9.72035 63.1856 9.5667 63.3921 9.44789C63.5978 9.32933 63.8274 9.27026 64.0772 9.27026C64.5164 9.27026 64.8877 9.44189 65.193 9.78566C65.4986 10.1291 65.6511 10.6077 65.6511 11.2215C65.6511 11.852 65.4978 12.3414 65.1889 12.6912C64.8815 13.0407 64.5089 13.2153 64.0705 13.2153C63.8618 13.2153 63.672 13.1735 63.5027 13.0908C63.334 13.0085 63.1561 12.8664 62.9686 12.6641V14.5658H61.9707V9.35572V9.35583Z" fill="black"/>
<path d="M67.6556 8.89345L68.1459 7.83081H69.2644L68.2881 8.89345H67.6556ZM67.2363 11.243C67.2363 11.6168 67.3256 11.904 67.5028 12.1027C67.6803 12.3019 67.8996 12.4015 68.1602 12.4015C68.4209 12.4015 68.6381 12.3019 68.8148 12.1027C68.9915 11.904 69.0798 11.6146 69.0798 11.2358C69.0798 10.8664 68.9915 10.5819 68.8148 10.3827C68.6381 10.1836 68.4208 10.0844 68.1602 10.0844C67.8996 10.0844 67.6802 10.1836 67.5028 10.3827C67.3256 10.5819 67.2363 10.8687 67.2363 11.243ZM66.2129 11.1896C66.2129 10.858 66.2946 10.537 66.4582 10.2263C66.6215 9.91616 66.8518 9.67886 67.1518 9.51564C67.4512 9.35206 67.7873 9.27029 68.1566 9.27029C68.7272 9.27029 69.1946 9.45567 69.5593 9.82688C69.9242 10.1974 70.1068 10.6659 70.1068 11.2322C70.1068 11.8031 69.9218 12.277 69.5534 12.6518C69.1846 13.0274 68.7221 13.2153 68.163 13.2153C67.8174 13.2153 67.4869 13.1367 67.1736 12.9806C66.8587 12.8242 66.6215 12.5953 66.4582 12.293C66.2946 11.9915 66.2129 11.6235 66.2129 11.1896Z" fill="black"/>
<path d="M70.8885 10.5717V7.91992H71.8864V9.72165L72.374 9.30932V9.98458L71.8864 10.3973V13.1294H70.8885V11.2464L70.4023 11.6585V10.9833L70.8885 10.5717Z" fill="black"/>
<path d="M73.7067 11.1611C73.7067 11.5637 73.7627 11.8554 73.8734 12.0351C74.0352 12.296 74.2596 12.4262 74.5485 12.4262C74.7786 12.4262 74.9735 12.3288 75.1353 12.1333C75.2953 11.9376 75.3767 11.6455 75.3767 11.257C75.3767 10.8231 75.2981 10.5111 75.142 10.3204C74.9851 10.1298 74.7852 10.0346 74.5416 10.0346C74.3045 10.0346 74.1058 10.1286 73.9468 10.3172C73.7864 10.5054 73.7067 10.7868 73.7067 11.1611ZM76.3705 13.1294H75.4432V12.5759C75.2894 12.7911 75.1081 12.9517 74.8985 13.0574C74.689 13.1628 74.4771 13.2152 74.2643 13.2152C73.8313 13.2152 73.4597 13.0406 73.1503 12.6911C72.8415 12.3412 72.6875 11.8545 72.6875 11.2291C72.6875 10.5893 72.8377 10.1029 73.1382 9.76945C73.4392 9.43666 73.8187 9.27023 74.2786 9.27023C74.6996 9.27023 75.0647 9.44561 75.3729 9.79656V7.91992H76.3705V13.1295L76.3705 13.1294Z" fill="black"/>
<path d="M76.9531 13.1294V12.3515L78.3671 10.7276C78.5995 10.4617 78.7711 10.2737 78.8825 10.1626C78.7662 10.1697 78.6133 10.1741 78.4238 10.1769L77.0913 10.1835V9.35571H80.2112V10.0626L78.7687 11.7265L78.2605 12.2773C78.5379 12.2608 78.7094 12.2519 78.7759 12.2519H80.3208V13.1294H76.9531Z" fill="black"/>
<path d="M80.9922 13.1295V9.35575H81.9901V13.1295H80.9922ZM80.9922 8.84393V7.91992H81.9901V8.84393H80.9922Z" fill="black"/>
<path d="M85.255 10.9193C85.248 10.6302 85.1738 10.4103 85.0316 10.26C84.8888 10.1097 84.7154 10.0346 84.5128 10.0346C84.2948 10.0346 84.1145 10.1139 83.973 10.2724C83.8302 10.4316 83.7612 10.6467 83.7632 10.9193H85.255ZM85.198 11.9283L86.1928 12.0954C86.0654 12.461 85.8633 12.7383 85.5873 12.929C85.311 13.1202 84.9666 13.2153 84.5521 13.2153C83.8957 13.2153 83.4104 13.0015 83.0951 12.5726C82.8465 12.2289 82.7227 11.795 82.7227 11.2713C82.7227 10.6458 82.8852 10.156 83.2126 9.80173C83.5398 9.44735 83.9532 9.27026 84.4525 9.27026C85.0143 9.27026 85.4563 9.45565 85.7806 9.82685C86.1057 10.1974 86.2611 10.7659 86.2468 11.5301H83.745C83.7517 11.827 83.8326 12.0573 83.9869 12.2221C84.1405 12.3867 84.3326 12.4694 84.5624 12.4694C84.7183 12.4694 84.8498 12.4262 84.9569 12.341C85.0635 12.2551 85.1443 12.1177 85.198 11.9283H85.198Z" fill="black"/>
<path d="M87.0605 13.1294V7.91992H88.0585V13.1294H87.0605Z" fill="black"/>
<path d="M92.3707 10.4712L91.3862 10.6489C91.3536 10.4524 91.2786 10.3043 91.1617 10.2051C91.0436 10.1055 90.8918 10.0557 90.7054 10.0557C90.456 10.0557 90.2577 10.1416 90.1099 10.3132C89.9614 10.4853 89.8877 10.7725 89.8877 11.1752C89.8877 11.6233 89.9632 11.9394 90.1129 12.1239C90.2632 12.3089 90.4653 12.4013 90.7195 12.4013C90.9085 12.4013 91.0634 12.3479 91.1848 12.2395C91.3058 12.1319 91.3905 11.9465 91.4398 11.6833L92.4206 11.8505C92.3189 12.3004 92.1231 12.641 91.834 12.8708C91.5457 13.1006 91.1584 13.2153 90.6731 13.2153C90.1209 13.2153 89.6805 13.041 89.3523 12.6929C89.0249 12.344 88.8613 11.8626 88.8613 11.2464C88.8613 10.6236 89.0254 10.1379 89.3546 9.79083C89.6836 9.44359 90.1288 9.27026 90.6902 9.27026C91.1502 9.27026 91.5153 9.36937 91.7865 9.56717C92.0575 9.76501 92.2526 10.0664 92.3707 10.4713V10.4712Z" fill="black"/>
<path d="M92.7266 13.1294V12.3515L94.14 10.7276C94.3724 10.4617 94.5442 10.2737 94.6557 10.1626C94.5388 10.1697 94.3865 10.1741 94.1968 10.1769L92.8652 10.1835V9.35571H95.9838V10.0626L94.5416 11.7265L94.0339 12.2773C94.3105 12.2608 94.4826 12.2519 94.5485 12.2519H96.0937V13.1294H92.7266H92.7266Z" fill="black"/>
<path d="M99.0072 10.9193C98.9997 10.6302 98.926 10.4103 98.7832 10.26C98.6409 10.1097 98.4684 10.0346 98.2645 10.0346C98.047 10.0346 97.8672 10.1139 97.7247 10.2724C97.5824 10.4316 97.5131 10.6467 97.5151 10.9193H99.0072ZM98.9507 11.9283L99.9455 12.0954C99.8171 12.461 99.6162 12.7383 99.34 12.929C99.0639 13.1202 98.7188 13.2153 98.3038 13.2153C97.6482 13.2153 97.1621 13.0015 96.847 12.5726C96.5987 12.2289 96.4746 11.795 96.4746 11.2713C96.4746 10.6458 96.6377 10.156 96.9648 9.80173C97.2917 9.44735 97.7049 9.27026 98.2047 9.27026C98.7655 9.27026 99.2088 9.45565 99.5336 9.82685C99.858 10.1974 100.013 10.7659 99.9987 11.5301H97.498C97.5041 11.827 97.5848 12.0573 97.7391 12.2221C97.8932 12.3867 98.0851 12.4694 98.3144 12.4694C98.4707 12.4694 98.6027 12.4262 98.7091 12.341C98.8151 12.2551 98.8963 12.1177 98.9507 11.9283H98.9507Z" fill="black"/>
<path d="M7.86328 11.4624L8.91155 11.3642C8.97729 11.6922 9.07538 11.9541 9.27211 12.1181C9.46858 12.2821 9.73079 12.3475 10.0584 12.3475C10.3859 12.3475 10.648 12.2821 10.8119 12.1509C10.9755 11.987 11.0741 11.8229 11.0741 11.6265C11.0741 11.4954 11.0409 11.397 10.9755 11.3317C10.8774 11.2331 10.7461 11.1677 10.5826 11.1018C10.4513 11.0365 10.1894 10.9708 9.73075 10.8726C9.17376 10.7088 8.78057 10.5449 8.55125 10.3483C8.22355 10.0531 8.05975 9.72565 8.05975 9.33213C8.05975 9.07003 8.12549 8.80789 8.28933 8.57846C8.45294 8.34899 8.64963 8.18505 8.94444 8.05385C9.23925 7.92302 9.56688 7.85742 9.95982 7.85742C10.6152 7.85742 11.1067 8.02125 11.467 8.28358C11.7947 8.5785 11.9585 8.97162 11.9913 9.46337L10.9102 9.49622C10.8773 9.2339 10.779 9.03721 10.6151 8.90616C10.4841 8.80793 10.2548 8.74233 9.95979 8.74233C9.66497 8.74233 9.40305 8.80793 9.23922 8.93901C9.14084 9.00465 9.07535 9.10285 9.07535 9.26668C9.07535 9.36517 9.14084 9.49626 9.23922 9.56164C9.37016 9.69269 9.69786 9.79118 10.1894 9.92216C10.7135 10.0532 11.1067 10.1517 11.336 10.2827C11.5979 10.3809 11.7618 10.5778 11.9258 10.8073C12.0568 11.0366 12.122 11.2989 12.122 11.6266C12.122 11.9217 12.0568 12.2164 11.8601 12.4786C11.6965 12.741 11.4669 12.9375 11.1721 13.0686C10.8773 13.1669 10.4842 13.2327 10.0255 13.2327C9.37016 13.2327 8.87866 13.1015 8.5184 12.7738C8.15806 12.4786 7.92877 12.0199 7.86328 11.4624V11.4624Z" fill="black"/>
<path d="M15.4321 11.2331V10.3484H17.7253V12.4458C17.496 12.6428 17.1686 12.8392 16.7425 13.0032C16.3494 13.1669 15.9236 13.2327 15.4976 13.2327C14.9408 13.2327 14.4493 13.1344 14.0561 12.9045C13.6629 12.6752 13.3353 12.3476 13.1388 11.9217C12.9421 11.4954 12.8438 11.0365 12.8438 10.512C12.8438 10.0206 12.9421 9.52886 13.1715 9.10281C13.4008 8.67666 13.7284 8.34903 14.1871 8.11949C14.5148 7.95566 14.9408 7.85742 15.4321 7.85742C16.0874 7.85742 16.5787 7.9884 16.939 8.28358C17.2995 8.54561 17.5617 8.93898 17.6598 9.39773L16.6115 9.59445C16.5134 9.33217 16.3822 9.1357 16.1855 9.00465C15.989 8.84056 15.7268 8.77493 15.432 8.77493C14.9734 8.77493 14.6131 8.90616 14.3183 9.20108C14.0561 9.49626 13.9248 9.92212 13.9248 10.4796C13.9248 11.1019 14.0561 11.5612 14.3183 11.8889C14.6131 12.1835 14.9734 12.3476 15.432 12.3476C15.6285 12.3476 15.8578 12.2822 16.0874 12.2164C16.3167 12.1182 16.4805 12.02 16.6441 11.8889V11.2332H15.432L15.4321 11.2331Z" fill="black"/>
<path d="M20.0185 0.0567957C20.3133 0.0897934 21.0016 -0.0742922 21.4602 0.482949C21.755 0.941919 21.755 1.30244 21.0016 1.69559C19.9533 2.21995 0.427291 7.46411 4.78468 15.2975C6.55377 18.4765 14.9079 17.8212 20.6413 14.8059C26.9316 11.5612 29.2248 7.33288 28.3401 5.89081C27.3245 4.2523 21.9846 6.34981 21.9846 6.34981C21.9846 6.34981 21.2638 6.61188 20.8378 6.02204C20.4446 5.53032 21.2964 5.10417 21.2964 5.10417C21.2964 5.10417 28.0127 1.85943 30.3057 4.41609C32.6321 7.038 27.2264 14.5765 20.5756 17.559C12.8113 21.033 5.27599 20.2791 2.06548 18.0506C-0.620907 16.0186 -0.981209 12.5441 2.75344 8.48007C7.99523 2.67895 19.1996 -0.00865798 20.0186 0.0568318L20.0185 0.0567957Z" fill="#21E200"/>
<path d="M19.7577 10.8901V12.2764H20.7258C21.1033 12.2764 21.3423 12.2657 21.444 12.2445C21.5994 12.2162 21.7263 12.1471 21.8231 12.0379C21.9215 11.9286 21.9708 11.7812 21.9708 11.5972C21.9708 11.4419 21.933 11.31 21.8578 11.2011C21.782 11.0923 21.6731 11.0136 21.5303 10.9644C21.3875 10.9149 21.0789 10.89 20.603 10.89H19.7577V10.8901ZM19.7577 8.82792V10.0266H20.4438C20.8516 10.0266 21.1048 10.0209 21.2039 10.0089C21.3827 9.98774 21.5236 9.92605 21.6258 9.82341C21.7286 9.72095 21.7797 9.58585 21.7797 9.41834C21.7797 9.25768 21.7353 9.12771 21.6466 9.02771C21.5583 8.92698 21.4274 8.86655 21.253 8.84481C21.1495 8.83351 20.8516 8.82788 20.3583 8.82788H19.7577V8.82792ZM18.7109 7.9646H20.783C21.1934 7.9646 21.498 7.98168 21.7001 8.01576C21.9014 8.05027 22.0825 8.12128 22.2411 8.23017C22.4001 8.33797 22.5334 8.48271 22.6395 8.66286C22.7458 8.84337 22.7984 9.04608 22.7984 9.26974C22.7984 9.51285 22.7324 9.73539 22.6017 9.93846C22.4705 10.1408 22.294 10.2928 22.0699 10.3942C22.3852 10.4862 22.6284 10.6429 22.7984 10.8654C22.9682 11.0871 23.0529 11.3477 23.0529 11.6463C23.0529 11.883 22.998 12.1127 22.8873 12.3356C22.7784 12.5577 22.6284 12.7356 22.4386 12.8692C22.2488 13.0019 22.0154 13.0842 21.7373 13.1157C21.5627 13.1337 21.1426 13.1453 20.4759 13.1497H18.7109V7.9646Z" fill="black"/>
</g>
<defs>
<clipPath id="clip0_870_90958">
<rect width="100" height="19.8888" fill="white" transform="translate(0 0.0556641)"/>
</clipPath>
</defs>
</svg>
