<svg width="100" height="22" viewBox="0 0 100 22" fill="none" xmlns="http://www.w3.org/2000/svg">
<g clip-path="url(#clip0_870_82730)">
<path fill-rule="evenodd" clip-rule="evenodd" d="M0 0.59668H100V21.4031H0V0.59668Z" fill="white"/>
<mask id="mask0_870_82730" style="mask-type:luminance" maskUnits="userSpaceOnUse" x="0" y="0" width="100" height="22">
<path d="M0 21.4031H100V0.59668H0V21.4031Z" fill="white"/>
</mask>
<g mask="url(#mask0_870_82730)">
<mask id="mask1_870_82730" style="mask-type:luminance" maskUnits="userSpaceOnUse" x="0" y="0" width="100" height="22">
<path d="M0 0.758301V21.403H99.9163V0.758301H0Z" fill="white"/>
</mask>
<g mask="url(#mask1_870_82730)">
<path d="M17.4164 5.31418C17.4987 6.7391 17.1882 8.4561 16.6794 9.78969C16.6794 8.90507 16.5924 7.28179 16.0544 6.17951C15.6329 6.46945 14.5573 7.00601 13.0457 7.77434C13.2782 7.54242 14.2813 6.35371 14.5718 5.84614C13.5252 5.8608 11.7085 5.99131 10.1968 6.32457C11.1996 5.77376 13.1619 5.12114 14.7608 4.84589C14.0776 4.26601 12.7696 3.54108 11.7665 3.04792C12.5804 3.07694 15.6766 3.65715 16.7231 4.46884C17.4217 4.30295 18.3349 4.28147 18.3349 4.28147C18.1219 4.71877 17.8272 5.04352 17.4164 5.31414V5.31418ZM10.8071 17.2341C10.8215 17.5337 10.9398 17.8397 10.9398 17.8397C10.9398 17.8397 10.703 17.8698 10.0331 17.8864C9.08951 18.4298 7.94001 18.6367 7.94001 18.6367C7.94001 18.6367 8.67054 18.1581 9.04121 17.7775C8.45256 17.6905 7.94001 17.4188 7.94001 17.4188C7.94001 17.4188 8.9281 17.3516 9.65163 17.1794C9.98954 16.832 10.6328 15.9397 10.6328 15.9397C10.6328 15.9397 10.6655 16.4403 10.7309 16.7772C11.5703 16.375 12.2678 15.853 12.2678 15.853C12.2678 15.853 11.6498 16.6111 10.8071 17.234V17.2341ZM6.92625 11.8409C6.47934 10.9056 6.18503 9.67719 6.18503 9.67719C6.18503 9.67719 5.09485 10.351 3.44876 11.9494C4.40811 10.0467 5.5527 8.85073 5.5527 8.85073C5.5527 8.85073 5.12752 8.4266 3.56869 8.28526C5.07301 7.75257 6.73014 7.92651 6.73014 7.92651C6.73014 7.92651 7.46046 7.30681 8.68148 6.95857C8.68148 6.95857 8.3653 7.38263 8.1255 8.05702C9.85896 8.24169 11.4721 9.26378 11.4721 9.26378C11.4721 9.26378 8.79037 8.83983 7.65661 9.19854C7.25338 10.1664 7.02449 11.221 6.92629 11.8409H6.92625ZM4.86581 18.2346C4.10283 17.647 3.65581 16.5273 3.65581 16.5273C3.01278 16.2774 2.09701 15.6681 2.09701 15.6681C2.09701 15.6681 2.6966 15.342 3.21976 15.2443C3.02369 14.1461 3.28529 12.6456 3.28529 12.6456C3.28529 12.6456 3.47053 14.0045 4.1247 15.038C4.94224 14.8744 5.61819 14.809 5.61819 14.809C5.61819 14.809 5.18207 15.4183 4.95318 16.0921C5.45446 16.5926 6.39208 17.1141 6.74101 17.2448C5.96694 17.2012 5.09485 17.06 4.76762 16.9297C4.75693 17.3971 4.77856 17.8864 4.86581 18.2346ZM0 0.758301V21.2755H20.5705V0.758301H0Z" fill="#00D84C"/>
<path d="M28.9156 20.3632C28.2827 20.3632 27.6853 20.3632 27.6853 20.3632C27.6853 20.3632 27.6494 18.6256 27.6494 17.4574C27.6494 16.2894 27.7212 14.7081 27.7212 14.7081C28.2251 14.7081 30.0949 14.4517 30.0949 15.7192C30.0949 16.987 28.527 16.7735 28.527 16.7735L28.153 17.8565C28.153 17.8565 28.5702 17.8565 28.9012 17.8565C29.2319 17.8565 30.4401 18.0701 30.4401 19.0955C30.4401 20.1211 29.5485 20.3632 28.9156 20.3632L28.9156 20.3632ZM30.3971 17.215C31.3033 16.9873 31.8644 16.2607 31.8644 15.5342C31.8644 14.8078 31.1307 13.8677 29.4909 13.8677C27.8511 13.8677 25.8945 13.8677 25.8945 13.8677C25.8945 13.8677 25.9664 15.8619 25.9664 17.4999C25.9664 19.1382 25.8945 21.2178 25.8945 21.2178C25.8945 21.2178 28.0522 21.275 29.4044 21.275C30.7567 21.275 32.1954 20.6056 32.1954 19.2096C32.1954 17.8133 30.7279 17.3292 30.3971 17.215Z" fill="black"/>
<path d="M81.9918 20.3632C81.3589 20.3632 80.7617 20.3632 80.7617 20.3632C80.7617 20.3632 80.7257 18.6256 80.7257 17.4574C80.7257 16.2894 80.7974 14.7081 80.7974 14.7081C81.3012 14.7081 83.1711 14.4517 83.1711 15.7192C83.1711 16.987 81.6034 16.7735 81.6034 16.7735L81.2292 17.8565C81.2292 17.8565 81.6462 17.8565 81.9771 17.8565C82.3079 17.8565 83.5163 18.0701 83.5163 19.0955C83.5163 20.1211 82.6246 20.3632 81.9918 20.3632L81.9918 20.3632ZM83.4731 17.215C84.3795 16.9873 84.9406 16.2607 84.9406 15.5342C84.9406 14.8078 84.2068 13.8677 82.567 13.8677C80.9273 13.8677 78.9707 13.8677 78.9707 13.8677C78.9707 13.8677 79.0425 15.8619 79.0425 17.4999C79.0425 19.1382 78.9707 21.2178 78.9707 21.2178C78.9707 21.2178 81.1284 21.275 82.4804 21.275C83.8329 21.275 85.2716 20.6056 85.2716 19.2096C85.2716 17.8133 83.804 17.3292 83.4731 17.215Z" fill="black"/>
<path d="M33.9941 13.8677C33.9941 13.8677 34.0939 16.2322 34.0939 17.0869C34.0939 17.9419 33.9941 21.2751 33.9941 21.2751H35.575C35.575 21.2751 35.4896 19.0668 35.4896 18.0984C35.4896 17.1298 35.4896 15.8763 35.4896 15.8763C35.4896 15.8763 35.6604 16.3602 36.287 17.3575C36.9137 18.3546 38.7079 21.275 38.7079 21.275H40.0038C40.0038 21.275 39.8756 19.5588 39.8756 17.5251C39.8756 15.4917 40.0038 13.8677 40.0038 13.8677H38.3946L38.5655 18.4117L35.7883 13.8677H33.9941Z" fill="black"/>
<path d="M44.0195 17.2993V14.7896C44.0195 14.7896 46.5651 14.5137 46.5651 15.9648C46.5651 17.6041 44.0195 17.2993 44.0195 17.2993V17.2993ZM45.1105 13.8677C42.4943 13.8677 42.2483 13.8677 42.2305 13.8677C42.2305 13.8677 42.3178 15.8411 42.3178 17.5714C42.3178 19.3016 42.2305 21.2751 42.2305 21.2751H44.1358C44.1358 21.2751 44.0051 19.7945 44.0051 18.2423C44.7177 18.2423 48.2814 18.5762 48.2814 15.9936C48.2814 15.4714 48.1504 13.8677 45.1104 13.8677L45.1105 13.8677Z" fill="black"/>
<path d="M54.166 17.2993V14.7896C54.166 14.7896 56.7113 14.5137 56.7113 15.9648C56.7113 17.6041 54.166 17.2993 54.166 17.2993V17.2993ZM55.2567 13.8677C52.6404 13.8677 52.3948 13.8677 52.377 13.8677C52.377 13.8677 52.464 15.8411 52.464 17.5714C52.464 19.3016 52.377 21.2751 52.377 21.2751H54.2823C54.2823 21.2751 54.1516 19.7945 54.1516 18.2423C54.864 18.2423 58.4277 18.5762 58.4277 15.9936C58.4277 15.4714 58.2969 13.8677 55.2567 13.8677L55.2567 13.8677Z" fill="black"/>
<path d="M60.9359 18.5326L61.8959 16.0661L62.8707 18.5326H60.9359ZM62.7251 13.8677H61.4017C61.4017 13.8677 60.3408 16.7492 58.3984 21.275C58.6522 21.275 60.0485 21.275 60.0485 21.275L60.5724 19.519H63.2199L63.8451 21.275H65.7507L62.7251 13.8677H62.7251Z" fill="black"/>
<path d="M88.6702 18.5326L89.6303 16.0661L90.6049 18.5326H88.6702ZM90.4595 13.8677H89.1356C89.1356 13.8677 88.0752 16.7492 86.1328 21.275C86.3866 21.275 87.7829 21.275 87.7829 21.275L88.3068 19.519H90.954L91.5794 21.275H93.485L90.4594 13.8677H90.4595Z" fill="black"/>
<path d="M66.9434 13.8677C66.9434 13.8677 67.0451 15.2247 67.0451 17.2412C67.0451 19.2578 66.9434 21.275 66.9434 21.275H68.8197C68.8197 21.275 68.7178 19.3085 68.7178 17.5714C68.7178 15.834 68.8197 14.804 68.8197 14.804C68.8197 14.804 71.2778 14.4554 71.2778 15.9936C71.2778 17.5315 69.358 17.3139 69.358 17.3139L71.5105 21.2751H73.5468L71.4668 17.9522C71.4668 17.9522 73.0087 17.6476 73.0087 15.9648C73.0087 14.2817 71.016 13.8677 69.9978 13.8677C68.9799 13.8677 66.9434 13.8677 66.9434 13.8677L66.9434 13.8677Z" fill="black"/>
<path d="M74.8574 13.8677C74.8574 13.8677 75.0028 15.0506 75.0028 17.3139C75.0028 19.5771 74.8574 21.275 74.8574 21.275H76.7774C76.7774 21.275 76.6464 19.5046 76.6464 17.2848C76.6464 15.065 76.7774 13.8677 76.7774 13.8677H74.8574Z" fill="black"/>
<path d="M99.3284 13.9297C99.3284 13.9297 98.3327 13.627 97.2639 13.627C96.1953 13.627 94.4102 14.0631 94.4102 15.7707C94.4102 17.1486 95.8792 17.7421 96.4332 18.0058C96.9505 18.2521 98.2835 18.6266 98.3155 19.4112C98.3424 20.0718 97.6708 20.2549 96.9712 20.2281C96.2998 20.2025 95.2239 19.8041 94.5196 19.3804C94.5196 19.9738 94.5196 21.0398 94.5196 21.0398C94.5196 21.0398 95.7945 21.403 96.8691 21.403C97.9439 21.403 99.9157 21.0168 99.9157 19.1177C99.9157 17.7584 98.6867 17.1788 97.5553 16.7157C96.5184 16.2913 96.0132 15.9645 96.0132 15.4438C96.0132 14.923 96.7173 14.8382 97.0573 14.8382C97.3975 14.8382 98.0412 14.8382 99.3285 15.5286C99.3285 14.923 99.3285 13.9297 99.3285 13.9297L99.3284 13.9297Z" fill="black"/>
</g>
</g>
</g>
<defs>
<clipPath id="clip0_870_82730">
<rect width="100" height="20.8065" fill="white" transform="translate(0 0.59668)"/>
</clipPath>
</defs>
</svg>
