<svg width="82" height="56" viewBox="0 0 82 56" fill="none" xmlns="http://www.w3.org/2000/svg">
<g clip-path="url(#clip0_870_90874)">
<path d="M0.627 51.3358V47.1677L3.40837 47.1795C6.15438 47.1952 6.18973 47.1952 6.4765 47.2816C6.8301 47.3916 7.03042 47.4899 7.29365 47.6862C7.53722 47.8709 7.83183 48.2716 7.93397 48.5584C8.08721 48.9944 8.07147 49.6073 7.8947 50.0158C7.71399 50.4362 7.25829 50.8723 6.86934 50.9862C6.78686 51.0137 6.71615 51.0451 6.71615 51.0609C6.71615 51.0765 6.7947 51.1119 6.89292 51.1355C7.44292 51.273 7.98895 51.6933 8.22467 52.1608C8.55076 52.813 8.49574 53.7322 8.09501 54.3529C7.74141 54.895 7.31719 55.1897 6.68079 55.3233C5.97363 55.4726 5.36474 55.5001 2.96444 55.5001H0.626953V51.3359L0.627 51.3358ZM5.21155 53.634C5.59654 53.524 5.80867 53.2373 5.81259 52.8326C5.81259 52.6754 5.78513 52.5772 5.71437 52.4555C5.51401 52.1058 5.28226 52.0469 4.14299 52.039L3.27871 52.0312L3.26694 52.8326C3.26302 53.2726 3.26302 53.6498 3.27479 53.6733C3.29838 53.7362 4.96014 53.7048 5.2115 53.634L5.21155 53.634ZM5.08587 50.3144C5.32158 50.1966 5.44334 50.0276 5.47865 49.7684C5.52975 49.3991 5.36866 49.0887 5.05836 48.9552C4.91689 48.8963 4.75188 48.8805 4.0762 48.8688L3.2591 48.853V49.6466V50.4362L4.0762 50.4245C4.85407 50.4126 4.89727 50.4087 5.08587 50.3144Z" fill="#45916B"/>
<path d="M23.0195 55.4489C23.0195 55.4214 23.1138 55.1504 23.2317 54.8518C23.3495 54.5493 23.6206 53.8343 23.8406 53.2608C24.0567 52.6872 24.6656 51.0883 25.1959 49.7055L26.1545 47.1912L27.5844 47.1795L29.0144 47.1716L29.3641 48.083C29.7098 49.0023 30.5544 51.214 30.8372 51.9448C30.9197 52.1608 31.1319 52.7187 31.3086 53.1822C31.4854 53.6458 31.7525 54.345 31.9018 54.734C32.0511 55.1268 32.1729 55.4568 32.1729 55.4725C32.1729 55.4882 31.5601 55.4961 30.8097 55.4921L29.4505 55.4804L29.2462 54.8125L29.0458 54.1447L27.553 54.1329L26.0602 54.1251L25.8598 54.8007L25.6634 55.4804L24.3395 55.4921C23.2787 55.5 23.0195 55.4921 23.0195 55.4489ZM28.4801 52.2983C28.4801 52.2787 27.7809 50.0237 27.6276 49.5562C27.5962 49.4501 27.5608 49.3755 27.553 49.3833C27.5373 49.3991 27.1326 50.6837 26.8066 51.7562C26.7319 51.9958 26.6612 52.2197 26.6494 52.2551C26.6258 52.3101 26.7241 52.3179 27.553 52.3179C28.0637 52.3179 28.4801 52.3101 28.4801 52.2983Z" fill="#45916B"/>
<path d="M48.1621 51.3358V47.1716H49.3917H50.6174L51.6388 48.6526C52.2005 49.4659 52.9038 50.4833 53.1984 50.9115C53.493 51.3436 53.7445 51.6933 53.7602 51.6933C53.772 51.6894 53.7798 50.7033 53.7798 49.4934C53.7798 48.2873 53.7877 47.2699 53.8034 47.2345C53.823 47.1795 53.9566 47.1716 55.0408 47.1716H56.2547V51.3358V55.5H55.0251H53.7955L52.5816 53.7439C51.9099 52.7775 51.1988 51.7522 51.0024 51.4615L50.637 50.9311V53.2136V55.5H49.3996H48.1622V51.3358H48.1621Z" fill="#45916B"/>
<path d="M72.4785 51.3358V47.1716H73.7946H75.1106L75.1185 48.7273L75.1302 50.283L76.4816 48.7273L77.8369 47.1716H79.5615H81.2901L81.0387 47.4388C80.9012 47.5841 80.2176 48.2834 79.5223 48.9984C78.823 49.7094 78.2534 50.3066 78.2534 50.3262C78.2534 50.3458 78.4105 50.6091 78.603 50.9155C78.937 51.4498 81.349 55.3507 81.4119 55.4529C81.4355 55.4882 81.1055 55.5 79.8287 55.5H78.218L77.9862 55.0404C77.7387 54.5572 76.5484 52.2591 76.4934 52.1648C76.4777 52.1372 76.4502 52.1137 76.4384 52.1216C76.4266 52.1255 76.1202 52.4241 75.7627 52.7855L75.1106 53.4415V54.4708V55.5001H73.7946H72.4785V51.3359V51.3358Z" fill="#45916B"/>
<path d="M41.3465 42.8621C35.0727 42.6971 29.2547 39.7626 25.2947 34.7577C22.1913 30.841 20.5727 25.7811 20.8123 20.7448C20.9577 17.7277 21.6256 15.0799 22.918 12.4242C25.0119 8.12648 28.4375 4.70479 32.7235 2.63048C35.277 1.39304 37.7952 0.733053 40.6905 0.540535C43.6565 0.344141 46.9014 0.866629 49.7339 1.99408C53.7605 3.60087 57.143 6.33899 59.5315 9.92961C61.0086 12.1453 61.9554 14.3335 62.5564 16.9026C63.1889 19.6055 63.2635 22.6265 62.7765 25.4078C62.03 29.6349 59.9676 33.5948 56.9309 36.6276C54.5738 38.9847 51.9378 40.6424 48.8107 41.7267C46.4693 42.536 43.8922 42.9288 41.3466 42.862L41.3465 42.8621ZM42.8787 38.6469C46.5007 38.4308 49.7535 37.1816 52.5623 34.9305C55.548 32.5342 57.6655 29.1439 58.4944 25.4275C59.0522 22.9133 59.0404 20.2655 58.4551 17.767C57.7401 14.7106 56.0547 11.7328 53.7959 9.5329C51.2817 7.0894 48.1467 5.50232 44.6779 4.92477C42.8708 4.62226 40.8476 4.63408 38.9895 4.96017C37.8541 5.16053 36.3849 5.58868 35.3753 6.02084C30.17 8.23651 26.3947 12.8564 25.3026 18.3602C25.0591 19.5898 24.9648 20.7016 24.9962 22.0687C25.0198 23.1215 25.0787 23.7698 25.2437 24.6811C25.9194 28.4682 27.864 31.9134 30.7396 34.4395C34.1142 37.4055 38.4551 38.9101 42.8787 38.6469Z" fill="#45916B"/>
<path d="M36.6915 34.8912C36.2673 34.7262 35.9098 34.6437 35.4187 34.5926L34.9552 34.5415L35.2263 34.3451C36.7505 33.2294 37.8623 31.9841 38.483 30.7034C38.7934 30.0513 38.7659 29.6309 38.3808 29.2813C38.0823 29.0141 37.5205 28.806 36.7741 28.6842C36.2791 28.6056 35.3245 28.6056 34.8256 28.6881C34.1734 28.7902 33.4035 29.0888 32.9792 29.3952C32.9006 29.4502 32.9006 29.4424 32.9006 28.7549C32.8967 28.1185 32.8889 28.0399 32.8063 27.8238C32.4646 26.9517 31.8242 26.6178 30.5082 26.6217C29.9268 26.6217 29.9268 26.6217 29.9503 26.5353C30.1153 25.9578 30.1389 25.2546 30.0132 24.7557C29.8207 24.0053 29.369 23.3297 28.6304 22.6933L28.3672 22.4654L28.6304 22.4457C30.2528 22.3082 30.8736 22.1235 31.3489 21.6404C31.6514 21.33 31.7535 21.0747 31.7496 20.615C31.7496 20.0847 31.6081 19.6172 31.2271 18.8904C30.8618 18.1951 30.3982 17.5076 29.7618 16.7258L29.4907 16.3919L29.6636 16.384C30.4532 16.3408 30.8657 16.0147 31.0582 15.2723C31.1564 14.903 31.1446 14.0584 31.0346 13.4456C30.9875 13.1862 30.9403 12.9152 30.9285 12.8406L30.9049 12.7109L31.0896 12.8524C31.4 13.0881 31.8203 13.3159 32.1739 13.4416C32.4685 13.5438 32.5589 13.5595 32.9596 13.5595C33.3603 13.5595 33.4467 13.5438 33.7492 13.4416C33.9378 13.3748 34.2206 13.2334 34.3778 13.1274C34.7353 12.8916 35.2617 12.3731 35.5681 11.9527C35.6977 11.7799 35.8117 11.6227 35.8274 11.607C35.8431 11.5913 35.9531 11.7288 36.0749 11.9095C37.0963 13.4456 38.2552 14.408 39.0802 14.408C39.3434 14.408 39.5437 14.3334 39.7401 14.1606C40.2547 13.7049 40.3844 12.7306 40.1055 11.3517C40.0623 11.1277 40.0348 10.9353 40.0465 10.9235C40.0583 10.9078 40.1448 10.9274 40.2351 10.9667C40.514 11.0728 41.0444 11.1278 41.3429 11.0767C41.944 10.9785 42.4233 10.5935 42.7375 9.95712C42.8672 9.69389 42.9261 9.61534 42.9733 9.63103C43.0086 9.63887 43.1147 9.68212 43.2129 9.7214C43.3465 9.77245 43.4997 9.79211 43.8218 9.79211C44.2303 9.79211 44.2697 9.78427 44.525 9.66246C44.965 9.45425 45.4246 9.03391 45.7428 8.54682C45.8371 8.40535 45.8843 8.44071 45.8843 8.64504C45.8843 8.73537 45.9118 8.93181 45.9432 9.085C46.1593 10.0907 46.615 10.7428 47.3574 11.0963C47.656 11.2338 48.1785 11.3832 48.3789 11.3832C48.4456 11.3832 48.5124 11.3949 48.5243 11.4067C48.536 11.4185 48.4889 11.556 48.4181 11.7093C47.9821 12.6521 48.3042 13.2728 49.3532 13.5046C49.4789 13.536 49.5889 13.5714 49.6007 13.5871C49.6085 13.6067 49.4867 13.7953 49.3257 14.0113C48.7246 14.8206 48.2532 15.6967 48.0607 16.3645C47.9782 16.667 47.9625 16.7888 47.9743 17.0913C47.99 17.5234 48.0686 17.708 48.316 17.8848C48.4614 17.987 48.5243 18.0027 48.7914 18.0184C49.5731 18.0538 50.6535 17.5117 51.9106 16.4627C52.1228 16.282 52.3113 16.1366 52.327 16.1366C52.3427 16.1366 52.3427 16.2113 52.3231 16.3056C52.2602 16.6277 52.2366 17.4448 52.2838 17.7159C52.386 18.3051 52.606 18.6155 53.0891 18.8473C53.482 19.0398 53.9024 19.1105 54.8649 19.1537L55.517 19.1812L55.3323 19.417C54.472 20.5208 54.0713 21.7897 54.2677 22.7719C54.3423 23.1372 54.5152 23.6008 54.6684 23.8404C54.7233 23.9308 54.7548 24.0172 54.7352 24.0329C54.7194 24.0486 54.5269 24.1194 54.3109 24.1901C53.6038 24.4219 52.9084 24.7008 52.2681 25.0151C51.5256 25.3804 51.1563 25.6201 50.8342 25.9343C49.9345 26.8222 50.3903 27.6747 52.2327 28.5585C52.5431 28.7039 52.8141 28.8257 52.8338 28.8257C52.9477 28.8257 52.8456 28.9004 52.5431 29.0379C52.0559 29.2618 51.6749 29.525 51.3449 29.8746C50.9049 30.3343 50.6613 30.8607 50.6103 31.4499C50.5828 31.7839 50.626 31.7721 50.0839 31.5796C49.5889 31.4028 49.1763 31.3282 48.8425 31.3517C47.9232 31.4224 47.495 32.1335 47.495 33.591C47.495 33.9328 47.4832 34.0506 47.4478 34.0506C47.4203 34.0506 47.1572 33.9877 46.8665 33.9131C45.244 33.4928 43.9122 32.8956 42.6826 32.051C42.117 31.6621 41.6887 31.3007 41.0759 30.7036C40.3963 30.0436 40.133 29.9061 39.8502 30.0789C39.697 30.1732 39.6224 30.295 39.3395 30.9275C39.1313 31.3911 38.6285 32.2553 37.7092 33.7363C37.5285 34.031 37.2928 34.4317 37.1828 34.632C37.0767 34.8285 36.9785 34.9896 36.9667 34.9896C36.9549 34.9896 36.8331 34.9464 36.6917 34.8913L36.6915 34.8912Z" fill="#45916B"/>
<path d="M70.3969 34.9265C68.8059 34.8165 67.9102 34.7105 66.5274 34.4669C65.612 34.3058 64.1506 33.9798 64.1467 33.9405C64.1467 33.9248 63.9817 32.8366 63.7814 31.5166C63.581 30.2006 63.4238 29.1124 63.4278 29.1045C63.4357 29.0966 63.5692 29.1713 63.7263 29.2695C64.9403 30.0277 66.8692 30.5973 68.963 30.8134C69.7998 30.8999 71.1158 30.8723 71.7719 30.7545C73.5319 30.4441 74.4983 29.7213 74.7065 28.5703C74.899 27.4977 74.3883 26.4646 72.9976 25.1328C72.3454 24.5004 71.8309 24.076 69.9805 22.6343C67.9966 21.0904 67.2777 20.4815 66.4056 19.6133C65.2035 18.4151 64.5278 17.4605 64.1153 16.3723C63.8717 15.7359 63.7303 14.8441 63.7695 14.188C63.9267 11.6502 65.608 9.851 68.6487 8.96314C71.0097 8.27172 74.345 8.2246 77.8217 8.83349C78.5641 8.96314 79.4874 9.14389 79.5699 9.17925C79.6406 9.20671 79.6799 9.41497 79.9666 11.2692C80.1434 12.4006 80.2809 13.3356 80.2731 13.3434C80.2652 13.3512 80.1041 13.2884 79.9156 13.202C78.847 12.707 77.1224 12.3338 75.5353 12.2513C72.8679 12.1138 70.99 12.7462 70.3733 13.9955C69.8665 15.0209 70.1415 16.1601 71.1708 17.3229C71.8111 18.0458 72.585 18.6704 74.836 20.2811C77.0556 21.8682 77.7549 22.43 78.7252 23.4042C80.1434 24.8185 80.8466 25.997 81.1649 27.4898C81.2866 28.0438 81.2984 29.2537 81.1884 29.7684C80.9645 30.8291 80.5127 31.6737 79.7663 32.4201C78.1045 34.0936 75.2486 34.9696 71.5558 34.9461C71.0176 34.9422 70.495 34.9343 70.3969 34.9265L70.3969 34.9265Z" fill="#45916B"/>
<path d="M0.587937 21.7741V8.63331H6.09958C12.0512 8.63331 11.898 8.62938 12.8134 8.84549C15.3512 9.45045 17.1818 11.3636 17.72 13.9761C17.8025 14.3767 17.8143 14.53 17.8143 15.3117C17.8104 16.0778 17.7986 16.2507 17.7239 16.6081C17.4765 17.7435 16.9736 18.757 16.2272 19.6213C15.7833 20.1359 14.9898 20.7605 14.3455 21.1063C14.2315 21.1691 14.153 21.228 14.1687 21.2438C14.1883 21.2594 14.3258 21.2909 14.4751 21.3184C15.4494 21.4873 16.4826 21.9469 17.2172 22.5362C18.6393 23.6833 19.4957 25.4118 19.6411 27.4272C19.6764 27.9536 19.6529 28.6567 19.5782 29.1007C19.2953 30.841 18.5097 32.2867 17.2997 33.3042C16.2154 34.2156 14.9072 34.7341 13.328 34.8716C13.0137 34.8991 10.747 34.9149 6.72028 34.9149H0.587891V21.7741H0.587937ZM11.6781 31.1238C12.5423 30.9746 13.2298 30.5817 13.7483 29.9375C14.3219 29.2264 14.6126 28.3661 14.6126 27.3722C14.6126 25.8519 13.8701 24.5594 12.6681 23.9741C11.8706 23.5852 11.5209 23.5537 8.09135 23.5695L5.51824 23.5812L5.50642 27.384L5.49858 31.1829H8.42137C10.8335 31.1829 11.3992 31.1711 11.6781 31.1239L11.6781 31.1238ZM10.6056 19.4602C11.9098 19.2245 12.8526 18.2227 13.2258 16.6788C13.3319 16.2389 13.3201 15.2489 13.2062 14.8011C12.9076 13.6539 12.1533 12.8643 11.077 12.5618C10.6095 12.4322 9.87487 12.4008 7.61991 12.4125L5.51819 12.4243L5.50638 15.9717L5.49853 19.5152H7.90276C9.75699 19.5113 10.3777 19.4995 10.6056 19.4602Z" fill="#45916B"/>
<path d="M70.6719 7.61985C70.6719 7.60411 70.7504 7.40375 70.8447 7.17985C71.3711 5.92279 71.9211 4.59889 71.9408 4.53995C71.9643 4.47316 72.1058 4.46924 74.1879 4.46924C75.4096 4.46924 76.4074 4.47708 76.4074 4.48885C76.4074 4.49675 75.8221 5.21563 75.1071 6.0799L73.8107 7.65133H72.2393C71.379 7.65133 70.6719 7.63952 70.6719 7.6199V7.61985Z" fill="#45916B"/>
</g>
<defs>
<clipPath id="clip0_870_90874">
<rect width="80.8257" height="55" fill="white" transform="translate(0.587891 0.5)"/>
</clipPath>
</defs>
</svg>
