<svg width="86" height="56" viewBox="0 0 86 56" fill="none" xmlns="http://www.w3.org/2000/svg">
<g clip-path="url(#clip0_870_90567)">
<path d="M0.0664062 55.5H85.9338V0.5H0.0664062V55.5Z" fill="#154281"/>
<path d="M71.4221 16.701C66.9969 10.0387 58.8131 5.3406 50.0802 5.34277C41.4853 5.34277 33.3103 9.90714 28.7383 16.701H34.8405C39.0058 12.3954 44.4032 10.0551 50.0802 10.0485C55.6628 10.0485 61.149 12.3954 65.3176 16.701H71.4221Z" fill="#ED1C24"/>
<path d="M26.2187 39.2684L26.1025 39.3835C24.2314 41.305 22.0588 42.3222 19.8205 42.3222C15.1454 42.3222 11.7562 38.8047 11.7562 33.9532C11.7562 29.1071 15.1454 25.5808 19.8205 25.5808C22.0588 25.5808 24.2313 26.598 26.1025 28.524L26.2187 28.6435L29.232 24.9933L29.1541 24.9001C26.6538 21.9285 23.6482 20.4915 19.9662 20.4915C16.2646 20.4915 12.8841 21.7323 10.4396 23.9848C7.79469 26.4391 6.40039 29.8733 6.40039 33.9531C6.40039 38.0231 7.79469 41.4727 10.4396 43.9159C12.8841 46.1773 16.2646 47.4171 19.9662 47.4171C23.6482 47.4171 26.6538 45.9701 29.1541 43.0139L29.232 42.913L26.2187 39.2683V39.2684Z" fill="white"/>
<path d="M32.2656 46.9204H37.5753V20.9331H32.2656V46.9204Z" fill="white"/>
<path d="M58.383 41.2645C56.9625 42.1261 55.6394 42.5678 54.4512 42.5678C52.7324 42.5678 51.9684 41.6613 51.9684 39.6313V25.8319H57.3658V20.9343H51.9684V12.8394L46.7563 15.6345V20.9343H42.2676V25.8319H46.7563V40.5125C46.7563 44.5123 49.1217 47.2461 52.647 47.3163C55.0365 47.3579 56.4857 46.6509 57.3527 46.1215L57.4075 46.0853L58.6888 41.0738L58.383 41.2645Z" fill="white"/>
<path d="M62.7715 46.9204H68.0812V20.9331H62.7715V46.9204Z" fill="white"/>
<path d="M78.3578 15.357C78.3578 13.9814 77.311 12.9346 75.9342 12.9346C74.5586 12.9346 73.5117 13.9813 73.5117 15.357C73.5117 16.7327 74.5585 17.7806 75.9342 17.7806C77.311 17.7806 78.3578 16.7327 78.3578 15.357ZM77.9687 15.357C77.9687 16.5124 77.0885 17.3915 75.9343 17.3915C74.78 17.3915 73.901 16.5124 73.901 15.357C73.901 14.2028 74.78 13.3237 75.9343 13.3237C77.0885 13.3237 77.9687 14.2028 77.9687 15.357ZM77.0425 14.787C77.0425 14.2368 76.6457 13.988 76.1765 13.988H75.0157V16.6329H75.4651V15.6124H75.9748L76.4922 16.6329H77.0217L76.4791 15.5653C76.8211 15.4645 77.0425 15.2025 77.0425 14.787H77.0425ZM76.5854 14.8002C76.5854 15.0621 76.4046 15.1761 76.1634 15.1761H75.4651V14.4242H76.1634C76.4046 14.4242 76.5854 14.5514 76.5854 14.8002Z" fill="white"/>
</g>
<defs>
<clipPath id="clip0_870_90567">
<rect width="85.8677" height="55" fill="white" transform="translate(0.0664062 0.5)"/>
</clipPath>
</defs>
</svg>
