<svg width="100" height="22" viewBox="0 0 100 22" fill="none" xmlns="http://www.w3.org/2000/svg">
<g clip-path="url(#clip0_870_90479)">
<path fill-rule="evenodd" clip-rule="evenodd" d="M11.4629 16.3246L11.7005 16.2998L11.9505 16.2622L12.5379 16.1872L13.1879 16.0496L13.8504 15.8996L14.5004 15.712L15.1755 15.5122L15.8505 15.2746L16.3629 15.112L16.5754 15.0122L16.7754 14.887L16.9504 14.7246L17.1129 14.5496L17.238 14.337L20.4754 7.53715L25.6629 20.4622L25.7255 20.6122L25.813 20.7496L25.9255 20.8746L26.0504 20.9746L26.2004 21.0622L26.3504 21.1122L26.5129 21.1496H26.6755L31.0879 21.1622L23.0129 3.84961H18.2379L11.4629 16.3246Z" fill="#008C3F"/>
<path fill-rule="evenodd" clip-rule="evenodd" d="M34.087 4.88724V1.76221L26.1995 6.06219L26.1245 6.09963L25.962 6.1622L25.7871 6.2122H25.6245L25.4871 6.18722L25.337 6.13722L25.2121 6.08721L25.1621 6.06219L25.2245 6.2622L25.3495 6.66222L25.5121 7.07476L25.7246 7.48723L25.9745 7.86223L26.237 8.17477L26.487 8.39965L26.712 8.52478L26.9245 8.57482H27.137L27.337 8.5498L27.4871 8.4998L27.612 8.4498L27.662 8.41221L34.087 4.88724Z" fill="#D80000"/>
<path fill-rule="evenodd" clip-rule="evenodd" d="M49.9 15.6122H49.8124L49.7374 15.6247L49.6625 15.6373L49.6125 15.6623L49.55 15.6998L49.5 15.7372L49.45 15.7873L49.4126 15.8497L48.8125 16.8621H51.525V18.6498L51.3124 18.7123L51.125 18.7623L50.9498 18.7997L50.7624 18.8371L50.5874 18.8748L50.3498 18.8997L50.1624 18.9249L50 18.9371H49.825H49.6376H49.4624L49.275 18.9123L49.0124 18.8871L48.85 18.8623L48.6874 18.8249L48.525 18.7873L48.3624 18.7372L48.2126 18.6747L48.025 18.5747L47.875 18.4873L47.75 18.3872L47.625 18.2871L47.5 18.1747L47.3876 18.0621L47.275 17.9372L47.1874 17.7997L47.075 17.6123L47 17.4621L46.9374 17.2997L46.8874 17.1371L46.85 16.9747L46.8125 16.7997L46.7876 16.6371L46.775 16.4622V16.2873V16.1247V15.9623L46.8 15.7998L46.8376 15.6497L46.8874 15.4871L46.9374 15.3373L47 15.1873L47.075 15.0373L47.1376 14.9497L47.2374 14.8123L47.35 14.6873L47.4624 14.5621L47.5874 14.4497L47.7125 14.3497L47.8874 14.2373L48.0374 14.1497L48.2 14.0621L48.375 13.9998L48.5376 13.9373L48.775 13.8747L48.9624 13.8371L49.15 13.8123L49.325 13.7871L49.5124 13.7748L49.7 13.7622L49.8876 13.7497H50.0624L50.25 13.7622L50.4374 13.7748L50.6248 13.7997L50.8124 13.8248L51 13.8497L51.1874 13.8872L51.375 13.9123L51.5624 13.9497L51.75 13.9998L51.9374 14.0373L52.125 14.0872L52.3 14.1373L52.4874 14.1873L52.575 14.2123V12.9121L52.3625 12.8497L52.1874 12.7872L51.9998 12.7373L51.8126 12.6997L51.6374 12.6622L51.4498 12.6248L51.2626 12.5871L50.925 12.5373L50.7374 12.5123L50.55 12.4873L50.3624 12.4747L50.175 12.4623L50 12.4497H49.8124H49.625H49.4374H49.225H49.05L48.8625 12.4623L48.675 12.4747L48.4876 12.4997L48.3124 12.5247L48.1374 12.5497L47.95 12.5997L47.775 12.6497L47.5374 12.7122L47.3626 12.7622L47.2 12.8247L47.0251 12.8998L46.875 12.9747L46.7125 13.0497L46.5626 13.1497L46.4124 13.2371L46.2375 13.3623L46.1 13.4747L45.9625 13.5873L45.8374 13.7122L45.7126 13.8497L45.5874 13.9747L45.4874 14.1121L45.3876 14.2623L45.2874 14.4123L45.2 14.5621L45.0876 14.7747L45.025 14.9249L44.9624 15.0997L44.9 15.2623L44.8625 15.4371L44.8126 15.6122L44.7876 15.7873L44.7624 15.9623L44.75 16.1873V16.3621V16.5372L44.775 16.7123L44.8 16.8998L44.825 17.0747L44.875 17.2497L44.9124 17.4247L44.975 17.5872L45.0374 17.7497L45.125 17.9372L45.2 18.0999L45.2874 18.2497L45.375 18.3996L45.475 18.5498L45.5874 18.6872L45.6876 18.8249L45.8124 18.9497L45.9625 19.0873L46.1124 19.1999L46.2626 19.2996L46.425 19.3997L46.5874 19.4871L46.75 19.5747L46.9124 19.6623L47.0875 19.7247L47.25 19.7997L47.425 19.8623L47.625 19.9247L47.8124 19.9623L48 19.9997L48.1875 20.0249L48.375 20.0497L48.5626 20.0748L48.7625 20.0871L48.9374 20.1123L49.1376 20.1247H49.325L49.65 20.1373L49.8376 20.1247H50.0124L50.2 20.1123L50.3999 20.0997L50.5874 20.0871L50.775 20.0623L50.9624 20.0371L51.15 20.0123L51.35 19.9997L51.525 19.9623L51.7125 19.9373L51.9 19.8997L52.0875 19.8623L52.2748 19.8373L52.4624 19.7872L52.6498 19.7372L52.8374 19.6998L53.025 19.6497L53.1876 19.5997V15.6122H50H49.9Z" fill="black"/>
<path fill-rule="evenodd" clip-rule="evenodd" d="M57.3493 3.71251L57.4867 3.72511L57.6493 3.76251L57.7743 3.79995L57.8743 3.83753L57.9867 3.89995L58.0741 3.96252L58.1617 4.03754L58.2491 4.12495L58.3368 4.23748L58.3868 4.34994L58.4367 4.44994L58.4617 4.56254L58.4867 4.68749V4.78753V4.86252L58.4742 4.97494L58.4493 5.07513L58.4117 5.18751L58.3491 5.28752L58.2742 5.38752L58.1993 5.48753L58.0741 5.60009L57.9618 5.67511L57.8367 5.73754L57.7117 5.77497L57.5867 5.82494L57.4618 5.84996L57.3242 5.86252H56.1366H56.0868L56.0243 5.87509L55.9492 5.90014L55.8993 5.91252L55.8367 5.95011L55.7867 6.00011L55.7493 6.04993L55.7241 6.07491L55.1618 7.10008L56.9367 7.08748L58.7367 9.77495H60.8618L58.7991 6.6375L58.9742 6.58753L59.1241 6.52511L59.2742 6.44995L59.4742 6.34994L59.6117 6.2625L59.7367 6.1751L59.8617 6.07491L59.9742 5.96253L60.0742 5.83754L60.1993 5.67511L60.2867 5.54995L60.3617 5.4125L60.4117 5.27492L60.4617 5.15008L60.4993 5.01256L60.5117 4.8501L60.5243 4.69995V4.58753L60.5117 4.43748L60.4867 4.28752L60.4493 4.13755L60.3992 3.98754L60.3492 3.83753L60.2741 3.68753L60.1867 3.5499L60.0867 3.4125L59.9868 3.28751L59.8743 3.17513L59.7618 3.06252L59.6367 2.96252L59.4991 2.86251L59.3617 2.78753L59.2118 2.71254L59.0617 2.64994L58.9117 2.60008L58.7617 2.55008L58.5992 2.5125L58.4367 2.50008L58.2742 2.48752L58.1117 2.4751L57.9741 2.48752H52.6992V9.77495H54.5993V3.71251L57.2367 3.70009L57.3493 3.71251Z" fill="black"/>
<path fill-rule="evenodd" clip-rule="evenodd" d="M66.376 2.03741L67.4134 0.837402H66.2386H65.6385L65.0508 2.03741H66.2386H66.376Z" fill="black"/>
<path fill-rule="evenodd" clip-rule="evenodd" d="M85.8757 9.79977H87.7884V3.79975H89.9258L89.9883 3.7873L90.0633 3.77477L90.1133 3.76232L90.1633 3.73733L90.2008 3.71231L90.2259 3.67487L90.2633 3.63733L90.2758 3.59975L90.3008 3.54971L90.3133 3.52472L90.3257 3.51231L90.6759 2.5249H83.8507H83.8007L83.7383 2.54989L83.6882 2.5623L83.6383 2.59989L83.5883 2.63733L83.5508 2.67473L83.5132 2.72477L83.4883 2.77488L83.4759 2.79989L82.9883 3.79975H85.8757V9.79977Z" fill="black"/>
<path fill-rule="evenodd" clip-rule="evenodd" d="M60.8633 16.7247L61.0132 16.6747L61.1632 16.6248L61.3008 16.5497L61.4882 16.4497L61.6132 16.3747L61.7258 16.2747L61.8382 16.1747L61.9382 16.0623L62.0256 15.9373L62.1132 15.8121L62.1882 15.6747L62.2383 15.5248L62.2883 15.3747L62.3258 15.2247L62.3506 15.0623L62.3632 14.8996V14.7622L62.3506 14.5998L62.3258 14.4497L62.3006 14.2997L62.2506 14.1497L62.2008 14.0121L62.1258 13.8622L62.0633 13.7622L61.9756 13.6247L61.8757 13.4998L61.7632 13.3873L61.6506 13.2747L61.4634 13.1373L61.3132 13.0497L61.1632 12.9747L61.0007 12.8998L60.7382 12.8122L60.5632 12.7622L60.3758 12.7247L60.2008 12.6871L60.0258 12.6622L59.8382 12.6371L59.6508 12.6248L59.4632 12.6123H54.8008V19.9123H56.7132V13.9373H59.2632L59.3508 13.9497L59.4758 13.9622L59.6008 13.9872L59.7134 14.0247L59.8632 14.0998L59.9632 14.1497L60.0383 14.2123L60.1132 14.2748L60.1882 14.3871L60.2382 14.4873L60.2882 14.5998L60.3256 14.7122L60.3507 14.8122L60.3632 14.9123V14.9748L60.3507 15.0747L60.3382 15.1873L60.3008 15.2747L60.2508 15.3873L60.1882 15.4997L60.1132 15.5872L59.9883 15.7247L59.8758 15.7873L59.7634 15.8623L59.6508 15.9123L59.5132 15.9623L59.3883 15.9871L59.2632 16.0123H59.1256H58.1008H58.0382L57.9882 16.0248L57.9382 16.0497L57.8758 16.0748L57.8258 16.0997L57.7758 16.1373L57.7258 16.1747L57.6884 16.2123L57.6508 16.2497L57.6258 16.2998L57.1257 17.2371H58.7882L60.7008 19.9123H62.7758L60.6882 16.7747L60.8633 16.7247Z" fill="black"/>
<path fill-rule="evenodd" clip-rule="evenodd" d="M38.5876 12.5996L34.875 19.9122H36.925L37.6876 18.2622H39.85H39.9124L40 18.237L40.0874 18.2122L40.1624 18.1746L40.2376 18.1246L40.3 18.062L40.3624 17.9997L40.4124 17.9246L40.425 17.8996L41 16.9497H38.2876L39.8124 13.7496L42.5626 19.8872H44.5376L41.1625 12.5996H38.5876Z" fill="black"/>
<path fill-rule="evenodd" clip-rule="evenodd" d="M82.138 2.5H80.2754V9.79989H82.138V2.5Z" fill="black"/>
<path fill-rule="evenodd" clip-rule="evenodd" d="M44.925 8.73731L45.0626 8.86229L45.2 8.97472L45.3374 9.08725L45.4875 9.18729L45.6376 9.28729L45.7874 9.38729L45.95 9.4747L46.1125 9.54972L46.2376 9.59969L46.4125 9.64987L46.5875 9.71229L46.7626 9.76229L46.95 9.81226L47.125 9.8497L47.3125 9.87468L47.4875 9.91226L47.7126 9.93724L47.9 9.94984L48.0875 9.9623H48.275L48.4625 9.97483H48.65L48.8376 9.9623L49.1126 9.94984L49.3001 9.93724L49.4875 9.92482L49.6626 9.89984L49.85 9.87468L50.025 9.83728L50.2001 9.79973L50.3876 9.76229L50.5624 9.72489L50.75 9.66229L50.925 9.62485L51.1 9.56228L51.275 9.49972L51.4125 9.46228V8.0997V8.08728L51.3375 8.12468L51.1626 8.18728L50.9874 8.26227L50.8125 8.31227L50.6374 8.37469L50.4625 8.42487L50.275 8.46228L50.0125 8.51228L49.85 8.5373L49.6626 8.56228L49.4875 8.58726L49.3126 8.59968L49.125 8.61228H48.9375H48.75L48.575 8.62474L48.4125 8.61228L48.2376 8.59968L48.075 8.57488L47.9 8.5373L47.7374 8.48726L47.5501 8.43729L47.4 8.38729L47.25 8.32469L47.1126 8.24985L46.975 8.16226L46.85 8.07468L46.725 7.97486L46.5626 7.82471L46.4626 7.69986L46.3625 7.5747L46.2626 7.43729L46.1876 7.2997L46.125 7.14984L46.0625 6.99969L46 6.76228L45.9626 6.59986L45.9376 6.42469V6.26226V6.09969V5.92485L45.9626 5.76228L46 5.52469L46.0375 5.37486L46.0875 5.21226L46.1375 5.06229L46.2126 4.9247L46.2876 4.7873L46.4125 4.61227L46.525 4.48728L46.6375 4.37468L46.775 4.26229L46.9 4.16225L47.0374 4.06229L47.2625 3.9373L47.4126 3.86228L47.5875 3.79971L47.75 3.74985L47.925 3.69985L48.1625 3.64985L48.3375 3.63729L48.525 3.61227H48.7124H48.9H49.075L49.3376 3.62469L49.525 3.63729L49.7124 3.66227L49.9 3.68729L50.0625 3.71227L50.2501 3.74985L50.425 3.78726L50.6126 3.83729L50.7874 3.8747L50.9625 3.9373L51.1374 3.9873L51.2249 4.02488L51.4376 4.0873L51.4499 2.72472L51.3375 2.69971L51.1626 2.6497L50.9874 2.58728L50.8 2.53728L50.6249 2.49984L50.4375 2.44984L50.2625 2.41226L50.075 2.37471L49.8626 2.33724L49.675 2.31225L49.5001 2.28727L49.3126 2.26225L49.125 2.24987L48.9375 2.2373H48.75H48.575H48.4001H48.2126L48.0375 2.24987L47.85 2.26225L47.6626 2.28727L47.4875 2.31225L47.3125 2.34966L47.1376 2.38727L46.9625 2.43728L46.7876 2.48728L46.5875 2.54984L46.4251 2.61227L46.2626 2.67469L46.0875 2.74985L45.9376 2.83729L45.775 2.9247L45.625 3.01228L45.475 3.11228L45.3374 3.22467L45.2 3.33742L45.075 3.44984L44.95 3.57469L44.825 3.69985L44.7125 3.83729L44.6 3.97488L44.5 4.12471L44.4 4.26229L44.325 4.42468L44.2376 4.57483L44.1375 4.81228L44.075 4.9747L44.025 5.13724L43.975 5.31226L43.9376 5.48729L43.9002 5.66231L43.8874 5.91229L43.875 6.08727V6.26226V6.43729L43.9002 6.61228L43.925 6.7873L43.95 6.96229L44 7.12482L44.05 7.2997L44.1375 7.54971L44.2126 7.71228L44.2876 7.86229L44.375 8.02482L44.4625 8.17483L44.5626 8.31227L44.6625 8.44986L44.775 8.59968L44.925 8.73731Z" fill="black"/>
<path fill-rule="evenodd" clip-rule="evenodd" d="M64.1621 19.9124H66.0871V12.625H64.1747L64.1621 19.9124Z" fill="black"/>
<path fill-rule="evenodd" clip-rule="evenodd" d="M87.1508 12.625H85.3633V19.9124H91.0508L91.6008 18.6123H87.1508V12.625Z" fill="black"/>
<path fill-rule="evenodd" clip-rule="evenodd" d="M69.7617 8.52487H66.2368H63.9242V3.73732H66.2368H69.4866L69.0242 2.4873H66.2368H62.0742V9.77474H66.2368H69.1368L69.7617 8.52487Z" fill="black"/>
<path fill-rule="evenodd" clip-rule="evenodd" d="M96.5133 18.5872H94.1507V13.8746H96.5133H99.7133L99.2759 12.5996H96.5133H92.2383V19.8996H96.5133H99.4258L100.001 18.5872H96.5133Z" fill="black"/>
<path fill-rule="evenodd" clip-rule="evenodd" d="M95.4996 15.5498L95.4496 15.5624H95.387L95.312 15.5748L95.2494 15.5998L95.1995 15.6374L95.137 15.6748L95.087 15.7248L95.0746 15.75L94.3496 16.8248H96.512H97.4995H97.5372L97.5871 16.8124L97.6496 16.7998L97.712 16.7748L97.7744 16.7498L97.8244 16.7124L97.8746 16.6624L97.8996 16.625L98.6746 15.5498H96.512H95.4996Z" fill="black"/>
<path fill-rule="evenodd" clip-rule="evenodd" d="M84.6634 16.0249L84.6508 15.8497L84.6258 15.7122L84.6008 15.5372L84.5632 15.3747L84.5132 15.1999L84.4632 15.0373L84.3884 14.8749L84.3258 14.7123L84.2382 14.5621L84.1508 14.4123L84.0382 14.2623L83.9258 14.1247L83.8132 13.9872L83.6882 13.8497L83.5634 13.7248L83.4258 13.5997L83.2883 13.4872L83.1258 13.3747L82.9756 13.2746L82.8131 13.1748L82.6507 13.0872L82.4756 13.0122L82.3131 12.9247L82.1506 12.8621L81.9757 12.7996L81.8007 12.7372L81.6257 12.6871L81.4507 12.637L81.2633 12.5996L81.0882 12.5622L80.9007 12.5246L80.7132 12.5122L80.5382 12.4996L80.3631 12.4872H80.2006L80.1381 12.4746H80.0506L79.9005 12.4872H79.7506L79.5755 12.4996L79.4006 12.5122L79.213 12.5246L79.038 12.5496L78.8506 12.5871L78.6756 12.6248L78.5006 12.6622L78.3255 12.7122L78.1504 12.7622L77.988 12.8246L77.8256 12.8998L77.6504 12.9746L77.5005 13.0497L77.3254 13.1622L77.1879 13.2497L77.0381 13.3623L76.9005 13.4746L76.7631 13.5873L76.6379 13.7122L76.5129 13.8497L76.4005 13.9747L76.2755 14.1373L76.1753 14.2748L76.0755 14.4247L75.9879 14.5747L75.9129 14.7373L75.8505 14.8997L75.7754 15.0623L75.7255 15.2373L75.663 15.4749L75.6379 15.6498L75.613 15.8373L75.5879 16.0123V16.1873V16.5123L75.613 16.6998L75.6253 16.8748L75.663 17.0498L75.7005 17.2249L75.7379 17.3874L75.8005 17.5748L75.8629 17.7498L75.938 17.9124L76.0129 18.0623L76.1005 18.2248L76.2005 18.375L76.3505 18.6L76.4629 18.7374L76.5879 18.8624L76.7131 18.9999L76.8379 19.1249L76.9755 19.2375L77.1381 19.3625L77.288 19.4625L77.438 19.5499L77.6004 19.6499L77.763 19.7249L77.938 19.8125L78.1005 19.8749L78.2756 19.9499L78.5132 20.0125L78.688 20.0625L78.8756 20.0999L79.0632 20.1375L79.238 20.1625L79.4256 20.1875L79.6006 20.1999L79.788 20.2249H79.9756L80.1381 20.2375H80.1506H80.3381L80.5256 20.2249L80.7132 20.2125L80.9007 20.1999L81.0757 20.1749L81.3755 20.1249L81.5505 20.0873L81.7257 20.0499L81.9007 19.9999L82.0757 19.9499L82.2507 19.8749L82.4133 19.8125L82.5757 19.7375L82.8131 19.6125L82.9756 19.5249L83.1258 19.4373L83.2632 19.3374L83.4008 19.2249L83.5382 19.1123L83.6633 18.9875L83.7882 18.8624L83.9508 18.6623L84.0508 18.5124L84.1508 18.3624L84.2382 18.1998L84.3132 18.05L84.3884 17.8874L84.4506 17.7124L84.5132 17.5498L84.5508 17.3748L84.6008 17.1998L84.6258 17.0248L84.6508 16.8499L84.6756 16.6624L84.6882 16.4873V16.3874L84.6756 16.2124L84.6634 16.0249ZM82.6132 16.3373V16.4873L82.6008 16.6624L82.5758 16.8373L82.5508 16.9748L82.5134 17.1498L82.4756 17.3248L82.4134 17.4874L82.3508 17.6498L82.2882 17.8124L82.2006 17.9748L82.1132 18.1124L82.0008 18.2373L81.8882 18.3499L81.7758 18.4624L81.6506 18.5748L81.5008 18.6623L81.3633 18.7499L81.2132 18.8124L81.0632 18.8624L80.9131 18.9124L80.7633 18.9499L80.5257 18.9875L80.3507 18.9999H80.1881H80.1381H80.0257L79.8505 18.9749L79.6881 18.9499L79.5257 18.9124L79.3631 18.8624L79.2007 18.8124L79.0381 18.7499L78.8507 18.65L78.7131 18.5623L78.5881 18.4624L78.4632 18.3499L78.3507 18.2373L78.1756 18.0248L78.0881 17.8998L78.0131 17.7624L77.9381 17.6124L77.8754 17.4622L77.813 17.2998L77.763 17.1372L77.7256 16.9748L77.6882 16.7374L77.6631 16.5624V16.3998V16.2248L77.6882 16.0123L77.713 15.8247L77.738 15.6498L77.7756 15.4871L77.8256 15.3123L77.888 15.1622L77.9506 14.9997L78.0381 14.8623L78.113 14.7123L78.2256 14.5873L78.3256 14.4623L78.4381 14.3497L78.5631 14.2497L78.7505 14.1121L78.8881 14.0373L79.0381 13.9622L79.1881 13.8997L79.3383 13.8497L79.4881 13.8122L79.7381 13.7748L79.9757 13.7497H80.1381L80.2133 13.7371L80.4631 13.7622L80.7633 13.8122L80.9131 13.8497L81.0758 13.8997L81.2258 13.9622L81.3633 14.0247L81.5132 14.1121L81.6383 14.1997L81.7632 14.2997L81.8882 14.4123L82.0008 14.5247L82.1132 14.6499L82.2006 14.7873L82.2882 14.9249L82.3508 15.0747L82.4134 15.2247L82.4756 15.3747L82.5134 15.5249L82.5382 15.6498L82.5632 15.8247L82.5882 15.9998L82.6132 16.1623V16.3373Z" fill="black"/>
<path fill-rule="evenodd" clip-rule="evenodd" d="M65.3634 5.47461H65.3009L65.2259 5.48721L65.1384 5.49963L65.0758 5.53717L65.0008 5.56219L64.9508 5.6122L64.8883 5.6748L64.1133 6.72462H66.2385H67.1757H67.2008L67.2759 6.7122L67.3507 6.69964L67.4133 6.67462L67.4883 6.63718L67.5508 6.58722L67.6008 6.54978L67.6508 6.48721L67.6883 6.44963L68.3633 5.47461H66.2385H65.3634Z" fill="black"/>
<path fill-rule="evenodd" clip-rule="evenodd" d="M75.9244 9.65015L76.1742 9.58773L76.3494 9.52498L76.5118 9.46256L76.6744 9.40014L76.8368 9.31259L77.087 9.17497L77.2368 9.08753L77.3743 9.00012L77.5244 8.89997L77.6493 8.78755L77.7744 8.66253L77.8869 8.55011L78.0369 8.37494L78.137 8.23753L78.2245 8.09994L78.3119 7.95008L78.3995 7.78751L78.462 7.62509L78.5369 7.4375L78.5745 7.24991L78.6244 7.07503L78.6619 6.8999L78.6869 6.72487L78.6995 6.55003L78.7119 6.36244L78.7245 6.20001L78.737 6.03744V5.90004L78.7245 5.73743L78.6995 5.56241L78.6745 5.38742L78.6369 5.22481L78.5869 5.04997L78.5369 4.8874L78.4743 4.72479L78.3995 4.5624L78.3244 4.41236L78.2371 4.26239L78.137 4.11235L78.0119 3.93736L77.8995 3.79977L77.7744 3.6749L77.6493 3.54973L77.5118 3.43731L77.3743 3.34976L77.2368 3.24975L77.0993 3.16235L76.9494 3.07487L76.812 2.99974L76.6618 2.92472L76.5118 2.8623L76.3494 2.79988L76.1994 2.74988L76.0368 2.69973L75.8869 2.64973L75.7244 2.61229L75.5618 2.57485L75.3992 2.54987L75.2493 2.52489L75.0868 2.51229L74.9368 2.49987L74.7743 2.4873H74.7243L74.6243 2.49987H70.7617V9.7873H74.7243H74.8243H74.8492H75.0368L75.2118 9.7747L75.387 9.74972L75.5618 9.72488L75.7493 9.6873L75.9244 9.64986V9.65015ZM75.4744 8.41255L75.3243 8.46256L75.1743 8.50014L75.0242 8.52512L74.8743 8.55014H74.7243H74.7118H74.6867H72.6367V3.71255H74.1869H74.3117H74.4742L74.6493 3.72515H74.7243L74.8118 3.73757L74.9617 3.77501L75.1242 3.81259L75.2743 3.86256L75.4244 3.92501L75.5744 4.00014L75.7118 4.07498L75.8494 4.16257L75.9868 4.26261L76.0994 4.375L76.1994 4.46258L76.3118 4.5876L76.3994 4.71259L76.487 4.85018L76.5492 4.98762L76.6244 5.13759L76.6744 5.27503L76.712 5.43764L76.7368 5.5376L76.7743 5.70021L76.7994 5.86264V6.02506V6.16265V6.32507L76.7743 6.48768L76.7494 6.6501L76.6994 6.81267L76.6618 6.95011L76.6118 7.11272L76.5492 7.27511L76.4744 7.42526L76.3868 7.57512L76.2994 7.72516L76.1994 7.86271L76.0994 7.9877L75.9994 8.10016L75.8744 8.18774L75.7493 8.27533L75.6119 8.35017L75.4744 8.41274V8.41255Z" fill="black"/>
<path fill-rule="evenodd" clip-rule="evenodd" d="M74.7247 18.337L74.5871 18.3872L74.3997 18.4372L74.2247 18.4872L74.0371 18.5372L73.8497 18.5746L73.6747 18.612L73.4871 18.6498L73.2997 18.662L73.1373 18.6872L72.9497 18.7122L72.7746 18.7246L72.5997 18.7372H72.4121L72.2371 18.7246L72.0497 18.7122L71.8121 18.6996L71.6497 18.6746L71.4747 18.6498L71.3247 18.612L71.1623 18.5498L71.0121 18.4996L70.8373 18.4122L70.6871 18.337L70.5622 18.2496L70.4247 18.1622L70.2995 18.062L70.1497 17.8996L70.0497 17.7748L69.9497 17.6496L69.8621 17.512L69.7871 17.3746L69.7247 17.2248L69.6495 16.9746L69.6121 16.7996L69.5997 16.6248L69.5871 16.4622V16.2872L69.5997 16.1122L69.6121 15.9496L69.6373 15.7872L69.6621 15.6246L69.7121 15.4747L69.7621 15.3246L69.8247 15.1872L69.9246 15.0122L70.0123 14.8748L70.1121 14.7372L70.2247 14.6246L70.3371 14.5122L70.4623 14.3996L70.5997 14.2996L70.7495 14.2122L70.8997 14.1372L71.0623 14.062L71.2247 13.9998L71.3873 13.9496L71.5747 13.9122L71.7497 13.8872L71.9247 13.8622L72.1121 13.8496L72.2871 13.837L72.5247 13.8496L72.6997 13.8622L72.8997 13.8872L73.0873 13.8996L73.2621 13.9372L73.4497 13.9622L73.6373 13.9998L73.8121 14.0497L73.9997 14.0998L74.1747 14.1496L74.3621 14.1996L74.5371 14.2622L74.7121 14.3248H74.7247L74.9247 14.3996V12.9996L74.8622 12.9746L74.7247 12.9246L74.6871 12.912L74.5123 12.8496L74.3247 12.7871L74.1495 12.7372L73.9245 12.687L73.7497 12.6496L73.5621 12.6122L73.3746 12.5871L73.1871 12.5622L72.8246 12.5246L72.6371 12.5122L72.4497 12.4996L72.2623 12.4872L72.0371 12.4746H71.8497H71.6746L71.4871 12.4872L71.2995 12.4996L71.0121 12.5372L70.8247 12.5622L70.6497 12.5996L70.4745 12.637L70.2995 12.687L70.1371 12.7496L69.9123 12.8372L69.7497 12.8998L69.5871 12.9872L69.4371 13.0746L69.2747 13.1622L69.1373 13.2622L68.9621 13.3996L68.8246 13.5121L68.6997 13.6246L68.5621 13.7496L68.4497 13.8872L68.3371 14.0246L68.1746 14.2246L68.0747 14.387L67.9873 14.5372L67.8995 14.6998L67.8371 14.8622L67.7747 14.9872L67.7122 15.162L67.6623 15.3246L67.6245 15.4996L67.5871 15.6746L67.5497 15.9622L67.5371 16.1372V16.3121V16.4871L67.5497 16.7122L67.5747 16.8872L67.6121 17.0622L67.6497 17.237L67.6871 17.412L67.7747 17.6372L67.8371 17.7996L67.9121 17.962L67.9995 18.1122L68.0871 18.2748L68.2123 18.4746L68.3247 18.612L68.4371 18.7496L68.5495 18.887L68.6871 19.0122L68.8623 19.1621L68.9997 19.2746L69.1496 19.3872L69.2997 19.4747L69.4747 19.5872L69.6373 19.6622L69.8121 19.7372L69.9871 19.7996L70.1497 19.8622L70.3247 19.9122L70.6747 19.987L70.8621 20.0122L71.0497 20.037L71.2371 20.0622L71.4247 20.0748L71.7123 20.087L71.8996 20.0996H72.0871H72.2745L72.4621 20.087H72.6497L72.8497 20.0622L73.0247 20.0496L73.1871 20.037L73.3746 20.0122L73.5621 19.987L73.7497 19.9496L73.9245 19.9122L74.1121 19.8622L74.2997 19.8122L74.4746 19.762L74.6497 19.712L74.7247 19.6872L74.7373 19.6746L74.9371 19.6122L74.9497 18.2496L74.7621 18.3247L74.7247 18.337Z" fill="black"/>
<path fill-rule="evenodd" clip-rule="evenodd" d="M34.0874 10.1126V6.4126L31.4876 7.88764L28.975 9.30022L26.625 10.6001L24.4874 11.7624L22.5624 12.7876L20.8374 13.675L19.2626 14.4376L17.85 15.075L16.525 15.6376L15.2626 16.1L14.0124 16.5126L12.8 16.8625L11.5876 17.1501L10.4126 17.4002L9.3 17.5876L8.24996 17.7374L7.31256 17.8376L6.47498 17.8876L5.77499 17.925L5.16244 17.9L4.2376 17.8L3.6 17.65L3.13742 17.4625L2.76256 17.2126L2.46255 16.925L2.225 16.5874L2.08745 16.2127L2.03744 15.775L2.08745 15.2502L2.275 14.6502L2.57497 14.0002L2.97499 13.3376L3.47497 12.6752L4.03741 12.0375L4.61242 11.45L5.19995 10.9376L5.83741 10.4376L6.55 9.90017L7.28758 9.41261L8.00002 8.97504L8.73756 8.56261L9.50001 8.17516L10.2624 7.8376L11.0375 7.52502L11.775 7.27501L12.4626 7.06259L13.075 6.92504L13.6374 6.83763L14.2 6.81261L14.7874 6.86261L15.1 6.90005L14.9374 6.32501L14.65 5.35017L14.425 4.6626L14.25 4.25017L14.1126 4.02521L13.975 3.88762L13.825 3.78758L13.5876 3.70018L13.2124 3.6626L12.675 3.68762L12 3.77506L11.2374 3.93763L10.45 4.16258L9.625 4.46259L8.825 4.80019L8.06241 5.15016L7.32498 5.53758L6.59997 5.9502L5.86258 6.4126L5.10002 6.92504L4.34999 7.4626L3.68758 8.00017L3.10001 8.48759L2.57497 8.98761L2.06243 9.51261L1.58739 10.0876L1.15001 10.6876L0.762557 11.3L0.450018 11.9626L0.200008 12.6252L0.0624212 13.3L0 13.95L0.050002 14.6502L0.174989 15.3876L0.374997 16.125L0.63739 16.825L0.937401 17.4625L1.28742 18.025L1.69999 18.575L2.17499 19.075L2.6874 19.5126L3.23742 19.8876L3.85001 20.1876L4.57498 20.45L5.4374 20.6876L6.36241 20.8502L7.31256 20.9502L8.24996 20.975L9.14996 20.925L9.96238 20.8625L10.7376 20.7501L11.5124 20.6126L12.2874 20.4626L13.0126 20.2876L13.725 20.1126L14.475 19.8876L15.25 19.6626L16.025 19.4126L16.8124 19.1376L17.6 18.8375L18.3876 18.525L19.175 18.1876L19.975 17.8126L20.825 17.4002L21.3124 17.1375L21.95 16.8L22.825 16.3251L24.1 15.6376L25.8624 14.6624L28.2 13.3751L31 11.8124L34.0874 10.1126Z" fill="#0099CC"/>
</g>
<defs>
<clipPath id="clip0_870_90479">
<rect width="100" height="20.325" fill="white" transform="translate(0 0.837402)"/>
</clipPath>
</defs>
</svg>
