<svg width="100" height="26" viewBox="0 0 100 26" fill="none" xmlns="http://www.w3.org/2000/svg">
<g clip-path="url(#clip0_870_77501)">
<path fill-rule="evenodd" clip-rule="evenodd" d="M0.620783 7.32851C1.37226 7.32851 1.89589 7.48772 2.22081 7.81268C2.58523 8.17602 2.7478 8.77766 2.7478 9.76052V22.0452C2.7478 23.7452 2.39169 24.5036 0.288387 24.5036H3.61025e-05V25.2575H9.45139V24.5073L9.16622 24.5036C7.08303 24.4787 6.73175 23.7251 6.73175 22.0452V9.76052C6.73175 8.78012 6.89414 8.18186 7.25784 7.81867C7.58652 7.48859 8.11932 7.32851 8.88635 7.32851H9.45136V6.56396H0V7.32851H0.620711H0.620783Z" fill="#00009E"/>
<path fill-rule="evenodd" clip-rule="evenodd" d="M30.8486 18.9909C30.8486 18.9909 30.6847 18.2239 30.6608 17.7942V12.1835C30.6242 8.91174 31.0703 7.28305 28.2095 7.29489V6.56006H34.7905V7.29489C31.8442 7.28305 32.2147 8.91174 32.1982 12.1835V25.2846L31.2615 25.2751L17.0504 10.4037C17.0504 10.4037 17.2106 11.1695 17.2342 11.5992V20.787C17.1537 24.139 17.5689 24.544 19.7281 24.5049V25.2703H12.8672V24.5049C15.0298 24.5072 15.4547 24.2199 15.4522 20.514V20.7359V11.681L15.4345 10.2437C15.5152 8.38338 14.8281 7.30446 12.7305 7.32218V6.58645H19.0466L30.8486 18.991L30.8486 18.9909Z" fill="#00009E"/>
<path fill-rule="evenodd" clip-rule="evenodd" d="M54.6698 6.20312H53.9447L53.9112 6.45205C53.8615 6.8225 53.7154 7.44339 53.2928 7.44339C53.1727 7.44339 52.8725 7.3866 52.5344 7.23198C51.0659 6.5957 49.1617 6.20312 47.5595 6.20312C44.4409 6.20312 41.612 7.31992 39.5916 9.35C37.7354 11.2149 36.7202 13.7525 36.7345 16.4958C36.7478 19.1228 37.7803 21.2843 39.8947 23.1055C42.0243 24.9276 44.4112 25.7048 47.8788 25.7048C50.7678 25.7048 52.4214 25.2896 54.9594 23.9279L55.4034 23.6869V18.7845C55.4034 16.6954 55.6596 16.3699 57.3595 16.3011L57.6362 16.2906V15.5629H49.3305V16.2906L49.607 16.3011C51.5005 16.3748 51.8577 16.7143 51.8577 18.4414V22.9843C50.4533 23.9114 49.4324 24.2628 48.1447 24.2628C46.2395 24.2628 44.5442 23.5267 43.2422 22.2259C41.7177 20.7002 40.9738 18.4782 40.9738 15.9666C40.9738 13.2612 41.6941 10.9536 43.1781 9.47102C44.3591 8.28967 45.9282 7.63358 47.7184 7.63358C49.3172 7.63358 51.174 8.31956 52.4476 9.32986C53.4841 10.1784 54.0217 10.9987 54.4264 12.3545L54.488 12.5597H55.1968L54.6698 6.20316L54.6698 6.20312Z" fill="#00009E"/>
<path fill-rule="evenodd" clip-rule="evenodd" d="M91.0466 25.2072C91.5085 25.1372 91.9988 25.1478 92.3666 24.8097C93.9267 25.0493 95.5087 24.6636 96.7348 23.8042C97.3806 23.2831 97.9625 22.6788 98.4339 22.0176C98.848 21.4361 99.1754 20.8934 99.3868 20.242C99.5448 19.8406 99.6693 19.4216 99.7633 18.9927C100.208 16.968 99.9745 14.7044 99.3157 12.779C99.1947 12.4216 99.0569 12.0751 98.9072 11.745C98.0845 10.0451 96.9653 8.2113 95.2415 7.13559C94.2707 6.53025 93.3767 5.59376 92.8283 4.62397C92.5304 4.35544 92.2446 3.99954 91.8586 3.93567C91.9642 4.10976 92.0805 4.27977 92.1092 4.48367L92.0866 4.51234C91.6767 4.52422 91.3565 4.30804 91.0763 4.04586L91.3852 3.76563C91.2688 3.70635 91.1343 3.68371 91.0052 3.654C89.8265 3.51992 88.8564 4.06373 87.8109 4.32587L87.7941 4.38403C88.4364 4.67011 88.5703 5.37768 88.9445 5.85618C89.037 5.74528 89.1948 5.82611 89.3241 5.81586C89.5106 5.82611 89.6861 5.96146 89.867 5.91406C89.8725 5.75766 89.7847 5.63401 89.7564 5.49408C89.867 5.44169 90.0008 5.48805 90.1244 5.49408C90.4628 5.69221 91.0052 5.45938 91.2164 5.91406C90.8306 5.93792 90.4685 6.01966 90.1064 6.10739C90.1303 6.25353 90.2764 6.36992 90.2642 6.51607C89.9548 6.38779 89.627 6.30606 89.2827 6.26573L89.2649 6.31776C89.703 6.8316 90.3047 7.13555 90.9183 7.31617C91.8004 7.52015 92.5769 7.10017 93.4289 7.2461C95.5205 8.20382 97.3072 10.3955 98.0845 12.4749C98.1225 12.5746 98.1595 12.6757 98.1938 12.779C98.8442 14.6782 98.9679 17.012 98.3161 18.9927C97.9695 19.8169 97.5873 20.5942 96.9748 21.2638C96.7434 21.5488 96.4869 21.8027 96.2093 22.0175C95.3321 22.7001 94.2516 23.0018 93.1372 22.6956C93.0673 22.6478 92.927 22.636 92.9507 22.5139C92.9889 22.3513 93.0255 22.1861 93.0574 22.0175C93.2413 21.0679 93.327 20.0695 93.2771 19.0713C93.2758 19.0286 93.2748 18.9858 93.2734 18.9432C93.212 17.4937 92.9234 16.1903 92.3905 14.9368C92.0487 14.2175 91.6426 13.4328 91.132 12.7289C90.522 11.8897 89.7645 11.1646 88.7923 10.8024C88.1965 10.6446 87.4606 10.6148 87.0108 11.111C86.69 11.3923 86.5561 11.7708 86.6021 12.1865C86.1003 12.5048 85.5352 12.6767 84.9201 12.7289C84.7695 12.7419 84.6152 12.7977 84.4584 12.7956C84.31 12.8026 84.1655 12.7965 84.0227 12.779C83.2835 12.6875 82.5354 12.2888 81.9668 11.8327C81.9551 11.5289 81.9372 11.2429 81.9254 10.9213C81.599 10.7526 81.3294 10.431 81.3068 10.0512L81.3353 10.0225C81.523 10.0807 81.6854 10.1732 81.8553 10.2728C81.7793 9.81728 81.6915 9.36835 81.4647 8.97064C81.2535 8.88273 81.0433 8.81269 80.8453 8.70706C80.6172 8.55651 80.4711 8.28108 80.4368 8.03042C80.6411 8.2291 80.997 8.1587 81.1548 8.36903C80.8795 7.55708 80.8749 6.62871 80.4249 5.8868C80.1969 5.33826 79.6009 5.08706 79.1928 4.68458C79.0348 4.49104 78.9706 4.22251 78.6848 4.19301C78.4509 4.13482 78.433 3.87264 78.3927 3.70267C78.5386 3.7205 78.6607 3.81906 78.7833 3.84257C78.4447 2.9443 78.147 1.94462 77.2303 1.37254L77.0727 1.47214C76.7166 1.52453 76.3366 1.54821 75.9807 1.55991C76.1385 1.3264 76.4185 1.22661 76.6405 1.12083C76.3831 0.928693 76.1717 0.882338 75.8501 0.829989C75.6637 1.01646 75.3265 1.11004 75.0866 1.16257L75.0569 1.1387C75.0511 0.928693 75.0035 0.672365 75.3194 0.618789C75.0155 0.472863 74.5123 0.531926 74.2023 0.618789C74.1158 0.846488 73.8652 1.05097 73.883 1.32037C73.7026 1.50684 73.5743 1.75855 73.3867 1.89227C73.381 1.4424 73.5722 1.0283 73.654 0.648465C73.3916 0.747892 73.1247 0.888367 72.867 1.01043C72.4526 0.770889 72.0159 0.531926 71.572 0.350619C71.5317 0.332749 71.4438 0.315925 71.4613 0.391993C71.8413 0.666228 71.6941 1.18044 71.7346 1.5707L71.4946 1.37254C71.3783 1.07484 71.0413 0.85869 70.9832 0.531926C70.5855 0.607994 70.3315 0.712728 69.9633 0.870532L69.9125 0.900064C70.1867 0.900064 70.4206 1.1152 70.5545 1.33225C70.1402 1.35474 69.7721 1.19213 69.3627 1.1504C69.3224 1.11007 69.287 1.06267 69.2226 1.06866C69.0185 1.14473 68.8428 1.29069 68.6626 1.43081C68.2601 1.82848 67.8506 2.26665 67.658 2.79223C67.7924 2.81487 67.9622 2.80902 68.0604 2.89076C67.8387 3.02502 67.6463 3.2529 67.4303 3.3811C67.3541 3.68501 67.3664 4.03052 67.3484 4.36291C67.1784 4.62029 66.9516 4.84705 66.8404 5.13453C66.4782 6.30703 66.3845 7.61055 66.4379 8.94104C66.3206 9.05285 66.1685 9.12289 66.0579 9.21065L66.0697 10.4012H66.0984C66.1506 10.1507 66.4487 10.0108 66.63 9.84097H66.6884C66.6586 10.1095 66.6243 10.3785 66.6183 10.6529L66.2801 10.9331C65.9406 11.2311 66.2266 11.6807 66.198 12.0551C66.2219 12.1532 66.2385 12.2993 66.3084 12.3232C66.3501 12.1771 66.4782 12.0724 66.5601 11.9433C66.7061 11.9091 66.8343 11.7911 66.9686 11.7747C66.8925 12.0667 66.794 12.3527 66.6765 12.6331C66.6208 12.6697 66.5544 12.7195 66.4984 12.7791C66.4389 12.8431 66.3904 12.9153 66.3782 12.9951C66.6422 14.379 67.0551 15.7451 67.5274 17.0475C67.2072 17.5911 67.0254 18.2311 66.7574 18.7915C66.7193 18.8699 66.6848 18.9504 66.6526 19.031C66.3845 19.71 66.3027 20.4698 65.9689 21.1217C65.8336 21.029 65.6875 20.9577 65.5367 20.8935C64.9056 20.6835 64.1753 20.8177 63.7147 21.303C63.3052 21.2273 62.8849 21.2973 62.5632 21.5133C62.3331 21.6853 62.1549 21.8942 62.0527 22.1378C61.9829 22.3074 61.9508 22.4925 61.9616 22.6934C61.6993 22.8737 61.5592 23.1535 61.4714 23.4349C61.3489 24.0654 61.571 24.7216 61.933 25.2073H91.0465L91.0466 25.2072Z" fill="white"/>
<path fill-rule="evenodd" clip-rule="evenodd" d="M87.1794 12.0752C87.1737 12.227 87.0635 12.397 87.1617 12.5251C87.302 12.3669 87.5358 12.3729 87.7233 12.303C88.2421 12.2565 88.7394 12.4193 89.2236 12.5367C89.1015 12.3434 89.0194 12.1285 88.8853 11.9528C88.6157 11.8828 88.2074 12.0692 88.1613 11.6728C87.9975 11.5325 87.7397 11.6324 87.5712 11.6427C87.4075 11.7607 87.2733 11.9054 87.1793 12.0752L87.1794 12.0752Z" fill="white"/>
<path fill-rule="evenodd" clip-rule="evenodd" d="M69.3306 7.03267C69.3281 7.03018 69.3244 7.02772 69.3223 7.02686C69.3223 7.02772 69.3223 7.03018 69.3235 7.03267H69.3306Z" fill="white"/>
<path fill-rule="evenodd" clip-rule="evenodd" d="M71.4543 12.2238L71.8047 11.8852C71.8341 11.8852 71.8567 11.8912 71.8746 11.9149L71.845 12.5629C72.0147 12.721 72.2248 12.7732 72.4465 12.785C72.4645 12.6094 72.5986 12.4871 72.6748 12.3352C72.7387 12.2127 72.6984 12.0313 72.8266 11.9434L72.867 11.9847C72.9087 12.1772 72.8969 12.3934 72.9965 12.5628C73.0081 12.6557 73.0249 12.7732 73.0368 12.8549C73.2942 12.8671 73.527 12.7958 73.7262 12.7031C73.7145 12.4811 73.7906 12.2994 73.8247 12.0955C73.8783 12.0251 73.7608 11.8968 73.907 11.903C73.9887 12.0776 74.1348 12.2589 74.2166 12.4454C74.555 12.1013 74.6949 11.6515 74.7771 11.1849C74.6784 11.0496 74.5264 11.0496 74.409 10.9627C73.4168 10.6411 72.1427 10.5767 71.1848 11.0731C71.121 11.4708 71.2027 11.9092 71.4543 12.2237V12.2238Z" fill="white"/>
<path fill-rule="evenodd" clip-rule="evenodd" d="M62.1732 23.1833C62.1375 23.6336 62.1732 24.056 62.2013 24.5C62.2953 24.6461 62.4649 24.8156 62.6335 24.8275L62.6634 24.5296C62.7333 24.114 62.5115 23.6738 62.7453 23.3236C62.909 23.3758 63.0715 23.4576 63.2129 23.5336C63.2819 23.148 63.1834 22.6992 62.8152 22.4653L62.1732 23.1833H62.1732Z" fill="white"/>
<path fill-rule="evenodd" clip-rule="evenodd" d="M63.6144 22.5532C63.3864 23.2357 63.2167 24.0799 63.492 24.798C63.6487 24.6936 63.8126 24.5936 63.9527 24.4479C63.9244 23.8981 63.8483 23.3116 64.1747 22.8559C64.4607 22.9439 64.6543 23.2189 64.7646 23.4877C64.9582 23.2416 65.0224 22.9034 64.9463 22.5756C64.9582 22.3194 64.6651 22.3776 64.5251 22.272C64.5725 22.0558 64.5663 21.8055 64.7942 21.6831L64.0929 21.7533C63.9123 22.0097 63.714 22.2612 63.6145 22.5532H63.6144Z" fill="white"/>
<path fill-rule="evenodd" clip-rule="evenodd" d="M65.0567 24.5698C65.0864 24.6234 65.0567 24.7159 65.1149 24.7278C65.2026 24.2374 65.6003 23.9196 65.8165 23.4875C65.9207 23.3414 65.915 23.1371 66.0845 23.0255C66.3125 23.0255 66.4763 23.1895 66.6985 23.2071C66.7683 23.2593 66.6626 23.3057 66.6569 23.3639C66.6106 23.7617 66.4584 24.0915 66.4885 24.4999H66.5287C66.8382 24.1735 67.0485 23.8196 67.2764 23.4456L67.3167 23.1132C67.3689 22.7159 66.9369 22.4596 66.6569 22.2958L66.9083 21.9749L66.5584 21.8516C66.1488 21.8933 65.7809 22.0617 65.4947 22.3835C65.1384 23.0376 65.0805 23.7759 65.0566 24.5698L65.0567 24.5698Z" fill="white"/>
<path fill-rule="evenodd" clip-rule="evenodd" d="M66.6289 21.1039C66.7629 21.1454 66.8853 21.0339 67.0192 21.0932C67.5573 21.2913 68.1176 21.4956 68.5209 21.9455L68.9994 23.1661L69.2389 22.4132L69.0811 22.0037C68.9474 21.7116 68.5791 21.7355 68.3275 21.7234C68.2232 21.6072 68.3334 21.4717 68.3693 21.3613C68.4914 20.947 67.9833 20.9696 67.779 20.8011C67.791 20.5493 67.4871 20.6373 67.3173 20.6137L67.2591 20.5437C67.2247 20.4911 67.137 20.4911 67.0896 20.5316C67.0776 20.515 67.0549 20.5032 67.0669 20.4736L66.9374 20.5032C66.7572 20.6612 66.6346 20.8653 66.6289 21.1039L66.6289 21.1039Z" fill="white"/>
<path fill-rule="evenodd" clip-rule="evenodd" d="M66.9668 19.7612C66.9847 19.8373 67.0312 19.913 67.0894 19.9595C67.3528 19.8895 67.6031 19.7092 67.907 19.8194C68.2987 20.1637 68.7071 20.5258 69.181 20.7131L69.3495 20.6836C69.4549 20.7193 69.5713 20.725 69.6413 20.8414C69.7064 20.9992 69.543 21.0931 69.4896 21.2212C69.753 21.4139 69.6474 21.759 69.8112 21.9919L70.2315 21.4312C70.133 21.1857 70.2372 20.7655 69.8515 20.7429C69.7234 20.6776 69.6355 20.5493 69.6413 20.4034C69.3909 20.1754 69.081 20.0768 68.8294 19.843C68.6254 19.6792 68.503 19.4278 68.2394 19.3696C68.059 19.2711 67.8609 19.2177 67.6507 19.1715C67.2589 19.1133 67.2246 19.5796 66.9669 19.7613L66.9668 19.7612Z" fill="white"/>
<path fill-rule="evenodd" clip-rule="evenodd" d="M67.5274 18.611L67.5978 18.7217C67.8895 18.7039 68.1533 18.5758 68.4395 18.5815C68.6314 18.6991 68.8832 18.6931 69.0813 18.7918C69.2391 19.0076 69.4091 19.2534 69.6417 19.3995C70.1154 19.4693 70.3777 19.9775 70.5414 20.3512V20.1697C70.6116 19.9193 70.5357 19.6271 70.4418 19.3995C70.3254 19.2818 70.1557 19.2059 70.0335 19.1012C70.0098 19.0257 70.0275 18.9899 70.051 18.9199C69.8696 18.7274 69.6011 18.6218 69.3793 18.471C69.0695 18.021 68.4736 18.1436 68.0011 18.021L67.5273 18.6109L67.5274 18.611Z" fill="white"/>
<path fill-rule="evenodd" clip-rule="evenodd" d="M67.5176 14.326C67.5697 14.5075 67.6327 14.7355 67.6674 14.9278C67.8309 14.5656 68.1538 14.4033 68.4399 14.105C68.2761 13.9934 68.0721 13.9412 67.8913 13.9056V13.895C67.7622 14.0233 67.5639 14.1515 67.5176 14.326Z" fill="white"/>
<path fill-rule="evenodd" clip-rule="evenodd" d="M68.5801 16.2476L68.8426 15.979C69.106 15.711 69.322 15.4009 69.3625 15.0568C69.1761 14.9456 68.9303 15.0211 68.7497 15.0853C68.6845 15.4653 68.5863 15.8391 68.5801 16.2476Z" fill="white"/>
<path fill-rule="evenodd" clip-rule="evenodd" d="M68.7715 17.0716C69.1752 17.0955 69.5658 17.1758 69.8932 16.9494L70.2198 15.8975C70.1154 15.8915 70.0098 15.8454 69.9111 15.8799C69.6951 16.3592 69.2617 16.8318 68.7715 17.0716Z" fill="white"/>
<path fill-rule="evenodd" clip-rule="evenodd" d="M68.891 13.3452C69.1533 13.7312 69.5917 14.1634 70.0415 14.2854C69.9888 13.7953 69.5691 13.4558 69.3529 13.0356L69.3409 12.8953C69.1714 12.7315 68.967 12.6211 68.7914 12.5332C68.7628 12.8136 68.8388 13.083 68.891 13.3452L68.891 13.3452Z" fill="white"/>
<path fill-rule="evenodd" clip-rule="evenodd" d="M70.3145 17.118C70.6244 17.1713 70.9568 17.118 71.2428 17.0298C71.6584 16.9316 71.8862 16.4757 72.0261 16.1196H71.5062L70.9448 16.6682C70.724 16.7856 70.5128 16.9613 70.3145 17.118H70.3145Z" fill="white"/>
<path fill-rule="evenodd" clip-rule="evenodd" d="M70.25 12.8135C70.3378 13.2692 70.53 13.6837 70.7936 14.0755L70.8636 13.2053L70.25 12.8135Z" fill="white"/>
<path fill-rule="evenodd" clip-rule="evenodd" d="M72.166 15.0856C72.2007 14.7937 72.0797 14.4555 72.0452 14.1574C71.8693 14.0397 71.6236 14.0516 71.4434 13.9355C71.4551 14.3973 71.8163 14.7878 72.166 15.0856Z" fill="white"/>
<path fill-rule="evenodd" clip-rule="evenodd" d="M71.6328 18.0531C72.001 17.9357 72.3568 17.8074 72.6951 17.6199C72.9111 17.3114 73.2389 17.0296 73.2852 16.668C73.0168 16.7437 72.783 16.6572 72.5325 16.7792C72.3806 17.0536 72.287 17.3635 71.995 17.5617C71.9484 17.76 71.7324 17.8951 71.6328 18.0531V18.0531Z" fill="white"/>
<path fill-rule="evenodd" clip-rule="evenodd" d="M72.2051 18.7714L72.6433 19.3433C72.8772 19.4194 73.1692 19.3955 73.3733 19.2614L73.2152 18.7417C72.9065 18.8592 72.5389 18.8234 72.2051 18.7714Z" fill="white"/>
<path fill-rule="evenodd" clip-rule="evenodd" d="M72.9355 14.6358L73.105 15.4074C73.5137 15.0738 73.5966 14.5894 73.5858 14.0757C73.352 14.3437 73.2154 14.5075 72.9355 14.6357V14.6358Z" fill="white"/>
<path fill-rule="evenodd" clip-rule="evenodd" d="M74.0859 15.9971C74.092 16.1075 74.1215 16.2131 74.1859 16.301C74.6416 16.4638 74.6879 17.0194 75.1091 17.2294C75.3835 17.3518 75.698 17.1996 75.9379 17.0894C75.7573 16.8851 75.5521 16.7438 75.3777 16.5278C75.2542 16.4756 75.1318 16.3995 75.1378 16.2478L74.0859 15.9971Z" fill="white"/>
<path fill-rule="evenodd" clip-rule="evenodd" d="M74.4481 18.7533C74.6474 18.9812 74.9158 19.0976 75.196 19.1616C75.1496 19.0976 75.2255 19.1616 75.2374 19.1211L74.886 18.3511C74.7114 18.3557 74.5301 18.3912 74.3672 18.3795C74.378 18.5078 74.4077 18.6361 74.4481 18.7533V18.7533Z" fill="white"/>
<path fill-rule="evenodd" clip-rule="evenodd" d="M75.067 15.1556C74.9032 14.7758 74.8342 14.3152 74.788 13.895C74.6124 14.105 74.4317 14.2395 74.2681 14.4554C74.1922 14.8874 74.8092 14.9932 75.067 15.1556V15.1556Z" fill="white"/>
<path fill-rule="evenodd" clip-rule="evenodd" d="M75.7802 14.7592C75.9906 15.0334 76.4521 14.9394 76.71 14.8577C76.5865 14.6474 76.1912 14.5251 76.1211 14.2973C76.0794 13.8949 75.9989 13.503 75.8694 13.1353C75.6653 13.6313 75.4186 14.2214 75.7802 14.7592Z" fill="white"/>
<path fill-rule="evenodd" clip-rule="evenodd" d="M76.1484 15.9969C76.7324 16.4233 77.3045 16.9193 78.1225 16.7388C78.1807 16.6974 78.2803 16.7033 78.2921 16.6274C78.0524 16.4754 77.7961 16.3591 77.5502 16.2191L77.2702 15.8096H77.1419C76.826 15.9152 76.4867 15.9555 76.1484 15.9969V15.9969Z" fill="white"/>
<path fill-rule="evenodd" clip-rule="evenodd" d="M76.1602 20.7331H76.2005C76.5522 20.4532 76.9663 20.3595 77.3806 20.2421C77.4922 20.2833 77.422 20.4055 77.5205 20.4533C77.7723 20.3477 78.0762 20.3712 78.3325 20.2833C78.6424 20.2951 78.8941 20.3013 79.1445 20.4354C79.3426 20.6976 79.7167 20.6693 79.9743 20.8437L79.9327 20.4354C79.39 19.7979 78.5428 19.7517 77.7605 19.7636L77.7425 19.6816C77.5561 19.6816 77.3462 19.7232 77.1706 19.805C76.9199 19.8156 76.6804 19.9392 76.4404 20.0151C76.33 20.2373 76.2422 20.5055 76.1602 20.7331V20.7331Z" fill="white"/>
<path fill-rule="evenodd" clip-rule="evenodd" d="M76.628 13.5552C76.8557 13.8531 77.1943 14.0808 77.5799 14.0053C77.3816 13.8126 77.1539 13.6074 77.1416 13.3333C77.1999 12.8134 76.628 12.773 76.3477 12.5034C76.4402 12.8548 76.4297 13.2455 76.628 13.5553V13.5552Z" fill="white"/>
<path fill-rule="evenodd" clip-rule="evenodd" d="M76.5684 21.7676H76.6372C76.9473 21.574 77.3971 21.7202 77.7009 21.5158C77.8705 21.4279 77.8813 21.6618 77.9988 21.7258C78.285 21.9015 78.3193 22.4263 78.7228 22.3039C79.2073 22.5555 79.0847 23.1458 79.1028 23.5778L79.5527 23.2976C79.5113 23.0697 79.6393 22.7942 79.4934 22.596C79.383 22.3455 79.0793 22.3216 78.933 22.1178C79.1087 21.8198 78.7112 21.6799 78.6294 21.4637L78.653 21.4341L79.2712 21.5159C79.4826 21.6441 79.5573 21.878 79.6217 22.094C80.1071 22.1757 80.2233 22.7241 80.3933 23.0754C80.4927 22.8359 80.533 22.5782 80.633 22.3455C80.6387 22.1522 80.3814 22.1522 80.2532 22.0655C80.2176 21.7676 80.0832 21.4862 79.8212 21.3059C79.2831 21.1718 78.8105 20.8735 78.2208 20.8735L77.7296 21.0255C77.461 21.0895 77.175 21.0078 76.9708 21.1941C76.6669 21.2176 76.6434 21.5516 76.5684 21.7676H76.5684Z" fill="white"/>
<path fill-rule="evenodd" clip-rule="evenodd" d="M76.8789 19.3611L76.9902 19.4131C77.2288 19.3018 77.4687 19.1736 77.7204 19.0798C78.111 18.9692 78.4149 19.4131 78.7424 19.1332C78.865 19.0455 78.9692 19.1736 79.0629 19.2436C79.203 19.501 79.5307 19.4831 79.7751 19.5536C79.6528 19.221 79.5013 18.7651 79.0748 18.7115C78.9053 18.636 78.7066 18.6431 78.5432 18.5429C78.0942 18.0471 77.8022 18.9516 77.3109 18.7294C77.1363 18.9231 76.9203 19.1037 76.8789 19.3611Z" fill="white"/>
<path fill-rule="evenodd" clip-rule="evenodd" d="M76.9903 22.2055C77.1767 22.3619 77.3692 22.6315 77.6609 22.5958C78.0244 22.7656 77.8723 23.2439 78.0708 23.4955L78.2808 23.3082L78.2629 23.2974L78.2926 23.2678L78.3047 23.2855C78.3627 23.1098 78.2808 22.8001 78.1812 22.5958C78.0469 22.5032 77.8891 22.6018 77.761 22.5141C77.743 22.3276 77.6266 22.2337 77.4927 22.1176C77.3989 22.0472 77.2765 22.1411 77.171 22.1351L76.9902 22.2055H76.9903Z" fill="white"/>
<path fill-rule="evenodd" clip-rule="evenodd" d="M77.7188 15.0856C77.911 15.4074 78.285 15.6056 78.5829 15.8275C78.8274 15.9389 79.1491 15.9676 79.4125 15.9092C79.161 15.7051 78.933 15.4715 78.7228 15.2255C78.6411 15.1094 78.6232 14.9635 78.5128 14.8579C78.2376 14.911 77.9287 14.9053 77.7188 15.0856Z" fill="white"/>
<path fill-rule="evenodd" clip-rule="evenodd" d="M78.041 12.9951C78.3104 13.3273 78.7247 13.1934 79.1046 13.2053V13.1648L78.5204 12.6733C78.3566 12.7266 78.1822 12.8717 78.0411 12.9952L78.041 12.9951Z" fill="white"/>
<path fill-rule="evenodd" clip-rule="evenodd" d="M67.291 7.48761L67.6293 8.53892C67.6234 7.94297 67.8978 7.4471 67.8396 6.83946L68.0913 6.46533L67.5594 6.62913C67.4193 6.8973 67.3029 7.16688 67.2911 7.48761H67.291Z" fill="white"/>
<path fill-rule="evenodd" clip-rule="evenodd" d="M67.5176 5.66513L67.9782 5.3966V4.71289C67.7857 4.83069 67.6801 5.02886 67.5292 5.18663L67.5176 5.6651V5.66513Z" fill="white"/>
<path fill-rule="evenodd" clip-rule="evenodd" d="M76.9902 6.72866C76.8786 6.87477 76.71 6.90946 76.5699 6.939C76.8147 6.48912 76.932 5.86361 76.7385 5.35539C76.8676 5.30904 77.0081 5.28658 77.1302 5.21546L77.1183 5.20467L77.4401 4.92339C77.8661 4.63132 77.7022 4.07679 77.8604 3.66265C77.6501 3.33517 77.586 2.9384 77.2823 2.66334L77.3002 2.65254C77.0603 2.34859 76.6283 2.38293 76.3005 2.23115C75.8683 2.08519 75.536 2.38293 75.2264 2.58247C75.0921 2.60514 75.1738 2.7806 75.0279 2.7746C74.9462 2.99079 74.8464 3.22466 74.7882 3.46344C74.2101 3.38134 73.5856 3.44644 73.1241 3.77302C72.8784 3.59258 72.5803 3.55702 72.2941 3.47528C72.0843 3.43477 71.8444 3.51084 71.6935 3.39304C71.4715 3.14271 71.4241 2.68687 71.0442 2.62283C70.9104 2.57629 70.8816 2.43033 70.8816 2.30119C70.63 2.26086 70.4079 2.14447 70.1623 2.09086C69.7896 1.92139 69.4917 2.19083 69.2104 2.37127C69.088 2.42466 68.9479 2.44112 68.8315 2.51243C68.6215 2.83901 68.422 3.17224 68.2881 3.53348C68.3295 3.83122 68.4576 4.09458 68.6097 4.34546C68.7438 4.72526 69.1639 5.02296 69.5204 5.1751C69.3516 5.75303 69.3516 6.44259 69.5204 7.02691C69.5204 7.02691 69.5105 7.03377 69.5105 7.03272C69.5105 7.03377 69.4917 7.04914 69.4917 7.04914C69.4358 7.04914 69.3767 7.05994 69.3302 7.03272H69.3231C69.4049 7.59065 69.6674 8.07854 70.0923 8.49743C70.2441 8.55105 70.2097 8.73131 70.2741 8.84875C70.3145 8.90095 70.3201 9.01132 70.3023 9.05876C69.3921 9.02919 68.5801 9.25725 67.8501 9.67153C67.6636 9.7651 67.7454 10.0228 67.7279 10.2031C68.2416 9.865 68.7961 9.61329 69.4096 9.50293C69.672 9.48524 69.9702 9.42083 70.2214 9.49108L70.2502 9.99327C69.5557 10.3552 68.7961 10.5652 68.2002 11.1612C68.212 11.3414 68.1777 11.5528 68.2299 11.7047L68.7614 11.2715C69.2744 10.8811 69.8119 10.5475 70.4022 10.3313C70.56 10.519 70.724 10.7173 70.9339 10.8333C71.2898 10.6056 71.6758 10.4369 72.0843 10.3313C72.3003 10.203 72.6445 10.3195 72.7845 10.0631L72.8842 9.53138C72.8664 9.51935 72.8558 9.49686 72.826 9.50289C72.5516 9.34509 72.3703 9.07071 72.3938 8.74914C72.3002 8.79528 72.1955 8.82485 72.0842 8.83102C71.9905 8.80734 71.9034 8.78488 71.8622 8.69094C71.856 8.57347 71.7978 8.39884 71.9142 8.31111C72.2941 8.07724 72.7844 8.06539 73.264 8.10114C73.6199 8.14728 74.1342 8.12926 74.2562 8.55101C74.2398 8.67307 74.2506 8.80734 74.128 8.88922C73.9997 8.95911 73.8538 8.88305 73.7363 8.83102C73.6438 9.11692 73.486 9.43866 73.1642 9.53138L73.2058 9.87067C73.2461 10.0228 73.2578 10.2731 73.4979 10.2209C74.0524 10.3552 74.5425 10.6413 75.0279 10.9512C75.1908 10.7872 75.3199 10.5998 75.4363 10.4313C76.3005 10.7232 77.0484 11.3715 77.7605 11.9731L77.7905 11.4828C77.1125 10.8811 76.3587 10.4548 75.5763 10.1215C75.606 9.96356 75.6407 9.81142 75.6463 9.64286C76.5759 9.69503 77.4565 9.98146 78.2223 10.4313L78.2103 10.011C77.4045 9.57896 76.5225 9.29259 75.5586 9.2809C75.5241 9.22728 75.5124 9.15266 75.5181 9.09923C75.9858 9.02334 76.3182 8.53881 76.43 8.1176C76.6684 7.8434 77.0139 7.5457 76.932 7.13705C76.9426 7.1038 76.9545 7.06806 76.9663 7.03268C76.9987 6.93044 77.0245 6.82394 76.9902 6.72859V6.72866Z" fill="white"/>
<path fill-rule="evenodd" clip-rule="evenodd" d="M77.8028 8.22939L78.2813 8.07725L78.3334 7.80908C78.4686 7.4174 78.1825 7.12537 78.0414 6.81543L77.8027 8.22939H77.8028Z" fill="white"/>
<path fill-rule="evenodd" clip-rule="evenodd" d="M79.011 10.081C79.2391 10.3313 79.4609 10.7352 79.8648 10.6115C79.8349 10.4431 79.7412 10.303 79.683 10.1509C79.5773 10.0274 79.5431 9.67731 79.3328 9.8006C79.175 9.69497 79.1347 9.51933 79.0349 9.37939C78.9885 9.5954 79.0172 9.86494 79.011 10.0809L79.011 10.081Z" fill="white"/>
<path fill-rule="evenodd" clip-rule="evenodd" d="M79.0938 11.7914C79.1817 11.9151 79.2052 12.0727 79.2921 12.1836C79.4499 12.288 79.6837 12.2714 79.876 12.2535C80.0515 12.213 80.1622 12.4053 80.3257 12.2938C80.1219 12.1656 79.9993 11.9317 79.806 11.7633C79.578 11.5816 79.3335 11.7395 79.0938 11.7915L79.0938 11.7914Z" fill="white"/>
<path fill-rule="evenodd" clip-rule="evenodd" d="M79.4025 14.5076C79.805 14.7476 80.3176 14.9815 80.8554 14.8994C80.9136 14.8697 81.0132 14.8759 81.024 14.8055C80.6915 14.688 80.3425 14.3554 79.9926 14.2856C79.7991 13.9879 79.5484 14.3617 79.3027 14.3378C79.3089 14.4082 79.379 14.4613 79.4025 14.5076V14.5076Z" fill="white"/>
<path fill-rule="evenodd" clip-rule="evenodd" d="M80.6152 19.6641L80.7032 19.8516C80.7909 20.4592 81.1757 21.0197 80.9653 21.6855C81.141 21.8079 81.1936 22.0122 81.3039 22.1757H81.3333C81.4678 21.668 81.3749 21.142 81.3039 20.634C81.3574 20.1723 80.8896 19.9038 80.6153 19.6641H80.6152Z" fill="white"/>
<path fill-rule="evenodd" clip-rule="evenodd" d="M80.7168 13.6837C81.0207 13.9176 81.5049 13.9411 81.8551 13.8237C81.6332 13.7016 81.3885 13.5673 81.2068 13.4033L80.7168 13.6837H80.7168Z" fill="white"/>
<path fill-rule="evenodd" clip-rule="evenodd" d="M82.1582 15.4773C82.1286 15.7228 82.2924 15.9272 82.4681 16.0496C82.532 15.9034 82.6367 15.781 82.6485 15.6172C82.5964 15.3658 82.4564 15.1391 82.2282 14.9692C82.1868 15.133 82.1405 15.2898 82.1582 15.4773V15.4773Z" fill="white"/>
<path fill-rule="evenodd" clip-rule="evenodd" d="M82.1757 18.1396C82.1343 18.4138 82.4381 18.4496 82.5663 18.6013C82.6721 18.7294 82.4965 18.8172 82.4965 18.9398C82.7181 19.2258 82.8464 19.5536 82.8464 19.9331C82.9341 19.5771 83.0686 19.2375 83.116 18.8699C83.0925 18.6134 82.6838 18.6656 82.7482 18.3795C82.864 18.0876 82.7243 17.8015 82.6482 17.5391C82.6245 17.4974 82.5722 17.4154 82.526 17.4393C82.4204 17.679 82.1578 17.8476 82.1757 18.1397V18.1396Z" fill="white"/>
<path fill-rule="evenodd" clip-rule="evenodd" d="M82.9766 16.7497L83.2805 17.3395C83.4148 17.323 83.5011 17.1933 83.6069 17.1008C83.6892 16.8553 83.4726 16.6973 83.4087 16.4992C83.3552 16.3589 83.4087 16.1715 83.309 16.0493C83.2331 16.0028 83.1452 15.9269 83.0574 15.9494L82.9766 16.7497V16.7497Z" fill="white"/>
<path fill-rule="evenodd" clip-rule="evenodd" d="M83.3672 15.1973C83.6067 15.3433 83.8809 15.5533 84.0091 15.8097C84.2143 16.4057 84.5407 16.9433 84.7806 17.5212C84.8685 17.9239 84.9386 18.2835 85.049 18.6813C85.0907 18.7855 85.0668 18.9899 85.2306 18.9729C85.2772 18.5292 85.3649 18.1031 85.3706 17.6412C85.2244 17.4491 85.0311 17.367 84.8507 17.2495V17.209C84.8746 17.1096 84.9563 16.993 85.0789 17.0111C85.1311 16.9516 85.2889 16.8936 85.219 16.7888C84.9151 16.4849 84.9328 15.9615 84.4474 15.8679C84.2788 15.7979 84.237 15.6232 84.2206 15.4593C83.9926 15.2673 83.6531 15.2019 83.3672 15.1973L83.3672 15.1973Z" fill="white"/>
<path fill-rule="evenodd" clip-rule="evenodd" d="M83.6473 18.3618C83.9454 18.636 83.8409 19.0332 83.8171 19.4014C83.771 19.6234 84.0512 19.4951 84.1389 19.6114C84.3194 19.8799 84.2146 20.2716 84.1495 20.5636C84.3075 20.3236 84.489 20.1138 84.6114 19.8513C84.6053 19.7517 84.7335 19.7053 84.7289 19.5831C84.7809 19.4131 84.583 19.4893 84.501 19.4715C84.4308 19.4536 84.3549 19.4074 84.3776 19.3136C84.5293 19.0216 84.3894 18.6712 84.3311 18.3794C84.2612 18.1396 84.3608 17.819 84.2493 17.6089C84.0629 17.8654 83.5074 17.9236 83.6474 18.3618H83.6473Z" fill="white"/>
<path fill-rule="evenodd" clip-rule="evenodd" d="M84.1895 14.2154C84.7094 14.7413 85.0893 15.2697 85.6494 15.7778C85.6612 15.551 85.6317 15.3396 85.6199 15.1176C85.5378 14.961 85.386 14.8434 85.2577 14.7274C84.8436 14.6856 84.6274 14.1277 84.1895 14.2154H84.1895Z" fill="white"/>
<path fill-rule="evenodd" clip-rule="evenodd" d="M85.5508 16.9991C85.5625 17.0513 85.586 17.0976 85.6087 17.1509C85.8367 17.5248 86.0527 17.9096 86.2107 18.3129C86.1641 17.8811 86.4562 17.3434 86.0705 17.011C86.0185 16.8708 85.8425 16.917 85.7321 16.929L85.5508 16.9991H85.5508Z" fill="white"/>
<path fill-rule="evenodd" clip-rule="evenodd" d="M86.9531 21.2652C87.117 21.3399 87.3269 21.2056 87.4847 21.1131C87.6308 21.0775 87.7533 21.1596 87.8647 21.2353C87.911 21.3291 87.8647 21.416 87.8815 21.5039C88.2329 21.6033 88.5769 21.7315 88.8869 21.9357L88.9852 21.8372C89.0091 21.5856 88.8109 21.4053 88.6234 21.2653C88.501 21.1938 88.3191 21.2354 88.2328 21.1239C88.291 21.0314 88.291 20.8911 88.2848 20.7855C88.0915 20.7855 87.9692 20.7275 87.8115 20.6337C87.7129 20.6051 87.625 20.5233 87.5429 20.6337C87.2509 20.8318 87.2331 21.1239 86.9531 21.2652Z" fill="white"/>
<path fill-rule="evenodd" clip-rule="evenodd" d="M87.3611 13.9152C87.5071 13.8747 87.6589 13.8329 87.7815 13.7287C88.1717 13.3722 88.7394 13.6111 89.1938 13.6052C89.1072 13.4474 88.9837 13.2907 88.8733 13.1554C88.7097 13.0909 88.5575 13.0152 88.3713 13.0152C87.9736 12.7824 87.7054 13.173 87.4015 13.3654C87.3196 13.5244 87.2795 13.757 87.3612 13.9151L87.3611 13.9152Z" fill="white"/>
<path fill-rule="evenodd" clip-rule="evenodd" d="M87.3732 15.1173C87.3732 15.1008 87.3732 15.083 87.3909 15.077C87.4432 15.1244 87.3849 15.2348 87.4726 15.2578C87.6247 15.1826 87.7648 15.077 87.9048 14.9784C88.2964 14.9784 88.5303 14.5988 88.9148 14.5988C89.5571 14.7148 90.1946 14.8431 90.7548 15.159C90.7145 14.779 90.387 14.435 90.0546 14.265C89.8673 14.2011 89.721 14.3005 89.5869 14.4052C89.195 14.651 89.4004 14.049 89.1252 14.0371C88.7687 14.1487 88.4011 14.271 88.0045 14.2366C87.7708 14.3231 87.607 14.5392 87.3445 14.5167C87.3327 14.7092 87.3031 14.943 87.3732 15.1173V15.1173Z" fill="white"/>
<path fill-rule="evenodd" clip-rule="evenodd" d="M87.6425 16.4213C87.7647 16.5493 87.9689 16.5254 88.1445 16.5493L88.6527 16.3514C88.6583 16.2574 88.5005 16.2334 88.5347 16.1292C88.6752 15.9714 88.8687 16.0817 89.0429 16.0174C89.289 15.983 89.5401 15.7373 89.7848 15.9188C89.7791 15.9475 89.7967 15.9893 89.774 16.0174C89.6971 16.1992 89.8265 16.3094 89.9665 16.3795C90.2526 16.4331 90.5207 16.6955 90.8071 16.5778C90.7785 16.339 90.7142 16.1175 90.655 15.8891C90.4163 15.8479 90.2469 15.6496 90.0247 15.5675C89.9247 15.6615 89.7967 15.7315 89.6744 15.7197C89.2245 15.6149 88.6868 15.3351 88.2324 15.6212C88.0684 15.8193 87.7763 15.7611 87.5547 15.8479C87.5663 16.0471 87.589 16.2396 87.6424 16.4213H87.6425Z" fill="white"/>
<path fill-rule="evenodd" clip-rule="evenodd" d="M87.8343 19.892C87.7988 19.9914 87.7002 20.1554 87.8808 20.2018C88.2546 20.2136 88.734 20.0211 89.0261 20.3121C89.1248 20.3893 89.0785 20.546 89.0726 20.6456L89.5629 21.0551C89.6103 20.8096 89.6969 20.5874 89.7029 20.3239C89.6624 20.1376 89.5686 19.9559 89.4062 19.8337C89.0844 19.8337 88.8966 19.4574 88.5525 19.505C88.3721 19.4632 88.2143 19.6237 88.0326 19.6237C87.9509 19.7056 87.9044 19.8052 87.8343 19.892V19.892Z" fill="white"/>
<path fill-rule="evenodd" clip-rule="evenodd" d="M87.9751 17.1391C88.051 17.296 88.1389 17.5534 88.2849 17.5711C88.6291 17.4193 89.1312 17.3255 89.5171 17.4893C89.6454 17.5129 89.6454 17.659 89.6168 17.753C89.8149 17.8694 90.055 17.9618 90.2647 18.091L90.2071 17.7411C90.1949 17.3611 89.7155 17.3255 89.6867 16.9516C89.2952 16.8235 88.857 16.783 88.4429 16.8817C88.3075 17.0048 88.1154 16.9871 87.9516 17.0227C87.9408 17.0692 87.9693 17.0977 87.9751 17.1391L87.9751 17.1391Z" fill="white"/>
<path fill-rule="evenodd" clip-rule="evenodd" d="M88.0746 19.031C88.3025 18.967 88.4472 18.7152 88.6932 18.6928C89.067 18.6988 89.4005 18.8497 89.6333 19.1713C89.7743 19.2649 89.7447 19.5047 89.925 19.5047C89.8728 19.2174 89.9667 18.9553 89.9551 18.6632C89.709 18.2546 89.1027 18.5693 88.8745 18.0908L88.4425 18.1195C88.1328 18.1955 88.2147 18.5585 88.1729 18.8032C88.1386 18.8792 88.0686 18.9374 88.0746 19.031H88.0746Z" fill="white"/>
<path fill-rule="evenodd" clip-rule="evenodd" d="M90.2168 21.5856C90.3987 21.9475 90.7963 22.2219 90.8367 22.6374C90.9306 22.5258 90.9947 22.3975 91.0589 22.2753C91.0527 22.1575 90.9184 22.1575 90.865 22.0651C90.8128 21.9134 90.8949 21.7789 90.9184 21.6438C90.8425 21.4276 90.661 21.2234 90.4569 21.0952L90.2168 21.5856L90.2168 21.5856Z" fill="white"/>
<path fill-rule="evenodd" clip-rule="evenodd" d="M90.9355 20.6632L91.3557 21.2353C91.5361 20.9493 91.5361 20.529 91.4661 20.1838C91.4256 20.1194 91.3497 20.0151 91.244 20.0612C91.0861 20.225 91.0636 20.4757 90.9355 20.6632V20.6632Z" fill="white"/>
<path fill-rule="evenodd" clip-rule="evenodd" d="M89.2246 4.67642C89.3767 4.75249 89.5227 4.82253 89.7031 4.83422C89.8266 4.77036 89.9844 4.72382 90.1362 4.76415C90.3522 4.90426 90.6147 4.73462 90.865 4.74628C90.6442 4.53648 90.3925 4.40821 90.1362 4.28564C89.8087 4.35568 89.5464 4.58847 89.2246 4.67642Z" fill="white"/>
<path fill-rule="evenodd" clip-rule="evenodd" d="M91.5078 5.22599C91.8166 5.25466 92.0382 5.52886 92.2485 5.75811C92.5121 5.79844 92.7102 5.98491 92.868 6.17827L92.7684 5.86833C92.6984 5.55839 92.5059 5.31852 92.3078 5.07422C92.0279 5.09209 91.7523 5.11473 91.5078 5.22599H91.5078Z" fill="white"/>
<path fill-rule="evenodd" clip-rule="evenodd" d="M69.7131 2.66309L69.8825 2.68078C70.3386 2.90862 71.0745 3.02501 71.1148 3.685C70.6545 3.86653 70.2103 4.11224 69.8426 4.48514C69.5622 4.19889 68.995 4.35687 68.9023 3.85487C68.9903 3.38113 69.1588 2.78638 69.7131 2.66309Z" fill="#FF6600"/>
<path fill-rule="evenodd" clip-rule="evenodd" d="M70.1522 5.6248C70.6827 5.57845 71.197 5.65311 71.7464 5.60693C71.8807 5.66513 72.0206 5.78261 72.085 5.91651C72.0671 6.54715 71.8747 7.1488 71.8451 7.79677C71.6065 7.89692 71.3727 8.09487 71.3144 8.35755C71.0984 8.42142 70.9049 8.55092 70.6946 8.64908C70.601 8.45095 70.6189 8.15307 70.7829 7.99032C71.0106 7.66853 71.6003 7.74478 71.5529 7.23657C71.7051 6.991 71.5591 6.67546 71.5648 6.41895C71.5066 6.22645 71.4487 6.48278 71.3548 6.47715C71.1685 6.51711 70.975 6.52932 70.8124 6.43679C70.689 6.30714 70.5368 6.20291 70.5025 6.02728C70.3387 5.94518 70.1466 5.81694 70.0645 5.64726L70.1522 5.6248Z" fill="#FF6600"/>
<path fill-rule="evenodd" clip-rule="evenodd" d="M70.7951 9.4329C71.0455 9.46742 71.309 9.35701 71.525 9.47908C71.4776 9.56117 71.3554 9.59551 71.2568 9.61937L70.8651 9.80072C70.719 9.76515 70.8007 9.53146 70.7951 9.4329H70.7951Z" fill="#FF6600"/>
<path fill-rule="evenodd" clip-rule="evenodd" d="M71.8165 4.55513C72.0671 4.47339 72.3364 4.30483 72.6049 4.38653C72.4123 4.57921 72.2607 4.83074 72.1146 5.06334L71.3145 5.04674C71.4012 4.83655 71.623 4.66087 71.8165 4.55513Z" fill="#FF6600"/>
<path fill-rule="evenodd" clip-rule="evenodd" d="M74.1583 4.36292C74.4904 4.30472 74.4725 4.73672 74.7767 4.75456C74.8298 4.82463 74.9059 4.8885 74.8763 4.99323C74.7007 5.06327 74.4442 5.02879 74.2448 5.07497C73.9823 4.92883 74.1521 4.47332 73.7366 4.50289C73.7141 4.46855 73.6667 4.39815 73.7258 4.37462C73.8541 4.32826 74.0227 4.34526 74.1583 4.36295L74.1583 4.36292Z" fill="#FF6600"/>
<path fill-rule="evenodd" clip-rule="evenodd" d="M73.949 5.92848C74.0949 5.72309 74.3172 5.70645 74.5271 5.66504L76.0396 5.69461C76.1034 5.7528 75.9814 5.80515 75.9814 5.87523C75.8874 5.96296 75.7532 5.98668 75.6714 6.06856C75.4733 6.07459 75.4898 6.30705 75.3498 6.4068C75.1338 6.6228 74.8192 6.52446 74.5674 6.4889C74.4796 6.42449 74.3811 6.33676 74.3395 6.23716L74.2695 6.30705C74.3574 6.63486 74.3335 6.99693 74.3977 7.32901L74.7599 7.56905C74.7655 8.10662 75.3972 7.96073 75.6714 8.25875C75.6072 8.45089 75.479 8.61487 75.3389 8.77867C75.1168 8.56248 74.8655 8.42132 74.597 8.32861C74.5734 8.01264 74.2293 7.82675 74.0357 7.66844C73.9833 7.09654 73.9716 6.5124 73.8789 5.95696L73.949 5.92848H73.949Z" fill="#FF6600"/>
<path fill-rule="evenodd" clip-rule="evenodd" d="M74.4968 9.53133H75.1982L75.1105 9.89929L74.4089 9.60137C74.3924 9.54317 74.4563 9.52548 74.4968 9.53133Z" fill="#FF6600"/>
<path fill-rule="evenodd" clip-rule="evenodd" d="M75.7585 2.91481L76.2782 2.75098C76.5763 2.89091 76.8563 3.06659 77.1305 3.26486C77.3467 3.66257 77.311 4.19905 77.2126 4.64311C77.0544 4.81875 76.7104 4.64311 76.5821 4.9233H76.5586C76.3651 4.37476 75.8167 3.88474 75.3086 3.63282C75.3903 3.35259 75.4781 3.07861 75.7585 2.91481Z" fill="#FF6600"/>
<path fill-rule="evenodd" clip-rule="evenodd" d="M87.94 25.1659H91.0559C91.5174 25.096 92.0078 25.1077 92.3757 24.7682C93.9354 25.0083 95.518 24.6223 96.7443 23.7641C97.3912 23.2416 97.9726 22.6376 98.4427 21.9775C98.857 21.396 99.1847 20.8522 99.3959 20.2018C99.5537 19.7993 99.6785 19.3815 99.7721 18.9517C100.217 16.9277 99.9837 14.6641 99.3259 12.7375C99.2038 12.3801 99.0673 12.035 98.9164 11.7047C98.0936 10.0049 96.9756 8.1712 95.2508 7.09563C94.2797 6.48997 93.386 5.55221 92.8376 4.58387C92.5397 4.31425 92.2533 3.95835 91.8677 3.89398C91.9734 4.06962 92.0898 4.23822 92.1196 4.44252L92.0955 4.47206C91.6874 4.4839 91.3657 4.2679 91.0854 4.00431L91.3954 3.72445C91.2779 3.66625 91.1436 3.64238 91.0155 3.61408C89.8353 3.47978 88.8657 4.02218 87.8211 4.28559L87.8034 4.34375C88.4454 4.63001 88.5796 5.33617 88.9534 5.81608C89.0472 5.70427 89.2052 5.78601 89.3334 5.77435C89.5199 5.78601 89.6956 5.92027 89.8758 5.87377C89.8818 5.71615 89.795 5.59391 89.7654 5.45394C89.8758 5.40036 90.0109 5.44776 90.1335 5.45394C90.4716 5.65229 91.0155 5.41823 91.2255 5.87377C90.8399 5.89764 90.4778 5.97851 90.1157 6.06642C90.1392 6.21234 90.2853 6.32982 90.2736 6.47593C89.9635 6.34628 89.6374 6.26596 89.292 6.22422L89.2752 6.27621C89.7133 6.79045 90.3138 7.09437 90.9276 7.27607C91.8095 7.48019 92.5859 7.05985 93.438 7.20599C95.5297 8.1639 97.3162 10.3551 98.0936 12.4346C98.1318 12.5345 98.1685 12.6356 98.2031 12.7374C98.8536 14.6367 98.9771 16.9719 98.3254 18.9517C97.9786 19.7768 97.5964 20.553 96.9839 21.2236C96.7525 21.5074 96.496 21.7614 96.2181 21.9774C95.3409 22.66 94.2607 22.9602 93.1473 22.6541C93.0775 22.6081 92.9361 22.5958 92.9597 22.4736C92.9991 22.3112 93.0346 22.1449 93.0667 21.9774C93.2517 21.0269 93.3361 20.0285 93.2874 19.0311C93.285 18.9883 93.2841 18.9455 93.2827 18.9029C93.2211 17.4536 92.9324 16.1502 92.3994 14.8966C92.0589 14.1774 91.6518 13.3927 91.1413 12.6886C90.5322 11.8485 89.7739 11.123 88.8018 10.7609C88.2058 10.6031 87.4697 10.5746 87.0209 11.0708C86.6993 11.3513 86.5649 11.7307 86.6114 12.1452C86.1094 12.4647 85.5442 12.6366 84.9293 12.6886C84.7788 12.7018 84.6241 12.7563 84.4686 12.7553C84.3193 12.7624 84.1743 12.7553 84.0333 12.7374C83.2924 12.646 82.5447 12.2487 81.9761 11.7912C81.9642 11.4888 81.9464 11.2014 81.9343 10.881C81.6078 10.7112 81.3398 10.3894 81.3163 10.0109L81.3458 9.98134C81.5323 10.0394 81.6957 10.1331 81.8643 10.2327C81.7886 9.777 81.7017 9.32716 81.4739 8.93036C81.2635 8.84263 81.0523 8.77256 80.854 8.66696C80.6264 8.51518 80.4802 8.24095 80.4461 7.98927C80.6499 8.18881 81.0061 8.11841 81.1641 8.32875C80.8897 7.5168 80.8837 6.58842 80.4338 5.84652C80.206 5.29725 79.6101 5.04677 79.2019 4.64307C79.0438 4.45094 78.9799 4.18241 78.6939 4.15273C78.46 4.0945 78.4422 3.83109 78.4018 3.66257C78.5478 3.67935 78.67 3.77896 78.7935 3.80246C78.4538 2.90275 78.1561 1.9047 77.2396 1.33244L77.0818 1.431C76.7257 1.48457 76.3459 1.50706 75.9896 1.51891C76.1476 1.28503 76.4277 1.18633 76.6497 1.08055C76.3919 0.888591 76.1806 0.841189 75.8589 0.788479C75.6726 0.976321 75.3357 1.06885 75.0959 1.12106L75.0673 1.09856C75.0614 0.888591 75.0128 0.630819 75.3282 0.578687C75.0246 0.43258 74.5225 0.490777 74.2127 0.578687C74.1248 0.80635 73.8754 1.01069 73.8921 1.27882C73.7119 1.46652 73.5836 1.71686 73.3959 1.85217C73.3912 1.40229 73.5814 0.987115 73.6631 0.608183C73.4006 0.706923 73.1338 0.846676 72.8773 0.970327C72.4619 0.730787 72.025 0.490777 71.5824 0.310481C71.5406 0.292647 71.4527 0.274776 71.4706 0.350844C71.8504 0.625223 71.7034 1.13893 71.7437 1.53057L71.504 1.33244C71.3875 1.03455 71.0503 0.818552 70.9921 0.490777C70.5948 0.567026 70.3406 0.672626 69.9725 0.83025L69.9213 0.858915C70.1955 0.858915 70.4294 1.0751 70.5638 1.29092C70.1495 1.3146 69.7814 1.15062 69.3733 1.1103C69.3315 1.06889 69.2972 1.02235 69.2319 1.02856C69.0276 1.10445 68.853 1.25059 68.6717 1.39067C68.2692 1.78693 67.8597 2.22652 67.6671 2.75105C67.8015 2.77459 67.971 2.76892 68.0697 2.85066C67.8489 2.98492 67.6554 3.21276 67.4394 3.34082C67.3635 3.64473 67.3752 3.98897 67.3574 4.32281C67.1888 4.57932 66.9611 4.80694 66.8493 5.09298C66.4875 6.26689 66.3936 7.56922 66.4472 8.90094C66.3294 9.0113 66.1776 9.0826 66.0674 9.16947L66.079 10.3611H66.1077C66.161 10.1097 66.4589 9.96943 66.6393 9.80068H66.6975C66.669 10.0692 66.6333 10.3373 66.6274 10.6126L66.2888 10.893C65.9508 11.191 66.2368 11.6397 66.2071 12.0135C66.2312 12.1131 66.2476 12.2591 66.3189 12.283C66.3592 12.137 66.4875 12.0314 66.5692 11.9031C66.7154 11.8674 66.8434 11.751 66.9775 11.7336C66.9029 12.0252 66.8031 12.3116 66.6856 12.5914C66.6299 12.6282 66.5632 12.6785 66.5073 12.7376C66.448 12.8018 66.4006 12.8752 66.389 12.955C66.651 14.3389 67.0642 15.705 67.5379 17.0074C67.2163 17.5501 67.0347 18.1898 66.7665 18.7514C66.7285 18.8298 66.6938 18.9091 66.6618 18.9909C66.3936 19.6699 66.3115 20.4286 65.9781 21.0816C65.8438 20.9875 65.6982 20.9177 65.5461 20.8534C64.9143 20.6434 64.1846 20.7776 63.724 21.2618C63.3145 21.1858 62.8943 21.2558 62.5725 21.4718C62.3422 21.6452 62.1639 21.8539 62.062 22.0977C61.9932 22.2663 61.9601 22.4513 61.9718 22.6519C61.7084 22.8334 61.5681 23.1134 61.4816 23.3938C61.3582 24.0253 61.5802 24.6818 61.9423 25.166H87.9399L87.94 25.1659Z" fill="white"/>
<path fill-rule="evenodd" clip-rule="evenodd" d="M99.3259 12.7375C99.2038 12.3801 99.0673 12.035 98.9164 11.7047C98.0936 10.0049 96.9756 8.1712 95.2508 7.09563C94.2797 6.48997 93.386 5.55221 92.8376 4.58387C92.5397 4.31425 92.2533 3.95835 91.8677 3.89398C91.9734 4.06962 92.0898 4.23822 92.1196 4.44253L92.0955 4.47206C91.6874 4.4839 91.3657 4.2679 91.0854 4.00431L91.3954 3.72445C91.2779 3.66625 91.1436 3.64239 91.0155 3.61408C89.8353 3.47978 88.8657 4.02218 87.8211 4.28559L87.8034 4.34375C88.4454 4.63001 88.5796 5.33617 88.9534 5.81608C89.0472 5.70427 89.2052 5.78601 89.3334 5.77435C89.5199 5.78601 89.6956 5.92028 89.8758 5.87378C89.8818 5.71615 89.795 5.59391 89.7654 5.45394C89.8758 5.40036 90.0109 5.44776 90.1335 5.45394C90.4716 5.65229 91.0155 5.41823 91.2255 5.87378C90.8399 5.89764 90.4778 5.97851 90.1157 6.06642C90.1392 6.21234 90.2853 6.32982 90.2736 6.47593C89.9635 6.34628 89.6374 6.26596 89.292 6.22422L89.2752 6.27621C89.7133 6.79045 90.3138 7.09437 90.9276 7.27607C91.8095 7.48019 92.5859 7.05985 93.438 7.206C95.5297 8.1639 97.3162 10.3551 98.0936 12.4346C98.1318 12.5346 98.1685 12.6356 98.2031 12.7374C98.8536 14.6367 98.9771 16.9719 98.3254 18.9517C97.9786 19.7768 97.5964 20.553 96.9839 21.2236C96.7525 21.5074 96.496 21.7614 96.2181 21.9774C95.3409 22.6601 94.2607 22.9602 93.1473 22.6541C93.0775 22.6081 92.9361 22.5958 92.9597 22.4736C92.9991 22.3112 93.0346 22.1449 93.0667 21.9774C93.2517 21.0269 93.3361 20.0285 93.2874 19.0311C93.285 18.9884 93.2841 18.9455 93.2827 18.9029C93.2211 17.4536 92.9324 16.1502 92.3994 14.8966C92.0589 14.1774 91.6518 13.3927 91.1413 12.6886C90.5322 11.8485 89.7739 11.123 88.8018 10.7609C88.2058 10.6031 87.4697 10.5747 87.0209 11.0708C86.6993 11.3513 86.5649 11.7307 86.6114 12.1452C86.1094 12.4647 85.5442 12.6366 84.9293 12.6886C84.7788 12.7018 84.6241 12.7563 84.4686 12.7553C84.3193 12.7624 84.1743 12.7553 84.0333 12.7374C83.2924 12.646 82.5447 12.2487 81.9761 11.7912C81.9642 11.4888 81.9464 11.2014 81.9343 10.881C81.6078 10.7112 81.3398 10.3894 81.3163 10.0109L81.3458 9.98134C81.5323 10.0394 81.6957 10.1331 81.8643 10.2327C81.7886 9.777 81.7017 9.32716 81.4739 8.93036C81.2635 8.84263 81.0523 8.77256 80.854 8.66696C80.6264 8.51518 80.4802 8.24095 80.4461 7.98928C80.6499 8.18881 81.0061 8.11841 81.1641 8.32875C80.8897 7.5168 80.8837 6.58842 80.4338 5.84652C80.206 5.29725 79.6101 5.04677 79.2019 4.64308C79.0438 4.45094 78.9799 4.18241 78.6939 4.15273C78.46 4.0945 78.4422 3.83109 78.4018 3.66257C78.5478 3.67935 78.67 3.77896 78.7935 3.80246C78.4538 2.90275 78.1561 1.9047 77.2396 1.33244L77.0818 1.431C76.7257 1.48457 76.3459 1.50706 75.9896 1.51891C76.1476 1.28503 76.4277 1.18633 76.6497 1.08055C76.3919 0.888591 76.1806 0.841189 75.8589 0.788479C75.6726 0.976321 75.3357 1.06885 75.0959 1.12106L75.0673 1.09856C75.0614 0.888591 75.0128 0.630819 75.3282 0.578687C75.0246 0.43258 74.5225 0.490777 74.2127 0.578687C74.1248 0.80635 73.8754 1.01069 73.8921 1.27882C73.7119 1.46652 73.5836 1.71686 73.3959 1.85217C73.3912 1.40229 73.5814 0.987115 73.6631 0.608183C73.4006 0.706923 73.1338 0.846676 72.8773 0.970328C72.4619 0.730787 72.025 0.490777 71.5824 0.310481C71.5406 0.292647 71.4527 0.274776 71.4706 0.350844C71.8504 0.625223 71.7034 1.13893 71.7437 1.53057L71.504 1.33244C71.3875 1.03455 71.0503 0.818552 70.9921 0.490777C70.5948 0.567026 70.3406 0.672626 69.9725 0.83025L69.9213 0.858915C70.1955 0.858915 70.4294 1.0751 70.5638 1.29092C70.1495 1.3146 69.7814 1.15062 69.3733 1.1103C69.3315 1.06889 69.2972 1.02235 69.2319 1.02856C69.0276 1.10445 68.853 1.25059 68.6717 1.39067C68.2692 1.78693 67.8597 2.22652 67.6671 2.75105C67.8015 2.77459 67.971 2.76892 68.0697 2.85066C67.8489 2.98492 67.6554 3.21276 67.4394 3.34082C67.3635 3.64473 67.3752 3.98897 67.3574 4.32281C67.1888 4.57932 66.9611 4.80694 66.8493 5.09299C66.4875 6.2669 66.3936 7.56922 66.4472 8.90094C66.3294 9.0113 66.1776 9.08261 66.0674 9.16947L66.079 10.3611H66.1077C66.161 10.1097 66.4589 9.96943 66.6393 9.80068H66.6975C66.669 10.0692 66.6333 10.3373 66.6274 10.6126L66.2888 10.893C65.9508 11.191 66.2368 11.6397 66.2071 12.0135C66.2312 12.1131 66.2476 12.2591 66.3189 12.283C66.3592 12.137 66.4875 12.0314 66.5692 11.9031C66.7154 11.8674 66.8434 11.751 66.9775 11.7337C66.9029 12.0252 66.8031 12.3116 66.6856 12.5914C66.6299 12.6282 66.5632 12.6785 66.5073 12.7376C66.448 12.8018 66.4006 12.8752 66.389 12.955C66.651 14.3389 67.0642 15.705 67.5379 17.0074C67.2163 17.5501 67.0347 18.1898 66.7665 18.7514C66.7285 18.8298 66.6938 18.9091 66.6618 18.9909C66.3936 19.6699 66.3115 20.4286 65.9781 21.0816C65.8438 20.9875 65.6982 20.9177 65.5461 20.8534C64.9143 20.6434 64.1846 20.7776 63.724 21.2618C63.3145 21.1858 62.8943 21.2558 62.5725 21.4718C62.3422 21.6452 62.1639 21.8539 62.062 22.0977C61.9932 22.2663 61.9601 22.4513 61.9718 22.6519C61.7084 22.8334 61.5681 23.1134 61.4816 23.3938C61.3582 24.0253 61.5802 24.6818 61.9423 25.166H72.2624C72.1106 24.9857 71.9701 24.734 71.8646 24.518C71.6429 24.1842 71.7947 23.7117 71.771 23.3262C71.9811 22.9022 72.1949 22.4748 72.4356 22.0596C72.4844 21.9764 72.5329 21.8944 72.5829 21.8135L73.0563 21.6324C73.3072 21.6324 73.5184 21.4514 73.757 21.5158C74.0786 21.8374 74.0786 21.1952 74.3883 21.1655C75.1124 21.0719 75.8307 21.142 76.2389 21.7556C76.2389 21.8374 76.3684 21.8374 76.3388 21.9136C76.2449 21.9418 76.1571 21.8839 76.0586 21.8839C75.6147 21.7732 75.0943 21.4919 74.6566 21.7436C74.6399 21.8482 74.6172 21.9548 74.5961 22.0596C74.5746 22.171 74.5544 22.2804 74.545 22.386C74.8309 22.4677 75.0707 22.672 75.2869 22.894C75.4329 22.6081 75.743 22.4799 76.0172 22.386C76.2567 22.4381 76.5192 22.4442 76.7184 22.5959C77.0865 22.9356 76.9047 23.5135 76.8705 23.9455C77.2029 24.132 77.5707 24.2376 77.9091 24.418C77.7513 24.5593 77.5424 24.6174 77.3489 24.6874L76.7886 24.5762C76.7244 24.5296 76.6126 24.5296 76.5891 24.4479C76.4028 24.6462 76.1748 24.9096 76.0586 25.1659H84.0591C83.9535 24.9262 83.8314 24.7398 83.6854 24.518C83.5214 24.1677 83.5867 23.6881 83.5688 23.3143L84.3167 22.1756C84.7251 22.1698 85.1869 22.0178 85.6308 22.0939C85.6534 22.0843 85.6748 22.0723 85.6948 22.0596C85.879 21.9324 85.9347 21.6369 86.2089 21.6735C86.6992 21.5396 87.073 21.7615 87.4412 21.9835C87.4293 22.013 87.4173 22.0381 87.404 22.0596C87.2499 22.3062 86.9616 22.0309 86.7513 22.1057C86.6635 22.1995 86.793 22.3099 86.8095 22.4155C86.8857 22.5199 86.7336 22.508 86.6814 22.5261C86.5592 22.5438 86.4251 22.5142 86.3311 22.4155C86.3076 22.386 86.3253 22.3516 86.2789 22.3455C86.1733 22.5199 86.0215 22.678 85.9812 22.8761C86.1149 23.0053 86.2957 23.1335 86.361 23.2975C86.4951 23.49 86.2554 23.6359 86.2089 23.8055C86.1912 23.8399 86.1376 23.8399 86.1211 23.8055C85.9977 23.7357 85.8933 23.56 85.759 23.606C85.6415 24.1262 85.7993 24.6462 85.7293 25.1659C85.9573 25.2195 86.2253 25.1542 86.4712 25.1659L86.571 24.0681C86.6753 23.3557 87.0969 22.7599 87.5929 22.2159C88.1294 21.8492 88.4751 22.5734 88.8714 22.8241C88.9354 22.8358 88.913 22.9058 88.9414 22.9462C88.9354 23.0636 88.8134 23.11 88.7316 23.1457C88.4857 23.2322 88.3051 22.964 88.1534 22.8061C88.0074 22.964 87.9432 23.174 87.7735 23.2974L87.8314 23.3143C88.0253 23.5078 88.2114 23.7116 88.2531 23.9693C88.2293 24.2019 88.113 24.43 87.9018 24.5476C87.745 24.2778 87.6155 23.9801 87.5112 23.7059C87.517 23.7177 87.505 23.7236 87.4931 23.7356C87.1715 23.8221 87.0852 24.184 87.0316 24.4775C87.0495 24.7636 86.8333 24.88 86.8913 25.1658H91.0557C91.5173 25.0959 92.0076 25.1076 92.3756 24.7682C93.9353 25.0082 95.5178 24.6222 96.7441 23.7641C97.391 23.2415 97.9725 22.6376 98.4425 21.9774C98.8568 21.3959 99.1846 20.8521 99.3958 20.2017C99.5536 19.7992 99.6783 19.3814 99.7719 18.9517C100.217 16.9276 99.9835 14.664 99.3257 12.7374L99.3259 12.7375Z" fill="#FF6600"/>
<path fill-rule="evenodd" clip-rule="evenodd" d="M72.5235 23.5778C72.7514 23.4318 73.1195 23.3963 73.1716 23.0581C73.0789 22.9877 72.9969 22.8998 72.8913 22.8762L72.6517 22.9463C72.6694 22.8062 72.7453 22.6494 72.793 22.4973L73.5631 22.2461C73.4575 22.596 73.4172 23.0342 73.3816 23.4375C73.4518 24.0335 73.5396 24.6698 73.8435 25.166H73.0139C72.9213 24.6175 72.3478 24.2199 72.5235 23.5778Z" fill="#FF6600"/>
<path fill-rule="evenodd" clip-rule="evenodd" d="M74.3175 22.876H74.364L74.9241 23.3852L75.0058 23.3672C74.9598 23.9632 74.9303 24.5475 74.9241 25.1657H74.3175C74.194 24.5878 73.9901 23.98 74.0136 23.3555C74.1183 23.1977 74.1882 22.9994 74.3175 22.876Z" fill="#FF6600"/>
<path fill-rule="evenodd" clip-rule="evenodd" d="M75.5654 23.4374C75.677 23.2918 75.7234 23.0457 75.9452 23.0176C76.1034 23.0222 76.2491 23.0457 76.3668 23.1573C76.5711 23.4138 76.3716 23.7416 76.2969 23.998C76.2148 24.3896 76.0735 24.7979 75.9452 25.1659H75.3555L75.5654 23.4374H75.5654Z" fill="#FF6600"/>
<path fill-rule="evenodd" clip-rule="evenodd" d="M84.4261 23.2561C84.5544 23.4201 84.5956 23.6416 84.7883 23.7877C84.9578 23.5538 84.9981 23.1917 84.9163 22.894L84.7477 22.724C84.9639 22.672 85.1916 22.6541 85.4076 22.6138C85.314 22.9235 85.138 23.2035 85.168 23.5657C85.1737 24.0916 85.2616 24.6174 85.308 25.1659H84.6657C84.4318 24.6518 84.1979 24.1616 84.2158 23.5657C84.286 23.46 84.3322 23.3378 84.4261 23.2561V23.2561Z" fill="#FF6600"/>
<path fill-rule="evenodd" clip-rule="evenodd" d="M87.1895 12.035C87.1835 12.1867 87.0731 12.3553 87.1716 12.4848C87.3129 12.3267 87.5456 12.3327 87.7332 12.2626C88.2531 12.2152 88.749 12.3792 89.2335 12.4965C89.1111 12.3031 89.0294 12.0869 88.8951 11.9124C88.626 11.8414 88.2174 12.0288 88.1711 11.6311C88.0074 11.491 87.7509 11.5908 87.5811 11.6024C87.4173 11.719 87.2834 11.865 87.1894 12.035L87.1895 12.035Z" fill="white"/>
<path fill-rule="evenodd" clip-rule="evenodd" d="M69.3384 6.99104C69.3361 6.98999 69.3338 6.98732 69.3301 6.98486C69.3301 6.98732 69.3313 6.98858 69.3313 6.99104H69.3384Z" fill="white"/>
<path fill-rule="evenodd" clip-rule="evenodd" d="M71.4636 12.1833L71.8139 11.8447C71.8434 11.8447 71.8671 11.8507 71.8839 11.8732L71.8553 12.5213C72.0239 12.6791 72.2339 12.7313 72.4558 12.7433C72.4737 12.5689 72.608 12.4452 72.684 12.2935C72.7479 12.171 72.7076 11.9897 72.8358 11.9028L72.8774 11.9432C72.9176 12.1367 72.9059 12.3527 73.0057 12.5213C73.0175 12.6152 73.0341 12.7313 73.0458 12.8134C73.3036 12.825 73.5372 12.7552 73.7355 12.6612C73.7237 12.4395 73.7999 12.2587 73.8343 12.055C73.8877 11.9846 73.7698 11.8554 73.9158 11.8615C73.998 12.0371 74.144 12.2176 74.2259 12.4049C74.5644 12.0606 74.7053 11.6108 74.7859 11.143C74.6874 11.0091 74.5357 11.0091 74.4182 10.9214C73.4256 10.6005 72.1533 10.5366 71.1952 11.0327C71.1301 11.4291 71.2119 11.8671 71.4636 12.1832V12.1833Z" fill="white"/>
<path fill-rule="evenodd" clip-rule="evenodd" d="M62.1809 23.1434C62.1454 23.5933 62.1809 24.0156 62.2096 24.4598C62.3033 24.6057 62.473 24.7754 62.643 24.7861L62.6713 24.4882C62.7413 24.0737 62.5195 23.6336 62.7534 23.2834C62.917 23.3356 63.0808 23.4173 63.2211 23.4932C63.291 23.1077 63.1912 22.6578 62.8234 22.4238L62.181 23.1434H62.1809Z" fill="white"/>
<path fill-rule="evenodd" clip-rule="evenodd" d="M63.6239 22.5118C63.3957 23.1955 63.2271 24.0381 63.5013 24.7575C63.6593 24.6519 63.822 24.5523 63.962 24.4076C63.9335 23.8578 63.8572 23.2717 64.1842 22.8157C64.47 22.9035 64.6635 23.1778 64.7739 23.4458C64.9675 23.2013 65.0313 22.8619 64.9558 22.5355C64.9675 22.2779 64.6754 22.3372 64.5353 22.2316C64.5814 22.0156 64.5758 21.7653 64.8037 21.6416L64.1033 21.7117C63.9216 21.9694 63.7235 22.2197 63.6239 22.5118H63.6239Z" fill="white"/>
<path fill-rule="evenodd" clip-rule="evenodd" d="M65.0664 24.5295C65.0962 24.5817 65.0664 24.6756 65.1257 24.6873C65.2126 24.1962 65.6099 23.8791 65.8264 23.4456C65.9306 23.3011 65.9258 23.0955 66.0946 22.985C66.3223 22.985 66.4863 23.1479 66.7082 23.1659C66.7783 23.2188 66.6727 23.2654 66.6665 23.3235C66.6203 23.7214 66.4682 24.0501 66.4979 24.4596H66.5382C66.8482 24.1318 67.0581 23.7793 67.2864 23.4053L67.3267 23.0729C67.3799 22.6755 66.9477 22.4191 66.6665 22.2553L66.9182 21.9336L66.568 21.811C66.1584 21.8516 65.7907 22.0214 65.5046 22.3431C65.1481 22.9971 65.0899 23.7356 65.0664 24.5294L65.0664 24.5295Z" fill="white"/>
<path fill-rule="evenodd" clip-rule="evenodd" d="M66.6368 21.0636C66.7707 21.1039 66.8933 20.9935 67.0272 21.0517C67.565 21.2509 68.125 21.4551 68.5289 21.904L69.0074 23.1255L69.2469 22.3714L69.0891 21.9631C68.9548 21.6712 68.5871 21.6951 68.3353 21.6831C68.2306 21.5656 68.3412 21.4312 68.3767 21.3209C68.4991 20.9058 67.9911 20.9293 67.787 20.7597C67.7988 20.509 67.4949 20.5959 67.3252 20.5732L67.267 20.5031C67.2323 20.4497 67.1446 20.4497 67.0972 20.4911C67.0866 20.4736 67.0627 20.4616 67.0746 20.4331L66.9463 20.4616C66.765 20.6194 66.6424 20.8235 66.6367 21.0636L66.6368 21.0636Z" fill="white"/>
<path fill-rule="evenodd" clip-rule="evenodd" d="M66.9746 19.7209C66.9927 19.7956 67.0387 19.8718 67.097 19.9192C67.3603 19.8492 67.6121 19.6673 67.9148 19.7791C68.3067 20.1234 68.7149 20.4855 69.1885 20.6719L69.3584 20.6433C69.4627 20.6776 69.5793 20.6836 69.6492 20.8011C69.7145 20.9589 69.5505 21.0517 69.4985 21.18C69.7608 21.3734 69.6562 21.7178 69.819 21.9514L70.2391 21.3912C70.1408 21.1453 70.245 20.725 69.8606 20.7015C69.7311 20.6373 69.6446 20.509 69.6492 20.3629C69.3989 20.1352 69.089 20.0356 68.8386 19.8018C68.6329 19.6392 68.5108 19.3877 68.2485 19.3293C68.067 19.2294 67.8683 19.1774 67.6586 19.1312C67.2669 19.0716 67.2322 19.5393 66.9747 19.721L66.9746 19.7209Z" fill="white"/>
<path fill-rule="evenodd" clip-rule="evenodd" d="M67.5371 18.5693L67.6072 18.6811C67.8993 18.6633 68.1614 18.535 68.4475 18.5408C68.6399 18.6571 68.8915 18.6511 69.0898 18.7512C69.2476 18.967 69.4176 19.2119 69.65 19.3574C70.1237 19.4277 70.3859 19.9368 70.5497 20.3097V20.1294C70.6198 19.8775 70.5437 19.5854 70.4512 19.3574C70.3337 19.2412 70.164 19.1653 70.0416 19.0609C70.0181 18.9849 70.0359 18.9491 70.0595 18.8792C69.8778 18.6868 69.6094 18.5811 69.3875 18.4294C69.0779 17.9795 68.4831 18.1028 68.0096 17.9795L67.5371 18.5693L67.5371 18.5693Z" fill="white"/>
<path fill-rule="evenodd" clip-rule="evenodd" d="M67.5273 14.2855C67.5793 14.4672 67.6423 14.694 67.6781 14.8875C67.8406 14.5253 68.1636 14.3616 68.4495 14.0638C68.2857 13.9531 68.0815 13.9 67.9011 13.8654V13.8535C67.7718 13.9818 67.5733 14.1113 67.5273 14.2855Z" fill="white"/>
<path fill-rule="evenodd" clip-rule="evenodd" d="M68.5879 16.2073L68.8501 15.9388C69.1135 15.6695 69.33 15.3598 69.37 15.0153C69.1837 14.9052 68.9378 14.9812 68.7575 15.0451C68.6937 15.4237 68.5936 15.7978 68.5879 16.2073Z" fill="white"/>
<path fill-rule="evenodd" clip-rule="evenodd" d="M68.7793 17.0313C69.183 17.0538 69.5748 17.1357 69.9012 16.9077L70.2288 15.8572C70.1232 15.8511 70.0176 15.8037 69.9191 15.8394C69.7029 16.3179 69.2709 16.7913 68.7793 17.0313Z" fill="white"/>
<path fill-rule="evenodd" clip-rule="evenodd" d="M68.8986 13.3047C69.1612 13.6894 69.6003 14.1212 70.0488 14.2449C69.9968 13.7537 69.5765 13.4151 69.3603 12.9951L69.3485 12.8548C69.179 12.691 68.9749 12.5795 68.7992 12.4927C68.7706 12.7731 68.8466 13.0412 68.8987 13.3047L68.8986 13.3047Z" fill="white"/>
<path fill-rule="evenodd" clip-rule="evenodd" d="M70.3223 17.0775C70.632 17.1297 70.9656 17.0775 71.2515 16.9896C71.6658 16.8898 71.894 16.4352 72.0337 16.0791H71.514L70.9538 16.6275C70.7318 16.7437 70.5214 16.9194 70.3223 17.0775H70.3223Z" fill="white"/>
<path fill-rule="evenodd" clip-rule="evenodd" d="M70.2598 12.7734C70.3475 13.2295 70.541 13.6436 70.8035 14.0353L70.8734 13.1651L70.2598 12.7734Z" fill="white"/>
<path fill-rule="evenodd" clip-rule="evenodd" d="M72.174 15.0452C72.2095 14.7532 72.0875 14.4137 72.0528 14.1169C71.8771 13.9994 71.6327 14.0113 71.4512 13.895C71.463 14.3553 71.8237 14.7475 72.174 15.0452Z" fill="white"/>
<path fill-rule="evenodd" clip-rule="evenodd" d="M71.6426 18.0115C72.0102 17.8951 72.3666 17.7669 72.7063 17.5795C72.9223 17.2696 73.2486 16.9896 73.2961 16.6274C73.0265 16.7033 72.794 16.6154 72.5423 16.7389C72.3903 17.0131 72.2964 17.3232 72.0045 17.5211C71.9582 17.7194 71.7422 17.8539 71.6426 18.0115V18.0115Z" fill="white"/>
<path fill-rule="evenodd" clip-rule="evenodd" d="M72.2148 18.7298L72.6529 19.3022C72.8867 19.3779 73.1788 19.3553 73.3828 19.2214L73.2262 18.7017C72.9162 18.8175 72.5481 18.7834 72.2148 18.7298Z" fill="white"/>
<path fill-rule="evenodd" clip-rule="evenodd" d="M72.9434 14.5954L73.1128 15.366C73.5215 15.0336 73.6055 14.5491 73.5936 14.0352C73.3598 14.3034 73.2246 14.4672 72.9434 14.5954V14.5954Z" fill="white"/>
<path fill-rule="evenodd" clip-rule="evenodd" d="M74.0957 15.9556C74.1013 16.067 74.13 16.1717 74.194 16.2595C74.65 16.4233 74.6964 16.9775 75.1177 17.1879C75.3919 17.3113 75.7076 17.1592 75.9461 17.0476C75.7658 16.8436 75.5613 16.7033 75.3858 16.4873C75.2636 16.4352 75.1401 16.3591 75.1463 16.2073L74.0957 15.9556Z" fill="white"/>
<path fill-rule="evenodd" clip-rule="evenodd" d="M74.4571 18.7129C74.6552 18.9397 74.9234 19.0572 75.2038 19.1211C75.1573 19.0572 75.2333 19.1211 75.245 19.0807L74.8949 18.3091C74.7192 18.3153 74.5374 18.351 74.375 18.3392C74.3869 18.4674 74.4154 18.5957 74.4571 18.713V18.7129Z" fill="white"/>
<path fill-rule="evenodd" clip-rule="evenodd" d="M75.0771 15.1153C74.9133 14.7355 74.8455 14.2736 74.7978 13.8535C74.6235 14.0638 74.4417 14.199 74.2779 14.4137C74.2022 14.8458 74.8206 14.9513 75.0771 15.1153V15.1153Z" fill="white"/>
<path fill-rule="evenodd" clip-rule="evenodd" d="M75.7882 14.7172C75.9998 14.993 76.4604 14.8991 76.7178 14.8174C76.5945 14.607 76.1993 14.4834 76.1293 14.257C76.0888 13.8533 76.0067 13.4615 75.8775 13.0947C75.6732 13.5911 75.4262 14.1811 75.7882 14.7172Z" fill="white"/>
<path fill-rule="evenodd" clip-rule="evenodd" d="M76.1562 15.9559C76.74 16.3818 77.3133 16.8793 78.1299 16.6977C78.1881 16.6574 78.2882 16.6622 78.2999 16.5874C78.06 16.4354 77.8037 16.3179 77.558 16.1778L77.278 15.7695H77.1497C76.8337 15.8737 76.4957 15.9155 76.1562 15.9558V15.9559Z" fill="white"/>
<path fill-rule="evenodd" clip-rule="evenodd" d="M76.168 20.692H76.2096C76.5595 20.4116 76.9737 20.3178 77.3882 20.2017C77.4997 20.243 77.4296 20.3655 77.5294 20.4116C77.7801 20.3073 78.0838 20.3299 78.3401 20.243C78.6502 20.254 78.9018 20.2599 79.1521 20.3938C79.3518 20.6573 79.7242 20.6276 79.9819 20.8033L79.9402 20.3938C79.3978 19.7575 78.5515 19.7115 77.7682 19.7233L77.7503 19.6416C77.5639 19.6416 77.3537 19.6817 77.1781 19.7637C76.9276 19.7753 76.6877 19.8977 76.4482 19.9736C76.3378 20.1957 76.2497 20.4652 76.168 20.692V20.692Z" fill="white"/>
<path fill-rule="evenodd" clip-rule="evenodd" d="M76.6378 13.5152C76.8655 13.8129 77.2037 14.0411 77.5897 13.9651C77.3915 13.7717 77.1634 13.5674 77.1517 13.2932C77.2099 12.7733 76.6378 12.7316 76.3574 12.4634C76.4514 12.8136 76.4393 13.2055 76.6378 13.5152V13.5152Z" fill="white"/>
<path fill-rule="evenodd" clip-rule="evenodd" d="M76.5781 21.7256H76.6482C76.9571 21.5335 77.4069 21.6796 77.7108 21.4751C77.8803 21.3874 77.8922 21.6213 78.0085 21.6853C78.2946 21.8599 78.3303 22.3858 78.7328 22.2632C79.2169 22.5141 79.0949 23.1039 79.1126 23.5359L79.5625 23.256C79.5212 23.0278 79.6504 22.7536 79.5042 22.5553C79.393 22.3037 79.0887 22.2811 78.9428 22.0773C79.1188 21.7791 78.721 21.6377 78.6389 21.4219L78.6628 21.3936L79.2822 21.4752C79.4924 21.6034 79.5686 21.8373 79.6325 22.0535C80.1166 22.1352 80.2331 22.6836 80.4031 23.034C80.5027 22.7954 80.543 22.5376 80.6426 22.3038C80.6488 22.1115 80.3911 22.1115 80.2628 22.0237C80.2285 21.7256 80.0931 21.4458 79.8306 21.2654C79.2929 21.1297 78.8205 20.833 78.2308 20.833L77.7404 20.9841C77.4708 21.0492 77.1849 20.9671 76.9806 21.1536C76.6769 21.1774 76.6542 21.5097 76.5782 21.7256H76.5781Z" fill="white"/>
<path fill-rule="evenodd" clip-rule="evenodd" d="M76.8867 19.32L76.9983 19.3731C77.2382 19.2616 77.4768 19.1335 77.7284 19.0396C78.1188 18.9292 78.4225 19.3731 78.7503 19.0918C78.8726 19.0054 78.9782 19.1335 79.0707 19.2034C79.2122 19.4599 79.5385 19.4421 79.7843 19.5119C79.661 19.1795 79.5089 18.7242 79.0827 18.6715C78.9142 18.596 78.7148 18.6016 78.5522 18.502C78.1024 18.0056 77.8102 18.9115 77.3185 18.6894C77.1445 18.8818 76.9283 19.0637 76.8867 19.32Z" fill="white"/>
<path fill-rule="evenodd" clip-rule="evenodd" d="M76.9981 22.1637C77.1845 22.3214 77.3781 22.5901 77.6701 22.5552C78.0321 22.7238 77.8799 23.2034 78.0782 23.4551L78.2886 23.2678L78.2705 23.2559L78.3002 23.2273L78.3121 23.2439C78.3703 23.0695 78.2886 22.7598 78.1884 22.5552C78.0547 22.4618 77.8978 22.5614 77.7686 22.4735C77.7508 22.2858 77.6344 22.1933 77.5001 22.0772C77.4065 22.0058 77.2841 22.0997 77.1785 22.0937L76.998 22.1637H76.9981Z" fill="white"/>
<path fill-rule="evenodd" clip-rule="evenodd" d="M77.7285 15.0451C77.9208 15.3658 78.2946 15.565 78.5927 15.787C78.8384 15.8974 79.1591 15.9271 79.4225 15.8678C79.1708 15.6635 78.9428 15.4298 78.7328 15.185C78.651 15.0677 78.633 14.9216 78.5228 14.8174C78.2486 14.8694 77.9385 14.8634 77.7285 15.0451Z" fill="white"/>
<path fill-rule="evenodd" clip-rule="evenodd" d="M78.0508 12.9549C78.319 13.2871 78.7334 13.153 79.1131 13.1649V13.1235L78.5293 12.6333C78.3653 12.6853 78.1907 12.8314 78.0508 12.9549L78.0508 12.9549Z" fill="white"/>
<path fill-rule="evenodd" clip-rule="evenodd" d="M67.2988 7.44712L67.6371 8.49861C67.6309 7.90266 67.9065 7.40553 67.8483 6.79897L68.0986 6.4248L67.5671 6.58864C67.4271 6.85699 67.3106 7.12552 67.2989 7.44712H67.2988Z" fill="white"/>
<path fill-rule="evenodd" clip-rule="evenodd" d="M67.5273 5.62509L67.9889 5.35656V4.67285C67.7953 4.78925 67.6911 4.98897 67.5392 5.14533L67.5273 5.62506V5.62509Z" fill="white"/>
<path fill-rule="evenodd" clip-rule="evenodd" d="M76.9983 6.68715C76.8874 6.83311 76.7179 6.86885 76.5779 6.89712C76.8235 6.44869 76.9401 5.823 76.7476 5.31496C76.8757 5.26842 77.0156 5.24492 77.1382 5.17503L77.1265 5.16282L77.4482 4.88278C77.8741 4.59089 77.7101 4.03632 77.8681 3.62114C77.6581 3.29473 77.5937 2.8971 77.2898 2.62272L77.3079 2.61084C77.0684 2.30675 76.6362 2.34249 76.3095 2.19072C75.8764 2.04458 75.5439 2.34249 75.2341 2.54062C75.1 2.56449 75.1819 2.73912 75.0358 2.73309C74.954 2.94909 74.8541 3.18296 74.7959 3.42283C74.2178 3.34073 73.5935 3.40514 73.132 3.73259C72.8859 3.55106 72.5893 3.5164 72.3023 3.43467C72.092 3.39293 71.8533 3.469 71.7016 3.35257C71.4796 3.10227 71.4322 2.64622 71.0522 2.58236C70.918 2.53496 70.8898 2.38885 70.8898 2.26076C70.6379 2.21902 70.416 2.10277 70.1714 2.05042C69.7975 1.88078 69.4996 2.15021 69.2194 2.3308C69.0959 2.38282 68.956 2.40051 68.8394 2.47055C68.6294 2.79836 68.4313 3.13094 68.2958 3.49287C68.3375 3.79078 68.4658 4.0531 68.6174 4.30485C68.7517 4.68483 69.1718 4.98253 69.5281 5.13467C69.3593 5.71259 69.3593 6.40111 69.5281 6.98485C69.5281 6.98485 69.5185 6.99333 69.5185 6.99102C69.5185 6.99333 69.4996 7.00871 69.4996 7.00871C69.4448 7.00871 69.3843 7.01951 69.3381 6.99102H69.331C69.4143 7.54877 69.6763 8.0381 70.1014 8.457C70.2535 8.50935 70.2176 8.69087 70.2817 8.80727C70.3232 8.86052 70.3291 8.97088 70.3115 9.01742C69.3998 8.98857 68.5879 9.21678 67.858 9.63106C67.6715 9.72499 67.7532 9.98136 67.7354 10.1626C68.2496 9.82316 68.8039 9.57286 69.4175 9.46105C69.68 9.44462 69.9777 9.37935 70.2295 9.44921L70.2582 9.95266C69.5636 10.3148 68.8039 10.5247 68.2093 11.1207C68.2201 11.301 68.1854 11.5113 68.2377 11.6631L68.7695 11.2311C69.2832 10.8394 69.8201 10.5069 70.4099 10.2909C70.568 10.4773 70.7315 10.6769 70.9418 10.7932C71.2977 10.565 71.6837 10.3956 72.092 10.2909C72.308 10.1626 72.6536 10.279 72.7934 10.0227L72.8921 9.49094C72.8755 9.47888 72.8635 9.45538 72.8339 9.46101C72.5595 9.30321 72.3778 9.02901 72.4017 8.70867C72.308 8.75467 72.2036 8.78478 72.092 8.78936C71.9994 8.76705 71.9115 8.74301 71.8701 8.64907C71.8652 8.53303 71.8057 8.35754 71.9232 8.27049C72.3023 8.03662 72.7934 8.02496 73.2719 8.05926C73.628 8.10666 74.1421 8.08883 74.2657 8.50931C74.2478 8.6326 74.2595 8.76705 74.136 8.84861C74.008 8.91868 73.8618 8.84261 73.7453 8.78936C73.6519 9.07648 73.4941 9.39718 73.1734 9.49094L73.2137 9.82915C73.254 9.98132 73.2659 10.2327 73.5058 10.1795C74.06 10.3148 74.5516 10.6007 75.0357 10.9093C75.1998 10.7467 75.328 10.5594 75.4444 10.3894C76.3094 10.6826 77.0561 11.3309 77.7698 11.9327L77.7981 11.4415C77.1204 10.8395 76.3677 10.4133 75.5841 10.0809C75.6139 9.92313 75.6496 9.77095 75.6556 9.60134C76.5838 9.65459 77.4655 9.94085 78.23 10.3894L78.2182 9.9693C77.4124 9.53708 76.5306 9.25126 75.5677 9.23942C75.5322 9.18685 75.5201 9.11114 75.5261 9.05861C75.9937 8.98287 76.3262 8.49837 76.4377 8.07717C76.6776 7.80297 77.0218 7.50509 76.9401 7.09662C76.9503 7.06229 76.9625 7.02676 76.9744 6.99098C77.0062 6.89001 77.0326 6.78188 76.9983 6.68707V6.68715Z" fill="white"/>
<path fill-rule="evenodd" clip-rule="evenodd" d="M77.8106 8.18886L78.2885 8.03672L78.3422 7.7687C78.4762 7.37684 78.19 7.08499 78.0501 6.7749L77.8105 8.18886H77.8106Z" fill="white"/>
<path fill-rule="evenodd" clip-rule="evenodd" d="M79.019 10.0393C79.2469 10.2909 79.4691 10.6933 79.8724 10.5712C79.8427 10.4012 79.7487 10.2611 79.691 10.1095C79.5863 9.98687 79.5507 9.63664 79.3408 9.75921C79.1828 9.65448 79.1425 9.4788 79.0425 9.33887C78.9965 9.55487 79.0248 9.82304 79.019 10.0392L79.019 10.0393Z" fill="white"/>
<path fill-rule="evenodd" clip-rule="evenodd" d="M79.1016 11.7509C79.1895 11.8733 79.2134 12.0313 79.2999 12.143C79.458 12.2473 79.6919 12.2295 79.8852 12.2128C80.0597 12.1713 80.1713 12.3637 80.3339 12.2534C80.1297 12.1251 80.0073 11.8912 79.815 11.7212C79.5871 11.541 79.3417 11.699 79.1016 11.751L79.1016 11.7509Z" fill="white"/>
<path fill-rule="evenodd" clip-rule="evenodd" d="M79.4102 14.4671C79.8137 14.7057 80.3254 14.9395 80.8632 14.8579C80.9214 14.8292 81.0208 14.8352 81.0326 14.7648C80.6992 14.6475 80.3504 14.3151 80.0001 14.2451C79.808 13.9474 79.5562 14.321 79.3105 14.2975C79.3164 14.3675 79.3863 14.4197 79.4102 14.4671V14.4671Z" fill="white"/>
<path fill-rule="evenodd" clip-rule="evenodd" d="M80.625 19.6235L80.7128 19.81C80.8007 20.4178 81.1851 20.9779 80.9751 21.6439C81.1508 21.7674 81.2031 21.9717 81.3146 22.1351H81.3434C81.4773 21.6273 81.3847 21.1015 81.3146 20.5935C81.367 20.1316 80.8992 19.8631 80.625 19.6235H80.625Z" fill="white"/>
<path fill-rule="evenodd" clip-rule="evenodd" d="M80.7246 13.6432C81.0283 13.877 81.5128 13.8997 81.863 13.7831C81.6411 13.6609 81.3966 13.5254 81.2148 13.3628L80.7246 13.6432H80.7246Z" fill="white"/>
<path fill-rule="evenodd" clip-rule="evenodd" d="M82.166 15.4358C82.1373 15.6815 82.3003 15.8857 82.4759 16.0093C82.5398 15.8634 82.6443 15.7397 82.6562 15.5768C82.604 15.3256 82.4637 15.0974 82.236 14.9277C82.1955 15.0917 82.1481 15.2493 82.166 15.4358V15.4358Z" fill="white"/>
<path fill-rule="evenodd" clip-rule="evenodd" d="M82.1836 18.0996C82.142 18.3738 82.4457 18.4096 82.574 18.5613C82.6796 18.6894 82.5039 18.7772 82.5039 18.8998C82.7261 19.1858 82.8556 19.512 82.8556 19.8921C82.9421 19.536 83.0764 19.1977 83.1238 18.8299C83.0999 18.5721 82.6916 18.6256 82.7557 18.3395C82.8722 18.0474 82.7321 17.7614 82.6561 17.4977C82.6334 17.4574 82.5802 17.3754 82.534 17.3993C82.4284 17.6379 82.1659 17.8076 82.1836 18.0997V18.0996Z" fill="white"/>
<path fill-rule="evenodd" clip-rule="evenodd" d="M82.9844 16.7095L83.2881 17.2995C83.422 17.2816 83.51 17.1533 83.6147 17.0598C83.6964 16.8151 83.4802 16.6573 83.4164 16.4578C83.3638 16.3178 83.4164 16.1314 83.3164 16.0093C83.2407 15.9616 83.154 15.8857 83.0661 15.9092L82.9844 16.7095V16.7095Z" fill="white"/>
<path fill-rule="evenodd" clip-rule="evenodd" d="M83.375 15.1553C83.6151 15.3015 83.8892 15.5114 84.0184 15.7692C84.2225 16.3649 84.5491 16.9013 84.7891 17.4798C84.8769 17.8831 84.9467 18.2429 85.0571 18.6393C85.0989 18.7449 85.075 18.9491 85.239 18.9314C85.285 18.4876 85.3727 18.0612 85.3789 17.5997C85.2328 17.4071 85.0407 17.3253 84.8589 17.2088V17.1675C84.8826 17.069 84.9648 16.9513 85.0869 16.9692C85.1389 16.911 85.2972 16.8528 85.2272 16.7472C84.9229 16.4433 84.9408 15.9213 84.4566 15.8271C84.287 15.7572 84.2466 15.5816 84.2288 15.4189C84.0007 15.2251 83.6625 15.1613 83.375 15.1553L83.375 15.1553Z" fill="white"/>
<path fill-rule="evenodd" clip-rule="evenodd" d="M83.6555 18.3216C83.9524 18.596 83.8482 18.9931 83.8243 19.3614C83.7781 19.5835 84.058 19.454 84.1459 19.5715C84.3276 19.8398 84.2218 20.2316 84.1579 20.5237C84.3157 20.2836 84.4962 20.0736 84.6184 19.8103C84.6136 19.7117 84.7419 19.6641 84.736 19.5417C84.7884 19.3731 84.5901 19.4481 84.508 19.4315C84.4379 19.4135 84.3619 19.3675 84.3858 19.2735C84.5365 18.9815 84.3966 18.6312 84.3384 18.3395C84.2683 18.0996 84.3681 17.7779 84.2563 17.5679C84.0698 17.8253 83.5144 17.8835 83.6555 18.3216H83.6555Z" fill="white"/>
<path fill-rule="evenodd" clip-rule="evenodd" d="M84.1993 14.1749C84.7195 14.7008 85.0993 15.229 85.6595 15.7371C85.6712 15.509 85.6417 15.299 85.6309 15.0771C85.5491 14.9193 85.397 14.8029 85.2675 14.6854C84.8534 14.6451 84.6374 14.0871 84.1992 14.1749H84.1993Z" fill="white"/>
<path fill-rule="evenodd" clip-rule="evenodd" d="M85.5586 16.9574C85.5708 17.0111 85.5943 17.0574 85.6182 17.1096C85.8459 17.4834 86.0621 17.8694 86.2198 18.2718C86.1724 17.8393 86.4645 17.3029 86.0785 16.9695C86.0263 16.8292 85.8521 16.8757 85.7403 16.8874L85.5586 16.9574H85.5586Z" fill="white"/>
<path fill-rule="evenodd" clip-rule="evenodd" d="M86.9609 21.2237C87.1246 21.2996 87.3349 21.1655 87.4925 21.0719C87.6386 21.0373 87.7609 21.1193 87.8727 21.1952C87.919 21.2879 87.8727 21.3758 87.8904 21.4636C88.2406 21.5623 88.5849 21.6914 88.8944 21.8956L88.9932 21.7962C89.0171 21.5453 88.8187 21.3636 88.631 21.2237C88.5088 21.1537 88.3271 21.1952 88.2406 21.0838C88.2986 20.9899 88.2986 20.8499 88.2928 20.7452C88.1003 20.7452 87.9768 20.6859 87.8203 20.5936C87.7205 20.5639 87.6326 20.4818 87.5509 20.5936C87.2586 20.7915 87.2409 21.0838 86.9609 21.2237Z" fill="white"/>
<path fill-rule="evenodd" clip-rule="evenodd" d="M87.3711 13.8749C87.5171 13.8331 87.6688 13.7928 87.7914 13.6872C88.1831 13.3313 88.749 13.5711 89.2051 13.5651C89.1171 13.4072 88.9938 13.2493 88.8832 13.1153C88.7195 13.0509 88.5679 12.9751 88.3814 12.9751C87.9836 12.7413 87.7154 13.133 87.4115 13.3251C87.3294 13.483 87.2891 13.7169 87.3711 13.8749L87.3711 13.8749Z" fill="white"/>
<path fill-rule="evenodd" clip-rule="evenodd" d="M87.3803 15.0773C87.3803 15.0594 87.3803 15.0415 87.3981 15.0369C87.4516 15.0833 87.3925 15.1949 87.4802 15.2176C87.632 15.1414 87.7723 15.0369 87.9122 14.9371C88.3039 14.9371 88.5377 14.5573 88.9225 14.5573C89.5659 14.6748 90.2022 14.8031 90.7623 15.1175C90.7219 14.7392 90.3943 14.3935 90.0621 14.2249C89.8744 14.1609 89.7283 14.2596 89.5944 14.3652C89.2038 14.6109 89.4079 14.0087 89.1337 13.9971C88.7763 14.1074 88.4086 14.2309 88.012 14.1952C87.7781 14.2831 87.6143 14.4991 87.352 14.4756C87.3401 14.6691 87.3116 14.903 87.3803 15.0772V15.0773Z" fill="white"/>
<path fill-rule="evenodd" clip-rule="evenodd" d="M87.6505 16.3795C87.7729 16.509 87.9769 16.4851 88.1527 16.509L88.6605 16.3095C88.6666 16.2169 88.5087 16.1931 88.5445 16.0874C88.6844 15.9296 88.8765 16.0413 89.0525 15.9771C89.2968 15.9418 89.5485 15.6972 89.7941 15.8775C89.787 15.9072 89.8049 15.9475 89.7824 15.9771C89.7063 16.1578 89.8344 16.2693 89.9747 16.339C90.2609 16.3917 90.5289 16.655 90.8151 16.5373C90.7866 16.2978 90.7224 16.077 90.6642 15.8488C90.4247 15.8074 90.2547 15.6095 90.0331 15.5272C89.9345 15.6212 89.8049 15.691 89.6828 15.6792C89.2328 15.5736 88.6951 15.2934 88.2405 15.5798C88.0767 15.7789 87.7847 15.7197 87.5625 15.8074C87.5743 16.0057 87.5972 16.1993 87.6504 16.3795H87.6505Z" fill="white"/>
<path fill-rule="evenodd" clip-rule="evenodd" d="M87.8437 19.8513C87.809 19.9509 87.7094 20.1138 87.8911 20.1612C88.264 20.172 88.7436 19.9795 89.0355 20.2716C89.1351 20.3477 89.0877 20.5055 89.0817 20.6051L89.5718 21.0135C89.6192 20.7675 89.7071 20.5458 89.7132 20.2833C89.6718 20.096 89.5789 19.9157 89.4154 19.7933C89.0937 19.7933 88.9074 19.4169 88.5617 19.4631C88.3815 19.4227 88.2235 19.5832 88.0418 19.5832C87.9612 19.6638 87.9136 19.7636 87.8437 19.8513V19.8513Z" fill="white"/>
<path fill-rule="evenodd" clip-rule="evenodd" d="M87.9824 17.0976C88.0584 17.2554 88.1463 17.5128 88.2923 17.5298C88.6365 17.3789 89.14 17.2852 89.5246 17.449C89.6526 17.4716 89.6526 17.6176 89.6242 17.7111C89.8223 17.8275 90.0622 17.9215 90.2723 18.0496L90.2139 17.6993C90.2023 17.3195 89.7238 17.2852 89.6942 16.9112C89.3024 16.7829 88.8644 16.7414 88.4501 16.8411C88.3158 16.9634 88.1224 16.947 87.9599 16.9813C87.9481 17.0274 87.9764 17.0573 87.9824 17.0977L87.9824 17.0976Z" fill="white"/>
<path fill-rule="evenodd" clip-rule="evenodd" d="M88.0824 18.99C88.3106 18.9256 88.4566 18.6753 88.7022 18.6514C89.0752 18.6574 89.4084 18.8096 89.6423 19.1313C89.7824 19.2239 89.7527 19.4634 89.9345 19.4634C89.881 19.1775 89.9747 18.9152 89.9627 18.6219C89.7185 18.2137 89.1104 18.5294 88.8825 18.0498L88.4505 18.0793C88.1406 18.1556 88.2227 18.5177 88.1823 18.7632C88.1468 18.8393 88.0767 18.8975 88.0824 18.99H88.0824Z" fill="white"/>
<path fill-rule="evenodd" clip-rule="evenodd" d="M90.2266 21.5453C90.4069 21.9074 90.8047 22.1816 90.8448 22.5959C90.9384 22.4855 91.0028 22.3572 91.0667 22.2338C91.061 22.1177 90.9267 22.1177 90.8746 22.0238C90.8211 21.8718 90.9029 21.7379 90.9267 21.6035C90.8507 21.3875 90.669 21.1833 90.465 21.0542L90.2266 21.5453L90.2266 21.5453Z" fill="white"/>
<path fill-rule="evenodd" clip-rule="evenodd" d="M90.9453 20.6221L91.3655 21.1952C91.5459 20.909 91.5459 20.4878 91.476 20.1436C91.4355 20.0794 91.3594 19.9737 91.2551 20.0211C91.0971 20.1841 91.0735 20.4357 90.9453 20.6221V20.6221Z" fill="white"/>
<path fill-rule="evenodd" clip-rule="evenodd" d="M89.2324 4.63578C89.3842 4.71185 89.5303 4.78192 89.712 4.79359C89.834 4.72958 89.9924 4.68214 90.1442 4.72355C90.3602 4.86366 90.6225 4.69401 90.8742 4.70568C90.6522 4.4957 90.4003 4.3662 90.1442 4.24414C89.8163 4.314 89.5542 4.54805 89.2324 4.63578Z" fill="white"/>
<path fill-rule="evenodd" clip-rule="evenodd" d="M91.5157 5.18467C91.8256 5.2142 92.0477 5.48858 92.2576 5.71642C92.5203 5.75675 92.7184 5.94445 92.8762 6.13673L92.7776 5.82802C92.7076 5.51811 92.514 5.27825 92.3157 5.03271C92.0357 5.05041 91.7603 5.07427 91.5156 5.18467H91.5157Z" fill="white"/>
<path fill-rule="evenodd" clip-rule="evenodd" d="M69.7221 2.62256L69.8921 2.64043C70.3466 2.86809 71.0825 2.98467 71.1244 3.64448C70.6622 3.82618 70.2183 4.07085 69.8504 4.44462C69.5703 4.15872 69.0041 4.31635 68.9102 3.81452C68.9981 3.3406 69.1667 2.7448 69.7221 2.62256Z" fill="#FF6600"/>
<path fill-rule="evenodd" clip-rule="evenodd" d="M70.1602 5.58477C70.6917 5.53736 71.2058 5.61289 71.7544 5.56689C71.8883 5.62509 72.0286 5.74113 72.0926 5.87561C72.0748 6.50693 71.8826 7.10876 71.854 7.75673C71.6143 7.85529 71.3804 8.05483 71.3222 8.31733C71.1062 8.38134 70.9127 8.50961 70.7024 8.60904C70.61 8.41091 70.6265 8.11303 70.7903 7.94923C71.0185 7.62849 71.6085 7.70348 71.5619 7.19544C71.7141 6.95078 71.568 6.63524 71.5725 6.37888C71.5145 6.18533 71.4563 6.44274 71.3627 6.43707C71.1763 6.47744 70.9838 6.48928 70.82 6.39534C70.6967 6.26707 70.546 6.16147 70.5103 5.98706C70.3465 5.90496 70.154 5.77687 70.0723 5.60722L70.1602 5.58477Z" fill="#FF6600"/>
<path fill-rule="evenodd" clip-rule="evenodd" d="M70.8029 9.39117C71.0533 9.4271 71.3168 9.31529 71.5326 9.43876C71.4867 9.52085 71.3632 9.55515 71.2645 9.57905L70.8728 9.75949C70.7268 9.72516 70.8086 9.49114 70.8029 9.39117H70.8029Z" fill="#FF6600"/>
<path fill-rule="evenodd" clip-rule="evenodd" d="M71.8245 4.51508C72.0748 4.43335 72.3442 4.26475 72.6124 4.34562C72.4204 4.53898 72.2683 4.78928 72.1222 5.02312L71.3223 5.00543C71.4102 4.79527 71.632 4.62065 71.8245 4.51508Z" fill="#FF6600"/>
<path fill-rule="evenodd" clip-rule="evenodd" d="M74.1672 4.32286C74.4998 4.26463 74.4819 4.69663 74.7856 4.7131C74.8392 4.78314 74.9153 4.84736 74.8855 4.953C74.7097 5.02304 74.4532 4.98888 74.2549 5.0347C73.9917 4.88877 74.1617 4.43327 73.7469 4.4628C73.7233 4.42724 73.677 4.3572 73.7352 4.33456C73.8635 4.28716 74.0335 4.30503 74.1672 4.3229L74.1672 4.32286Z" fill="#FF6600"/>
<path fill-rule="evenodd" clip-rule="evenodd" d="M73.9566 5.88718C74.1027 5.68284 74.3244 5.66533 74.5347 5.625L76.047 5.6533C76.1112 5.71277 75.9888 5.76493 75.9888 5.83497C75.8952 5.92292 75.7608 5.94678 75.6792 6.02747C75.4807 6.03314 75.4984 6.26698 75.3583 6.36676C75.1425 6.58295 74.8268 6.48298 74.5752 6.44886C74.4882 6.38359 74.3887 6.29672 74.347 6.19712L74.2769 6.26698C74.3649 6.59479 74.3422 6.95689 74.4064 7.28929L74.7686 7.52883C74.7744 8.06553 75.4048 7.91942 75.6792 8.21731C75.6148 8.41085 75.4866 8.5736 75.3466 8.73718C75.1245 8.52118 74.8729 8.38125 74.6047 8.28735C74.5809 7.97297 74.2366 7.7853 74.0445 7.6284C73.9911 7.05542 73.9801 6.47128 73.8867 5.91671L73.9566 5.88718H73.9566Z" fill="#FF6600"/>
<path fill-rule="evenodd" clip-rule="evenodd" d="M74.5047 9.49081H75.2061L75.1184 9.85858L74.4168 9.56084C74.4 9.50265 74.4642 9.48496 74.5047 9.49081Z" fill="#FF6600"/>
<path fill-rule="evenodd" clip-rule="evenodd" d="M75.7663 2.87425L76.2862 2.71045C76.5841 2.85038 76.8641 3.02497 77.1385 3.22433C77.3545 3.62096 77.3201 4.1587 77.2203 4.60255C77.0624 4.77699 76.7182 4.60255 76.5899 4.88259H76.566C76.3739 4.33423 75.8245 3.84259 75.3164 3.59229C75.3981 3.31206 75.4859 3.03685 75.7663 2.87425Z" fill="#FF6600"/>
</g>
<defs>
<clipPath id="clip0_870_77501">
<rect width="100" height="25.4098" fill="white" transform="translate(0 0.294922)"/>
</clipPath>
</defs>
</svg>
