<svg width="100" height="32" viewBox="0 0 100 32" fill="none" xmlns="http://www.w3.org/2000/svg">
<g clip-path="url(#clip0_870_90667)">
<path d="M72.8754 31.9064C72.7493 31.8732 72.3907 31.8134 72.0786 31.7736C71.7665 31.7337 71.4877 31.674 71.4478 31.6407C71.4147 31.6142 71.2619 31.5677 71.1158 31.5411C70.9697 31.5212 70.7639 31.4548 70.651 31.4084C70.5448 31.3619 70.2592 31.2357 70.0202 31.1361C68.6324 30.5451 67.4571 29.3233 67.1915 28.1945C67.0786 27.743 67.072 26.6939 67.1716 26.156C67.2712 25.6049 67.6298 24.901 68.0215 24.4761C68.327 24.1507 68.3734 24.1241 68.5793 24.1573C68.7054 24.1772 68.9445 24.2569 69.1105 24.33C69.2765 24.4096 69.4425 24.4694 69.469 24.4694C69.4956 24.4761 69.6417 24.5292 69.7878 24.6022C69.9339 24.6752 70.08 24.7284 70.1065 24.735C70.1331 24.735 70.2858 24.7948 70.4385 24.8612C70.5979 24.9342 70.8038 25.0139 70.9034 25.0339C71.003 25.0604 71.0827 25.1002 71.0827 25.1135C71.0827 25.1335 70.8967 25.3194 70.6643 25.5319C70.08 26.0697 69.9206 26.4084 69.9206 27.1255C69.9206 27.8227 70.08 28.1813 70.558 28.6129C70.9498 28.9648 71.3947 29.1839 72.1583 29.3897C72.663 29.5292 72.8422 29.5425 74.3363 29.5425C75.8303 29.5425 76.0096 29.5292 76.5276 29.3897C78.0747 28.9714 78.7852 28.2941 78.7852 27.245C78.7852 26.2556 78.088 25.5916 76.3948 24.9674C76.1225 24.8678 75.7573 24.7284 75.5847 24.662C75.412 24.5889 75.2394 24.5358 75.1995 24.5358C75.1531 24.5358 75.0269 24.4959 74.914 24.4428C74.7945 24.3897 74.3895 24.2569 74.0043 24.1374C73.6192 24.0245 73.2474 23.9049 73.1743 23.8717C73.1012 23.8385 72.9153 23.7788 72.7626 23.7389C72.6099 23.6991 72.404 23.626 72.2978 23.5729C72.1982 23.5198 72.072 23.4733 72.0255 23.4733C71.979 23.4733 71.6802 23.3538 71.3615 23.2011C70.2924 22.6964 69.7745 22.1519 69.5222 21.2422C69.4226 20.8704 69.4226 20.8173 69.5156 20.472C69.7081 19.8346 70.0999 19.4162 70.9167 19.0112C71.1026 18.9182 71.3416 18.8186 71.4611 18.7987C71.6935 18.7456 71.8463 18.6061 71.7931 18.48C71.7799 18.4335 71.6205 18.3206 71.4412 18.2342C70.0999 17.5702 69.0906 16.4481 68.6856 15.1731C68.5461 14.7283 68.5262 14.549 68.5262 13.5463C68.5262 12.5304 68.5394 12.371 68.6856 11.9527C69.0308 10.9434 69.4824 10.2728 70.2725 9.62203C70.7042 9.27011 71.7267 8.71232 72.1118 8.626C72.2247 8.59947 72.3443 8.55961 72.3841 8.5264C72.4439 8.47329 73.0481 8.34711 73.9047 8.20104C74.0906 8.16783 75.8701 8.14125 77.8622 8.14125C81.4877 8.13461 81.4877 8.13461 81.6271 8.28736C81.7666 8.43343 81.7732 8.5065 81.7732 9.41618V10.3923H80.2593C79.1969 10.3923 78.7254 10.4122 78.6656 10.472C78.6125 10.5251 78.659 10.6247 78.8649 10.8837C79.0176 11.0696 79.177 11.2555 79.2234 11.2954C79.3695 11.4149 79.914 12.3379 79.914 12.4574C79.914 12.5238 79.9406 12.5902 79.9738 12.6101C80.0933 12.6832 80.1995 13.6062 80.1597 14.2104C80.1066 15.0404 79.841 15.8239 79.3031 16.7203C78.7055 17.7097 77.8091 18.3471 76.5143 18.719C75.9831 18.8717 74.8875 19.0975 74.2699 19.1905C74.1039 19.2104 73.7321 19.3033 73.4399 19.3897C72.7825 19.5889 72.4439 19.8545 72.3376 20.2396C72.0654 21.2622 73.1544 21.8199 76.9592 22.6101C78.9711 23.0218 80.0866 23.5796 80.8901 24.569C81.4678 25.2794 81.6736 25.9302 81.6736 27.0258C81.6736 28.3206 81.3217 29.1705 80.412 30.0802C79.9605 30.5318 79.7746 30.6645 79.1504 30.97C78.7519 31.1692 78.3668 31.3551 78.3004 31.3884C78.1212 31.4747 77.4107 31.6473 76.7932 31.7469C76.4811 31.8 76.0627 31.8731 75.8569 31.9063C75.4253 31.986 73.2141 31.986 72.8755 31.9063L72.8754 31.9064ZM77.3907 13.6859C77.3907 11.9927 76.0162 10.6182 74.323 10.6182C72.6297 10.6182 71.2552 11.9927 71.2552 13.6859C71.2552 15.3791 72.6297 16.7536 74.323 16.7536C76.0162 16.7536 77.3907 15.3791 77.3907 13.6859Z" fill="#144B7A"/>
<path d="M99.9995 16.0232C99.9995 20.5451 96.3341 24.2104 91.8122 24.2104C87.2903 24.2104 83.625 20.5451 83.625 16.0232C83.625 11.5013 87.2903 7.83594 91.8122 7.83594C96.3341 7.83594 99.9995 11.5013 99.9995 16.0232ZM97.443 16.0165C97.443 12.909 94.9264 10.3857 91.8189 10.3857C88.7047 10.3857 86.1881 12.909 86.1881 16.0165C86.1881 19.1241 88.7047 21.6474 91.8189 21.6474C94.9264 21.6474 97.443 19.1241 97.443 16.0165Z" fill="#144B7A"/>
<path d="M30.4116 24.1375C30.2323 24.1043 29.8406 24.0512 29.5484 24.0113C29.2562 23.9715 28.9906 23.9051 28.9574 23.8719C28.9176 23.832 28.8446 23.8055 28.7914 23.8055C28.6586 23.8055 28.0477 23.5067 27.7024 23.2743C26.8525 22.7033 26.0956 21.4948 25.9295 20.4522C25.8897 20.2198 25.8631 18.1282 25.8631 15.5253C25.8631 11.5014 25.8499 10.9901 25.7569 10.8971C25.6706 10.8108 25.4714 10.7909 24.6281 10.7909H23.6055V9.42965V8.06841H24.5949C25.3319 8.06841 25.5975 8.04848 25.6573 7.98208C25.6971 7.92894 25.737 7.4708 25.7436 6.80677C25.7635 5.59827 25.6573 5.7377 26.826 5.45217C27.0451 5.39906 27.3771 5.3061 27.5696 5.25295C28.2336 5.06703 28.4727 5.05374 28.6387 5.21313C28.7782 5.34592 28.7848 5.38578 28.7848 6.66066C28.7848 7.59691 28.8047 7.99533 28.8645 8.05508C28.9242 8.11487 29.5749 8.13476 31.3877 8.13476H33.8312V9.46283V10.7909H31.4143C29.3027 10.7909 28.9774 10.8041 28.891 10.8971C28.7981 10.9901 28.7848 11.4615 28.7848 15.16C28.7914 18.9582 28.7981 19.3632 28.9109 19.7616C29.1301 20.5651 29.6082 21.0764 30.385 21.3419C31.235 21.6275 32.4103 21.4283 33.8977 20.7576C34.2695 20.585 34.3293 20.585 34.4952 20.751C34.6148 20.8705 34.6281 20.9701 34.6281 22.0126C34.6281 23.1414 34.6281 23.1414 34.4488 23.2145C34.2562 23.2875 33.7383 23.5133 33.5656 23.5997C33.5125 23.6262 33.3 23.6926 33.1008 23.7391C32.9016 23.7856 32.709 23.8453 32.6692 23.8719C32.636 23.9051 32.3637 23.9582 32.0716 23.9981C31.7794 24.0445 31.381 24.1043 31.1818 24.1375C30.9826 24.1774 30.8033 24.1973 30.7834 24.1973C30.7635 24.1906 30.5975 24.1641 30.4115 24.1375H30.4116Z" fill="#144B7A"/>
<path d="M42.9956 24.1375C42.8694 24.1109 42.5241 24.0512 42.2319 24.0047C41.9398 23.9582 41.6742 23.9051 41.6343 23.8785C41.6011 23.8519 41.4484 23.7922 41.2957 23.7523C40.9305 23.6461 39.9145 23.1282 39.5095 22.836C38.4271 22.0658 37.3249 20.585 36.8535 19.2769C36.4617 18.1946 36.2227 16.8799 36.2227 15.8042C36.2227 15.0339 36.3953 13.7324 36.5879 13.0751C37.1589 11.103 38.5268 9.3898 40.1536 8.61291C40.9903 8.21452 41.143 8.15473 41.4684 8.10166C41.6344 8.07509 41.8004 8.02859 41.8336 7.99541C42.066 7.81613 44.3369 7.76963 44.9877 7.93563C45.1138 7.96884 45.3994 8.03524 45.6185 8.09502C46.1629 8.22781 47.0129 8.65941 47.5972 9.09102C48.3542 9.6488 49.0248 10.4988 49.4432 11.435C49.5561 11.6873 49.6756 11.9463 49.7088 12.0193C49.8416 12.3115 50.0939 13.3075 50.1603 13.7988C50.2798 14.6488 50.2998 14.5957 49.7553 14.7551C49.4896 14.8347 49.1643 14.9144 49.0381 14.941C48.912 14.9609 48.746 15.0074 48.6729 15.0406C48.5999 15.0738 48.3475 15.1468 48.1085 15.2C47.8695 15.2531 47.4379 15.3659 47.1457 15.439C46.8535 15.5187 46.4219 15.6249 46.1829 15.6781C45.9438 15.7378 45.6915 15.8042 45.6185 15.8374C45.4923 15.8906 45.1935 15.9702 44.1245 16.2159C43.8854 16.2691 43.6331 16.3421 43.5601 16.3753C43.4871 16.4085 43.2347 16.4749 42.9957 16.528C42.7567 16.5812 42.3251 16.694 42.0329 16.7671C40.7248 17.119 40.4791 17.1854 40.0209 17.2916C39.7553 17.3514 39.5096 17.4377 39.4831 17.4842C39.43 17.5772 39.4632 17.8826 39.5429 17.9955C39.5694 18.0353 39.6225 18.1615 39.669 18.2876C39.9479 19.1309 40.9572 20.2133 41.8868 20.6648C42.936 21.1827 43.2613 21.2491 44.6889 21.2491C46.0236 21.2491 46.0502 21.2425 47.345 20.8374C47.6372 20.7444 48.2945 20.4655 48.7992 20.2066C49.7288 19.7484 49.7288 19.7484 49.8948 19.8746C50.0674 20.0007 50.0674 20.0007 50.0873 21.1694C50.1006 22.3315 50.1006 22.3315 49.6624 22.6103C49.1445 22.9357 47.9227 23.5399 47.7699 23.5399C47.7168 23.5399 47.6438 23.5665 47.6039 23.6063C47.4777 23.7325 46.6345 23.9051 45.0342 24.1375C44.5163 24.2172 43.3343 24.2105 42.9957 24.1375L42.9956 24.1375ZM40.0739 15.0737C41.0898 14.848 41.5878 14.7218 41.6542 14.682C41.6875 14.6621 41.9066 14.6023 42.1389 14.5425C43.374 14.2636 43.6529 14.1906 43.7127 14.1507C43.7458 14.1308 43.965 14.0711 44.1973 14.0113C45.7445 13.6527 46.9928 13.3207 47.0925 13.2344C47.2916 13.0684 46.9663 12.2317 46.4284 11.5478C45.2664 10.0538 42.2916 10.014 40.698 11.4748C40.3461 11.7935 39.8215 12.5571 39.6754 12.9489C39.6356 13.0617 39.5759 13.2079 39.5426 13.2809C39.463 13.4469 39.277 14.3699 39.2305 14.7948C39.1907 15.1733 39.2837 15.326 39.4961 15.2331C39.5759 15.1999 39.8348 15.1268 40.0738 15.0737L40.0739 15.0737Z" fill="#144B7A"/>
<path d="M0.0332031 15.9701V8.13477H1.38116C2.70923 8.13477 2.73576 8.13476 2.87519 8.28751C3.02126 8.44023 3.02126 8.44023 3.02126 16.1228V23.8055H1.52727H0.0332392V15.9701H0.0332031Z" fill="#144B7A"/>
<path d="M7.55032 15.99L7.57025 8.16795L8.93814 8.14802C10.6446 8.1281 10.545 8.0617 10.5915 9.21709C10.6313 10.1799 10.6845 10.233 11.1293 9.76155C12.4441 8.37377 14.3432 7.64999 16.1227 7.85585C18.0683 8.08163 19.4361 9.12413 20.2396 10.99C20.4123 11.3951 20.6181 12.1719 20.6845 12.6633C20.7177 12.9289 20.7509 15.5385 20.7509 18.48V23.8054H19.2901H17.8293V18.8519C17.8293 14.1772 17.8227 13.8585 17.6965 13.1414C17.6235 12.723 17.5305 12.3246 17.4973 12.2649C17.4707 12.2051 17.3777 12.0125 17.2981 11.8399C17.1121 11.4282 16.6274 10.8904 16.1892 10.6115C15.3591 10.0803 13.9913 10.0603 12.9355 10.5583C12.4508 10.7908 11.6407 11.4215 11.0763 12.0059L10.5916 12.5039V18.1546V23.8053H9.06435H7.53711L7.55039 15.9899L7.55032 15.99Z" fill="#144B7A"/>
<path d="M53.9512 11.9197V0.0339355H55.339C56.7069 0.0339355 56.7334 0.0339355 56.833 0.180006C56.9259 0.312827 56.9392 1.54789 56.9392 12.0658V23.8055H55.4452H53.9512V11.9197L53.9512 11.9197Z" fill="#144B7A"/>
<path d="M61.6543 15.9701V8.13477H63.0089C64.3701 8.13477 64.3701 8.13477 64.5029 8.30744C64.6424 8.48673 64.6424 8.49337 64.6424 16.1428V23.8055H63.1484H61.6543V15.9701H61.6543Z" fill="#144B7A"/>
<path d="M0.0463782 15.9901C0.0330924 8.13484 0.0330924 8.13484 0.185842 8.14148C0.292092 8.14813 0.305377 8.15477 0.219056 8.18134C0.106164 8.20791 0.099521 8.6528 0.0795924 16.0233L0.0663067 23.8387L0.0463782 15.9901Z" fill="#1C517E"/>
<path d="M61.6675 15.9901C61.6542 8.13484 61.6542 8.13484 61.8069 8.14148C61.9132 8.14813 61.9264 8.15477 61.8401 8.18134C61.7272 8.20791 61.7206 8.6528 61.7007 16.0233L61.6874 23.8387L61.6675 15.9901Z" fill="#1C517E"/>
<path d="M74.004 8.20129C74.2364 8.12822 74.8738 8.12822 74.7012 8.20129C74.6281 8.23447 74.4024 8.25439 74.2032 8.25439C73.9243 8.25439 73.8778 8.24111 74.004 8.20129Z" fill="#1C517E"/>
<path d="M2.96813 16.1296C2.95484 8.79233 2.9482 8.41379 2.83531 8.31418C2.7357 8.22122 2.50331 8.20133 1.3546 8.1814L0 8.16811L1.36789 8.14818C2.71584 8.1349 2.73574 8.1349 2.87516 8.28765C3.02123 8.44036 3.02123 8.44036 3.00134 16.1429L2.98806 23.8388L2.96813 16.1296Z" fill="#275A85"/>
<path d="M53.9844 11.9197C53.9844 5.36594 53.991 2.68335 53.9977 5.9569C54.0109 9.23714 54.0109 14.6023 53.9977 17.8759C53.991 21.1561 53.9844 18.4735 53.9844 11.9197V11.9197Z" fill="#275A85"/>
<path d="M81.7197 9.42311C81.7065 8.55325 81.6932 8.40718 81.5869 8.31418C81.4741 8.21461 81.1022 8.20133 77.9482 8.1814L74.4355 8.16811L77.9615 8.14818C81.4873 8.1349 81.4873 8.1349 81.6334 8.28765C81.7729 8.44036 81.7729 8.49351 81.7529 9.43639L81.733 10.4258L81.7197 9.42311Z" fill="#275A85"/>
<path d="M64.4432 8.30088C64.3768 8.22116 64.1045 8.20127 62.989 8.18134L61.6211 8.16806L62.989 8.14813C64.2838 8.13484 64.3635 8.14148 64.4764 8.26766C64.5428 8.3407 64.5826 8.40048 64.5627 8.40048C64.5428 8.40048 64.4897 8.35398 64.4432 8.30088Z" fill="#275A85"/>
<path d="M15.3524 7.82271C15.4719 7.80942 15.6844 7.80942 15.8172 7.82271C15.9567 7.83596 15.8637 7.84924 15.6047 7.84924C15.3524 7.84924 15.2395 7.83596 15.3524 7.82271Z" fill="#275A85"/>
<path d="M43.5067 7.82271C43.6262 7.80942 43.8387 7.80942 43.9715 7.82271C44.1109 7.83596 44.018 7.84924 43.759 7.84924C43.5067 7.84924 43.3938 7.83596 43.5067 7.82271Z" fill="#275A85"/>
<path d="M44.5023 21.3022C44.6617 21.2889 44.914 21.2889 45.0667 21.3022C45.2261 21.3155 45.0999 21.3287 44.7878 21.3287C44.4757 21.3287 44.3496 21.3155 44.5023 21.3022H44.5023Z" fill="#36668E"/>
<path d="M91.5882 7.82271C91.7409 7.80942 91.9799 7.80942 92.1193 7.82271C92.2521 7.83596 92.126 7.84924 91.8338 7.84924C91.5416 7.84924 91.4288 7.83596 91.5881 7.82271H91.5882Z" fill="#36668E"/>
<path d="M7.55049 16.0233C7.54385 11.7271 7.55713 8.19459 7.59035 8.1813C7.6302 8.14809 7.6302 13.5731 7.5837 21.0166C7.57706 22.5704 7.56377 20.3194 7.55049 16.0232V16.0233Z" fill="#426F95"/>
<path d="M86.1758 16.1362C86.1758 15.8839 86.1891 15.7843 86.2024 15.9237C86.2156 16.0565 86.2156 16.269 86.2024 16.3885C86.1891 16.5014 86.1758 16.3952 86.1758 16.1362Z" fill="#426F95"/>
<path d="M89.5081 18.8253C88.957 18.5464 88.6316 18.1082 88.5652 17.5703C88.5254 17.2383 88.532 17.2317 88.698 17.2317C88.8375 17.2317 88.9039 17.2914 89.0035 17.484C89.1961 17.8625 89.8135 18.3937 90.2053 18.5265C90.4842 18.6195 90.5374 18.666 90.5374 18.7988C90.5374 18.9515 90.5174 18.9581 90.1589 18.9581C89.9065 18.9581 89.6808 18.9116 89.5082 18.8253H89.5081Z" fill="#08A2B7"/>
<path d="M92.9211 16.0432C92.3036 15.8241 91.9185 15.3925 91.8055 14.7949C91.6794 14.1309 91.9251 13.9516 92.1907 14.516C92.4165 15.0073 92.9078 15.4655 93.3926 15.6448C93.8176 15.7975 93.9171 15.9635 93.6648 16.103C93.4922 16.1893 93.293 16.176 92.9211 16.0432H92.9211Z" fill="#08A2B7"/>
<path d="M90.0403 18.8985C90.3723 18.8587 90.3724 18.8587 90.0204 18.7392C89.6087 18.5931 88.9978 18.0685 88.7986 17.6701C88.6591 17.4045 88.6525 17.3979 88.5994 17.5639C88.5662 17.6701 88.5595 17.5705 88.5728 17.2916C88.5994 16.8136 88.7654 16.4351 88.9513 16.4351C89.0244 16.4351 89.0709 16.5147 89.0974 16.6741C89.197 17.2584 89.6817 17.8893 90.2462 18.1615C90.4255 18.2412 90.7575 18.3275 90.9898 18.3474C91.2156 18.3607 91.4016 18.4005 91.4016 18.4271C91.4016 18.5134 91.1691 18.6861 90.8703 18.8189C90.6579 18.9185 90.4454 18.9517 90.14 18.945C89.7084 18.9384 89.7084 18.9384 90.0404 18.8985H90.0403Z" fill="#34ABBE"/>
<path d="M93.1285 16.1097C93.0621 16.0632 93.1219 16.0367 93.3277 16.0234C93.6266 16.0035 93.6266 16.0035 93.2082 15.8507C92.7169 15.6648 92.2321 15.2266 91.9798 14.7086C91.8536 14.4629 91.8005 14.4032 91.7806 14.4895C91.7606 14.5559 91.7606 14.4762 91.7806 14.3102C91.8271 13.9051 91.9399 13.6861 92.106 13.6595C92.2255 13.6396 92.2587 13.6861 92.2985 13.8919C92.4512 14.7418 93.2215 15.4191 94.1046 15.4922C94.7288 15.5386 94.6292 15.7843 93.8855 16.0366C93.4539 16.1827 93.2746 16.196 93.1285 16.1096V16.1097Z" fill="#34ABBE"/>
<path d="M90.8041 18.5532C89.8613 18.4536 89.1574 17.8627 88.9317 16.9994C88.8852 16.8202 88.8254 16.6475 88.7922 16.6276C88.7192 16.5745 89.0313 16.1362 89.1441 16.1362C89.2172 16.1362 89.257 16.2491 89.2836 16.5347C89.3234 16.9795 89.3965 17.1455 89.7152 17.544C90.0339 17.9357 90.4523 18.115 91.1229 18.1615C91.674 18.1947 91.674 18.1947 91.4549 18.4005C91.2425 18.5931 91.2225 18.5998 90.8042 18.5533L90.8041 18.5532Z" fill="#68B6C7"/>
<path d="M94.3228 15.7843C94.3228 15.7511 94.1369 15.7047 93.9045 15.6914C93.0213 15.6183 92.2511 14.9411 92.0984 14.0977C92.0718 13.965 92.012 13.8454 91.9589 13.8321C91.8992 13.8189 91.9523 13.7126 92.1382 13.4935C92.2843 13.3209 92.4304 13.1814 92.457 13.1814C92.4902 13.1814 92.53 13.374 92.5499 13.6196C92.5898 14.1376 92.8222 14.5626 93.2471 14.8879C93.619 15.1735 93.9509 15.2531 94.4888 15.2C94.7279 15.1735 94.9204 15.1735 94.9204 15.2C94.9204 15.2266 94.874 15.3196 94.8142 15.4125C94.688 15.5985 94.3229 15.8773 94.3229 15.7844L94.3228 15.7843Z" fill="#68B6C7"/>
<path d="M90.2132 18.2477C89.8613 18.1216 89.3832 17.6634 89.2106 17.2783C89.1375 17.1256 89.0778 16.8666 89.0778 16.7006C89.0778 16.528 89.0445 16.362 89.0114 16.3287C88.9582 16.2756 89.0047 16.2092 89.1574 16.0897C89.5824 15.771 89.609 15.7842 89.609 16.3088C89.609 16.86 89.7484 17.1853 90.1203 17.4908C90.4788 17.7829 90.8042 17.8759 91.176 17.7763C91.5081 17.6833 91.8666 17.6701 91.8666 17.7497C91.8666 17.7763 91.7936 17.9158 91.7139 18.0618C91.5611 18.3274 91.5611 18.3274 91.0366 18.3407C90.6913 18.3474 90.4058 18.3142 90.2132 18.2478V18.2477Z" fill="#80BECD"/>
<path d="M94.7224 15.4656C94.7224 15.4258 94.5497 15.4125 94.3041 15.4258C93.7795 15.459 93.4076 15.3594 93.0491 15.0871C92.6241 14.7617 92.405 14.3567 92.3386 13.7857C92.2921 13.3142 92.2921 13.3009 92.4714 13.1748C92.571 13.1084 92.6706 13.0486 92.6905 13.0486C92.7104 13.0486 92.7237 13.2412 92.7171 13.4736C92.7104 14.0579 92.9163 14.4497 93.4076 14.795C93.7994 15.0672 93.9521 15.0938 94.6427 15.0075C95.061 14.9544 95.061 14.9544 94.9216 15.2133C94.7489 15.5121 94.7224 15.552 94.7224 15.4656V15.4656Z" fill="#80BECD"/>
<path d="M90.3055 17.9422C89.688 17.6633 89.3891 17.172 89.3825 16.4283C89.3759 15.9237 89.3759 15.9237 89.6614 15.8108C89.9536 15.7046 89.9536 15.7046 89.9137 15.9569C89.7876 16.6607 89.7942 16.7205 89.9934 17.0392C90.1926 17.3514 90.6308 17.6302 90.9097 17.6302C90.9894 17.6302 91.1953 17.5572 91.3746 17.4642C91.9058 17.1919 91.9987 17.2318 91.8659 17.6966C91.7995 17.9489 91.8393 17.9356 91.0027 17.9954C90.6574 18.022 90.445 18.0021 90.3055 17.9423L90.3055 17.9422Z" fill="#98C8D4"/>
<path d="M93.625 15.2397C93.2664 15.1202 92.8348 14.7483 92.6688 14.403C92.4896 14.0511 92.4298 13.2543 92.5692 13.1148C92.6954 12.9887 93.1536 12.8492 93.1867 12.9289C93.2 12.9687 93.1735 13.1547 93.127 13.3472C93.0207 13.7789 93.0672 13.9714 93.3395 14.2769C93.7446 14.7417 94.1894 14.8346 94.6144 14.5425C94.953 14.31 95.119 14.3233 95.119 14.569C95.119 14.8811 95.0062 15.1002 94.8069 15.1799C94.5479 15.2795 93.864 15.3127 93.625 15.2397H93.625Z" fill="#98C8D4"/>
<path d="M90.2859 17.6901C89.9539 17.5241 89.6883 17.1722 89.602 16.7738C89.5488 16.5347 89.5621 16.3953 89.6817 15.9039C89.7215 15.7645 89.8609 15.718 90.2593 15.7114C90.5515 15.7047 90.6046 15.7246 90.6046 15.8242C90.6046 15.8973 90.5382 16.0035 90.4652 16.0766C90.246 16.2758 90.1929 16.475 90.2992 16.7339C90.3922 16.9531 90.6909 17.1656 90.91 17.1656C91.076 17.1656 91.4545 16.9132 91.501 16.7671C91.574 16.5347 91.7732 16.6078 91.8529 16.8933C91.9392 17.1788 91.9592 17.5706 91.8861 17.5507C91.8529 17.5507 91.7002 17.6038 91.5342 17.6835C91.1424 17.8694 90.6577 17.8694 90.2858 17.6901H90.2859Z" fill="#B2D4DD"/>
<path d="M93.9577 14.941C93.9245 14.9277 93.8116 14.9012 93.712 14.8812C93.4862 14.8281 93.0879 14.4895 92.9551 14.2372C92.7824 13.8985 92.8621 13.0419 93.0812 12.9025C93.1277 12.8759 93.2605 12.8494 93.38 12.8494C93.6324 12.8494 93.6589 12.9755 93.4597 13.281C93.3867 13.3939 93.3269 13.5466 93.3269 13.6329C93.3269 14.0048 93.7519 14.443 94.1104 14.443C94.303 14.443 94.5819 14.2969 94.7479 14.1176C94.9737 13.872 95.1197 13.9716 95.1197 14.3634C95.1197 14.6754 94.3362 15.0672 93.9577 14.941Z" fill="#B2D4DD"/>
<path d="M90.4854 17.2983C90.2729 17.2053 90.1733 17.1057 90.1003 16.9198C89.8612 16.3488 90.1998 15.6316 90.6647 15.7378C90.9303 15.7976 90.9236 15.864 90.6381 16.1429C90.5119 16.2625 90.4057 16.4218 90.4057 16.4816C90.4057 16.6277 90.5916 16.8601 90.7775 16.9597C90.9768 17.0593 91.3287 16.8136 91.4349 16.5081C91.5079 16.2823 91.5079 16.2823 91.654 16.4683C91.8267 16.6874 91.8267 16.7139 91.7005 16.9596C91.6009 17.1588 91.1295 17.4311 90.897 17.4311C90.8307 17.4311 90.6447 17.3713 90.4853 17.2983L90.4854 17.2983Z" fill="#C8DFE6"/>
<path d="M93.66 14.5626C93.4874 14.4696 93.3081 14.3169 93.2351 14.1841C92.9495 13.6861 93.1753 12.8494 93.5936 12.8494C94.012 12.8494 94.3174 13.115 93.9987 13.2013C93.9257 13.2212 93.8061 13.3341 93.7331 13.4536C93.5803 13.706 93.6202 13.8321 93.9389 14.0645C94.0983 14.1841 94.1182 14.1841 94.3108 14.0845C94.4569 14.0114 94.5432 13.8985 94.5963 13.7126C94.6428 13.5665 94.7026 13.447 94.7358 13.447C94.769 13.447 94.8686 13.6064 94.9549 13.7923C95.1143 14.1376 95.1143 14.1376 94.9682 14.3035C94.7889 14.4961 94.3507 14.702 94.1249 14.7086C94.032 14.7086 93.8195 14.6422 93.6601 14.5625L93.66 14.5626Z" fill="#C8DFE6"/>
<path d="M90.5514 17.1457C90.2659 16.9863 90.1663 16.7407 90.1995 16.2892C90.2061 16.1364 90.5714 15.7712 90.7041 15.7712C90.8502 15.7712 91.2021 15.9572 91.2021 16.0368C91.2021 16.0767 91.1291 16.1033 91.0428 16.1033C90.8435 16.1033 90.5381 16.3423 90.5381 16.4951C90.5381 16.6212 90.7971 16.9001 90.91 16.9001C91.0361 16.9001 91.2685 16.6013 91.3084 16.3822C91.3615 16.1232 91.4146 16.1166 91.5674 16.3423C91.8927 16.8337 91.1092 17.4513 90.5514 17.1458V17.1457Z" fill="#D8E7ED"/>
<path d="M94.8213 13.6795C94.8213 14.0713 94.5026 14.3833 94.1109 14.3833C93.7191 14.3833 93.4004 14.0712 93.4004 13.6795C93.4004 13.2877 93.7191 12.969 94.1109 12.969C94.5027 12.969 94.8213 13.2877 94.8213 13.6795ZM94.4827 13.6131C94.4827 13.4338 94.3366 13.2877 94.164 13.2877C93.9847 13.2877 93.8386 13.4338 93.8386 13.6131C93.8386 13.7924 93.9847 13.9385 94.164 13.9385C94.3366 13.9385 94.4827 13.7924 94.4827 13.6131Z" fill="#D8E7ED"/>
<path d="M91.5198 16.5081C91.5198 16.8401 91.2475 17.1123 90.9089 17.1123C90.5769 17.1123 90.3047 16.8401 90.3047 16.5081C90.3047 16.1694 90.5769 15.8972 90.9089 15.8972C91.2476 15.8972 91.5198 16.1695 91.5198 16.5081Z" fill="#E7F0F4"/>
<path d="M94.6874 13.6594C94.6874 13.9715 94.4351 14.2238 94.123 14.2238C93.8109 14.2238 93.5586 13.9715 93.5586 13.6594C93.5586 13.3473 93.8109 13.0884 94.123 13.0884C94.4351 13.0884 94.6874 13.3473 94.6874 13.6594Z" fill="#E7F0F4"/>
<path d="M90.7698 16.5678C90.7433 16.5213 90.7499 16.4616 90.7898 16.4217C90.8827 16.3287 91.0886 16.4084 91.0554 16.5213C91.0155 16.6276 90.8296 16.6608 90.7698 16.5678Z" fill="#F8FAFC"/>
<path d="M94.0162 13.7059C93.9498 13.5931 94.1026 13.4669 94.1955 13.5599C94.2752 13.6396 94.2221 13.779 94.1225 13.779C94.0893 13.779 94.0428 13.7458 94.0162 13.7059Z" fill="#F8FAFC"/>
</g>
<defs>
<clipPath id="clip0_870_90667">
<rect width="100" height="31.9323" fill="white" transform="translate(0 0.0339355)"/>
</clipPath>
</defs>
</svg>
