<svg width="100" height="40" viewBox="0 0 100 40" fill="none" xmlns="http://www.w3.org/2000/svg">
<g clip-path="url(#clip0_870_90787)">
<path d="M88.3885 7.14189C91.2906 8.60314 93.0315 10.8941 94.1649 13.8943C95.9213 19.1277 95.935 25.5403 93.6308 30.6193C92.1951 33.296 90.2771 35.2103 87.4127 36.2614C85.5676 36.8239 83.4875 36.5098 81.7154 35.8393C80.948 35.4151 80.2784 34.9226 79.6052 34.3623C79.4733 34.2565 79.3414 34.1507 79.2054 34.0416C77.3363 32.375 76.2085 29.7781 75.596 27.3989C75.5332 27.1628 75.4703 26.9267 75.4056 26.6835C74.3016 21.8197 74.5262 15.9275 77.0203 11.5072C78.2567 9.61163 79.6716 8.14344 81.7153 7.14189C81.8685 7.06329 82.0216 6.98466 82.1793 6.90368C84.0395 6.32514 86.5871 6.44435 88.3885 7.14189H88.3885Z" fill="#FDFDFD"/>
<path d="M38.4002 6.74137C40.3233 8.5101 41.2666 10.8172 41.4722 13.3775C41.6312 16.5876 40.6562 19.6282 38.6426 22.1501C36.6503 24.3242 33.932 25.3716 31.0725 25.7109C30.1175 25.7605 29.1668 25.7609 28.2107 25.7505C27.9657 25.7504 27.7208 25.7502 27.4685 25.7501C25.6756 25.7407 25.6756 25.7407 24.9532 25.4999C24.9532 29.8172 24.9532 34.1344 24.9532 38.5826C23.5606 38.5826 22.1679 38.5826 20.733 38.5826C20.7184 34.7636 20.7071 30.9447 20.7003 27.1257C20.697 25.3524 20.6925 23.5791 20.6853 21.8058C20.679 20.2597 20.6749 18.7135 20.6735 17.1674C20.6727 16.3492 20.6707 15.531 20.6661 14.7128C20.6618 13.9416 20.6605 13.1704 20.6614 12.3991C20.6612 11.9834 20.6578 11.5678 20.6543 11.1521C20.6612 9.15688 20.91 7.45713 22.2101 5.87588C26.3317 2.19563 34.3251 3.60037 38.4002 6.74137H38.4002Z" fill="#1B191E"/>
<path d="M88.6792 4.18766C88.9971 4.29214 88.9971 4.29214 89.3214 4.39868C93.416 5.85794 96.0105 8.53888 98.0289 12.2984C100.32 17.1471 100.597 23.2056 98.9504 28.3039C97.5479 32.3444 95.3093 35.7012 91.5189 37.8134C87.7844 39.5899 83.8179 39.6682 79.8976 38.4044C79.4265 38.2099 78.994 37.99 78.5508 37.7384C78.3674 37.6366 78.1841 37.5349 77.9952 37.4301C74.1827 35.1681 72.2089 31.6403 70.9321 27.5109C70.4387 25.5631 70.2544 23.7236 70.2686 21.7147C70.267 21.4847 70.2654 21.2548 70.2637 21.0178C70.2754 16.0989 71.7762 11.6629 75.0122 7.93474C76.0183 6.9329 77.1244 6.1872 78.3398 5.45374C78.5179 5.34522 78.6961 5.23669 78.8797 5.12485C81.6753 3.57785 85.6214 3.17365 88.6792 4.18766ZM78.1287 9.88496C74.9313 14.1164 74.5104 19.501 75.0244 24.6302C75.5681 28.6465 77.0543 32.178 80.1852 34.8427C81.876 36.135 83.8327 36.5967 85.9435 36.5523C88.5745 36.216 90.6123 34.7539 92.2911 32.7887C94.6196 29.6437 95.3036 25.7697 95.2733 21.9521C95.2717 21.6904 95.2702 21.4287 95.2685 21.1591C95.2181 16.8806 94.4325 12.4541 91.4026 9.20497C90.6954 8.54563 89.9421 8.03752 89.1012 7.56386C88.9554 7.47627 88.8096 7.38869 88.6594 7.29843C84.9315 5.42139 80.7413 6.9551 78.1286 9.88496H78.1287Z" fill="#1C1A1F"/>
<path d="M46.2656 4.39872C47.6583 4.39872 49.051 4.39872 50.4858 4.39872C50.4858 9.62124 50.4858 14.8438 50.4858 20.2246C50.6251 20.2246 50.7644 20.2246 50.9079 20.2246C50.9541 20.113 51.0004 20.0015 51.048 19.8866C51.4334 19.1946 51.9441 18.6276 52.4641 18.0353C52.6943 17.7699 52.9246 17.5045 53.1548 17.2391C53.2725 17.1039 53.3902 16.9688 53.5115 16.8296C54.0537 16.2057 54.5908 15.5774 55.1281 14.9493C55.3388 14.7033 55.5495 14.4574 55.7603 14.2115C55.8647 14.0897 55.9691 13.9679 56.0767 13.8423C56.3958 13.4702 56.7152 13.0982 57.0346 12.7262C57.1402 12.6032 57.2458 12.4801 57.3546 12.3534C57.5664 12.1066 57.7783 11.8599 57.9902 11.6133C58.509 11.0086 59.0248 10.4017 59.5346 9.78937C63.6101 4.89622 63.6101 4.89622 66.5226 4.39869C66.962 4.38446 67.4018 4.38074 67.8415 4.38551C68.1826 4.38836 68.1826 4.38836 68.5305 4.39129C68.7035 4.39374 68.8765 4.39616 69.0547 4.39869C68.7338 5.13897 68.2952 5.6548 67.7491 6.24504C67.5785 6.43111 67.408 6.61715 67.2323 6.80882C67.0677 6.98836 66.9032 7.16789 66.7336 7.35281C66.4864 7.63326 66.2402 7.91449 65.9951 8.19685C65.4387 8.83569 64.8746 9.46701 64.307 10.096C63.299 11.214 62.3018 12.3398 61.3298 13.4894C56.0503 19.7234 56.0503 19.7234 53.44 20.6465C53.2311 20.6465 53.0222 20.6465 52.807 20.6465C52.807 20.9947 52.807 21.3428 52.807 21.7015C52.922 21.7325 53.0371 21.7635 53.1556 21.7955C56.0231 22.6484 57.9042 24.7325 59.8033 26.9496C60.2755 27.4948 60.761 28.0268 61.2474 28.5594C61.9717 29.3535 62.6855 30.1548 63.3905 30.9662C64.0449 31.7093 64.7154 32.4379 65.3827 33.1694C65.9163 33.7586 66.4387 34.3562 66.9587 34.9573C67.2899 35.3305 67.6255 35.6971 67.966 36.0618C68.0715 36.1752 68.1771 36.2887 68.2859 36.4056C68.4961 36.6309 68.7072 36.8556 68.9192 37.0793C69.3863 37.5807 69.6792 37.9235 69.8988 38.5824C68.8402 39.1117 67.312 38.8951 66.2062 38.5692C64.0299 37.7298 62.4921 36.3575 61.0364 34.5731C60.8803 34.3827 60.7241 34.1923 60.5633 33.9962C60.2453 33.6067 59.9283 33.2166 59.6121 32.8257C59.1511 32.2686 58.6749 31.7314 58.1878 31.197C57.3609 30.2896 56.5859 29.3487 55.8139 28.3945C55.3529 27.8374 54.8767 27.3002 54.3896 26.7657C53.0931 25.3421 51.8994 23.8376 50.697 22.3346C50.6273 27.6963 50.5577 33.0581 50.4859 38.5824C49.0933 38.5824 47.7006 38.5824 46.2657 38.5824C46.2657 27.3017 46.2657 16.0211 46.2657 4.39862L46.2656 4.39872Z" fill="#1D1B20"/>
<path d="M10.1834 13.8943C10.1834 22.111 10.1834 30.3278 10.1834 38.7935C7.2588 38.7935 4.33421 38.7935 1.32099 38.7935C1.27023 34.1556 1.27023 34.1556 1.25918 32.1665C1.25163 30.8134 1.24275 29.4604 1.22549 28.1074C1.21163 27.0156 1.20412 25.9239 1.20087 24.832C1.19853 24.4171 1.19401 24.0022 1.18712 23.5873C1.14058 20.6596 1.35175 18.6388 3.35197 16.3473C5.30262 14.5536 7.59596 13.8943 10.1835 13.8943H10.1834Z" fill="url(#paint0_linear_870_90787)"/>
<path d="M33.4206 7.28702C35.207 8.2601 36.0967 9.68568 36.7704 11.5732C37.4535 14.2005 37.0596 16.9544 35.9264 19.3806C34.7962 21.2759 33.1833 22.5071 31.0542 23.0881C30.1503 23.2216 29.2555 23.2091 28.3432 23.2051C28.1573 23.206 27.9714 23.2068 27.7798 23.2076C27.5982 23.2073 27.4167 23.2071 27.2296 23.2068C27.0662 23.2065 26.9027 23.2063 26.7343 23.2061C26.1302 23.174 25.5497 23.0707 24.9539 22.9678C24.9392 21.2361 24.928 19.5045 24.9211 17.7729C24.9178 16.9686 24.9133 16.1645 24.9061 15.3603C24.8992 14.5831 24.8955 13.8061 24.8938 13.0289C24.8926 12.7335 24.8904 12.438 24.8869 12.1426C24.8472 8.5809 24.8472 8.5809 25.8859 7.44931C27.8061 5.75862 31.2256 6.31283 33.4207 7.28706L33.4206 7.28702Z" fill="#FCFCFC"/>
<path fill-rule="evenodd" clip-rule="evenodd" d="M5.90381 0.737061C9.16437 0.737061 11.8076 3.38027 11.8076 6.64087C11.8076 9.90143 9.16441 12.5447 5.90381 12.5447C2.64325 12.5447 0 9.90147 0 6.64087C0 3.38031 2.64321 0.737061 5.90381 0.737061Z" fill="#E4232D"/>
</g>
<defs>
<linearGradient id="paint0_linear_870_90787" x1="5.81737" y1="13.655" x2="5.72907" y2="30.5532" gradientUnits="userSpaceOnUse">
<stop stop-color="#004D9A"/>
<stop offset="1" stop-color="#00011D"/>
</linearGradient>
<clipPath id="clip0_870_90787">
<rect width="100" height="38.526" fill="white" transform="translate(0 0.737061)"/>
</clipPath>
</defs>
</svg>
