<svg width="100" height="38" viewBox="0 0 100 38" fill="none" xmlns="http://www.w3.org/2000/svg">
<g clip-path="url(#clip0_870_77452)">
<path fill-rule="evenodd" clip-rule="evenodd" d="M55.8652 37.715H73.4629V26.6455H72.917V20.4048C72.917 18.4928 72.0395 17.6143 70.5248 17.6143C68.8787 17.6143 67.6939 18.6249 67.6939 20.8004V26.6455H64.2701V17.4604H62.9532V14.8234H67.0132L67.1895 16.6694C68.0887 15.3508 69.6244 14.6477 71.4466 14.6477C72.1734 14.6477 72.8539 14.7585 73.4629 14.9859V0.285156H55.8653V14.8354C56.6693 15.0532 57.3622 15.463 57.9053 16.0762V14.8237H61.3291V26.6458H58.0588V25.2828C57.4942 25.9654 56.7563 26.4174 55.8652 26.6458V37.7151V37.715ZM55.8652 17.5863V23.8829C57.0996 23.5215 57.9711 22.3975 57.9711 20.7346C57.9711 19.0724 57.0996 17.9479 55.8652 17.5862V17.5863Z" fill="#B1161B"/>
<path fill-rule="evenodd" clip-rule="evenodd" d="M28.7715 37.7152H55.8663V26.6458C55.4082 26.7631 54.9096 26.8215 54.3732 26.8215C51.0372 26.8215 48.4685 24.4486 48.4685 20.7347C48.4685 17.0208 51.0371 14.6482 54.3732 14.6482C54.9028 14.6482 55.403 14.71 55.8663 14.8354V0.285156H28.7715V15.2323C30.17 15.9911 31.0445 17.5061 31.0445 19.8774V26.6455H28.7715V37.7151V37.7152ZM55.8663 23.8831V17.5864C55.5833 17.5035 55.2812 17.4607 54.9662 17.4607C53.2534 17.4607 51.9365 18.6914 51.9365 20.7348C51.9365 22.7789 53.2534 24.0088 54.9662 24.0088C55.2812 24.0088 55.5833 23.966 55.8663 23.8831V23.8831ZM47.4154 22.4489C47.4154 25.1079 45.3088 26.6462 41.2703 26.6462H33.7216V14.1653H32.0974V11.2641H40.8311C44.6724 11.2641 46.6472 12.8675 46.6472 15.2638C46.6472 16.8012 45.8583 17.9878 44.6064 18.6475C46.3192 19.1968 47.4155 20.5151 47.4155 22.4489H47.4154ZM37.2548 13.9453V17.5706H40.3928C42.1272 17.5706 43.0699 16.955 43.0699 15.7472C43.0699 14.5381 42.1272 13.9453 40.3928 13.9453H37.2548ZM43.8163 22.0753C43.8163 20.7786 42.8511 20.163 41.0074 20.163H37.2548V23.9647H41.0074C42.8511 23.9647 43.8163 23.3929 43.8163 22.0753Z" fill="#F57615"/>
<path fill-rule="evenodd" clip-rule="evenodd" d="M73.4629 37.7151H75.4183V26.6455H73.4629V37.7151ZM75.4183 16.4769V0.285156H73.4629V14.9859C74.2538 15.2814 74.9241 15.7738 75.4183 16.4769V16.4769Z" fill="#3068BB"/>
<path fill-rule="evenodd" clip-rule="evenodd" d="M0 37.7151H25.9776V17.6766C25.7919 17.6349 25.5929 17.6143 25.3814 17.6143C23.845 17.6143 22.7701 18.6023 22.7701 20.7126V26.6455H19.3456V20.4049C19.3456 18.4929 18.5339 17.6143 17.1076 17.6143C15.5927 17.6143 14.5181 18.6024 14.5181 20.7126V26.6455H11.0935V17.4604H9.77658V14.8234H13.8376L14.0129 16.6478C14.8679 15.3509 16.3393 14.6477 18.0729 14.6477C19.7189 14.6477 21.1235 15.2849 21.9576 16.5816C22.8589 15.4268 24.301 14.7139 25.9777 14.6522V0.285156H7.22046e-05V37.7151L0 37.7151Z" fill="#EE2722"/>
<path fill-rule="evenodd" clip-rule="evenodd" d="M75.418 37.7151H99.9988V0.285156H75.418V16.4769C76.0023 17.3084 76.3405 18.4341 76.3405 19.8774V26.6455H75.418V37.7151ZM90.781 26.6455H86.8962L83.5602 21.5252H81.9804V26.6455H78.5566V10.3411H81.9804V18.9109H83.5602L86.7211 14.824H90.5396L86.5232 20.0094L90.781 26.6455Z" fill="#329935"/>
<path fill-rule="evenodd" clip-rule="evenodd" d="M25.9785 37.7151H29.0511V26.6455H27.621V20.4049C27.621 18.7854 27.0068 17.9074 25.9786 17.6767V37.7152L25.9785 37.7151ZM29.0511 15.3987V0.285156H25.9785V14.6522C26.0574 14.6493 26.1366 14.6477 26.2164 14.6477C27.3034 14.6477 28.2719 14.8915 29.0511 15.3987Z" fill="#211E1C"/>
</g>
<defs>
<clipPath id="clip0_870_77452">
<rect width="100" height="37.43" fill="white" transform="translate(0 0.285156)"/>
</clipPath>
</defs>
</svg>
