<svg width="100" height="24" viewBox="0 0 100 24" fill="none" xmlns="http://www.w3.org/2000/svg">
<g clip-path="url(#clip0_870_83923)">
<path fill-rule="evenodd" clip-rule="evenodd" d="M89.5858 14.4991H88.2171V10.0576C88.2171 9.72136 88.2022 9.39712 88.1699 9.08484C88.1377 8.77493 88.0706 8.5246 87.9687 8.33867C87.8593 8.1383 87.6979 7.98581 87.4892 7.88324C87.2806 7.78075 86.98 7.73064 86.5875 7.73064C86.2049 7.73064 85.8198 7.82367 85.4372 8.00725C85.0546 8.19076 84.6723 8.42442 84.2896 8.70815C84.302 8.81541 84.3144 8.93938 84.3244 9.08238C84.3344 9.22307 84.3393 9.36619 84.3393 9.50446V14.4991H82.9705V10.0576C82.9705 9.71187 82.9556 9.38521 82.9233 9.07527C82.891 8.76533 82.8239 8.51749 82.7221 8.33152C82.6128 8.13116 82.4513 7.98101 82.2426 7.88086C82.0339 7.78078 81.7333 7.73067 81.3409 7.73067C80.9683 7.73067 80.5932 7.81891 80.2156 7.99534C79.8405 8.17412 79.4653 8.39831 79.0926 8.67475V14.4991H77.7239V6.69839H79.0926V7.56373C79.52 7.22531 79.9447 6.95822 80.3696 6.76746C80.7944 6.57684 81.2465 6.48145 81.7259 6.48145C82.2799 6.48145 82.7494 6.59348 83.1344 6.81757C83.5195 7.03927 83.8076 7.34921 83.9965 7.74497C84.5505 7.29921 85.0546 6.97732 85.5117 6.77944C85.9664 6.58153 86.4532 6.48145 86.9725 6.48145C87.8668 6.48145 88.5251 6.74128 88.9498 7.26098C89.3747 7.77836 89.5858 8.50547 89.5858 9.43528V14.4991L89.5858 14.4991ZM3.61025e-05 0.29248H9.30306C10.7 0.965972 11.6961 1.75243 11.8799 2.53531C11.8548 6.67207 11.0746 10.5805 10.5926 14.4919C11.0059 14.4919 11.4191 14.4919 11.8323 14.4919C12.2297 11.3639 12.6685 8.0696 13.0658 4.94139C14.8931 9.16842 16.9315 15.1968 17.7442 14.4919C18.7144 12.3322 19.7092 10.0817 21.463 5.01237C21.8286 8.17231 22.1941 11.3321 22.5596 14.4919C23.1477 14.4919 23.7357 14.4919 24.3236 14.4919C23.847 10.7446 23.3702 6.99729 22.8933 3.24981C22.2419 3.26581 21.4655 3.2401 20.8138 3.25592C19.7491 5.95533 18.6011 8.98722 17.5363 11.6865C15.5632 7.19195 14.2101 1.42151 10.9741 0.296777C10.9139 0.294863 10.8506 0.293455 10.785 0.29248H100V15.8761H0.00014441V16.5215H66.4451C66.4612 16.6026 66.4688 16.6944 66.4688 16.7963V21.0934C66.4688 21.3227 66.473 21.5822 66.4685 21.8278L67.0555 21.9337C67.3062 21.979 67.53 21.9816 67.7198 21.9816C68.4357 21.9816 69.0039 21.7949 69.4231 21.4228C69.8437 21.0506 70.0533 20.5502 70.0533 19.9199C70.0533 19.3625 69.8911 18.9164 69.5668 18.5805C69.2425 18.2448 68.8114 18.0775 68.2722 18.0775C68.2115 18.0775 68.1457 18.0801 68.0784 18.0866C68.0098 18.0931 67.9334 18.1034 67.8476 18.1151L67.443 18.8218C67.584 18.7712 67.7119 18.7323 67.8253 18.7063C67.9387 18.6791 68.0428 18.6661 68.1378 18.6661C68.4752 18.6661 68.7481 18.7881 68.9564 19.0331C69.1647 19.2769 69.2689 19.5972 69.2689 19.9913C69.2689 20.427 69.1423 20.7732 68.8892 21.0286C68.6348 21.2841 68.2907 21.4125 67.8556 21.4125C67.7342 21.4125 67.6209 21.3994 67.5155 21.3723C67.41 21.3463 67.3071 21.3048 67.2069 21.2491V16.5215H79.347V16.6959C79.3584 16.7662 79.3645 16.8435 79.3645 16.9286V21.2905C79.3645 21.3756 79.3584 21.4534 79.347 21.5237V21.9817H80.0963V21.3695C80.0951 21.3439 80.0947 21.3175 80.0947 21.2906V16.5216H100V23.7073H0V0.292517L3.61025e-05 0.29248ZM81.6923 18.2849H82.3571L81.0599 19.85L82.2912 21.4111C82.3254 21.4578 82.452 21.5874 82.6736 21.8027C82.7513 21.8792 82.812 21.9388 82.8554 21.9816H82.0947C81.9734 21.9816 81.8654 21.9506 81.7705 21.8883C81.6756 21.8261 81.5622 21.7068 81.4303 21.5291L80.4118 20.1265V19.7799L81.0167 19.0736L81.0599 19.0254C81.0757 19.007 81.0906 18.9889 81.1049 18.9708C81.106 18.9694 81.1072 18.9681 81.1083 18.9667L81.6923 18.2849H81.6923ZM75.5005 21.2905C75.5005 21.4527 75.5216 21.5874 75.5637 21.6964C75.6073 21.8053 75.6746 21.9013 75.7669 21.9817H74.7922V18.3428H75.4587L75.4848 18.7907C75.6784 18.5885 75.8723 18.4392 76.0688 18.3447C76.2639 18.25 76.4721 18.202 76.6935 18.202C77.1102 18.202 77.4504 18.3265 77.7113 18.5768C77.9175 18.7733 78.0418 19.0186 78.0851 19.3108V21.9817H77.3556V21.462C77.3615 21.4087 77.3647 21.3517 77.3647 21.2906V19.968C77.3647 19.566 77.2908 19.273 77.1431 19.0889C76.9942 18.9061 76.7595 18.814 76.4378 18.814C76.1042 18.814 75.8644 18.8982 75.7181 19.0669C75.5731 19.2355 75.5005 19.5168 75.5005 19.9123V21.2906V21.2905ZM74.307 21.3813L73.9826 21.8792C73.6017 21.8792 73.3287 21.8118 73.1653 21.6756C73.0018 21.5408 72.92 21.3139 72.92 20.9976V19.9045C72.8792 19.9136 72.8159 19.9305 72.7301 19.9538C71.7744 20.2092 71.2972 20.4879 71.2972 20.7888C71.2972 20.9807 71.3776 21.1375 71.5371 21.2555C71.6967 21.3748 71.9076 21.4345 72.1699 21.4345C72.2424 21.4345 72.3255 21.4281 72.4177 21.4138C72.51 21.3996 72.6142 21.3787 72.7302 21.3515L72.3018 21.9169C72.2069 21.9402 72.1199 21.9571 72.0407 21.9662C71.9629 21.9764 71.8865 21.9816 71.8113 21.9816C71.4277 21.9816 71.1113 21.8715 70.8635 21.651C70.6142 21.4306 70.4904 21.1531 70.4904 20.8199C70.4904 20.6928 70.514 20.5722 70.5602 20.4582C70.6063 20.344 70.6736 20.2415 70.7607 20.1508C70.9201 19.9939 71.2642 19.8578 71.7916 19.7411C71.901 19.7177 71.984 19.6996 72.0434 19.684C72.3967 19.6049 72.6287 19.5297 72.742 19.4584C72.8554 19.3858 72.9121 19.2885 72.9121 19.164C72.9121 19.0045 72.8357 18.8762 72.6801 18.7802C72.5259 18.6843 72.3189 18.6362 72.0591 18.6362C71.922 18.6362 71.7704 18.6596 71.6031 18.7076C71.4356 18.7555 71.2523 18.8282 71.0546 18.9241L71.5595 18.1306C71.6914 18.1125 71.8153 18.0995 71.9326 18.0891C72.0499 18.0788 72.158 18.0736 72.2556 18.0736C72.4481 18.0736 72.6234 18.0956 72.7803 18.1397C72.9372 18.1838 73.077 18.2512 73.1983 18.3394C73.3552 18.4535 73.4658 18.5948 73.5318 18.7647C73.5977 18.9345 73.6307 19.1978 73.6307 19.5543V20.4464C73.6307 20.8575 73.6755 21.1103 73.7664 21.2063C73.8561 21.3021 74.0367 21.3605 74.307 21.3812V21.3813ZM35.9321 14.4991H34.5633V3.63004H35.9321V14.4991ZM31.998 14.4991H30.6293V3.63004H31.998V14.4991ZM45.5582 10.7346H39.1711C39.1711 11.2138 39.2506 11.6334 39.4122 11.9887C39.5712 12.3439 39.7912 12.637 40.0721 12.866C40.3398 13.0878 40.6605 13.257 41.0288 13.369C41.4 13.4811 41.8079 13.5358 42.2533 13.5358C42.8415 13.5358 43.4353 13.431 44.0342 13.2188C44.6305 13.0066 45.0573 12.7968 45.3117 12.5918H45.3885V14.0246C44.8956 14.2106 44.3947 14.3656 43.8832 14.4919C43.3691 14.6183 42.831 14.6803 42.2665 14.6803C40.8275 14.6803 39.7065 14.3298 38.8981 13.6289C38.0898 12.928 37.687 11.9338 37.687 10.644C37.687 9.36849 38.0739 8.35528 38.8477 7.60662C39.6216 6.85566 40.6394 6.48142 41.9009 6.48142C43.0724 6.48142 43.9734 6.7889 44.6068 7.40405C45.2402 8.01671 45.5582 8.89169 45.5582 10.0217V10.7345L45.5582 10.7346ZM44.1377 9.72851C44.1323 9.03957 43.9388 8.50543 43.5599 8.12877C43.1783 7.75212 42.6004 7.56373 41.8239 7.56373C41.0448 7.56373 40.4219 7.77125 39.9582 8.18603C39.4944 8.5985 39.2321 9.11347 39.1711 9.72851H44.1377H44.1377ZM53.9215 14.4991H52.5527V10.0576C52.5527 9.69753 52.5303 9.36135 52.488 9.04675C52.4434 8.73197 52.3638 8.48648 52.2471 8.31008C52.1253 8.11448 51.9514 7.96902 51.723 7.87364C51.4944 7.77836 51.1988 7.73064 50.8361 7.73064C50.4635 7.73064 50.071 7.81887 49.6636 7.9953C49.2562 8.17408 48.8661 8.39828 48.4934 8.67471V14.4991H47.1247V6.69836H48.4934V7.5637C48.9208 7.22278 49.363 6.95819 49.8176 6.76742C50.2747 6.5768 50.7417 6.48142 51.221 6.48142C52.1005 6.48142 52.7688 6.7341 53.2308 7.24192C53.6905 7.74973 53.9214 8.4816 53.9214 9.43525V14.4991H53.9215ZM62.8371 14.4991H61.4683V10.0576C61.4683 9.69753 61.4459 9.36135 61.4036 9.04675C61.359 8.73197 61.2794 8.48648 61.1627 8.31008C61.0409 8.11448 60.867 7.96902 60.6385 7.87364C60.4099 7.77836 60.1144 7.73064 59.7517 7.73064C59.3791 7.73064 58.9866 7.81887 58.5792 7.9953C58.1718 8.17408 57.7817 8.39828 57.409 8.67471V14.4991H56.0403V6.69836H57.409V7.5637C57.8364 7.22278 58.2786 6.95819 58.7332 6.76742C59.1903 6.5768 59.6573 6.48142 60.1366 6.48142C61.0161 6.48142 61.6843 6.7341 62.1464 7.24192C62.606 7.74973 62.837 8.4816 62.837 9.43525V14.4991H62.8371ZM27.9254 14.4991H26.5567V6.69836H27.9254V14.4991ZM27.083 3.57387C27.6225 3.57387 28.0625 4.01353 28.0625 4.55246C28.0625 5.09147 27.6225 5.53109 27.083 5.53109C26.5436 5.53109 26.1036 5.09147 26.1036 4.55246C26.1036 4.01353 26.5436 3.57387 27.083 3.57387ZM66.4497 14.4991H65.0809V6.69836H66.4497V14.4991ZM65.6072 3.57387C66.1467 3.57387 66.5867 4.01353 66.5867 4.55246C66.5867 5.09147 66.1467 5.53109 65.6072 5.53109C65.0678 5.53109 64.6278 5.09147 64.6278 4.55246C64.6278 4.01353 65.0678 3.57387 65.6072 3.57387ZM75.4378 14.4991H74.069V13.6337C73.6094 13.9817 73.1673 14.2511 72.7449 14.4371C72.3227 14.6231 71.8582 14.716 71.3488 14.716C70.4943 14.716 69.8285 14.4657 69.3541 13.9651C68.8796 13.4644 68.6411 12.7301 68.6411 11.7621V6.69836H70.0099V11.1398C70.0099 11.5356 70.0298 11.8742 70.067 12.1578C70.1068 12.4393 70.1887 12.68 70.3155 12.8802C70.4471 13.0853 70.6161 13.2331 70.8247 13.3261C71.0334 13.4191 71.3365 13.4667 71.7339 13.4667C72.0892 13.4667 72.4743 13.3785 72.8939 13.2021C73.3138 13.0233 73.7063 12.7991 74.069 12.5227V6.69836H75.4378V14.4991Z" fill="#C600CC"/>
</g>
<defs>
<clipPath id="clip0_870_83923">
<rect width="100" height="23.4148" fill="white" transform="translate(0 0.29248)"/>
</clipPath>
</defs>
</svg>
