<svg width="100" height="54" viewBox="0 0 100 54" fill="none" xmlns="http://www.w3.org/2000/svg">
<g clip-path="url(#clip0_870_90589)">
<path d="M0 27V0.518555H49.9999H99.9998V27V53.4814H49.9999H0L0 27ZM61.3609 38.9814C61.4998 38.8796 61.7036 38.6296 61.7962 38.4351C61.9721 38.0833 61.9721 38.0833 61.7591 37.6759C61.648 37.4629 61.5091 37.2777 61.4721 37.2777C61.3147 37.2777 61.3887 36.6759 61.5924 36.2962C61.7869 35.9166 61.7869 35.9166 61.611 35.6111C61.2591 35.0092 61.0369 34.9166 59.8054 34.8889L58.7035 34.8518V37.0463V39.2408L59.898 39.2037C60.935 39.1759 61.1295 39.1482 61.3609 38.9815V38.9814ZM63.8702 38.6944L64.0461 38.1573H65.3239H66.611L66.8147 38.6666C66.9628 39.0277 67.074 39.1851 67.2129 39.2036C67.4443 39.2407 67.5369 39.5184 66.3795 36.6758L65.6665 34.9166L65.3332 34.8888C65.0739 34.8703 64.9813 34.8981 64.935 35.0277C64.9073 35.1203 64.5276 36.074 64.111 37.1481C63.685 38.2314 63.3332 39.1388 63.3332 39.1666C63.3332 39.1944 63.4165 39.2222 63.5091 39.2222C63.6481 39.2222 63.7314 39.0925 63.8703 38.6944L63.8702 38.6944ZM69.4813 39.074C69.5091 38.9907 69.5369 38.2685 69.5369 37.4537V35.9815H69.8517C70.0369 35.9815 70.185 36.037 70.2128 36.1111C70.2591 36.2315 70.4906 36.6018 71.7498 38.5463C72.1295 39.1481 72.2035 39.2129 72.4813 39.2222H72.7776V37.0462V34.8703H72.5461H72.3146V36.3981V37.9258H72.009C71.722 37.9258 71.6664 37.861 70.8054 36.5277C70.3054 35.7592 69.8702 35.074 69.8424 34.9999C69.8146 34.9166 69.6572 34.8703 69.3887 34.8703H68.9813V37.0462V39.2222H69.2035C69.3239 39.2222 69.4535 39.1573 69.4813 39.074ZM75.0924 38.4166C75.0924 37.4722 75.2035 37.2777 75.7313 37.2777C76.0368 37.2777 76.1109 37.3425 76.6757 38.0462C77.0183 38.4722 77.3516 38.9073 77.4164 39.0184C77.4905 39.1296 77.6202 39.2222 77.7035 39.2222C77.8887 39.2222 77.9257 39.0833 77.7776 38.9907C77.722 38.9536 77.3702 38.5185 76.9905 38.0184C76.0369 36.7592 76.0368 36.6574 77.0368 35.6574C77.4535 35.2499 77.7405 34.9074 77.685 34.8889C77.5924 34.8518 76.0739 36.2315 75.8979 36.5185C75.8609 36.5741 75.6572 36.6296 75.4628 36.6296H75.0923V35.7499C75.0923 34.8703 75.0923 34.8703 74.8609 34.8703H74.6294V37.0463V39.2222H74.8609C75.0923 39.2222 75.0923 39.213 75.0923 38.4166L75.0924 38.4166ZM24.0555 31.9537C24.0926 31.9259 25.2407 26.8518 25.4629 25.7963C25.5833 25.1852 26.4814 21.2408 26.537 21.0556C26.574 20.9444 26.6852 20.8889 26.8888 20.8889C27.1574 20.8889 27.2407 20.9629 27.7407 21.6481C29.0278 23.4167 30.2685 25.1111 31.3148 26.537C31.9351 27.3796 32.6666 28.3796 32.9444 28.7592C33.7592 29.8611 34.2314 30.5185 34.787 31.2592L35.2962 31.9537L36.1481 31.9999C36.611 32.0277 37.1481 32.0277 37.3425 32.0092L37.6851 31.9815V24.0741V16.1575L36.5555 16.1852L35.4166 16.213L35.4259 22.0741L35.4351 27.9351L35.111 27.9074C34.7592 27.8796 34.7221 27.824 31.9721 24.0092C31.574 23.4629 31.0462 22.7314 30.7869 22.3796C30.5369 22.037 29.9721 21.2592 29.5369 20.6574C29.1017 20.0555 28.5369 19.2685 28.2684 18.9074C28.0091 18.5463 27.6665 18.0833 27.5184 17.8796C27.3702 17.6759 27.0277 17.2037 26.7591 16.8426L26.2684 16.1667H25.0369C24.3518 16.1667 23.7961 16.1944 23.7961 16.2407C23.7961 16.2778 24.0277 16.6111 24.3054 16.9907C24.6203 17.4167 24.8146 17.7685 24.8146 17.9167C24.8146 18.1481 24.5554 19.3611 23.8887 22.2777C23.7406 22.9629 23.4998 24.0092 23.3702 24.5925C23.2498 25.1758 23.0369 26.0925 22.9165 26.6296C22.7961 27.1666 22.4813 28.5648 22.2221 29.7314C21.9628 30.9074 21.7314 31.9166 21.7036 31.9907C21.6666 32.1018 21.8518 32.111 22.8425 32.0555C23.4906 32.0184 24.037 31.9722 24.0555 31.9536L24.0555 31.9537ZM46.324 31.8611C47.6758 31.5092 48.9443 30.4907 49.5184 29.2963C49.6758 28.9537 49.8147 28.6296 49.8147 28.5833C49.8147 28.4815 49.3517 28.3425 48.685 28.25C48.2591 28.1851 48.2406 28.1944 48.148 28.4444C47.8147 29.3518 47.2036 29.9722 46.4073 30.2037C45.6388 30.4259 44.1758 30.3518 43.5647 30.0555C42.6203 29.6018 41.8703 28.4537 41.7869 27.3333L41.7314 26.7222H45.6851H49.6295V25.9537C49.6295 24.3519 49.0277 22.8889 47.9629 21.9259C47.3055 21.3241 45.9444 20.8055 45.0462 20.7963C43.9814 20.7963 42.6203 21.3981 41.75 22.2685C40.4444 23.5741 39.8148 25.5648 40.1296 27.3703C40.4444 29.1574 41.2963 30.4536 42.7314 31.3332C43.7592 31.9536 45.1573 32.1666 46.324 31.861L46.324 31.8611ZM57.5647 31.7685C58.7499 31.3703 59.6388 30.5833 60.0091 29.6203C60.4628 28.4351 60.1573 27.287 59.148 26.3703C58.4721 25.75 57.7777 25.4907 56.1017 25.2407C54.3054 24.9629 54.0739 24.7962 54.0739 23.75C54.0739 23.287 54.111 23.1574 54.2962 22.9722C54.7683 22.5 56.2684 22.3889 57.0924 22.7778C57.5647 23 57.9721 23.4259 58.1017 23.8333C58.1758 24.0834 58.1388 24.0834 58.9536 23.8241L59.6295 23.6203L59.398 23.1296C59.0646 22.4074 58.2683 21.6204 57.4721 21.2222C56.3424 20.6482 55.2591 20.6667 54.0461 21.2778C51.8795 22.3611 51.5924 24.787 53.4721 26.1667C54.111 26.6389 54.8055 26.8796 56.185 27.0926C57.9906 27.3889 58.4258 27.6852 58.4258 28.6482C58.4258 29.1851 58.3054 29.5648 58.074 29.75C57.2498 30.4167 55.3424 30.5 54.398 29.8982C53.9443 29.6204 53.4906 28.9815 53.324 28.4074C53.2406 28.1204 53.1665 28.0278 53.0647 28.0556C52.9813 28.0834 52.611 28.1482 52.2499 28.213C51.4721 28.3519 51.4814 28.3056 51.9906 29.3611C53.0369 31.5093 55.3517 32.5093 57.5647 31.7685L57.5647 31.7685ZM68.1387 31.8241C69.1202 31.5185 69.8795 30.8333 70.3239 29.8425C70.5925 29.2315 70.7961 28.3148 70.6851 28.2129C70.6388 28.1667 70.2406 28.1018 69.8054 28.0648L69.0091 28L68.9443 28.5277C68.7962 29.8055 68.0369 30.4258 66.7591 30.3055C65.9906 30.2407 65.611 30.0462 65.3332 29.574C65.0462 29.0833 65.0369 29 65.0739 25.4537L65.0925 22.8333L67.7128 22.8148L70.3239 22.787L70.3517 21.9815L70.3795 21.1667H67.685H64.9999V19.5463V17.926H64.074H63.148L63.1295 19.5278L63.1017 21.1204L62.2036 21.1482L61.2962 21.1759V21.9537C61.2962 22.8518 61.1851 22.7685 62.4073 22.7778L63.1017 22.787L63.148 25.8889C63.1943 28.9815 63.1943 28.9908 63.4443 29.5741C63.5739 29.8982 63.7777 30.287 63.8888 30.4537C64.111 30.7778 64.8332 31.3796 65.2499 31.6018C66.0369 32.0093 67.2406 32.1018 68.1388 31.8241L68.1387 31.8241ZM75.6758 31.7222C76.1387 31.4258 76.6109 30.6759 76.5924 30.2222C76.5832 29.9537 76.2683 29.287 76.0369 29.037C75.7221 28.7036 75.1017 28.4537 74.7498 28.5092C73.9813 28.6389 73.2128 29.5 73.2128 30.2407C73.2128 30.8333 73.8517 31.7037 74.4443 31.9351C74.7962 32.0648 75.2591 31.9907 75.6758 31.7222H75.6758ZM76.2313 25.8426C76.4072 25.1389 77.7868 18.9723 78.2035 17.0834C78.2683 16.7408 78.3609 16.3982 78.3887 16.3149C78.4443 16.176 78.2498 16.1667 76.2869 16.1852L74.1202 16.213L74.0924 20.9815C74.0739 23.6019 74.0924 25.9259 74.1202 26.1482L74.1757 26.5463L75.1202 26.5185L76.0646 26.4908L76.2313 25.8426V25.8426Z" fill="#16161E"/>
<path d="M59.166 37.9721V37.1851H60.129C61.3049 37.1851 61.3883 37.2406 61.3883 38.0091C61.3883 38.2962 61.342 38.5832 61.2772 38.648C61.2031 38.7221 60.8235 38.7591 60.166 38.7591H59.166V37.9721Z" fill="#16161E"/>
<path d="M59.2401 36.7592C59.1938 36.7221 59.166 36.3888 59.166 36.0092V35.3333H60.0549C61.2216 35.3333 61.2957 35.3796 61.2957 36.074C61.2957 36.3703 61.2494 36.6481 61.1938 36.6758C61.0457 36.7684 59.3142 36.8425 59.2401 36.7592Z" fill="#16161E"/>
<path d="M64.5371 37.3332C64.5371 37.1573 64.6482 36.7129 64.7779 36.361C65.0093 35.7314 65.0371 35.7036 65.3242 35.7036C65.6019 35.7036 65.6482 35.7499 65.8334 36.1943C65.9538 36.4536 66.0649 36.898 66.0926 37.1665L66.1297 37.648H65.3334H64.5371V37.3332V37.3332Z" fill="#16161E"/>
<path d="M41.9434 24.8982C41.9434 24.3519 42.1934 23.8241 42.6934 23.3149C43.1842 22.8242 43.7212 22.5649 44.5082 22.4538C46.4619 22.176 47.9619 23.1945 47.9619 24.7963V25.3334H44.9526H41.9434V24.8982L41.9434 24.8982Z" fill="#16161E"/>
<path d="M58.4258 37.0462V34.5925H59.7036C60.7221 34.5925 61.0369 34.6203 61.2962 34.7592C61.9814 35.1018 62.2406 35.9722 61.8517 36.6111C61.685 36.8889 61.6758 36.9351 61.8054 37.0555C62.2683 37.5185 62.3424 38.4259 61.9721 38.9259C61.6202 39.4166 61.2869 39.4999 59.7961 39.4999H58.4258V37.0463V37.0462ZM60.9998 38.3703C61.1573 38.2129 61.1388 37.7777 60.9628 37.6111C60.861 37.4999 60.6295 37.4629 60.1295 37.4629H59.4443V37.9722V38.4814H60.1665C60.6017 38.4814 60.935 38.4351 60.9998 38.3703V38.3703ZM60.9073 36.3981C60.9628 36.3796 61.0184 36.2314 61.0184 36.0833C61.0184 35.7129 60.8054 35.6111 60.0554 35.6111H59.4443V36.0092C59.4443 36.2315 59.4628 36.4352 59.4999 36.4629C59.5554 36.5185 60.7129 36.4629 60.9073 36.3981Z" fill="#BCA8FF"/>
<path d="M62.8057 39.4351C62.8519 39.361 64.5464 35.0832 64.6575 34.7499C64.7131 34.611 64.8149 34.5925 65.3334 34.611L65.9445 34.6388L66.8519 36.8795C67.3519 38.111 67.7871 39.2036 67.8241 39.3147C67.8797 39.4999 67.8612 39.5091 67.3149 39.4814L66.7408 39.4536L66.5371 38.9443L66.3334 38.4351H65.3242H64.3242L64.1482 38.9721L63.963 39.4999H63.3704C63.0371 39.4999 62.7871 39.4721 62.8057 39.4351ZM65.7871 37.1203C65.7593 36.9721 65.639 36.6574 65.5186 36.3981L65.3149 35.9444L65.0649 36.611C64.926 36.9814 64.8149 37.3055 64.8149 37.3332C64.8149 37.3518 65.0464 37.3703 65.3333 37.3703H65.8518L65.787 37.1203H65.7871Z" fill="#BCA8FF"/>
<path d="M68.7031 37.0462V34.5925H69.3883C69.8975 34.5925 70.0827 34.6296 70.1198 34.7222C70.1476 34.7963 70.5827 35.4907 71.0827 36.2592L71.9901 37.6573L72.0179 36.1296L72.0364 34.5925H72.5457H73.0549V37.0462V39.4999H72.4808L71.8976 39.4906L71.4716 38.824C70.5642 37.4166 70.0272 36.574 69.9253 36.3981C69.842 36.2499 69.8142 36.5555 69.8049 37.787C69.7957 38.6573 69.7957 39.3888 69.8049 39.4351C69.8049 39.4721 69.5642 39.4999 69.2586 39.4999H68.7031V37.0462Z" fill="#BCA8FF"/>
<path d="M74.3516 37.0462V34.5925H74.8608H75.3701V35.4722C75.3701 35.9536 75.3978 36.3518 75.4441 36.3518C75.4811 36.3425 75.907 35.9536 76.3886 35.4722L77.2682 34.5925H77.9441C78.3052 34.5925 78.6108 34.6111 78.6108 34.6296C78.6108 34.6481 78.1571 35.111 77.5922 35.6666C77.0367 36.2222 76.5737 36.7037 76.5737 36.7499C76.5737 36.787 76.8978 37.2407 77.2959 37.7592C77.6848 38.2685 78.1478 38.8703 78.3144 39.0926L78.6293 39.5H77.9348C77.4627 39.5 77.2311 39.463 77.1941 39.3889C77.1571 39.2963 75.9534 37.7408 75.7775 37.5648C75.7589 37.5463 75.6571 37.6018 75.5553 37.6945C75.3978 37.8426 75.3701 37.9815 75.3701 38.6852V39.5H74.8608H74.3516V37.0463V37.0462Z" fill="#BCA8FF"/>
<path d="M21.3606 32.3056C21.3143 32.2408 21.4717 31.5371 22.4903 27.0001C22.694 26.1111 22.9902 24.7963 23.1477 24.0834C23.4533 22.713 23.5736 22.1945 24.1569 19.5927L24.5181 17.9723L24.194 17.5094C24.018 17.2594 23.731 16.8612 23.5551 16.6297C22.944 15.8149 22.8236 15.889 24.7958 15.889H26.5458L27.0365 16.5649C27.3051 16.9261 27.6569 17.4075 27.8143 17.6205C27.9717 17.8335 28.3236 18.3056 28.5921 18.6853C28.8606 19.0557 29.4069 19.8242 29.8143 20.3797C30.2217 20.9445 30.768 21.7038 31.0365 22.0742C31.3051 22.4445 31.8236 23.1482 32.1847 23.6482C32.5458 24.1389 33.3329 25.2223 33.9347 26.0556C34.5365 26.8797 35.0551 27.5741 35.0829 27.5926C35.1107 27.6111 35.1384 25.0001 35.1384 21.7871V15.9352L36.5551 15.9074L37.9624 15.8796V24.1111V32.3426L36.518 32.3241L35.0829 32.3055L34.5366 31.5741C33.9255 30.75 33.4162 30.0556 32.6662 29.037C32.3884 28.6574 31.657 27.6574 31.0366 26.8148C29.9903 25.3889 28.7589 23.7129 27.4533 21.9167C26.9996 21.2963 26.8885 21.1852 26.8329 21.3241C26.7959 21.4167 26.5274 22.537 26.2496 23.8055C25.9625 25.0833 25.6292 26.5555 25.5089 27.0925C25.3885 27.6296 25.0922 28.9444 24.8608 30.0092C24.6292 31.0833 24.4071 32.037 24.3608 32.1389C24.2867 32.3148 24.1848 32.3333 22.8423 32.3518C22.0552 32.3703 21.3886 32.3518 21.3608 32.3055L21.3606 32.3056Z" fill="#BCA8FF"/>
<path d="M44.4895 32.2962C43.8136 32.2129 43.0543 31.9629 42.4988 31.6296C41.0173 30.75 40.1655 29.4629 39.8414 27.6018C39.4802 25.5092 40.1007 23.361 41.471 21.9907C43.045 20.4259 45.5728 20.0555 47.4524 21.1203C49.1098 22.0648 49.9061 23.6203 49.9061 25.9536V27H45.9617H42.0172L42.0728 27.3518C42.1654 27.8703 42.6376 28.787 43.0357 29.1944C43.5264 29.7129 44.1469 29.9814 44.9524 30.037C46.3876 30.1296 47.4431 29.4537 47.8598 28.1851C48.008 27.75 48.0357 27.75 49.758 28.1296L50.2024 28.2314L50.1561 28.5648C50.0172 29.6203 48.8321 31.1481 47.7024 31.7129C46.7765 32.1759 45.4617 32.4167 44.4895 32.2963V32.2962ZM47.6839 24.7962C47.6839 24.4166 47.2487 23.6018 46.9062 23.3426C46.3506 22.9259 45.758 22.7222 45.1006 22.7222C43.8969 22.7407 42.9247 23.3333 42.4062 24.3703C42.045 25.1018 41.8877 25.0555 44.9524 25.0555H47.6839V24.7962Z" fill="#BCA8FF"/>
<path d="M55.2131 32.2594C53.7224 32.0371 52.389 31.0371 51.6853 29.639C51.4261 29.1112 51.1669 28.1946 51.2594 28.1205C51.3057 28.0835 51.7409 27.9724 52.2224 27.889C52.7038 27.7964 53.1853 27.7038 53.2872 27.6853C53.4538 27.6483 53.5002 27.7038 53.602 28.102C53.7131 28.5465 54.139 29.2409 54.4353 29.4723C55.352 30.1853 57.0742 30.1575 57.8427 29.4168C58.139 29.1297 58.2131 28.6205 58.0094 28.2409C57.7779 27.7964 57.2687 27.5927 55.9076 27.3705C54.5279 27.1575 53.8335 26.9168 53.1946 26.4445C52.3335 25.8149 51.9353 25.0002 51.926 23.852C51.9075 22.5927 52.5371 21.6112 53.7686 21.0001C54.5557 20.6019 55.1668 20.4909 56.176 20.5372C56.9538 20.5835 57.1205 20.6205 57.7408 20.9353C58.6297 21.389 59.3982 22.1853 59.7593 23.0465C59.9075 23.3798 60.0001 23.7131 59.9723 23.7779C59.9538 23.852 59.5556 24.0187 59.1019 24.1483C58.6483 24.2872 58.2131 24.4261 58.1297 24.4539C58.0279 24.491 57.9538 24.4169 57.8705 24.2039C57.6575 23.6669 57.3057 23.2872 56.8149 23.0557C55.7593 22.565 54.3519 22.9631 54.3519 23.7502C54.3519 24.4909 54.7131 24.7131 56.3797 24.9631C58.1019 25.2224 58.7686 25.4816 59.4816 26.1483C60.7224 27.315 60.889 29.0835 59.889 30.6113C59.102 31.815 57.0464 32.5465 55.2131 32.2594V32.2594Z" fill="#BCA8FF"/>
<path d="M66.4065 32.2592C65.4435 32.1481 64.9806 31.9629 64.2583 31.3889C63.7213 30.9537 63.4899 30.6204 63.1657 29.8518C62.9157 29.2685 62.9157 29.2593 62.8694 26.1667L62.8232 23.0648L61.925 23.0834L61.0176 23.1111V22V20.8981L61.925 20.8703L62.8232 20.8426L62.8509 19.2408C62.8694 18.0648 62.9065 17.6482 62.9898 17.6389C63.0454 17.6389 63.5824 17.6296 64.1657 17.6296H65.2306L65.2583 19.2593L65.2769 20.8889H67.9713H70.6565L70.6287 21.9815L70.6009 23.0648L67.9898 23.0926L65.3695 23.1111L65.3602 25.7315C65.3509 29 65.3324 28.8148 65.6287 29.3148C65.8417 29.6666 65.9621 29.7592 66.388 29.8981C67.5824 30.2963 68.5269 29.6018 68.6657 28.2129L68.7306 27.6389L69.249 27.6944C69.5361 27.7315 70.0361 27.7778 70.3694 27.8148L70.9713 27.8796L70.999 28.3148C71.0268 28.8056 70.8139 29.7315 70.5361 30.2778C69.7861 31.7592 68.2769 32.4815 66.4065 32.2593V32.2592Z" fill="#BCA8FF"/>
<path d="M74.4165 32.2594C73.9443 32.1575 73.4721 31.7872 73.1665 31.2686C72.6295 30.3612 72.935 29.0927 73.8146 28.5094C74.3424 28.1575 75.2035 28.1019 75.7591 28.389C75.9814 28.5001 76.2221 28.6668 76.3146 28.7594C76.5832 29.0372 76.8609 29.6853 76.9072 30.1297C76.9813 30.7686 76.509 31.6667 75.9257 32.0094C75.4535 32.2872 74.935 32.3798 74.4165 32.2594H74.4165Z" fill="#BCA8FF"/>
<path d="M73.8516 26.7407C73.8238 26.6944 73.8054 24.2407 73.8238 21.2963L73.8424 15.9352L76.3238 15.9074C77.6849 15.8981 78.7961 15.9167 78.7961 15.9537C78.7961 15.9907 78.7405 16.2685 78.6664 16.574C78.5923 16.8889 78.4442 17.537 78.3331 18.0184C78.222 18.4999 78.083 19.1481 78.009 19.4536C77.9442 19.7592 77.6108 21.2407 77.2775 22.7406C76.9442 24.2406 76.5923 25.7684 76.509 26.1202L76.3423 26.7684L75.1201 26.7962C74.4534 26.8054 73.8793 26.7869 73.8516 26.7406L73.8516 26.7407Z" fill="#BCA8FF"/>
</g>
<defs>
<clipPath id="clip0_870_90589">
<rect width="100" height="52.9628" fill="white" transform="translate(0 0.518555)"/>
</clipPath>
</defs>
</svg>
