<svg width="80" height="56" viewBox="0 0 80 56" fill="none" xmlns="http://www.w3.org/2000/svg">
<g clip-path="url(#clip0_870_90527)">
<mask id="mask0_870_90527" style="mask-type:luminance" maskUnits="userSpaceOnUse" x="0" y="0" width="80" height="56">
<path d="M0.935547 55.5H79.0638V0.5H0.935547V55.5Z" fill="white"/>
</mask>
<g mask="url(#mask0_870_90527)">
<path d="M79.185 55.5001H0.8125V0.5H79.185V55.5001Z" fill="black"/>
<path fill-rule="evenodd" clip-rule="evenodd" d="M56.4352 28.2465L56.424 28.2573L56.4137 28.2711L56.4043 28.2901L56.397 28.312L56.3895 28.338L56.3832 28.3659L56.3755 28.3994L56.3702 28.437L56.3687 28.4403L56.368 28.4459V28.4526L56.3673 28.4589L56.3647 28.4663V28.4738L56.3636 28.4756L56.302 28.4712L56.3673 27.5478L56.4289 27.5526V27.5616V27.569V27.5768V27.582V27.588L56.4296 27.5936V27.6296L56.4318 27.6639L56.434 27.694L56.4381 27.72L56.4433 27.7431L56.45 27.7624L56.4578 27.7784L56.4685 27.7914L56.4826 27.7996L56.4985 27.8077L56.5189 27.8145L56.5449 27.8193L56.5738 27.8249L56.608 27.8293L56.6454 27.8338L56.6884 27.8368L58.0937 27.9353L58.136 27.9383L58.173 27.9402H58.2079L58.2372 27.939L58.2628 27.9361L58.2846 27.9327L58.3028 27.9279L58.3191 27.9197L58.3296 27.9082L58.3395 27.8944L58.3492 27.8769L58.3565 27.8543L58.3643 27.8293L58.3718 27.8003L58.3781 27.7669L58.3848 27.73L58.3855 27.7252L58.3873 27.7144L58.3892 27.7077V27.6995L58.3903 27.6917L58.3911 27.691L58.4515 27.6947L58.3818 28.7014L58.3729 28.7851L58.3614 28.8639L58.3447 28.9357L58.3243 29.0033L58.2999 29.0647L58.2717 29.1205L58.2383 29.1722L58.2027 29.2168L58.1626 29.257L58.1182 29.2904L58.0718 29.3173L58.0221 29.3403L57.9695 29.3552L57.9113 29.3663L57.8519 29.37L57.7874 29.3682L57.7325 29.3626L57.6802 29.3533L57.6309 29.3388L57.5827 29.3209L57.5389 29.2986L57.4967 29.2719L57.457 29.2421L57.4188 29.2079L57.3832 29.1696L57.3506 29.1287L57.3232 29.0844L57.2971 29.0368L57.2745 28.9848L57.2549 28.9301L57.2389 28.8721L57.2249 28.8107L57.2193 28.7765L57.2152 28.7378L57.2119 28.6947L57.2108 28.6478V28.5965L57.2119 28.5418L57.2152 28.482L57.2171 28.4355L57.2616 28.4388L57.2623 28.4738L57.2679 28.5214L57.2745 28.5649L57.2842 28.6047L57.2949 28.643L57.3087 28.6765L57.325 28.7077L57.3443 28.7348L57.3814 28.7787L57.4244 28.8174L57.4729 28.8509L57.5259 28.8788L57.5827 28.9022L57.6461 28.9197L57.7136 28.9327L57.7859 28.9401L57.8434 28.942L57.8983 28.9413L57.9487 28.9357L57.9973 28.926L58.0425 28.9141L58.0848 28.8974L58.1237 28.8769L58.1601 28.8516L58.1927 28.8237L58.2209 28.7918L58.2457 28.7572L58.2672 28.7181L58.2846 28.6765L58.2976 28.6307L58.3069 28.5835L58.3128 28.5318L58.3258 28.3478L56.6606 28.2306L56.6168 28.228L56.5798 28.2269H56.5449L56.516 28.228L56.4904 28.2294L56.4685 28.2336L56.45 28.2376L56.4352 28.2465ZM56.7381 25.1184L56.6754 25.1418L56.6168 25.1675L56.5657 25.1984L56.52 25.2318L56.4815 25.2679L56.4481 25.3088L56.4211 25.3534L56.3992 25.4025L56.3832 25.4549L56.3736 25.5115L56.3687 25.5717L56.3702 25.6357L56.3777 25.7037L56.4069 25.8354L56.4566 25.948L56.5252 26.0388L56.615 26.1106L56.724 26.1597L56.8504 26.1876L56.9962 26.1939L57.1601 26.1801L57.9858 26.063L58.0374 26.0555L58.0848 26.047L58.1245 26.0369L58.1627 26.0266L58.195 26.015L58.2217 26.002L58.2457 25.9886L58.2643 25.9726L58.278 25.9551L58.2899 25.9332L58.2999 25.9079L58.3062 25.8781L58.3103 25.8458L58.3136 25.8082V25.7688V25.7406L58.3729 25.7324L58.4668 26.4017L58.4067 26.4103L58.4004 26.3835L58.3892 26.3444L58.3759 26.3099L58.3629 26.2794L58.3485 26.2534L58.3322 26.2318L58.3151 26.2136L58.2962 26.2005L58.2747 26.1909L58.2488 26.1849L58.2187 26.1801L58.1853 26.1782H58.1464L58.1034 26.1808L58.0555 26.1849L58.0037 26.1909L57.1482 26.3117L57.0499 26.3221L56.9558 26.3248L56.8686 26.3199L56.7855 26.3069L56.708 26.2887L56.6354 26.2608L56.5675 26.2266L56.5048 26.1849L56.4466 26.1344L56.3962 26.0778L56.3499 26.0157L56.3087 25.9447L56.2753 25.8677L56.246 25.7844L56.2223 25.6936L56.2063 25.5947L56.1952 25.4936L56.1934 25.3961L56.1997 25.3061L56.2138 25.2206L56.2375 25.1395L56.2697 25.0651L56.3087 24.9956L56.3573 24.9309L56.4025 24.8837L56.4566 24.8409L56.5171 24.8026L56.5853 24.7673L56.6606 24.7375L56.7436 24.7126L56.8352 24.6914L56.9324 24.6743L57.8627 24.5434L57.9046 24.537L57.9413 24.5304L57.9747 24.524L58.0037 24.5166L58.0289 24.5092L58.0492 24.5017L58.0667 24.4921L58.0781 24.482L58.0882 24.469L58.0948 24.4519L58.1004 24.4314L58.1041 24.4087L58.1052 24.3816L58.1078 24.3522L58.1064 24.3187L58.1052 24.2805L58.1041 24.276V24.2704V24.2641V24.2567L58.1034 24.25V24.2425V24.2407L58.1635 24.2336L58.291 25.1499L58.2317 25.1573L58.2291 25.1491L58.2283 25.1417L58.2261 25.1368L58.2254 25.1305L58.2242 25.1246L58.2232 25.1205L58.2142 25.0856L58.2057 25.0536L58.1971 25.0264L58.1883 25.0022L58.1786 24.9807L58.1694 24.9643L58.1586 24.9491L58.1453 24.9372L58.1312 24.9309L58.1163 24.9253L58.0967 24.9227L58.0745 24.9204H58.0492L58.0214 24.9212L57.9899 24.9241L57.955 24.9286L57.9179 24.9342L56.9673 25.0681L56.8849 25.0811L56.8086 25.0986L56.7381 25.1183V25.1184ZM57.5846 21.9764L57.5601 21.9102L57.5316 21.8496L57.4967 21.795L57.4548 21.7458L57.407 21.702L57.3532 21.6652L57.2928 21.6325L57.2268 21.6075L57.1556 21.5871L57.0814 21.5741L57.0036 21.5666H56.9216L56.8367 21.5733L56.7477 21.5848L56.655 21.6038L56.5578 21.6287L56.4447 21.6652L56.3368 21.705L56.2367 21.7492L56.1447 21.7968L56.0572 21.8496L55.9786 21.9061L55.9071 21.9675L55.8433 22.033L55.7873 22.1006L55.7421 22.1702L55.705 22.2397L55.6809 22.3115L55.6656 22.3837L55.6612 22.4562L55.6664 22.5306L55.6838 22.6053L55.7068 22.6704L55.7354 22.7299L55.7732 22.7838L55.8166 22.8318L55.8674 22.8727L55.9245 22.9088L55.9882 22.9389L56.0598 22.9627L56.1358 22.9798L56.2163 22.9921L56.2997 22.9962L56.3884 22.9936L56.4803 22.9862L56.5775 22.9716L56.6776 22.9497L56.7825 22.9222L56.8889 22.8883L56.9883 22.8515L57.0814 22.8087L57.1674 22.7633L57.2464 22.7124L57.3199 22.6585L57.3855 22.5997L57.4448 22.5361L57.4941 22.4703L57.5368 22.4041L57.569 22.3353L57.5917 22.2658L57.6039 22.1955L57.6068 22.123L57.6005 22.0505L57.5846 21.9764ZM57.6844 22.0337L57.7092 22.1375L57.7244 22.2409L57.7288 22.3421L57.7233 22.4424L57.707 22.5406L57.681 22.638L57.6461 22.7336L57.599 22.8273L57.5442 22.9177L57.483 22.998L57.4148 23.0717L57.3414 23.1375L57.2594 23.1951L57.173 23.2453L57.0781 23.287L56.9776 23.3205L56.9108 23.3379L56.8448 23.351L56.7789 23.3606L56.7143 23.3659L56.6483 23.3673L56.5838 23.3659L56.5189 23.3595L56.4548 23.3495L56.3906 23.3364L56.3279 23.3186L56.2675 23.2981L56.2081 23.2732L56.151 23.2453L56.0947 23.213L56.0409 23.1777L55.9882 23.1375L55.9159 23.0772L55.8488 23.0111L55.7888 22.9415L55.7335 22.8671L55.6861 22.7883L55.6427 22.7057L55.6071 22.6183L55.577 22.5257L55.5551 22.4376L55.5425 22.3513L55.5359 22.2632L55.5381 22.1769L55.547 22.0895L55.564 22.004L55.5885 21.9166L55.6211 21.8311L55.6742 21.7254L55.7354 21.6287L55.8084 21.5425L55.8903 21.4633L55.9805 21.3959L56.0832 21.3353L56.1941 21.2851L56.3149 21.2442L56.4262 21.2185L56.5367 21.2014L56.6428 21.1966L56.7492 21.2055L56.8534 21.223L56.9557 21.252L57.0573 21.2929L57.1578 21.3435L57.252 21.4041L57.3376 21.4718L57.4159 21.5473L57.486 21.6299L57.5472 21.7199L57.6013 21.8172L57.6469 21.9225L57.6844 22.0337ZM55.358 19.2224L55.4659 19.4258L55.513 19.4972L55.5708 19.5523L55.6387 19.5894L55.7162 19.608L55.8019 19.6092L55.8953 19.5913L55.9965 19.5552L56.1078 19.5028L56.1986 19.4481L56.2724 19.3897L56.3281 19.3273L56.3681 19.2607L56.3877 19.1889L56.3907 19.1146L56.3744 19.0387L56.3403 18.9598L56.232 18.7564L55.3581 19.2223L55.358 19.2224ZM54.8553 20.4503L54.849 20.4354L54.8456 20.4206L54.8434 20.4027L54.8442 20.3833L54.8475 20.3629L54.8538 20.3406L54.8616 20.3157L54.8734 20.2893L54.8887 20.2599L54.9079 20.2245L54.9328 20.1836L54.9617 20.1353L54.9958 20.0825L55.0347 20.0241L55.0777 19.959L55.1248 19.8894L55.407 19.4797L55.2899 19.2584L54.7589 19.5421L54.7218 19.5626L54.6877 19.5819L54.6588 19.5987L54.6351 19.6154L54.6146 19.631L54.5976 19.6452L54.5853 19.6597L54.5768 19.6738L54.5724 19.6894V19.7072L54.5746 19.7277L54.5798 19.75L54.5865 19.7761L54.5961 19.8047L54.608 19.8363L54.6221 19.8709L54.6246 19.8754L54.6269 19.881L54.6284 19.8865L54.6306 19.8928L54.6339 19.8995L54.6372 19.9059L54.582 19.936L54.1493 19.1194L54.2046 19.09V19.0907L54.2094 19.0982L54.2131 19.1038L54.2168 19.1082L54.2198 19.1138L54.2231 19.1186L54.2261 19.1234L54.2457 19.154L54.2654 19.1815L54.2847 19.206L54.3017 19.225L54.3176 19.2429L54.3332 19.2551L54.347 19.2644L54.3633 19.2707H54.3807L54.4 19.2681L54.4204 19.2626L54.4441 19.2551L54.4712 19.244L54.5027 19.2291L54.5372 19.2123L54.5746 19.193L55.8179 18.5299L55.8557 18.5091L55.888 18.4909L55.9172 18.4719L55.9421 18.4563L55.9625 18.4404L55.9788 18.4255L55.9918 18.4117L56 18.3976L56.0044 18.3831L56.0058 18.3634L56.0033 18.344L55.9992 18.3206L55.9918 18.2946L55.9829 18.2659L55.9707 18.2343L55.9558 18.2001L55.9551 18.1953L55.9528 18.1901L55.9495 18.1841L55.9473 18.1785L55.9455 18.1711L55.9406 18.1636L55.9947 18.135L56.489 19.0665L56.5201 19.1324L56.5472 19.1956L56.5676 19.2577L56.5817 19.3191L56.5906 19.3778L56.5947 19.4343L56.5917 19.4898L56.5839 19.5448L56.5702 19.5961L56.5516 19.6441L56.5276 19.6895L56.4979 19.7315L56.463 19.7702L56.423 19.8077L56.3778 19.8404L56.3262 19.8709L56.2828 19.8922L56.2376 19.91L56.1942 19.923L56.1493 19.9331L56.1037 19.9387L56.0574 19.9405L56.0121 19.9387L55.9658 19.9331L55.9194 19.923L55.8727 19.91L55.8275 19.8929L55.7833 19.8724L55.7388 19.8475L55.6969 19.8208L55.655 19.7892L55.5965 19.739L55.3102 20.2562L55.2616 20.3455L55.219 20.4291L55.1808 20.5076L55.15 20.5805L55.1229 20.6489L55.1 20.7103L55.084 20.7668L55.0754 20.8099L55.0514 20.8215L54.8552 20.4504L54.8553 20.4503ZM53.8545 16.9964L53.9012 16.9573L54.5108 17.7126L54.4637 17.7505L54.444 17.7301L54.4158 17.7029L54.3899 17.6791L54.3665 17.6594L54.3446 17.6427L54.3265 17.63L54.3091 17.6204L54.2927 17.6141L54.2757 17.6122L54.2586 17.6141L54.2412 17.6185L54.223 17.627L54.2026 17.6382L54.1796 17.6512L54.157 17.6668L54.1333 17.6855L54.0825 17.7263L53.6628 18.0681L53.5841 18.019L53.4978 17.9595L53.4169 17.8989L53.339 17.8361L53.266 17.771L53.1971 17.7029L53.1306 17.6334L53.0695 17.5601L52.9901 17.4553L52.9237 17.3511L52.8674 17.247L52.8232 17.1421L52.7899 17.0372L52.768 16.932L52.7572 16.8275L52.7584 16.7211L52.7695 16.6181L52.7921 16.5192L52.8255 16.4225L52.8696 16.3303L52.926 16.2402L52.9927 16.1558L53.0695 16.0744L53.1581 15.9952L53.2559 15.9215L53.3572 15.8613L53.4588 15.8122L53.5623 15.7761L53.6672 15.7509L53.774 15.7386L53.8841 15.7378L53.995 15.749L54.1051 15.772L54.2131 15.8063L54.3176 15.852L54.4181 15.9097L54.5168 15.9773L54.6117 16.0573L54.704 16.148L54.7926 16.2503L54.8393 16.3116L54.882 16.3731L54.922 16.4355L54.9587 16.4987L54.9899 16.5627L55.0181 16.6256L55.0429 16.6907L55.0644 16.756L55.0711 16.7799L55.0745 16.8011L55.0755 16.82L55.0745 16.8379L55.0711 16.8517L55.0644 16.8643L55.0581 16.8747L55.0477 16.8848L54.7581 17.1198L54.7255 17.08L54.7552 17.0372L54.7863 16.9844L54.813 16.9312L54.836 16.8795L54.8531 16.8283L54.8653 16.7773L54.8724 16.7271L54.8746 16.6768L54.8716 16.627L54.8638 16.5772L54.8508 16.5281L54.8327 16.4783L54.8101 16.4292L54.7819 16.3779L54.7492 16.3288L54.7103 16.2786L54.6543 16.2142L54.5942 16.1595L54.5305 16.1119L54.4622 16.0744L54.3914 16.0443L54.3176 16.0231L54.239 16.0108L54.1589 16.0082L54.0762 16.0138L53.9932 16.0275L53.9101 16.051L53.8255 16.0826L53.7417 16.1224L53.6561 16.1707L53.5712 16.2273L53.4855 16.2942L53.3999 16.3663L53.3227 16.4422L53.2538 16.5199L53.1937 16.5969L53.1418 16.6776L53.0965 16.7594L53.0617 16.8431L53.0339 16.9279L53.0153 17.0119L53.0064 17.0949V17.1756L53.0175 17.2526L53.0379 17.3288L53.0673 17.4013L53.1073 17.4709L53.1547 17.5385L53.1855 17.5738L53.2174 17.6055L53.2482 17.6326L53.279 17.6539L53.3112 17.6724L53.3435 17.6855L53.3757 17.6948L53.408 17.6985L53.4417 17.6977L53.4763 17.6921L53.5118 17.6824L53.5474 17.6668L53.5864 17.6483L53.6253 17.6244L53.6661 17.5973L53.7073 17.5646L53.8515 17.4478L53.8816 17.4218L53.909 17.3987L53.9328 17.3761L53.9542 17.3556L53.9705 17.3373L53.9843 17.3195L53.995 17.3031L54.0017 17.2868L54.0046 17.2723V17.2548L54.0028 17.2377L53.9972 17.2191L53.9898 17.1997L53.979 17.1793L53.9661 17.157L53.9512 17.1347L53.8938 17.0521L53.8545 16.9963V16.9964ZM50.8314 14.3524L50.8722 14.3847L50.5763 14.6261L50.5671 14.635L50.5567 14.6403L50.5452 14.6451L50.5337 14.6477L50.5225 14.6488H50.5096L50.4966 14.6477L50.4818 14.6451L50.4517 14.6365L50.4191 14.6276L50.3846 14.6153L50.349 14.6015L50.3097 14.5867L50.2711 14.5688L50.2289 14.5491L50.1858 14.5279L50.1428 14.5056L50.1017 14.4833L50.062 14.4617L50.0249 14.4387L49.9904 14.4167L49.9571 14.394L49.9263 14.3728L49.897 14.3505L49.7939 14.265L49.7034 14.1765L49.6237 14.0887L49.5555 13.9976L49.4995 13.9058L49.4546 13.8117L49.4212 13.7161L49.399 13.6186L49.3916 13.5692L49.3878 13.5182L49.3864 13.4684L49.3878 13.4163L49.393 13.3639L49.4008 13.3115L49.4112 13.2575L49.4249 13.2036L49.4424 13.1497L49.4609 13.0965L49.4828 13.0448L49.5069 12.9946L49.5344 12.9452L49.5633 12.8972L49.5955 12.8488L49.6293 12.8023L49.706 12.7131L49.7865 12.6324L49.8711 12.5636L49.9604 12.5041L50.052 12.4557L50.1503 12.4171L50.2518 12.3888L50.3583 12.3705L50.4106 12.3665L50.4647 12.365L50.5185 12.3665L50.5744 12.372L50.6319 12.3806L50.6902 12.3918L50.7495 12.4074L50.8095 12.426L50.8703 12.4476L50.9293 12.4706L50.9872 12.4974L51.0428 12.5264L51.0988 12.558L51.1525 12.5915L51.2059 12.6276L51.2575 12.6659L51.2898 12.6938L51.322 12.7206L51.3546 12.7492L51.3873 12.7808L51.4192 12.8128L51.4518 12.847L51.4844 12.883L51.5167 12.9202L51.5467 12.9574L51.5749 12.9916L51.5986 13.0244L51.6205 13.0549L51.6372 13.0827L51.6528 13.1081L51.6635 13.1319L51.6721 13.1515L51.675 13.1646L51.6772 13.1757V13.1858V13.1962L51.675 13.2069L51.6721 13.2159L51.6669 13.2255L51.6602 13.2349L51.4299 13.5298L51.3895 13.497L51.4292 13.3967L51.4551 13.2869L51.4626 13.1824L51.4518 13.0827L51.4218 12.9879L51.3721 12.8986L51.3038 12.8154L51.219 12.7391L51.1452 12.6863L51.0706 12.6435L50.9961 12.6108L50.9197 12.5866L50.8437 12.5729L50.7643 12.5692L50.6857 12.5747L50.606 12.5896L50.527 12.6149L50.4484 12.648L50.3705 12.6908L50.2952 12.7429L50.2192 12.8031L50.1451 12.8726L50.0713 12.9518L50.0004 13.04L49.9315 13.1326L49.8711 13.2255L49.8199 13.3167L49.7772 13.407L49.7446 13.4952L49.7212 13.5822L49.706 13.6688L49.7016 13.7544L49.7045 13.8362L49.7175 13.915L49.7391 13.9909L49.7705 14.0635L49.8117 14.133L49.861 14.1992L49.9207 14.2613L49.9874 14.3189L50.0327 14.3532L50.0791 14.3811L50.1265 14.4071L50.174 14.4268L50.2215 14.4442L50.27 14.4562L50.3197 14.4647L50.3694 14.4684L50.4198 14.4677L50.4736 14.4629L50.5292 14.4543L50.5874 14.4413L50.6468 14.4249L50.7094 14.4037L50.7736 14.3773L50.8314 14.3524ZM46.8325 12.3399L46.8366 12.3421L46.8418 12.3428L46.8752 12.3566L46.9078 12.3677L46.9356 12.377L46.9616 12.3837L46.9842 12.3882L47.005 12.3901L47.0201 12.3889L47.0376 12.3856L47.052 12.374L47.0654 12.3633L47.0806 12.3454L47.0954 12.3243L47.1107 12.2989L47.1281 12.2711L47.1474 12.2368L47.1666 12.1997L47.8055 10.9402L47.8251 10.9026L47.8411 10.8676L47.8541 10.8364L47.8659 10.8085L47.8737 10.7843L47.8782 10.7628L47.8811 10.7434L47.88 10.7278L47.8745 10.7129L47.8652 10.6969L47.8511 10.6813L47.8348 10.6653L47.8155 10.6486L47.7903 10.6304L47.7628 10.6118L47.7309 10.5901L47.728 10.588L47.7236 10.5854L47.7173 10.582L47.7116 10.5791L47.7068 10.5742L47.6987 10.5697H47.6976L47.7246 10.5151L48.5478 10.9356L48.52 10.9896L48.5178 10.9884L48.5115 10.9858L48.504 10.9828L48.4985 10.981L48.4918 10.9784L48.4874 10.9761L48.4836 10.9747L48.448 10.9606L48.4166 10.9494L48.3872 10.9412L48.3628 10.9345L48.3402 10.93L48.3194 10.9289L48.2997 10.93L48.2849 10.9345L48.2719 10.9427L48.2578 10.9561L48.2438 10.9728L48.2285 10.9933L48.2126 11.0185L48.1948 11.048L48.177 11.0814L48.1562 11.1194L47.5077 12.3967L47.4951 12.4253L47.484 12.454L47.4766 12.4811L47.4733 12.5072L47.4721 12.5321L47.4758 12.5562L47.4821 12.5793L47.4918 12.602L47.5055 12.6225L47.5229 12.6429L47.5444 12.6633L47.5693 12.6838L47.5989 12.705L47.6304 12.7262L47.6679 12.7467L47.7076 12.7679L47.768 12.7969L47.8251 12.8229L47.8782 12.8441L47.9275 12.859L47.9742 12.8708L48.0157 12.8783L48.0561 12.8813L48.0918 12.8783L48.1285 12.8708L48.167 12.8578L48.2104 12.8407L48.2564 12.8155L48.3064 12.7857L48.3595 12.7493L48.4173 12.7095L48.4707 12.6686L48.5145 12.692L48.2049 13.1137L46.7766 12.3822L46.8044 12.3275L46.8129 12.3316L46.8196 12.3342L46.8259 12.3372L46.8326 12.3398L46.8325 12.3399ZM40.5896 9.76805H40.5892L40.5332 10.5735L40.5306 10.6163L40.5284 10.655V10.6884L40.5299 10.7193L40.5314 10.7442L40.5362 10.7669L40.5403 10.7843L40.5477 10.7981L40.5588 10.8111L40.5736 10.8216L40.5926 10.8297L40.6137 10.8383L40.64 10.8457L40.6682 10.852L40.7009 10.8587L40.7379 10.8644L40.7427 10.8651L40.7479 10.8658L40.7542 10.8669L40.7609 10.8677L40.7683 10.8699L40.7761 10.8707H40.7776L40.7735 10.9327L39.8532 10.8677L39.8573 10.8056H39.8669H39.8743H39.8806H39.8866H39.8929H39.8981L39.934 10.8048L39.9674 10.8029L39.9974 10.8011L40.0234 10.7963L40.0464 10.7918L40.0657 10.7851L40.082 10.7769L40.095 10.7669L40.1035 10.7527L40.1113 10.736L40.118 10.7148L40.1232 10.6884L40.1291 10.6598L40.1328 10.6263L40.1369 10.588L40.1406 10.5456L40.2392 9.13697L40.2414 9.09382L40.2425 9.05594V9.02245L40.2418 8.99158L40.2392 8.96706L40.2359 8.94473L40.2318 8.9261L40.2248 8.91382L40.2155 8.90158L40.1973 8.89L40.1799 8.88037L40.1573 8.87215L40.1328 8.86473L40.1035 8.8573L40.0709 8.85062L40.0341 8.84427L40.0286 8.84352H40.0234L40.0171 8.84133L40.0112 8.84054L40.0034 8.83946L39.9967 8.83759H39.9945L39.9986 8.77734L40.9193 8.84133L40.9148 8.90265H40.9129H40.9052H40.8977H40.8914H40.8847H40.8799H40.8747L40.8392 8.90452L40.8069 8.90564L40.7783 8.909L40.7531 8.91311L40.7312 8.91755L40.712 8.92311L40.6968 8.93091L40.6826 8.93988L40.6715 8.95286L40.6637 8.96776L40.6567 8.98635L40.6504 9.00793L40.6452 9.03175L40.6407 9.05963L40.6374 9.0912L40.6341 9.12544L40.6315 9.16485L40.5896 9.76805ZM40.6185 9.81564L40.6927 9.77772L40.7105 9.76469L40.7301 9.75091L40.7479 9.73381L40.7646 9.71411L41.448 8.87963L41.8599 8.90751L41.8555 8.96851H41.8436L41.8179 8.97038L41.791 8.97336L41.7669 8.97705L41.7423 8.98266L41.7197 8.98896L41.6978 8.99639L41.6763 9.00456L41.6559 9.01615L41.6356 9.02838L41.614 9.04211L41.5936 9.05701L41.5733 9.0749L41.5525 9.09307L41.531 9.11241L41.5095 9.13398L40.9321 9.75352L41.0812 9.97182L41.138 10.0551L41.1928 10.1358L41.2474 10.2151L41.3 10.2902L41.3516 10.3627L41.4024 10.4326L41.4509 10.5003L41.4988 10.5642L41.5451 10.6263L41.59 10.6858L41.6334 10.7424L41.6764 10.7964L41.7165 10.8473L41.7565 10.896L41.7939 10.9413L41.8277 10.9797L41.8255 11.0072L41.438 10.9797L41.4209 10.9778L41.4039 10.9737L41.3887 10.97L41.3735 10.9633L41.3594 10.9562L41.3453 10.9488L41.3327 10.9395L41.3197 10.9272L41.3068 10.9135L41.2915 10.896L41.2741 10.8744L41.2556 10.8495L41.2359 10.8194L41.2148 10.7881L41.1911 10.7509L41.1662 10.7108L40.6186 9.81569L40.6185 9.81564ZM36.9221 9.4207L37.0775 10.6902L37.0853 10.7457L37.0935 10.7955L37.1035 10.839L37.1146 10.8781L37.1264 10.9126L37.1398 10.9402L37.1554 10.9625L37.1713 10.9796L37.1932 10.9934L37.2191 11.0027L37.2492 11.0108L37.2855 11.0146L37.327 11.0186H37.3734L37.4249 11.0172L37.4654 11.0139L37.4724 11.0759L36.7435 11.1652L36.7368 11.1038L36.7631 11.0971L36.8016 11.0871L36.8358 11.0759L36.8662 11.0636L36.8929 11.0499L36.9144 11.0335L36.9329 11.0172L36.947 10.9982L36.9567 10.9755L36.9648 10.9495L36.9696 10.9197L36.9726 10.8848L36.973 10.8473L36.9715 10.8037L36.9678 10.7565L36.9622 10.7048L36.7983 9.36419L36.7705 9.3307L36.7449 9.30469L36.7216 9.27975L36.6978 9.25742L36.673 9.23814L36.6496 9.22137L36.6263 9.20652L36.6029 9.19348L36.5784 9.18419L36.5532 9.17494L36.5254 9.16822L36.4969 9.16299L36.4664 9.16004L36.4357 9.15818H36.4019L36.3837 9.15892L36.376 9.09867L37.043 9.01685L38.5203 10.4556L38.3767 9.28647L38.3708 9.2407L38.3645 9.19984L38.3571 9.16191L38.3497 9.1288L38.3411 9.09793L38.3311 9.07079L38.3215 9.04697L38.31 9.02726L38.2903 9.00312L38.2632 8.98336L38.2299 8.96963L38.1906 8.95959L38.145 8.95473L38.0942 8.95286L38.036 8.95548L37.9896 8.95959L37.9818 8.90078L38.7101 8.81153L38.7178 8.87215L38.6918 8.87776L38.6529 8.89L38.6195 8.90078L38.5888 8.91382L38.5621 8.92871L38.5409 8.94357L38.5217 8.96145L38.5072 8.98L38.4976 9.00195L38.4902 9.02838L38.4857 9.05776L38.4827 9.092L38.4824 9.13029L38.4834 9.17378L38.4868 9.22029L38.4927 9.2727L38.6952 10.9257L38.4924 10.9495L36.9221 9.4207H36.9221ZM34.2933 11.0852L34.9484 10.8717L34.3359 10.0655L34.2933 11.0852ZM35.0134 10.9592L34.2851 11.1961L34.2814 11.5902V11.6032L34.2818 11.6163V11.6278L34.2825 11.6397L34.2847 11.6508L34.2862 11.662L34.2888 11.672L34.2918 11.6817L34.3044 11.7129L34.3218 11.739L34.3433 11.7602L34.3693 11.7743L34.3978 11.7836L34.4301 11.7862L34.4653 11.7836L34.4869 11.7791L34.5058 11.8375L33.9767 12.0104L33.957 11.9506L33.9711 11.945L33.9978 11.9301L34.0215 11.9145L34.0441 11.8951L34.0642 11.8754L34.0831 11.8524L34.0983 11.8271L34.112 11.8011L34.1231 11.7732L34.1335 11.7397L34.1435 11.7047L34.1513 11.6639L34.1587 11.6203L34.1646 11.572L34.1695 11.5218L34.1724 11.466L34.1847 11.2075L34.264 9.67352L34.4298 9.61999L35.2837 10.7099L35.3664 10.8152L35.4413 10.9085L35.5091 10.9926L35.5666 11.0636L35.6189 11.1242L35.662 11.1726L35.6972 11.2117L35.7253 11.2384L35.7509 11.2581L35.7773 11.2756L35.8043 11.2886L35.8329 11.2975L35.8629 11.3035L35.8926 11.3065L35.9245 11.3053L35.9564 11.2997L35.9608 11.299L35.9804 11.3574L35.2066 11.61L35.187 11.5508L35.194 11.5478L35.2151 11.5385L35.2333 11.5288L35.2496 11.5188L35.2644 11.5099L35.2767 11.4994L35.2871 11.4895L35.2953 11.4782L35.3023 11.466L35.3075 11.453L35.3101 11.4399L35.3112 11.4251V11.4102L35.309 11.3938L35.3056 11.3778L35.3004 11.3604L35.2971 11.35L35.2934 11.34L35.2875 11.3284L35.2815 11.318L35.2745 11.3065L35.2671 11.2942L35.2586 11.2812L35.2485 11.2689L35.0135 10.9591L35.0134 10.9592ZM31.7319 11.7947L31.9028 11.7077L31.9796 11.6601L32.0408 11.6043L32.0834 11.5422L32.1101 11.4708L32.1186 11.3924L32.1093 11.309L32.0834 11.2179L32.0415 11.1217L31.9933 11.0391L31.9388 10.9736L31.8795 10.9245L31.8127 10.891L31.7419 10.8773L31.6659 10.8791L31.5858 10.8996L31.5009 10.9346L31.337 11.0186L31.7318 11.7947L31.7319 11.7947ZM31.7686 11.8665L32.0526 12.4273L32.0756 12.469L32.0964 12.5072L32.119 12.5407L32.1409 12.5701L32.1624 12.5954L32.1847 12.617L32.2065 12.6341L32.2284 12.6471L32.2521 12.6568L32.2758 12.6612L32.3014 12.6634L32.3296 12.6612L32.3578 12.656L32.3882 12.6471L32.419 12.6355L32.4516 12.6195L32.4928 12.5965L32.5295 12.5712L32.5618 12.5434L32.5911 12.5129L32.6155 12.4801L32.6363 12.4459L32.6534 12.4076L32.6641 12.3678L32.6715 12.3276L32.6756 12.2852L32.6741 12.2417L32.6675 12.1967L32.6574 12.1502L32.6437 12.1041L32.6241 12.0558L32.6014 12.0063L32.5733 11.9565L32.5436 11.9107L32.5125 11.8691L32.4776 11.833L32.442 11.8003L32.4031 11.7731L32.3626 11.7512L32.3204 11.7333L32.2758 11.7215L32.231 11.7136L32.1851 11.7121L32.1376 11.7151L32.0901 11.7241L32.0411 11.7363L31.9911 11.7546L31.941 11.778L31.7686 11.8665V11.8665ZM32.9006 11.6657L32.9391 11.7185L32.9744 11.7791L33.0029 11.842L33.0234 11.9034L33.0378 11.964L33.043 12.0242L33.0419 12.0845L33.033 12.1421L33.0163 12.2009L32.993 12.2581L32.9632 12.315L32.9254 12.3697L32.8813 12.4225L32.8294 12.4738L32.7716 12.5229L32.7059 12.5694L32.634 12.6151L32.5539 12.6575L31.6632 13.1138L31.6347 13.0576L31.6365 13.0569L31.6429 13.0524L31.6495 13.0487L31.6547 13.0469L31.6595 13.042L31.6647 13.0402L31.6692 13.0365L31.7007 13.0182L31.7289 12.9985L31.7522 12.9799L31.7726 12.9632L31.7901 12.9472L31.8031 12.9323L31.8116 12.9178L31.8182 12.9019L31.819 12.8851L31.8167 12.8665L31.8116 12.8449L31.8031 12.8204L31.7923 12.7933L31.7793 12.7616L31.763 12.727L31.7441 12.688L31.1045 11.43L31.0856 11.3924L31.0674 11.359L31.05 11.3296L31.0321 11.3035L31.0181 11.2831L31.0032 11.2675L30.9891 11.2533L30.9777 11.2459L30.9632 11.2403L30.942 11.2385L30.9224 11.241L30.9002 11.2444L30.8738 11.2515L30.8456 11.2607L30.8134 11.2712L30.7786 11.2849L30.7748 11.2868L30.7697 11.2886L30.7637 11.2916L30.7574 11.2935L30.7503 11.2961L30.7437 11.2998L30.7418 11.301L30.7144 11.2459L31.5579 10.8141L31.707 10.7472L31.8409 10.7033L31.9621 10.6814L32.0696 10.6844L32.1638 10.7074L32.2451 10.7528L32.3144 10.8216L32.373 10.9127L32.4052 10.9915L32.4216 11.0704L32.4226 11.1496L32.406 11.2281L32.3752 11.3081L32.3266 11.3884L32.172 11.5788L32.3629 11.5289L32.4112 11.5189L32.4568 11.5118L32.4979 11.5058L32.5358 11.5044L32.5702 11.5051L32.637 11.5133L32.7 11.5289L32.7571 11.5524L32.8087 11.5829L32.8573 11.6212L32.9006 11.6658L32.9006 11.6657ZM28.351 13.3949L28.3132 13.3707L28.2769 13.3503L28.242 13.3335L28.2083 13.3198L28.1775 13.3101L28.146 13.3042L28.117 13.3019L28.0874 13.3027L28.0584 13.3067L28.0295 13.3142L28.0002 13.3265L27.9724 13.3402L27.9457 13.3589L27.9183 13.3782L27.5938 13.6523L28.1581 14.3265L28.3721 14.1454L28.4225 14.0981L28.4589 14.049L28.4841 13.9966L28.4941 13.9427L28.4919 13.888L28.4759 13.8322L28.447 13.7757L28.4159 13.7329L28.4559 13.6998L28.8882 14.2167L28.8482 14.2502L28.8311 14.2334L28.8022 14.2074L28.7747 14.1862L28.7473 14.1665L28.7203 14.1508L28.6935 14.139L28.6676 14.1304L28.6409 14.1249L28.6145 14.1241L28.5886 14.1249L28.5612 14.1316L28.5345 14.1397L28.5074 14.152L28.4796 14.1676L28.4525 14.1862L28.4244 14.2074L28.21 14.3889L28.6638 14.9311L28.6868 14.9571L28.7102 14.9802L28.7343 14.9998L28.7566 15.0144L28.7814 15.0274L28.8044 15.0359L28.8293 15.0415L28.8533 15.0423L28.8782 15.0396L28.9041 15.0333L28.932 15.0232L28.9601 15.0088L28.9898 14.9924L29.0213 14.9709L29.054 14.9467L29.0884 14.9181L29.1377 14.8753L29.1815 14.8344L29.2219 14.7935L29.2553 14.7544L29.2853 14.7176L29.3087 14.6801L29.3276 14.6451L29.3417 14.6098L29.3502 14.5737L29.3565 14.5346L29.3576 14.4908L29.3565 14.4435L29.3528 14.3922L29.3436 14.3375L29.3317 14.2788L29.3169 14.2159L29.3054 14.1683L29.3443 14.1348L29.609 14.5866L28.381 15.6201L28.3413 15.5717H28.3421L28.3476 15.5661L28.3517 15.5613L28.3562 15.5568L28.3614 15.5524L28.3651 15.5487L28.3688 15.5438L28.3947 15.5179L28.4177 15.4925L28.437 15.4695L28.453 15.4483L28.4659 15.4286L28.4756 15.4111L28.4812 15.3951L28.4841 15.3787L28.4804 15.3609L28.4744 15.343L28.4644 15.3241L28.4515 15.3021L28.4355 15.2776L28.4147 15.2504L28.3914 15.221L28.364 15.1883L27.4585 14.1054L27.4314 14.0728L27.4055 14.0441L27.3828 14.0196L27.3617 13.9991L27.3424 13.9827L27.3246 13.969L27.3076 13.9597L27.2901 13.9541H27.2749L27.2586 13.9567L27.2386 13.963L27.2178 13.9716L27.1941 13.9835L27.1685 13.9991L27.1392 14.0169L27.1081 14.0385L27.104 14.0415L27.0992 14.0441L27.0947 14.0489L27.0895 14.0515L27.084 14.0564L27.0766 14.0597V14.0605L27.038 14.0143L28.1688 13.0623L28.4603 13.4116L28.421 13.4439L28.391 13.422L28.3509 13.3948L28.351 13.3949ZM27.1511 16.6313L27.1794 16.651L27.2042 16.6677L27.2264 16.6803L27.2461 16.69L27.2643 16.6967L27.2787 16.6982L27.2947 16.6967L27.3132 16.69L27.3303 16.6803L27.3492 16.6666L27.37 16.651L27.3922 16.6305L27.417 16.6067L27.4415 16.5803L27.4452 16.5774L27.4504 16.5732L27.4537 16.5691L27.4586 16.5636L27.4634 16.5591L27.4693 16.5528L27.4708 16.5517L27.5182 16.5904L26.938 17.3095L26.8894 17.2705L26.895 17.2623L26.8987 17.2556L26.9024 17.2519L26.9061 17.246L26.9094 17.2408L26.9121 17.237L26.932 17.2065L26.9506 17.1783L26.9654 17.1519L26.9766 17.1285L26.9866 17.1068L26.9914 17.0875L26.9947 17.0678L26.9929 17.0515L26.9873 17.0373L26.9773 17.0213L26.9644 17.0039L26.9469 16.9845L26.9262 16.9641L26.9009 16.9395L26.872 16.915L26.8394 16.8878L25.542 15.8343L25.3703 16.0493L25.3491 16.076L25.331 16.1039L25.315 16.1318L25.3006 16.1586L25.2899 16.1865L25.2821 16.2136L25.2758 16.2404L25.2735 16.2683L25.2732 16.2962L25.2746 16.3271L25.2802 16.3605L25.2865 16.3947L25.2957 16.4327L25.3069 16.4728L25.3213 16.5145L25.3373 16.5591L25.3588 16.6175L25.3281 16.6566L25.0418 16.3278L26.1659 14.9337L26.5467 15.1468L26.5149 15.1854L26.454 15.1761L26.4077 15.1698L26.3639 15.165L26.3224 15.1624L26.2846 15.1605L26.249 15.1613L26.2156 15.1639L26.1852 15.1679L26.1578 15.1735L26.1314 15.1828L26.1055 15.194L26.0806 15.2077L26.0562 15.2245L26.0317 15.2431L26.0083 15.2646L25.9857 15.2884L25.9627 15.3152L25.7903 15.5291L27.0869 16.5815L27.1207 16.6083L27.151 16.6313L27.1511 16.6313ZM24.8515 19.0749L25.1953 18.4769L24.203 18.2883L24.8515 19.0749ZM25.3016 18.4985L24.9186 19.1629L25.1786 19.4586L25.1875 19.4687L25.1957 19.4783L25.2045 19.4866L25.2134 19.494L25.2216 19.5014L25.2309 19.5077L25.239 19.5133L25.2476 19.5193L25.2779 19.5338L25.3084 19.5423L25.3381 19.5431L25.3666 19.5363L25.3948 19.5233L25.4207 19.504L25.4441 19.4783L25.4571 19.4605L25.5112 19.4921L25.2324 19.9748L25.1786 19.9443L25.1853 19.9305L25.1949 19.9026L25.2023 19.874L25.2068 19.8439L25.2079 19.8152L25.2056 19.7866L25.2012 19.7572L25.1938 19.7286L25.1834 19.7L25.1697 19.6695L25.1526 19.636L25.1319 19.6003L25.1078 19.5634L25.0807 19.5233L25.0503 19.4817L25.0158 19.4381L24.8519 19.238L23.8882 18.0462L23.9746 17.8945L25.3361 18.1314L25.4685 18.1533L25.5868 18.1738L25.6918 18.1909L25.783 18.2039L25.8616 18.2139L25.9265 18.2214L25.978 18.2262L26.0173 18.2277L26.0496 18.2262L26.0807 18.2206L26.11 18.2113L26.1378 18.2002L26.1638 18.1842L26.1872 18.1656L26.2101 18.1437L26.2294 18.1184L26.2332 18.1146L26.2858 18.1451L25.8798 18.8521L25.826 18.8212L25.8293 18.8138L25.8383 18.7926L25.8453 18.774L25.8513 18.7558L25.8549 18.7386L25.8576 18.7223L25.8586 18.7071L25.8576 18.6944L25.8546 18.6814L25.8501 18.6683L25.8438 18.6554L25.8338 18.6438L25.8242 18.633L25.8123 18.6226L25.7982 18.6133L25.7834 18.6029L25.7745 18.5973L25.7637 18.594L25.7522 18.5891L25.7404 18.5847L25.7281 18.5809L25.714 18.5769L25.6988 18.5735L25.6836 18.5694L25.3017 18.4984L25.3016 18.4985ZM24.3573 21.0911L23.3246 20.1134L23.3086 20.0982L23.2935 20.0852L23.2786 20.0733L23.2641 20.0622L23.2508 20.0528L23.2378 20.0443L23.2248 20.0368L23.2119 20.0309L23.1725 20.0186L23.1343 20.0156L23.0969 20.0219L23.0628 20.0383L23.0313 20.0629L23.0031 20.0956L22.9786 20.1365L22.9623 20.1707L22.9071 20.1487L23.1477 19.5505L23.2041 19.5746L23.1941 19.6092L23.1866 19.6572L23.1863 19.7055L23.1929 19.7501L23.2063 19.7948L23.2267 19.8364L23.2534 19.8747L23.2882 19.9108L24.7146 21.2573L24.6234 21.482L22.9144 21.4098L22.8607 21.4091H22.8099L22.7628 21.4098L22.7176 21.4135L22.676 21.4191L22.6371 21.4254L22.6019 21.4347L22.5692 21.4451L22.5385 21.4582L22.511 21.4738L22.484 21.4894L22.4591 21.5091L22.4376 21.5303L22.4172 21.5538L22.3986 21.5797L22.3913 21.5946L22.3345 21.5712L22.6783 20.7159L22.7343 20.7383L22.7224 20.7698L22.7131 20.8145L22.7102 20.855L22.715 20.8925L22.7272 20.9253L22.7472 20.9539L22.7739 20.977L22.8069 20.9937L22.8195 20.9989L22.8325 21.003L22.8455 21.0056L22.8589 21.0093L22.8733 21.0112L22.8878 21.0134L22.903 21.0153H22.9174L24.3572 21.0912L24.3573 21.0911ZM23.9472 23.3067L23.9587 23.2825L23.9702 23.2554L23.9824 23.2241L23.9943 23.1899L23.9961 23.1851L23.998 23.1795L24.0006 23.1728L24.0017 23.1673L24.0043 23.1598L24.0069 23.1524L24.008 23.1505L24.0684 23.1661L23.8445 24.0638L23.7844 24.0486V24.0467L23.7859 24.0393L23.7874 24.0318L23.7885 24.0255L23.7896 24.0188V24.0133L23.791 24.0088L23.7962 23.9723L23.8007 23.9388L23.8029 23.9095L23.804 23.8823L23.8029 23.8593L23.7992 23.8389L23.7944 23.8228L23.7874 23.8079L23.7751 23.7957L23.7584 23.7857L23.7395 23.7756L23.7162 23.7656L23.6883 23.7552L23.6557 23.7451L23.6194 23.7336L23.5782 23.7235L22.2115 23.3818L22.1696 23.3714L22.1325 23.364L22.0988 23.3576L22.0695 23.3528L22.0446 23.3509H22.0224L22.0035 23.3528L21.9875 23.3576L21.9742 23.3658L21.9608 23.3799L21.9501 23.3959L21.9371 23.4164L21.9252 23.4394L21.9134 23.4673L21.9011 23.4982L21.8881 23.5331L21.8863 23.538L21.8848 23.5432L21.8833 23.5487L21.8811 23.5554L21.8785 23.5629L21.8759 23.5692L21.8755 23.571L21.817 23.5562L22.0402 22.6593L22.0984 22.6734V22.6749L22.0973 22.6823L22.0954 22.6897L22.0947 22.6972L22.0936 22.7028L22.0932 22.7083L22.0917 22.7132L22.0872 22.7503L22.0839 22.7838L22.0814 22.8132L22.0809 22.8403L22.0817 22.8627L22.0847 22.8831L22.0891 22.9006L22.0969 22.9136L22.108 22.9266L22.1248 22.9367L22.1437 22.9471L22.1674 22.9571L22.1963 22.9676L22.2278 22.9769L22.2653 22.9891L22.3064 22.998L23.6735 23.3402L23.7158 23.351L23.7521 23.3584L23.7859 23.3651L23.8159 23.3699L23.8404 23.3714H23.8634L23.8815 23.3699L23.8971 23.3651L23.9116 23.3558L23.9235 23.3428L23.9353 23.3272L23.9472 23.3067ZM22.5423 26.002L22.563 25.7733L22.5616 25.687L22.5437 25.6089L22.5067 25.5409L22.4522 25.4836L22.3806 25.4352L22.2923 25.3995L22.1874 25.3739L22.0658 25.3571L21.9601 25.3534L21.8667 25.3627L21.7847 25.3839L21.7168 25.4192L21.6608 25.4676L21.6186 25.5278L21.5911 25.6022L21.5756 25.687L21.5559 25.9161L22.5422 26.002H22.5423ZM23.642 24.8251L23.6676 24.8265L23.6312 25.2467L23.629 25.2623L23.6238 25.2783L23.6149 25.2932L23.6046 25.3088L23.5901 25.3237L23.573 25.3405L23.5526 25.3553L23.5285 25.372L23.5004 25.3888L23.464 25.4074L23.421 25.4289L23.3709 25.4527L23.3142 25.4788L23.2493 25.5067L23.1785 25.5376L23.0999 25.5699L22.642 25.7592L22.6201 26.0091L23.2185 26.0612L23.2608 26.0649L23.299 26.0675H23.3339H23.3636L23.3884 26.0649L23.4098 26.063L23.4292 26.0574L23.4432 26.05L23.4555 26.0388L23.4651 26.024L23.474 26.0061L23.4822 25.9842L23.4907 25.9589L23.4981 25.9303L23.5048 25.8968L23.5122 25.8607L23.5133 25.8548L23.514 25.8507L23.5148 25.844L23.5167 25.8377L23.5178 25.831L23.5189 25.8213L23.5804 25.8272L23.5004 26.7484L23.4388 26.7436V26.7042V26.6666L23.4366 26.6324L23.4347 26.6026L23.4303 26.5758L23.4262 26.5535L23.4195 26.5349L23.4121 26.5178L23.4025 26.5048L23.3895 26.4959L23.3724 26.4873L23.3516 26.481L23.3264 26.4743L23.2983 26.4687L23.2634 26.4631L23.2263 26.4587L23.1836 26.4549L21.7806 26.3315L21.7384 26.3289L21.7005 26.3259H21.6664H21.6371L21.6115 26.3274L21.5893 26.3315L21.5719 26.3363L21.5552 26.3434L21.5433 26.3556L21.5333 26.3683L21.5237 26.3869L21.5155 26.4085L21.5074 26.4338L21.4999 26.4631L21.4925 26.4959L21.4847 26.533V26.5375L21.484 26.5439L21.4825 26.5498L21.4813 26.5561L21.4799 26.5628L21.4784 26.571L21.418 26.5661L21.5099 25.5149L21.5192 25.4427L21.5315 25.375L21.5474 25.3118L21.5685 25.2523L21.5926 25.1984L21.6208 25.1493L21.6534 25.1035L21.6898 25.0626L21.7287 25.0266L21.771 24.9957L21.8166 24.9719L21.8633 24.9533L21.9134 24.9384L21.9671 24.9303L22.0231 24.9273L22.0824 24.9303L22.1311 24.9354L22.1781 24.9447L22.2223 24.9578L22.2653 24.9745L22.3064 24.995L22.3453 25.0173L22.3825 25.0448L22.4188 25.0749L22.4529 25.1084L22.4841 25.1445L22.513 25.1827L22.5393 25.2244L22.563 25.2686L22.5841 25.3155L22.602 25.3654L22.6231 25.439L23.1444 25.1616L23.233 25.1118L23.315 25.0652L23.3884 25.0203L23.4555 24.9764L23.5145 24.9343L23.5664 24.8945L23.6113 24.8559L23.6421 24.825L23.642 24.8251ZM23.3973 28.6524L23.4184 28.6449L23.4359 28.6375L23.4499 28.6274L23.4588 28.6151L23.4673 28.5984L23.4736 28.5798L23.4781 28.5564L23.4822 28.5304L23.4844 28.5017L23.4866 28.4675L23.4877 28.4303V28.4255V28.4199V28.4136V28.4069V28.3995V28.3905L23.5501 28.3857L23.6142 29.3087L23.5526 29.3124V29.3109L23.5508 29.3035L23.5501 29.296L23.5493 29.2904L23.5474 29.2838L23.5471 29.2782L23.5459 29.2726L23.5404 29.2365L23.5337 29.2038L23.527 29.1744L23.5196 29.1484L23.5115 29.1268L23.5033 29.1082L23.4918 29.0933L23.4803 29.0829L23.4659 29.0755L23.4466 29.0699L23.4254 29.0673L23.3991 29.0647L23.3702 29.064H23.3357L23.2983 29.0655L23.2556 29.0673L21.8507 29.1655L21.8084 29.1696L21.7706 29.1733L21.7372 29.1777L21.7072 29.1833L21.6831 29.1882L21.662 29.1949L21.6453 29.2031L21.6301 29.212L21.6201 29.2261L21.6123 29.2421L21.6056 29.2619L21.6004 29.2838L21.5967 29.3098L21.5937 29.3388L21.5919 29.373L21.59 29.4098V29.4158V29.4214V29.4269L21.5893 29.4332V29.4407V29.4492V29.45L21.5296 29.4548L21.4588 28.447L21.4558 28.3645L21.4569 28.2845L21.4636 28.2102L21.4736 28.1414L21.4899 28.0774L21.5099 28.0179L21.5347 27.9621L21.5648 27.913L21.5993 27.8684L21.6371 27.8282L21.6797 27.7951L21.7254 27.7661L21.7766 27.7431L21.8325 27.7245L21.8915 27.7114L21.9553 27.704L22.0098 27.7029L22.0624 27.7048L22.114 27.7122L22.1629 27.7234L22.2104 27.739L22.256 27.7587L22.2998 27.784L22.342 27.8119L22.3817 27.8453L22.4195 27.8814L22.4555 27.9223L22.4863 27.9662L22.5167 28.0134L22.5423 28.0644L22.5675 28.1202L22.589 28.1785L22.5994 28.212L22.6079 28.25L22.6172 28.2931L22.6257 28.3381L22.6328 28.3887L22.6394 28.4433L22.6454 28.5025L22.6483 28.5482L22.6049 28.5523L22.5986 28.5173L22.5871 28.4712L22.5741 28.4285L22.5589 28.3905L22.5423 28.3552L22.5245 28.3225L22.5037 28.2949L22.4814 28.2704L22.4381 28.2317L22.3906 28.2001L22.3383 28.173L22.2823 28.1525L22.2208 28.1387L22.1566 28.1295L22.0884 28.1265L22.015 28.1283L21.9586 28.1339L21.9049 28.1436L21.8552 28.1551L21.8073 28.1711L21.765 28.1908L21.7254 28.2139L21.6898 28.2399L21.6568 28.2686L21.6297 28.3013L21.6052 28.3366L21.5852 28.3749L21.5696 28.4151L21.5593 28.4601L21.5518 28.5058L21.5489 28.5549L21.5511 28.607L21.5637 28.7903L23.2278 28.6735L23.2715 28.6709L23.3094 28.6661L23.3431 28.6627L23.3724 28.6568L23.3973 28.6524ZM44.3601 10.3051L44.7656 10.0574L45.0115 10.4661L44.6063 10.713L44.3601 10.3051Z" fill="#957934"/>
<path fill-rule="evenodd" clip-rule="evenodd" d="M36.6578 28.7295C36.6875 28.4755 36.7412 28.2375 36.8395 28.159C36.7219 27.9601 36.25 27.753 36.432 28.0995C36.5514 28.3148 36.5926 28.5071 36.6022 28.7097L36.6579 28.7295H36.6578ZM43.7599 27.3316C43.887 26.9739 43.4825 26.7307 43.4984 27.1568C43.6493 27.4763 43.5589 27.2933 43.3827 27.1936C43.1899 27.1401 43.7487 26.8103 43.0335 26.7809C43.0913 27.0557 43.1217 27.4324 43.4368 27.4324C43.221 27.5878 42.6845 27.1792 42.6326 27.5648C42.6567 27.795 42.7827 27.7782 42.9682 27.7243C42.947 28.2007 42.6908 28.181 42.4505 28.445C41.8784 29.3673 43.2552 28.6968 43.5911 28.5629C43.6742 28.4989 44.6197 27.4161 44.0475 27.5811C43.7379 27.7812 44.27 27.4763 44.3193 27.3974C44.5043 26.8653 43.8514 27.3521 43.7598 27.3316H43.7599ZM32.1261 28.3576C32.4639 28.5257 32.4968 27.8646 31.9614 28.1884C31.9581 28.2089 32.2536 28.6372 32.0686 28.432C31.8832 28.2055 31.8361 28.9418 32.181 28.6763C32.1973 28.5841 32.3749 28.692 32.2877 28.7719C31.696 29.358 32.7994 29.1471 32.6707 28.786C32.5443 28.484 32.3696 28.5499 32.1261 28.3577V28.3576ZM34.201 27.6849C34.3089 27.599 33.7705 26.8218 33.7435 27.4521C33.8176 27.6053 34.2926 27.7411 33.9196 27.6574C33.6378 27.6213 33.8202 27.9155 34.0282 27.8828C33.2255 28.1989 36.1625 28.9805 35.092 27.7095C34.9629 27.599 34.7661 27.4187 34.643 27.5544C34.4383 27.7764 34.7887 27.2747 34.4687 27.2859C34.346 27.3874 34.2941 27.5068 34.2633 27.6603C34.5266 27.5681 34.4432 27.8533 34.201 27.6848V27.6849ZM42.0602 27.5116C41.8592 27.1911 41.9286 27.4067 41.6868 27.4309C41.5778 27.5506 41.9338 27.7746 41.6075 27.6555C41.3638 27.6213 40.9256 27.9806 40.7717 28.2479C40.0768 30.6889 42.8696 28.7819 42.0602 27.5116ZM38.3049 29.3776C38.663 29.3114 38.6434 28.0021 37.8714 28.7849C37.4313 29.2724 37.9738 29.2616 38.3049 29.3776ZM47.9549 28.5766C47.942 28.3337 47.7862 28.4736 47.5589 28.458C47.7043 28.1802 47.7395 28.1433 47.3947 28.3055C47.2171 28.4866 47.5252 28.4346 47.1889 28.5766C46.3194 29.0418 47.5048 28.9976 47.8084 28.9827C47.5459 28.5257 47.9854 29.0001 47.9549 28.5766ZM47.0754 28.2508C46.9138 27.8712 46.4666 27.8411 46.9397 27.648C46.7246 27.5034 46.184 27.3676 46.2552 27.8192C47.0172 28.3594 45.1903 27.5525 45.7999 28.1412C46.0361 28.3413 45.2423 28.2695 45.6731 28.6819C46.3146 29.0318 46.4451 28.969 46.8933 28.5628C47.3019 28.548 47.068 28.4171 47.0754 28.2508ZM33.3445 28.8339C33.6689 28.8135 33.878 28.664 34.1962 28.6011C33.9859 28.3103 33.2959 27.976 32.8869 27.976C32.6926 28.4505 32.8465 28.7253 33.3445 28.8339ZM36.3464 28.7886C36.8703 28.6818 35.5692 27.4223 35.5517 27.9455C35.604 28.1181 35.6964 28.2813 35.8161 28.4189C35.96 28.5851 36.1436 28.7164 36.3464 28.7885V28.7886ZM37.4576 28.5424C37.6396 28.2988 37.2388 28.3378 37.4005 28.5193C37.2893 28.4858 37.0435 28.9008 37.2396 28.4959C37.3234 28.2936 36.5933 28.2694 36.964 28.5833C37.2677 28.8432 36.6718 28.6353 36.9707 28.8815C37.33 29.1366 37.3467 29.0042 37.4153 28.9001C37.5417 28.706 37.7438 28.5981 37.9495 28.4996C38.0307 28.4606 38.112 28.4245 38.1895 28.3847C38.224 28.2947 38.0945 28.2464 37.9614 28.2044C37.8825 28.1794 37.802 28.1571 37.7557 28.1281C37.8498 28.3884 37.7489 28.6986 37.4575 28.5424H37.4576ZM32.5321 27.8124C32.1724 27.6201 32.1661 28.4735 32.7096 27.9061C32.7001 27.9005 33.1676 27.7592 32.8321 27.5357C32.7356 27.5294 32.4156 27.6972 32.5321 27.8124V27.8124ZM45.0072 27.2155C45.3898 26.9106 44.9045 26.7039 44.9971 27.2107C44.738 27.1047 44.9067 27.9091 45.1581 27.4167C45.1355 27.3316 45.0921 27.2497 45.0072 27.2155ZM48.8786 23.3566C48.9194 23.3883 48.9019 23.1967 48.8244 23.0933C48.5192 22.8022 48.5375 23.0948 48.8011 23.296C48.6694 23.3815 48.5593 23.4634 48.4407 23.5683C48.7018 23.5627 48.7814 23.624 48.8786 23.3566ZM47.698 22.7378C47.6379 22.5913 47.6453 22.5839 47.6724 22.4366C46.8188 22.3418 48.3164 23.4262 47.9071 22.8847C47.7469 22.6887 48.0173 22.492 48.1319 22.3031C47.9905 22.4429 47.8215 22.5832 47.698 22.7378L47.698 22.7378ZM43.9697 19.6767C44.1355 19.6654 44.4695 19.9998 44.5289 19.6799C44.3268 19.1839 43.9171 19.5651 43.7962 19.3382C43.5448 18.8258 43.2319 19.6439 43.7031 19.5483C43.9386 19.4907 43.8644 19.7357 43.7421 19.683C43.2374 19.4185 43.2415 20.047 43.6245 19.812C43.8081 19.7413 43.8047 20.1641 44.0056 19.8789C44.0754 19.7659 43.9871 19.7722 43.9697 19.6767H43.9697ZM34.3564 19.4211C34.6167 19.446 35.3534 19.4144 34.785 19.0727C34.8584 19.0243 35.1628 19.0187 35.2403 19.005C35.089 18.9176 34.5855 18.5896 34.423 18.7198C34.238 19.3423 33.5899 18.6335 33.7753 19.4635C34.2514 19.0496 34.2058 19.9487 34.5528 19.7978C34.5239 19.6506 34.4353 19.5453 34.3563 19.4211H34.3564ZM34.3363 19.0422C34.5444 19.1984 34.9629 19.1798 34.5269 19.3014C34.2281 19.3877 34.1606 19.242 34.3363 19.0422ZM35.4297 17.4911C35.3241 17.4476 36.003 17.8433 36.1261 17.9165C36.3152 18.0281 36.2188 17.9962 36.2696 18.1694C36.4146 18.2888 36.5013 17.7608 36.2722 17.7812C36.0924 17.8284 35.363 16.8802 35.5362 17.3945C35.4887 17.4253 35.4572 17.4384 35.4297 17.4912V17.4911ZM40.1684 16.4213C39.8899 15.5913 39.696 16.373 40.2526 16.7084C40.5559 16.9237 40.7472 16.051 40.1684 16.4213ZM35.0775 16.1044C35.3029 15.9672 35.2829 16.1093 35.4005 15.8742C35.7498 15.5231 35.1313 15.788 35.0093 15.7768C35.2284 16.1836 34.9188 15.8214 34.8903 15.8214C34.5588 15.6076 34.8703 16.1074 34.7661 16.1186C34.4868 16.2041 35.0008 16.4697 34.9214 16.2004C34.9804 16.1658 35.2025 16.3867 35.0775 16.1044H35.0775ZM51.8074 28.8097C51.9272 28.6862 51.9624 28.539 51.7536 28.533C51.2775 28.6409 51.8374 28.9603 52.0435 29.0923C52.0198 28.9052 52.034 28.7264 51.8074 28.8096V28.8097ZM50.5737 26.8328C50.6105 26.9284 50.589 26.9571 50.3828 26.9255C50.589 27.1438 50.3157 27.2218 50.5782 27.4103C50.6546 27.1002 51.249 27.8347 51.4611 27.6194C51.6584 27.5327 51.1956 27.4427 51.1618 27.2245C51.18 27.0954 51.4793 26.1382 51.1867 26.3899C51.0517 26.6704 51.0183 26.2011 50.8415 26.7128C50.9082 27.236 50.7595 27.0229 50.5737 26.8329L50.5737 26.8328ZM50.5185 26.5305C50.7043 26.503 50.4974 26.3319 50.5467 26.1416C50.1618 26.3461 50.22 26.4219 50.5185 26.5305ZM52.1467 27.1095C52.2961 27.0352 51.8074 26.7908 52.1786 26.9117C51.8916 26.4431 51.6754 26.7618 51.9342 26.8355C51.9353 27.0686 51.8956 26.8585 51.7618 26.7715C51.3432 26.5338 51.6342 26.7759 51.5493 27.0128C51.3198 27.5171 52.1581 27.1151 52.1466 27.1095H52.1467ZM32.6159 26.5606C32.5458 26.5316 32.4824 26.5086 32.4078 26.4985C31.39 26.3394 31.8684 26.7153 32.5587 26.7659C32.6863 26.7994 33.3122 27.1921 32.9967 26.7685C32.8464 26.6588 32.6174 26.5476 32.6974 26.3134C32.8542 25.8519 32.2187 26.152 32.6158 26.5607L32.6159 26.5606ZM34.0145 23.1967C34.0111 23.1997 34.1513 23.3195 34.3319 23.1529C34.7279 22.6591 33.3745 22.9903 34.0145 23.1967ZM30.0675 22.408C29.9117 22.1934 30.3849 21.8044 29.9006 22.0343C29.4112 22.1961 30.0778 22.5426 30.2932 22.7211C30.2792 22.701 30.6303 22.3912 30.2992 22.4585C30.3607 22.1781 30.1419 22.1878 30.0674 22.408H30.0675ZM31.6367 28.4467C32.0233 28.5981 31.756 28.2798 31.631 28.1124C31.3519 27.7769 31.1165 28.2396 31.5554 28.2359C31.564 28.417 30.865 28.7178 31.5491 28.7613C31.7954 28.7464 31.7616 28.639 31.6367 28.4467V28.4467ZM30.4168 28.1001C30.0778 28.5683 31.5911 28.3779 30.6448 28.1485C30.7446 27.6993 30.3463 28.0492 30.4168 28.1001ZM38.8514 27.2285C39.0973 27.3504 38.9379 26.748 38.7936 27.124C38.7613 27.1671 38.593 27.2125 38.5084 27.282C38.4343 27.3434 38.4265 27.4233 38.636 27.5338C38.7153 27.5754 38.7795 27.6398 38.841 27.7067C38.9923 27.8737 38.9997 27.7157 38.9749 27.5141C38.9563 27.3668 38.8892 27.3203 38.8514 27.2285ZM35.0809 27.1883C34.8617 27.115 34.9752 26.1389 34.6878 26.7023C34.5295 27.0767 35.4346 27.2898 35.497 27.6847C35.7876 27.5765 35.5288 27.2906 35.326 27.272C35.2911 27.2605 35.2715 26.7741 35.2859 26.6848C35.1454 26.802 34.9871 27.0563 35.0809 27.1883V27.1883ZM38.6516 27.0396C38.772 27.1362 39.0817 26.8811 38.7316 26.7454C38.6856 26.7666 38.4821 26.7182 38.4513 26.7432C38.2095 26.9477 38.6416 27.324 38.6516 27.0396ZM46.9223 17.9544C46.7999 17.5747 46.5245 17.7826 46.712 17.8953C46.8782 17.9749 46.471 17.8979 46.6093 18.14C46.9008 18.4524 47.4529 17.8488 46.9564 17.7875C46.9505 17.834 46.9223 17.9109 46.9223 17.9545V17.9544ZM44.4136 28.3615C44.8085 28.234 45.4525 27.7885 44.777 27.5475C44.4499 27.4947 43.9927 28.453 44.4136 28.3615ZM41.4291 27.4344C41.7662 27.2987 41.824 27.1983 41.8388 26.8632C41.5162 26.9179 41.1836 27.0489 41.4291 27.4344ZM41.1933 27.2664C41.4169 27.0592 41.2559 26.8142 41.0297 27.061C41.0661 27.1574 41.1291 27.1893 41.1933 27.2664ZM46.3631 24.7354C46.8845 24.6455 46.877 23.8682 46.2185 24.2472C46.1681 24.3416 46.2553 24.6838 46.3631 24.7354ZM46.863 24.7396C47.0109 24.6666 47.0272 24.6611 47.0799 24.4904C46.8812 24.5343 46.7151 24.5033 46.863 24.7396ZM51.0844 24.4847C51.4163 24.3408 50.9031 23.9359 50.8219 24.2999C50.8771 24.3985 50.9872 24.4338 51.0844 24.4847ZM46.9386 24.3576C47.3012 24.1809 46.6624 23.9906 46.8812 24.2999C46.8986 24.3211 46.9171 24.339 46.9386 24.3576ZM46.9739 23.9203C46.8381 24.0456 47.2624 24.313 47.1856 24.0073C47.14 23.8485 47.1522 23.8377 46.9739 23.9203ZM46.6739 23.9564C46.7873 24.104 46.85 24.2342 46.8448 23.8868C46.7725 23.686 46.3947 23.8057 46.6739 23.9564ZM46.3631 23.8336C46.5782 23.9932 46.6679 23.4447 46.286 23.7317C46.3101 23.7723 46.3298 23.8013 46.3631 23.8336ZM46.8318 23.7678C47.1596 23.8764 47.1381 23.3275 46.6976 23.7611L46.8318 23.7678ZM49.3909 23.4495C50.0105 23.9255 49.5526 22.8828 49.1859 23.2427C49.253 23.313 49.319 23.384 49.3909 23.4495ZM48.1548 22.9248C48.286 22.9043 48.4121 22.875 48.5463 22.869C48.8244 22.2565 47.8607 22.7172 48.1548 22.9248ZM48.639 22.3398C48.7135 22.38 48.7847 22.4224 48.857 22.4652C48.9304 21.817 48.3142 22.1673 48.639 22.3398ZM50.4951 21.9204C49.949 22.168 51.042 22.6377 50.7721 21.9572C50.7398 21.9427 50.5344 21.9099 50.4951 21.9204ZM47.8633 22.3008C48.0813 22.2859 48.5429 22.2599 48.2463 21.9483C48.0954 21.8504 47.801 22.1439 47.8633 22.3008ZM46.9656 22.1903C47.5525 22.4607 47.7357 21.7873 47.0931 22.0832C47.0401 22.1133 47.0075 22.1461 46.9656 22.1903ZM47.999 21.4276C47.7895 21.27 47.8681 21.5511 47.8774 21.7455C47.9063 22.2126 48.2678 21.6344 47.999 21.4276ZM46.646 20.737C46.6048 20.9356 46.8166 20.9394 46.9601 20.9479C47.4284 20.9766 46.959 20.1703 46.646 20.737ZM47.6583 20.4656C47.5092 20.749 48.2352 20.7508 47.8607 20.4604C47.7943 20.4165 47.7295 20.4369 47.6583 20.4656ZM44.2074 20.3321C44.016 20.8791 44.788 20.3299 44.4847 20.1603C44.4306 20.1591 44.2352 20.293 44.2074 20.3321ZM48.1674 20.3217C47.8351 20.2789 47.1195 20.1342 47.9508 20.4287C48.1632 20.5046 48.3627 20.5176 48.5084 20.2986C48.3727 20.3313 48.3019 20.3366 48.1673 20.3217H48.1674ZM44.8106 20.0666C45.3705 20.113 44.3961 19.411 44.5495 19.8583C44.6197 19.952 44.6997 20.0245 44.8106 20.0666ZM42.8874 19.6884C43.1177 19.6679 43.0153 19.4942 42.8696 19.4266C42.6326 19.3689 42.7235 19.6408 42.8874 19.6884ZM39.0901 19.16C39.1387 19.2139 39.1788 19.2314 39.2459 19.2566C40.0383 19.5214 39.0675 18.5627 39.0901 19.16ZM44.6768 19.3002C44.3301 19.1164 44.5481 19.8249 44.6608 19.4701C44.831 19.4701 44.788 19.3946 44.6768 19.3002ZM33.1505 19.0347C33.7897 18.9368 32.931 18.4642 33.0874 18.977C33.1075 19.0079 33.1197 19.0161 33.1505 19.0347ZM43.943 19.2518C44.0672 19.25 44.0753 19.1053 44.0305 19.0179C43.9033 18.9212 43.4985 19.1209 43.943 19.2518ZM47.7973 18.3567C47.646 18.6974 48.0506 18.5486 47.9853 18.3917C47.8997 18.2842 47.87 18.2128 47.7973 18.3567ZM33.5246 18.3121C33.594 18.3705 33.7041 18.4988 33.7975 18.4913C34.7783 18.3883 32.7282 17.8004 33.5246 18.3121ZM34.9032 18.4921C35.6296 18.5527 34.8183 17.7328 34.7753 18.4802L34.9032 18.4921ZM47.0272 18.2823C47.0647 18.3288 47.1166 18.3649 47.1596 18.4058C47.6238 18.1749 46.9761 18.0205 47.0272 18.2823ZM36.1464 18.3712C36.5016 18.2779 35.9833 17.9693 35.8387 17.9157C35.6006 18.3091 35.753 18.2861 36.1464 18.3712ZM40.0831 17.9406C40.389 18.51 40.5232 17.4011 40.1287 17.5208C40.0504 17.6565 40.0512 17.7901 40.0831 17.9406ZM45.4524 17.4475C46.0167 17.5859 45.4947 16.8827 45.389 17.4115C45.4094 17.4245 45.4287 17.4371 45.4524 17.4475ZM36.2951 17.1158C36.2988 16.4521 35.2913 17.5616 35.9736 17.2962C36.0967 17.249 36.2039 17.2143 36.2951 17.1158ZM39.6055 16.8112C39.3399 16.9392 39.5042 16.9782 39.7022 17.0976C39.7282 16.9998 39.8079 16.7332 39.6055 16.8112ZM34.4166 15.9704C34.4737 16.0462 34.6484 16.1593 34.6522 15.9883C34.6176 15.7979 34.5201 15.8574 34.4166 15.9704ZM40.5695 15.7916C40.9554 15.7257 40.9044 15.2706 40.363 15.5167C40.4034 15.6428 40.4423 15.7357 40.5695 15.7916ZM38.7401 15.6409C38.7223 15.3914 38.2466 15.3835 38.5142 15.6335C38.6563 15.7581 38.7537 15.9303 38.7401 15.6409ZM40.8776 15.3754C41.1761 15.9726 41.3348 14.7492 40.8847 15.2036C40.8383 15.2705 40.8446 15.3033 40.8776 15.3754ZM40.5169 14.86C40.1853 15.2073 41.3879 15.005 40.7942 14.8053C40.6604 14.7655 40.6274 14.7785 40.5169 14.86ZM51.0309 29.0948C50.9901 28.9386 50.9749 28.5924 50.7042 28.7809C50.6508 28.9174 50.9645 29.3416 51.0309 29.0948ZM51.3402 28.5184C51.4725 28.6158 51.748 28.2577 51.4369 28.3648C51.2749 28.4038 51.1455 28.3655 51.3402 28.5184ZM52.0966 28.5775C52.2712 28.4964 52.1429 28.229 51.9668 28.3744C51.9668 28.4645 52.0372 28.5154 52.0966 28.5775ZM48.1577 27.9468C47.9163 28.1372 47.8859 28.1279 48.1651 28.2291C48.2786 28.2748 48.4926 27.6999 48.1577 27.9468ZM48.075 27.8531C48.6149 27.5169 47.9237 27.4058 47.9957 27.8096C48.0238 27.855 48.0216 27.8531 48.075 27.8531ZM52.3142 26.6572C52.2434 26.5434 52.1915 26.6456 52.2193 26.4765C51.8007 26.7609 52.2983 26.8305 52.3142 26.6572ZM50.7925 26.121C50.6783 26.1641 50.3568 26.2827 50.6538 26.353C50.7896 26.3325 50.7755 26.2411 50.7925 26.121ZM52.2345 26.1961C52.4225 26.2314 52.5401 25.9242 52.1355 26.0283C52.1533 26.0986 52.1581 26.1686 52.2345 26.1961ZM50.4574 26.0153C50.7595 26.1693 50.688 25.9677 50.6231 25.7394C50.4918 25.7948 50.2297 25.8777 50.4574 26.0153ZM49.51 25.8078C49.675 25.9517 49.8463 25.3754 49.4032 25.6189C49.4002 25.7197 49.4343 25.7513 49.51 25.8078ZM32.9658 26.2269C32.9851 26.0153 33.1891 25.6509 32.8976 26.0644C32.7552 26.2671 32.621 26.5337 32.9236 26.5605C33.2154 26.5418 32.9807 26.3031 32.9658 26.2269V26.2269ZM34.0315 23.7027C34.0151 24.1363 34.5101 24.1523 34.8183 24.1523C34.5765 23.9154 34.3089 23.6997 34.053 23.4781L34.0315 23.7027ZM33.6092 24.1214C34.1442 23.9128 33.5139 23.7592 33.4427 24.0005C33.4768 24.0772 33.535 24.092 33.6092 24.1214ZM28.7318 23.7038C28.2198 23.3089 28.3892 24.3954 28.8224 23.7763L28.7318 23.7038ZM34.4868 23.7722C34.7231 24.024 34.792 24.0389 34.643 23.7064C35.251 23.8801 34.7623 23.3398 34.3889 23.2966C34.7101 23.5614 34.1675 23.4175 34.4868 23.7722ZM33.2395 23.5502C32.7252 23.6867 33.5692 24.0314 33.3152 23.7399C33.4305 23.6432 33.3875 23.5253 33.2395 23.5502ZM33.449 23.2598C33.6845 23.3851 33.7435 22.9021 33.2922 22.9262C33.1512 23.044 33.34 23.201 33.449 23.2598ZM34.4736 23.0284C34.1784 23.282 34.5425 23.2728 34.6827 23.246C35.0034 23.1828 34.5715 22.9924 34.4736 23.0284ZM29.954 23.0489C30.3466 22.9663 29.8591 22.8611 29.8386 22.6711C29.7956 22.0456 29.0215 22.9478 29.5684 22.866C29.7145 22.802 29.7934 23.075 29.9539 23.0489L29.954 23.0489ZM30.7267 21.7953C30.452 21.5402 30.2799 21.622 30.0186 21.8827C30.5925 21.815 30.4631 22.0196 30.9058 22.2683C30.8665 22.1512 30.8098 21.8745 30.7267 21.7953ZM32.1835 21.4316L32.3018 21.332C31.3241 21.2134 32.017 21.7723 31.7226 21.8336C31.2866 21.8738 31.7827 22.0921 31.8328 22.0731C32.4791 21.8243 31.7282 21.789 32.1836 21.4316H32.1835ZM32.6837 21.8987C33.1765 21.8533 32.492 21.438 32.726 21.4168C33.2384 21.3451 33.1554 21.2531 32.8888 20.9263C32.4098 21.4064 31.7127 21.6016 32.6837 21.8988V21.8987ZM31.419 21.4145C30.8977 21.7685 31.6481 21.9932 31.5799 21.3387C31.5239 21.3621 31.4716 21.3852 31.419 21.4145ZM28.2413 25.7606C28.2113 26.0131 28.0311 26.1079 28.4323 26.0607C29.0059 25.9622 28.36 25.9647 28.403 25.6409C28.3734 25.3984 28.6426 25.2668 28.2317 25.484C27.9922 25.5862 28.0407 25.2013 27.8809 25.5453C27.773 25.9577 28.2273 25.5844 28.2413 25.7606L28.2413 25.7606ZM28.6729 25.407C28.4879 25.2028 28.4415 24.9381 28.5317 25.4196C28.5824 25.5639 28.8401 25.6509 28.9673 25.7963C29.4597 25.5322 28.8297 25.5249 28.6729 25.407H28.6729ZM28.4171 29.6578C28.6982 29.5184 28.2469 29.1524 28.2554 29.5191C28.2684 29.6232 28.3251 29.6374 28.4171 29.6578ZM29.1705 29.5492C29.4775 29.8277 29.4909 29.1729 29.2135 29.4124C29.1672 29.4578 29.1453 29.4838 29.1705 29.5492ZM29.6874 29.5499C29.9974 29.4429 29.6358 29.0881 29.4968 29.3242C29.5246 29.4291 29.6076 29.4822 29.6874 29.5499ZM29.5057 29.2387C29.545 29.1405 29.1582 29.0007 29.3759 29.3491C29.4341 29.3168 29.4712 29.2963 29.5057 29.2387ZM30.7771 28.7278C31.0025 28.6761 30.677 28.2626 30.5086 28.5414C30.5539 28.6656 30.6566 28.6991 30.7771 28.7278ZM35.6926 27.6665C35.8391 27.8449 36.3093 28.064 36.3093 27.665C36.0159 27.6193 35.8265 27.781 36.0159 27.3701C35.8713 27.4288 35.6363 27.4679 35.6926 27.6665H35.6926ZM33.5706 27.3422C33.7916 27.3102 33.8913 27.0625 33.5991 27.0238C33.3867 27.0871 33.4353 27.2168 33.5706 27.3422ZM33.3296 26.9774C34.0077 26.9171 32.9433 26.3709 33.2528 26.8885L33.3296 26.9774ZM32.2194 26.3449C32.4249 26.147 31.948 25.7335 31.898 26.124C31.9803 26.2541 32.0793 26.2853 32.2194 26.3449ZM50.9946 25.6688C51.52 25.4449 51.0602 25.5029 50.9783 25.2824C50.8103 24.8533 50.5122 25.8324 50.9946 25.6688ZM51.4536 25.6885C51.8729 25.5453 51.7996 25.4021 51.3746 25.2583C51.2234 25.4524 51.2674 25.5502 51.4536 25.6885ZM29.1786 25.4349C29.4723 25.4349 28.9524 24.8072 28.7841 25.1359C28.8605 25.3215 28.9892 25.407 29.1786 25.4349ZM49.5445 25.3847C50.0116 25.2054 49.6209 24.8774 49.349 25.2247C49.3965 25.3252 49.4462 25.3393 49.5445 25.3847ZM38.6492 30.8407C38.3708 29.9586 36.4761 29.2833 35.6321 29.1052C35.3763 29.052 35.0222 29.0505 34.7612 29.0457C34.0945 29.0285 33.4155 29.1059 32.7541 29.2591C32.4711 29.3253 31.4582 29.612 31.3599 29.4216C30.7841 29.0056 31.0781 30.1877 30.6399 29.9556C30.2498 29.7421 30.0707 30.2055 29.7003 29.8091C29.2757 29.6146 29.0277 30.3052 28.9135 29.9028C28.7777 29.3949 28.6787 30.2565 28.3039 30.0289C28.1125 29.9723 27.3646 29.962 27.8441 29.8415C27.625 29.4681 27.8045 29.8284 27.9338 29.638C27.9546 29.2287 27.5683 29.5722 27.5701 29.5629C27.5883 29.2483 27.1516 29.5172 27.3814 29.6753C26.5979 30.0114 26.5323 28.586 27.0944 28.7735C27.4277 28.8783 26.9127 28.2134 27.5371 28.3473C27.698 28.3001 27.5571 28.1718 27.675 28.1513C28.0495 28.4139 27.7655 27.5701 28.1188 28.0278C28.5957 28.4384 28.2268 27.1163 27.8975 27.5857C27.8585 27.5217 28.0699 27.4604 27.9286 27.3544C27.6601 27.2733 27.0899 27.5325 27.6479 27.608C27.4818 27.8531 26.7165 27.4239 26.7996 27.2124C27.2226 26.5854 26.6412 26.1871 27.6164 26.0072C27.9531 25.597 26.6367 25.7394 26.9668 25.292C27.2082 24.9797 26.8255 24.889 27.065 24.4352C27.2516 24.3192 27.9308 24.8439 27.7632 24.4903C27.5063 24.0493 27.5997 23.2735 28.2627 23.2542C29.5256 23.9656 29.3335 22.7939 28.8726 23.0433C28.6824 23.1077 28.665 22.8065 28.6576 22.7153C28.5764 22.2553 29.6487 21.699 28.8541 21.3506C28.6839 21.5551 28.9783 20.8809 28.9995 20.7203C29.0265 20.2194 29.9775 20.9438 29.6954 20.5161C29.226 19.9159 30.1073 20.2625 29.932 19.8408C29.8103 19.5384 30.1274 19.8605 30.0799 19.5842C29.9494 19.2938 30.2575 19.2016 30.4492 19.3931C30.8429 19.7671 31.265 19.9687 31.035 19.3625C30.8515 18.9163 31.5593 19.1264 31.8011 18.8844C31.9027 19.0153 32.0792 19.5154 32.2412 19.1469C32.3057 18.8486 32.1021 18.3705 32.3825 18.3518C32.8693 17.9488 32.5816 18.3727 32.6232 17.938C33.0684 18.3418 32.5427 16.7845 33.1745 16.8614C33.2883 16.8491 33.5527 16.2877 33.6253 16.6041C33.6539 16.6405 34.7889 16.7108 34.196 16.3646C34.2816 16.083 34.5289 15.8075 34.4325 15.5591C35.143 15.214 35.1181 15.0697 35.7429 15.693C36.0718 15.95 35.6469 16.1418 36.1125 16.2727C35.9287 16.4631 36.3569 16.2958 36.4545 16.3608C36.6881 16.526 36.3091 17.0778 36.691 16.5818C37.0077 16.1705 35.7429 15.748 36.7426 15.4375C36.9873 15.5112 37.2394 16.442 37.3903 15.7384C37.5127 15.6696 37.4715 15.1858 37.5928 14.9411C37.7545 14.9895 37.839 14.9389 37.9454 14.8366C38.2865 14.988 37.9754 15.0857 38.1701 15.1464C38.3919 15.098 38.3251 14.8426 38.3618 14.7623C38.5565 14.715 39.0356 15.0114 39.1193 15.2844C38.65 15.4383 39.1738 15.8518 39.3066 15.4889C39.9388 15.4889 39.2231 14.9356 39.7337 14.9196C40.1497 15.0077 40.1445 14.5808 40.4805 14.718C40.6596 14.7786 41.1037 14.5909 41.39 14.6273C41.3982 14.7786 41.5183 14.8497 41.5183 14.978C41.3489 15.0524 41.2335 15.148 41.5183 15.3327C41.6162 15.368 42.5884 14.991 42.2822 15.4841C42.4105 15.8455 42.8142 15.3524 42.9051 16.1479C43.1954 16.0099 43.515 15.3383 43.6593 15.8046C43.7831 15.8265 43.9429 15.435 44.0108 15.731C44.0831 15.9909 44.3842 15.6205 44.2114 15.9578C44.2578 16.0627 44.3883 16.0471 44.29 16.1248C44.0304 16.4018 45.4309 17.0258 45.2163 16.4844C45.6078 16.5837 45.3201 16.2754 45.6133 16.3162C45.4187 16.5476 45.745 16.7871 45.8896 16.4807C46.0157 16.545 46.3145 16.8588 46.3939 16.603C46.3946 16.6004 46.646 17.7093 47.0223 17.3479C47.0475 17.2267 46.917 16.9638 46.7724 17.0028C46.7591 16.3635 47.4042 17.0288 47.2058 17.0823C47.2934 17.4363 47.8966 17.5839 47.5736 17.8543C47.3204 18.1057 47.7171 18.3827 47.6815 18.0663C48.1165 18.0894 48.2685 18.3809 48.2944 18.8369C48.2859 18.9454 47.5814 19.4314 48.152 19.4099C48.5829 19.3032 48.4231 19.1722 48.6214 19.5795C48.4794 19.6758 48.6422 19.9669 48.3215 19.7208C47.904 19.4906 48.1446 20.2863 48.3229 20.1194C48.4479 19.888 48.8599 20.1313 48.7964 19.7925C48.5242 19.0309 50.132 20.0461 50.1787 20.0722C50.1831 20.0145 50.1898 19.9561 50.1917 19.8981C50.8035 20.016 50.1936 20.6173 50.6392 20.7917C50.9797 20.929 50.3074 21.3008 50.214 21.2197C49.7416 20.9802 50.0879 21.8523 50.3018 21.4741C50.4494 21.4808 50.3827 21.5942 50.4721 21.6296C50.4583 21.6526 50.4431 21.6805 50.4283 21.717C50.7776 21.9163 50.8413 21.4306 50.8102 21.8375C50.825 21.9442 51.2188 21.9378 50.9311 22.116C50.4138 22.3901 51.6174 22.3261 50.9696 22.6582C50.8109 22.7768 51.1866 23.1929 50.8832 23.1472C50.6781 23.0999 50.3041 22.7474 50.2262 23.1658C50.412 23.5253 50.5343 23.245 50.7289 23.4216C49.937 23.4938 51.0723 23.8385 51.4387 23.6563H51.4339L51.4594 23.6507C51.4572 23.7087 51.4609 23.7634 51.4928 23.8117V23.8014C51.4943 23.8207 51.7842 23.9304 51.8595 24.1476C51.5609 24.5343 51.8791 24.1911 51.944 24.5172C51.8436 24.5555 51.6982 24.6139 51.8102 24.7422L51.8005 24.7336C51.8005 24.7831 51.8124 24.8255 51.8457 24.8631C51.7371 24.911 51.6388 24.8155 51.6081 25.007C51.3225 24.7348 50.9521 25.3469 51.3915 25.1888C51.647 25.0951 51.8902 25.7998 52.1175 25.1204C52.3908 25.3495 52.0048 25.7663 52.1783 25.8139C52.7897 25.7979 52.5498 26.5365 52.7898 26.5495H52.7868C52.7976 26.5539 52.8042 26.5577 52.8124 26.5674C52.6789 26.6424 52.6429 26.7585 52.6948 26.9117C52.4371 27.1512 52.0293 27.3657 51.8805 27.3694C52.1223 27.6064 51.4349 27.8291 51.3073 28.0511C51.4145 28.208 52.192 28.0198 52.4609 28.0935C52.4705 28.1214 52.479 28.1515 52.4857 28.1842C52.1738 28.3222 52.9477 28.8208 53.0211 28.8748C52.9499 28.9901 52.8868 29.0849 52.8075 29.2035C52.5216 28.6829 52.3225 29.201 52.489 29.2616C52.8279 29.3616 52.588 29.5315 52.4912 29.4423C52.3399 29.2035 51.9543 29.3244 52.2276 29.5788C51.9761 29.7498 51.9817 29.2396 51.972 29.2296C51.8489 29.144 51.5738 29.0942 51.3298 29.1135C51.863 29.4516 50.7752 29.533 51.1563 29.1414C50.9998 29.1831 50.8841 29.2657 50.883 29.4032C50.8712 29.4006 50.8593 29.4006 50.8474 29.4006L50.8593 29.4125C50.8274 29.3821 50.6579 29.3735 50.6242 29.3727C50.3932 29.5583 50.7224 28.5267 50.1021 28.9325C49.3809 29.1136 50.2909 29.0883 50.173 29.1906C50.0284 29.3152 50.305 29.6264 49.9494 29.5379C49.6131 29.4464 49.6701 29.6234 49.7362 29.3375C49.6846 29.2356 49.583 29.2103 49.4818 29.2716C49.5237 28.8749 48.8819 29.3605 48.626 29.4155L48.6171 29.4007C48.6171 29.4007 48.4388 29.3084 48.382 29.3367V29.3375C48.3501 29.3531 48.3145 29.3988 48.2878 29.4267C48.2567 29.4081 48.2326 29.3698 48.1962 29.3493C48.0861 29.2947 48.1399 29.1962 47.9978 29.1962L48.0008 29.172C47.8521 29.1564 47.7205 29.2207 47.5715 29.2363C46.7609 29.2787 45.726 29.3003 44.9441 29.1061C43.8128 28.9343 41.1683 29.7859 40.8573 31.0559C40.1216 35.0452 45.7806 34.3097 47.9668 34.515C48.1974 34.5365 49.055 34.9076 48.7476 34.9225C42.7483 34.9515 30.8435 34.9225 30.8435 34.9225C30.8435 34.9225 31.371 34.525 31.5939 34.4956C33.8891 34.1851 39.5629 34.9526 38.6488 30.8409L38.6492 30.8407Z" fill="#957934"/>
<path d="M27.8718 43.1122C28.3968 43.1892 28.7735 43.2922 29.0015 43.4194C29.5139 43.7065 29.7709 44.1512 29.7709 44.7529C29.7709 45.3438 29.5528 45.8024 29.1187 46.1236C28.6841 46.445 28.0704 46.6059 27.277 46.6059H24.4082V46.2984C24.7957 46.2686 25.0308 46.2225 25.1146 46.1582C25.1987 46.0949 25.2417 45.9268 25.2417 45.6577V45.4159V41.3179V41.0695C25.2417 40.8006 25.1987 40.6303 25.1105 40.5634C25.023 40.495 24.7868 40.4522 24.4082 40.4344V40.1279H27.0315C27.835 40.1279 28.4197 40.2395 28.7783 40.4604C29.1383 40.6827 29.32 41.0427 29.32 41.5417C29.32 41.9289 29.2088 42.2427 28.9856 42.4845C28.7634 42.7247 28.3934 42.9355 27.8718 43.1121V43.1122ZM26.3281 43.0274H26.9652C27.7902 43.0274 28.2017 42.5827 28.2017 41.692C28.2017 40.8988 27.7612 40.5032 26.8821 40.5032H26.3281V43.0274ZM26.3281 43.4034V45.2612C26.3281 45.6513 26.3883 45.9112 26.5095 46.0429C26.63 46.173 26.8695 46.2389 27.2311 46.2389C28.0961 46.2389 28.5276 45.7878 28.5276 44.8867C28.5276 43.8975 27.9926 43.4034 26.9225 43.4034H26.3281Z" fill="white"/>
<path d="M20.887 40.4485C20.2389 40.4485 19.7283 40.6869 19.3567 41.1674C18.9841 41.6448 18.7987 42.2974 18.7987 43.123C18.7987 44.0427 19.0115 44.8005 19.4402 45.4003C19.8673 45.9994 20.4079 46.2984 21.0638 46.2984C21.686 46.2984 22.1818 46.0422 22.5533 45.5257C22.9222 45.0095 23.1084 44.3156 23.1084 43.451C23.1084 42.5529 22.9044 41.8266 22.4962 41.2771C22.0884 40.7237 21.551 40.4485 20.887 40.4485ZM21.1202 40.0518C22.0539 40.0518 22.847 40.3612 23.494 40.9825C24.1421 41.6047 24.467 42.3625 24.467 43.2551C24.467 44.2108 24.107 45.0233 23.3895 45.689C22.6694 46.3561 21.7966 46.6904 20.764 46.6904C19.8373 46.6904 19.0494 46.3747 18.4057 45.7496C17.7624 45.1219 17.4395 44.3566 17.4395 43.451C17.4395 42.4946 17.7932 41.6884 18.5028 41.0335C19.2118 40.3798 20.0831 40.0518 21.1202 40.0518Z" fill="white"/>
<path d="M48.6126 44.4648C48.6126 45.6328 47.9033 46.2215 46.7705 46.2215C46.7268 46.2215 46.6849 46.2215 46.6434 46.22H45.2681V45.2487C45.2674 45.226 45.2663 45.2022 45.2663 45.1792V42.5634C45.4194 42.5634 45.5618 42.5634 45.7034 42.5634C47.5214 42.5634 48.6126 43.0223 48.6126 44.4648ZM47.9393 40.6423C47.9393 41.8736 47.0382 42.2488 45.4075 42.2488C45.3605 42.2488 45.3137 42.2488 45.2663 42.2488V39.3493C45.2663 38.9823 45.29 38.9109 45.963 38.9109C47.1317 38.9109 47.9393 39.4802 47.9393 40.6424V40.6423ZM49.9945 44.4581C49.9945 43.2075 49.0968 42.4857 47.2774 42.2953C48.5648 42.0361 49.2025 41.4556 49.2025 40.5196C49.2025 39.2642 48.006 38.625 46.0927 38.625H42.9043V38.8964C43.884 38.9203 44.0382 39.1572 44.0382 39.9745V45.1613C44.0382 45.9739 43.8839 46.2108 42.9043 46.2345V46.5793L46.7464 46.5748C48.8951 46.5711 49.9945 45.8511 49.9945 44.4581V44.4581Z" fill="white"/>
<path d="M54.2081 44.525H51.379L51.0275 45.5747C50.9967 45.6655 50.9789 45.7462 50.9789 45.8161C50.9789 46.0693 51.1513 46.2229 51.498 46.2467V46.5747H49.6719V46.4513C50.1639 46.2925 50.5677 45.5011 50.6908 45.1724L52.5863 40.1284H53.6775L55.6631 45.4498C55.7643 45.7239 55.9133 46.1444 56.2374 46.2084C56.4302 46.2857 56.5448 46.2958 56.7042 46.182C56.8877 46.07 57.0335 45.7227 57.0335 45.5298V42.3975C57.0335 42.3785 57.0335 42.3591 57.032 42.3417V41.2547C57.032 40.6292 56.415 40.4534 55.8778 40.4534V40.1339L56.662 40.1153C57.4221 40.1257 57.7446 40.2269 58.1792 40.7255L61.6505 45.0597V41.4548C61.6505 41.0412 61.5879 40.7757 61.4632 40.6578C61.3376 40.5399 61.038 40.4674 60.5686 40.4395V40.1338L62.9705 40.1305V40.1249L65.7759 40.1201V40.4272C64.9754 40.447 64.8493 40.6407 64.8493 41.306V43.7942L67.8964 41.1353C67.9913 41.0219 68.0766 40.9301 68.1055 40.7794C68.1252 40.6846 68.1048 40.5957 67.9902 40.5173C67.9005 40.457 67.7644 40.4284 67.5858 40.4284C67.5383 40.4284 67.4897 40.4377 67.4411 40.4377V40.0996H69.5816V40.4377C69.5527 40.4377 69.5234 40.4377 69.4942 40.4377C69.1868 40.4377 68.9903 40.6236 68.6643 40.9196L66.5928 42.8061L68.7641 45.3467C69.143 45.7895 69.9272 46.4436 70.5468 46.4436V46.656C69.6439 46.7055 68.4389 46.7118 67.496 45.4408L65.8752 43.5245L64.8492 44.4516V45.3691C64.8492 46.0331 64.9753 46.2151 65.7758 46.2344V46.581H62.9756V46.2344C63.0446 46.2329 63.1088 46.2303 63.1677 46.2262H63.3665C63.3717 46.2254 63.3784 46.2236 63.3836 46.2229C63.3898 46.2214 63.3958 46.2214 63.4021 46.2199C63.4077 46.2199 63.4143 46.2188 63.418 46.2173C63.4247 46.2161 63.4299 46.2151 63.4355 46.2139C63.441 46.2132 63.4477 46.2124 63.4514 46.2106C63.4574 46.2098 63.4637 46.2083 63.4677 46.2069C63.4733 46.2069 63.4796 46.2042 63.4841 46.2032C63.4907 46.2024 63.4944 46.2002 63.5 46.2002C63.5059 46.1976 63.51 46.1968 63.5152 46.1957H63.5167C63.5196 46.1939 63.5252 46.1927 63.5304 46.1909C63.5348 46.1894 63.5393 46.1882 63.5433 46.1871H63.5448H63.5456C63.5501 46.1846 63.5553 46.1838 63.5586 46.182H63.5593C63.5638 46.1808 63.5689 46.1778 63.5734 46.1771C63.579 46.1753 63.582 46.1741 63.5864 46.1715C63.5879 46.1715 63.5879 46.1715 63.5879 46.1715C63.592 46.1707 63.596 46.1697 63.6008 46.1675C63.6049 46.1648 63.609 46.1641 63.6138 46.1622H63.6146C63.6175 46.1604 63.622 46.1585 63.6268 46.1566C63.6331 46.1536 63.6398 46.1503 63.6461 46.1473C63.648 46.1473 63.6494 46.1455 63.6509 46.1444C63.6557 46.1437 63.6591 46.1418 63.6632 46.1388H63.6639C63.6676 46.1369 63.6706 46.1355 63.6754 46.1325C63.6794 46.1306 63.6828 46.1288 63.6861 46.128L63.6869 46.1258C63.6899 46.1239 63.6935 46.1225 63.6965 46.1213C63.7103 46.112 63.7233 46.1039 63.7354 46.0953C63.7366 46.0946 63.7366 46.0946 63.7377 46.0923H63.7384C63.741 46.0905 63.7444 46.089 63.7477 46.0864C63.7507 46.0834 63.754 46.0815 63.7559 46.0785H63.7573C63.7588 46.0759 63.7625 46.0734 63.7647 46.0711L63.7655 46.07C63.7688 46.0685 63.771 46.0644 63.7733 46.0629C63.7981 46.0399 63.8189 46.0146 63.836 45.9867V45.9859C63.84 45.98 63.8426 45.9737 63.8456 45.9681C63.8456 45.9681 63.8463 45.967 63.8463 45.9662L63.8474 45.9655C63.8474 45.9644 63.8486 45.9636 63.8486 45.9614C63.8508 45.9599 63.8508 45.9581 63.8523 45.9551C63.8537 45.9525 63.8552 45.9506 63.8563 45.9465C63.8768 45.9 63.8863 45.8484 63.8863 45.7914C63.8863 45.7907 63.8863 45.7896 63.8863 45.7896C63.8863 45.7888 63.8863 45.7881 63.8863 45.7881C63.8863 45.784 63.8863 45.7807 63.8863 45.7766V45.7758C63.8863 45.771 63.8863 45.7684 63.8863 45.7636C63.8863 45.761 63.8863 45.7561 63.8863 45.7528L63.8856 45.752C63.8845 45.7376 63.8834 45.7248 63.8819 45.7119C63.896 45.6148 63.9008 45.501 63.9008 45.369V44.3698C63.9041 44.3411 63.906 44.3102 63.906 44.2797V41.1452C63.906 40.9307 63.84 40.6652 63.6427 40.5506C63.5412 40.4737 63.3009 40.4413 63.0588 40.4477L63.0577 40.4532C62.7588 40.4402 62.4102 40.4934 62.3024 40.599C62.0662 40.8303 62.0876 41.1557 62.0876 41.4547L62.0988 46.576H61.6149L57.4692 41.3624V45.2336C57.4692 45.6449 57.5322 45.9115 57.6605 46.0339C57.7881 46.1558 58.0854 46.2328 58.5508 46.2663V46.5958L54.1021 46.5746V46.2458C54.4762 46.2458 54.6608 46.115 54.6608 45.855C54.6608 45.7684 54.6419 45.6624 54.5967 45.542L54.2081 44.5249V44.525ZM51.5099 44.1174H54.0661L52.7524 40.6672L51.5099 44.1174Z" fill="white"/>
<path d="M36.6899 43.5514C36.7344 43.5488 36.7767 43.5488 36.8179 43.5488C37.3833 43.5488 38.0277 43.557 38.0644 44.0612L38.4244 43.9924C38.4059 43.7187 38.3993 43.6284 38.3993 43.3599C38.3993 43.0981 38.4059 43.1252 38.4244 42.8433L38.0644 42.7731C38.0214 43.323 37.3833 43.2531 36.7927 43.2531C36.7489 43.2531 36.7152 43.2512 36.6899 43.2505C36.6899 41.9836 36.6899 45.5676 36.6899 40.9713C36.6899 40.4474 36.7289 40.4474 37.4916 40.4474C38.756 40.4474 39.3162 40.5634 39.4511 41.6027H39.644V40.1187H34.7793V40.4281C35.5798 40.4474 35.7059 40.6419 35.7059 41.3123V45.3594C35.7059 45.7543 35.7059 46.1712 35.7059 46.5787H40.0786L40.1268 45.0883H39.934C39.799 46.0466 39.2484 46.318 38.1094 46.318C36.9025 46.318 36.69 46.0663 36.69 45.1273C36.69 45.0202 36.69 44.9432 36.69 44.9042C36.69 44.2839 36.69 43.8503 36.69 43.5513L36.6899 43.5514Z" fill="white"/>
<path d="M35.1415 46.5788L35.7099 45.5182H35.3892C34.833 46.1817 34.0232 46.2587 33.325 46.2687C31.9735 46.291 31.8189 46.0452 31.8189 45.0772C31.8189 45.0188 31.8189 44.9705 31.8189 44.9117V41.3295C31.8189 40.6609 31.9442 40.4671 32.7459 40.4475V40.1235H29.8867V40.4475C30.6887 40.4671 30.8141 40.6609 30.8141 41.3295V45.4933C30.8141 46.162 30.6887 46.2984 29.8867 46.3182V46.59L35.1415 46.5789V46.5788Z" fill="white"/>
<path d="M10.9647 40.6836V45.056C10.9647 45.532 11.0392 45.8451 11.189 45.9939C11.3374 46.1415 11.6781 46.2382 12.208 46.2854V46.5789H9.37851V46.2847C9.79638 46.2326 10.0708 46.1277 10.2043 45.9693C10.3378 45.8109 10.4057 45.5052 10.4057 45.056V39.9617C10.4038 39.7029 10.3734 39.4966 10.2866 39.3452C10.1717 39.1444 9.94696 39.0462 9.70783 38.9905C9.51461 38.9458 9.31182 38.9295 9.14648 38.9105V38.6197H10.2072C10.5406 38.6197 10.8639 38.7127 11.1309 39.0265L16.1335 44.715V40.1384C16.1335 39.6647 16.0594 39.3538 15.9096 39.205C15.7616 39.057 15.4209 38.9607 14.8903 38.9131V38.6196H17.7509V38.9131C17.3305 38.9681 17.0516 39.0734 16.9203 39.2329C16.7891 39.3906 16.7223 39.6914 16.7223 40.1384V43.8962V46.5807H16.1691L10.9647 40.6836Z" fill="white"/>
</g>
</g>
<defs>
<clipPath id="clip0_870_90527">
<rect width="78.1287" height="55" fill="white" transform="translate(0.935547 0.5)"/>
</clipPath>
</defs>
</svg>
