<svg width="100" height="16" viewBox="0 0 100 16" fill="none" xmlns="http://www.w3.org/2000/svg">
<g clip-path="url(#clip0_870_65296)">
<path fill-rule="evenodd" clip-rule="evenodd" d="M0 0.115723H100V15.8838H0V0.115723Z" fill="white"/>
<mask id="mask0_870_65296" style="mask-type:luminance" maskUnits="userSpaceOnUse" x="0" y="0" width="100" height="16">
<path d="M0 15.8838H100V0.115723H0V15.8838Z" fill="white"/>
</mask>
<g mask="url(#mask0_870_65296)">
<path d="M25.5723 0.166504V15.8221H26.1133L26.1247 0.172244L25.5723 0.166504Z" fill="#E50000"/>
<path d="M19.0466 10.8923C19.0466 10.8923 21.762 11.9258 21.4331 15.8052C21.4331 15.8052 21.4662 15.8066 21.4667 15.8052C21.5806 15.556 23.1668 12.1707 20.6551 10.607C20.6551 10.607 21.6689 8.11431 19.7727 5.80328C18.8078 4.62778 17.0403 3.50604 13.8037 3.97606C13.8037 3.97606 9.79795 -2.70658 3.59688 1.67882C3.59688 1.67882 4.06578 2.93216 3.0957 4.24802L3.11939 4.26185C4.06101 3.71074 8.5435 -0.458806 13.4046 4.52142C13.4046 4.52142 21.0828 3.81317 19.0466 10.8923Z" fill="#E50000"/>
<path d="M9.36918 11.3171C9.36918 11.3171 11.3421 8.92546 13.5758 11.1082C13.5758 11.1082 15.085 9.2763 17.4374 10.3283C18.5043 10.8054 20.0545 12.3668 18.3473 15.6789C18.3467 15.6798 18.3102 15.6798 18.3097 15.6789C18.3097 15.6789 19.0065 12.8713 16.9666 11.5982C16.1445 11.0845 14.6365 11.1908 13.1281 12.8461C13.1281 12.8461 12.4124 11.5231 11.2064 11.8915C11.2064 11.8915 11.3574 13.8332 10.1522 15.8028C10.1513 15.8061 10.1157 15.8009 10.1162 15.8028C10.1162 15.8028 10.8195 12.774 9.36914 11.3171H9.36918Z" fill="#E50000"/>
<path d="M1.98316 11.9675C1.98316 11.9675 4.50492 9.92384 6.60089 10.8605C7.93791 11.4586 8.28774 13.1069 8.03141 15.6756C8.03141 15.6756 8.066 15.6789 8.06694 15.6756C8.25922 15.2251 10.7363 10.6245 6.96105 9.23172C6.24867 8.9673 5.25008 8.88427 3.44929 9.54545L1.77962 4.74931C1.77962 4.74931 4.42893 1.16148 0.0708507 0.336426C0.0708507 0.336426 0.0675654 0.367257 0.0685401 0.367257C0.494297 0.604054 3.08859 2.2495 0.181974 4.21629L1.98316 11.9675V11.9675Z" fill="#E50000"/>
<path d="M34.1975 11.9155C34.5831 11.9155 34.9091 11.8704 35.1753 11.7799C35.4414 11.6896 35.6587 11.5663 35.8272 11.41C35.9957 11.2538 36.1177 11.0693 36.1934 10.8568C36.2691 10.6444 36.307 10.4161 36.307 10.1719C36.307 9.67374 36.1373 9.28174 35.798 8.99602C35.4585 8.71031 34.9227 8.56741 34.1902 8.56741H32.0733V11.9154H34.1976L34.1975 11.9155ZM32.0733 4.06193V7.35863H33.7873C34.5198 7.35863 35.0666 7.217 35.428 6.9337C35.7893 6.65048 35.97 6.24266 35.97 5.71026C35.97 5.12916 35.8002 4.70914 35.461 4.45014C35.1215 4.19132 34.5905 4.06186 33.8679 4.06186H32.0733V4.06193ZM33.8679 2.72123C34.5417 2.72123 35.1178 2.7861 35.5965 2.91539C36.075 3.04485 36.4681 3.22926 36.7758 3.46851C37.0834 3.70787 37.3091 3.99962 37.4533 4.34396C37.5972 4.68834 37.6694 5.0754 37.6694 5.50513C37.6694 5.75423 37.6315 5.99486 37.5558 6.22674C37.4801 6.45877 37.3629 6.67618 37.2042 6.87875C37.0454 7.08151 36.8465 7.26343 36.6073 7.42455C36.368 7.58571 36.0847 7.72009 35.7576 7.82749C37.2519 8.14509 37.999 8.93862 37.999 10.2085C37.999 10.658 37.9147 11.0693 37.7463 11.4429C37.5778 11.8165 37.3335 12.1389 37.0139 12.41C36.694 12.681 36.2996 12.8922 35.8309 13.0436C35.3621 13.1951 34.8274 13.2707 34.2268 13.2707H30.3594V2.72119H33.8679V2.72123Z" fill="black"/>
<path d="M42.9949 10.003C42.4334 10.0227 41.9596 10.0679 41.574 10.1386C41.1881 10.2095 40.8755 10.2998 40.6364 10.4098C40.3972 10.5196 40.225 10.6503 40.1201 10.8016C40.015 10.9531 39.9626 11.1192 39.9626 11.2998C39.9626 11.4757 39.9905 11.6258 40.0468 11.7504C40.1028 11.875 40.181 11.9775 40.2811 12.058C40.3812 12.1387 40.4985 12.1972 40.6328 12.2339C40.767 12.2705 40.9148 12.2889 41.076 12.2889C41.4861 12.2889 41.8388 12.2119 42.1344 12.058C42.4298 11.9042 42.7167 11.6808 42.995 11.3878V10.0031L42.9949 10.003ZM38.8198 6.83816C39.6646 6.05196 40.6705 5.65869 41.8377 5.65869C42.2673 5.65869 42.6494 5.72826 42.984 5.86747C43.3184 6.00672 43.5993 6.20337 43.8263 6.45721C44.0534 6.7113 44.2267 7.0129 44.3464 7.36201C44.4659 7.7113 44.5257 8.09828 44.5257 8.52317V13.2705H43.8227C43.6711 13.2705 43.5564 13.2474 43.4784 13.2009C43.4002 13.1545 43.3342 13.0605 43.2806 12.9188L43.1266 12.3108C42.9363 12.4817 42.7483 12.6344 42.5628 12.7687C42.3771 12.9031 42.1856 13.0166 41.9877 13.1093C41.79 13.2022 41.5775 13.2716 41.3506 13.3181C41.1235 13.3645 40.8732 13.3877 40.5997 13.3877C40.2969 13.3877 40.015 13.3461 39.7537 13.2632C39.4924 13.1801 39.2667 13.0544 39.0763 12.8859C38.8858 12.7173 38.7356 12.5086 38.6257 12.2595C38.5159 12.0105 38.4609 11.7174 38.4609 11.3804C38.4609 11.0924 38.5378 10.8115 38.6917 10.5379C38.8455 10.2645 39.0994 10.019 39.4535 9.8016C39.8075 9.58437 40.2738 9.40494 40.8525 9.26327C41.4311 9.12161 42.1453 9.04106 42.9949 9.02142V8.52324C42.9949 7.98604 42.8801 7.58552 42.6507 7.32179C42.4211 7.05802 42.0842 6.92614 41.6398 6.92614C41.337 6.92614 41.0832 6.96405 40.8781 7.03968C40.673 7.11546 40.4947 7.19724 40.3435 7.28518C40.1921 7.37302 40.0577 7.45494 39.9406 7.53057C39.8233 7.60635 39.6989 7.64411 39.567 7.64411C39.4595 7.64411 39.368 7.6161 39.2923 7.55985C39.2166 7.50378 39.1543 7.43418 39.1056 7.35107L38.8198 6.83823V6.83816Z" fill="black"/>
<path d="M47.3239 6.78692C47.4851 6.62092 47.6522 6.47069 47.8255 6.33632C47.9988 6.20206 48.1833 6.08609 48.3786 5.98833C48.5739 5.89067 48.7814 5.81504 49.0012 5.76121C49.2209 5.70752 49.4602 5.68066 49.719 5.68066C50.1291 5.68066 50.4893 5.74904 50.7993 5.88576C51.1093 6.02255 51.3707 6.21549 51.5831 6.46456C51.7955 6.71359 51.9553 7.01285 52.0627 7.36196C52.1702 7.71125 52.2239 8.09581 52.2239 8.5159V13.2704H50.6565V8.5159C50.6565 8.01289 50.5404 7.622 50.3086 7.34362C50.0766 7.06523 49.7239 6.92602 49.2502 6.92602C48.8985 6.92602 48.5726 7.00664 48.2723 7.16783C47.972 7.329 47.69 7.54879 47.4263 7.82714V13.2704H45.8516V5.79778H46.8037C47.0186 5.79778 47.1554 5.89793 47.2139 6.09823L47.3238 6.78684L47.3239 6.78692Z" fill="black"/>
<path d="M55.1313 2.42822V8.71399H55.4683C55.5757 8.71399 55.6635 8.69926 55.7321 8.66998C55.8003 8.64067 55.8712 8.57969 55.9444 8.48683L58.0393 6.09125C58.1125 5.99356 58.1931 5.92034 58.281 5.87143C58.369 5.82265 58.4811 5.79814 58.618 5.79814H60.0462L57.5266 8.64067C57.38 8.83114 57.2189 8.98263 57.0431 9.09487C57.1408 9.16343 57.2262 9.24026 57.2996 9.32571C57.3728 9.41117 57.4435 9.5077 57.512 9.61507L60.2001 13.2708H58.7937C58.6668 13.2708 58.5581 13.2501 58.4678 13.2086C58.3774 13.1671 58.2981 13.0902 58.2298 12.9777L56.069 10.0473C55.9958 9.93501 55.9224 9.86299 55.8492 9.83115C55.776 9.79945 55.6661 9.78356 55.5196 9.78356H55.1314V13.2707H53.5566V2.42822H55.1314H55.1313Z" fill="black"/>
<path d="M67.4005 8.09855C67.7815 8.09855 68.1171 8.04977 68.4077 7.95201C68.6981 7.85435 68.9399 7.71644 69.1328 7.53806C69.3257 7.35982 69.4709 7.14371 69.5687 6.88973C69.6662 6.63578 69.7151 6.35256 69.7151 6.03988C69.7151 5.73221 69.6676 5.45635 69.5724 5.21205C69.4771 4.96785 69.3343 4.76037 69.1438 4.58935C68.9533 4.41844 68.7127 4.28786 68.4223 4.19742C68.1318 4.10706 67.7911 4.06186 67.4005 4.06186H65.833V8.09855H67.4005ZM67.4005 2.72119C68.089 2.72119 68.686 2.80181 69.1914 2.96301C69.6968 3.12413 70.1143 3.35017 70.444 3.64065C70.7735 3.93127 71.0189 4.28053 71.1801 4.68831C71.3412 5.09616 71.4218 5.54668 71.4218 6.03991C71.4218 6.543 71.3363 7.00331 71.1655 7.42091C70.9945 7.83847 70.7406 8.19747 70.4035 8.49781C70.0666 8.79825 69.648 9.03259 69.1474 9.20116C68.6469 9.36972 68.0646 9.45387 67.4005 9.45387H65.833V13.2708H64.1191V2.72123H67.4005V2.72119Z" fill="black"/>
<path d="M76.7902 8.69161C76.7902 8.42788 76.7524 8.18249 76.6767 7.95537C76.6009 7.72829 76.49 7.53045 76.3435 7.36199C76.197 7.1935 76.015 7.06166 75.7978 6.96638C75.5805 6.87111 75.3302 6.82349 75.0471 6.82349C74.4758 6.82349 74.0264 6.98721 73.6993 7.31434C73.3721 7.64164 73.1646 8.10072 73.0767 8.69161H76.7902ZM73.0328 9.65869C73.0523 10.0836 73.1181 10.4511 73.2306 10.7613C73.3428 11.0715 73.493 11.329 73.681 11.5342C73.8689 11.7392 74.0936 11.892 74.3549 11.9921C74.616 12.0922 74.9078 12.1423 75.2302 12.1423C75.5378 12.1423 75.8039 12.1069 76.0285 12.0361C76.2531 11.9652 76.4486 11.887 76.6146 11.8015C76.7804 11.7162 76.9222 11.638 77.0393 11.5671C77.1566 11.4963 77.2639 11.4609 77.3615 11.4609C77.4882 11.4609 77.5863 11.5098 77.6544 11.6074L78.101 12.1862C77.9157 12.4059 77.7061 12.5916 77.4713 12.7429C77.2372 12.8943 76.9882 13.0177 76.7245 13.1129C76.4608 13.2082 76.1897 13.2764 75.9114 13.318C75.6331 13.3595 75.362 13.3803 75.0985 13.3803C74.5808 13.3803 74.1009 13.2935 73.6591 13.1202C73.217 12.9469 72.8338 12.6917 72.5092 12.3547C72.1843 12.0177 71.9305 11.6001 71.7474 11.1019C71.5643 10.6037 71.4727 10.0299 71.4727 9.3803C71.4727 8.86267 71.5545 8.37911 71.7181 7.92978C71.8817 7.48041 72.116 7.08982 72.4213 6.75757C72.7264 6.42546 73.0975 6.16303 73.5346 5.96999C73.9716 5.77713 74.4659 5.68066 75.0178 5.68066C75.4767 5.68066 75.9016 5.75518 76.2924 5.9041C76.6829 6.0531 77.0199 6.27163 77.3031 6.55972C77.5864 6.84804 77.8075 7.2008 77.9658 7.61839C78.1243 8.03606 78.2039 8.51099 78.2039 9.04329C78.2039 9.28756 78.1768 9.45114 78.1236 9.53414C78.0694 9.61732 77.972 9.65865 77.8306 9.65865H73.0329L73.0328 9.65869Z" fill="black"/>
<path d="M80.7313 2.42822V8.71399H81.0682C81.1756 8.71399 81.2636 8.69926 81.3317 8.66998C81.4005 8.64067 81.4709 8.57969 81.5442 8.48683L83.6392 6.09125C83.7127 5.99356 83.793 5.92034 83.8804 5.87143C83.9685 5.82265 84.0806 5.79814 84.2181 5.79814H85.6463L83.1262 8.64067C82.9801 8.83114 82.8186 8.98263 82.6432 9.09487C82.7406 9.16343 82.8263 9.24026 82.8989 9.32571C82.9725 9.41117 83.0435 9.5077 83.1115 9.61507L85.8001 13.2708H84.3935C84.2669 13.2708 84.1579 13.2501 84.0675 13.2086C83.9771 13.1671 83.8981 13.0902 83.8295 12.9777L81.6686 10.0473C81.5953 9.93501 81.5227 9.86299 81.4492 9.83115C81.3758 9.79945 81.2661 9.78356 81.1192 9.78356H80.7313V13.2707H79.1562V2.42822H80.7313H80.7313Z" fill="black"/>
<path d="M90.282 10.003C89.7203 10.0227 89.2465 10.0679 88.8608 10.1386C88.4752 10.2095 88.1631 10.2998 87.9235 10.4098C87.6846 10.5196 87.5124 10.6503 87.4072 10.8016C87.3021 10.9531 87.2496 11.1192 87.2496 11.2998C87.2496 11.4757 87.2774 11.6258 87.3338 11.7504C87.3903 11.875 87.4683 11.9775 87.5679 12.058C87.6685 12.1387 87.7859 12.1972 87.9196 12.2339C88.0541 12.2705 88.2017 12.2889 88.3633 12.2889C88.7737 12.2889 89.1259 12.2119 89.4212 12.058C89.7172 11.9042 90.0039 11.6808 90.2821 11.3878V10.0031L90.282 10.003ZM86.1074 6.83816C86.9521 6.05196 87.9574 5.65869 89.1251 5.65869C89.5548 5.65869 89.9365 5.72826 90.2712 5.86747C90.6058 6.00672 90.8864 6.20337 91.1136 6.45721C91.3407 6.7113 91.5139 7.0129 91.6337 7.36201C91.7534 7.7113 91.8128 8.09828 91.8128 8.52317V13.2705H91.1096C90.9582 13.2705 90.8438 13.2474 90.7658 13.2009C90.687 13.1545 90.6212 13.0605 90.5679 12.9188L90.4141 12.3108C90.2233 12.4817 90.0355 12.6344 89.85 12.7687C89.6645 12.9031 89.4728 13.0166 89.275 13.1093C89.0773 13.2022 88.8647 13.2716 88.6375 13.3181C88.411 13.3645 88.1607 13.3877 87.8872 13.3877C87.5842 13.3877 87.3021 13.3461 87.041 13.2632C86.7797 13.1801 86.5541 13.0544 86.3632 12.8859C86.1731 12.7173 86.0231 12.5086 85.9126 12.2595C85.8028 12.0105 85.748 11.7174 85.748 11.3804C85.748 11.0924 85.8253 10.8115 85.9792 10.5379C86.1328 10.2645 86.3864 10.019 86.7403 9.8016C87.095 9.58437 87.561 9.40494 88.1398 9.26327C88.7187 9.12161 89.4328 9.04106 90.2821 9.02142V8.52324C90.2821 7.98604 90.1677 7.58552 89.9381 7.32179C89.7087 7.05802 89.3717 6.92614 88.9273 6.92614C88.6243 6.92614 88.3702 6.96405 88.1653 7.03968C87.9605 7.11546 87.7821 7.19724 87.6306 7.28518C87.4791 7.37302 87.3447 7.45494 87.228 7.53057C87.1104 7.60635 86.9861 7.64411 86.8538 7.64411C86.7465 7.64411 86.6553 7.6161 86.5796 7.55985C86.5038 7.50378 86.4411 7.43418 86.3925 7.35107L86.1074 6.83823V6.83816Z" fill="black"/>
<path d="M96.3684 12.1496C97.0422 12.1496 97.5437 11.9236 97.8738 11.4719C98.203 11.0202 98.3683 10.3743 98.3683 9.53417C98.3683 8.69418 98.203 8.04581 97.8738 7.58911C97.5437 7.13242 97.0422 6.90411 96.3684 6.90411C95.6845 6.90411 95.1767 7.13245 94.8451 7.58911C94.5129 8.04581 94.3467 8.69418 94.3467 9.53417C94.3467 10.3743 94.513 11.0202 94.8451 11.4719C95.1768 11.9237 95.6845 12.1496 96.3684 12.1496ZM96.3684 5.68066C96.9202 5.68066 97.4194 5.7711 97.866 5.95172C98.3135 6.13245 98.6937 6.38885 99.009 6.72089C99.3243 7.0531 99.567 7.45604 99.7377 7.92978C99.9086 8.40348 99.9943 8.93595 99.9943 9.52684C99.9943 10.1178 99.9086 10.6502 99.7377 11.1239C99.567 11.5977 99.3243 12.0018 99.009 12.3363C98.6937 12.6709 98.3135 12.9286 97.866 13.1093C97.4193 13.2899 96.9202 13.3803 96.3684 13.3803C95.8119 13.3803 95.3105 13.2899 94.863 13.1093C94.4163 12.9286 94.0346 12.6709 93.7169 12.3363C93.3993 12.0018 93.1551 11.5977 92.9842 11.1239C92.8135 10.6502 92.7285 10.1178 92.7285 9.52684C92.7285 8.93595 92.8135 8.40348 92.9842 7.92978C93.1551 7.45608 93.3993 7.0531 93.7169 6.72089C94.0346 6.38881 94.4163 6.13245 94.863 5.95172C95.3105 5.7711 95.8119 5.68066 96.3684 5.68066Z" fill="black"/>
</g>
</g>
<defs>
<clipPath id="clip0_870_65296">
<rect width="100" height="15.7681" fill="white" transform="translate(0 0.115723)"/>
</clipPath>
</defs>
</svg>
