<svg width="100" height="20" viewBox="0 0 100 20" fill="none" xmlns="http://www.w3.org/2000/svg">
<g clip-path="url(#clip0_870_90631)">
<path d="M57.8985 15.5306C56.9075 15.4605 56.1067 15.2903 55.4961 15.0301L55.0957 14.8599L55.1257 7.68276L55.1457 0.515625H56.8975H58.6492V2.96807C58.6492 4.31942 58.6693 5.42051 58.6893 5.42051C58.7093 5.42051 59.0196 5.35043 59.3699 5.26032C60.2708 5.03009 61.432 5.11017 62.2328 5.47054C62.8834 5.76084 63.7843 6.60167 64.0947 7.21227C65.0256 9.00407 64.8654 11.957 63.7643 13.5686C62.7033 15.1002 60.7713 15.7508 57.8984 15.5306H57.8985ZM60.461 13.0581C61.0216 12.4576 61.1918 11.7768 61.1918 10.1752C61.1918 8.58366 61.0216 7.89295 60.5111 7.45253C60.1407 7.12219 59.5902 6.99205 59.0496 7.10216L58.6993 7.18223L58.6693 10.2253C58.6592 11.907 58.6693 13.3384 58.6993 13.4185C58.7393 13.5186 58.9195 13.5386 59.41 13.5086C60.0406 13.4686 60.1007 13.4485 60.461 13.0581Z" fill="#5BBAEC"/>
<path d="M70.1105 15.5307C67.7581 15.3105 66.577 14.3996 66.3968 12.6578C66.2466 11.2164 67.0474 10.0453 68.619 9.44462C69.3697 9.15432 70.4208 8.92413 71.642 8.77398L72.1625 8.7039V8.30349C72.1625 8.09327 72.1125 7.823 72.0624 7.71289C71.7021 7.05225 70.0805 6.97218 68.3788 7.5327C68.0284 7.65282 67.7381 7.72289 67.7181 7.71289C67.7081 7.69289 67.5679 7.31248 67.4078 6.87206C67.2576 6.43161 67.1075 6.0112 67.0775 5.95113C66.9973 5.70087 68.669 5.26045 70.2106 5.13034C72.8532 4.90008 74.4148 5.51071 75.1255 7.04225L75.4158 7.67285V11.2765V14.8801L74.8152 15.0902C73.7842 15.4707 71.592 15.6708 70.1105 15.5307H70.1105ZM71.9423 13.6689C72.1625 13.6088 72.1625 13.5888 72.1625 11.9071V10.1954L71.7421 10.2655C70.9013 10.3956 70.5209 10.5458 70.2006 10.866C69.3597 11.7069 69.59 13.3285 70.591 13.6188C70.9714 13.7289 71.622 13.7489 71.9423 13.6689H71.9423Z" fill="#5BBAEC"/>
<path d="M77.9888 10.6058L78.0189 5.79098L78.5694 5.60079C79.5303 5.27046 80.7616 5.11031 82.3231 5.10031C84.6555 5.0903 85.8366 5.44064 86.6475 6.36158C87.3081 7.11233 87.3081 7.13233 87.3481 11.5067L87.3882 15.4307H85.5864H83.7846L83.7546 11.5768C83.7245 7.74297 83.7245 7.72293 83.5043 7.50271C83.3241 7.33256 83.1339 7.27248 82.6234 7.24244C82.273 7.22244 81.8627 7.23244 81.7225 7.26248L81.4722 7.32252L81.4923 11.3766L81.5223 15.4307H79.7405H77.9688L77.9888 10.6058L77.9888 10.6058Z" fill="#5BBAEC"/>
<path d="M89.8809 7.97306V0.515625H91.6327H93.3844V5.08017C93.3844 8.11321 93.4145 9.63471 93.4845 9.60471C93.5446 9.58467 94.1352 8.60369 94.8159 7.42249L96.0471 5.27035L97.8289 5.24032C99.0401 5.22028 99.5807 5.25032 99.5406 5.32039C99.5106 5.38047 99.4305 5.39047 99.3704 5.36043C99.3004 5.32039 99.2904 5.34039 99.3304 5.40047C99.3604 5.46054 98.7798 6.45152 98.0391 7.61268L96.6777 9.71482L98.2192 12.3474C99.0701 13.7989 99.8108 15.0802 99.8809 15.2103L100.001 15.4305H98.019L96.037 15.4205L94.8158 12.898C94.1451 11.5166 93.5545 10.3655 93.4945 10.3455C93.4144 10.3154 93.3843 11.0962 93.3843 12.868V15.4305H91.6326H89.8809V7.97306H89.8809Z" fill="#5BBAEC"/>
<path d="M45.066 11.1663C44.9959 10.9761 45.086 7.72282 45.1761 7.52263C45.2261 7.39248 45.026 7.37248 43.7147 7.37248C42.8738 7.37248 41.9028 7.41252 41.5625 7.46255C40.9419 7.55266 40.9419 7.55266 40.8718 7.28237C40.7817 6.90199 40.9019 6.22131 41.1321 5.84094C41.4324 5.35049 42.013 5.12023 42.9839 5.12023C43.8848 5.12023 45.1061 5.42056 45.3063 5.69079C45.3764 5.7809 45.4564 5.84094 45.4764 5.8109C45.4965 5.7909 45.6366 5.35045 45.7868 4.82993C45.9269 4.30944 46.1171 3.75887 46.1972 3.59869C46.3874 3.23831 46.8278 3.01812 47.4885 2.94805C47.969 2.89801 48.0491 2.91801 48.2893 3.15827C48.6297 3.49861 48.5896 3.84895 48.0791 5.04015C47.2783 6.89199 46.5776 9.14428 46.3874 10.4556C46.3574 10.7259 46.2372 11.0261 46.1271 11.1362C45.8869 11.3765 45.1562 11.4065 45.0661 11.1663H45.066Z" fill="#5BBAEC"/>
<path d="M50.6907 8.86387C49.9799 8.5135 49.6096 8.40338 48.9489 8.31334C48.4884 8.26327 48.018 8.17319 47.9179 8.11312C47.6376 7.96297 47.6877 7.44248 48.028 6.90192C48.4184 6.28132 48.8088 6.09109 49.5295 6.14117C50.5405 6.22124 52.4424 7.16218 52.6026 7.65263C52.7527 8.12316 52.1121 9.33432 51.7217 9.31432C51.6516 9.31432 51.1912 9.1141 50.6907 8.86383V8.86387Z" fill="#5BBAEC"/>
<path d="M1.57154 19.4545L0 19.4245L0.0200008 12.6276L0.0400376 5.83084L0.650639 5.63062C1.70169 5.29028 2.59259 5.17017 4.19417 5.17017C5.89586 5.17017 6.41642 5.28028 7.50747 5.8308C9.02897 6.59156 9.88984 8.22317 9.89984 10.3353C9.89984 12.9479 8.49841 14.8298 6.12608 15.3904C5.51548 15.5305 4.01394 15.5405 3.38334 15.4104C3.26319 15.3904 3.23316 15.7407 3.19312 17.4324L3.14308 19.4845L1.5715 19.4544L1.57154 19.4545ZM4.93492 13.8188C6.11608 13.5185 6.79676 12.2373 6.79676 10.2753C6.79676 7.82287 5.84582 6.60163 4.04402 6.75181C3.69364 6.77182 3.36334 6.83189 3.30327 6.86193C3.22319 6.91197 3.19315 7.96302 3.19315 10.3354V13.7388L3.42342 13.8289C3.73372 13.949 4.42439 13.949 4.93492 13.8188Z" fill="#59C134"/>
<path d="M20.7908 15.3804C20.4805 15.3003 20.02 15.1401 19.7698 15.02C19.2093 14.7597 18.4885 13.9889 18.3284 13.4685C18.2383 13.1982 18.1782 11.8568 18.1382 9.20418L18.0781 5.32031H19.6897H21.3113V9.03403C21.3113 12.6076 21.3213 12.7677 21.5115 13.0881C21.912 13.7287 23.1632 13.9189 23.8138 13.4485C24.4044 13.018 24.4144 12.9079 24.4144 8.95399V5.32035H25.966H27.5275L27.4975 9.25429L27.4675 13.1882L27.1671 13.7788C26.7968 14.5095 26.2462 14.95 25.3353 15.2403C24.7748 15.4304 24.3844 15.4705 23.013 15.4905C21.8318 15.5105 21.2012 15.4805 20.7908 15.3804L20.7908 15.3804Z" fill="#59C134"/>
<path d="M31.0706 15.3805C30.2698 15.2103 29.6191 14.94 29.6191 14.7799C29.6191 14.7098 29.7793 14.3194 29.9695 13.909L30.3099 13.1583L30.9905 13.3885C31.7913 13.6688 32.7923 13.6988 33.2228 13.4786C33.8234 13.1683 34.0136 12.2674 33.5832 11.7569C33.3229 11.4566 33.1327 11.3465 31.8214 10.7459C30.7603 10.2654 30.3099 9.87502 30.0196 9.20435C29.8394 8.78393 29.8094 8.55371 29.8394 8.01314C29.9295 6.79194 30.6402 5.89104 31.9015 5.41055C33.0426 4.9801 35.0547 5.07022 36.2658 5.61078L36.7163 5.81097L36.416 6.49164C36.2458 6.86205 36.0756 7.21236 36.0256 7.25239C35.9856 7.30247 35.8053 7.26243 35.6352 7.18232C34.3539 6.51168 32.9225 6.97213 32.9225 8.04318C32.9225 8.39356 32.9825 8.51367 33.3129 8.82397C33.5231 9.03419 34.0036 9.31446 34.3839 9.46461C36.3359 10.2454 37.0466 11.0261 37.0466 12.3775C37.0566 13.849 36.0156 14.9801 34.3039 15.3805C33.5331 15.5607 31.8915 15.5607 31.0706 15.3805L31.0706 15.3805Z" fill="#59C134"/>
<path d="M12.2032 8.03312V0.615723H13.8047H15.4064V7.97304V15.3304H15.1361C14.9759 15.3304 14.2552 15.3604 13.5345 15.4005L12.2031 15.4605V8.03312H12.2032Z" fill="#59C134"/>
<path d="M44.2846 15.3706C43.1234 15.1203 42.0224 14.5297 41.1915 13.6989C40.2606 12.768 39.7801 11.8971 39.8602 11.2565C39.8902 11.0062 39.9903 10.6859 40.1004 10.5358C40.3106 10.2455 41.1014 9.80504 41.3216 9.84508C41.4018 9.86512 41.5619 10.1855 41.682 10.5858C42.0624 11.8271 42.7831 12.6379 44.0544 13.2285C44.8552 13.6088 45.716 13.6989 46.8472 13.5288C48.0984 13.3486 48.4988 13.1183 50.651 11.3466C50.9713 11.0763 51.1414 11.1264 51.1414 11.4767C51.1414 11.797 49.7201 13.5688 48.9392 14.2194C47.5378 15.3806 46.0764 15.741 44.2846 15.3706L44.2846 15.3706Z" fill="#ED192D"/>
</g>
<defs>
<clipPath id="clip0_870_90631">
<rect width="100" height="18.969" fill="white" transform="translate(0 0.515625)"/>
</clipPath>
</defs>
</svg>
