<svg width="100" height="50" viewBox="0 0 100 50" fill="none" xmlns="http://www.w3.org/2000/svg">
<g clip-path="url(#clip0_870_84043)">
<path d="M100 50H0V0H100V50Z" fill="#EC2827"/>
<path d="M15.31 24.4071C15.1783 23.7479 15.0467 23.2209 14.783 22.6938L12.1472 18.2133C12.0155 17.9495 11.8838 17.5542 11.7517 17.1592V17.4225C11.0931 18.477 11.0931 19.7949 11.7517 20.9807L13.7289 24.5388C14.3875 25.5933 14.3875 27.0428 13.7289 28.0969L13.5972 28.3607C13.5972 27.9652 13.465 27.5698 13.2018 27.1744L11.3567 23.88L10.1705 21.9031C9.90668 21.5076 9.77511 21.1123 9.77511 20.7173L9.64341 20.9807C8.9843 22.0352 8.9843 23.353 9.64341 24.5388L11.7517 28.0969C12.2792 29.283 12.2792 30.6007 11.7517 31.6551L11.62 31.9187C11.4884 31.5233 11.3567 31.1279 11.2246 30.8644L8.58881 26.3836C8.19327 25.7249 8.06174 25.0658 8.06174 24.4071C5.29425 25.0658 3.44922 26.6474 3.44922 28.3607C3.44922 30.8644 7.13931 32.8411 11.7517 32.8411C16.2329 32.8411 19.9228 30.8644 19.9228 28.3607C19.9228 26.6474 18.0779 25.0658 15.31 24.4071H15.31ZM23.0858 32.0505C23.0858 31.3915 23.2174 30.9962 23.3496 30.4691C24.2721 30.8644 25.3262 30.9962 26.2486 30.9962C27.6982 30.9962 28.4891 30.6007 28.4891 29.6783C28.4891 28.756 27.8303 28.3607 26.3803 27.7015L25.59 27.4381C24.1399 26.7791 23.2175 25.9882 23.2175 24.2754C23.2175 22.5622 24.4037 21.376 26.9079 21.376C27.962 21.376 28.8844 21.5075 29.6753 21.7714C29.6753 22.4301 29.5432 22.9576 29.4116 23.3529C28.6207 23.0891 27.5666 22.9575 26.9079 22.9575C25.59 22.9575 24.9308 23.4846 24.9308 24.2754C24.9308 25.0658 25.4578 25.5932 26.6441 25.9882L27.4349 26.3836C29.4116 27.1744 30.2024 28.0968 30.2024 29.5465C30.2024 31.3915 28.8844 32.5775 26.2486 32.5775C24.9307 32.5775 23.8766 32.4457 23.0858 32.0505ZM38.5052 24.6704V32.314H36.9236V31.3915C36.3965 32.0505 35.7373 32.5775 34.6831 32.5775C32.7065 32.5775 31.2565 30.9962 31.2565 28.4922C31.2565 25.7249 32.7065 24.1435 35.6056 24.1435C36.7919 24.1435 37.7144 24.2755 38.5052 24.6704ZM36.7919 30.6007V25.7249C36.5281 25.7249 36.1328 25.5932 35.6056 25.5932C33.8923 25.5932 32.9699 26.7791 32.9699 28.4922C32.9699 30.0737 33.629 31.1279 35.2102 31.1279C35.8693 31.1279 36.3965 30.9961 36.7919 30.6007ZM47.3346 27.1744V32.314H45.6218V27.4381C45.6218 26.252 45.2263 25.5932 43.513 25.5932C43.1176 25.5932 42.5906 25.7249 42.0634 25.7249V32.314H40.3502V24.6703C41.536 24.407 42.7222 24.1434 43.5131 24.1434C46.4122 24.1434 47.3347 25.3296 47.3347 27.1744H47.3346ZM51.9462 31.1279C52.4755 31.1279 53.0004 30.9962 53.3962 30.8644C53.2672 31.2599 53.2672 31.7869 53.1337 32.314C52.7379 32.4457 52.2131 32.5775 51.6837 32.5775C50.1004 32.5775 49.0462 31.7869 49.0462 29.9419V21.7714C49.5755 21.6397 50.1004 21.5076 50.6296 21.5076V24.4071H53.3962C53.3962 24.9341 53.2672 25.4612 53.2672 25.8565H50.6296V29.6783C50.6296 30.7325 51.1589 31.1279 51.9462 31.1279V31.1279ZM61.1712 24.6704V32.314H59.5921L59.4586 31.3915C59.0628 32.0505 58.4045 32.5775 57.3504 32.5775C55.242 32.5775 53.9256 30.9962 53.9256 28.4922C53.9256 25.7249 55.3755 24.1435 58.2755 24.1435C59.3297 24.1435 60.2504 24.2755 61.1712 24.6704ZM59.4586 30.6007V25.7249C59.0628 25.7249 58.6669 25.5932 58.2755 25.5932C56.4297 25.5932 55.638 26.7791 55.638 28.4922C55.638 30.0737 56.2962 31.1279 57.7462 31.1279C58.4045 31.1279 59.0629 30.9961 59.4586 30.6007ZM69.8711 27.1744V32.314H68.1587V27.4381C68.1587 26.252 67.7628 25.5932 66.0504 25.5932C65.6545 25.5932 65.2587 25.7249 64.7293 25.7249V32.314H63.0169V24.6703C64.0711 24.407 65.2587 24.1434 66.1795 24.1434C68.9504 24.1434 69.8711 25.3296 69.8711 27.1744ZM78.5667 21.5076V32.314H76.9878L76.8543 31.3915C76.4584 32.0504 75.8002 32.5775 74.617 32.5775C72.6376 32.5775 71.3211 30.9962 71.3211 28.4922C71.3211 25.7249 72.7711 24.1434 75.5378 24.1434C76.067 24.1434 76.4584 24.2754 76.8543 24.2754V21.7714C77.3835 21.5076 78.0419 21.5076 78.5667 21.5076ZM76.8543 30.6007V25.7249C76.4584 25.7249 75.9336 25.5932 75.5378 25.5932C73.8253 25.5932 73.0335 26.6474 73.0335 28.4922C73.0335 30.0737 73.6918 31.1279 75.1419 31.1279C75.8002 31.1279 76.3295 30.8643 76.8543 30.6007ZM87.1334 29.0194H81.7337C81.8626 30.469 82.6543 31.1279 84.2378 31.1279C85.1585 31.1279 86.0791 30.8644 87.0043 30.4691C86.8709 30.9962 86.742 31.5233 86.742 32.0505C85.9502 32.4458 85.025 32.5775 84.2378 32.5775C81.3378 32.5775 79.8878 30.9962 79.8878 28.3607C79.8878 25.9883 81.071 24.1435 83.7085 24.1435C86.2126 24.1435 87.2668 25.7249 87.2668 27.7015C87.2668 28.2284 87.1334 28.624 87.1334 29.0194V29.0194ZM81.6002 27.5698H85.5545C85.5545 26.3836 84.7627 25.5933 83.5751 25.5933C82.392 25.5933 81.7337 26.252 81.6002 27.5698ZM93.0668 24.2755C93.0668 24.8025 93.0668 25.3296 92.9333 25.7249C92.5374 25.5933 92.1416 25.5933 91.6168 25.5933C91.2209 25.5933 90.825 25.7249 90.4292 25.7249V32.314H88.7168V24.6704C89.375 24.4071 90.6916 24.1435 91.6168 24.1435C92.1416 24.1435 92.6709 24.1435 93.0668 24.2755H93.0668Z" fill="white"/>
<path d="M96.5497 22.7446C96.5497 23.4422 95.9842 24.0078 95.2865 24.0078C94.589 24.0078 94.0234 23.4422 94.0234 22.7446C94.0234 22.047 94.5889 21.4814 95.2865 21.4814C95.9842 21.4814 96.5497 22.047 96.5497 22.7446Z" stroke="white" stroke-width="2.66695" stroke-miterlimit="10"/>
<path d="M94.8067 22.0718H95.4914C95.6003 22.0718 95.6901 22.1073 95.7605 22.1782C95.8309 22.2486 95.8664 22.3468 95.8664 22.4716C95.8664 22.5963 95.8309 22.6945 95.7605 22.7649C95.7221 22.8027 95.6677 22.827 95.5973 22.8382L95.9155 23.4656H95.7114L95.4181 22.8625H94.9941V23.4656H94.8066V22.0718L94.8067 22.0718ZM94.9942 22.2267V22.7075H95.4749C95.5293 22.7075 95.5754 22.6885 95.6138 22.6507C95.6517 22.6123 95.6706 22.5525 95.6706 22.4715C95.6706 22.3952 95.6488 22.3355 95.6056 22.2923C95.5624 22.2486 95.5104 22.2267 95.4506 22.2267H94.9942V22.2267Z" fill="white"/>
<path d="M94.8066 23.4658H94.994V22.8627H95.4178L95.7112 23.4658H95.9149L95.5971 22.8383C95.6677 22.8274 95.7219 22.803 95.7601 22.7649C95.8307 22.6944 95.8659 22.5966 95.8659 22.4715C95.8659 22.3467 95.8307 22.2488 95.7601 22.1782C95.6894 22.1076 95.5997 22.0723 95.4912 22.0723H94.8067V23.4657L94.8066 23.4658ZM95.4503 22.2271C95.5101 22.2271 95.5617 22.2488 95.6053 22.2923C95.6486 22.3358 95.6704 22.3956 95.6704 22.4715C95.6704 22.5531 95.6513 22.6129 95.6134 22.6508C95.5753 22.6889 95.529 22.7079 95.4748 22.7079H94.994V22.2271H95.4503V22.2271Z" stroke="white" stroke-width="1.33348" stroke-miterlimit="10"/>
</g>
<defs>
<clipPath id="clip0_870_84043">
<rect width="100" height="50.0002" fill="white"/>
</clipPath>
</defs>
</svg>
