<svg width="100" height="20" viewBox="0 0 100 20" fill="none" xmlns="http://www.w3.org/2000/svg">
<g clip-path="url(#clip0_237_183476)">
<path fill-rule="evenodd" clip-rule="evenodd" d="M9.23886 12.897L0.835938 10.0091L9.20407 7.12109L9.23886 12.897Z" fill="#00408A"/>
<path fill-rule="evenodd" clip-rule="evenodd" d="M17.3805 4.30268L26.6185 1.10156V18.8991L17.3457 15.6979L24.7396 13.1579V6.82529L17.3805 4.30268Z" fill="#00408A"/>
<path fill-rule="evenodd" clip-rule="evenodd" d="M7.20294 12.5317V19.2819L17.0151 15.872L26.8272 12.5317L34.2906 10.0787L26.8272 7.66046L17.0325 4.25058L7.18555 0.875488V7.66046L7.20294 12.5317Z" fill="#00408A"/>
<path fill-rule="evenodd" clip-rule="evenodd" d="M9.23886 12.897L0.835938 10.0091L9.20407 7.12109L9.23886 12.897Z" fill="#00408A"/>
<path fill-rule="evenodd" clip-rule="evenodd" d="M8.94224 7.50395C8.94224 8.11285 8.95964 11.9055 8.95964 12.5318C8.36813 12.323 2.81837 10.4093 1.65275 10.0092C2.81837 9.60903 8.35073 7.71271 8.94224 7.50395ZM0 10.0092L9.49896 13.2799L9.46416 6.75586L0 10.0092Z" fill="#00408A"/>
<path fill-rule="evenodd" clip-rule="evenodd" d="M17.3805 4.30268L26.6185 1.10156V18.8991L17.3457 15.6979L24.7396 13.1579V6.82529L17.3805 4.30268Z" fill="#00408A"/>
<path fill-rule="evenodd" clip-rule="evenodd" d="M26.3395 1.46684C26.3395 2.18013 26.3395 17.8204 26.3395 18.5162C25.7305 18.3075 19.3631 16.098 18.1627 15.6979C19.3631 15.2803 24.9999 13.3492 24.9999 13.3492V6.63385C24.9999 6.63385 19.3979 4.70274 18.1975 4.30261C19.3979 3.88507 25.7305 1.693 26.3395 1.46684ZM16.5447 4.30261C16.5447 4.30261 24.1126 6.89481 24.4605 7.01659C24.4605 7.36454 24.4605 12.6185 24.4605 12.9665C24.1126 13.0883 16.5273 15.6979 16.5273 15.6979L26.8788 19.2817V0.71875L16.5447 4.30261Z" fill="#00408A"/>
<path fill-rule="evenodd" clip-rule="evenodd" d="M7.20294 12.5317V19.2819L17.0151 15.872L26.8272 12.5317L34.2906 10.0787L26.8272 7.66046L17.0325 4.25058L7.18555 0.875488V7.66046L7.20294 12.5317Z" fill="#00408A"/>
<path fill-rule="evenodd" clip-rule="evenodd" d="M17.3808 4.30268L24.7399 6.82529V13.1579L17.346 15.6979L26.6014 18.8991V1.10156L17.3808 4.30268ZM0.835938 10.009L9.23886 12.897L9.22146 7.12105L0.835938 10.009ZM21.33 7.93872H21.3822C22.0955 7.83434 22.2347 9.20873 22.2347 9.66106C22.2347 10.3396 22.1651 11.279 21.4344 11.5052C21.4344 11.5052 21.417 11.5052 21.3822 11.5226C20.5471 11.6966 20.5471 10.009 20.5471 9.50449C20.5471 8.86078 20.6863 8.1127 21.33 7.93872ZM21.3648 11.6966C21.4344 11.6792 21.4866 11.6792 21.5388 11.6444C22.3913 11.2964 23.0002 10.3048 23.0176 9.33051V9.17394C23.0176 8.91298 22.9654 8.68681 22.8784 8.46064C22.6348 7.83434 21.9737 7.60817 21.3648 7.72996C21.2952 7.74735 21.2256 7.78215 21.1387 7.79955C20.408 8.0953 19.9034 8.87818 19.7817 9.69586C19.6773 10.3048 19.7295 11.1572 20.2862 11.5574C20.6167 11.7835 20.9995 11.7835 21.3648 11.6966ZM17.6418 13.0362C17.8332 13.0188 18.1289 12.81 18.2507 12.6882C18.4421 12.462 18.6682 12.0271 18.79 11.5226C18.5464 11.453 18.8596 11.54 18.5986 11.4704C18.5464 11.6792 18.4247 11.9053 18.3725 11.9923C18.3203 12.0619 18.1985 12.2533 18.1289 12.2707L18.0245 12.2881C17.9549 12.2707 17.9549 11.8531 17.9723 11.7313V8.53023C17.2938 8.82599 17.1721 8.86078 16.4588 9.19133C16.4936 9.34791 16.4762 9.36531 16.4762 9.33051C16.4762 9.36531 16.4936 9.4001 16.511 9.46969L16.6327 9.45229C16.7371 9.4349 16.8763 9.4001 16.8937 9.4001C17.0329 9.3827 17.0329 9.57408 17.0329 9.83504V12.1489C17.0329 12.4272 16.9807 12.9144 17.2069 12.984C17.2242 12.984 17.4156 13.0709 17.6418 13.0362ZM16.4936 9.33051C16.4588 9.20873 16.4762 9.31312 16.4936 9.33051V9.33051ZM17.6592 7.93872C18.0071 7.93872 18.2681 7.64297 18.2681 7.27762C18.2681 6.92968 18.0071 6.61653 17.6592 6.61653C17.2938 6.61653 17.0329 6.91228 17.0329 7.27762C17.0329 7.62557 17.2938 7.93872 17.6592 7.93872ZM10.996 7.05146C11.2917 6.99927 11.4831 6.99927 11.6223 7.05146C11.6919 7.06886 11.8137 7.20803 11.8137 7.32982C11.8137 7.39941 11.8659 7.60817 11.8659 7.78215V13.4015C11.8659 13.5581 11.9702 14.341 11.0308 14.8977V15.2456L13.9709 14.2888V13.8538C13.5012 13.8538 13.2403 13.6451 13.2403 13.3667V10.2352C13.5534 10.1656 13.7448 10.1134 13.9187 10.1134C14.0579 10.1134 14.2319 10.183 14.3363 10.27C14.4059 10.3222 14.5103 10.4439 14.5277 10.5483C14.5451 10.6179 14.632 10.8267 14.6494 10.9833L14.7538 11.4704H14.9626V8.0779H14.6668C14.6494 8.32147 14.6146 8.56503 14.6146 8.59982C14.5972 8.7738 14.4929 8.98257 14.4407 9.10435C14.3711 9.26092 14.1971 9.4349 14.0579 9.50449C13.7622 9.66106 13.5012 9.71325 13.2055 9.80024V6.99927C13.2055 6.70351 13.2055 6.49474 13.5012 6.32077L13.6056 6.26858C14.0927 5.97282 14.632 6.1468 14.893 6.28597C15.1888 6.40776 15.4497 7.05146 15.5541 7.55598L15.6063 7.76475H15.8325V5.05076L10.9786 6.73831V7.05146H10.996Z" fill="white"/>
<path fill-rule="evenodd" clip-rule="evenodd" d="M41.4922 5.31152H48.6425V7.27742H44.1366V9.03456H47.0941V10.9657H44.1366V14.6887H41.4922V5.31152Z" fill="#00408A"/>
<path fill-rule="evenodd" clip-rule="evenodd" d="M49.3398 8.0777H51.6363V14.6887H49.3398V8.0777ZM49.3398 5.31152H51.6363V7.20784H49.3398V5.31152Z" fill="#00408A"/>
<path fill-rule="evenodd" clip-rule="evenodd" d="M55.1852 12.8448C55.3418 13.158 55.6202 13.332 55.9855 13.332C56.3509 13.332 56.6292 13.1754 56.7858 12.8448C56.9424 12.5317 57.0294 12.0446 57.0294 11.3835C57.0294 10.7224 56.9424 10.2352 56.7858 9.92208C56.6292 9.60893 56.3509 9.45235 55.9855 9.45235C55.6202 9.45235 55.3418 9.60893 55.1852 9.92208C55.0287 10.2352 54.9417 10.7224 54.9417 11.3835C54.9417 12.0446 55.0287 12.5317 55.1852 12.8448ZM52.7844 10.0265C52.9584 9.59153 53.2019 9.22619 53.4977 8.91304C53.8108 8.59988 54.1762 8.35632 54.5937 8.18235C55.0113 8.00837 55.481 7.92139 55.9855 7.92139C56.49 7.92139 56.9424 8.00837 57.3773 8.18235C57.8122 8.35632 58.1776 8.59988 58.4733 8.89564C58.7865 9.20879 59.0127 9.57414 59.1866 9.99167C59.3606 10.4266 59.4476 10.8789 59.4476 11.4009C59.4476 11.9054 59.3606 12.3751 59.1866 12.7926C59.0127 13.2102 58.7691 13.5755 58.4733 13.8887C58.1602 14.2018 57.7948 14.428 57.3773 14.602C56.9598 14.7759 56.49 14.8629 55.9855 14.8629C55.481 14.8629 55.0113 14.7759 54.5937 14.602C54.1762 14.428 53.8108 14.1844 53.4977 13.8887C53.1845 13.5755 52.9584 13.2102 52.7844 12.7926C52.6104 12.3751 52.5234 11.9054 52.5234 11.4009C52.5234 10.9137 52.6104 10.444 52.7844 10.0265Z" fill="#00408A"/>
<path fill-rule="evenodd" clip-rule="evenodd" d="M67.8673 13.5579C68.2848 13.5579 68.5806 13.3839 68.7198 13.0533C68.859 12.7228 68.9459 12.1661 68.9459 11.4006C68.9459 10.7047 68.8764 10.2002 68.7546 9.88703C68.6154 9.57388 68.3718 9.3999 68.0065 9.3999C67.8499 9.3999 67.6933 9.4347 67.5368 9.52168C67.3802 9.59127 67.2236 9.71306 67.0496 9.88703V12.4792C67.0496 13.1925 67.3106 13.5579 67.8673 13.5579ZM64.7358 14.1668C64.7532 14.0102 64.7532 13.8536 64.7532 13.7318V5.31152H67.0496V8.82579C67.328 8.53003 67.589 8.32127 67.8673 8.18209C68.1457 8.04291 68.4588 7.97332 68.7894 7.97332C69.5896 7.97332 70.2334 8.26907 70.6857 8.84319C71.138 9.4173 71.3816 10.235 71.3816 11.3136C71.3816 12.427 71.138 13.2795 70.6335 13.8884C70.129 14.4973 69.4505 14.8105 68.5806 14.8105C67.7107 14.8105 67.0322 14.4625 66.5277 13.784L66.145 14.6713H64.6836C64.701 14.4973 64.7184 14.3234 64.7358 14.1668Z" fill="#00408A"/>
<path fill-rule="evenodd" clip-rule="evenodd" d="M75.8347 11.679C74.7561 11.7486 74.2167 12.0791 74.2167 12.688C74.2167 13.1751 74.4429 13.4187 74.9126 13.4187C75.0692 13.4187 75.2258 13.3839 75.3824 13.3317C75.5215 13.2795 75.6781 13.1925 75.8347 13.0708V11.679ZM78.1311 14.3582C78.1485 14.4625 78.1659 14.5843 78.2007 14.6887H75.9217C75.8695 14.5495 75.8347 14.3582 75.8347 14.1146C75.2258 14.5843 74.5473 14.8279 73.7818 14.8279C73.2251 14.8279 72.7902 14.6539 72.4596 14.306C72.1291 13.958 71.9551 13.5057 71.9551 12.949C71.9551 12.1835 72.2856 11.5746 72.9293 11.157C73.5904 10.7395 74.5473 10.5307 75.8347 10.5133V9.93923C75.8347 9.76525 75.7651 9.60868 75.6259 9.50429C75.4867 9.39991 75.2954 9.34772 75.0692 9.34772C74.843 9.34772 74.6517 9.41731 74.4951 9.55648C74.3385 9.69566 74.2341 9.88703 74.1819 10.148L72.2508 9.73046C72.4422 9.13895 72.7728 8.70401 73.2425 8.40826C73.7122 8.1299 74.3385 7.99072 75.1388 7.99072C76.1478 7.99072 76.8959 8.1473 77.383 8.47785C77.8702 8.791 78.1137 9.29552 78.1137 9.97402V14.0102C78.1137 14.132 78.1137 14.2364 78.1311 14.3582Z" fill="#00408A"/>
<path fill-rule="evenodd" clip-rule="evenodd" d="M79.2617 8.07771H81.5408V9.03456C81.9583 8.68662 82.341 8.42566 82.7064 8.25168C83.0717 8.07771 83.4371 7.99072 83.8372 7.99072C84.4635 7.99072 84.8985 8.1647 85.1594 8.53004C85.4204 8.89539 85.5422 9.4347 85.5422 10.1828V14.6887H83.2457V10.7569C83.2457 10.3568 83.2109 10.061 83.1413 9.86964C83.0717 9.67827 82.8978 9.57388 82.6194 9.57388C82.4628 9.57388 82.3063 9.62607 82.1323 9.71306C81.9583 9.80005 81.7669 9.93923 81.5582 10.1306V14.6887H79.2791V8.07771H79.2617Z" fill="#00408A"/>
<path fill-rule="evenodd" clip-rule="evenodd" d="M86.709 5.31152H88.9532V10.5133L91.2149 8.0777H93.5114L91.4585 10.2176L93.4766 14.6887H90.9365L89.7709 11.9573L88.9532 12.7924V14.6887H86.709V5.31152Z" fill="#00408A"/>
<path fill-rule="evenodd" clip-rule="evenodd" d="M97.6333 11.679C96.5547 11.7486 96.0154 12.0791 96.0154 12.688C96.0154 13.1751 96.2416 13.4187 96.7113 13.4187C96.8679 13.4187 97.0244 13.3839 97.181 13.3317C97.3202 13.2795 97.4768 13.1925 97.6333 13.0708V11.679ZM99.9298 14.3582C99.9472 14.4625 99.9646 14.5843 99.9994 14.6887H97.7203C97.6681 14.5495 97.6333 14.3582 97.6333 14.1146C97.0244 14.5843 96.3459 14.8279 95.5805 14.8279C95.0237 14.8279 94.5888 14.6539 94.2409 14.306C93.9103 13.958 93.7363 13.5057 93.7363 12.949C93.7363 12.1835 94.0669 11.5746 94.7106 11.157C95.3717 10.7395 96.3285 10.5307 97.6159 10.5133V9.93923C97.6159 9.76525 97.5464 9.60868 97.4072 9.50429C97.268 9.39991 97.0766 9.34772 96.8505 9.34772C96.6243 9.34772 96.4329 9.41731 96.2763 9.55648C96.1198 9.69566 96.0154 9.88703 95.9632 10.148L94.0321 9.73046C94.2235 9.13895 94.554 8.70401 95.0237 8.40826C95.4935 8.1299 96.1198 7.99072 96.92 7.99072C97.9291 7.99072 98.6772 8.1473 99.1643 8.47785C99.6514 8.791 99.895 9.29552 99.895 9.97402V14.0102C99.9124 14.132 99.9124 14.2364 99.9298 14.3582Z" fill="#00408A"/>
<path fill-rule="evenodd" clip-rule="evenodd" d="M41.4922 5.31152H48.6425V7.27742H44.1366V9.03456H47.0941V10.9657H44.1366V14.6887H41.4922V5.31152Z" fill="#00408A"/>
<path fill-rule="evenodd" clip-rule="evenodd" d="M49.3398 8.0777H51.6363V14.6887H49.3398V8.0777ZM49.3398 5.31152H51.6363V7.20784H49.3398V5.31152Z" fill="#00408A"/>
<path fill-rule="evenodd" clip-rule="evenodd" d="M55.1852 12.8448C55.3418 13.158 55.6202 13.332 55.9855 13.332C56.3509 13.332 56.6292 13.1754 56.7858 12.8448C56.9424 12.5317 57.0294 12.0446 57.0294 11.3835C57.0294 10.7224 56.9424 10.2352 56.7858 9.92208C56.6292 9.60893 56.3509 9.45235 55.9855 9.45235C55.6202 9.45235 55.3418 9.60893 55.1852 9.92208C55.0287 10.2352 54.9417 10.7224 54.9417 11.3835C54.9417 12.0446 55.0287 12.5317 55.1852 12.8448ZM52.7844 10.0265C52.9584 9.59153 53.2019 9.22619 53.4977 8.91304C53.8108 8.59988 54.1762 8.35632 54.5937 8.18235C55.0113 8.00837 55.481 7.92139 55.9855 7.92139C56.49 7.92139 56.9424 8.00837 57.3773 8.18235C57.8122 8.35632 58.1776 8.59988 58.4733 8.89564C58.7865 9.20879 59.0127 9.57414 59.1866 9.99167C59.3606 10.4266 59.4476 10.8789 59.4476 11.4009C59.4476 11.9054 59.3606 12.3751 59.1866 12.7926C59.0127 13.2102 58.7691 13.5755 58.4733 13.8887C58.1602 14.2018 57.7948 14.428 57.3773 14.602C56.9598 14.7759 56.49 14.8629 55.9855 14.8629C55.481 14.8629 55.0113 14.7759 54.5937 14.602C54.1762 14.428 53.8108 14.1844 53.4977 13.8887C53.1845 13.5755 52.9584 13.2102 52.7844 12.7926C52.6104 12.3751 52.5234 11.9054 52.5234 11.4009C52.5234 10.9137 52.6104 10.444 52.7844 10.0265Z" fill="#00408A"/>
<path fill-rule="evenodd" clip-rule="evenodd" d="M67.8673 13.5579C68.2848 13.5579 68.5806 13.3839 68.7198 13.0533C68.859 12.7228 68.9459 12.1661 68.9459 11.4006C68.9459 10.7047 68.8764 10.2002 68.7546 9.88703C68.6154 9.57388 68.3718 9.3999 68.0065 9.3999C67.8499 9.3999 67.6933 9.4347 67.5368 9.52168C67.3802 9.59127 67.2236 9.71306 67.0496 9.88703V12.4792C67.0496 13.1925 67.3106 13.5579 67.8673 13.5579ZM64.7358 14.1668C64.7532 14.0102 64.7532 13.8536 64.7532 13.7318V5.31152H67.0496V8.82579C67.328 8.53003 67.589 8.32127 67.8673 8.18209C68.1457 8.04291 68.4588 7.97332 68.7894 7.97332C69.5896 7.97332 70.2334 8.26907 70.6857 8.84319C71.138 9.4173 71.3816 10.235 71.3816 11.3136C71.3816 12.427 71.138 13.2795 70.6335 13.8884C70.129 14.4973 69.4505 14.8105 68.5806 14.8105C67.7107 14.8105 67.0322 14.4625 66.5277 13.784L66.145 14.6713H64.6836C64.701 14.4973 64.7184 14.3234 64.7358 14.1668Z" fill="#00408A"/>
<path fill-rule="evenodd" clip-rule="evenodd" d="M75.8347 11.679C74.7561 11.7486 74.2167 12.0791 74.2167 12.688C74.2167 13.1751 74.4429 13.4187 74.9126 13.4187C75.0692 13.4187 75.2258 13.3839 75.3824 13.3317C75.5215 13.2795 75.6781 13.1925 75.8347 13.0708V11.679ZM78.1311 14.3582C78.1485 14.4625 78.1659 14.5843 78.2007 14.6887H75.9217C75.8695 14.5495 75.8347 14.3582 75.8347 14.1146C75.2258 14.5843 74.5473 14.8279 73.7818 14.8279C73.2251 14.8279 72.7902 14.6539 72.4596 14.306C72.1291 13.958 71.9551 13.5057 71.9551 12.949C71.9551 12.1835 72.2856 11.5746 72.9293 11.157C73.5904 10.7395 74.5473 10.5307 75.8347 10.5133V9.93923C75.8347 9.76525 75.7651 9.60868 75.6259 9.50429C75.4867 9.39991 75.2954 9.34772 75.0692 9.34772C74.843 9.34772 74.6517 9.41731 74.4951 9.55648C74.3385 9.69566 74.2341 9.88703 74.1819 10.148L72.2508 9.73046C72.4422 9.13895 72.7728 8.70401 73.2425 8.40826C73.7122 8.1299 74.3385 7.99072 75.1388 7.99072C76.1478 7.99072 76.8959 8.1473 77.383 8.47785C77.8702 8.791 78.1137 9.29552 78.1137 9.97402V14.0102C78.1137 14.132 78.1137 14.2364 78.1311 14.3582Z" fill="#00408A"/>
<path fill-rule="evenodd" clip-rule="evenodd" d="M79.2617 8.07771H81.5408V9.03456C81.9583 8.68662 82.341 8.42566 82.7064 8.25168C83.0717 8.07771 83.4371 7.99072 83.8372 7.99072C84.4635 7.99072 84.8985 8.1647 85.1594 8.53004C85.4204 8.89539 85.5422 9.4347 85.5422 10.1828V14.6887H83.2457V10.7569C83.2457 10.3568 83.2109 10.061 83.1413 9.86964C83.0717 9.67827 82.8978 9.57388 82.6194 9.57388C82.4628 9.57388 82.3063 9.62607 82.1323 9.71306C81.9583 9.80005 81.7669 9.93923 81.5582 10.1306V14.6887H79.2791V8.07771H79.2617Z" fill="#00408A"/>
<path fill-rule="evenodd" clip-rule="evenodd" d="M86.709 5.31152H88.9532V10.5133L91.2149 8.0777H93.5114L91.4585 10.2176L93.4766 14.6887H90.9365L89.7709 11.9573L88.9532 12.7924V14.6887H86.709V5.31152Z" fill="#00408A"/>
<path fill-rule="evenodd" clip-rule="evenodd" d="M97.6333 11.679C96.5547 11.7486 96.0154 12.0791 96.0154 12.688C96.0154 13.1751 96.2416 13.4187 96.7113 13.4187C96.8679 13.4187 97.0244 13.3839 97.181 13.3317C97.3202 13.2795 97.4768 13.1925 97.6333 13.0708V11.679ZM99.9298 14.3582C99.9472 14.4625 99.9646 14.5843 99.9994 14.6887H97.7203C97.6681 14.5495 97.6333 14.3582 97.6333 14.1146C97.0244 14.5843 96.3459 14.8279 95.5805 14.8279C95.0237 14.8279 94.5888 14.6539 94.2409 14.306C93.9103 13.958 93.7363 13.5057 93.7363 12.949C93.7363 12.1835 94.0669 11.5746 94.7106 11.157C95.3717 10.7395 96.3285 10.5307 97.6159 10.5133V9.93923C97.6159 9.76525 97.5464 9.60868 97.4072 9.50429C97.268 9.39991 97.0766 9.34772 96.8505 9.34772C96.6243 9.34772 96.4329 9.41731 96.2763 9.55648C96.1198 9.69566 96.0154 9.88703 95.9632 10.148L94.0321 9.73046C94.2235 9.13895 94.554 8.70401 95.0237 8.40826C95.4935 8.1299 96.1198 7.99072 96.92 7.99072C97.9291 7.99072 98.6772 8.1473 99.1643 8.47785C99.6514 8.791 99.895 9.29552 99.895 9.97402V14.0102C99.9124 14.132 99.9124 14.2364 99.9298 14.3582Z" fill="#00408A"/>
</g>
<defs>
<clipPath id="clip0_237_183476">
<rect width="100" height="18.563" fill="white" transform="translate(0 0.71875)"/>
</clipPath>
</defs>
</svg>
