<svg width="52" height="56" viewBox="0 0 52 56" fill="none" xmlns="http://www.w3.org/2000/svg">
<g clip-path="url(#clip0_876_100413)">
<path d="M8.36357 54.561H7.98299L7.86271 52.8459L6.82147 54.7505L6.24482 52.8459L5.70937 54.561H5.30078L6.23329 51.6794L6.91043 53.8789L8.14115 51.6201L8.36357 54.561Z" fill="#2B2A29"/>
<path d="M10.742 53.5674C10.7025 53.3137 10.5641 53.1885 10.3235 53.1885C10.083 53.1885 9.94788 53.3087 9.88363 53.5674H10.742ZM9.85891 53.8788C9.87045 54.1325 10.0434 54.289 10.3103 54.289C10.4883 54.289 10.6283 54.2215 10.7222 54.088L11.0089 54.2495C10.8145 54.5114 10.6217 54.6136 10.3021 54.6136C9.79795 54.6136 9.4668 54.2857 9.4668 53.7865C9.4668 53.2626 9.84244 52.8672 10.3416 52.8672C10.8408 52.8672 11.1325 53.2066 11.1325 53.742L11.1292 53.8788H9.85891Z" fill="#2B2A29"/>
<path d="M12.6949 53.0717C12.8366 52.9267 12.9618 52.874 13.1463 52.874C13.3522 52.874 13.4494 52.9383 13.5335 53.1409C13.7114 52.9515 13.8531 52.879 14.0623 52.879C14.382 52.879 14.55 53.0371 14.55 53.3271C14.55 53.3996 14.55 53.4161 14.517 53.6583L14.4083 54.5611H14.0211L14.1381 53.6121C14.1513 53.5281 14.1546 53.4638 14.1579 53.4144C14.1661 53.2777 14.0854 53.2002 13.9404 53.2002C13.8399 53.2002 13.7394 53.2447 13.6784 53.309C13.6224 53.3732 13.5895 53.4704 13.5697 53.6434L13.4577 54.5595H13.0705L13.1908 53.5874C13.199 53.5149 13.2073 53.4342 13.2073 53.4062C13.2073 53.2727 13.1265 53.2002 12.9865 53.2002C12.8843 53.2002 12.7805 53.248 12.7196 53.3254C12.6669 53.3946 12.6306 53.4984 12.6108 53.6451L12.4972 54.5611H12.1133L12.3159 52.9185H12.7146L12.6949 53.0717Z" fill="#2B2A29"/>
<path d="M16.0627 53.7901C16.0627 54.0768 16.2522 54.2794 16.5224 54.2794C16.8206 54.2794 17.0595 54.0208 17.0595 53.7028C17.0595 53.4046 16.865 53.2019 16.5866 53.2019C16.2851 53.2019 16.0627 53.4524 16.0627 53.7901ZM16.1599 53.0685C16.3691 52.9235 16.4861 52.879 16.6772 52.879C17.1237 52.879 17.4466 53.2217 17.4466 53.6896C17.4466 54.202 17.071 54.6007 16.5916 54.6007C16.3494 54.6007 16.1846 54.5282 16.0017 54.3388L15.9737 54.5595H15.5898L15.954 51.6187H16.3362L16.1599 53.0668V53.0685Z" fill="#2B2A29"/>
<path d="M19.6971 53.5674C19.6575 53.3137 19.5191 53.1885 19.2786 53.1885C19.0381 53.1885 18.903 53.3087 18.8387 53.5674H19.6971ZM18.814 53.8788C18.8255 54.1325 19.0002 54.289 19.2654 54.289C19.4434 54.289 19.5834 54.2215 19.6773 54.088L19.964 54.2495C19.7696 54.5114 19.5768 54.6136 19.2572 54.6136C18.753 54.6136 18.4219 54.2857 18.4219 53.7865C18.4219 53.2626 18.7975 52.8672 19.2967 52.8672C19.7959 52.8672 20.0875 53.2066 20.0875 53.742L20.0842 53.8788H18.814Z" fill="#2B2A29"/>
<path d="M21.6365 53.06C21.7847 52.9183 21.8786 52.8755 22.0319 52.8755C22.1653 52.8755 22.2378 52.9035 22.3465 53.004L22.1011 53.3187C22.0286 53.2544 21.9643 53.2264 21.8902 53.2264C21.8144 53.2264 21.732 53.2627 21.6842 53.3236C21.6167 53.4076 21.5804 53.5131 21.5508 53.7421L21.4503 54.5609H21.0664L21.2691 52.9183H21.6513L21.6348 53.06H21.6365Z" fill="#2B2A29"/>
<path d="M24.8794 53.7455C24.8794 54.0684 25.0886 54.2908 25.3917 54.2908C25.6949 54.2908 25.9124 54.0454 25.9124 53.706C25.9124 53.3946 25.7147 53.1886 25.4165 53.1886C25.1183 53.1886 24.8794 53.4226 24.8794 53.7455ZM26.2995 53.7257C26.2995 54.2266 25.9074 54.6138 25.4 54.6138C24.8925 54.6138 24.4922 54.2546 24.4922 53.7538C24.4922 53.2529 24.8876 52.8657 25.4165 52.8657C25.9453 52.8657 26.2995 53.2167 26.2995 53.7257Z" fill="#2B2A29"/>
<path d="M27.6871 54.561H27.3032L27.4614 53.2776H27.2109L27.2554 52.9184H27.5058L27.5948 52.1836C27.6228 51.9662 27.6723 51.8377 27.7645 51.7437C27.8485 51.663 27.9787 51.6152 28.1072 51.6152C28.2126 51.6152 28.2967 51.6383 28.4334 51.7042L28.3939 52.0419C28.3131 51.9777 28.2637 51.953 28.1929 51.953C28.0561 51.953 27.9985 52.0337 27.9672 52.2907L27.8914 52.9168H28.2423L28.1978 53.276H27.8469L27.6887 54.5594L27.6871 54.561Z" fill="#2B2A29"/>
<path d="M31.0571 53.1046H31.2416C31.4805 53.1046 31.6008 53.0684 31.6931 52.9679C31.7688 52.8838 31.8183 52.7586 31.8183 52.6334C31.8183 52.472 31.7408 52.3385 31.6123 52.2825C31.5514 52.2578 31.4459 52.2413 31.329 52.2413H31.1593L31.0555 53.1046H31.0571ZM32.2186 54.561H31.7952L31.1576 53.4555H31.0126L30.8792 54.561H30.4805L30.81 51.8706H31.3388C31.6486 51.8706 31.8232 51.9151 31.96 52.0321C32.1214 52.1705 32.2186 52.3962 32.2186 52.6367C32.2186 52.8773 32.1346 53.0766 31.9797 53.2183C31.871 53.3237 31.759 53.3765 31.5448 53.4292L32.2186 54.5627V54.561Z" fill="#2B2A29"/>
<path d="M33.8368 53.0471H33.9505C34.1433 53.0471 34.2652 53.0076 34.341 52.917C34.4184 52.833 34.4629 52.6995 34.4629 52.571C34.4629 52.3403 34.341 52.2398 34.0708 52.2398H33.934L33.8368 53.0471ZM33.6951 54.1889H33.962C34.1845 54.1889 34.2932 54.1691 34.3739 54.1164C34.4827 54.0439 34.5469 53.9022 34.5469 53.7375C34.5469 53.4706 34.4019 53.3668 34.0395 53.3668H33.7973L33.6968 54.1889H33.6951ZM34.079 51.8708C34.3772 51.8708 34.5304 51.9186 34.6606 52.0471C34.7858 52.169 34.8633 52.3585 34.8633 52.5512C34.8633 52.8297 34.7413 53.0274 34.4711 53.1723C34.6194 53.2086 34.6886 53.2415 34.7693 53.3091C34.883 53.4096 34.9473 53.576 34.9473 53.7655C34.9473 54.0604 34.8023 54.3306 34.5716 54.4591C34.4299 54.5349 34.2932 54.5596 33.962 54.5596H33.252L33.5831 51.8691H34.079V51.8708Z" fill="#2B2A29"/>
<path d="M36.3753 54.5607H35.9766L36.3061 51.8687H36.7064L36.3753 54.5607Z" fill="#2B2A29"/>
<path d="M41.6069 53.3105C41.5739 53.6417 41.513 53.8476 41.3844 54.0602C41.1637 54.4226 40.8193 54.6121 40.3844 54.6121C39.6381 54.6121 39.0977 54.047 39.0977 53.2694C39.0977 52.4308 39.6776 51.8179 40.4734 51.8179C40.9248 51.8179 41.279 51.9909 41.5789 52.3583L41.3169 52.6252C41.0961 52.3336 40.821 52.1935 40.4651 52.1935C39.8967 52.1935 39.498 52.6334 39.498 53.2628C39.498 53.8345 39.8737 54.2398 40.4108 54.2398C40.793 54.2398 41.0764 54.0173 41.1521 53.6549H40.4865L40.531 53.3122H41.6085L41.6069 53.3105Z" fill="#2B2A29"/>
<path d="M43.1033 53.06C43.2515 52.9183 43.3454 52.8755 43.4987 52.8755C43.6321 52.8755 43.7046 52.9035 43.8133 53.004L43.5662 53.3187C43.4937 53.2544 43.4295 53.2264 43.357 53.2264C43.2795 53.2264 43.1988 53.2627 43.151 53.3236C43.0835 53.4076 43.0472 53.5131 43.0176 53.7421L42.9171 54.5609H42.5332L42.7359 52.9183H43.1181L43.1033 53.06Z" fill="#2B2A29"/>
<path d="M44.9047 53.7455C44.9047 54.0684 45.114 54.2908 45.4171 54.2908C45.7203 54.2908 45.9378 54.0454 45.9378 53.706C45.9378 53.3946 45.7401 53.1886 45.4418 53.1886C45.1436 53.1886 44.9047 53.4226 44.9047 53.7455ZM46.3249 53.7257C46.3249 54.2266 45.9328 54.6138 45.4254 54.6138C44.9179 54.6138 44.5176 54.2546 44.5176 53.7538C44.5176 53.2529 44.913 52.8657 45.4418 52.8657C45.9707 52.8657 46.3249 53.2167 46.3249 53.7257Z" fill="#2B2A29"/>
<path d="M48.8024 53.874C48.7661 54.1722 48.7184 54.2942 48.5964 54.4062C48.4679 54.5314 48.2702 54.6006 48.0445 54.6006C47.6409 54.6006 47.3789 54.3749 47.3789 54.024C47.3789 53.9762 47.3871 53.8938 47.3954 53.8065L47.5041 52.9185H47.8913L47.7793 53.8378C47.7677 53.907 47.7628 53.9828 47.7628 54.0157C47.7628 54.1854 47.8715 54.2777 48.0692 54.2777C48.2867 54.2777 48.3806 54.1739 48.4169 53.8905L48.5388 52.9185H48.921L48.804 53.874H48.8024Z" fill="#2B2A29"/>
<path d="M50.3783 53.7935C50.3783 54.0769 50.5727 54.2779 50.8511 54.2779C51.1296 54.2779 51.3684 54.0241 51.3684 53.6979C51.3684 53.408 51.1823 53.202 50.9253 53.202C50.6155 53.202 50.3799 53.4557 50.3799 53.7951L50.3783 53.7935ZM50.4672 53.0916C50.6485 52.9335 50.7852 52.8774 50.9912 52.8774C51.4311 52.8774 51.754 53.2201 51.754 53.6847C51.754 54.2021 51.375 54.6008 50.8907 54.6008C50.6485 54.6008 50.5035 54.5332 50.314 54.3273L50.169 55.5003H49.7852L50.1048 52.9186H50.487L50.4672 53.0916Z" fill="#2B2A29"/>
<path d="M0.244141 44.0991V45.0283H1.82084V49.3482H2.92634V45.0283H4.49645V44.0991H0.244141Z" fill="#2B2A29"/>
<path d="M6.07443 44.1006H7.31503L9.17182 49.3497H7.98229L7.6363 48.2705H5.70373L5.34786 49.3497H4.20117L6.07608 44.1006H6.07443ZM6.00194 47.3644H7.34634L6.68238 45.2983L6.00194 47.3644Z" fill="#2B2A29"/>
<path d="M13.1156 44.0991V45.0283H11.5438V49.3482H10.44V45.0283H8.86328V44.0991H13.1156Z" fill="#2B2A29"/>
<path d="M17.113 44.2342C17.3058 44.3182 17.4705 44.4402 17.604 44.6016C17.7144 44.7351 17.8033 44.8817 17.8676 45.0448C17.9318 45.2063 17.9648 45.3891 17.9648 45.5967C17.9648 45.8455 17.9022 46.091 17.777 46.3315C17.6501 46.5721 17.4425 46.7418 17.1542 46.8423C17.3964 46.9395 17.5677 47.0779 17.6682 47.2575C17.7687 47.437 17.8198 47.7105 17.8198 48.0779V48.4305C17.8198 48.6694 17.8297 48.8325 17.8478 48.9182C17.8775 49.0549 17.945 49.1538 18.0505 49.218V49.3498H16.8395C16.8066 49.2329 16.7819 49.139 16.767 49.0681C16.739 48.9215 16.7242 48.7699 16.7209 48.615L16.7143 48.1274C16.7094 47.7929 16.6517 47.5689 16.5413 47.4568C16.4309 47.3464 16.2217 47.2904 15.9169 47.2904H14.8443V49.3482H13.7734V44.0991H16.2843C16.6435 44.1074 16.9186 44.1518 17.113 44.2342ZM14.846 45.0119V46.4222H16.0273C16.2612 46.4222 16.4375 46.3941 16.5545 46.3365C16.7621 46.2376 16.8659 46.0399 16.8659 45.745C16.8659 45.427 16.7654 45.2145 16.5644 45.1041C16.4523 45.0432 16.2826 45.0119 16.0569 45.0119H14.846Z" fill="#2B2A29"/>
<path d="M20.5471 44.1006H21.7877L23.6445 49.3497H22.4549L22.109 48.2705H20.1764L19.8205 49.3497H18.6738L20.5487 44.1006H20.5471ZM20.4746 47.3644H21.819L21.155 45.2983L20.4746 47.3644Z" fill="#2B2A29"/>
<path d="M30.2519 44.659C30.4134 44.8814 30.4941 45.1483 30.4941 45.4597C30.4941 45.7711 30.4117 46.038 30.2503 46.2324C30.1597 46.3411 30.0262 46.4416 29.8499 46.5306C30.1185 46.6278 30.3195 46.781 30.4562 46.9936C30.593 47.2061 30.6605 47.4615 30.6605 47.763C30.6605 48.0645 30.5831 48.3528 30.4266 48.5999C30.3277 48.763 30.2041 48.9014 30.0559 49.0118C29.8878 49.1403 29.6901 49.2276 29.4627 49.2754C29.2354 49.3232 28.9882 49.3462 28.7213 49.3462H26.3555V44.0972H28.891C29.5319 44.1071 29.985 44.2932 30.2519 44.6557V44.659ZM27.4033 45.0116V46.1681H28.6785C28.9059 46.1681 29.092 46.1253 29.2337 46.038C29.3754 45.9507 29.4463 45.7974 29.4463 45.5767C29.4463 45.3328 29.3524 45.1697 29.1645 45.0923C29.0031 45.0379 28.7955 45.0099 28.5434 45.0099H27.4017L27.4033 45.0116ZM27.4033 47.0364V48.4368H28.6785C28.9059 48.4368 29.0838 48.4055 29.209 48.3429C29.4397 48.2292 29.5534 48.0117 29.5534 47.6872C29.5534 47.4137 29.443 47.2275 29.2189 47.1254C29.0937 47.0677 28.919 47.038 28.6933 47.0347H27.4017L27.4033 47.0364Z" fill="#2B2A29"/>
<path d="M32.9436 44.1006H34.1842L36.041 49.3497H34.8514L34.5054 48.2705H32.5729L32.217 49.3497H31.0703L32.9452 44.1006H32.9436ZM32.8711 47.3644H34.2155L33.5515 45.2983L32.8711 47.3644Z" fill="#2B2A29"/>
<path d="M36.6914 44.0991H37.8414L39.9239 47.76V44.0991H40.947V49.3482H39.8498L37.7129 45.6247V49.3482H36.6914V44.0991Z" fill="#2B2A29"/>
<path d="M41.8633 44.0991H42.9424V46.2623L44.9706 44.0991H46.3874L44.2341 46.2591L46.4978 49.3482H45.0892L43.4713 47.0581L42.9424 47.5936V49.3482H41.8633V44.0991Z" fill="#2B2A29"/>
<path d="M49.2661 45.3002L49.93 47.3662H48.5856L49.2661 45.3002ZM48.6581 44.0991L46.7832 49.3482H47.9299L48.2858 48.2691H50.2183L50.5643 49.3482H51.7538L49.8971 44.0991H48.6565H48.6581Z" fill="#2B2A29"/>
<path d="M41.1719 28.7456L40.8193 30.3849H38.0482L36.4336 38.0081H34.4845L36.1008 30.3849H33.3164L33.6673 28.7456H41.1719Z" fill="#2B2A29"/>
<path d="M48.6586 29.7325C48.8596 30.1262 48.9041 30.5991 48.7904 31.1461C48.6685 31.7112 48.4279 32.1659 48.0688 32.5102C47.8711 32.703 47.6009 32.8776 47.2582 33.0375C47.6948 33.2105 47.993 33.4806 48.1544 33.8546C48.3159 34.227 48.339 34.6801 48.2269 35.2122C48.1083 35.7609 47.8661 36.2535 47.4971 36.6884C47.2582 36.9767 46.9863 37.2206 46.6799 37.4166C46.3355 37.644 45.9533 37.7989 45.5332 37.8812C45.1131 37.9653 44.6649 38.0081 44.1921 38.0081H39.9941L41.9613 28.7456H46.4608C47.5926 28.7621 48.3258 29.0916 48.6602 29.7325H48.6586ZM42.7011 33.9304L42.1804 36.4001H44.4557C44.8626 36.4001 45.1888 36.3457 45.436 36.237C45.8923 36.036 46.1823 35.6505 46.3042 35.0804C46.4047 34.5977 46.2746 34.2682 45.9138 34.0869C45.7128 33.9864 45.4113 33.9337 45.0093 33.9304H42.7027H42.7011ZM43.4622 30.3536L43.0289 32.3966H45.3042C45.7111 32.3966 46.0571 32.3191 46.3438 32.1676C46.6321 32.0143 46.8166 31.7441 46.9007 31.3537C46.988 30.922 46.8809 30.637 46.5794 30.4986C46.3075 30.403 45.9467 30.3536 45.4986 30.3536H43.4622Z" fill="#2B2A29"/>
<path d="M44.8251 9.11816V9.32905V9.53994H51.0083V41.0245H0.665912V9.53994H25.2786V9.11816H0.244141V41.4463H51.4334V9.11816H44.8251Z" fill="#2B2A29"/>
<path d="M8.90979 38.0082L23.5334 12.5586H16.5709L1.94727 38.0082H8.90979Z" fill="#2B2A29"/>
<path d="M32.2984 0.5L10.7402 38.008H17.7176L39.2592 0.5H32.2984Z" fill="#2B2A29"/>
<path d="M26.5091 38.0064L44.6502 6.43945H37.6893L19.5449 38.0064H26.5091Z" fill="#2B2A29"/>
<path d="M0.346288 54.4523V50.7881H3.97089L3.96759 54.4539H0.346288V54.4523ZM0.244141 50.6777V54.5577H4.07963V50.6777H0.244141Z" fill="#2B2A29"/>
<path d="M2.15504 53.0866L3.30997 54.2514L3.7614 53.795L2.60647 52.6269L2.83053 52.4012V51.9465L2.99199 51.785V52.1606L3.14851 52.3172L3.71197 51.7455L3.86519 51.8987C3.86519 51.7998 3.83718 51.4621 3.56863 51.1985C3.26878 50.9036 2.96728 51.0749 2.86348 51.1804L2.31979 51.7306L2.45489 51.8674L2.15504 52.1705L1.85519 51.8674L1.99028 51.7306L1.44659 51.1804C1.3428 51.0766 1.04295 50.9036 0.743093 51.1985C0.474543 51.4621 0.453125 51.7998 0.453125 51.8987L0.598109 51.7455L1.16157 52.3172L1.31809 52.159V51.785L1.47955 51.9465V52.3995L1.70526 52.6269L0.560215 53.7835L1.01164 54.2382L2.15504 53.0866Z" fill="#2B2A29"/>
</g>
<defs>
<clipPath id="clip0_876_100413">
<rect width="51.5105" height="55" fill="white" transform="translate(0.244141 0.5)"/>
</clipPath>
</defs>
</svg>
