<svg width="100" height="20" viewBox="0 0 100 20" fill="none" xmlns="http://www.w3.org/2000/svg">
<g clip-path="url(#clip0_876_100523)">
<path d="M33.5208 1.94024V14.104C33.5208 16.7849 31.1724 18.8226 28.07 18.8226C24.9676 18.8226 22.6191 16.7836 22.6191 14.104V4.79811C22.6191 3.22526 23.8825 1.94024 25.4554 1.94024H25.6553V14.0824C25.6553 15.5228 26.9403 16.4092 28.1808 16.4092C29.4212 16.4092 30.6617 15.589 30.6617 14.0824V4.64273C30.6617 3.15776 31.8805 1.93896 33.3654 1.93896H33.5195L33.5208 1.94024Z" fill="black"/>
<path d="M39.5027 6.23828C43.6456 6.23828 44.3104 8.56508 44.3104 9.9609V18.6466H44.1779C42.6496 18.6466 41.3417 17.3616 41.3417 15.832V10.0055C41.3417 9.1853 41.0093 8.20975 39.3919 8.20975C38.6392 8.20975 38.196 8.2989 37.7082 8.47593V18.6466H34.7383V7.1476C36.0017 6.5936 38.0406 6.23828 39.5027 6.23828Z" fill="black"/>
<path d="M48.5541 6.23821V15.8549C48.5541 17.3831 47.3124 18.6465 45.7624 18.6465H45.6287V6.23821H48.5541ZM47.092 1.93994C47.9784 1.93994 48.6865 2.60474 48.6865 3.42364C48.6865 4.24254 47.9772 4.86404 47.092 4.86404C46.2069 4.86404 45.4746 4.22216 45.4746 3.42364C45.4746 2.62512 46.2056 1.93994 47.092 1.93994Z" fill="black"/>
<path d="M56.9887 1.6958C58.3846 1.6958 59.6912 2.00655 60.7776 2.67007V5.59544C60.1128 4.7307 59.1602 4.13212 57.6306 4.13212C54.6174 4.13212 52.7567 7.10207 52.7567 10.1815C52.7567 13.084 54.7065 16.2526 57.6306 16.2526C58.9156 16.2526 60.0899 15.8769 60.7776 14.9459V17.8267C59.9128 18.4699 58.5616 18.8239 56.9658 18.8239C52.181 18.8239 49.6543 14.4378 49.6543 10.2057C49.6543 5.97369 52.181 1.69707 56.9887 1.69707V1.6958Z" fill="black"/>
<path d="M66.0245 6.23828C66.5123 6.23828 67.1325 6.28286 67.6865 6.37073V8.7421C66.6664 8.01108 65.3151 8.25433 64.7165 8.56508V15.8549C64.7165 17.3832 63.4532 18.6466 61.9249 18.6466H61.7695V7.1909C62.9221 6.63691 64.0963 6.23828 66.0245 6.23828Z" fill="black"/>
<path d="M75.3952 10.8909C75.306 8.43165 73.7778 8.16548 72.9576 8.16548H72.8468C71.1848 8.20878 70.4092 9.38427 70.4092 11.5773L75.3952 10.8909ZM77.9652 12.5745L70.5862 13.5934C70.8295 15.6094 71.8496 16.6729 73.7103 16.6729C75.7709 16.6729 76.8126 16.0081 77.5653 15.477V17.9362C76.8126 18.3349 75.4156 18.8226 73.4224 18.8226C69.8106 18.8226 67.6621 16.385 67.6621 12.4854C67.6621 8.58575 69.6565 6.2373 72.9347 6.2373C76.2128 6.2373 77.9639 8.38708 77.9639 12.1084V12.5733L77.9652 12.5745Z" fill="black"/>
<path d="M85.7025 8.63123C85.3917 8.54208 85.0606 8.49878 84.6836 8.49878C82.246 8.49878 81.7366 10.8472 81.7366 12.797C81.7366 15.5225 82.6459 16.8737 84.4849 16.8737C84.7944 16.8737 85.4821 16.8075 85.7037 16.7629V8.63123H85.7025ZM88.6062 1.93994V18.4899C87.8968 18.6452 85.57 18.8223 84.5957 18.8223H84.3958C80.784 18.7777 78.8125 16.6954 78.8125 12.9511C78.8125 9.20688 80.8731 6.72471 84.0634 6.72471C84.6836 6.72471 85.216 6.79093 85.6808 6.90301V4.75324C85.6808 3.20204 86.9213 1.93994 88.4725 1.93994H88.6062Z" fill="black"/>
<path d="M92.9135 6.23821V15.8549C92.9135 17.3831 91.673 18.6465 90.1218 18.6465H89.9881V6.23821H92.9135ZM91.4514 1.93994C92.3378 1.93994 93.0472 2.60474 93.0472 3.42364C93.0472 4.24254 92.3378 4.86404 91.4514 4.86404C90.565 4.86404 89.834 4.22216 89.834 3.42364C89.834 2.62512 90.565 1.93994 91.4514 1.93994Z" fill="black"/>
<path d="M98.094 1.94024V6.23851H99.9993V8.60988H98.094V15.1904C98.094 15.9876 98.3602 16.2309 99.2237 16.2309C99.4453 16.2309 99.7777 16.1646 100.001 16.0755V18.5347C99.8668 18.5793 99.2912 18.8226 98.5156 18.8226C96.3442 18.8226 95.1483 17.7591 95.1483 15.8322V8.6086H93.8633V6.23723H95.1483V4.73061C95.1483 3.20234 96.3887 1.93896 97.9183 1.93896H98.0953L98.094 1.94024Z" fill="black"/>
<path fill-rule="evenodd" clip-rule="evenodd" d="M10.0535 5.33033L10.0713 5.30486C10.2203 5.08708 10.1579 4.92662 10.0586 4.84001L8.4972 3.8772C8.38895 3.80461 8.31763 3.68107 8.31763 3.53971C8.31763 3.31811 8.45008 3.15 8.75191 3.06594C9.71472 2.80104 13.0998 2.66222 14.2499 2.66222C14.6485 2.66222 15.3362 2.66095 15.9539 2.67751L15.9272 2.65204C14.2397 1.21164 12.0504 0.341797 9.65741 0.341797C4.32374 0.341797 0 4.66554 0 9.99921C0 12.3438 0.835456 14.4936 2.22491 16.1658C3.43734 14.4223 6.43276 10.1202 7.08864 9.24271C7.84513 8.23023 9.56954 5.97858 9.86118 5.59651L9.87519 5.57868L10.0509 5.32906L10.0535 5.33033Z" fill="#E2001A"/>
<path fill-rule="evenodd" clip-rule="evenodd" d="M3.76774 17.656C5.3979 18.9118 7.43941 19.6581 9.65668 19.6581C14.9904 19.6581 19.3141 15.3343 19.3141 10.0007C19.3141 8.38578 18.9193 6.86515 18.2188 5.52791C18.5512 5.20824 18.9346 4.70137 18.6824 4.06586C18.6047 3.8761 18.229 3.44691 18.1322 3.34375L18.145 3.38068C18.3806 4.09006 17.9157 4.53453 17.5808 4.83764C17.3974 5.0032 14.9458 7.31599 12.0701 9.83127C9.5357 12.0473 6.69948 14.3027 5.05786 15.533C2.74762 17.2625 2.29805 17.5134 2.29805 17.5134C2.23692 17.5465 2.13503 17.5745 2.05989 17.5745C1.91853 17.5745 1.79627 17.5108 1.71858 17.4102L1.71603 17.4064L1.71094 17.4803C1.95801 17.8814 2.36937 18.3463 2.6088 18.3463C2.68394 18.3463 2.78582 18.3183 2.84695 18.2852C2.84695 18.2852 3.0278 18.1846 3.76774 17.656Z" fill="#E2001A"/>
<path fill-rule="evenodd" clip-rule="evenodd" d="M10.0669 5.30472C10.2159 5.08821 10.1535 4.92647 10.0542 4.83987L8.49281 3.87833C8.38455 3.80574 8.31323 3.6822 8.31323 3.54084C8.31323 3.31924 8.44568 3.15113 8.74752 3.06707C9.71033 2.80217 13.0955 2.66463 14.2455 2.66463C14.7893 2.66463 15.8642 2.6608 16.5723 2.70793C17.3657 2.76014 17.9694 2.92443 18.1184 3.30905C18.4113 4.06172 17.9261 4.5253 17.5809 4.83859C17.3975 5.00543 14.9459 7.31694 12.0702 9.83223C9.53458 12.0482 6.69963 14.3037 5.05674 15.534C2.7465 17.2622 2.29693 17.5143 2.29693 17.5143C2.2358 17.5475 2.13392 17.5755 2.05878 17.5755C1.81935 17.5755 1.63086 17.3921 1.63086 17.1527C1.63086 17.061 1.65888 16.9769 1.706 16.9069C1.706 16.9069 6.25643 10.3531 7.08425 9.24511C7.91206 8.13712 9.90009 5.54415 9.90009 5.54415C9.90009 5.54415 9.92301 5.51485 10.0657 5.30599L10.0669 5.30472Z" fill="white"/>
</g>
<defs>
<clipPath id="clip0_876_100523">
<rect width="100" height="19.3161" fill="white" transform="translate(0 0.341797)"/>
</clipPath>
</defs>
</svg>
