<svg width="100" height="16" viewBox="0 0 100 16" fill="none" xmlns="http://www.w3.org/2000/svg">
<g clip-path="url(#clip0_876_100493)">
<path fill-rule="evenodd" clip-rule="evenodd" d="M13.1739 5.43071L13.1688 5.42561C13.0771 5.37212 12.9421 5.34028 12.8542 5.38104C12.2722 5.325 11.7144 5.33137 11.1285 5.33519H11.1107L11.0891 5.33901C10.7923 5.34028 10.4892 5.34538 10.1823 5.34028L7.71667 5.29061C7.1423 5.27406 6.50552 5.28043 5.88657 5.30208C5.42681 5.3059 4.97724 5.31991 4.52386 5.33137C4.05009 5.34538 2.91917 5.34665 2.24418 5.3492C1.88376 5.3492 1.694 5.35175 1.66853 5.35175C1.58957 5.35557 1.49278 5.46891 1.49023 5.55806C1.49023 5.60773 1.51953 5.66632 1.60485 5.67523C1.66853 5.67905 2.07735 5.6816 2.82238 5.67905L3.58015 5.67523C3.78264 5.67523 3.87561 5.67905 3.92019 5.67523H3.92528C4.48183 5.62047 5.04092 5.62047 5.58473 5.62429H5.5911H5.62549C5.97699 5.62811 6.33995 5.62938 6.70547 5.61537C6.78061 5.63193 6.86211 5.61537 6.93725 5.60009H6.94872C6.98438 5.59118 7.02004 5.58353 7.05442 5.57971C7.1372 5.60773 7.23272 5.60518 7.33206 5.60264C7.42885 5.60009 7.52819 5.59882 7.61734 5.62047H7.63262C7.71031 5.59245 7.78545 5.60646 7.85931 5.62047C7.86313 5.62047 7.87459 5.62429 7.87459 5.62429C7.91153 5.63193 7.94464 5.6383 7.97775 5.6383C8.68458 5.62047 9.46273 5.64466 10.4357 5.71853C10.4319 5.71853 10.8929 5.7682 10.8929 5.7682H10.8993C11.3081 5.72745 11.7297 5.75929 12.1385 5.78858H12.1487C12.4556 5.81023 12.746 5.8357 13.0338 5.82678L13.0363 5.83315L13.0516 5.82678V5.82042L13.2044 5.69943H13.2083L13.2134 5.69306C13.263 5.61155 13.2465 5.49438 13.1777 5.43198L13.1739 5.43071Z" fill="#EABD00"/>
<path fill-rule="evenodd" clip-rule="evenodd" d="M9.09394 10.665L9.10285 10.6586V10.6268L9.09521 9.66779V9.66397C9.07738 9.51878 9.07356 9.36086 9.06974 9.1902C9.06592 9.00171 9.06337 8.80176 9.0379 8.62856C9.03281 8.38276 8.98186 8.11531 8.93474 7.85551L8.9029 7.6823L8.89908 7.66702L8.8889 7.65174C8.84941 7.61481 8.8354 7.56514 8.82267 7.51037C8.81121 7.46325 8.7972 7.41231 8.76791 7.36773C8.70423 7.25057 8.60234 7.13595 8.51192 7.03534L8.50683 7.03024C8.48518 7.00095 8.4597 6.98439 8.43423 6.96911C8.42277 6.95892 8.40876 6.95001 8.39475 6.93982L8.37438 6.92072L8.36291 6.92454L8.34508 6.9118C8.26612 6.84685 8.18844 6.82265 8.10183 6.79209H8.09929C8.07509 6.75388 8.02542 6.74878 7.99231 6.74878V6.72331L7.94773 6.71695L7.73505 6.68638L7.70448 6.68256L7.68411 6.70803C7.67646 6.71822 7.67519 6.71949 7.62934 6.70421C7.61024 6.69784 7.58859 6.68893 7.56312 6.68638H7.53765L7.52746 6.69657C7.52236 6.69275 7.51218 6.68638 7.50199 6.68256L7.41284 6.65454L7.4052 6.69657C7.36444 6.69657 7.33388 6.70294 7.30331 6.71822H7.03204L7.04733 6.76916L7.04478 6.77171C6.98874 6.75643 6.94417 6.79336 6.91997 6.81246C6.91488 6.81628 6.90978 6.82138 6.90596 6.82265C6.86139 6.83029 6.83464 6.85194 6.81554 6.86468C6.80025 6.87487 6.79771 6.87741 6.78242 6.87869L6.76077 6.88123L6.74677 6.89779C6.72639 6.92072 6.66653 6.94873 6.63342 6.96402L6.56083 6.99331L6.57738 7.00986C6.56465 7.01496 6.55191 7.0226 6.543 7.03151H6.47168V7.08628H6.46403L6.42455 7.06972L6.39781 7.10283C6.35324 7.16396 6.29847 7.22 6.23989 7.27986C6.17366 7.355 6.10489 7.42887 6.04885 7.51037L6.03357 7.5333L6.04249 7.5575C6.03102 7.56641 5.99664 7.58679 5.99154 7.62627C5.9648 7.65429 5.95843 7.69377 5.95334 7.71924C5.95334 7.72561 5.95079 7.73707 5.94952 7.74216C5.9215 7.77527 5.91386 7.81093 5.91004 7.83768C5.90622 7.85678 5.90494 7.86824 5.8973 7.87843L5.86037 7.92301L5.87438 7.9332C5.86546 7.95994 5.86546 7.98669 5.86546 8.00452C5.86546 8.01216 5.86546 8.0198 5.86546 8.02489L5.84381 8.04017L5.84763 8.07711C5.85782 8.14206 5.84763 8.20701 5.84126 8.27069C5.83107 8.33437 5.82471 8.40187 5.8298 8.47319C5.80433 8.51267 5.8107 8.55851 5.81579 8.59035C5.81579 8.59927 5.81834 8.612 5.81579 8.61837L5.78395 8.64766L5.80688 8.68714C5.82471 8.72026 5.8107 8.76738 5.79669 8.8145C5.78395 8.86035 5.76612 8.91511 5.78395 8.96351C5.78013 8.96605 5.77631 8.97115 5.77122 8.97624C5.76612 8.98516 5.76103 8.99917 5.76103 9.017C5.76103 9.05138 5.75848 9.06157 5.75594 9.06539L5.73174 9.11888L5.72792 9.13926L5.77249 9.17492C5.76612 9.20421 5.76994 9.2335 5.77631 9.25643C5.78268 9.29208 5.78268 9.30737 5.77122 9.32138L5.7432 9.37359L5.77122 9.40671V9.41435C5.77122 9.43855 5.76612 9.48057 5.79796 9.50986C5.79796 9.51751 5.79796 9.52133 5.80178 9.52642L5.74829 9.5417L5.78395 9.6143C5.78395 9.6143 5.78013 9.62703 5.77886 9.63213C5.77376 9.6525 5.76358 9.69453 5.78523 9.73274C5.7674 9.77604 5.78013 9.81424 5.78523 9.84354C5.78777 9.8499 5.79159 9.86009 5.79159 9.86901C5.7432 9.92122 5.76612 9.99 5.78013 10.0269C5.75593 10.0639 5.76103 10.1021 5.76612 10.1275L5.70117 10.1505L5.7674 10.2205C5.76485 10.2345 5.76485 10.2536 5.77631 10.2727C5.78395 10.2855 5.79287 10.2918 5.80433 10.2982L5.78395 10.3058C5.78395 10.3058 5.78395 10.3071 5.78395 10.3122L5.80942 10.3733V10.381C5.80433 10.4179 5.8107 10.4536 5.82853 10.4803C5.82343 10.488 5.81834 10.4981 5.81707 10.5109L5.79032 10.5364L5.81579 10.5746C5.83872 10.6026 5.82853 10.6408 5.81325 10.6994C5.80178 10.7503 5.78268 10.8191 5.81325 10.8751L5.77631 10.9108L5.82216 10.9452C5.82216 10.9452 5.82216 10.9528 5.81961 10.9528C5.80815 10.9757 5.78395 11.0178 5.81325 11.0623L5.8107 11.056C5.82089 11.0789 5.81579 11.1133 5.8107 11.1489C5.8056 11.205 5.79796 11.2725 5.82471 11.3349L5.81707 11.4011L5.81961 11.3909C5.8107 11.4164 5.81707 11.4393 5.82471 11.4533L5.80433 11.4648L5.81961 11.5094C5.83617 11.5578 5.83617 11.6151 5.83617 11.6762C5.83617 11.7934 5.83617 11.9233 5.9406 12.0239L5.96353 12.0443L5.99282 12.0353C6.06923 12.0124 6.07433 11.936 6.07687 11.8927C6.07687 11.8851 6.07687 11.8774 6.07687 11.8698V11.8558V11.8468C6.04376 11.7399 6.05777 11.6011 6.06923 11.4788C6.07433 11.447 6.07687 11.4151 6.07815 11.3858V11.3693L6.07433 11.3578C6.0514 11.317 6.0565 11.2725 6.06286 11.2228C6.06796 11.1808 6.07433 11.1286 6.05777 11.0802C6.0756 10.8535 6.06541 10.5873 6.05395 10.3542C6.05013 10.2562 6.04758 10.1607 6.04631 10.0753V10.0702H6.04376C6.0323 9.95816 6.03484 9.84099 6.03994 9.7251C6.04376 9.62066 6.04376 9.51241 6.03612 9.41689C6.06159 9.30609 6.05777 9.20421 6.0565 9.09341C6.0565 9.04247 6.05395 8.9928 6.0565 8.94058V8.92657L6.05395 8.92148C6.07815 8.89219 6.08451 8.86289 6.07178 8.83233C6.08451 8.79285 6.08706 8.75337 6.08706 8.71898C6.08706 8.69096 6.08706 8.66167 6.09598 8.63747L6.0998 8.62474L6.0947 8.61073C6.08706 8.58781 6.09343 8.56106 6.10107 8.53304C6.10616 8.49738 6.11763 8.45663 6.10107 8.4146C6.14182 8.32927 6.15329 8.22866 6.15965 8.12805L6.16347 8.09366C6.1673 8.07074 6.15965 8.04909 6.14182 8.03253V8.02744C6.14182 7.98414 6.16347 7.94848 6.19404 7.90263C6.22461 7.85041 6.26027 7.79565 6.27045 7.72051L6.273 7.70778L6.27045 7.70395C6.27045 7.70395 6.2781 7.69759 6.28192 7.69377C6.30229 7.67594 6.33031 7.65047 6.33031 7.61098C6.33031 7.60462 6.33031 7.59698 6.32649 7.58933C6.3647 7.55367 6.38762 7.51802 6.40672 7.48363C6.43729 7.43269 6.45894 7.39703 6.5188 7.3792L6.54809 7.37028L6.55573 7.34099C6.56592 7.30788 6.59521 7.29005 6.63979 7.25948C6.67545 7.23911 6.71238 7.21363 6.74167 7.17925C6.77733 7.18307 6.80153 7.17288 6.81808 7.15887C6.86266 7.14741 6.89832 7.11939 6.92761 7.09392C6.97855 7.05571 6.99384 7.0468 7.02695 7.06335L7.06133 7.07736L7.08171 7.05699C7.08171 7.05699 7.08426 7.05571 7.08681 7.05571C7.10082 7.05062 7.12883 7.04298 7.14412 7.01878C7.15813 7.01496 7.17213 7.01114 7.1836 7.00859C7.20907 6.99968 7.21671 6.9984 7.2269 7.0035C7.23581 7.00859 7.25237 7.01496 7.27529 7.00986L7.27784 7.01369L7.31605 7.00859L7.36954 7.00222C7.52236 6.98312 7.65354 6.96529 7.7758 7.02897L7.81783 7.05189L7.8433 7.01241C7.8433 7.01241 7.85476 7.02642 7.85858 7.03151C7.89042 7.06463 7.94264 7.12321 8.02033 7.11175C8.03943 7.12703 8.05853 7.13977 8.07382 7.14996C8.08273 7.1525 8.09037 7.16014 8.09674 7.16269V7.16651L8.10693 7.17925C8.13113 7.21236 8.18334 7.22764 8.2241 7.22892C8.31579 7.32571 8.40749 7.45434 8.40749 7.51037V7.56132H8.44697C8.44697 7.56132 8.44697 7.56259 8.44697 7.56386C8.46225 7.63518 8.48136 7.72178 8.53739 7.77909C8.52338 7.81475 8.53484 7.85678 8.54121 7.87589C8.54121 7.88225 8.54503 7.88989 8.54503 7.89754L8.53484 7.93702L8.56668 7.97268L8.57433 7.9765C8.5705 8.01343 8.58833 8.04654 8.60107 8.07074C8.60362 8.07838 8.60744 8.08602 8.60998 8.09494L8.60234 8.11149C8.55395 8.20319 8.61635 8.25541 8.64946 8.2796C8.65329 8.28215 8.65711 8.2847 8.66093 8.28725C8.63673 8.30635 8.63673 8.32545 8.63164 8.35857L8.63673 8.39932L8.65329 8.42606C8.65329 8.42606 8.65329 8.42988 8.65711 8.43116C8.65965 8.44007 8.6622 8.45026 8.66984 8.46172L8.65074 8.47955L8.63673 8.52668L8.66602 8.56616L8.6864 8.5738C8.6864 8.59799 8.69531 8.6171 8.70168 8.62856C8.70168 8.63111 8.70168 8.63493 8.70423 8.6362L8.70041 8.6604C8.68258 8.747 8.65838 8.86035 8.71442 8.95077C8.71442 8.95332 8.7106 8.95459 8.7106 8.95586C8.68385 8.99152 8.69022 9.02973 8.69531 9.05775C8.69531 9.06539 8.69913 9.08195 8.69786 9.08704L8.68385 9.14053C8.68385 9.14053 8.70168 9.14817 8.71696 9.15072C8.71442 9.15581 8.71187 9.16091 8.71187 9.16982L8.70168 9.23095H8.71951C8.71824 9.2526 8.71824 9.27043 8.71569 9.29208C8.71569 9.32265 8.71569 9.34303 8.70295 9.36086L8.69913 9.3685L8.69659 9.37614C8.68003 9.43472 8.70168 9.48949 8.71696 9.53279C8.71951 9.5417 8.72333 9.54934 8.72715 9.55699C8.71696 9.5659 8.70932 9.58118 8.7106 9.60029C8.7106 9.60666 8.71314 9.61175 8.71314 9.61557L8.70168 9.6283L8.71314 9.6576C8.71696 9.67543 8.72715 9.68689 8.73989 9.69453H8.73352L8.73097 9.73783V9.75311L8.69913 9.7633L8.71442 9.80024C8.70678 9.81425 8.69913 9.83844 8.70678 9.86391L8.68385 9.90721C8.68385 9.90721 8.68767 9.93141 8.70805 9.94033C8.68512 10.0116 8.73861 10.0664 8.77045 10.097C8.78319 10.111 8.7921 10.1224 8.79847 10.1301H8.77173L8.7921 10.1976C8.7921 10.1976 8.78192 10.2078 8.77809 10.2129L8.73352 10.2358L8.74753 10.2957L8.74371 10.3097C8.73352 10.339 8.73989 10.3606 8.75008 10.3721C8.75008 10.3746 8.75517 10.3772 8.75644 10.3784C8.73861 10.395 8.72333 10.4179 8.71824 10.4536L8.71442 10.5032L8.75517 10.5096C8.75135 10.5198 8.7488 10.53 8.74753 10.5402C8.73861 10.5593 8.73734 10.5733 8.72715 10.5873C8.72715 10.5898 8.72715 10.5911 8.72588 10.5949L8.7972 10.6319C8.78574 10.6522 8.78064 10.6701 8.77555 10.6841C8.773 10.6917 8.77173 10.7019 8.76791 10.7057H8.70423L8.70805 10.7758C8.71314 10.7885 8.71314 10.7987 8.71314 10.8114C8.71314 10.8242 8.71696 10.8369 8.71824 10.8547V10.9248C8.71824 10.9324 8.71824 10.949 8.72206 10.9643L8.71442 10.9681L8.71824 11.0063C8.72206 11.0267 8.72078 11.0445 8.71824 11.0649C8.71824 11.0763 8.71696 11.0891 8.71696 11.1005L8.67112 11.126L8.72843 11.1897V11.1935C8.72078 11.2101 8.71442 11.2317 8.71442 11.2559H8.67239L8.74371 11.3438C8.75008 11.3502 8.75644 11.3705 8.75899 11.3833C8.75899 11.3845 8.76154 11.3884 8.76154 11.3896C8.73225 11.4202 8.72715 11.461 8.72588 11.4839C8.72206 11.4953 8.72206 11.5094 8.71951 11.5144C8.71951 11.5144 8.72078 11.5144 8.72078 11.5119L8.73989 11.5374C8.72588 11.5476 8.71696 11.5578 8.71442 11.5692C8.7055 11.587 8.70423 11.6036 8.70678 11.6189H8.63546L8.69531 11.6762L8.638 11.6966L8.68512 11.7322V11.8736C8.68512 11.9003 8.69913 11.9207 8.71824 11.9322L8.71951 11.9347C8.7488 11.9526 8.78064 11.9526 8.80484 11.9449V12.006L8.87489 11.9844C8.92455 11.9704 8.96276 11.9678 9.00224 11.9755L9.06083 11.9857L9.06847 11.9296C9.09394 11.7157 9.09012 11.5081 9.08375 11.3081C9.07738 11.1146 9.07483 10.9286 9.09648 10.7478C9.11304 10.7121 9.09649 10.679 9.08884 10.6624L9.09394 10.665Z" fill="#007237"/>
<path fill-rule="evenodd" clip-rule="evenodd" d="M5.00291 10.665L5.01564 10.6586V10.6268L5.00545 9.66779V9.66397C4.98762 9.51878 4.98508 9.36086 4.97998 9.1902C4.97489 9.00171 4.97361 8.80176 4.9456 8.62856C4.94178 8.38276 4.89211 8.11531 4.84498 7.85551L4.81442 7.6823L4.80805 7.66702L4.79914 7.65174C4.75966 7.61481 4.74565 7.56514 4.73164 7.51037C4.7189 7.46325 4.70617 7.41231 4.6756 7.36773C4.6132 7.25057 4.51131 7.13595 4.41962 7.03534L4.41325 7.03024C4.39287 7.00095 4.36613 6.98439 4.34193 6.96911C4.32919 6.95892 4.31773 6.95001 4.30499 6.93982L4.28334 6.92072L4.27316 6.92454L4.25533 6.9118C4.17637 6.84685 4.09868 6.82265 4.01208 6.79209H4.00953C3.98533 6.75388 3.93566 6.74878 3.90255 6.74878V6.72331L3.8567 6.71695L3.64147 6.68638L3.60963 6.68256L3.5918 6.70803C3.58289 6.71822 3.58161 6.71949 3.53704 6.70421C3.51921 6.69784 3.49501 6.68893 3.46827 6.68638H3.44534L3.43388 6.69657C3.42751 6.69275 3.4186 6.68638 3.40968 6.68256L3.32053 6.65454L3.31416 6.69657C3.27341 6.69657 3.23775 6.70294 3.21101 6.71822H2.93974L2.95502 6.76916L2.95247 6.77171C2.89389 6.75643 2.85059 6.79336 2.82766 6.81246C2.82384 6.81628 2.81875 6.82138 2.81493 6.82265C2.76781 6.83029 2.73979 6.85194 2.72323 6.86468C2.7105 6.87487 2.7054 6.87741 2.69521 6.87869L2.67229 6.88123L2.65701 6.89779C2.63663 6.92072 2.5755 6.94873 2.54111 6.96402L2.46979 6.99331L2.48508 7.00986C2.47361 7.01496 2.46088 7.0226 2.44942 7.03151H2.38064V7.08628H2.373L2.3348 7.06972L2.30678 7.10283C2.2673 7.16396 2.20999 7.22 2.1514 7.27986C2.0839 7.355 2.01386 7.42887 1.9591 7.51037L1.94509 7.5333L1.95528 7.5575C1.94254 7.56641 1.90815 7.58679 1.90306 7.62627C1.87631 7.65429 1.87122 7.69377 1.86485 7.71924C1.86485 7.72561 1.86485 7.73707 1.86231 7.74216C1.83301 7.77527 1.82665 7.81093 1.82282 7.83768C1.819 7.85678 1.81518 7.86824 1.80882 7.87843L1.7757 7.92301L1.79099 7.9332C1.7808 7.95994 1.77952 7.98669 1.77952 8.00452C1.77952 8.01216 1.77952 8.0198 1.77952 8.02489L1.7566 8.04017L1.76297 8.07711C1.77188 8.14206 1.76297 8.20701 1.75533 8.27069C1.74514 8.33437 1.7375 8.40187 1.74386 8.47319C1.71712 8.51267 1.72476 8.55851 1.72858 8.59035C1.73113 8.59927 1.7324 8.612 1.7324 8.61837L1.69674 8.64766L1.72221 8.68714C1.74004 8.72026 1.72603 8.76738 1.71202 8.8145C1.69802 8.86035 1.68401 8.91511 1.69929 8.96351C1.6942 8.96605 1.69037 8.97115 1.68655 8.97624C1.68146 8.98516 1.67509 8.99917 1.67509 9.017C1.67509 9.05138 1.67254 9.06157 1.67127 9.06539L1.64707 9.11888L1.64198 9.13926L1.6891 9.17492C1.68401 9.20421 1.6891 9.2335 1.69165 9.25643C1.69674 9.29208 1.69674 9.30737 1.68783 9.32138L1.65854 9.37359L1.68783 9.40671V9.41435C1.68528 9.43855 1.68401 9.48057 1.7133 9.50986C1.7133 9.51751 1.71585 9.52133 1.71839 9.52642L1.6649 9.5417L1.69802 9.6143C1.69802 9.6143 1.69547 9.62703 1.69547 9.63213C1.6891 9.6525 1.68019 9.69453 1.70056 9.73274C1.68528 9.77604 1.69547 9.81424 1.70311 9.84354C1.70566 9.8499 1.7082 9.86009 1.7082 9.86901C1.65854 9.92122 1.68401 9.99 1.6942 10.0269C1.67127 10.0639 1.67637 10.1021 1.68273 10.1275L1.61523 10.1505L1.68273 10.2205C1.68273 10.2345 1.68273 10.2536 1.69037 10.2727C1.69802 10.2855 1.70948 10.2918 1.72094 10.2982L1.69929 10.3058C1.69929 10.3058 1.70184 10.3071 1.70311 10.3122L1.72731 10.3733V10.381C1.72221 10.4179 1.72731 10.4536 1.74641 10.4803C1.74132 10.488 1.7375 10.4981 1.73495 10.5109L1.7082 10.5364L1.73495 10.5746C1.7566 10.6026 1.74768 10.6408 1.7324 10.6994C1.71712 10.7503 1.70311 10.8191 1.7324 10.8751L1.6942 10.9108L1.74259 10.9452C1.74259 10.9452 1.74004 10.9528 1.73877 10.9528C1.72731 10.9757 1.70566 11.0178 1.7324 11.0623L1.72858 11.056C1.74004 11.0789 1.73622 11.1133 1.73113 11.1489C1.72476 11.205 1.71712 11.2725 1.74514 11.3349L1.73622 11.4011L1.73877 11.3909C1.73113 11.4164 1.73622 11.4393 1.74386 11.4533L1.72476 11.4648L1.73877 11.5094C1.75405 11.5578 1.75533 11.6151 1.75533 11.6762C1.75533 11.7934 1.75533 11.9233 1.85848 12.0239L1.88141 12.0443L1.9107 12.0353C1.98711 12.0124 1.99221 11.936 1.99476 11.8927C1.99476 11.8851 1.99476 11.8774 1.99603 11.8698V11.8468C1.96292 11.7399 1.97565 11.6011 1.98711 11.4788C1.98966 11.447 1.99348 11.4151 1.99603 11.3858V11.3693L1.98966 11.3578C1.96928 11.317 1.97438 11.2725 1.98329 11.2228C1.98711 11.1808 1.99093 11.1286 1.97565 11.0802C1.99348 10.8535 1.98457 10.5873 1.97565 10.3542C1.97056 10.2562 1.96546 10.1607 1.96419 10.0753V10.0702C1.954 9.95816 1.95655 9.84099 1.96037 9.7251C1.96292 9.62066 1.96419 9.51241 1.95782 9.41689C1.98202 9.30609 1.9782 9.20421 1.97693 9.09341V8.92657L1.9731 8.92148C1.99858 8.89219 2.00367 8.86289 1.99093 8.83233C2.00367 8.79285 2.00367 8.75337 2.00494 8.71898C2.00494 8.69096 2.00494 8.66167 2.01131 8.63747L2.01768 8.62474L2.01004 8.61073C2.00494 8.58781 2.01004 8.56106 2.01895 8.53304C2.02787 8.49738 2.03678 8.45663 2.01895 8.4146C2.06098 8.32927 2.07244 8.22866 2.07754 8.12805L2.08263 8.09366C2.0839 8.07074 2.07754 8.04909 2.06098 8.03253V8.02744C2.06098 7.98414 2.08263 7.94848 2.11192 7.90263C2.14376 7.85041 2.1807 7.79565 2.18961 7.72051V7.70778V7.70395C2.19216 7.70141 2.19725 7.69759 2.1998 7.69377C2.22018 7.67594 2.24819 7.65047 2.24819 7.61098C2.24819 7.60462 2.24819 7.59698 2.24565 7.58933C2.28131 7.55367 2.30423 7.51802 2.32461 7.48363C2.3539 7.43269 2.37682 7.39703 2.43668 7.3792L2.46597 7.37028L2.47489 7.34099C2.48253 7.30788 2.51055 7.29005 2.55767 7.25948C2.59206 7.23911 2.63026 7.21363 2.65828 7.17925C2.69521 7.18307 2.71814 7.17288 2.73342 7.15887C2.78054 7.14741 2.81493 7.11939 2.84549 7.09392C2.89389 7.05571 2.91172 7.0468 2.94356 7.06335L2.97667 7.07736L2.99705 7.05699L3.00342 7.05571C3.0187 7.05062 3.04544 7.04298 3.06073 7.01878C3.07474 7.01496 3.0862 7.01114 3.09893 7.00859C3.12695 6.99968 3.13459 6.9984 3.14223 7.0035C3.15242 7.00859 3.1728 7.01496 3.19318 7.00986L3.19572 7.01369L3.23393 7.00859L3.28487 7.00222C3.43897 6.98312 3.57015 6.96529 3.69241 7.02897L3.73444 7.05189L3.75991 7.01241C3.76628 7.01751 3.7701 7.02642 3.77647 7.03151C3.80831 7.06463 3.8618 7.12321 3.93821 7.11175C3.95604 7.12703 3.97642 7.13977 3.99297 7.14996C4.00061 7.1525 4.00826 7.16014 4.01462 7.16269V7.16651L4.02609 7.17925C4.04901 7.21236 4.10122 7.22764 4.14325 7.22892C4.2324 7.32571 4.32537 7.45434 4.32537 7.51037V7.56132H4.3674V7.56386C4.38268 7.63518 4.40051 7.72178 4.45655 7.77909C4.43872 7.81475 4.454 7.85678 4.46037 7.87589C4.46037 7.88225 4.46292 7.88989 4.46546 7.89754L4.45273 7.93702L4.48584 7.97268L4.49603 7.9765C4.49348 8.01343 4.51131 8.04654 4.5215 8.07074C4.52405 8.07838 4.53042 8.08602 4.53169 8.09494L4.5215 8.11149C4.47565 8.20319 4.5406 8.25541 4.57117 8.2796C4.57372 8.28215 4.57754 8.2847 4.58136 8.28725C4.55843 8.30635 4.55843 8.32545 4.55461 8.35857L4.55716 8.39932L4.57244 8.42606C4.57244 8.42606 4.57626 8.42988 4.57626 8.43116C4.58008 8.44007 4.58263 8.45026 4.589 8.46172L4.57117 8.47955L4.55843 8.52668L4.58518 8.56616L4.60428 8.5738C4.60428 8.59799 4.6132 8.6171 4.62084 8.62856C4.62084 8.63111 4.62084 8.63493 4.62084 8.6362L4.61829 8.6604C4.60173 8.747 4.57881 8.86035 4.6323 8.95077C4.62975 8.95332 4.62848 8.95459 4.62848 8.95586C4.60301 8.99152 4.6081 9.02973 4.61447 9.05775C4.61447 9.06539 4.61956 9.08195 4.61829 9.08704L4.60301 9.14053C4.60301 9.14053 4.62084 9.14817 4.63612 9.15072C4.6323 9.15581 4.63103 9.16091 4.63103 9.16982L4.62084 9.23095H4.64376C4.63867 9.2526 4.63739 9.27043 4.63739 9.29208C4.63485 9.32265 4.63357 9.34303 4.62211 9.36086L4.61956 9.3685L4.61574 9.37614C4.60046 9.43472 4.62084 9.48949 4.63867 9.53279C4.64249 9.5417 4.64376 9.54934 4.64886 9.55699C4.63867 9.5659 4.62975 9.58118 4.63103 9.60029C4.63103 9.60666 4.63357 9.61175 4.63357 9.61557L4.62211 9.6283L4.63357 9.6576C4.63867 9.67543 4.6514 9.68689 4.66159 9.69453H4.65268V9.75311L4.61829 9.7633L4.63357 9.80024C4.62721 9.81425 4.61829 9.83844 4.62721 9.86391L4.60428 9.90721C4.60428 9.90721 4.60683 9.93141 4.62721 9.94033C4.60556 10.0116 4.66032 10.0664 4.69088 10.097C4.70489 10.111 4.71381 10.1224 4.71763 10.1301H4.69216L4.71126 10.1976H4.71253C4.71253 10.1976 4.70362 10.2078 4.69725 10.2129L4.65522 10.2358L4.66923 10.2957L4.66287 10.3097C4.65268 10.339 4.66287 10.3606 4.67051 10.3721C4.67305 10.3746 4.67433 10.3772 4.67433 10.3784C4.65904 10.395 4.64121 10.4179 4.64121 10.4536L4.63485 10.5032L4.67433 10.5096C4.67178 10.5198 4.66796 10.53 4.66541 10.5402C4.66032 10.5593 4.6565 10.5733 4.64886 10.5873C4.64886 10.5873 4.64376 10.5911 4.64376 10.5949L4.71508 10.6319C4.70617 10.6522 4.70107 10.6701 4.69598 10.6841C4.69343 10.6917 4.68961 10.7019 4.68706 10.7057H4.62466V10.7758C4.62848 10.7885 4.63103 10.7987 4.63103 10.8114C4.6323 10.8242 4.63612 10.8369 4.63867 10.8547V10.9248C4.63867 10.9324 4.63994 10.949 4.63994 10.9643L4.6323 10.9681L4.63994 11.0063V11.0649C4.63867 11.0763 4.63867 11.0891 4.63867 11.1005L4.589 11.126L4.64886 11.1897C4.64121 11.2101 4.63103 11.2304 4.63103 11.2559H4.589L4.66032 11.3438C4.66669 11.3502 4.67305 11.3705 4.6756 11.3833C4.6756 11.3845 4.67815 11.3884 4.67815 11.3896C4.64886 11.4202 4.64376 11.461 4.64121 11.4839C4.64121 11.4953 4.64121 11.5094 4.63867 11.5144V11.5119L4.65522 11.5374C4.64121 11.5476 4.63357 11.5578 4.62848 11.5692C4.61956 11.587 4.61956 11.6036 4.62466 11.6189H4.55461L4.61065 11.6762L4.55716 11.6966L4.60301 11.7322V11.8736C4.60301 11.9003 4.6132 11.9207 4.63612 11.9322L4.63994 11.9347C4.66669 11.9526 4.6998 11.9526 4.72527 11.9449V12.006L4.79532 11.9844C4.84371 11.9704 4.88192 11.9678 4.92267 11.9755L4.97998 11.9857L4.98635 11.9296C5.01437 11.7157 5.00927 11.5081 5.00291 11.3081C4.99909 11.1146 4.99399 10.9286 5.01819 10.7478C5.03347 10.7121 5.01819 10.679 5.00673 10.6624L5.00291 10.665Z" fill="#005AA5"/>
<path fill-rule="evenodd" clip-rule="evenodd" d="M13.1134 10.7401L13.1261 10.73V10.7007L13.1147 9.7404V9.73658C13.0981 9.58885 13.093 9.42965 13.0905 9.26154C13.0841 9.07178 13.0803 8.87565 13.0548 8.70372C13.0484 8.45538 13.0013 8.1892 12.9516 7.9294L12.9211 7.75237L12.9173 7.73582L12.9058 7.72435C12.8676 7.68615 12.8536 7.63775 12.8383 7.58044C12.8268 7.53332 12.8141 7.48493 12.7835 7.43653C12.7211 7.32318 12.6192 7.20856 12.5263 7.10668L12.5225 7.10031C12.4995 7.07102 12.4741 7.05446 12.4499 7.03918C12.4371 7.03026 12.4257 7.0239 12.4117 7.00989L12.3913 6.99333H12.376L12.3607 6.98442C12.2805 6.91692 12.2028 6.89272 12.1175 6.86215H12.1149C12.0882 6.82649 12.0398 6.82013 12.0079 6.82013V6.79593L11.9621 6.78956L11.7481 6.75772L11.7188 6.75263L11.6997 6.7781C11.6908 6.79083 11.6908 6.79083 11.6424 6.77555C11.6259 6.76918 11.6004 6.76027 11.5762 6.75772L11.552 6.75517L11.538 6.76791C11.538 6.76791 11.524 6.75645 11.5138 6.75263L11.4259 6.72461L11.417 6.76664C11.3788 6.76664 11.3457 6.773 11.3164 6.78956H11.0438L11.0591 6.83796C11.0591 6.83796 11.0591 6.8405 11.0566 6.8405C10.9993 6.82649 10.956 6.86215 10.9318 6.88126C10.9267 6.88508 10.9216 6.8889 10.919 6.89145C10.8719 6.89909 10.8477 6.91819 10.8273 6.93475C10.8133 6.94239 10.8082 6.94748 10.7968 6.94876H10.7751L10.7586 6.96786C10.742 6.99206 10.6796 7.0188 10.6452 7.03281L10.5739 7.06592L10.5892 7.07993C10.5777 7.08503 10.5663 7.09139 10.5561 7.10158H10.486V7.15762H10.4784L10.4389 7.14106L10.4096 7.17418C10.3689 7.23276 10.3115 7.29007 10.253 7.35375C10.1867 7.42379 10.1167 7.49893 10.0619 7.58044L10.0466 7.60591L10.0556 7.63011C10.0441 7.63903 10.0097 7.6594 10.0046 7.69888C9.97788 7.72563 9.97024 7.76384 9.96641 7.78931C9.96641 7.79822 9.96514 7.80968 9.96132 7.81223C9.9333 7.84534 9.92693 7.881 9.92566 7.90902C9.92057 7.92812 9.91929 7.94213 9.91038 7.9536L9.87472 7.99562L9.89 8.00709C9.87981 8.03128 9.87981 8.06057 9.87981 8.07586C9.87981 8.0835 9.87981 8.09241 9.87981 8.09751L9.85689 8.11152L9.86198 8.14336C9.87217 8.2134 9.86198 8.27453 9.85307 8.34076C9.8467 8.40316 9.84033 8.46939 9.84543 8.54198C9.81741 8.58019 9.82505 8.62986 9.82887 8.65787C9.82887 8.66934 9.83269 8.68335 9.83142 8.69099L9.79703 8.71773L9.8225 8.75594C9.84161 8.78778 9.82632 8.83745 9.81104 8.88457C9.79958 8.92787 9.78302 8.98518 9.79958 9.0323C9.79448 9.03612 9.78939 9.03994 9.78684 9.04504C9.78175 9.05268 9.77793 9.06669 9.77793 9.08579C9.77793 9.12145 9.77156 9.13546 9.77156 9.13673L9.75118 9.18768L9.74354 9.20678L9.78812 9.23989C9.7843 9.27173 9.78812 9.30102 9.79194 9.32267C9.79703 9.36088 9.7983 9.37489 9.78812 9.38762L9.7601 9.43857L9.78812 9.47168C9.78812 9.47168 9.78812 9.47805 9.78684 9.48314C9.78684 9.50352 9.78429 9.54809 9.81359 9.57866C9.81359 9.58248 9.81359 9.59012 9.81741 9.59394L9.76392 9.60795L9.79958 9.68054C9.79958 9.68054 9.79576 9.69201 9.79448 9.69837C9.78939 9.7213 9.78047 9.7646 9.80213 9.80026C9.78684 9.84101 9.79703 9.88304 9.8034 9.91233C9.80595 9.92125 9.80849 9.93016 9.80977 9.9378C9.75882 9.98875 9.78429 10.0588 9.79576 10.0945C9.77156 10.1314 9.7792 10.1709 9.7843 10.1951L9.7168 10.2205L9.7843 10.288C9.78175 10.3033 9.78175 10.3224 9.79321 10.3402C9.80213 10.3517 9.81104 10.3606 9.82123 10.3644L9.80085 10.3708C9.80085 10.3708 9.80085 10.3746 9.8034 10.3772L9.8276 10.4396V10.446C9.81995 10.4829 9.83014 10.5173 9.84797 10.544C9.84288 10.5529 9.83906 10.5644 9.83778 10.5746L9.80977 10.6001L9.83524 10.6395C9.85307 10.6676 9.8467 10.7058 9.83142 10.7643C9.81868 10.8166 9.80212 10.8828 9.83142 10.9401L9.79321 10.977L9.84033 11.0114C9.84033 11.0114 9.84033 11.0165 9.83906 11.0165C9.82505 11.0382 9.8034 11.0815 9.83014 11.1235L9.8276 11.1197C9.83906 11.1388 9.83396 11.1744 9.8276 11.2126C9.8225 11.2687 9.81359 11.3349 9.84288 11.3986L9.83396 11.4648L9.83778 11.4559C9.82632 11.4801 9.83396 11.5017 9.84288 11.5183L9.82123 11.5285L9.83778 11.5718C9.85052 11.6202 9.85052 11.6788 9.85052 11.7386C9.85052 11.8558 9.85052 11.9857 9.95623 12.085L9.9766 12.108L10.0072 12.1003C10.0849 12.0761 10.09 11.9972 10.0938 11.9577C10.0938 11.9475 10.0963 11.9386 10.0963 11.9322V11.922L10.0938 11.9093C10.0619 11.8061 10.0734 11.6673 10.0861 11.5425C10.0887 11.5107 10.0912 11.4814 10.0963 11.4495V11.4368L10.0887 11.4215C10.0683 11.3782 10.0747 11.3362 10.0785 11.2891C10.0849 11.2432 10.0912 11.1948 10.0747 11.14C10.0925 10.9172 10.0823 10.6523 10.0734 10.4179C10.0708 10.3186 10.0658 10.2256 10.0632 10.1378V10.1327C10.0492 10.0231 10.0543 9.90342 10.0556 9.78752C10.0594 9.68436 10.0619 9.57866 10.0556 9.48187C10.0785 9.36852 10.0759 9.26536 10.0759 9.15838C10.0759 9.10744 10.0747 9.05523 10.0759 9.00301V8.99027L10.0734 8.98391C10.0989 8.95461 10.1027 8.92405 10.0912 8.89476C10.1027 8.854 10.104 8.81325 10.1052 8.77886C10.1078 8.75084 10.1078 8.72665 10.1103 8.6999L10.1141 8.68717L10.1103 8.6757C10.1052 8.64896 10.1103 8.62222 10.1167 8.5942C10.1269 8.55981 10.1358 8.51524 10.118 8.47576C10.16 8.3917 10.1689 8.28854 10.1791 8.18793L10.1816 8.15482C10.1842 8.13189 10.1766 8.11279 10.16 8.09369V8.09114C10.16 8.04529 10.1816 8.01091 10.2109 7.96633C10.2428 7.91539 10.2784 7.85935 10.2874 7.78166V7.76893C10.2874 7.76893 10.2975 7.76001 10.3001 7.75492C10.3179 7.73964 10.3485 7.71671 10.3485 7.67596C10.3485 7.66959 10.3485 7.66195 10.3421 7.65686C10.3816 7.6212 10.4032 7.58299 10.4262 7.54733C10.4555 7.50021 10.4771 7.462 10.5382 7.44672L10.5663 7.43653L10.5726 7.40724C10.5815 7.37413 10.6108 7.3563 10.6554 7.327C10.6885 7.30535 10.728 7.28116 10.7547 7.2455C10.7942 7.24804 10.8172 7.23658 10.8324 7.22384C10.877 7.21238 10.9139 7.18436 10.9445 7.16144C10.9929 7.11941 11.0082 7.11177 11.0413 7.12833L11.0757 7.14234L11.0948 7.12069C11.0948 7.12069 11.0999 7.11814 11.1012 7.11814C11.1164 7.11432 11.1432 7.10795 11.1597 7.08121C11.1737 7.08121 11.1865 7.07611 11.1979 7.07102C11.226 7.0621 11.2323 7.0621 11.2412 7.06592C11.2527 7.07102 11.2705 7.07866 11.2909 7.07356L11.2947 7.07739L11.3329 7.07102L11.3826 7.06465C11.5367 7.04555 11.6704 7.02772 11.7902 7.09267L11.8335 7.11305L11.8589 7.07739C11.8653 7.07993 11.8717 7.08757 11.8755 7.09394C11.9035 7.12833 11.9608 7.18819 12.0385 7.17545C12.0538 7.19073 12.0767 7.20347 12.0907 7.21366C12.0996 7.21748 12.1073 7.22257 12.1136 7.22894L12.1251 7.24295C12.1506 7.27351 12.2015 7.29007 12.2435 7.29262C12.334 7.38686 12.4257 7.51676 12.4257 7.57407V7.62756H12.4639V7.63138C12.4804 7.70143 12.4995 7.78803 12.5556 7.84407C12.5403 7.87973 12.5517 7.9243 12.5594 7.94468C12.5594 7.94977 12.5632 7.95614 12.5645 7.96251L12.5517 8.00199L12.5849 8.03765L12.595 8.04147C12.5925 8.0784 12.6103 8.11279 12.6231 8.13444C12.6256 8.14208 12.6294 8.14972 12.6307 8.15609L12.6231 8.17647C12.5734 8.27071 12.6383 8.31783 12.6689 8.34203C12.6727 8.34713 12.6766 8.3484 12.6816 8.35222C12.6562 8.37005 12.6574 8.39043 12.6524 8.42227L12.6562 8.46302L12.6727 8.48849V8.49104C12.6727 8.49104 12.6753 8.49486 12.6766 8.49486C12.6791 8.5025 12.6816 8.51396 12.6893 8.52542L12.6702 8.54325L12.6574 8.59165L12.6855 8.62986L12.7071 8.64259C12.7046 8.66297 12.7148 8.68335 12.7199 8.69608C12.7199 8.69863 12.7199 8.70118 12.7224 8.70118L12.7186 8.72792C12.6995 8.81325 12.6766 8.92532 12.7313 9.01957C12.7288 9.01957 12.7275 9.02211 12.7275 9.02211C12.7033 9.0565 12.7084 9.09598 12.7135 9.124C12.7135 9.13419 12.7173 9.14692 12.716 9.15329L12.7007 9.20678C12.7007 9.20678 12.7186 9.21315 12.7339 9.21697C12.7313 9.22334 12.73 9.22843 12.7288 9.23225L12.7173 9.29593H12.739C12.7339 9.31885 12.7339 9.33668 12.7326 9.35579C12.7326 9.38762 12.7326 9.408 12.7186 9.42711L12.716 9.43347L12.7135 9.43984C12.6969 9.49842 12.7173 9.55446 12.7351 9.59649C12.739 9.60668 12.7402 9.61559 12.7441 9.62069C12.7351 9.63087 12.7262 9.64488 12.7275 9.66526C12.7275 9.6729 12.73 9.67545 12.7313 9.68054L12.7186 9.69201L12.73 9.72384C12.7351 9.74295 12.7453 9.75186 12.7606 9.75951L12.7491 9.76333L12.7479 9.80281V9.81681L12.7173 9.827L12.7313 9.86266C12.7237 9.87795 12.7173 9.90214 12.7237 9.92761L12.7033 9.96964C12.7033 9.96964 12.7084 9.99129 12.7262 10.0028C12.7058 10.0741 12.7581 10.1301 12.7899 10.1607C12.8039 10.1747 12.8115 10.1836 12.8179 10.19H12.7912L12.8103 10.2613H12.8115C12.8115 10.2613 12.8039 10.2727 12.7975 10.2766L12.7542 10.2982L12.7695 10.3568L12.7632 10.3721C12.7517 10.4027 12.7606 10.423 12.7721 10.4345C12.7721 10.4396 12.7746 10.4396 12.7772 10.4409C12.7619 10.4561 12.7428 10.4803 12.7402 10.516L12.7339 10.5669L12.7746 10.572C12.7721 10.5835 12.7695 10.5937 12.7657 10.6051C12.7606 10.6243 12.7555 10.6395 12.7466 10.6523C12.7466 10.6523 12.7466 10.6574 12.7441 10.6586L12.8141 10.6981C12.8052 10.7172 12.7988 10.7363 12.795 10.7491C12.795 10.7592 12.7899 10.7669 12.7886 10.7707H12.7823H12.7224L12.7249 10.8382C12.73 10.8535 12.7313 10.8624 12.7326 10.8777C12.7339 10.8879 12.7364 10.9057 12.739 10.9197V10.9898C12.739 10.9987 12.739 11.014 12.7428 11.028L12.7339 11.0318L12.7402 11.0713C12.7428 11.0904 12.7415 11.1095 12.7402 11.1286C12.7402 11.1375 12.7364 11.1515 12.7364 11.1655L12.688 11.1897L12.7479 11.2547C12.7479 11.2547 12.7466 11.2598 12.7466 11.261C12.7415 11.2738 12.7326 11.2954 12.7326 11.3209H12.6893L12.7619 11.4088C12.7682 11.4164 12.7746 11.4342 12.7759 11.4482C12.7759 11.4521 12.7759 11.4521 12.7759 11.4546C12.7466 11.4826 12.7428 11.5247 12.7402 11.5489C12.7402 11.5578 12.7377 11.5731 12.7351 11.5781H12.7377L12.7542 11.5985C12.7402 11.6087 12.7313 11.624 12.7275 11.6316C12.7199 11.6482 12.7186 11.666 12.7211 11.6826H12.6511L12.7097 11.7386L12.6549 11.7577L12.702 11.7959V11.9373C12.702 11.9653 12.7135 11.9857 12.7339 11.9984C12.7339 11.9984 12.7377 11.9984 12.739 11.9984C12.7657 12.0163 12.7975 12.015 12.823 12.0099V12.071L12.8931 12.0481C12.944 12.0341 12.9797 12.0303 13.0217 12.0405L13.0764 12.0481L13.0854 11.9946C13.1134 11.7819 13.107 11.5731 13.1006 11.3718C13.0956 11.1757 13.093 10.9936 13.1159 10.8127C13.1325 10.7784 13.1159 10.7452 13.1045 10.7287L13.1134 10.7401Z" fill="#EC691F"/>
<path fill-rule="evenodd" clip-rule="evenodd" d="M0 15.9986H14.7326V1.27246H0V15.9986ZM0.778146 2.04806H13.9506V15.223H0.778146V2.04806Z" fill="#EC691F"/>
<path fill-rule="evenodd" clip-rule="evenodd" d="M44.3268 13.1167C44.0122 13.1167 43.6989 13.1014 43.3334 12.9511C42.8953 12.7754 42.8546 12.5436 42.8546 11.6432V8.4185C42.8546 8.34973 42.8826 8.32044 42.9361 8.32044C43.1424 8.32044 43.2787 8.32044 43.5244 8.33318C44.0555 8.36374 44.3675 8.45799 44.6541 8.65921C45.6895 9.38132 45.9748 10.5237 45.9748 11.3681C45.9748 12.7868 44.9394 13.1141 44.3268 13.1141V13.1167ZM42.8546 4.20939C42.8546 4.06038 42.8826 4.00562 42.9781 3.98015C43.1144 3.94958 43.2366 3.94958 43.4277 3.94958C44.5981 3.94958 45.1317 5.14927 45.1317 6.06242C45.1317 6.72849 44.9254 7.22008 44.5713 7.50409C44.3408 7.71041 44.0402 7.7639 43.5919 7.7639C43.2787 7.7639 43.0736 7.75116 42.9501 7.72314C42.8953 7.71041 42.8546 7.68239 42.8546 7.57413V4.21066V4.20939ZM45.1699 7.81611C45.92 7.22008 46.5619 6.55019 46.5619 5.43583C46.5619 4.71244 46.1251 3.39049 43.6594 3.39049C43.1946 3.39049 42.6648 3.43251 41.9974 3.43251C41.7262 3.43251 40.8665 3.39049 40.1457 3.39049H39.9623C39.4312 3.39049 38.5728 3.43251 38.4124 3.43251C38.3971 3.43251 37.5387 3.39049 36.8446 3.39049C36.6523 3.39049 36.5593 3.41723 36.5593 3.51402C36.5593 3.61081 36.6396 3.63756 36.7899 3.63756C36.9401 3.63756 37.1719 3.64902 37.2802 3.67704C37.7272 3.77255 37.838 3.99033 37.8647 4.45391C37.8915 4.88819 37.8915 5.27154 37.8915 7.34107V9.04128C37.8915 10.4435 37.8507 11.6699 37.1019 12.4188C36.5593 12.9651 35.822 13.1562 35.2221 13.1562C34.7598 13.1562 34.1345 13.1001 33.5219 12.5971C32.8533 12.0507 32.4585 11.2178 32.4585 9.24632V7.3398C32.4585 5.26899 32.4585 4.88692 32.4865 4.45264C32.512 3.9776 32.6228 3.74708 32.9883 3.67576C33.1513 3.64775 33.2341 3.63628 33.3818 3.63628C33.5206 3.63628 33.6021 3.60827 33.6021 3.51275C33.6021 3.41723 33.5066 3.38921 33.3016 3.38921C32.8113 3.38921 31.9541 3.43124 31.6281 3.43124C31.3212 3.43124 30.7608 3.40959 30.1966 3.39685C30.1597 3.39176 30.1189 3.38921 30.0731 3.38921C30.0234 3.38921 29.9687 3.38921 29.9139 3.39176C29.8209 3.39049 29.728 3.38921 29.6388 3.38921C29.5535 3.38921 28.9205 3.43124 28.7906 3.43124C28.6149 3.43124 28.043 3.38921 27.3604 3.38921C27.1044 3.38921 26.9822 3.41596 26.9822 3.52676C26.9822 3.62227 27.0904 3.63628 27.2127 3.63628C27.3884 3.63628 27.5935 3.64775 27.759 3.70378C27.8813 3.74708 27.9335 3.85279 27.9335 3.96359C27.9335 4.08458 27.8813 4.29089 27.8113 4.46665C27.4839 5.36705 25.715 9.7481 25.1291 11.2484H25.0744L22.7336 5.06267C22.5425 4.5749 22.4203 4.1941 22.4203 4.01453C22.4203 3.89482 22.461 3.79803 22.5565 3.7318C22.6635 3.64647 22.8686 3.63501 23.0876 3.63501C23.2099 3.63501 23.2914 3.60699 23.2914 3.51147C23.2914 3.41596 23.1424 3.38794 22.9781 3.38794C22.2955 3.38794 21.6421 3.42997 21.3046 3.42997C20.8258 3.42997 20.0502 3.38794 19.3281 3.38794C19.1281 3.38794 18.9766 3.40195 18.9766 3.51147C18.9766 3.59553 19.016 3.63501 19.1396 3.63501C19.2478 3.63501 19.4656 3.63501 19.6694 3.68977C20.1597 3.82477 20.3915 3.9776 20.7048 4.72391L24.1383 13.0454C24.3956 13.6834 24.4783 13.8757 24.6554 13.8757C24.8451 13.8757 24.9254 13.6605 25.282 12.8671C25.5813 12.1882 26.2219 10.7033 27.0942 8.71524C27.8291 7.03924 28.1971 6.30439 28.7269 5.02574C29.0937 4.15462 29.3 3.92283 29.4758 3.7993C29.6184 3.70378 29.8515 3.61718 30.1049 3.67576C30.552 3.7802 30.6628 3.98906 30.6895 4.45264C30.7162 4.88692 30.7162 5.27026 30.7162 7.3398V9.32655C30.7162 11.3006 31.2346 12.3092 31.9287 12.9333C32.9233 13.8337 34.23 13.8744 34.9521 13.8744C35.8372 13.8744 36.8179 13.7254 37.7858 12.8951C38.9307 11.9119 39.0797 10.3046 39.0797 8.79548V7.33853C39.0797 5.26772 39.0797 4.88565 39.1065 4.45136C39.1319 3.97632 39.2389 3.74708 39.6082 3.67449C39.9661 3.60699 40.3673 3.6261 40.608 3.67449C41.0576 3.76619 41.1671 3.98779 41.1938 4.45136C41.2206 4.88565 41.2206 5.26899 41.2206 7.33853V9.73409C41.2206 10.9847 41.2206 12.0622 41.1531 12.634C41.0996 13.0301 41.0334 13.3294 40.7595 13.3841C40.6347 13.4109 40.4717 13.4376 40.2692 13.4376C40.1062 13.4376 40.0502 13.4796 40.0502 13.5471C40.0502 13.6439 40.1457 13.6821 40.3227 13.6821C40.5953 13.6821 40.9506 13.6592 41.2639 13.6592C41.5886 13.6439 41.8879 13.6439 42.0395 13.6439C42.242 13.6439 42.6508 13.6592 43.0596 13.6821C43.4557 13.6987 43.8518 13.7254 44.0135 13.7254C46.5199 13.7254 47.6482 12.2137 47.6482 10.7555C47.6482 9.16354 46.2868 8.19691 45.1699 7.81356V7.81611Z" fill="#007237"/>
<path fill-rule="evenodd" clip-rule="evenodd" d="M54.6289 4.20426C54.6289 4.05271 54.6544 3.99794 54.7499 3.96992C54.8874 3.94445 55.011 3.94445 55.202 3.94445C56.3775 3.94445 56.9124 5.14797 56.9124 6.06366C56.9124 6.73482 56.7061 7.22897 56.3508 7.51424C56.1177 7.72056 55.8184 7.77405 55.365 7.77405C55.0517 7.77405 54.8454 7.76131 54.7231 7.7333C54.6684 7.71929 54.6302 7.69254 54.6302 7.58047V4.20426H54.6289ZM52.9847 9.75571C52.9847 11.014 52.9847 12.0965 52.9172 12.6696C52.8612 13.0695 52.795 13.365 52.5224 13.421C52.3976 13.4478 52.2346 13.4771 52.027 13.4771C51.864 13.4771 51.8131 13.5178 51.8131 13.5879C51.8131 13.6808 51.906 13.7229 52.0856 13.7229C52.6332 13.7229 53.4929 13.6808 53.8024 13.6808C54.2201 13.6808 55.4631 13.7649 55.7891 13.7649C58.3057 13.7649 59.4442 12.2442 59.4442 10.7835C59.4442 9.18388 58.0752 8.21343 56.9532 7.82754C57.7071 7.23024 58.349 6.56035 58.349 5.43707C58.349 4.71241 57.9121 3.38281 55.4351 3.38281C54.9689 3.38281 54.4353 3.42357 53.7654 3.42357C53.4929 3.42357 52.6332 3.38281 51.906 3.38281C51.6997 3.38281 51.6055 3.4121 51.6055 3.50762C51.6055 3.60314 51.687 3.63243 51.8398 3.63243C52.0283 3.63243 52.2601 3.64389 52.3709 3.67191C52.8243 3.77125 52.9338 3.98521 52.9605 4.4526C52.986 4.88944 52.986 5.27278 52.986 7.35505V9.75826L52.9847 9.75571ZM57.7631 11.3986C57.7631 12.8212 56.7201 13.1498 56.1062 13.1498C55.7891 13.1498 55.4745 13.1345 55.1052 12.9829C54.6684 12.8072 54.6289 12.5766 54.6289 11.6711V8.43121C54.6289 8.36371 54.6544 8.33569 54.7079 8.33569C54.9142 8.33569 55.0517 8.33569 55.2975 8.35097C55.8311 8.37644 56.1444 8.47196 56.431 8.67701C57.4728 9.40039 57.7631 10.5504 57.7631 11.3986Z" fill="#007237"/>
<path fill-rule="evenodd" clip-rule="evenodd" d="M64.4111 9.54689H61.9099C61.8551 9.54689 61.8424 9.50232 61.8551 9.44883L63.1045 6.107C63.1223 6.05224 63.1439 5.98347 63.1872 5.98347C63.2255 5.98347 63.2407 6.05224 63.2535 6.107L64.4786 9.46283C64.4914 9.50232 64.4786 9.54689 64.4111 9.54689ZM78.6737 3.48474C78.0051 3.48474 77.4906 3.52295 77.3403 3.52295C77.0538 3.52295 76.4017 3.48474 75.6949 3.48474C75.4924 3.48474 75.3396 3.50002 75.3396 3.60828C75.3396 3.69106 75.3956 3.72926 75.5573 3.72926C75.7497 3.72926 76.0757 3.72926 76.2795 3.81205C76.6068 3.94832 76.7265 4.2043 76.7418 5.03339L76.8768 11.135H76.8092C76.5762 10.9198 74.7461 8.95978 73.8189 8.03899C71.8334 6.0688 69.7677 3.85407 69.6034 3.67323C69.3729 3.42998 69.2519 3.25423 69.1017 3.25423C68.9654 3.25423 68.9259 3.44399 68.9259 3.7178L68.8011 11.7642C68.7871 12.946 68.6559 13.4478 68.3795 13.4478C67.8599 13.4478 67.7135 13.1154 67.241 11.9921C66.3699 9.92768 64.1972 4.38005 63.8673 3.6312C63.7323 3.31918 63.6495 3.19946 63.5311 3.19946C63.3948 3.19946 63.3108 3.3472 63.1465 3.742L59.7372 12.2787C59.4646 12.9562 59.2048 13.4185 58.5808 13.5013C58.4687 13.5153 58.4611 13.5255 58.3363 13.5255C58.228 13.5255 58.1758 13.5548 58.1758 13.6388C58.1758 13.7445 58.2573 13.77 58.4356 13.77C59.1348 13.77 59.7104 13.7344 59.8582 13.7344C60.2848 13.7344 60.8655 13.77 61.2998 13.77C61.4514 13.77 61.5291 13.7445 61.5291 13.6388C61.5291 13.5561 61.4909 13.5255 61.3291 13.5255H61.1241C60.7013 13.5255 60.5803 13.351 60.5803 13.1078C60.5803 12.9435 60.6503 12.6174 60.7828 12.2787L61.5176 10.3352C61.5444 10.255 61.5724 10.2244 61.6424 10.2244H64.6722C64.7372 10.2244 64.783 10.255 64.8098 10.3212L65.8974 13.1995C65.9623 13.365 65.8706 13.4886 65.7738 13.5153C65.6376 13.5255 65.5815 13.5548 65.5815 13.6376C65.5815 13.7331 65.7446 13.7331 65.9916 13.7433C67.0792 13.7687 68.0714 13.7687 68.5604 13.7687C68.8661 13.7687 70.1256 13.7611 71.0056 13.7611C71.1967 13.7611 71.3202 13.7356 71.3202 13.6248C71.3202 13.5446 71.2387 13.5153 71.091 13.5153C70.8706 13.5153 70.6172 13.5064 70.3829 13.4211C70.1116 13.3306 69.9358 12.9728 69.9065 11.9119L69.7614 6.20507H69.7983C70.0441 6.46105 71.552 8.16253 73.0344 9.63095C74.4493 11.0306 76.1852 12.8085 77.0487 13.6248C77.1964 13.7738 77.3582 13.9228 77.5072 13.9228C77.6307 13.9228 77.6842 13.8031 77.6842 13.5051L77.8332 4.92641C77.8485 4.16355 77.9555 3.87827 78.3388 3.77257C78.5056 3.72799 78.6113 3.72799 78.7463 3.72799C78.9081 3.72799 78.9883 3.68978 78.9883 3.607C78.9883 3.49748 78.8546 3.48347 78.6801 3.48347L78.6737 3.48474Z" fill="#007237"/>
<path fill-rule="evenodd" clip-rule="evenodd" d="M81.7674 7.40974C81.7674 5.34403 81.7674 4.96196 81.7929 4.52895C81.8209 4.05263 81.9279 3.82212 82.2959 3.75335C82.4589 3.7266 82.5392 3.71132 82.678 3.71132C82.785 3.71132 82.8678 3.68585 82.8678 3.59033C82.8678 3.49482 82.771 3.4668 82.5838 3.4668C82.1189 3.4668 81.2631 3.50755 80.937 3.50755C80.611 3.50755 79.7552 3.4668 79.0343 3.4668C78.8318 3.4668 78.7363 3.49227 78.7363 3.59033C78.7363 3.6884 78.8166 3.71132 78.9656 3.71132C79.1566 3.71132 79.3871 3.7266 79.4954 3.75335C79.9437 3.84887 80.0545 4.06664 80.0812 4.52895C80.1092 4.96196 80.1092 5.34403 80.1092 7.40974V9.80149C80.1092 11.0509 80.1092 12.1245 80.0392 12.6937C79.9857 13.0911 79.9169 13.3891 79.6457 13.4426C79.5234 13.4681 79.3616 13.4986 79.1566 13.4986C78.991 13.4986 78.9376 13.5381 78.9376 13.6056C78.9376 13.7011 79.0331 13.7406 79.2101 13.7406C79.7539 13.7406 80.611 13.7011 80.9243 13.7011C81.2618 13.7011 82.1189 13.7406 82.8818 13.7406C83.0308 13.7406 83.1403 13.7011 83.1403 13.6056C83.1403 13.5381 83.0703 13.4986 82.9633 13.4986C82.785 13.4986 82.4857 13.4681 82.2959 13.4426C81.9559 13.3891 81.8349 13.0911 81.8069 12.7078C81.7674 12.1245 81.7674 11.0521 81.7674 9.80149V8.56486H81.8349L81.9826 8.76608C82.2692 9.15961 84.9462 12.3002 85.5448 12.83C86.1306 13.3484 86.4974 13.6464 87.2297 13.7126C87.5163 13.7406 87.7608 13.7406 88.1696 13.7406H89.3502C89.61 13.7406 89.6775 13.7011 89.6775 13.6056C89.6775 13.5241 89.5947 13.4986 89.4979 13.4986C89.3362 13.4986 89.0636 13.4541 88.6574 13.2923C87.9213 13.0083 87.3099 12.397 86.7114 11.8252C86.1841 11.3208 83.5198 8.45533 83.0308 7.81473C83.4931 7.32696 85.5448 5.29054 85.9651 4.88172C86.5509 4.31117 87.0132 4.02334 87.4335 3.8616C87.6933 3.76863 88.0333 3.71259 88.2218 3.71259C88.3568 3.71259 88.4256 3.68712 88.4256 3.59161C88.4256 3.49609 88.3326 3.46807 88.1951 3.46807C87.7722 3.46807 87.0247 3.50882 86.6057 3.50882C86.2363 3.50882 85.4913 3.46807 85.2047 3.46807C85.0532 3.46807 84.987 3.49354 84.987 3.59161C84.987 3.66929 85.0405 3.69859 85.1653 3.72788C85.299 3.75462 85.3538 3.85014 85.3538 3.99787C85.3538 4.22966 85.0532 4.56843 84.6737 5.01672C84.2801 5.4803 82.2959 7.50398 81.8349 8.00831H81.7674V7.40847V7.40974Z" fill="#007237"/>
<path fill-rule="evenodd" clip-rule="evenodd" d="M92.7499 9.52524C92.699 9.52524 92.685 9.48321 92.6977 9.42845L93.9433 6.09936C93.956 6.04332 93.9853 5.97455 94.026 5.97455C94.0668 5.97455 94.0783 6.04205 94.091 6.09936L95.3111 9.44118C95.3238 9.48194 95.3111 9.52397 95.2423 9.52397H92.7487L92.7499 9.52524ZM95.5021 10.2002C95.5696 10.2002 95.6104 10.227 95.6358 10.297L96.7196 13.1664C96.7884 13.3306 96.6916 13.4504 96.5974 13.4784C96.4611 13.4924 96.4089 13.5191 96.4089 13.6006C96.4089 13.6936 96.5706 13.6936 96.8164 13.7089C97.8977 13.7382 98.8885 13.7382 99.3737 13.7382C99.8589 13.7382 99.9978 13.7089 99.9978 13.6006C99.9978 13.5064 99.9303 13.4924 99.8207 13.4924C99.6577 13.4924 99.4552 13.4784 99.2515 13.4363C98.97 13.3587 98.5752 13.1676 98.0594 11.9539C97.1908 9.90349 95.0271 4.37878 94.701 3.63375C94.566 3.32172 94.4858 3.19946 94.3648 3.19946C94.2285 3.19946 94.147 3.3472 93.9853 3.742L90.5836 12.2456C90.3136 12.9231 90.0564 13.3841 89.4336 13.4631C89.3253 13.4784 89.1356 13.4924 89.0146 13.4924C88.9063 13.4924 88.8516 13.5191 88.8516 13.6006C88.8516 13.7089 88.9331 13.7382 89.1101 13.7382C89.8144 13.7382 90.5556 13.6936 90.7071 13.6936C91.1261 13.6936 91.7094 13.7382 92.1424 13.7382C92.2915 13.7382 92.3717 13.7089 92.3717 13.6006C92.3717 13.5191 92.3309 13.4924 92.1705 13.4924H91.9667C91.5477 13.4924 91.4242 13.3166 91.4242 13.0721C91.4242 12.9104 91.4891 12.5843 91.6279 12.2456L92.3602 10.311C92.3857 10.227 92.4137 10.2002 92.4799 10.2002H95.5008H95.5021Z" fill="#007237"/>
<path fill-rule="evenodd" clip-rule="evenodd" d="M33.6035 2.15124C33.6035 2.04553 33.7716 2.00096 33.9232 1.87997C34.6211 1.37946 35.468 0.517257 35.6043 0.332591C35.7546 0.119906 35.7698 0.00146484 35.8463 0.00146484C35.9214 0.00146484 35.966 0.0307567 36.1328 0.105897C36.3315 0.197593 36.86 0.392448 37.1478 0.485418C37.2688 0.515983 37.3465 0.545275 37.3465 0.619142C37.3465 0.710838 37.1326 0.877675 36.8473 0.999937C36.5887 1.1222 33.9983 2.25567 33.7729 2.25567C33.7105 2.25567 33.6048 2.22765 33.6048 2.14996L33.6035 2.15124Z" fill="#007237"/>
</g>
<defs>
<clipPath id="clip0_876_100493">
<rect width="100" height="15.9972" fill="white" transform="translate(0 0.00146484)"/>
</clipPath>
</defs>
</svg>
