<svg width="72" height="55" viewBox="0 0 72 55" fill="none" xmlns="http://www.w3.org/2000/svg">
<path fill-rule="evenodd" clip-rule="evenodd" d="M1.38045 2.18257e-06C0.619887 2.18257e-06 0 0.615914 0 1.37199C0.694914 21.0625 16.3095 36.973 35.9504 38.2728C36.8096 38.3292 37.6757 38.2924 38.5497 38.2924C41.3415 38.2924 44.2428 37.8042 46.8627 37.2315C55.3457 35.3783 61.6286 27.891 61.6286 18.8381C61.6283 18.2214 61.598 17.605 61.5379 16.9913C61.4281 15.8791 61.2195 14.7789 60.9147 13.7036C58.6665 5.79545 51.3559 2.18257e-06 42.6832 2.18257e-06C34.0096 2.18257e-06 26.6999 5.79545 24.4518 13.7036C26.005 19.1583 29.9669 23.6053 35.1227 25.8394C33.4025 24.0043 32.3491 21.5437 32.3491 18.8381C32.3491 13.1635 36.976 8.56268 42.6832 8.56268C48.3902 8.56268 53.0171 13.1635 53.0171 18.8381C53.0171 21.5437 51.9631 24.0043 50.2438 25.8394C48.3569 27.8536 45.6686 29.1135 42.6832 29.1135C34.2892 29.1135 27.0644 24.1375 23.8283 16.9913C23.3472 15.9294 22.9584 14.8283 22.6662 13.6999C22.2327 12.0219 22.0138 10.2957 22.0149 8.56268C22.0149 6.09359 22.4542 3.7266 23.2574 1.53359C23.2937 1.43331 23.333 1.33333 23.3711 1.23334C23.3851 1.16689 23.3932 1.09801 23.3932 1.02703C23.3924 0.753999 23.2831 0.492454 23.0893 0.299875C22.8954 0.107296 22.6329 -0.000559461 22.3595 2.18257e-06H1.38347" fill="#FFCE34"/>
<path fill-rule="evenodd" clip-rule="evenodd" d="M70.9733 1.03609C71.6317 3.49088 71.9644 6.02138 71.9628 8.56268C71.9628 17.367 68.0318 25.2579 61.8205 30.5966C60.2688 31.7653 58.944 32.9219 56.3525 34.2918C61.0512 29.881 63.3519 24.7087 63.3519 18.8381C63.3519 17.064 63.1253 15.3426 62.7002 13.6999C63.134 12.0219 63.353 10.2957 63.3519 8.56268C63.3544 6.10631 62.9129 3.66965 62.0486 1.36987C62.0109 1.25965 61.9924 1.14379 61.9938 1.02733C61.9938 0.460048 62.4564 0.000302067 63.0267 0H69.6388C70.272 0 70.8126 0.457931 70.9733 1.03609Z" fill="#FFCE34"/>
<path d="M6.42913 41.8549L5.21478 43.1737H3.61741L2.45569 41.8549V41.355H3.7357L4.47539 41.8549L5.20146 41.355H6.42913V41.8549ZM0.0263672 48.304C0.0263672 45.2858 1.92717 43.5187 4.77913 43.5187C6.07275 43.5187 6.86448 43.7815 7.55123 44.1772V45.9307H6.57435C6.23098 45.6147 5.67674 45.3247 4.84478 45.3247C3.44557 45.3247 2.61391 46.2606 2.61391 48.2113C2.61391 50.32 3.33999 51.2169 4.72619 51.2169C5.71637 51.2169 6.28422 50.848 6.73318 50.4128H7.63079V52.0862C6.93073 52.6006 5.94085 52.9833 4.56766 52.9833C1.79466 52.9833 0.0263672 51.2963 0.0263672 48.304ZM10.4274 49.9122C10.5466 51.0842 11.1005 51.3884 12.0641 51.3884C12.8428 51.3884 13.4246 51.164 13.8336 50.8737H14.5727V52.2835C13.9655 52.6263 13.1468 52.9694 11.6947 52.9694C9.27838 52.9694 8.02438 51.6256 8.02438 49.4371C8.02438 47.2096 9.47623 45.8117 11.5758 45.8117C13.741 45.8117 14.8501 46.9598 14.8501 49.3051C14.8501 49.5815 14.8238 49.8322 14.8238 49.9122H10.4274ZM10.4401 48.6732H12.6056C12.566 47.6044 12.209 47.2625 11.5758 47.2625C11.0352 47.2625 10.5726 47.5389 10.4401 48.6732ZM15.4518 52.4028V50.848H16.2575C16.5346 51.0978 17.1157 51.3619 17.8678 51.3619C18.5016 51.3619 18.8977 51.2169 18.8977 50.861C18.8977 50.4916 18.6599 50.3726 17.6963 50.2418C16.2181 50.0566 15.3856 49.5422 15.3856 48.0923C15.3856 46.5771 16.5739 45.8259 18.3171 45.8259C19.425 45.8259 20.0727 46.0095 20.6669 46.2865V47.8162H19.9148C19.5977 47.6047 19.0828 47.3945 18.3827 47.3945C17.7232 47.3945 17.4721 47.5652 17.4721 47.8944C17.4721 48.1853 17.7753 48.33 18.6599 48.4351C20.2845 48.6333 21.0632 49.1202 21.0632 50.5979C21.0632 52.0732 20.086 52.9571 17.9607 52.9571C16.7454 52.9571 16.0191 52.6931 15.4518 52.4028ZM24.0776 48.5016L26.2428 45.9177H28.2229V46.4844L26.3088 48.6593L28.487 52.2967V52.8646H26.2558L24.6454 50.162L24.0776 50.7816V52.8643H21.7012V43.583H23.206C23.9327 43.583 24.0773 43.7685 24.0773 44.8224L24.0776 48.5016ZM32.8555 52.2052C32.3673 52.7456 31.7201 52.9571 30.8625 52.9571C29.6342 52.9571 28.6576 52.2581 28.6576 50.8873C28.6576 49.4241 29.7791 48.7251 31.3901 48.7251C31.9183 48.7251 32.3276 48.7777 32.7239 48.8577V48.3829C32.7239 47.7763 32.4069 47.4999 31.5486 47.4999C30.8625 47.4999 30.2949 47.6972 29.8983 47.9609H29.1852V46.366C29.8323 46.089 30.7696 45.8126 32.0109 45.8126C34.0832 45.8126 35.0994 46.4977 35.0994 48.2107V52.8646H33.8061C33.2516 52.8646 32.9877 52.6674 32.8555 52.2052ZM32.7239 49.9645C32.4663 49.9212 32.2056 49.8989 31.9443 49.8977C31.3105 49.8977 30.9151 50.149 30.9151 50.7284C30.9151 51.3223 31.2842 51.5724 31.7997 51.5724C32.1558 51.5724 32.4728 51.402 32.7239 51.19V49.9645ZM31.3105 45.4697V45.0345L31.7468 43.5972H34.0303V44.1651L32.6973 45.4697H31.3105ZM41.5766 52.3106V54.9999H39.2002V45.918H40.8508C41.2072 45.918 41.4184 46.0494 41.5116 46.6689C42.025 46.1817 42.6987 45.8126 43.6489 45.8126C44.9698 45.8126 46.2767 46.6689 46.2767 49.2006C46.2767 51.8503 44.824 52.7982 43.2808 52.7982C42.5281 52.7982 41.9862 52.6266 41.5766 52.3109M41.5766 47.8026V50.993C41.8413 51.177 42.1445 51.2706 42.5405 51.2706C43.2665 51.2706 43.8737 50.9399 43.8737 49.4111C43.8737 47.9207 43.2932 47.5794 42.5798 47.5794C42.2897 47.5794 41.8934 47.6709 41.5766 47.8026ZM46.8025 49.4241C46.8025 47.196 48.4126 45.8117 50.5122 45.8117C52.5978 45.8117 54.2088 47.196 54.2088 49.4241C54.2088 51.6385 52.5978 52.9694 50.5122 52.9694C48.4126 52.9694 46.8025 51.6385 46.8025 49.4241ZM51.8064 49.4507C51.8064 48.066 51.2785 47.4335 50.5122 47.4335C49.7331 47.4335 49.2046 48.066 49.2046 49.4507C49.2046 50.8212 49.7331 51.415 50.5122 51.415C51.2788 51.415 51.8064 50.8212 51.8064 49.4507ZM54.7083 52.4028V50.848H55.5136C55.7907 51.0978 56.3719 51.3619 57.1246 51.3619C57.7572 51.3619 58.1541 51.2169 58.1541 50.861C58.1541 50.4916 57.9166 50.3726 56.9521 50.2418C55.4737 50.0566 54.6417 49.5422 54.6417 48.0923C54.6417 46.5771 55.8307 45.8259 57.5732 45.8259C58.6823 45.8259 59.3288 46.0095 59.923 46.2865V47.8162H59.1697C58.8542 47.6047 58.3386 47.3945 57.6389 47.3945C56.9785 47.3945 56.7286 47.5652 56.7286 47.8944C56.7286 48.1853 57.0311 48.33 57.9166 48.4351C59.5412 48.6333 60.3193 49.1202 60.3193 50.5979C60.3193 52.0732 59.3421 52.9571 57.216 52.9571C56.0022 52.9571 55.2758 52.6931 54.7083 52.4028ZM59.5143 44.0984L58.299 45.4697H56.7016L55.5405 44.0984V43.5972H56.8202L57.5593 44.1515L58.286 43.5972H59.5143V44.0984ZM60.6333 45.918H61.3857V44.1515H63.7627V45.918H65.0563V47.4474H63.7627V50.61C63.7627 51.2304 64.0002 51.428 64.6219 51.428H65.0824V52.7982C64.7656 52.8906 64.3173 52.9836 63.7231 52.9836C62.2973 52.9836 61.3857 52.4819 61.3857 50.9664V47.4474H60.6333V45.918ZM69.7562 52.2052C69.2661 52.7456 68.6202 52.9571 67.7616 52.9571C66.5351 52.9571 65.5573 52.2581 65.5573 50.8873C65.5573 49.4241 66.6791 48.7251 68.2901 48.7251C68.8177 48.7251 69.2273 48.7777 69.6231 48.8577V48.3829C69.6231 47.7763 69.3072 47.4999 68.4489 47.4999C67.7616 47.4999 67.1943 47.6972 66.798 47.9609H66.085V46.366C66.7324 46.089 67.6699 45.8126 68.9106 45.8126C70.9835 45.8126 72 46.4977 72 48.2107V52.8646H70.7067C70.1522 52.8646 69.8878 52.6674 69.7562 52.2052ZM69.6231 51.19V49.9645C69.3659 49.9212 69.1057 49.8988 68.8449 49.8977C68.2111 49.8977 67.8151 50.149 67.8151 50.7284C67.8151 51.3223 68.1848 51.5724 68.7003 51.5724C69.0564 51.5724 69.372 51.402 69.6231 51.19Z" fill="#11377D"/>
</svg>
