<svg width="100" height="14" viewBox="0 0 100 14" fill="none" xmlns="http://www.w3.org/2000/svg">
<path d="M21.2695 4.17511H23.9663V13.8211H28.7063V4.17511H31.3905V0.0477037H21.2695V4.17511ZM3.32526 9.6937H0V13.8211H4.83684C5.05416 13.8348 5.27215 13.8348 5.48947 13.8211C6.20706 13.7181 6.86486 13.3693 7.34737 12.8359C7.82921 12.3033 8.10487 11.6202 8.12579 10.907V0.0466667H3.38579L3.32526 9.6937ZM20.7621 8.83711V7.75444H19.3105V9.62267L13.7605 5.1857C13.4326 4.98498 13.1675 4.69868 12.9947 4.35856C12.8219 4.01844 12.7481 3.63781 12.7816 3.25889C12.7816 1.45081 13.9905 1.3917 15.4895 1.3917C17.5816 1.3917 17.8358 1.73652 17.9079 3.48496V4.23422H19.4921V3.48496C19.4921 0.582815 18.0774 0.0119259 15.5379 0.0119259C12.7932 0.0119259 11.2453 0.547037 11.2453 3.25889C11.1673 3.77895 11.2394 4.31013 11.4533 4.79176C11.6671 5.27339 12.0142 5.68607 12.4547 5.98267C10.6653 6.47007 9.60105 6.38711 9.60105 9.71756C9.60105 14.0119 11.8137 14 14.9216 14C17.1584 14 19.3347 14 20.1332 12.2039L22.2126 13.8807L23.0716 12.7986L20.5321 10.8241C20.6553 10.1889 20.7121 9.54333 20.7016 8.89726L20.7616 8.83763L20.7621 8.83711ZM14.9211 12.6202C11.62 12.6202 11.1842 12.418 11.1842 9.74141C11.1842 7.55326 11.39 7.27948 13.4458 6.81541L18.9232 11.1331C18.5847 12.6441 16.4326 12.5129 14.9332 12.5129L14.9211 12.6202ZM44.3647 6.56548C45.6826 6.06615 45.9732 5.07889 45.9732 3.69911C46.0652 2.74136 45.8357 1.78032 45.32 0.963407C44.9867 0.613478 44.5743 0.345967 44.1163 0.18262C43.6583 0.0192725 43.1676 -0.0353017 42.6842 0.0233333H35.5984V13.8211H43.0353C43.5147 13.861 43.997 13.7905 44.444 13.615C44.891 13.4395 45.2904 13.1639 45.6105 12.81C46.183 11.9653 46.4514 10.9558 46.3726 9.94311C46.3726 8.32533 46.0942 6.98133 44.3653 6.58881V6.56496L44.3647 6.56548ZM37.3158 1.61778H41.9589C43.6032 1.61778 44.2326 1.7723 44.2563 3.58037C44.2563 5.69748 43.6637 6.03037 41.8379 6.05422H37.3526L37.3158 1.61778ZM42.1526 12.3226H37.3158V7.56467H42.5274C44.4621 7.56467 44.6674 8.39741 44.68 10.1697C44.68 12.2277 43.93 12.3584 42.2611 12.3822L42.1526 12.3226ZM52.1526 0.118741L47.0495 13.8927H48.8511L49.9274 11.0024H56.82L57.9079 13.8927H59.6858L54.4621 0.118741H52.1526ZM50.399 9.63459L53.2768 1.61778L56.2637 9.52726L50.399 9.63459ZM94.9216 0.118741H92.6L87.5332 13.8097L80.4474 6.79156L86.8563 0.118741H84.5947L78.9479 6.06615H77.7389V0.118741H76.0216V13.8216H77.5937V7.56467H78.8032L85.139 13.8688H89.1537L90.23 10.9786H97.1221L98.2105 13.8688H100L94.9216 0.118741ZM90.8584 9.63459L93.7363 1.61778L96.7111 9.52726L90.8584 9.63459ZM71.1853 12.3226L63.5189 0H60.81V13.8211H62.5274V1.61778L70.23 13.8455H72.9021V0.0477037H71.1853V12.3226Z" fill="black"/>
</svg>
