<svg width="100" height="37" viewBox="0 0 100 37" fill="none" xmlns="http://www.w3.org/2000/svg">
<g clip-path="url(#clip0_174_4360)">
<path d="M97.2699 0.988281H2.73011C1.22231 0.988281 0 2.21059 0 3.71839V33.2816C0 34.7894 1.22231 36.0117 2.73011 36.0117H97.2699C98.7777 36.0117 100 34.7894 100 33.2816V3.71839C100 2.21059 98.7777 0.988281 97.2699 0.988281Z" fill="#2870ED"/>
<path d="M18.1653 12.6638C19.723 12.6638 20.6169 12.833 20.6169 13.521V14.1856H18.3346C17.6583 14.1856 17.3923 14.3908 17.3923 14.7777C17.3923 15.8284 21.0272 15.6474 21.0272 18.2316C21.0272 19.4633 20.2667 20.514 18.0569 20.514C16.6684 20.514 15.521 20.3206 15.521 19.6568V18.993H18.1419C18.8299 18.993 19.1684 18.7753 19.1684 18.3291C19.1684 17.1942 15.546 17.3627 15.546 14.7301C15.546 13.571 16.3673 12.6653 18.1669 12.6653L18.1653 12.6638ZM21.8478 13.3884C21.8478 12.954 22.0413 12.7246 22.4882 12.7246H23.599V18.9797H26.8353V19.8252C26.8353 20.2597 26.606 20.4532 26.1591 20.4532H22.4882C22.0413 20.4532 21.8478 20.2238 21.8478 19.7894V13.3892V13.3884ZM26.8837 16.5889C26.8837 13.8479 28.0553 12.6646 30.1801 12.6646C32.3049 12.6646 33.4773 13.8479 33.4773 16.5889C33.4773 19.3299 32.3182 20.514 30.1801 20.514C28.0421 20.514 26.8837 19.3307 26.8837 16.5889ZM28.6832 16.5889C28.6832 18.4727 29.2144 19.0764 30.1809 19.0764C31.1474 19.0764 31.6786 18.4727 31.6786 16.5889C31.6786 14.7051 31.1474 14.1014 30.1809 14.1014C29.2144 14.1014 28.6832 14.7051 28.6832 16.5889ZM36.9664 18.6661H37.0148L38.4641 13.0023C38.5366 12.7488 38.6333 12.7246 38.9469 12.7246H40.3353C40.3353 12.7972 40.3236 12.8939 40.2995 13.0148L38.3073 20.1763C38.2347 20.4423 38.0779 20.4781 37.7636 20.4781H36.1692C35.8549 20.4781 35.6981 20.4423 35.638 20.1763L33.6575 13.0148C33.6333 12.9064 33.6216 12.7972 33.6216 12.7246H35.0226C35.3244 12.7246 35.4329 12.7488 35.4937 13.0023L36.9672 18.6661H36.9664ZM40.879 13.3884C40.879 12.954 41.0725 12.7246 41.5194 12.7246H45.9149V13.5702C45.9149 14.0047 45.6856 14.2106 45.2269 14.2106H42.6302V15.8167H45.468V17.2051H42.6302V18.9805H45.975V19.826C45.975 20.2605 45.7456 20.454 45.2987 20.454H41.5187C41.0717 20.454 40.8783 20.2246 40.8783 19.7901V13.39L40.879 13.3884ZM51.5421 17.8565C51.5062 17.0717 51.5062 16.468 51.5062 15.4898V12.7246H53.0764V19.8861C53.0764 20.248 52.9071 20.4781 52.4602 20.4781H51.5179C51.2035 20.4781 51.0709 20.4423 50.9141 20.1521L48.2573 15.3213H48.2215C48.2573 16.2753 48.2573 16.7582 48.2573 17.4953V20.454H46.6871V13.3408C46.6871 12.9423 46.9048 12.7004 47.3517 12.7004H48.2456C48.5592 12.7004 48.6926 12.7363 48.8619 13.0265L51.4945 17.8572H51.5428L51.5421 17.8565ZM56.5171 12.6638C58.0748 12.6638 58.9687 12.833 58.9687 13.521V14.1856H56.6864C56.0101 14.1856 55.7441 14.3908 55.7441 14.7777C55.7441 15.8284 59.379 15.6474 59.379 18.2316C59.379 19.4633 58.6185 20.514 56.4087 20.514C55.0202 20.514 53.8728 20.3206 53.8728 19.6568V18.993H56.4937C57.1817 18.993 57.5202 18.7753 57.5202 18.3291C57.5202 17.1942 53.8977 17.3627 53.8977 14.7301C53.8977 13.571 54.7191 12.6653 56.5187 12.6653L56.5171 12.6638ZM61.9508 16.2987L64.1973 13.0507C64.3783 12.773 64.475 12.7246 64.7043 12.7246H66.3229C66.3229 12.833 66.2987 12.9298 66.2144 13.0507L63.7269 16.468L66.3353 20.1271C66.3954 20.2238 66.4438 20.3447 66.4438 20.4532H64.8977C64.56 20.4532 64.4508 20.429 64.2332 20.1029L61.9508 16.8908V20.4532H60.1996V13.3884C60.1996 12.954 60.3931 12.7246 60.84 12.7246H61.9508V16.2995V16.2987ZM70.6817 12.7004C70.996 12.7004 71.1403 12.7363 71.2129 13.0023L73.1809 20.1638C73.2051 20.2722 73.2168 20.3814 73.2168 20.454H71.8283C71.5148 20.454 71.418 20.4423 71.3455 20.1763L70.911 18.5343H68.7979L68.3634 20.1763C68.3034 20.4423 68.2066 20.454 67.8923 20.454H66.5038C66.5038 20.3814 66.5155 20.2847 66.5397 20.1638L68.5202 13.0023C68.5928 12.7363 68.7378 12.7004 69.0514 12.7004H70.6817ZM69.0873 17.2051H70.5967L69.872 14.5125H69.8119L69.0873 17.2051ZM70.4999 12.1092C70.3431 12.2784 70.2581 12.2901 70.1013 12.2901H69.4009C69.4009 12.2418 69.4009 12.1692 69.4492 12.1092L70.4633 10.8775C70.6084 10.7082 70.6926 10.6724 70.8377 10.6724H71.5257C71.6224 10.6724 71.6708 10.7082 71.6708 10.7566C71.6708 10.8167 71.6466 10.865 71.5499 10.9742L70.4992 12.1092H70.4999Z" fill="white"/>
<path d="M75.4735 18.3774H82.3713V17.4516H75.4868C75.4813 17.3447 75.4844 15.2565 75.4704 14.2916C75.4587 13.4687 76.0203 12.6676 77.0819 12.6856C79.0164 12.7175 80.9532 12.7175 82.8877 12.684C83.7216 12.6692 84.4805 13.2815 84.4798 14.2776C84.4798 14.4165 84.479 14.5865 84.479 14.7667H77.5749V15.6707L84.479 15.6692C84.479 15.7932 84.4813 17.8845 84.479 18.8572C84.4759 19.8361 83.8487 20.4516 82.8581 20.4523H77.1014C76.103 20.4523 75.4782 19.8299 75.4743 18.8322V18.3774M79.9844 11.7191C79.1685 11.7191 78.5086 11.0467 78.5133 10.2214C78.5172 9.41021 79.1802 8.75108 79.9899 8.75342C80.7988 8.75498 81.4602 9.41723 81.4618 10.2277C81.4634 11.0514 80.8011 11.7207 79.9844 11.7199" fill="white"/>
<path d="M16.8627 23.106C17.5444 23.106 18.0062 23.127 18.0062 23.4679V23.6738H16.8557C16.5359 23.6738 16.344 23.8088 16.344 24.0077C16.344 24.6754 18.1911 24.4835 18.1911 25.684C18.1911 26.2667 17.8143 26.7284 16.7348 26.7284C16.1029 26.7284 15.5203 26.7284 15.5203 26.4016V26.1598H16.7987C17.2246 26.1598 17.4095 26.0319 17.4095 25.7479C17.4095 25.1442 15.5554 25.2511 15.5554 24.0576C15.5554 23.4609 16.0382 23.106 16.8627 23.106ZM19.4415 27.7589H18.6958V23.1419H19.0866C19.3494 23.1419 19.4415 23.2838 19.4415 23.4547V23.5537C19.6544 23.3197 19.9883 23.106 20.4072 23.106C21.3019 23.106 21.7075 23.8018 21.7075 24.9172C21.7075 26.0327 21.3026 26.7284 20.4072 26.7284C19.9883 26.7284 19.6544 26.5155 19.4415 26.2877V27.7581V27.7589ZM20.1451 23.6957C19.8682 23.6957 19.6334 23.8096 19.4415 23.9586V25.8696C19.6334 26.0186 19.8674 26.1325 20.1451 26.1325C20.7207 26.1325 20.9337 25.7136 20.9337 24.918C20.9337 24.1224 20.7207 23.6965 20.1451 23.6965V23.6957ZM22.1334 24.9172C22.1334 23.9227 22.4953 23.106 23.6958 23.106C24.8962 23.106 25.2582 23.9227 25.2582 24.9172C25.2582 25.9118 24.8962 26.7284 23.6958 26.7284C22.4953 26.7284 22.1334 25.9118 22.1334 24.9172ZM24.4914 24.9172C24.4914 24.0935 24.3065 23.6387 23.6958 23.6387C23.085 23.6387 22.9072 24.0935 22.9072 24.9172C22.9072 25.7409 23.085 26.1957 23.6958 26.1957C24.3065 26.1957 24.4914 25.7479 24.4914 24.9172ZM25.8479 26.6933V23.1419H26.2387C26.4805 23.1419 26.5795 23.3197 26.5936 23.5896C26.8845 23.2128 27.2543 23.1068 27.5382 23.1068C27.6661 23.1068 27.7941 23.1426 27.7941 23.2846V23.8384H27.6162C27.0694 23.8384 26.8065 23.9523 26.5936 24.1013V26.6941H25.8479V26.6933ZM28.8385 22.7721H28.0928V22.3603C28.0928 22.1333 28.1778 22.0054 28.4126 22.0054H28.8385V22.7729V22.7721ZM28.0928 23.1411H28.5117C28.7465 23.1411 28.8385 23.269 28.8385 23.496V26.6926H28.0928V23.1411ZM30.5218 23.1419H31.3175V23.6957H30.5218V25.7628C30.5218 26.0397 30.5577 26.1465 30.7987 26.1465H31.3175V26.3314C31.3175 26.6294 31.0616 26.7152 30.6568 26.7152C29.8471 26.7152 29.7761 26.2823 29.7761 25.7635V23.6965H29.3073V23.2846L29.7761 23.1426L30.046 22.574C30.124 22.425 30.1809 22.3611 30.3159 22.3611H30.5218V23.1426V23.1419ZM34.3011 26.1606V26.3595C34.3011 26.6504 33.9103 26.7292 33.0507 26.7292C31.8572 26.7292 31.4883 25.9125 31.4883 24.918C31.4883 23.9235 31.8791 23.1068 33.0437 23.1068C33.9813 23.1068 34.4711 23.6465 34.4711 24.4492C34.4711 24.627 34.4711 24.762 34.4352 25.1169H32.2613C32.2613 25.8767 32.5452 26.1614 33.1349 26.1614H34.2995L34.3011 26.1606ZM33.7184 24.6192C33.7254 24.5553 33.7254 24.4274 33.7254 24.3494C33.7254 24.0295 33.5905 23.6387 33.0507 23.6387C32.5538 23.6387 32.2909 23.9227 32.2621 24.6192H33.7184ZM35.7855 26.6933H35.0398V22.3603C35.0398 22.1333 35.1248 22.0054 35.3596 22.0054H35.7855V26.6933ZM36.5312 22.7511C36.5101 22.8579 36.4243 22.8579 36.3253 22.8579H36.0483L36.1263 22.1263C36.1404 22.0124 36.2402 22.0054 36.3323 22.0054H36.5951C36.6451 22.0054 36.6872 22.0264 36.6872 22.0693C36.6872 22.0974 36.6802 22.1263 36.6661 22.1762L36.5312 22.7518V22.7511ZM37 26.6933V23.1419H37.3908C37.6536 23.1419 37.7457 23.2768 37.7457 23.4476V23.5545C38.0515 23.2347 38.4204 23.1068 38.7902 23.1068C39.5288 23.1068 39.8838 23.5545 39.8838 24.2082V26.6941H39.138V24.2433C39.138 23.8525 38.8892 23.6965 38.4914 23.6965C38.2215 23.6965 37.9446 23.8103 37.7457 23.9593V26.6941H37V26.6933ZM38.3424 22.8572C38.2504 22.8572 38.2005 22.8291 38.1154 22.7362L37.5187 22.0405C37.4828 22.0046 37.4828 21.9625 37.4828 21.9336H37.8097C37.9087 21.9336 37.9516 21.9547 38.0515 22.0405L38.4423 22.3743L38.8401 22.0405C38.9391 21.9554 38.982 21.9336 39.0741 21.9336H39.4009C39.4009 21.9617 39.4009 22.0046 39.3728 22.0405L38.7691 22.7362C38.6841 22.8283 38.6341 22.8572 38.5421 22.8572H38.3432H38.3424ZM42.9664 26.6933C42.7106 26.6933 42.6115 26.5584 42.6115 26.3876V26.2877C42.3058 26.6075 41.9079 26.7284 41.5741 26.7284C40.8994 26.7284 40.4805 26.3377 40.4805 25.7339C40.4805 24.8462 41.454 24.6044 42.6115 24.5545V24.2565C42.6115 23.8088 42.2917 23.6738 41.837 23.6738H40.7434V23.4679C40.7434 23.127 41.1693 23.106 41.9579 23.106C42.8385 23.106 43.3572 23.4757 43.3572 24.2214V26.6933H42.9664ZM42.6115 25.003C41.638 25.0171 41.2691 25.2089 41.2691 25.6278C41.2691 25.9976 41.539 26.1255 41.9009 26.1255C42.1638 26.1255 42.4337 26.0256 42.6115 25.8696V25.003Z" fill="white"/>
</g>
<defs>
<clipPath id="clip0_174_4360">
<rect width="100" height="35.0234" fill="white" transform="translate(0 0.988281)"/>
</clipPath>
</defs>
</svg>
