<svg width="104" height="23" viewBox="0 0 104 23" fill="none" xmlns="http://www.w3.org/2000/svg">
<path d="M14.1964 12.3807C13.614 12.3807 13.1404 12.8554 13.1404 13.439C13.1404 14.0227 13.614 14.4973 14.1964 14.4973C14.7788 14.4973 15.2524 14.0227 15.2524 13.439C15.2524 12.8554 14.7787 12.3807 14.1964 12.3807Z" fill="#004A80"/>
<path d="M3.76344 10.4958C3.21115 10.4958 2.76344 10.0481 2.76344 9.4958V2.94177C2.76344 2.38949 3.21115 1.94177 3.76344 1.94177H10.3156C10.8679 1.94177 11.3156 2.38949 11.3156 2.94177V9.4958C11.3156 10.0481 10.8679 10.4958 10.3156 10.4958H3.76344ZM3.61 8.69214C3.61 9.24443 4.05771 9.69214 4.61 9.69214H9.49601C10.0483 9.69214 10.496 9.24443 10.496 8.69214V3.79512C10.496 3.24284 10.0483 2.79512 9.49601 2.79512H4.61C4.05772 2.79512 3.61 3.24284 3.61 3.79512V8.69214Z" fill="#004A80"/>
<path fill-rule="evenodd" clip-rule="evenodd" d="M14.2369 10.4958C13.6846 10.4958 13.2369 10.0481 13.2369 9.49581V2.94178C13.2369 2.38949 13.6846 1.94178 14.2369 1.94178H20.789C21.3413 1.94178 21.789 2.38949 21.789 2.94178V9.49581C21.789 10.0481 21.3413 10.4958 20.789 10.4958H14.2369ZM20.9694 8.69215C20.9694 9.24444 20.5217 9.69215 19.9694 9.69215H15.0834C14.5311 9.69215 14.0834 9.24444 14.0834 8.69215V3.79513C14.0834 3.24284 14.5311 2.79513 15.0834 2.79513H19.9694C20.5217 2.79513 20.9694 3.24284 20.9694 3.79513V8.69215Z" fill="#004A80"/>
<path d="M3.76344 10.4958C3.21115 10.4958 2.76344 10.0481 2.76344 9.4958V2.94177C2.76344 2.38949 3.21115 1.94177 3.76344 1.94177H10.3156C10.8679 1.94177 11.3156 2.38949 11.3156 2.94177V9.4958C11.3156 10.0481 10.8679 10.4958 10.3156 10.4958H3.76344ZM3.61 8.69214C3.61 9.24443 4.05771 9.69214 4.61 9.69214H9.49601C10.0483 9.69214 10.496 9.24443 10.496 8.69214V3.79512C10.496 3.24284 10.0483 2.79512 9.49601 2.79512H4.61C4.05772 2.79512 3.61 3.24284 3.61 3.79512V8.69214Z" fill="#004A80"/>
<path fill-rule="evenodd" clip-rule="evenodd" d="M3.76343 21.014C3.21114 21.014 2.76343 20.5663 2.76343 20.014V13.4599C2.76343 12.9077 3.21114 12.4599 3.76343 12.4599H10.3156C10.8678 12.4599 11.3156 12.9077 11.3156 13.4599V20.014C11.3156 20.5663 10.8678 21.014 10.3156 21.014H3.76343ZM10.496 19.2103C10.496 19.7626 10.0483 20.2103 9.496 20.2103H4.60999C4.05771 20.2103 3.60999 19.7626 3.60999 19.2103V14.3133C3.60999 13.761 4.05771 13.3133 4.60999 13.3133H9.496C10.0483 13.3133 10.496 13.761 10.496 14.3133V19.2103Z" fill="#004A80"/>
<path d="M7.06944 15.1757C6.11485 15.1757 5.33851 15.9537 5.33851 16.9104C5.33851 17.8671 6.11485 18.6451 7.06944 18.6451C8.02403 18.6451 8.80032 17.867 8.80032 16.9104C8.80032 15.9538 8.02399 15.1757 7.06944 15.1757Z" fill="#004A80"/>
<path d="M3.23919 10.4958C2.97644 10.4958 2.76343 10.2823 2.76343 10.019V2.41858C2.76343 2.15525 2.97644 1.94177 3.23919 1.94177H10.8398C11.1026 1.94177 11.3156 2.15525 11.3156 2.41858V10.019C11.3156 10.2823 11.1026 10.4958 10.8398 10.4958H3.23919ZM3.60999 9.21534C3.60999 9.47867 3.823 9.69214 4.08576 9.69214H10.0202C10.283 9.69214 10.496 9.47867 10.496 9.21534V3.27193C10.496 3.0086 10.283 2.79512 10.0202 2.79512H4.08576C3.823 2.79512 3.60999 3.0086 3.60999 3.27193V9.21534Z" fill="#004A80"/>
<path d="M7.06944 4.53237C6.11485 4.53237 5.33851 5.3104 5.33851 6.26707C5.33851 7.22373 6.11485 8.00172 7.06944 8.00172C8.02403 8.00172 8.80032 7.22369 8.80032 6.26707C8.80032 5.31044 8.02399 4.53237 7.06944 4.53237Z" fill="#004A80"/>
<path d="M17.6662 4.53237C16.7116 4.53237 15.9352 5.3104 15.9352 6.26707C15.9352 7.22373 16.7116 8.00172 17.6662 8.00172C18.6208 8.00172 19.3971 7.22369 19.3971 6.26707C19.3971 5.31044 18.6207 4.53237 17.6662 4.53237Z" fill="#004A80"/>
<path d="M17.5429 15.1757C16.5883 15.1757 15.812 15.9537 15.812 16.9104C15.812 17.8671 16.5883 18.6451 17.5429 18.6451C18.4975 18.6451 19.2738 17.867 19.2738 16.9104C19.2738 15.9538 18.4974 15.1757 17.5429 15.1757Z" fill="#004A80"/>
<path fill-rule="evenodd" clip-rule="evenodd" d="M13.2369 20.5372C13.2369 20.8005 13.4499 21.014 13.7126 21.014H21.3132C21.576 21.014 21.789 20.8005 21.789 20.5372V12.9367C21.789 12.6734 21.576 12.4599 21.3132 12.4599H16.0794C15.8365 12.4599 15.6396 12.6568 15.6396 12.8997C15.6396 13.1321 15.8186 13.3152 16.051 13.3157C17.2224 13.3179 20.4808 13.3133 20.4936 13.3133C20.4941 13.3133 20.4939 13.3133 20.4944 13.3133C20.7568 13.3137 20.9694 13.527 20.9694 13.7901V19.7335C20.9694 19.9968 20.7564 20.2103 20.4937 20.2103H14.5592C14.2964 20.2103 14.0834 19.9968 14.0834 19.7335V15.4704C14.0834 15.2367 13.8939 15.0472 13.6602 15.0472C13.4264 15.0472 13.2369 15.2367 13.2369 15.4704V20.5372Z" fill="#004A80"/>
<path d="M17.7555 21.7747V23.0003H22.7494C23.3017 23.0003 23.7494 22.5525 23.7494 22.0003V16.9933H22.5472V20.7747C22.5472 21.327 22.0995 21.7747 21.5472 21.7747H17.7555Z" fill="#004A80"/>
<path d="M6.7439 21.6285V22.854H1.75C1.19772 22.854 0.750002 22.4063 0.750002 21.854V16.847H1.95215V20.6285C1.95215 21.1807 2.39986 21.6285 2.95215 21.6285H6.7439Z" fill="#004A80"/>
<path d="M6.7439 1.2253V-0.000257492H1.75C1.19772 -0.000257492 0.750002 0.447457 0.750002 0.999742V6.00671H1.95215V2.2253C1.95215 1.67301 2.39986 1.2253 2.95215 1.2253H6.7439Z" fill="#004A80"/>
<path d="M17.7555 1.22591V0.000352859H22.7494C23.3017 0.000352859 23.7494 0.448068 23.7494 1.00035V6.00732H22.5472V2.22591C22.5472 1.67362 22.0995 1.22591 21.5472 1.22591H17.7555Z" fill="#004A80"/>
<path d="M34.751 16.5683C33.9736 16.5683 33.2484 16.4404 32.5753 16.1844C31.9117 15.9284 31.3334 15.5682 30.8404 15.1037C30.3569 14.6391 29.9777 14.094 29.7028 13.4683C29.4373 12.8426 29.3046 12.16 29.3046 11.4206C29.3046 10.6811 29.4373 9.99854 29.7028 9.37284C29.9777 8.74715 30.3616 8.20203 30.8546 7.7375C31.3476 7.27297 31.9259 6.91272 32.5895 6.65675C33.2531 6.40079 33.9736 6.2728 34.751 6.2728C35.5379 6.2728 36.2584 6.40079 36.9125 6.65675C37.5761 6.91272 38.1497 7.27297 38.6332 7.7375C39.1261 8.19255 39.5101 8.73293 39.785 9.35862C40.0599 9.98432 40.1974 10.6716 40.1974 11.4206C40.1974 12.16 40.0599 12.8474 39.785 13.4825C39.5101 14.1082 39.1261 14.6533 38.6332 15.1179C38.1497 15.5729 37.5761 15.9284 36.9125 16.1844C36.2584 16.4404 35.5379 16.5683 34.751 16.5683ZM38.0075 18.6872C37.6188 18.6872 37.249 18.6445 36.8983 18.5592C36.557 18.4739 36.2157 18.3364 35.8744 18.1468C35.5426 17.9572 35.1918 17.7012 34.8221 17.3789C34.4618 17.0566 34.0684 16.6584 33.6418 16.1844L36.0593 15.5729C36.3152 15.9237 36.5522 16.2034 36.7703 16.4119C36.9883 16.6205 37.1969 16.7674 37.396 16.8528C37.6045 16.9381 37.8226 16.9807 38.0501 16.9807C38.6569 16.9807 39.1972 16.7343 39.6712 16.2413L40.6951 17.4642C40.022 18.2795 39.1261 18.6872 38.0075 18.6872ZM34.751 14.6059C35.1966 14.6059 35.6042 14.5301 35.9739 14.3784C36.3532 14.2267 36.685 14.0087 36.9694 13.7243C37.2538 13.4399 37.4718 13.1033 37.6235 12.7146C37.7847 12.3165 37.8653 11.8851 37.8653 11.4206C37.8653 10.9466 37.7847 10.5152 37.6235 10.1265C37.4718 9.73783 37.2538 9.40128 36.9694 9.11688C36.685 8.83247 36.3532 8.61442 35.9739 8.46274C35.6042 8.31106 35.1966 8.23521 34.751 8.23521C34.3054 8.23521 33.893 8.31106 33.5138 8.46274C33.1346 8.61442 32.8028 8.83247 32.5184 9.11688C32.2435 9.40128 32.0254 9.73783 31.8643 10.1265C31.7126 10.5152 31.6367 10.9466 31.6367 11.4206C31.6367 11.8851 31.7126 12.3165 31.8643 12.7146C32.0254 13.1033 32.2435 13.4399 32.5184 13.7243C32.8028 14.0087 33.1346 14.2267 33.5138 14.3784C33.893 14.5301 34.3054 14.6059 34.751 14.6059ZM41.9287 16.3977V6.44345H46.2375C47.1286 6.44345 47.8965 6.59039 48.5412 6.88428C49.1859 7.16869 49.6836 7.58108 50.0343 8.12145C50.3851 8.66182 50.5605 9.30648 50.5605 10.0554C50.5605 10.7949 50.3851 11.4348 50.0343 11.9752C49.6836 12.5061 49.1859 12.9137 48.5412 13.1981C47.8965 13.4825 47.1286 13.6247 46.2375 13.6247H43.2086L44.2324 12.6151V16.3977H41.9287ZM48.2568 16.3977L45.7682 12.7857H48.2283L50.7454 16.3977H48.2568ZM44.2324 12.8711L43.2086 11.7903H46.1095C46.8205 11.7903 47.3514 11.6386 47.7022 11.3353C48.053 11.0224 48.2283 10.5958 48.2283 10.0554C48.2283 9.50557 48.053 9.07896 47.7022 8.77559C47.3514 8.47222 46.8205 8.32054 46.1095 8.32054H43.2086L44.2324 7.22557V12.8711ZM56.4129 16.3977V6.44345H60.7217C61.6129 6.44345 62.3808 6.59039 63.0254 6.88428C63.6701 7.16869 64.1678 7.58108 64.5186 8.12145C64.8693 8.66182 65.0447 9.30648 65.0447 10.0554C65.0447 10.7949 64.8693 11.4348 64.5186 11.9752C64.1678 12.5155 63.6701 12.9327 63.0254 13.2266C62.3808 13.511 61.6129 13.6532 60.7217 13.6532H57.6928L58.7166 12.6151V16.3977H56.4129ZM58.7166 12.8711L57.6928 11.7761H60.5937C61.3048 11.7761 61.8356 11.6244 62.1864 11.321C62.5372 11.0177 62.7126 10.5958 62.7126 10.0554C62.7126 9.50557 62.5372 9.07896 62.1864 8.77559C61.8356 8.47222 61.3048 8.32054 60.5937 8.32054H57.6928L58.7166 7.22557V12.8711ZM66.6718 16.3977V5.84619H68.8902V16.3977H66.6718ZM75.6418 16.3977V14.9046L75.4996 14.5775V11.9041C75.4996 11.4301 75.3526 11.0603 75.0587 10.7949C74.7743 10.5294 74.3335 10.3967 73.7362 10.3967C73.3286 10.3967 72.9257 10.4631 72.5275 10.5958C72.1388 10.719 71.807 10.8897 71.5321 11.1077L70.7357 9.55771C71.1529 9.26382 71.6553 9.03629 72.2431 8.87513C72.8309 8.71397 73.4281 8.63338 74.0349 8.63338C75.2009 8.63338 76.1063 8.90831 76.751 9.45817C77.3956 10.008 77.7179 10.866 77.7179 12.0321V16.3977H75.6418ZM73.3096 16.5115C72.7124 16.5115 72.2004 16.4119 71.7738 16.2128C71.3472 16.0043 71.0202 15.7246 70.7926 15.3738C70.5651 15.0231 70.4513 14.6296 70.4513 14.1935C70.4513 13.7385 70.5604 13.3403 70.7784 12.999C71.0059 12.6577 71.3614 12.3923 71.8449 12.2027C72.3284 12.0036 72.9589 11.9041 73.7362 11.9041H75.7698V13.1981H73.978C73.4566 13.1981 73.0963 13.2834 72.8972 13.4541C72.7076 13.6247 72.6128 13.838 72.6128 14.094C72.6128 14.3784 72.7219 14.6059 72.9399 14.7766C73.1674 14.9377 73.4755 15.0183 73.8642 15.0183C74.234 15.0183 74.5658 14.933 74.8597 14.7624C75.1535 14.5822 75.3668 14.3215 75.4996 13.9802L75.8409 15.0041C75.6797 15.4971 75.3858 15.8716 74.9592 16.1275C74.5326 16.3835 73.9827 16.5115 73.3096 16.5115ZM82.8542 16.5115C81.9535 16.5115 81.252 16.2839 80.7495 15.8289C80.2471 15.3644 79.9959 14.677 79.9959 13.7669V7.05492H82.2142V13.7385C82.2142 14.0608 82.2996 14.3121 82.4702 14.4922C82.6409 14.6628 82.8731 14.7481 83.167 14.7481C83.5178 14.7481 83.8164 14.6533 84.0629 14.4637L84.6602 16.028C84.4326 16.1891 84.1577 16.3124 83.8354 16.3977C83.5225 16.4735 83.1955 16.5115 82.8542 16.5115ZM78.8156 10.6242V8.91779H84.1198V10.6242H78.8156ZM90.4275 16.5115C89.7544 16.5115 89.1761 16.3693 88.6926 16.0849C88.2091 15.8004 87.8394 15.3691 87.5834 14.7908C87.3275 14.203 87.1995 13.4636 87.1995 12.5724C87.1995 11.6718 87.3322 10.9323 87.5977 10.354C87.8726 9.77575 88.2518 9.3444 88.7353 9.06C89.2188 8.77559 89.7829 8.63338 90.4275 8.63338C91.148 8.63338 91.7927 8.79455 92.3615 9.11688C92.9398 9.43921 93.3948 9.89426 93.7266 10.482C94.0679 11.0698 94.2386 11.7666 94.2386 12.5724C94.2386 13.3688 94.0679 14.0608 93.7266 14.6486C93.3948 15.2364 92.9398 15.6962 92.3615 16.028C91.7927 16.3503 91.148 16.5115 90.4275 16.5115ZM85.9054 16.3977V5.84619H88.1238V10.2972L87.9816 12.5582L88.0243 14.8335V16.3977H85.9054ZM90.0436 14.6913C90.4133 14.6913 90.7404 14.6059 91.0248 14.4353C91.3187 14.2646 91.5509 14.0229 91.7216 13.7101C91.9017 13.3877 91.9918 13.0085 91.9918 12.5724C91.9918 12.1269 91.9017 11.7476 91.7216 11.4348C91.5509 11.1219 91.3187 10.8802 91.0248 10.7096C90.7404 10.5389 90.4133 10.4536 90.0436 10.4536C89.6738 10.4536 89.342 10.5389 89.0481 10.7096C88.7542 10.8802 88.522 11.1219 88.3513 11.4348C88.1807 11.7476 88.0954 12.1269 88.0954 12.5724C88.0954 13.0085 88.1807 13.3877 88.3513 13.7101C88.522 14.0229 88.7542 14.2646 89.0481 14.4353C89.342 14.6059 89.6738 14.6913 90.0436 14.6913ZM100.291 16.3977V14.9046L100.149 14.5775V11.9041C100.149 11.4301 100.002 11.0603 99.7083 10.7949C99.4239 10.5294 98.9831 10.3967 98.3858 10.3967C97.9782 10.3967 97.5752 10.4631 97.1771 10.5958C96.7884 10.719 96.4566 10.8897 96.1816 11.1077L95.3853 9.55771C95.8024 9.26382 96.3049 9.03629 96.8927 8.87513C97.4804 8.71397 98.0777 8.63338 98.6844 8.63338C99.8505 8.63338 100.756 8.90831 101.401 9.45817C102.045 10.008 102.368 10.866 102.368 12.0321V16.3977H100.291ZM97.9592 16.5115C97.3619 16.5115 96.85 16.4119 96.4234 16.2128C95.9968 16.0043 95.6697 15.7246 95.4422 15.3738C95.2147 15.0231 95.1009 14.6296 95.1009 14.1935C95.1009 13.7385 95.2099 13.3403 95.428 12.999C95.6555 12.6577 96.011 12.3923 96.4945 12.2027C96.978 12.0036 97.6084 11.9041 98.3858 11.9041H100.419V13.1981H98.6276C98.1061 13.1981 97.7459 13.2834 97.5468 13.4541C97.3572 13.6247 97.2624 13.838 97.2624 14.094C97.2624 14.3784 97.3714 14.6059 97.5895 14.7766C97.817 14.9377 98.1251 15.0183 98.5138 15.0183C98.8835 15.0183 99.2153 14.933 99.5092 14.7624C99.8031 14.5822 100.016 14.3215 100.149 13.9802L100.49 15.0041C100.329 15.4971 100.035 15.8716 99.6088 16.1275C99.1821 16.3835 98.6323 16.5115 97.9592 16.5115Z" fill="#004A80"/>
</svg>
