<svg width="48" height="56" viewBox="0 0 48 56" fill="none" xmlns="http://www.w3.org/2000/svg">
<g clip-path="url(#clip0_959_94869)">
<path d="M0.337891 47.8212H23.1504V25.0087H0.337891V47.8212ZM24.8468 47.8212H47.6593V25.0087H24.8468V47.8212ZM0.337891 23.3123H23.1504V0.499756H0.337891V23.3123ZM24.8468 23.3123H47.6593V0.499756H24.8468V23.3123Z" fill="#00B140"/>
<mask id="mask0_959_94869" style="mask-type:luminance" maskUnits="userSpaceOnUse" x="0" y="0" width="48" height="56">
<path d="M47.6632 0.500244H0.341797V55.5002H47.6632V0.500244Z" fill="white"/>
</mask>
<g mask="url(#mask0_959_94869)">
<path d="M41.1004 17.1967V15.0538C41.1004 14.8752 40.9665 14.786 40.8326 14.786H35.029C34.9844 14.786 34.9397 14.7413 34.9397 14.6967V13.402C34.9397 13.3574 34.9844 13.3127 35.029 13.3127H39.9397C40.1183 13.3127 40.2076 13.1788 40.2076 13.0449V11.1699C40.2076 10.9913 40.0737 10.902 39.9397 10.902H35.029C34.9844 10.902 34.9397 10.8574 34.9397 10.8127V9.5181C34.9397 9.47346 34.9844 9.42882 35.029 9.42882H40.7879C40.9665 9.42882 41.0558 9.29489 41.0558 9.16096V7.0181C41.0558 6.83953 40.9219 6.75024 40.7879 6.75024H32.1272C31.9487 6.75024 31.8594 6.88417 31.8594 7.0181V17.152C31.8594 17.3306 31.9933 17.4199 32.1272 17.4199H40.8326C40.9665 17.4645 41.1004 17.3306 41.1004 17.1967Z" fill="white"/>
<path d="M13.065 17.4645C13.1097 17.4645 13.1543 17.4199 13.1989 17.3752L17.8418 7.19667C17.9311 7.06274 17.8418 6.88417 17.7079 6.79489C17.6632 6.79489 17.6186 6.75024 17.5739 6.75024H14.7168C14.5382 6.75024 14.4043 6.83953 14.315 7.0181C14.315 7.0181 12.6186 10.7681 12.44 11.1699C12.1722 11.7949 11.815 12.9556 11.815 12.9556C11.815 13.0002 11.7704 13.0002 11.7257 13.0002L11.6811 12.9556C11.6811 12.9556 11.3239 11.7949 11.0561 11.1699C10.8775 10.7235 9.18108 7.0181 9.18108 7.0181C9.0918 6.88417 8.95787 6.75024 8.7793 6.75024H5.92215C5.74358 6.75024 5.6543 6.88417 5.6543 7.0181C5.6543 7.06274 5.6543 7.10739 5.69894 7.15203L10.3418 17.3752C10.3864 17.4199 10.4311 17.4645 10.4757 17.4645H13.065Z" fill="white"/>
<path d="M15.877 39.2501C16.0555 39.2501 16.1448 39.3841 16.1448 39.518V41.6609C16.1448 41.8394 16.0109 41.9287 15.877 41.9287H8.33231C8.15374 41.9287 8.06445 41.7948 8.06445 41.6609V31.5716C8.06445 31.393 8.19838 31.3037 8.33231 31.3037H10.877C11.0555 31.3037 11.1448 31.4376 11.1448 31.5716V39.2055C11.1448 39.2501 11.1895 39.2948 11.2341 39.2948L15.877 39.2501Z" fill="white"/>
<path d="M36.2799 31.1251C33.1995 31.3483 30.9227 34.0269 31.146 37.1073C31.3692 40.1876 34.0477 42.4644 37.1281 42.2412C40.0299 42.018 42.3067 39.6073 42.3067 36.6608C42.1281 33.5358 39.4495 31.0358 36.2799 31.1251ZM36.7263 39.5626C35.1192 39.5626 33.8692 38.268 33.8692 36.6608C33.8692 35.143 35.1638 33.893 36.6817 33.8483C38.2888 33.8483 39.5835 35.0983 39.5835 36.7055C39.5388 38.268 38.2888 39.5626 36.7263 39.5626Z" fill="white"/>
<path d="M11.1013 55.3218L8.95843 50.7236C8.91378 50.6789 8.91378 50.6343 8.8245 50.6343H7.70843C7.66378 50.6343 7.61914 50.6789 7.5745 50.7236L5.43164 55.3218V55.3664C5.43164 55.4557 5.47628 55.5003 5.56557 55.5003H6.81557C6.90486 55.5003 6.9495 55.4557 6.99414 55.3664C6.99414 55.3218 7.12807 55.0986 7.262 54.8307H9.27093C9.40486 55.0986 9.49414 55.3218 9.53878 55.3664C9.58343 55.4557 9.62807 55.5003 9.71736 55.5003H10.9674C11.0566 55.5003 11.1013 55.4557 11.1013 55.3664C11.1013 55.3664 11.1013 55.3664 11.1013 55.3218ZM7.70843 53.8486C7.75307 53.7593 7.79771 53.6253 7.84235 53.5361L8.24414 52.3753C8.24414 52.3753 8.28878 52.3307 8.28878 52.3753L8.69057 53.5361C8.73521 53.6253 8.77986 53.7593 8.8245 53.8486H7.70843Z" fill="#00B140"/>
<path d="M18.2879 55.5003H19.4487C19.5379 55.5003 19.5826 55.4557 19.5826 55.3664V54.6521L20.1629 54.0271H20.2076L21.3683 55.4557C21.4129 55.5003 21.4576 55.545 21.5022 55.545H22.9754C23.0647 55.545 23.1094 55.5003 23.1094 55.4111C23.1094 55.3664 23.1094 55.3664 23.0647 55.3218L21.1451 52.9557V52.9111L23.0201 50.9021C23.0647 50.8575 23.0647 50.7682 23.0201 50.7236C22.9754 50.7236 22.9754 50.6789 22.9308 50.6789H21.5022C21.4576 50.6789 21.4129 50.6789 21.3683 50.7236C21.3683 50.7236 20.2969 51.8843 19.9844 52.1968C19.6719 52.5093 19.5826 52.6432 19.5826 52.6432H19.5379C19.5379 52.6432 19.5379 52.6432 19.5379 52.5986V50.7682C19.5379 50.6789 19.4933 50.6343 19.404 50.6343H18.2433C18.154 50.6343 18.1094 50.6789 18.1094 50.7682V55.4111C18.154 55.4557 18.2433 55.5003 18.2879 55.5003Z" fill="#00B140"/>
<path d="M15.8337 55.5001H16.8605C16.9498 55.5001 16.9944 55.4555 16.9944 55.3662V50.768C16.9944 50.6787 16.9498 50.634 16.8605 50.634H15.6998C15.6105 50.634 15.5658 50.6787 15.5658 50.768V53.2233C15.5658 53.2233 15.5658 53.268 15.5212 53.268C15.5212 53.268 15.5212 53.268 15.4766 53.268C15.4766 53.268 15.2087 52.9108 15.0301 52.7322L13.0212 50.7233C12.9766 50.6787 12.9319 50.6787 12.8873 50.6787H11.8605C11.7712 50.6787 11.7266 50.7233 11.7266 50.8126V55.4108C11.7266 55.5001 11.7712 55.5447 11.8605 55.5447H13.0212C13.1105 55.5447 13.1551 55.5001 13.1551 55.4108V52.9555C13.1551 52.9555 13.1551 52.9108 13.1998 52.9108C13.1998 52.9108 13.1998 52.9108 13.2444 52.9108C13.2444 52.9108 13.5123 53.268 13.6908 53.4465L15.6998 55.4555C15.6998 55.5001 15.7444 55.5001 15.8337 55.5001Z" fill="#00B140"/>
<path d="M4.44894 52.8662C4.67215 52.643 4.80608 52.3305 4.80608 52.018C4.7168 51.2144 4.00251 50.5894 3.19894 50.6787H0.475725C0.38644 50.6787 0.341797 50.7233 0.341797 50.8126V55.4108C0.341797 55.5001 0.38644 55.5447 0.475725 55.5447H3.24358C4.13644 55.5894 4.89537 54.9197 4.98465 54.0269C4.98465 53.5805 4.76144 53.134 4.44894 52.8662ZM1.77037 51.7947L3.02037 51.7501C3.19894 51.7501 3.37751 51.9287 3.37751 52.1072C3.37751 52.2858 3.19894 52.4644 3.02037 52.4644H1.81501C1.81501 52.4644 1.77037 52.4644 1.77037 52.4197V51.7947ZM3.10965 54.4287H1.77037C1.77037 54.4287 1.72573 54.4287 1.72573 54.384V53.6251C1.72573 53.6251 1.72573 53.5805 1.77037 53.5805H3.10965C3.33287 53.5805 3.55608 53.759 3.55608 53.9822C3.55608 54.2055 3.37751 54.4287 3.1543 54.4287C3.1543 54.4287 3.1543 54.4287 3.10965 54.4287Z" fill="#00B140"/>
</g>
</g>
<defs>
<clipPath id="clip0_959_94869">
<rect width="47.3214" height="55" fill="white" transform="translate(0.339844 0.5)"/>
</clipPath>
</defs>
</svg>
