<svg width="100" height="35" viewBox="0 0 100 35" fill="none" xmlns="http://www.w3.org/2000/svg">
<g clip-path="url(#clip0_3056_41158)">
<path d="M44.0182 30.3733C43.9143 30.6065 43.8363 30.6583 43.6027 30.6583H41.9675C41.8781 30.6718 41.787 30.6494 41.7141 30.596C41.6412 30.5426 41.5924 30.4626 41.5783 30.3733L37.1135 19.2239C37.0359 19.0679 37.0618 18.8605 37.2954 18.8605H38.8009C38.8892 18.8536 38.977 18.8785 39.0485 18.9309C39.1199 18.9833 39.1702 19.0596 39.1901 19.1459L42.8494 28.7658H42.9012L46.535 19.1459C46.5583 19.0615 46.6094 18.9874 46.6801 18.9357C46.7507 18.8839 46.8367 18.8574 46.9242 18.8605H48.4027C48.6614 18.8605 48.6614 19.0679 48.5845 19.2239L44.0182 30.3733Z" fill="#FF0087"/>
<path d="M50.6142 15.2634C50.614 15.0374 50.6808 14.8165 50.8061 14.6285C50.9315 14.4406 51.1098 14.294 51.3185 14.2074C51.5272 14.1208 51.7569 14.098 51.9785 14.1419C52.2001 14.1859 52.4037 14.2946 52.5636 14.4543C52.7234 14.6139 52.8323 14.8174 52.8765 15.039C52.9206 15.2606 52.8981 15.4903 52.8117 15.6991C52.7252 15.9079 52.5789 16.0863 52.391 16.2118C52.2032 16.3374 51.9823 16.4044 51.7563 16.4044C51.606 16.4061 51.4568 16.3777 51.3175 16.321C51.1783 16.2643 51.0517 16.1803 50.9454 16.074C50.839 15.9677 50.7549 15.8413 50.698 15.7021C50.6412 15.5629 50.6127 15.4137 50.6142 15.2634Z" fill="#FF0087"/>
<path d="M51.0814 18.8604H52.483C52.5475 18.8659 52.6074 18.8957 52.6508 18.9437C52.6942 18.9917 52.7179 19.0544 52.717 19.1191V30.3465C52.717 30.3772 52.711 30.4076 52.6992 30.436C52.6875 30.4644 52.6703 30.4901 52.6485 30.5118C52.6268 30.5335 52.6009 30.5506 52.5725 30.5623C52.5441 30.574 52.5137 30.5799 52.483 30.5797H51.0814C51.0168 30.5807 50.9542 30.5571 50.9063 30.5139C50.8583 30.4706 50.8284 30.4108 50.8226 30.3465V19.1198C50.8274 19.0528 50.8561 18.9897 50.9037 18.9421C50.9512 18.8946 51.0143 18.8651 51.0814 18.8604Z" fill="#FF0087"/>
<path d="M56.5525 21.259C56.371 21.3629 56.2413 21.3108 56.1892 21.1814L55.7479 20.2204C55.6699 20.0651 55.6961 19.9871 55.8776 19.8833C57.2184 19.0578 58.768 18.6345 60.3423 18.6635C61.4586 18.6635 62.834 18.8709 63.7684 19.9343C64.3653 20.6085 64.7294 21.5939 64.7294 23.0976V30.3578C64.7295 30.3885 64.7235 30.4189 64.7118 30.4472C64.7001 30.4756 64.6829 30.5014 64.6612 30.523C64.6395 30.5447 64.6137 30.5619 64.5853 30.5736C64.5569 30.5852 64.5265 30.5912 64.4958 30.591H63.276C63.2454 30.5912 63.2149 30.5852 63.1866 30.5736C63.1582 30.5619 63.1324 30.5447 63.1107 30.523C63.089 30.5014 63.0717 30.4756 63.06 30.4472C63.0483 30.4189 63.0423 30.3885 63.0424 30.3578V29.943H62.9386C61.8741 30.5801 60.648 30.8953 59.4083 30.8505C58.3771 30.8786 57.3622 30.589 56.5012 30.021C56.0825 29.7266 55.7428 29.3337 55.5119 28.8769C55.2811 28.4201 55.1662 27.9135 55.1775 27.4019C55.1775 25.7944 56.1637 24.8884 57.5916 24.3421C59.175 23.7459 61.2775 23.5903 62.8351 23.5123V23.1234C62.8351 22.0863 62.6532 21.4638 62.2381 20.9711C61.7207 20.3745 60.8883 20.1949 60.1095 20.1949C58.8482 20.2117 57.6167 20.58 56.5533 21.2583M62.8369 28.5965V24.9405C61.5344 24.9535 60.2373 25.1101 58.9692 25.4074C57.8529 25.6927 56.9965 26.263 56.9965 27.3002C56.9965 28.7521 58.5019 29.3487 59.9557 29.3487C60.9627 29.3299 61.9508 29.0722 62.8388 28.5969" fill="#FF0087"/>
<path d="M69.6718 20.2597C70.0711 19.7354 70.5912 19.3154 71.1878 19.0355C71.7844 18.7556 72.4398 18.6241 73.0982 18.6521C74.0414 18.6183 74.9703 18.8906 75.7459 19.4284C76.3197 19.8426 76.7542 20.4213 76.9919 21.088C77.3238 20.3445 77.865 19.7137 78.5495 19.2728C79.2802 18.8439 80.1165 18.6284 80.9635 18.6507C82.1833 18.6507 83.3258 18.9619 84.1564 19.7917C84.9089 20.5177 85.4024 21.6583 85.4024 23.3701V30.3449C85.4025 30.3756 85.3965 30.406 85.3848 30.4344C85.3731 30.4628 85.3559 30.4885 85.3341 30.5102C85.3124 30.5319 85.2866 30.5491 85.2582 30.5607C85.2299 30.5724 85.1995 30.5783 85.1688 30.5782H83.7413C83.6767 30.5792 83.614 30.5557 83.566 30.5124C83.518 30.4691 83.4882 30.4093 83.4825 30.3449V23.8388C83.4825 22.646 83.2238 21.6868 82.7041 21.1161C82.4275 20.8376 82.0943 20.6217 81.7271 20.483C81.3598 20.3443 80.9671 20.286 80.5754 20.3121C80.1063 20.2892 79.6397 20.3926 79.2242 20.6115C78.8087 20.8304 78.4595 21.1568 78.2131 21.5567C77.7201 22.3865 77.5382 23.4495 77.5382 24.7724V30.3471C77.5383 30.3778 77.5323 30.4082 77.5206 30.4366C77.5089 30.465 77.4917 30.4907 77.47 30.5124C77.4482 30.5341 77.4225 30.5513 77.3941 30.5629C77.3657 30.5746 77.3353 30.5805 77.3046 30.5804H75.8771C75.8125 30.5813 75.7499 30.5578 75.702 30.5145C75.654 30.4713 75.6241 30.4115 75.6183 30.3471V23.8388C75.6183 22.646 75.3596 21.6868 74.8395 21.1161C74.5629 20.8375 74.2297 20.6216 73.8625 20.4829C73.4953 20.3442 73.1025 20.286 72.7109 20.3121C72.2418 20.2892 71.7751 20.3926 71.3596 20.6115C70.9441 20.8304 70.5949 21.1568 70.3486 21.5567C69.8709 22.4671 69.6383 23.4862 69.6736 24.5137V30.3479C69.6737 30.3786 69.6677 30.409 69.656 30.4373C69.6443 30.4657 69.6271 30.4915 69.6054 30.5132C69.5837 30.5348 69.5579 30.552 69.5295 30.5637C69.5011 30.5753 69.4707 30.5813 69.44 30.5811H68.0122C67.9475 30.5821 67.8849 30.5586 67.8369 30.5154C67.7889 30.4721 67.7591 30.4123 67.7534 30.3479V19.1197C67.7581 19.0526 67.7868 18.9895 67.8344 18.942C67.8819 18.8944 67.9451 18.8656 68.0122 18.861H69.3362C69.4032 18.8657 69.4663 18.8945 69.5139 18.942C69.5614 18.9896 69.5902 19.0527 69.5949 19.1197V20.2597H69.6718Z" fill="#540083"/>
<path d="M89.3314 20.4168C90.542 19.2837 92.138 18.6533 93.7961 18.6533C95.4542 18.6533 97.0503 19.2837 98.2609 20.4168C99.377 21.5821 100 23.1334 100 24.747C100 26.3606 99.377 27.9119 98.2609 29.0772C97.0503 30.2102 95.4542 30.8405 93.7961 30.8405C92.1381 30.8405 90.542 30.2102 89.3314 29.0772C88.2153 27.9119 87.5922 26.3606 87.5922 24.747C87.5922 23.1334 88.2153 21.5821 89.3314 20.4168ZM90.6292 27.9103C91.0348 28.344 91.5252 28.6898 92.0699 28.9262C92.6146 29.1626 93.2021 29.2846 93.796 29.2846C94.3898 29.2846 94.9773 29.1626 95.522 28.9262C96.0668 28.6898 96.5571 28.344 96.9627 27.9103C97.7167 27.0287 98.131 25.9068 98.131 24.7468C98.131 23.5868 97.7167 22.4649 96.9627 21.5834C96.5571 21.1496 96.0668 20.8038 95.522 20.5674C94.9773 20.331 94.3898 20.2091 93.796 20.2091C93.2021 20.2091 92.6146 20.331 92.0699 20.5674C91.5252 20.8038 91.0348 21.1496 90.6292 21.5834C89.8753 22.465 89.4611 23.5868 89.4611 24.7468C89.4611 25.9068 89.8753 27.0286 90.6292 27.9103Z" fill="#540083"/>
<path d="M14.3334 34.9603L31.4553 20.651L0 9.22949L14.3334 34.9603Z" fill="#540083"/>
<path d="M30.7319 18.3524L19.8434 0L19.86 14.3988L30.7319 18.3524Z" fill="#FF0087"/>
</g>
<defs>
<clipPath id="clip0_3056_41158">
<rect width="100" height="34.9608" fill="white"/>
</clipPath>
</defs>
</svg>
