<svg width="70" height="28" viewBox="0 0 70 28" fill="none" xmlns="http://www.w3.org/2000/svg">
<mask id="mask0_5739_6028" style="mask-type:luminance" maskUnits="userSpaceOnUse" x="0" y="0" width="70" height="28">
<path d="M70 0H0V28H70V0Z" fill="white"/>
</mask>
<g mask="url(#mask0_5739_6028)">
<path fill-rule="evenodd" clip-rule="evenodd" d="M4.58999 25.5878C3.72428 25.5878 3.28326 25.1605 3.28326 24.458C3.28326 23.1481 4.74027 22.7076 7.39783 22.4243C7.39783 24.1698 6.22014 25.5878 4.58182 25.5878H4.58999ZM5.73338 15.7714C3.83372 15.7714 1.64985 16.6671 0.463983 17.6152L1.54694 19.9076C2.49759 19.0349 4.03463 18.2882 5.4214 18.2882C6.73957 18.2882 7.46807 18.7303 7.46807 19.6211C7.46807 20.2187 6.98621 20.5216 6.07477 20.6412C2.66746 21.0833 -0.00317383 22.0264 -0.00317383 24.6578C-0.00317383 26.7439 1.47833 28.0063 3.79289 28.0063C5.4459 28.0063 6.91597 27.0861 7.61508 25.8777V27.6788H10.6957V20.1319C10.6957 17.0208 8.54122 15.7649 5.73502 15.7649L5.73338 15.7714Z" fill="black"/>
<path fill-rule="evenodd" clip-rule="evenodd" d="M36.6523 16.1106V27.6643H39.9486V22.097C39.9486 19.4526 41.5461 18.6748 42.6584 18.6748C43.1592 18.6709 43.6497 18.8163 44.068 19.0924L44.6708 16.0386C44.2036 15.8512 43.7036 15.7604 43.2007 15.7717C41.5069 15.7717 40.4419 16.5232 39.7395 18.0526V16.1106H36.6523Z" fill="black"/>
<path fill-rule="evenodd" clip-rule="evenodd" d="M59.9465 15.7715C58.2036 15.7715 56.9002 16.8031 56.2223 17.7987C55.5935 16.5133 54.2622 15.7715 52.6615 15.7715C50.9203 15.7715 49.7132 16.7409 49.1562 17.8576V16.1104H45.9775V27.6641H49.277V21.7154C49.277 19.5867 50.3927 18.5568 51.4331 18.5568C52.3756 18.5568 53.2413 19.1675 53.2413 20.7444V27.6641H56.5343V21.7154C56.5343 19.5556 57.6222 18.5568 58.7116 18.5568C59.5839 18.5568 60.5084 19.1921 60.5084 20.7215V27.6641H63.8014V19.6768C63.8014 17.0815 62.0585 15.7715 59.953 15.7715" fill="black"/>
<path fill-rule="evenodd" clip-rule="evenodd" d="M28.6306 16.1107H25.6447V14.9366C25.6447 13.4073 26.5153 12.9717 27.2651 12.9717C27.777 12.9784 28.2802 13.1045 28.7351 13.3401L29.7511 11.0101C29.7511 11.0101 28.7204 10.3354 26.8469 10.3354C24.7414 10.3354 22.3452 11.5259 22.3452 15.2608V16.1107H17.3551V14.9366C17.3551 13.4073 18.2241 12.9717 18.9755 12.9717C19.4882 12.9717 19.9931 13.0982 20.4455 13.3401L21.4615 11.0101C20.8555 10.6547 19.8804 10.3354 18.559 10.3354C16.4535 10.3354 14.0572 11.5259 14.0572 15.2608V16.1107H12.1494V18.6585H14.0621V27.6643H17.3551V18.6585H22.3517V27.6643H25.6447V18.6585H28.6306V16.1107Z" fill="black"/>
<path d="M33.8869 16.1106H30.5972V27.6594H33.8869V16.1106Z" fill="black"/>
<path fill-rule="evenodd" clip-rule="evenodd" d="M30.718 14.1473H33.9407C35.8208 8.22142 42.1993 3.01276 49.7849 3.01276C59.0104 3.01276 66.9831 10.0537 66.9831 21.0146C67.0112 23.2645 66.7028 25.5059 66.0684 27.6642H69.1964L69.2274 27.5562C69.7545 25.4195 70.0145 23.2255 70.0016 21.0245C70.0016 8.80106 61.1159 0.00317383 49.7914 0.00317383C40.8958 0.00317383 32.9672 6.19264 30.7197 14.1505L30.718 14.1473Z" fill="#4A4AF4"/>
</g>
</svg>
