<svg width="108" height="28" viewBox="0 0 108 28" fill="none" xmlns="http://www.w3.org/2000/svg">
<path d="M14.9783 3.81699C13.5738 3.81699 12.4316 4.95921 12.4316 6.36371C12.4316 7.76819 13.5738 8.91037 14.9783 8.91037C16.3828 8.91037 17.525 7.76813 17.525 6.36371C17.525 4.95927 16.3828 3.81699 14.9783 3.81699ZM14.9783 7.63767C14.2761 7.63767 13.7044 7.06595 13.7044 6.36371C13.7044 5.66147 14.2761 5.08975 14.9783 5.08975C15.6806 5.08975 16.2522 5.66147 16.2522 6.36371C16.2522 7.06595 15.6806 7.63767 14.9783 7.63767Z" fill="#004A80"/>
<path d="M28.3434 11.4545C28.6952 11.4545 28.3986 11.4545 28.9798 11.4545V8.27474C28.9798 8.05044 28.8618 7.84228 28.6684 7.72792L16.2202 0.335337C16.2146 0.331577 16.209 0.328457 16.2034 0.325357C15.4296 -0.103403 14.5572 -0.116403 13.7387 0.334077L1.29117 7.72792C1.09787 7.84222 0.979813 8.05044 0.979813 8.27474V11.4545C1.47883 11.4545 1.26445 11.4545 1.61619 11.4545H3.52529V22.9096C2.12139 22.9096 0.979813 24.051 0.979813 25.4548V28C1.61619 28 1.26445 28 1.61619 28H28.3434C28.6952 28 28.9798 28 28.9798 28V25.4548C28.9798 24.051 27.8382 22.9096 26.4344 22.9096V11.4545H28.3434ZM27.707 25.4546V26.7272H2.25251V25.4546C2.25251 24.753 2.82363 24.1818 3.52523 24.1818H4.16161H25.798H26.4344C27.136 24.1818 27.707 24.7528 27.707 25.4546ZM4.79799 22.909V11.4545H7.34345V22.909H4.79799ZM8.61617 22.909V11.4545H12.4343V22.909H8.61617ZM13.7071 22.909V11.4545H16.2526V22.909H13.7071ZM17.5252 22.909V11.4545H21.3434V22.909H17.5252ZM22.6162 22.909V11.4545H25.1616V22.909H22.6162ZM2.25251 10.1818V8.63502L14.3702 1.43616C14.7667 1.21804 15.188 1.21864 15.5794 1.4318L27.707 8.63502V10.1818H2.25251Z" fill="#004A80"/>
<path d="M38.1422 10.9999V1.19989H42.9302C44.1622 1.19989 45.0862 1.43323 45.7022 1.89989C46.3276 2.36655 46.6402 2.98255 46.6402 3.74789C46.6402 4.26123 46.5142 4.70923 46.2622 5.09189C46.0102 5.46523 45.6648 5.75455 45.2262 5.95989C44.7876 6.16523 44.2836 6.26789 43.7142 6.26789L43.9802 5.69389C44.5962 5.69389 45.1422 5.79655 45.6182 6.00189C46.0942 6.19789 46.4628 6.49189 46.7242 6.88389C46.9948 7.27589 47.1302 7.75655 47.1302 8.32589C47.1302 9.16589 46.7988 9.82389 46.1362 10.2999C45.4736 10.7665 44.4982 10.9999 43.2102 10.9999H38.1422ZM40.3962 9.29189H43.0422C43.6302 9.29189 44.0736 9.19855 44.3722 9.01189C44.6802 8.81589 44.8342 8.50789 44.8342 8.08789C44.8342 7.67723 44.6802 7.37389 44.3722 7.17789C44.0736 6.97255 43.6302 6.86989 43.0422 6.86989H40.2282V5.21789H42.6502C43.2008 5.21789 43.6208 5.12455 43.9102 4.93789C44.2088 4.74189 44.3582 4.44789 44.3582 4.05589C44.3582 3.67323 44.2088 3.38855 43.9102 3.20189C43.6208 3.00589 43.2008 2.90789 42.6502 2.90789H40.3962V9.29189ZM53.3132 10.9999V9.52989L53.1732 9.20789V6.57589C53.1732 6.10923 53.0286 5.74523 52.7392 5.48389C52.4592 5.22255 52.0252 5.09189 51.4372 5.09189C51.036 5.09189 50.6392 5.15723 50.2472 5.28789C49.8646 5.40923 49.538 5.57723 49.2672 5.79189L48.4832 4.26589C48.894 3.97655 49.3886 3.75255 49.9672 3.59389C50.546 3.43523 51.134 3.35589 51.7312 3.35589C52.8792 3.35589 53.7706 3.62655 54.4052 4.16789C55.04 4.70923 55.3572 5.55389 55.3572 6.70189V10.9999H53.3132ZM51.0172 11.1119C50.4292 11.1119 49.9252 11.0139 49.5052 10.8179C49.0852 10.6125 48.7632 10.3372 48.5392 9.99189C48.3152 9.64655 48.2032 9.25923 48.2032 8.82989C48.2032 8.38189 48.3106 7.98989 48.5252 7.65389C48.7492 7.31789 49.0992 7.05655 49.5752 6.86989C50.0512 6.67389 50.672 6.57589 51.4372 6.57589H53.4392V7.84989H51.6752C51.162 7.84989 50.8072 7.93389 50.6112 8.10189C50.4246 8.26989 50.3312 8.47989 50.3312 8.73189C50.3312 9.01189 50.4386 9.23589 50.6532 9.40389C50.8772 9.56255 51.1806 9.64189 51.5632 9.64189C51.9272 9.64189 52.254 9.55789 52.5432 9.38989C52.8326 9.21255 53.0426 8.95589 53.1732 8.61989L53.5092 9.62789C53.3506 10.1132 53.0612 10.4819 52.6412 10.7339C52.2212 10.9859 51.68 11.1119 51.0172 11.1119ZM61.912 3.35589C62.5092 3.35589 63.0412 3.47723 63.508 3.71989C63.984 3.95323 64.3572 4.31723 64.628 4.81189C64.8986 5.29723 65.034 5.92255 65.034 6.68789V10.9999H62.85V7.02389C62.85 6.41723 62.7146 5.96923 62.444 5.67989C62.1826 5.39055 61.8092 5.24589 61.324 5.24589C60.9786 5.24589 60.666 5.32055 60.386 5.46989C60.1152 5.60989 59.9006 5.82923 59.742 6.12789C59.5926 6.42655 59.518 6.80923 59.518 7.27589V10.9999H57.334V3.46789H59.42V5.55389L59.028 4.92389C59.2986 4.41989 59.686 4.03255 60.19 3.76189C60.694 3.49123 61.268 3.35589 61.912 3.35589ZM68.8196 9.45989L68.8756 6.79989L72.3896 3.46789H74.9936L71.6196 6.89789L70.4856 7.82189L68.8196 9.45989ZM67.0136 10.9999V0.611886H69.1976V10.9999H67.0136ZM72.6276 10.9999L70.0796 7.83589L71.4516 6.14189L75.2736 10.9999H72.6276ZM79.5254 11.1119C78.7226 11.1119 78.0086 10.9439 77.3834 10.6079C76.7674 10.2719 76.2774 9.81455 75.9134 9.23589C75.5586 8.64789 75.3814 7.98055 75.3814 7.23389C75.3814 6.47789 75.5586 5.81055 75.9134 5.23189C76.2774 4.64389 76.7674 4.18655 77.3834 3.85989C78.0086 3.52389 78.7226 3.35589 79.5254 3.35589C80.3186 3.35589 81.028 3.52389 81.6534 3.85989C82.2786 4.18655 82.7686 4.63923 83.1234 5.21789C83.478 5.79655 83.6554 6.46855 83.6554 7.23389C83.6554 7.98055 83.478 8.64789 83.1234 9.23589C82.7686 9.81455 82.2786 10.2719 81.6534 10.6079C81.028 10.9439 80.3186 11.1119 79.5254 11.1119ZM79.5254 9.31989C79.8894 9.31989 80.216 9.23589 80.5054 9.06789C80.7946 8.89989 81.0234 8.66189 81.1914 8.35389C81.3594 8.03655 81.4434 7.66323 81.4434 7.23389C81.4434 6.79523 81.3594 6.42189 81.1914 6.11389C81.0234 5.80589 80.7946 5.56789 80.5054 5.39989C80.216 5.23189 79.8894 5.14789 79.5254 5.14789C79.1614 5.14789 78.8346 5.23189 78.5454 5.39989C78.256 5.56789 78.0226 5.80589 77.8454 6.11389C77.6774 6.42189 77.5934 6.79523 77.5934 7.23389C77.5934 7.66323 77.6774 8.03655 77.8454 8.35389C78.0226 8.66189 78.256 8.89989 78.5454 9.06789C78.8346 9.23589 79.1614 9.31989 79.5254 9.31989ZM86.954 10.9999L83.79 3.46789H86.044L88.676 9.94989H87.556L90.286 3.46789H92.386L89.208 10.9999H86.954ZM97.8552 3.35589C98.4526 3.35589 98.9846 3.47723 99.4512 3.71989C99.9272 3.95323 100.301 4.31723 100.571 4.81189C100.842 5.29723 100.977 5.92255 100.977 6.68789V10.9999H98.7932V7.02389C98.7932 6.41723 98.658 5.96923 98.3872 5.67989C98.126 5.39055 97.7526 5.24589 97.2672 5.24589C96.922 5.24589 96.6092 5.32055 96.3292 5.46989C96.0586 5.60989 95.844 5.82923 95.6852 6.12789C95.536 6.42655 95.4612 6.80923 95.4612 7.27589V10.9999H93.2772V3.46789H95.3632V5.55389L94.9712 4.92389C95.242 4.41989 95.6292 4.03255 96.1332 3.76189C96.6372 3.49123 97.2112 3.35589 97.8552 3.35589ZM102.957 10.9999V3.46789H105.141V10.9999H102.957ZM102.775 2.50189L104.665 0.485886H107.017L104.483 2.50189H102.775ZM38.1422 26.9999V17.1999H42.3842C43.2616 17.1999 44.0176 17.3445 44.6522 17.6339C45.2868 17.9139 45.7768 18.3199 46.1222 18.8519C46.4676 19.3839 46.6402 20.0185 46.6402 20.7559C46.6402 21.4839 46.4676 22.1139 46.1222 22.6459C45.7768 23.1779 45.2868 23.5885 44.6522 23.8779C44.0176 24.1579 43.2616 24.2979 42.3842 24.2979H39.4022L40.4102 23.2759V26.9999H38.1422ZM40.4102 23.5279L39.4022 22.4499H42.2582C42.9582 22.4499 43.4808 22.3005 43.8262 22.0019C44.1716 21.7033 44.3442 21.2879 44.3442 20.7559C44.3442 20.2145 44.1716 19.7945 43.8262 19.4959C43.4808 19.1973 42.9582 19.0479 42.2582 19.0479H39.4022L40.4102 17.9699V23.5279ZM48.2422 26.9999V16.6119H50.4262V26.9999H48.2422ZM57.073 26.9999V25.5299L56.933 25.2079V22.5759C56.933 22.1093 56.7884 21.7453 56.499 21.4839C56.219 21.2225 55.785 21.0919 55.197 21.0919C54.7958 21.0919 54.399 21.1573 54.007 21.2879C53.6244 21.4093 53.2978 21.5773 53.027 21.7919L52.243 20.2659C52.6538 19.9765 53.1484 19.7525 53.727 19.5939C54.3058 19.4353 54.8938 19.3559 55.491 19.3559C56.639 19.3559 57.5304 19.6265 58.165 20.1679C58.7998 20.7093 59.117 21.5539 59.117 22.7019V26.9999H57.073ZM54.777 27.1119C54.189 27.1119 53.685 27.0139 53.265 26.8179C52.845 26.6125 52.523 26.3373 52.299 25.9919C52.075 25.6465 51.963 25.2593 51.963 24.8299C51.963 24.3819 52.0704 23.9899 52.285 23.6539C52.509 23.3179 52.859 23.0565 53.335 22.8699C53.811 22.6739 54.4318 22.5759 55.197 22.5759H57.199V23.8499H55.435C54.9218 23.8499 54.567 23.9339 54.371 24.1019C54.1844 24.2699 54.091 24.4799 54.091 24.7319C54.091 25.0119 54.1984 25.2359 54.413 25.4039C54.637 25.5625 54.9404 25.6419 55.323 25.6419C55.687 25.6419 56.0138 25.5579 56.303 25.3899C56.5924 25.2125 56.8024 24.9559 56.933 24.6199L57.269 25.6279C57.1104 26.1133 56.821 26.4819 56.401 26.7339C55.981 26.9859 55.4398 27.1119 54.777 27.1119ZM64.1736 27.1119C63.287 27.1119 62.5964 26.8879 62.1016 26.4399C61.607 25.9825 61.3596 25.3059 61.3596 24.4099V17.8019H63.5436V24.3819C63.5436 24.6993 63.6276 24.9465 63.7956 25.1239C63.9636 25.2919 64.1924 25.3759 64.4816 25.3759C64.827 25.3759 65.121 25.2825 65.3636 25.0959L65.9516 26.6359C65.7276 26.7945 65.457 26.9159 65.1396 26.9999C64.8316 27.0745 64.5096 27.1119 64.1736 27.1119ZM60.1976 21.3159V19.6359H65.4196V21.3159H60.1976ZM71.6296 27.1119C70.967 27.1119 70.3976 26.9719 69.9216 26.6919C69.4456 26.4119 69.0816 25.9873 68.8296 25.4179C68.5776 24.8393 68.4516 24.1113 68.4516 23.2339C68.4516 22.3473 68.5824 21.6193 68.8436 21.0499C69.1144 20.4805 69.4876 20.0559 69.9636 19.7759C70.4396 19.4959 70.995 19.3559 71.6296 19.3559C72.339 19.3559 72.9736 19.5145 73.5336 19.8319C74.103 20.1493 74.551 20.5973 74.8776 21.1759C75.2136 21.7545 75.3816 22.4405 75.3816 23.2339C75.3816 24.0179 75.2136 24.6993 74.8776 25.2779C74.551 25.8565 74.103 26.3093 73.5336 26.6359C72.9736 26.9533 72.339 27.1119 71.6296 27.1119ZM67.1776 26.9999V16.6119H69.3616V20.9939L69.2216 23.2199L69.2636 25.4599V26.9999H67.1776ZM71.2516 25.3199C71.6156 25.3199 71.9376 25.2359 72.2176 25.0679C72.507 24.8999 72.7356 24.6619 72.9036 24.3539C73.081 24.0365 73.1696 23.6633 73.1696 23.2339C73.1696 22.7953 73.081 22.4219 72.9036 22.1139C72.7356 21.8059 72.507 21.5679 72.2176 21.3999C71.9376 21.2319 71.6156 21.1479 71.2516 21.1479C70.8876 21.1479 70.561 21.2319 70.2716 21.3999C69.9824 21.5679 69.7536 21.8059 69.5856 22.1139C69.4176 22.4219 69.3336 22.7953 69.3336 23.2339C69.3336 23.6633 69.4176 24.0365 69.5856 24.3539C69.7536 24.6619 69.9824 24.8999 70.2716 25.0679C70.561 25.2359 70.8876 25.3199 71.2516 25.3199ZM81.3406 26.9999V25.5299L81.2006 25.2079V22.5759C81.2006 22.1093 81.056 21.7453 80.7666 21.4839C80.4866 21.2225 80.0526 21.0919 79.4646 21.0919C79.0632 21.0919 78.6666 21.1573 78.2746 21.2879C77.892 21.4093 77.5652 21.5773 77.2946 21.7919L76.5106 20.2659C76.9212 19.9765 77.416 19.7525 77.9946 19.5939C78.5732 19.4353 79.1612 19.3559 79.7586 19.3559C80.9066 19.3559 81.798 19.6265 82.4326 20.1679C83.0672 20.7093 83.3846 21.5539 83.3846 22.7019V26.9999H81.3406ZM79.0446 27.1119C78.4566 27.1119 77.9526 27.0139 77.5326 26.8179C77.1126 26.6125 76.7906 26.3373 76.5666 25.9919C76.3426 25.6465 76.2306 25.2593 76.2306 24.8299C76.2306 24.3819 76.338 23.9899 76.5526 23.6539C76.7766 23.3179 77.1266 23.0565 77.6026 22.8699C78.0786 22.6739 78.6992 22.5759 79.4646 22.5759H81.4666V23.8499H79.7026C79.1892 23.8499 78.8346 23.9339 78.6386 24.1019C78.452 24.2699 78.3586 24.4799 78.3586 24.7319C78.3586 25.0119 78.466 25.2359 78.6806 25.4039C78.9046 25.5625 79.208 25.6419 79.5906 25.6419C79.9546 25.6419 80.2812 25.5579 80.5706 25.3899C80.86 25.2125 81.07 24.9559 81.2006 24.6199L81.5366 25.6279C81.378 26.1133 81.0886 26.4819 80.6686 26.7339C80.2486 26.9859 79.7072 27.1119 79.0446 27.1119Z" fill="#004A80"/>
</svg>
