<svg width="100" height="28" viewBox="0 0 100 28" fill="none" xmlns="http://www.w3.org/2000/svg">
<path d="M14.6389 3.81683C13.2344 3.81683 12.0921 4.95905 12.0921 6.36355C12.0921 7.76803 13.2344 8.91021 14.6389 8.91021C16.0433 8.91021 17.1855 7.76797 17.1855 6.36355C17.1855 4.95911 16.0433 3.81683 14.6389 3.81683ZM14.6389 7.63751C13.9366 7.63751 13.3649 7.06579 13.3649 6.36355C13.3649 5.66131 13.9366 5.08959 14.6389 5.08959C15.3411 5.08959 15.9129 5.66131 15.9129 6.36355C15.9129 7.06579 15.3411 7.63751 14.6389 7.63751Z" fill="#004A80"/>
<path d="M28.004 11.4545C28.3558 11.4545 28.0592 11.4545 28.6404 11.4545V8.27474C28.6404 8.05044 28.5224 7.84228 28.329 7.72792L15.8808 0.335337C15.8752 0.331577 15.8696 0.328457 15.864 0.325357C15.0902 -0.103403 14.2177 -0.116403 13.3993 0.334077L0.951726 7.72792C0.758426 7.84222 0.640366 8.05044 0.640366 8.27474V11.4545C1.13939 11.4545 0.925006 11.4545 1.27675 11.4545H3.18585V22.9096C1.78195 22.9096 0.640366 24.051 0.640366 25.4548V28C1.27675 28 0.925006 28 1.27675 28H28.004C28.3558 28 28.6404 28 28.6404 28V25.4548C28.6404 24.051 27.4988 22.9096 26.095 22.9096V11.4545H28.004ZM27.3676 25.4546V26.7272H1.91307V25.4546C1.91307 24.753 2.48419 24.1818 3.18579 24.1818H3.82217H25.4586H26.095C26.7966 24.1818 27.3676 24.7528 27.3676 25.4546ZM4.45855 22.909V11.4545H7.00401V22.909H4.45855ZM8.27673 22.909V11.4545H12.0949V22.909H8.27673ZM13.3676 22.909V11.4545H15.9132V22.909H13.3676ZM17.1858 22.909V11.4545H21.004V22.909H17.1858ZM22.2768 22.909V11.4545H24.8222V22.909H22.2768ZM1.91307 10.1818V8.63502L14.0307 1.43616C14.4272 1.21804 14.8486 1.21864 15.24 1.4318L27.3676 8.63502V10.1818H1.91307Z" fill="#004A80"/>
<path d="M37.8028 11.0001V1.20008H42.5908C43.8228 1.20008 44.7468 1.43342 45.3628 1.90008C45.9882 2.36674 46.3008 2.98274 46.3008 3.74808C46.3008 4.26142 46.1748 4.70942 45.9228 5.09208C45.6708 5.46542 45.3254 5.75474 44.8868 5.96008C44.4482 6.16542 43.9442 6.26808 43.3748 6.26808L43.6408 5.69408C44.2568 5.69408 44.8028 5.79674 45.2788 6.00208C45.7548 6.19808 46.1234 6.49208 46.3848 6.88408C46.6554 7.27608 46.7908 7.75675 46.7908 8.32609C46.7908 9.16609 46.4594 9.82409 45.7968 10.3001C45.1342 10.7667 44.1588 11.0001 42.8708 11.0001H37.8028ZM40.0568 9.29208H42.7028C43.2908 9.29208 43.7342 9.19875 44.0328 9.01209C44.3408 8.81609 44.4948 8.50809 44.4948 8.08809C44.4948 7.67743 44.3408 7.37409 44.0328 7.17809C43.7342 6.97275 43.2908 6.87008 42.7028 6.87008H39.8888V5.21808H42.3108C42.8614 5.21808 43.2814 5.12474 43.5708 4.93808C43.8694 4.74208 44.0188 4.44808 44.0188 4.05608C44.0188 3.67342 43.8694 3.38874 43.5708 3.20208C43.2814 3.00608 42.8614 2.90808 42.3108 2.90808H40.0568V9.29208ZM52.9738 11.0001V9.53008L52.8338 9.20809V6.57608C52.8338 6.10942 52.6892 5.74542 52.3998 5.48408C52.1198 5.22274 51.6858 5.09208 51.0978 5.09208C50.6966 5.09208 50.2998 5.15742 49.9078 5.28808C49.5252 5.40942 49.1986 5.57742 48.9278 5.79208L48.1438 4.26608C48.5546 3.97674 49.0492 3.75274 49.6278 3.59408C50.2066 3.43542 50.7946 3.35608 51.3918 3.35608C52.5398 3.35608 53.4312 3.62674 54.0658 4.16808C54.7006 4.70942 55.0178 5.55408 55.0178 6.70208V11.0001H52.9738ZM50.6778 11.1121C50.0898 11.1121 49.5858 11.0141 49.1658 10.8181C48.7458 10.6127 48.4238 10.3374 48.1998 9.99208C47.9758 9.64674 47.8638 9.25942 47.8638 8.83008C47.8638 8.38208 47.9712 7.99009 48.1858 7.65409C48.4098 7.31809 48.7598 7.05674 49.2358 6.87008C49.7118 6.67408 50.3326 6.57608 51.0978 6.57608H53.0998V7.85009H51.3358C50.8226 7.85009 50.4678 7.93409 50.2718 8.10209C50.0852 8.27009 49.9918 8.48009 49.9918 8.73209C49.9918 9.01209 50.0992 9.23609 50.3138 9.40409C50.5378 9.56275 50.8412 9.64209 51.2238 9.64209C51.5878 9.64209 51.9146 9.55809 52.2038 9.39009C52.4932 9.21275 52.7032 8.95608 52.8338 8.62008L53.1698 9.62809C53.0112 10.1134 52.7218 10.4821 52.3018 10.7341C51.8818 10.9861 51.3406 11.1121 50.6778 11.1121ZM61.5726 3.35608C62.1698 3.35608 62.7018 3.47742 63.1686 3.72008C63.6446 3.95342 64.0178 4.31742 64.2886 4.81208C64.5592 5.29742 64.6946 5.92274 64.6946 6.68808V11.0001H62.5106V7.02408C62.5106 6.41742 62.3752 5.96942 62.1046 5.68008C61.8432 5.39074 61.4698 5.24608 60.9846 5.24608C60.6392 5.24608 60.3266 5.32074 60.0466 5.47008C59.7758 5.61008 59.5612 5.82942 59.4026 6.12808C59.2532 6.42674 59.1786 6.80942 59.1786 7.27608V11.0001H56.9946V3.46808H59.0806V5.55408L58.6886 4.92408C58.9592 4.42008 59.3466 4.03274 59.8506 3.76208C60.3546 3.49142 60.9286 3.35608 61.5726 3.35608ZM68.4802 9.46009L68.5362 6.80008L72.0502 3.46808H74.6542L71.2802 6.89808L70.1462 7.82208L68.4802 9.46009ZM66.6742 11.0001V0.612084H68.8582V11.0001H66.6742ZM72.2882 11.0001L69.7402 7.83609L71.1122 6.14208L74.9342 11.0001H72.2882ZM79.186 11.1121C78.3832 11.1121 77.6692 10.9441 77.044 10.6081C76.428 10.2721 75.938 9.81475 75.574 9.23609C75.2192 8.64808 75.042 7.98075 75.042 7.23408C75.042 6.47808 75.2192 5.81074 75.574 5.23208C75.938 4.64408 76.428 4.18674 77.044 3.86008C77.6692 3.52408 78.3832 3.35608 79.186 3.35608C79.9792 3.35608 80.6886 3.52408 81.314 3.86008C81.9392 4.18674 82.4292 4.63942 82.784 5.21808C83.1386 5.79674 83.316 6.46874 83.316 7.23408C83.316 7.98075 83.1386 8.64808 82.784 9.23609C82.4292 9.81475 81.9392 10.2721 81.314 10.6081C80.6886 10.9441 79.9792 11.1121 79.186 11.1121ZM79.186 9.32008C79.55 9.32008 79.8766 9.23608 80.166 9.06808C80.4552 8.90008 80.684 8.66208 80.852 8.35408C81.02 8.03674 81.104 7.66342 81.104 7.23408C81.104 6.79542 81.02 6.42208 80.852 6.11408C80.684 5.80608 80.4552 5.56808 80.166 5.40008C79.8766 5.23208 79.55 5.14808 79.186 5.14808C78.822 5.14808 78.4952 5.23208 78.206 5.40008C77.9166 5.56808 77.6832 5.80608 77.506 6.11408C77.338 6.42208 77.254 6.79542 77.254 7.23408C77.254 7.66342 77.338 8.03674 77.506 8.35408C77.6832 8.66208 77.9166 8.90008 78.206 9.06808C78.4952 9.23608 78.822 9.32008 79.186 9.32008ZM86.6146 11.0001L83.4506 3.46808H85.7046L88.3366 9.95008H87.2166L89.9466 3.46808H92.0466L88.8686 11.0001H86.6146ZM97.3118 11.0001V9.53008L97.1718 9.20809V6.57608C97.1718 6.10942 97.0272 5.74542 96.7378 5.48408C96.4578 5.22274 96.0238 5.09208 95.4358 5.09208C95.0344 5.09208 94.6378 5.15742 94.2458 5.28808C93.8632 5.40942 93.5364 5.57742 93.2658 5.79208L92.4818 4.26608C92.8924 3.97674 93.3872 3.75274 93.9658 3.59408C94.5444 3.43542 95.1324 3.35608 95.7298 3.35608C96.8778 3.35608 97.7692 3.62674 98.4038 4.16808C99.0384 4.70942 99.3558 5.55408 99.3558 6.70208V11.0001H97.3118ZM95.0158 11.1121C94.4278 11.1121 93.9238 11.0141 93.5038 10.8181C93.0838 10.6127 92.7618 10.3374 92.5378 9.99208C92.3138 9.64674 92.2018 9.25942 92.2018 8.83008C92.2018 8.38208 92.3092 7.99009 92.5238 7.65409C92.7478 7.31809 93.0978 7.05674 93.5738 6.87008C94.0498 6.67408 94.6704 6.57608 95.4358 6.57608H97.4378V7.85009H95.6738C95.1604 7.85009 94.8058 7.93409 94.6098 8.10209C94.4232 8.27009 94.3298 8.48009 94.3298 8.73209C94.3298 9.01209 94.4372 9.23609 94.6518 9.40409C94.8758 9.56275 95.1792 9.64209 95.5618 9.64209C95.9258 9.64209 96.2524 9.55809 96.5418 9.39009C96.8312 9.21275 97.0412 8.95608 97.1718 8.62008L97.5078 9.62809C97.3492 10.1134 97.0598 10.4821 96.6398 10.7341C96.2198 10.9861 95.6784 11.1121 95.0158 11.1121ZM94.6798 2.50208L96.5698 0.486084H98.9218L96.3878 2.50208H94.6798ZM37.8028 27.0001V17.2001H42.0448C42.9222 17.2001 43.6782 17.3447 44.3128 17.6341C44.9474 17.9141 45.4374 18.3201 45.7828 18.8521C46.1282 19.3841 46.3008 20.0187 46.3008 20.7561C46.3008 21.4841 46.1282 22.1141 45.7828 22.6461C45.4374 23.1781 44.9474 23.5887 44.3128 23.8781C43.6782 24.1581 42.9222 24.2981 42.0448 24.2981H39.0628L40.0708 23.2761V27.0001H37.8028ZM40.0708 23.5281L39.0628 22.4501H41.9188C42.6188 22.4501 43.1414 22.3007 43.4868 22.0021C43.8322 21.7035 44.0048 21.2881 44.0048 20.7561C44.0048 20.2147 43.8322 19.7947 43.4868 19.4961C43.1414 19.1975 42.6188 19.0481 41.9188 19.0481H39.0628L40.0708 17.9701V23.5281ZM47.9028 27.0001V16.6121H50.0868V27.0001H47.9028ZM56.7336 27.0001V25.5301L56.5936 25.2081V22.5761C56.5936 22.1095 56.449 21.7455 56.1596 21.4841C55.8796 21.2227 55.4456 21.0921 54.8576 21.0921C54.4564 21.0921 54.0596 21.1575 53.6676 21.2881C53.285 21.4095 52.9584 21.5775 52.6876 21.7921L51.9036 20.2661C52.3144 19.9767 52.809 19.7527 53.3876 19.5941C53.9664 19.4355 54.5544 19.3561 55.1516 19.3561C56.2996 19.3561 57.191 19.6267 57.8256 20.1681C58.4604 20.7095 58.7776 21.5541 58.7776 22.7021V27.0001H56.7336ZM54.4376 27.1121C53.8496 27.1121 53.3456 27.0141 52.9256 26.8181C52.5056 26.6127 52.1836 26.3375 51.9596 25.9921C51.7356 25.6467 51.6236 25.2595 51.6236 24.8301C51.6236 24.3821 51.731 23.9901 51.9456 23.6541C52.1696 23.3181 52.5196 23.0567 52.9956 22.8701C53.4716 22.6741 54.0924 22.5761 54.8576 22.5761H56.8596V23.8501H55.0956C54.5824 23.8501 54.2276 23.9341 54.0316 24.1021C53.845 24.2701 53.7516 24.4801 53.7516 24.7321C53.7516 25.0121 53.859 25.2361 54.0736 25.4041C54.2976 25.5627 54.601 25.6421 54.9836 25.6421C55.3476 25.6421 55.6744 25.5581 55.9636 25.3901C56.253 25.2127 56.463 24.9561 56.5936 24.6201L56.9296 25.6281C56.771 26.1135 56.4816 26.4821 56.0616 26.7341C55.6416 26.9861 55.1004 27.1121 54.4376 27.1121ZM63.8342 27.1121C62.9476 27.1121 62.257 26.8881 61.7622 26.4401C61.2676 25.9827 61.0202 25.3061 61.0202 24.4101V17.8021H63.2042V24.3821C63.2042 24.6995 63.2882 24.9467 63.4562 25.1241C63.6242 25.2921 63.853 25.3761 64.1422 25.3761C64.4876 25.3761 64.7816 25.2827 65.0242 25.0961L65.6122 26.6361C65.3882 26.7947 65.1176 26.9161 64.8002 27.0001C64.4922 27.0747 64.1702 27.1121 63.8342 27.1121ZM59.8582 21.3161V19.6361H65.0802V21.3161H59.8582ZM71.2902 27.1121C70.6276 27.1121 70.0582 26.9721 69.5822 26.6921C69.1062 26.4121 68.7422 25.9875 68.4902 25.4181C68.2382 24.8395 68.1122 24.1115 68.1122 23.2341C68.1122 22.3475 68.243 21.6195 68.5042 21.0501C68.775 20.4807 69.1482 20.0561 69.6242 19.7761C70.1002 19.4961 70.6556 19.3561 71.2902 19.3561C71.9996 19.3561 72.6342 19.5147 73.1942 19.8321C73.7636 20.1495 74.2116 20.5975 74.5382 21.1761C74.8742 21.7547 75.0422 22.4407 75.0422 23.2341C75.0422 24.0181 74.8742 24.6995 74.5382 25.2781C74.2116 25.8567 73.7636 26.3095 73.1942 26.6361C72.6342 26.9535 71.9996 27.1121 71.2902 27.1121ZM66.8382 27.0001V16.6121H69.0222V20.9941L68.8822 23.2201L68.9242 25.4601V27.0001H66.8382ZM70.9122 25.3201C71.2762 25.3201 71.5982 25.2361 71.8782 25.0681C72.1676 24.9001 72.3962 24.6621 72.5642 24.3541C72.7416 24.0367 72.8302 23.6635 72.8302 23.2341C72.8302 22.7955 72.7416 22.4221 72.5642 22.1141C72.3962 21.8061 72.1676 21.5681 71.8782 21.4001C71.5982 21.2321 71.2762 21.1481 70.9122 21.1481C70.5482 21.1481 70.2216 21.2321 69.9322 21.4001C69.643 21.5681 69.4142 21.8061 69.2462 22.1141C69.0782 22.4221 68.9942 22.7955 68.9942 23.2341C68.9942 23.6635 69.0782 24.0367 69.2462 24.3541C69.4142 24.6621 69.643 24.9001 69.9322 25.0681C70.2216 25.2361 70.5482 25.3201 70.9122 25.3201ZM81.0012 27.0001V25.5301L80.8612 25.2081V22.5761C80.8612 22.1095 80.7166 21.7455 80.4272 21.4841C80.1472 21.2227 79.7132 21.0921 79.1252 21.0921C78.7238 21.0921 78.3272 21.1575 77.9352 21.2881C77.5526 21.4095 77.2258 21.5775 76.9552 21.7921L76.1712 20.2661C76.5818 19.9767 77.0766 19.7527 77.6552 19.5941C78.2338 19.4355 78.8218 19.3561 79.4192 19.3561C80.5672 19.3561 81.4586 19.6267 82.0932 20.1681C82.7278 20.7095 83.0452 21.5541 83.0452 22.7021V27.0001H81.0012ZM78.7052 27.1121C78.1172 27.1121 77.6132 27.0141 77.1932 26.8181C76.7732 26.6127 76.4512 26.3375 76.2272 25.9921C76.0032 25.6467 75.8912 25.2595 75.8912 24.8301C75.8912 24.3821 75.9986 23.9901 76.2132 23.6541C76.4372 23.3181 76.7872 23.0567 77.2632 22.8701C77.7392 22.6741 78.3598 22.5761 79.1252 22.5761H81.1272V23.8501H79.3632C78.8498 23.8501 78.4952 23.9341 78.2992 24.1021C78.1126 24.2701 78.0192 24.4801 78.0192 24.7321C78.0192 25.0121 78.1266 25.2361 78.3412 25.4041C78.5652 25.5627 78.8686 25.6421 79.2512 25.6421C79.6152 25.6421 79.9418 25.5581 80.2312 25.3901C80.5206 25.2127 80.7306 24.9561 80.8612 24.6201L81.1972 25.6281C81.0386 26.1135 80.7492 26.4821 80.3292 26.7341C79.9092 26.9861 79.3678 27.1121 78.7052 27.1121Z" fill="#004A80"/>
</svg>
