<svg width="205" height="40" viewBox="0 0 205 40" fill="none" xmlns="http://www.w3.org/2000/svg">
<g clip-path="url(#clip0_589_1366)">
<g clip-path="url(#clip1_589_1366)">
<path d="M95.5416 0H94.7334V40H95.5416V0Z" fill="#0000FF"/>
<path d="M29.7651 6.79285C29.7651 10.1108 15.2348 10.4723 15.2348 14.0426H14.9143C14.9109 10.4757 0.380596 10.1142 0.380596 6.79285H0.0566406V10.2575C0.0566406 14.3939 14.6142 14.0051 14.9109 17.9847H15.2314C15.5281 14.0085 30.0856 14.3973 30.0856 10.2575V6.79285H29.7617H29.7651Z" fill="#0000FF"/>
<path d="M29.5161 14.8337C29.5161 18.1244 15.1052 18.4825 15.1052 22.0255H14.7881C14.7881 18.4825 0.377186 18.1244 0.377186 14.8337H0.0566406V18.2677C0.0566406 22.37 14.4914 21.9846 14.7881 25.9267H15.1052C15.3985 21.9846 29.8367 22.3666 29.8367 18.2643V14.8303H29.5161V14.8337Z" fill="#0000FF"/>
<path d="M29.5161 22.6257C29.5161 25.9164 15.1052 26.2745 15.1052 29.8175H14.7881C14.7881 26.2745 0.377186 25.9199 0.377186 22.6257H0.0566406V26.0597C0.0566406 30.162 14.4914 29.7766 14.7881 33.7221H15.1052C15.3985 29.78 29.8367 30.162 29.8367 26.0631V22.6291H29.5161V22.6257Z" fill="#0000FF"/>
<path d="M40.8547 18.6496C40.8547 19.3112 40.6296 19.8193 40.1795 20.1739C39.7293 20.5286 39.0848 20.7093 38.2426 20.7093H37.4753V23.2771H36.7148V16.7468H38.4062C40.0362 16.7468 40.8547 17.3811 40.8547 18.6496ZM37.4753 20.0546H38.1573C38.8291 20.0546 39.3167 19.9455 39.6168 19.7272C39.9169 19.509 40.0669 19.1611 40.0669 18.6837C40.0669 18.2507 39.9237 17.9301 39.6441 17.7187C39.361 17.5073 38.9212 17.4016 38.321 17.4016H37.4719V20.0546H37.4753Z" fill="#0000FF"/>
<path d="M45.1206 23.2736L44.974 22.578H44.9399C44.6943 22.8849 44.4522 23.0929 44.2101 23.202C43.968 23.3111 43.6645 23.3657 43.2996 23.3657C42.8154 23.3657 42.4335 23.2395 42.1572 22.9906C41.881 22.7417 41.7446 22.3836 41.7446 21.9232C41.7446 20.9343 42.5358 20.416 44.1146 20.3683L44.9467 20.341V20.0375C44.9467 19.6521 44.8648 19.3691 44.6977 19.1884C44.5306 19.0042 44.2681 18.9122 43.9032 18.9122C43.494 18.9122 43.0336 19.0383 42.5187 19.2873L42.2902 18.7212C42.5324 18.5916 42.7949 18.4859 43.0814 18.4143C43.3678 18.3393 43.6577 18.3018 43.9441 18.3018C44.5272 18.3018 44.9603 18.4313 45.2399 18.6905C45.523 18.9497 45.6628 19.3657 45.6628 19.9352V23.277H45.1138L45.1206 23.2736ZM43.4462 22.7519C43.9066 22.7519 44.2715 22.6257 44.5341 22.3734C44.7966 22.121 44.9296 21.7664 44.9296 21.3094V20.8661L44.1896 20.8968C43.5997 20.9173 43.1769 21.0093 42.9143 21.1696C42.6551 21.3333 42.5221 21.5856 42.5221 21.9267C42.5221 22.196 42.604 22.3972 42.7642 22.5371C42.9245 22.6769 43.153 22.7485 43.4462 22.7485V22.7519Z" fill="#0000FF"/>
<path d="M46.4199 18.3802H47.2145L48.2852 21.1731C48.5205 21.8108 48.6671 22.2711 48.7217 22.5542H48.7558C48.7933 22.4041 48.8752 22.1415 48.9979 21.7733C49.1207 21.405 49.5265 20.2762 50.2119 18.3802H51.0064L48.9024 23.9523C48.6944 24.5047 48.4523 24.8935 48.1727 25.1253C47.8931 25.3572 47.5521 25.4698 47.1463 25.4698C46.9212 25.4698 46.6961 25.4459 46.4779 25.3947V24.8014C46.6416 24.8389 46.8257 24.856 47.0269 24.856C47.535 24.856 47.8999 24.5695 48.1181 24L48.3909 23.3044L46.4165 18.3837L46.4199 18.3802Z" fill="#0000FF"/>
<path d="M58.0446 23.2736V20.0887C58.0446 19.6999 57.9594 19.4066 57.7957 19.2123C57.6286 19.0179 57.3694 18.919 57.0182 18.919C56.5578 18.919 56.2168 19.052 55.9952 19.318C55.7735 19.584 55.6644 19.9898 55.6644 20.5422V23.2736H54.9244V20.0887C54.9244 19.6999 54.8392 19.4066 54.6755 19.2123C54.5084 19.0179 54.2492 18.919 53.8946 18.919C53.4308 18.919 53.0898 19.0588 52.875 19.335C52.6601 19.6147 52.551 20.0682 52.551 20.7025V23.2702H51.811V18.3768H52.4146L52.534 19.0452H52.5681C52.7079 18.8065 52.9057 18.6223 53.1614 18.4859C53.4172 18.3529 53.7002 18.2847 54.0173 18.2847C54.7812 18.2847 55.2825 18.5609 55.5178 19.1168H55.5519C55.6985 18.861 55.9099 18.6598 56.1861 18.5098C56.4624 18.3598 56.7795 18.2881 57.1341 18.2881C57.6866 18.2881 58.1026 18.4314 58.3788 18.7144C58.655 18.9974 58.7914 19.4544 58.7914 20.0784V23.2702H58.0514L58.0446 23.2736Z" fill="#0000FF"/>
<path d="M62.3823 23.3623C61.6593 23.3623 61.0864 23.1407 60.6704 22.7008C60.251 22.2609 60.043 21.6471 60.043 20.8662C60.043 20.0853 60.2373 19.451 60.6261 18.9872C61.0148 18.5234 61.5366 18.2916 62.1913 18.2916C62.8051 18.2916 63.2893 18.4928 63.6474 18.8951C64.0055 19.2975 64.1828 19.8295 64.1828 20.4911V20.9616H60.8102C60.8239 21.5379 60.9705 21.971 61.2467 22.2711C61.5229 22.5712 61.9117 22.7178 62.4096 22.7178C62.9347 22.7178 63.4564 22.6087 63.9714 22.387V23.0486C63.7088 23.1611 63.4598 23.243 63.228 23.2907C62.9927 23.3385 62.713 23.3657 62.3823 23.3657V23.3623ZM62.1811 18.9088C61.7889 18.9088 61.4752 19.0384 61.2399 19.2941C61.0046 19.5499 60.8682 19.9045 60.8273 20.3581H63.3848C63.3848 19.8909 63.2791 19.5328 63.0711 19.2839C62.8631 19.035 62.5664 18.9122 62.1777 18.9122L62.1811 18.9088Z" fill="#0000FF"/>
<path d="M68.793 23.2737V20.1057C68.793 19.7067 68.7009 19.4101 68.5202 19.2123C68.3395 19.0145 68.053 18.919 67.6677 18.919C67.1562 18.919 66.7811 19.0588 66.5424 19.335C66.3037 19.6113 66.1843 20.0682 66.1843 20.7059V23.2737H65.4443V18.3802H66.0479L66.1673 19.0486H66.2014C66.3548 18.8065 66.5662 18.6223 66.839 18.4893C67.1119 18.3564 67.4188 18.2916 67.7529 18.2916C68.3429 18.2916 68.7862 18.4348 69.0829 18.7178C69.3795 19.0009 69.5296 19.4578 69.5296 20.0818V23.2737H68.7896H68.793Z" fill="#0000FF"/>
<path d="M72.6398 22.7519C72.7694 22.7519 72.8956 22.7417 73.0184 22.7247C73.1411 22.7042 73.2366 22.6837 73.3082 22.6633V23.2293C73.2264 23.2669 73.1104 23.301 72.9536 23.3248C72.7967 23.3487 72.6569 23.3623 72.5307 23.3623C71.5827 23.3623 71.1087 22.8645 71.1087 21.8653V18.9531H70.4062V18.5951L71.1087 18.2882L71.4224 17.2447H71.8521V18.3802H73.2741V18.9565H71.8521V21.838C71.8521 22.1313 71.9237 22.3598 72.0635 22.5166C72.2034 22.6735 72.3943 22.7519 72.6398 22.7519Z" fill="#0000FF"/>
<path d="M40.8204 33.4118L40.0088 31.3351H37.3933L36.5886 33.4118H35.8213L38.4027 26.8542H39.0404L41.6082 33.4118H40.8238H40.8204ZM39.7701 30.6531L39.0097 28.6309C38.9108 28.3751 38.8085 28.0614 38.7062 27.6897C38.6414 27.9762 38.5459 28.2899 38.4232 28.6309L37.6559 30.6531H39.7667H39.7701Z" fill="#0000FF"/>
<path d="M44.3464 33.5004C43.6371 33.5004 43.0881 33.2822 42.6993 32.8457C42.3106 32.4092 42.1162 31.792 42.1162 30.994C42.1162 30.1961 42.314 29.5414 42.7096 29.0946C43.1051 28.6479 43.6644 28.4263 44.3941 28.4263C44.6294 28.4263 44.8647 28.4501 45.1 28.5013C45.3353 28.5524 45.5195 28.6104 45.6524 28.6786L45.424 29.3095C45.2603 29.2447 45.083 29.1901 44.8886 29.1458C44.6942 29.1015 44.5237 29.081 44.3737 29.081C43.3779 29.081 42.8835 29.7153 42.8835 30.9838C42.8835 31.584 43.0062 32.0478 43.2484 32.3683C43.4905 32.6888 43.8519 32.8525 44.3259 32.8525C44.7351 32.8525 45.1512 32.7639 45.5808 32.59V33.2481C45.2535 33.4186 44.8408 33.5038 44.343 33.5038L44.3464 33.5004Z" fill="#0000FF"/>
<path d="M48.7014 33.5004C47.9921 33.5004 47.4431 33.2822 47.0543 32.8457C46.6656 32.4092 46.4712 31.792 46.4712 30.994C46.4712 30.1961 46.669 29.5414 47.0645 29.0946C47.4601 28.6479 48.0194 28.4263 48.7491 28.4263C48.9844 28.4263 49.2197 28.4501 49.455 28.5013C49.6903 28.5524 49.8744 28.6104 50.0074 28.6786L49.7789 29.3095C49.6153 29.2447 49.4379 29.1901 49.2436 29.1458C49.0492 29.1015 48.8787 29.081 48.7286 29.081C47.7329 29.081 47.2385 29.7153 47.2385 30.9838C47.2385 31.584 47.3612 32.0478 47.6033 32.3683C47.8454 32.6888 48.2069 32.8525 48.6809 32.8525C49.0901 32.8525 49.5061 32.7639 49.9358 32.59V33.2481C49.6084 33.4186 49.1958 33.5038 48.698 33.5038L48.7014 33.5004Z" fill="#0000FF"/>
<path d="M53.1684 33.5004C52.4455 33.5004 51.8726 33.2788 51.4566 32.8389C51.0371 32.399 50.8291 31.7852 50.8291 31.0043C50.8291 30.2234 51.0235 29.5891 51.4122 29.1253C51.801 28.6616 52.3227 28.4297 52.9774 28.4297C53.5913 28.4297 54.0755 28.6309 54.4335 29.0333C54.7916 29.4357 54.9689 29.9676 54.9689 30.6292V31.0998H51.5964C51.61 31.6761 51.7566 32.1091 52.0329 32.4092C52.3091 32.7093 52.6978 32.8559 53.1957 32.8559C53.7208 32.8559 54.2426 32.7468 54.7575 32.5252V33.1867C54.4949 33.2993 54.246 33.3811 54.0141 33.4288C53.7788 33.4766 53.4992 33.5039 53.1684 33.5039V33.5004ZM52.9672 29.0469C52.5751 29.0469 52.2613 29.1765 52.026 29.4322C51.7907 29.688 51.6543 30.0426 51.6134 30.4962H54.171C54.171 30.029 54.0652 29.6709 53.8572 29.422C53.6492 29.1731 53.3525 29.0503 52.9638 29.0503L52.9672 29.0469Z" fill="#0000FF"/>
<path d="M58.5084 33.5004C58.1913 33.5004 57.898 33.4425 57.6354 33.3231C57.3728 33.2072 57.1512 33.023 56.9705 32.7809H56.9159C56.9534 33.0674 56.9705 33.3368 56.9705 33.5925V35.6079H56.2305V28.5149H56.8341L56.9364 29.1833H56.9705C57.1614 28.9139 57.3831 28.7229 57.6354 28.6036C57.8878 28.4842 58.1776 28.4263 58.505 28.4263C59.1529 28.4263 59.6542 28.6479 60.0088 29.0912C60.3635 29.5345 60.5374 30.1586 60.5374 30.9565C60.5374 31.7545 60.3566 32.3853 59.9986 32.8287C59.6405 33.2754 59.1427 33.497 58.505 33.497L58.5084 33.5004ZM58.4027 29.0571C57.9014 29.0571 57.5399 29.1969 57.3183 29.4732C57.0932 29.7494 56.9807 30.1893 56.9739 30.7963V30.9634C56.9739 31.6522 57.0898 32.1432 57.3183 32.4399C57.5468 32.7366 57.915 32.8832 58.4197 32.8832C58.8426 32.8832 59.1734 32.7127 59.4121 32.3683C59.6508 32.0273 59.7701 31.5533 59.7701 30.9531C59.7701 30.353 59.6508 29.8755 59.4121 29.5482C59.1734 29.2208 58.8358 29.0605 58.3993 29.0605L58.4027 29.0571Z" fill="#0000FF"/>
<path d="M63.4191 32.89C63.5487 32.89 63.6749 32.8798 63.7977 32.8627C63.9204 32.8423 64.0159 32.8218 64.0875 32.8013V33.3674C64.0057 33.4049 63.8897 33.439 63.7329 33.4629C63.576 33.4868 63.4362 33.5004 63.31 33.5004C62.362 33.5004 61.888 33.0025 61.888 32.0034V29.0912H61.1855V28.7331L61.888 28.4262L62.2017 27.3828H62.6314V28.5183H64.0534V29.0946H62.6314V31.9761C62.6314 32.2694 62.703 32.4978 62.8428 32.6547C62.9826 32.8116 63.1736 32.89 63.4191 32.89Z" fill="#0000FF"/>
<path d="M68.0737 33.4117L67.9271 32.7161H67.893C67.6475 33.023 67.4053 33.231 67.1632 33.3401C66.9211 33.4493 66.6176 33.5038 66.2527 33.5038C65.7685 33.5038 65.3866 33.3776 65.1104 33.1287C64.8342 32.8798 64.6978 32.5217 64.6978 32.0614C64.6978 31.0724 65.4889 30.5541 67.0677 30.5064L67.8998 30.4791V30.1756C67.8998 29.7903 67.818 29.5072 67.6509 29.3265C67.4838 29.1424 67.2212 29.0503 66.8563 29.0503C66.4471 29.0503 65.9868 29.1765 65.4718 29.4254L65.2434 28.8593C65.4855 28.7297 65.7481 28.624 66.0345 28.5524C66.3209 28.4774 66.6108 28.4399 66.8972 28.4399C67.4804 28.4399 67.9134 28.5695 68.1931 28.8286C68.4761 29.0878 68.6159 29.5038 68.6159 30.0733V33.4152H68.0669L68.0737 33.4117ZM66.3994 32.89C66.8597 32.89 67.2246 32.7638 67.4872 32.5115C67.7498 32.2591 67.8827 31.9045 67.8827 31.4476V31.0042L67.1428 31.0349C66.5528 31.0554 66.13 31.1475 65.8674 31.3077C65.6082 31.4714 65.4752 31.7238 65.4752 32.0648C65.4752 32.3342 65.5571 32.5354 65.7174 32.6752C65.8776 32.815 66.1061 32.8866 66.3994 32.8866V32.89Z" fill="#0000FF"/>
<path d="M73.5025 33.4118V30.2438C73.5025 29.8449 73.4104 29.5482 73.2297 29.3504C73.049 29.1526 72.7625 29.0571 72.3772 29.0571C71.8657 29.0571 71.4906 29.197 71.2518 29.4732C71.0131 29.7494 70.8938 30.2063 70.8938 30.844V33.4118H70.1538V28.5183H70.7574L70.8767 29.1867H70.9108C71.0643 28.9446 71.2757 28.7605 71.5485 28.6275C71.8213 28.4945 72.1282 28.4297 72.4624 28.4297C73.0524 28.4297 73.4957 28.5729 73.7923 28.8559C74.089 29.139 74.2391 29.5959 74.2391 30.22V33.4118H73.4991H73.5025Z" fill="#0000FF"/>
<path d="M77.7209 33.5004C77.0116 33.5004 76.4626 33.2822 76.0738 32.8457C75.6851 32.4092 75.4907 31.792 75.4907 30.994C75.4907 30.1961 75.6885 29.5414 76.0841 29.0946C76.4796 28.6479 77.0389 28.4263 77.7686 28.4263C78.0039 28.4263 78.2392 28.4501 78.4745 28.5013C78.7098 28.5524 78.894 28.6104 79.027 28.6786L78.7985 29.3095C78.6348 29.2447 78.4575 29.1901 78.2631 29.1458C78.0687 29.1015 77.8982 29.081 77.7482 29.081C76.7524 29.081 76.258 29.7153 76.258 30.9838C76.258 31.584 76.3807 32.0478 76.6229 32.3683C76.865 32.6888 77.2264 32.8525 77.7004 32.8525C78.1096 32.8525 78.5257 32.7639 78.9553 32.59V33.2481C78.628 33.4186 78.2154 33.5038 77.7175 33.5038L77.7209 33.5004Z" fill="#0000FF"/>
<path d="M82.1879 33.5004C81.465 33.5004 80.8921 33.2788 80.4761 32.8389C80.0566 32.399 79.8486 31.7852 79.8486 31.0043C79.8486 30.2234 80.043 29.5891 80.4318 29.1253C80.8205 28.6616 81.3422 28.4297 81.997 28.4297C82.6108 28.4297 83.095 28.6309 83.4531 29.0333C83.8111 29.4357 83.9884 29.9676 83.9884 30.6292V31.0998H80.6159C80.6295 31.6761 80.7762 32.1091 81.0524 32.4092C81.3286 32.7093 81.7173 32.8559 82.2152 32.8559C82.7404 32.8559 83.2621 32.7468 83.777 32.5252V33.1867C83.5144 33.2993 83.2655 33.3811 83.0336 33.4288C82.7983 33.4766 82.5187 33.5039 82.1879 33.5039V33.5004ZM81.9867 29.0469C81.5946 29.0469 81.2809 29.1765 81.0456 29.4322C80.8103 29.688 80.6739 30.0426 80.6329 30.4962H83.1905C83.1905 30.029 83.0848 29.6709 82.8768 29.422C82.6687 29.1731 82.3721 29.0503 81.9833 29.0503L81.9867 29.0469Z" fill="#0000FF"/>
<path fill-rule="evenodd" clip-rule="evenodd" d="M132.541 23.5328H130.924V14.1654H132.541V23.5328ZM130.12 16.2933C130.12 16.757 129.738 17.1322 129.271 17.1322C128.803 17.1322 128.421 16.757 128.421 16.2933C128.421 15.8295 128.803 15.4544 129.271 15.4544C129.738 15.4544 130.12 15.8295 130.12 16.2933ZM126.989 20.0443C127.654 20.0443 128.094 19.6215 128.094 18.9668C128.094 18.312 127.637 17.8619 126.948 17.8619C126.324 17.8619 125.881 18.2984 125.881 18.9906C125.881 19.6829 126.297 20.0443 126.986 20.0443H126.989ZM125.547 24.0784C125.547 24.5149 126.041 24.8253 126.873 24.8253C128.005 24.8253 128.643 24.4672 128.643 23.9898C128.643 23.6181 128.343 23.4749 127.733 23.451L126.236 23.3726C125.768 23.5908 125.547 23.7954 125.547 24.0784ZM124.299 22.012C124.299 21.538 124.65 21.0742 125.315 20.74C124.691 20.3683 124.367 19.7647 124.367 18.9804C124.367 17.6062 125.407 16.6445 126.955 16.6445C127.589 16.6445 128.224 16.8457 128.708 17.2549C129.028 17.5243 129.281 17.879 129.421 18.2745C129.516 18.5405 129.543 18.827 129.543 19.11C129.543 20.4058 128.582 21.2549 126.993 21.2549C126.706 21.2549 126.461 21.2276 126.249 21.1765C125.949 21.2924 125.806 21.4459 125.806 21.6266C125.806 22.0085 126.259 22.0392 127.115 22.0938C127.265 22.104 127.426 22.1143 127.603 22.1279C129.359 22.2575 130.103 22.5917 130.103 23.8738C130.103 25.156 128.998 25.954 126.901 25.954C124.987 25.954 124.012 25.364 124.012 24.2728C124.012 23.642 124.391 23.2975 125.195 23.0384C124.585 22.7417 124.299 22.4723 124.299 22.012ZM136.367 22.2984C137.24 22.2984 137.659 21.5891 137.659 20.1603C137.659 18.7315 137.243 18.0358 136.367 18.0358C135.49 18.0358 135.074 18.7315 135.074 20.1603C135.074 21.5891 135.504 22.2984 136.367 22.2984ZM136.367 16.6547C138.195 16.6547 139.289 17.9438 139.289 20.1603C139.289 22.3768 138.181 23.6658 136.367 23.6658C134.553 23.6658 133.444 22.3632 133.444 20.1603C133.444 17.9574 134.539 16.6547 136.367 16.6547ZM144.432 20.1603C144.432 21.5652 143.883 22.3257 142.982 22.3257C142.539 22.3257 142.174 22.1313 141.768 21.746V18.5371C142.188 18.162 142.553 17.971 142.996 17.971C143.869 17.971 144.432 18.7451 144.432 20.1603ZM140.19 14.1688V21.9642C140.19 22.2848 140.162 22.8133 140.111 23.5362H141.363L141.533 22.8167C142.096 23.4101 142.655 23.6658 143.385 23.6658C144.936 23.6658 146.048 22.2609 146.048 20.1603C146.048 18.0597 144.912 16.6547 143.439 16.6547C142.747 16.6547 142.253 16.8866 141.782 17.4288V14.1688H140.19ZM148.125 21.6778C148.125 22.1279 148.387 22.4007 148.854 22.4007C149.363 22.4007 149.86 22.1688 150.355 21.6914V20.249C148.841 20.4536 148.125 20.8798 148.125 21.6778ZM150.396 22.9395C149.768 23.3896 149.09 23.6079 148.36 23.6079C147.211 23.6079 146.532 22.9258 146.532 21.8039C146.532 20.2967 147.797 19.4987 150.406 19.1748V18.6462C150.406 18.1552 150.068 17.8721 149.441 17.8721C148.814 17.8721 148.305 18.1415 147.941 18.6462L146.846 17.9642C147.419 17.0878 148.295 16.6513 149.468 16.6513C151.074 16.6513 151.975 17.4118 151.975 18.6496V22.6189C151.975 22.8508 152.016 23.1611 152.08 23.5328H150.539L150.396 22.9395ZM154.962 23.5328H153.346V14.1654H154.962V23.5328ZM157.305 21.7289C157.983 22.578 158.597 23.0043 159.354 23.0043C160.476 23.0043 161.141 22.012 161.141 20.1705C161.141 18.3291 160.476 17.3368 159.354 17.3368C158.597 17.3368 157.983 17.7494 157.305 18.5985V21.7289ZM156.496 16.7946H157.097L157.305 17.6709H157.369C158.011 17.0026 158.686 16.665 159.419 16.665C160.906 16.665 161.949 17.9403 161.949 20.1569C161.949 22.3734 160.906 23.6488 159.419 23.6488C158.689 23.6488 158.011 23.3282 157.369 22.6565H157.305V25.9813H156.496V16.7946ZM163.282 21.8176C163.282 20.6718 164.34 20.2455 166.635 19.7443V21.8176C165.84 22.6155 165.161 23.0145 164.415 23.0145C163.709 23.0145 163.279 22.5644 163.279 21.8176H163.282ZM164.312 23.659C165.148 23.659 165.891 23.3248 166.635 22.6428C166.648 22.9258 166.699 23.2225 166.764 23.5328H167.559C167.48 23.1066 167.443 22.7997 167.443 22.6292V18.4416C167.443 17.4357 166.542 16.6752 165.25 16.6752C164.077 16.6752 163.357 17.1253 162.822 18.0529L163.45 18.4143C163.855 17.6914 164.401 17.3334 165.144 17.3334C166.086 17.3334 166.645 17.7835 166.645 18.4416V19.0998C163.787 19.601 162.467 20.2967 162.467 21.8551C162.467 22.8986 163.187 23.659 164.309 23.659H164.312ZM168.162 16.7912H168.97L170.979 22.5235L172.974 16.7912H173.745L171.173 24.058C170.703 25.3981 170.154 25.9506 168.981 25.9506C168.773 25.9506 168.537 25.9369 168.275 25.8994V25.2549C168.483 25.2924 168.681 25.3061 168.848 25.3061C169.826 25.3061 170.27 24.7639 170.532 23.4885L168.159 16.7912H168.162ZM175.3 16.7912H174.556V23.5294H175.34V18.6224C176.019 17.7869 176.684 17.3743 177.311 17.3743C178.276 17.3743 178.484 17.9403 178.484 19.127V23.5328H179.269V18.6258C179.934 17.7903 180.612 17.3777 181.24 17.3777C182.205 17.3777 182.413 17.9438 182.413 19.1305V23.5362H183.184V18.8474C183.184 17.405 182.611 16.682 181.461 16.682C180.732 16.682 180.012 17.0674 179.269 17.8414H179.177C178.863 17.0674 178.314 16.682 177.547 16.682C176.831 16.682 176.074 17.0674 175.354 17.8414H175.303V16.798L175.3 16.7912ZM186.993 17.3197C185.922 17.3197 185.165 18.1177 185.035 19.5601H188.779C188.739 18.104 188.06 17.3197 186.993 17.3197ZM189.577 21.9062C188.977 23.1168 188.207 23.6454 187.006 23.6454C185.311 23.6454 184.227 22.3189 184.227 20.2046C184.227 17.9779 185.349 16.6616 186.979 16.6616C188.609 16.6616 189.537 17.7835 189.537 19.9216V20.1398H185.035C185.049 22.0085 185.765 23.0009 187.057 23.0009C187.93 23.0009 188.493 22.5746 188.974 21.5823L189.574 21.9028L189.577 21.9062ZM191.405 16.7912H190.597V23.5294H191.405V18.6224C192.135 17.7869 192.854 17.3743 193.533 17.3743C194.577 17.3743 194.812 17.9403 194.812 19.127V23.5328H195.606V18.844C195.606 17.4016 194.993 16.6786 193.765 16.6786C193.008 16.6786 192.213 17.064 191.402 17.8517V16.7946L191.405 16.7912ZM198.935 23.0247C199.119 23.0247 199.354 22.9736 199.651 22.8952V23.5397C199.351 23.6181 199.037 23.6692 198.737 23.6692C197.799 23.6692 197.393 23.2055 197.393 22.2268V17.4459H196.377V16.7877H197.393V14.7894H198.188V16.7877H199.61V17.4459H198.188V22.2643C198.188 22.7792 198.423 23.0247 198.931 23.0247H198.935ZM203.934 21.7767C203.934 22.486 203.371 23.0145 202.525 23.0145C201.731 23.0145 201.052 22.6155 200.462 21.8414L199.862 22.3189C200.541 23.2225 201.363 23.6454 202.433 23.6454C203.842 23.6454 204.756 22.8338 204.756 21.7119C204.756 20.59 204.063 20.2285 202.706 19.7272C202.597 19.6863 202.491 19.6488 202.392 19.6113C201.451 19.2634 200.906 19.0657 200.906 18.4143C200.906 17.763 201.39 17.3061 202.133 17.3061C202.877 17.3061 203.453 17.6266 203.975 18.312L204.548 17.8994C203.947 17.0878 203.163 16.6616 202.276 16.6616C200.919 16.6616 200.07 17.422 200.07 18.4518C200.07 19.4817 200.786 19.8704 202.171 20.3717C202.239 20.3956 202.307 20.4229 202.372 20.4433C203.371 20.8082 203.934 21.0128 203.934 21.7732V21.7767Z" fill="#003C71"/>
<path fill-rule="evenodd" clip-rule="evenodd" d="M115.743 13.5618C115.961 13.5311 116.186 13.572 116.377 13.6846C116.633 13.8312 116.814 14.0938 116.855 14.3836C116.896 14.6462 116.824 14.9224 116.66 15.1304C116.52 15.3146 116.312 15.4442 116.087 15.4919C115.862 15.5362 115.62 15.5055 115.419 15.3964C115.221 15.2907 115.061 15.1134 114.979 14.9054C114.867 14.6326 114.887 14.3018 115.034 14.046C115.18 13.7869 115.45 13.6027 115.746 13.5618H115.743ZM111.477 14.1176C112.531 13.8585 113.649 13.8585 114.706 14.1142C114.628 14.3359 114.607 14.5848 114.662 14.8133C114.734 15.1304 114.935 15.4169 115.211 15.5908C115.422 15.7238 115.671 15.7954 115.917 15.7852C116.357 15.7818 116.776 15.5158 116.984 15.1304C117.997 15.8295 118.819 16.8116 119.327 17.9335C119.849 19.0759 120.036 20.3615 119.879 21.6027C119.763 22.5337 119.45 23.4407 118.969 24.2455C118.195 25.5482 116.974 26.578 115.562 27.1202C114.549 27.5124 113.441 27.6522 112.364 27.5362C111.095 27.4032 109.867 26.8985 108.868 26.1006C107.852 25.2958 107.068 24.1944 106.648 22.9667C106.106 21.3947 106.164 19.6215 106.815 18.0904C107.187 17.2106 107.743 16.4126 108.439 15.7613C109.291 14.9633 110.348 14.387 111.484 14.1108L111.477 14.1176ZM111.446 15.4817C110.965 15.7033 110.553 16.0648 110.287 16.5251C110.014 16.9957 109.901 17.5448 109.932 18.087C109.953 18.52 110.072 18.9565 110.317 19.318C110.502 19.5942 110.754 19.8227 111.037 19.9932C110.665 20.1841 110.311 20.4365 110.075 20.7911C109.901 21.0503 109.813 21.3743 109.867 21.6846C109.905 21.9028 110.028 22.104 110.188 22.2506C110.396 22.4416 110.648 22.5746 110.897 22.7008C110.614 22.7962 110.328 22.9054 110.079 23.0759C109.898 23.202 109.738 23.3623 109.642 23.5601C109.513 23.8193 109.499 24.1194 109.533 24.399C109.567 24.6854 109.676 24.9616 109.857 25.1867C110.045 25.4254 110.3 25.6027 110.573 25.7323C110.873 25.8721 111.194 25.9608 111.518 26.0188C111.927 26.0938 112.346 26.1211 112.763 26.1279C113.421 26.1313 114.089 26.0835 114.723 25.8994C115.204 25.7596 115.678 25.5345 116.026 25.1662C116.251 24.9378 116.415 24.6513 116.503 24.341C116.599 24.0068 116.609 23.6522 116.572 23.3043C116.537 23.0145 116.456 22.7246 116.278 22.4859C116.128 22.2813 115.92 22.1279 115.695 22.0188C115.385 21.8721 115.047 21.7937 114.713 21.7357C113.956 21.6061 113.185 21.5993 112.425 21.5243C112.244 21.5038 112.057 21.48 111.886 21.4152C111.78 21.3708 111.675 21.3026 111.63 21.1901C111.586 21.0742 111.589 20.9309 111.658 20.8252C111.743 20.6854 111.89 20.5968 112.036 20.5286C112.067 20.5183 112.094 20.4979 112.125 20.4979C112.507 20.5865 112.902 20.6002 113.291 20.5763C113.888 20.5388 114.491 20.3819 114.982 20.0307C115.218 19.8636 115.419 19.6522 115.576 19.4101C115.787 19.0793 115.9 18.6974 115.93 18.3086C115.954 18.0119 115.937 17.7118 115.886 17.4186C115.774 16.8252 115.436 16.2864 114.979 15.8909C114.45 15.4339 113.755 15.1918 113.059 15.1645C112.507 15.1475 111.944 15.2361 111.443 15.4714L111.446 15.4817ZM112.725 16.6172C112.981 16.5797 113.25 16.6104 113.492 16.7025C113.741 16.7945 113.956 16.9719 114.089 17.2037C114.253 17.48 114.294 17.8141 114.253 18.1279C114.215 18.3939 114.103 18.6564 113.901 18.844C113.659 19.0793 113.312 19.1816 112.981 19.1816C112.664 19.1816 112.329 19.1066 112.084 18.8985C111.869 18.7212 111.746 18.4518 111.709 18.179C111.671 17.8892 111.695 17.5857 111.815 17.3129C111.91 17.081 112.087 16.8798 112.309 16.757C112.439 16.6854 112.578 16.6377 112.725 16.6172ZM112.067 23.1066C112.091 23.0963 112.115 23.0861 112.142 23.0929C112.745 23.127 113.346 23.1543 113.949 23.1884C114.147 23.202 114.345 23.2259 114.529 23.2941C114.665 23.3453 114.798 23.4339 114.856 23.5737C114.931 23.7477 114.918 23.9523 114.829 24.1159C114.723 24.3069 114.536 24.4399 114.345 24.5354C114.079 24.6615 113.786 24.7297 113.492 24.7673C113.219 24.8014 112.94 24.8116 112.664 24.8014C112.36 24.7877 112.053 24.7332 111.78 24.6002C111.607 24.5115 111.439 24.3819 111.358 24.1978C111.266 23.9966 111.283 23.7442 111.422 23.5669C111.589 23.3555 111.832 23.2259 112.067 23.11V23.1066Z" fill="#003C71"/>
<path d="M49.233 6.72119H50.6754V13.2515H49.233V6.72119ZM39.0335 12.5183H38.0719V10.1142H39.0335C39.7701 10.1142 40.2918 10.462 40.302 11.2668C40.3054 12.075 39.9099 12.5217 39.0335 12.5217M38.0719 7.45435H38.921C39.5348 7.45435 40.0463 7.64532 40.0463 8.37166C40.0463 9.08777 39.6098 9.38104 38.9175 9.38104H38.0719V7.45435ZM40.1008 9.67089C40.7863 9.52085 41.4955 9.15938 41.4955 8.17047C41.4955 7.18155 40.684 6.7246 39.7735 6.72119H36.6294V13.2515H39.487C40.759 13.2549 41.8331 12.6445 41.8331 11.3623C41.8331 10.179 40.7863 9.7084 40.1008 9.67089ZM45.2091 7.64532C46.0719 7.6385 46.4367 8.41258 46.4538 10.0596C46.4708 11.6862 46.106 12.4228 45.2091 12.4228C44.3123 12.4228 43.9678 11.6828 43.9678 10.0596C43.9678 8.43645 44.3089 7.65214 45.2091 7.64532ZM45.2193 13.3538C46.7334 13.3538 48.1452 12.4671 48.1349 10.0596C48.1247 7.64191 46.8528 6.71096 45.2193 6.7246C43.6575 6.73142 42.2799 7.64191 42.2867 10.0596C42.2935 12.4774 43.7121 13.3538 45.2193 13.3538Z" fill="#0000FF"/>
<path d="M59.811 6.72461V13.2515H61.2671V9.99145L63.129 13.2515H64.967L62.7641 9.67431L64.5988 6.72802H63.3882L61.2671 9.98463V6.72461H59.811Z" fill="#0000FF"/>
<path d="M57.3901 10.8815C57.3901 10.8815 57.431 12.3137 56.2171 12.3137C55.0031 12.3137 55.044 10.8815 55.044 10.8815V6.72461H53.5913V10.8815C53.5913 13.4186 56.2171 13.4015 56.2171 13.4015C56.2171 13.4015 58.8428 13.4186 58.8428 10.8815V6.72461H57.3901V10.8815Z" fill="#0000FF"/>
</g>
</g>
<defs>
<clipPath id="clip0_589_1366">
<rect width="204.69" height="40" fill="white" transform="translate(0.0566406)"/>
</clipPath>
<clipPath id="clip1_589_1366">
<rect width="204.692" height="40" fill="white" transform="translate(0.0566406)"/>
</clipPath>
</defs>
</svg>
