<svg width="18" height="21" viewBox="0 0 18 21" fill="none" xmlns="http://www.w3.org/2000/svg">
<path fill-rule="evenodd" clip-rule="evenodd" d="M18 19.0037V11.2894C18 10.2247 17.1362 9.36088 16.0714 9.36088H15.4286V6.84972C15.4286 3.29793 12.5719 0.372931 9.02009 0.360877C5.46429 0.348824 2.57143 3.23766 2.57143 6.78945V9.36088H1.92857C0.863839 9.36088 0 10.2247 0 11.2894V19.0037C0 20.0685 0.863839 20.9323 1.92857 20.9323H16.0714C17.1362 20.9323 18 20.0685 18 19.0037ZM8.19675 16.4323C8.19675 16.8742 8.55835 17.2358 9.00032 17.2358C9.44228 17.2358 9.80389 16.8742 9.80389 16.4323V13.8608C9.80389 13.4189 9.44228 13.0573 9.00032 13.0573C8.55835 13.0573 8.19675 13.4189 8.19675 13.8608V16.4323ZM3.85724 9.36079H14.143V6.78936C14.143 3.95275 11.8367 1.6465 9.0001 1.6465C6.16349 1.6465 3.85724 3.95275 3.85724 6.78936V9.36079ZM16.7145 11.2894V19.0036C16.7145 19.3572 16.4252 19.6465 16.0716 19.6465H1.92878C1.57521 19.6465 1.28592 19.3572 1.28592 19.0036V11.2894C1.28592 10.9358 1.57521 10.6465 1.92878 10.6465H16.0716C16.4252 10.6465 16.7145 10.9358 16.7145 11.2894Z" fill="#173E76"/>
</svg>
