<svg width="66" height="27" viewBox="0 0 66 27" fill="none" xmlns="http://www.w3.org/2000/svg">
<g clip-path="url(#clip0_152_57422)">
<path d="M7.35677 18.4465C7.70642 18.4465 7.99332 18.1596 7.99332 17.8055C7.99332 17.4513 7.7109 17.1644 7.35677 17.1644C7.00263 17.1644 6.72021 17.4513 6.72021 17.8055C6.72021 18.1596 7.00263 18.4465 7.35677 18.4465Z" fill="#003C71"/>
<path d="M5.47335 20.8447C5.97542 20.8447 6.30715 20.5175 6.30715 20.0154C6.30715 19.5134 5.96197 19.1637 5.44646 19.1637C4.97577 19.1637 4.64404 19.4999 4.64404 20.0334C4.64404 20.5668 4.95784 20.8447 5.47784 20.8447H5.47335Z" fill="#003C71"/>
<path d="M6.02954 23.4671L4.89988 23.4088C4.54574 23.5792 4.37988 23.7361 4.37988 23.9512C4.37988 24.2874 4.75195 24.525 5.37954 24.525C6.23126 24.525 6.71092 24.2471 6.71092 23.884C6.71092 23.5971 6.48678 23.485 6.02506 23.4671H6.02954Z" fill="#003C71"/>
<path d="M8.06928 18.2C7.93032 18.4555 7.66135 18.6258 7.35204 18.6258C6.90376 18.6258 6.53618 18.2583 6.53618 17.8055C6.53618 17.7114 6.55411 17.6172 6.58549 17.532C6.25376 17.4514 5.90411 17.411 5.54997 17.411C3.10687 17.411 1.12549 19.4103 1.12549 21.8803C1.12549 24.3503 3.10687 26.3496 5.54997 26.3496C7.99307 26.3496 9.97445 24.3503 9.97445 21.8803C9.97445 20.3562 9.21687 19.0114 8.0648 18.2045L8.06928 18.2ZM5.40652 25.3948C3.96756 25.3948 3.2279 24.942 3.2279 24.0993C3.2279 23.6151 3.5148 23.3462 4.11997 23.1489C3.65825 22.9203 3.44307 22.7141 3.44307 22.36C3.44307 22.0058 3.70756 21.6383 4.20963 21.3783C3.73894 21.0914 3.49238 20.6251 3.49238 20.02C3.49238 18.962 4.27687 18.2179 5.44238 18.2179C5.92204 18.2179 6.39721 18.3748 6.7648 18.6886C7.00687 18.8993 7.19514 19.1727 7.30273 19.4731C7.37445 19.6793 7.39687 19.8989 7.39687 20.1141C7.39687 21.1138 6.67066 21.7683 5.47376 21.7683C5.25859 21.7683 5.0748 21.7503 4.91342 21.71C4.68928 21.7996 4.5817 21.9207 4.5817 22.0551C4.5817 22.4003 5.05238 22.3734 5.93549 22.4407C7.2579 22.5393 7.81825 22.7993 7.81825 23.7855C7.81825 24.8031 6.97997 25.3858 5.40204 25.3858L5.40652 25.3948Z" fill="#003C71"/>
<path fill-rule="evenodd" clip-rule="evenodd" d="M18.3303 23.7363H17.2679V17.55H18.3303V23.7363ZM16.7434 18.9532C16.7434 19.258 16.4924 19.509 16.1876 19.509C15.8827 19.509 15.6317 19.2625 15.6317 18.9532C15.6317 18.6438 15.8827 18.3973 16.1876 18.3973C16.4924 18.3973 16.7434 18.6438 16.7434 18.9532ZM14.6903 21.4276C15.1252 21.4276 15.4165 21.1497 15.4165 20.7149C15.4165 20.28 15.1162 19.9842 14.6679 19.9842C14.26 19.9842 13.9686 20.2711 13.9686 20.7328C13.9686 21.1945 14.242 21.4276 14.6948 21.4276H14.6903ZM13.7445 24.0949C13.7445 24.3818 14.0672 24.588 14.6141 24.588C15.3583 24.588 15.7752 24.3504 15.7752 24.0366C15.7752 23.79 15.5779 23.6959 15.1789 23.6825L14.1972 23.6332C13.8924 23.7766 13.7445 23.9111 13.7445 24.0994V24.0949ZM12.9241 22.7276C12.9241 22.4138 13.1527 22.109 13.5876 21.8894C13.1796 21.6428 12.9645 21.2438 12.9645 20.7283C12.9645 19.8183 13.6458 19.1863 14.6634 19.1863C15.0803 19.1863 15.4927 19.3207 15.8155 19.5897C16.0262 19.769 16.192 20.0021 16.2817 20.2621C16.3445 20.4369 16.3624 20.6297 16.3624 20.8135C16.3624 21.6697 15.7303 22.23 14.6903 22.23C14.502 22.23 14.3407 22.2121 14.2062 22.1807C14.0089 22.2569 13.9148 22.36 13.9148 22.4766C13.9148 22.7276 14.2107 22.75 14.771 22.7859C14.8696 22.7904 14.9772 22.7994 15.0893 22.8083C16.2414 22.8935 16.7255 23.1132 16.7255 23.9604C16.7255 24.8076 15.9993 25.3366 14.6276 25.3366C13.3724 25.3366 12.7358 24.9466 12.7358 24.2249C12.7358 23.808 12.9824 23.5794 13.5114 23.409C13.1124 23.2163 12.9241 23.0369 12.9241 22.7321V22.7276ZM20.8407 22.9159C21.4145 22.9159 21.6879 22.4497 21.6879 21.5038C21.6879 20.558 21.4145 20.1007 20.8407 20.1007C20.2669 20.1007 19.9934 20.5625 19.9934 21.5038C19.9934 22.4452 20.2758 22.9159 20.8407 22.9159ZM20.8407 19.1907C22.0376 19.1907 22.7593 20.0425 22.7593 21.5038C22.7593 22.9652 22.0331 23.8169 20.8407 23.8169C19.6483 23.8169 18.922 22.9563 18.922 21.5038C18.922 20.0514 19.6393 19.1907 20.8407 19.1907ZM26.1258 21.5038C26.1258 22.4318 25.7672 22.9338 25.1755 22.9338C24.8841 22.9338 24.6465 22.8083 24.3776 22.5528V20.4325C24.651 20.1859 24.8931 20.0559 25.18 20.0559C25.7538 20.0559 26.1214 20.5669 26.1214 21.5038H26.1258ZM23.3465 17.55V22.7007C23.3465 22.9114 23.3286 23.2611 23.2972 23.7407H24.1176L24.2296 23.2656C24.5972 23.6556 24.9648 23.8259 25.4445 23.8259C26.462 23.8259 27.1883 22.898 27.1883 21.5128C27.1883 20.1276 26.4441 19.1997 25.4758 19.1997C25.0231 19.1997 24.6958 19.3521 24.391 19.7107V17.559H23.3465V17.55ZM28.5465 22.508C28.5465 22.8038 28.7169 22.9832 29.0262 22.9832C29.3579 22.9832 29.6852 22.8307 30.0124 22.5169V21.5621C29.0217 21.6966 28.551 21.979 28.551 22.508H28.5465ZM30.0348 23.3418C29.6224 23.6376 29.1786 23.7856 28.6989 23.7856C27.9458 23.7856 27.502 23.3328 27.502 22.5932C27.502 21.598 28.3314 21.069 30.0438 20.8583V20.5087C30.0438 20.1859 29.8196 19.9976 29.4117 19.9976C29.0038 19.9976 28.6676 20.1769 28.43 20.5087L27.7127 20.0559C28.0893 19.4776 28.6631 19.1863 29.4341 19.1863C30.4876 19.1863 31.0748 19.6883 31.0748 20.5042V23.1266C31.0748 23.279 31.1017 23.4852 31.142 23.7318H30.1334L30.0393 23.3418H30.0348ZM33.0293 23.7363H31.9669V17.55H33.0293V23.7363ZM34.5669 22.5438C35.0107 23.1042 35.4141 23.3866 35.9117 23.3866C36.6469 23.3866 37.0817 22.7321 37.0817 21.5128C37.0817 20.2935 36.6469 19.639 35.9117 19.639C35.4141 19.639 35.0151 19.9125 34.5669 20.4728V22.5394V22.5438ZM34.0379 19.2849H34.4324L34.5714 19.8632H34.6162C35.0376 19.4194 35.4814 19.1997 35.961 19.1997C36.9383 19.1997 37.6196 20.0425 37.6196 21.5083C37.6196 22.9742 36.9338 23.8125 35.961 23.8125C35.4814 23.8125 35.0376 23.6018 34.6162 23.158H34.5714V25.3545H34.0424V19.2849H34.0379ZM38.4848 22.6021C38.4848 21.8445 39.1796 21.5621 40.6858 21.2304V22.6021C40.1658 23.1311 39.7176 23.3956 39.2334 23.3956C38.7717 23.3956 38.4893 23.0997 38.4893 22.6021H38.4848ZM39.1617 23.8169C39.7086 23.8169 40.1972 23.5973 40.6858 23.1445C40.6948 23.3328 40.7307 23.5256 40.771 23.7318H41.291C41.2417 23.4494 41.2148 23.2476 41.2148 23.1356V20.3697C41.2148 19.7063 40.6231 19.2042 39.7758 19.2042C39.0048 19.2042 38.5341 19.5 38.1845 20.1142L38.5969 20.3518C38.8614 19.8766 39.22 19.6345 39.7086 19.6345C40.3227 19.6345 40.6948 19.9304 40.6948 20.3652V20.8C38.821 21.1318 37.9558 21.5935 37.9558 22.62C37.9558 23.3104 38.4265 23.8125 39.1617 23.8125V23.8169ZM41.6855 19.2849H42.2145L43.5324 23.0728L44.8414 19.2849H45.3479L43.6624 24.0859C43.3531 24.969 42.9945 25.3366 42.2234 25.3366C42.0845 25.3366 41.932 25.3276 41.7617 25.3007V24.8749C41.9007 24.9018 42.0262 24.9107 42.1383 24.9107C42.7793 24.9107 43.0707 24.5521 43.241 23.7094L41.6855 19.2849ZM46.3655 19.2849H45.8769V23.7363H46.3924V20.4952C46.8362 19.9438 47.2755 19.6704 47.6834 19.6704C48.3155 19.6704 48.4545 20.0469 48.4545 20.8269V23.7363H48.97V20.4952C49.4048 19.9438 49.8531 19.6704 50.261 19.6704C50.8931 19.6704 51.032 20.0469 51.032 20.8269V23.7363H51.5386V20.6387C51.5386 19.6838 51.162 19.2087 50.4089 19.2087C49.9293 19.2087 49.4586 19.4642 48.97 19.9752H48.9117C48.7055 19.4642 48.3469 19.2087 47.8403 19.2087C47.3696 19.2087 46.872 19.4642 46.4014 19.9752H46.3655V19.2849ZM54.031 19.63C53.3272 19.63 52.8341 20.159 52.7489 21.1094H55.2055C55.1786 20.1456 54.7348 19.63 54.031 19.63ZM55.7255 22.6604C55.331 23.4583 54.8289 23.808 54.04 23.808C52.9283 23.808 52.2155 22.9294 52.2155 21.5352C52.2155 20.0649 52.9507 19.1952 54.022 19.1952C55.0934 19.1952 55.6986 19.9349 55.6986 21.3469V21.4904H52.7489C52.7579 22.7232 53.2286 23.3776 54.0758 23.3776C54.6496 23.3776 55.0172 23.0952 55.3355 22.4407L55.73 22.6514L55.7255 22.6604ZM56.9224 19.2849H56.3934V23.7363H56.9224V20.4952C57.402 19.9438 57.8727 19.6704 58.3165 19.6704C59.0024 19.6704 59.1548 20.0469 59.1548 20.8269V23.7363H59.6748V20.6387C59.6748 19.6838 59.2714 19.2087 58.4689 19.2087C57.9714 19.2087 57.4514 19.4642 56.9224 19.9842V19.2849ZM61.8624 23.4C61.9834 23.4 62.1358 23.3642 62.3331 23.3149V23.7407C62.1358 23.79 61.9296 23.8259 61.7324 23.8259C61.1183 23.8259 60.8493 23.5211 60.8493 22.8711V19.7152H60.1814V19.2804H60.8493V17.9625H61.3693V19.2804H62.3017V19.7152H61.3693V22.898C61.3693 23.2387 61.5217 23.4 61.8579 23.4H61.8624ZM65.1393 22.5752C65.1393 23.0414 64.7717 23.3911 64.2158 23.3911C63.6958 23.3911 63.2476 23.1266 62.862 22.6156L62.4676 22.9294C62.9114 23.5256 63.4493 23.808 64.1531 23.808C65.0765 23.808 65.6772 23.27 65.6772 22.5304C65.6772 21.7907 65.2245 21.5532 64.3324 21.2214C64.2607 21.1945 64.1934 21.1676 64.1262 21.1452C63.5076 20.9166 63.1534 20.7866 63.1534 20.3518C63.1534 19.9169 63.4717 19.6211 63.9558 19.6211C64.44 19.6211 64.821 19.8318 65.1617 20.2845L65.5383 20.0111C65.1438 19.4732 64.6327 19.1952 64.05 19.1952C63.1624 19.1952 62.6065 19.6973 62.6065 20.3787C62.6065 21.06 63.0772 21.3156 63.9827 21.6473C64.0276 21.6652 64.0724 21.6787 64.1127 21.6966C64.7672 21.9387 65.1348 22.0732 65.1348 22.5752H65.1393Z" fill="#003C71"/>
<path d="M1.12598 13.2645H65.6777" stroke="#1A1A1A" stroke-width="0.448276" stroke-miterlimit="10"/>
<path d="M3.36238 7.23999C2.11618 7.23999 1.12549 6.29413 1.12549 4.87758C1.12549 3.5462 2.15652 2.47034 3.44756 2.47034C4.09307 2.47034 4.64894 2.73034 4.99411 3.1562L4.34859 3.84206C4.08859 3.58206 3.78825 3.45654 3.40273 3.45654C2.71687 3.45654 2.20135 4.10206 2.20135 4.8731C2.20135 5.68896 2.67204 6.28965 3.40273 6.28965C3.83307 6.28965 4.13342 6.15965 4.39342 5.8593L4.99411 6.50482C4.60859 6.97551 4.04825 7.23551 3.36238 7.23551V7.23999ZM7.74204 6.29413C8.5579 6.29413 9.03307 5.64861 9.03307 4.87758C9.03307 4.06172 8.51756 3.46103 7.74204 3.46103C6.92618 3.46103 6.45101 4.10654 6.45101 4.87758C6.45101 5.64861 6.9217 6.29413 7.74204 6.29413ZM7.7017 7.23999C6.32549 7.23999 5.33928 6.2493 5.33928 4.87758C5.33928 3.50585 6.37032 2.47034 7.74652 2.47034C9.12273 2.47034 10.1089 3.50137 10.1089 4.83275C10.1089 6.16413 9.0779 7.23999 7.7017 7.23999ZM13.8879 7.15482L14.6634 4.66241C14.7934 4.23206 14.9234 3.71654 14.9234 3.71654C14.9234 3.71654 14.9234 4.23206 14.9682 4.70723L15.1834 7.15482H16.1741L15.7438 2.60034H14.4124L13.7265 4.87758C13.5965 5.2631 13.5113 5.73827 13.5113 5.73827C13.5113 5.73827 13.3814 5.26758 13.2514 4.87758L12.5655 2.60034H11.2341L10.8038 7.15482H11.7496L11.9648 4.70723C12.0096 4.23654 12.0096 3.71654 12.0096 3.71654C12.0096 3.71654 12.1396 4.23206 12.2696 4.66241L13.0451 7.15482H13.9058H13.8879ZM20.2938 7.15482L21.0693 4.66241C21.1993 4.23206 21.3293 3.71654 21.3293 3.71654C21.3293 3.71654 21.3293 4.23206 21.3741 4.70723L21.5893 7.15482H22.6203L22.19 2.60034H20.8586L20.1727 4.87758C20.0427 5.2631 19.9576 5.73827 19.9576 5.73827C19.9576 5.73827 19.8276 5.26758 19.6976 4.87758L19.0117 2.60034H17.5951L17.1648 7.15482H18.1107L18.3258 4.70723C18.3707 4.23654 18.3707 3.71654 18.3707 3.71654C18.3707 3.71654 18.5007 4.23206 18.6307 4.66241L19.4062 7.15482H20.3072H20.2938ZM23.6872 7.15482H26.6548V6.29413H24.6779V5.30344H26.3545V4.44275H24.6779V3.45206H26.61V2.59137H23.6424V7.14585H23.6872V7.15482ZM30.0482 4.01689C30.0482 3.58654 29.7479 3.4162 29.1876 3.4162H28.7572V4.61758H29.1876C29.7882 4.66241 30.0482 4.44723 30.0482 4.01689ZM31.2945 7.15482H30.1334L29.1427 5.47827H28.8424V7.15482H27.8517V2.60034H29.2279C30.6041 2.60034 31.1196 3.16068 31.1196 4.06172C31.1196 4.66241 30.7745 5.09275 30.1738 5.30792L31.29 7.15482H31.2945ZM31.8951 7.15482H35.0734V6.29413H33.1413L35.0331 3.32654V2.55103H31.94V3.41172H33.7869L31.8951 6.3793V7.15482ZM37.0996 5.2631V6.29413H37.8303C38.3458 6.29413 38.561 6.12379 38.561 5.77861C38.561 5.43344 38.2607 5.2631 37.8303 5.2631H37.0996ZM37.0996 3.4162V4.40689H37.7003C38.0007 4.40689 38.301 4.27689 38.301 3.89137C38.301 3.50585 38.0007 3.42068 37.6555 3.42068H37.0951L37.0996 3.4162ZM36.1089 7.15482V2.60034H37.7003C38.5162 2.60034 39.3769 2.77068 39.3769 3.76137C39.3769 4.27689 39.0765 4.62206 38.6013 4.79241C39.202 4.87758 39.592 5.2631 39.592 5.86827C39.592 6.81413 38.691 7.19965 37.8751 7.19965H36.1134V7.15482H36.1089ZM40.8786 7.15482H39.8879L41.5196 2.60034H42.7658L44.3976 7.15482H43.3217L43.0214 6.20896H41.2148L40.8696 7.15482H40.8786ZM42.6851 5.35275L42.2996 4.15137C42.1696 3.8062 42.0845 3.50585 42.0845 3.50585C42.0845 3.50585 41.9993 3.8062 41.8693 4.15137L41.4838 5.35275H42.6851ZM45.0072 7.15482H45.9531V4.96275C45.9531 4.53241 45.9082 4.14689 45.9082 4.14689C45.9082 4.14689 46.1234 4.53241 46.3789 4.87758L47.9255 7.15482H48.8265V2.60034H47.8807V4.66241C47.8807 5.09275 47.9255 5.47827 47.9255 5.47827C47.9255 5.47827 47.7103 5.09275 47.4548 4.74758L45.9934 2.55551H45.0476V7.15482H45.0027H45.0072ZM49.9024 2.55551V7.15482H50.8931V5.00758L52.3545 7.15482H53.5558L51.8793 4.70723L53.3855 2.60034H52.2245L50.8482 4.66241V2.60034H49.9024V2.55551Z" fill="black"/>
<path d="M62.055 0.107788C61.8757 0.107788 61.3423 0.107788 60.7236 0.860892C60.7236 0.860892 60.7416 0.878823 60.746 0.887788C60.9029 0.699512 61.1047 0.511236 61.3198 0.372271C61.5171 0.242271 61.7457 0.157098 61.9385 0.139167C62.0774 0.125719 62.5347 0.130202 63.0547 0.130202C63.0547 0.130202 63.0547 0.130202 63.0592 0.130202L63.0457 0.107788C63.0457 0.107788 63.0457 0.107788 63.0412 0.107788H62.055Z" fill="url(#paint0_radial_152_57422)"/>
<path d="M58.424 0.107754C58.424 0.107754 58.4239 0.107754 58.4195 0.107754L56.4784 3.47879L55.8688 4.53672L55.797 4.65775L55.7881 4.67569C55.7881 4.67569 55.7881 4.67569 55.7881 4.68017L57.635 7.89431V7.88086C57.5946 7.80913 57.5677 7.75086 57.5498 7.715C57.4736 7.54017 57.4288 7.2981 57.4422 7.06051C57.4736 6.43741 57.8008 5.82327 57.9667 5.53638C58.3567 4.85948 59.1053 3.555 59.1053 3.555C59.1053 3.555 59.8584 2.25051 60.2439 1.57362C60.4098 1.28672 60.7729 0.694996 61.2974 0.354306C61.4946 0.224306 61.7277 0.143616 61.916 0.121203C62.055 0.103271 62.5167 0.103271 63.0367 0.103271H58.4195L58.424 0.107754Z" fill="url(#paint1_radial_152_57422)"/>
<path d="M55.811 4.71167C55.8379 4.76098 55.8693 4.81477 55.8962 4.86408L55.811 4.71167ZM65.1038 5.64857C64.9917 5.80098 64.8035 5.96236 64.5928 6.06995C64.0414 6.35236 63.3466 6.37477 63.0148 6.37477H58.4559C58.1241 6.37477 57.4293 6.35236 56.8779 6.06995C56.6672 5.96236 56.479 5.80098 56.3669 5.64857C56.2952 5.54995 56.1114 5.23615 55.8917 4.8596L56.3534 5.6665L58.0972 8.70132C58.0972 8.70132 58.0972 8.70132 58.1017 8.70132H63.3555C63.3555 8.70132 63.3555 8.70132 63.36 8.70132L65.6507 4.72064C65.3997 5.15995 65.1755 5.54098 65.0948 5.65305" fill="url(#paint2_radial_152_57422)"/>
<path d="M61.9252 0.125509C61.737 0.147923 61.5039 0.228612 61.3066 0.358612C61.087 0.502061 60.8987 0.685854 60.7373 0.87413C60.9614 1.13861 61.1228 1.40758 61.2214 1.57344C61.6114 2.25034 62.3601 3.55482 62.3601 3.55482C62.3601 3.55482 63.1132 4.8593 63.4987 5.5362C63.6645 5.8231 63.9918 6.43723 64.0232 7.06034C64.0366 7.29792 63.9918 7.53999 63.9156 7.71482C63.8618 7.83585 63.6511 8.21241 63.4001 8.64275L65.6773 4.68447L63.0504 0.112061C63.0504 0.112061 63.0504 0.112061 63.0459 0.112061C62.5259 0.112061 62.0642 0.112061 61.9252 0.129992" fill="url(#paint3_radial_152_57422)"/>
</g>
<defs>
<radialGradient id="paint0_radial_152_57422" cx="0" cy="0" r="1" gradientUnits="userSpaceOnUse" gradientTransform="translate(64.202 8.15053) scale(7.70991 7.7402)">
<stop stop-color="#FFEF19"/>
<stop offset="0.25" stop-color="#FFDF08"/>
<stop offset="0.44" stop-color="#FFD700"/>
<stop offset="0.59" stop-color="#FDD401"/>
<stop offset="0.71" stop-color="#F7C903"/>
<stop offset="0.83" stop-color="#ECB808"/>
<stop offset="0.9" stop-color="#E3A90B"/>
<stop offset="1" stop-color="#D98B07"/>
</radialGradient>
<radialGradient id="paint1_radial_152_57422" cx="0" cy="0" r="1" gradientUnits="userSpaceOnUse" gradientTransform="translate(62.9049 0.764747) scale(7.71572 7.74603)">
<stop stop-color="#FFEF19"/>
<stop offset="0.25" stop-color="#FFDF08"/>
<stop offset="0.44" stop-color="#FFD700"/>
<stop offset="0.59" stop-color="#FDD401"/>
<stop offset="0.71" stop-color="#F7C903"/>
<stop offset="0.83" stop-color="#ECB808"/>
<stop offset="0.9" stop-color="#E3A90B"/>
<stop offset="1" stop-color="#D98B07"/>
</radialGradient>
<radialGradient id="paint2_radial_152_57422" cx="0" cy="0" r="1" gradientUnits="userSpaceOnUse" gradientTransform="translate(55.5875 5.61356) scale(7.71223 7.74253)">
<stop stop-color="#FFEF19"/>
<stop offset="0.25" stop-color="#FFDF08"/>
<stop offset="0.44" stop-color="#FFD700"/>
<stop offset="0.59" stop-color="#FDD401"/>
<stop offset="0.71" stop-color="#F7C903"/>
<stop offset="0.83" stop-color="#ECB808"/>
<stop offset="0.9" stop-color="#E3A90B"/>
<stop offset="1" stop-color="#D98B07"/>
</radialGradient>
<radialGradient id="paint3_radial_152_57422" cx="0" cy="0" r="1" gradientUnits="userSpaceOnUse" gradientTransform="translate(65.5308 8.33003) scale(7.73438 7.76468)">
<stop stop-color="#FFEF19"/>
<stop offset="0.25" stop-color="#FFDF08"/>
<stop offset="0.44" stop-color="#FFD700"/>
<stop offset="0.59" stop-color="#FDD401"/>
<stop offset="0.71" stop-color="#F7C903"/>
<stop offset="0.83" stop-color="#ECB808"/>
<stop offset="0.9" stop-color="#E3A90B"/>
<stop offset="1" stop-color="#D98B07"/>
</radialGradient>
<clipPath id="clip0_152_57422">
<rect width="65" height="26.4483" fill="white" transform="translate(0.901855)"/>
</clipPath>
</defs>
</svg>
