<svg width="205" height="41" viewBox="0 0 205 41" fill="none" xmlns="http://www.w3.org/2000/svg">
<g clip-path="url(#clip0_493_48994)">
<path d="M95.5426 0.146484H94.7344V40.1465H95.5426V0.146484Z" fill="#0000FF"/>
<path d="M29.7651 6.93933C29.7651 10.2573 15.2348 10.6188 15.2348 14.1891H14.9143C14.9109 10.6222 0.380596 10.2607 0.380596 6.93933H0.0566406V10.404C0.0566406 14.5404 14.6142 14.1516 14.9109 18.1311H15.2314C15.5281 14.155 30.0856 14.5438 30.0856 10.404V6.93933H29.7617H29.7651Z" fill="#0000FF"/>
<path d="M29.5161 14.9802C29.5161 18.2709 15.1052 18.629 15.1052 22.172H14.7881C14.7881 18.629 0.377186 18.2709 0.377186 14.9802H0.0566406V18.4141C0.0566406 22.5164 14.4914 22.1311 14.7881 26.0731H15.1052C15.3985 22.1311 29.8367 22.513 29.8367 18.4107V14.9768H29.5161V14.9802Z" fill="#0000FF"/>
<path d="M29.5161 22.7722C29.5161 26.0629 15.1052 26.421 15.1052 29.964H14.7881C14.7881 26.421 0.377186 26.0663 0.377186 22.7722H0.0566406V26.2061C0.0566406 30.3084 14.4914 29.9231 14.7881 33.8686H15.1052C15.3985 29.9265 29.8367 30.3084 29.8367 26.2096V22.7756H29.5161V22.7722Z" fill="#0000FF"/>
<path d="M49.2856 6.84399H50.7315V13.3981H49.2856V6.84399ZM39.0452 12.6616H38.0801V10.2472H39.0452C39.7818 10.2472 40.3069 10.5951 40.3171 11.4032C40.3205 12.2114 39.925 12.6616 39.0452 12.6616ZM38.0801 7.57716H38.9326C39.5499 7.57716 40.0614 7.76812 40.0614 8.49787C40.0614 9.2174 39.6249 9.51066 38.9258 9.51066H38.0767V7.57716H38.0801ZM40.1159 9.80393C40.8048 9.65388 41.5141 9.29242 41.5141 8.30009C41.5141 7.30776 40.6991 6.8474 39.7852 6.84399H36.6309V13.3981H39.4987C40.7775 13.4015 41.8551 12.7911 41.8551 11.5021C41.8551 10.312 40.8014 9.84144 40.1159 9.80393ZM45.2447 7.77153C46.1108 7.76471 46.4791 8.53879 46.4962 10.1961C46.5132 11.8261 46.1449 12.5695 45.2447 12.5695C44.3444 12.5695 44 11.8295 44 10.1961C44 8.56266 44.3444 7.77835 45.2447 7.77153ZM45.2549 13.5004C46.7724 13.5004 48.1944 12.6104 48.1807 10.1961C48.1705 7.76812 46.8917 6.83717 45.2549 6.85081C43.6897 6.85763 42.3052 7.77153 42.3086 10.1961C42.3154 12.6206 43.7408 13.5004 45.2549 13.5004Z" fill="#0000FF"/>
<path d="M40.8547 18.7961C40.8547 19.4577 40.6296 19.9658 40.1795 20.3204C39.7293 20.6751 39.0848 20.8558 38.2426 20.8558H37.4753V23.4236H36.7148V16.8933H38.4062C40.0362 16.8933 40.8547 17.5276 40.8547 18.7961ZM37.4753 20.2011H38.1573C38.8291 20.2011 39.3167 20.0919 39.6168 19.8737C39.9169 19.6555 40.0669 19.3076 40.0669 18.8302C40.0669 18.3971 39.9237 18.0766 39.6441 17.8652C39.361 17.6538 38.9212 17.548 38.321 17.548H37.4719V20.2011H37.4753Z" fill="#0000FF"/>
<path d="M45.1201 23.4201L44.9735 22.7245H44.9394C44.6938 23.0314 44.4517 23.2394 44.2096 23.3485C43.9675 23.4576 43.664 23.5122 43.2991 23.5122C42.8149 23.5122 42.433 23.386 42.1568 23.1371C41.8805 22.8881 41.7441 22.5301 41.7441 22.0697C41.7441 21.0808 42.5353 20.5625 44.1141 20.5147L44.9462 20.4875V20.184C44.9462 19.7986 44.8643 19.5156 44.6973 19.3349C44.5302 19.1507 44.2676 19.0586 43.9027 19.0586C43.4935 19.0586 43.0331 19.1848 42.5182 19.4338L42.2897 18.8677C42.5319 18.7381 42.7944 18.6324 43.0809 18.5608C43.3673 18.4858 43.6572 18.4482 43.9436 18.4482C44.5267 18.4482 44.9598 18.5778 45.2395 18.837C45.5225 19.0962 45.6623 19.5122 45.6623 20.0817V23.4235H45.1133L45.1201 23.4201ZM43.4458 22.8984C43.9061 22.8984 44.271 22.7722 44.5336 22.5199C44.7961 22.2675 44.9291 21.9129 44.9291 21.4559V21.0126L44.1892 21.0433C43.5992 21.0638 43.1764 21.1558 42.9138 21.3161C42.6546 21.4798 42.5216 21.7321 42.5216 22.0731C42.5216 22.3425 42.6035 22.5437 42.7637 22.6835C42.924 22.8233 43.1525 22.895 43.4458 22.895V22.8984Z" fill="#0000FF"/>
<path d="M46.4194 18.5269H47.214L48.2847 21.3197C48.52 21.9574 48.6667 22.4177 48.7212 22.7008H48.7553C48.7928 22.5507 48.8747 22.2882 48.9974 21.9199C49.1202 21.5516 49.526 20.4228 50.2114 18.5269H51.006L48.902 24.0989C48.6939 24.6513 48.4518 25.0401 48.1722 25.272C47.8926 25.5038 47.5516 25.6164 47.1458 25.6164C46.9207 25.6164 46.6956 25.5925 46.4774 25.5413V24.948C46.6411 24.9855 46.8252 25.0026 47.0264 25.0026C47.5345 25.0026 47.8994 24.7161 48.1176 24.1466L48.3904 23.451L46.416 18.5303L46.4194 18.5269Z" fill="#0000FF"/>
<path d="M58.0441 23.4203V20.2353C58.0441 19.8466 57.9589 19.5533 57.7952 19.3589C57.6281 19.1646 57.3689 19.0657 57.0177 19.0657C56.5573 19.0657 56.2163 19.1987 55.9947 19.4646C55.773 19.7306 55.6639 20.1364 55.6639 20.6889V23.4203H54.9239V20.2353C54.9239 19.8466 54.8387 19.5533 54.675 19.3589C54.5079 19.1646 54.2487 19.0657 53.8941 19.0657C53.4303 19.0657 53.0893 19.2055 52.8745 19.4817C52.6597 19.7613 52.5505 20.2149 52.5505 20.8491V23.4169H51.8105V18.5235H52.4141L52.5335 19.1918H52.5676C52.7074 18.9531 52.9052 18.769 53.1609 18.6326C53.4167 18.4996 53.6997 18.4314 54.0169 18.4314C54.7807 18.4314 55.282 18.7076 55.5173 19.2635H55.5514C55.698 19.0077 55.9094 18.8065 56.1857 18.6565C56.4619 18.5064 56.779 18.4348 57.1336 18.4348C57.6861 18.4348 58.1021 18.578 58.3783 18.8611C58.6545 19.1441 58.7909 19.601 58.7909 20.2251V23.4169H58.051L58.0441 23.4203Z" fill="#0000FF"/>
<path d="M62.3823 23.5089C61.6593 23.5089 61.0864 23.2872 60.6704 22.8473C60.251 22.4074 60.043 21.7936 60.043 21.0127C60.043 20.2318 60.2373 19.5975 60.6261 19.1338C61.0148 18.67 61.5366 18.4381 62.1913 18.4381C62.8051 18.4381 63.2893 18.6393 63.6474 19.0417C64.0055 19.4441 64.1828 19.976 64.1828 20.6376V21.1082H60.8102C60.8239 21.6845 60.9705 22.1176 61.2467 22.4176C61.5229 22.7177 61.9117 22.8644 62.4096 22.8644C62.9347 22.8644 63.4564 22.7552 63.9714 22.5336V23.1951C63.7088 23.3077 63.4598 23.3895 63.228 23.4373C62.9927 23.485 62.713 23.5123 62.3823 23.5123V23.5089ZM62.1811 19.0553C61.7889 19.0553 61.4752 19.1849 61.2399 19.4407C61.0046 19.6964 60.8682 20.0511 60.8273 20.5046H63.3848C63.3848 20.0374 63.2791 19.6794 63.0711 19.4304C62.8631 19.1815 62.5664 19.0587 62.1777 19.0587L62.1811 19.0553Z" fill="#0000FF"/>
<path d="M68.792 23.4201V20.2521C68.792 19.8532 68.7 19.5565 68.5192 19.3587C68.3385 19.1609 68.0521 19.0654 67.6667 19.0654C67.1552 19.0654 66.7801 19.2053 66.5414 19.4815C66.3027 19.7577 66.1833 20.2146 66.1833 20.8523V23.4201H65.4434V18.5267H66.0469L66.1663 19.195H66.2004C66.3538 18.9529 66.5653 18.7688 66.8381 18.6358C67.1109 18.5028 67.4178 18.438 67.752 18.438C68.3419 18.438 68.7852 18.5812 69.0819 18.8642C69.3786 19.1473 69.5286 19.6042 69.5286 20.2283V23.4201H68.7886H68.792Z" fill="#0000FF"/>
<path d="M72.6398 22.8985C72.7694 22.8985 72.8956 22.8883 73.0184 22.8712C73.1411 22.8507 73.2366 22.8303 73.3082 22.8098V23.3759C73.2264 23.4134 73.1104 23.4475 72.9536 23.4714C72.7967 23.4952 72.6569 23.5089 72.5307 23.5089C71.5827 23.5089 71.1087 23.011 71.1087 22.0119V19.0997H70.4062V18.7416L71.1087 18.4347L71.4224 17.3912H71.8521V18.5268H73.2741V19.1031H71.8521V21.9846C71.8521 22.2779 71.9237 22.5063 72.0635 22.6632C72.2034 22.82 72.3943 22.8985 72.6398 22.8985Z" fill="#0000FF"/>
<path d="M40.8214 33.5583L40.0098 31.4816H37.3943L36.5895 33.5583H35.8223L38.4037 27.0007H39.0414L41.6091 33.5583H40.8248H40.8214ZM39.7711 30.7995L39.0107 28.7774C38.9118 28.5216 38.8095 28.2079 38.7072 27.8362C38.6424 28.1226 38.5469 28.4364 38.4241 28.7774L37.6569 30.7995H39.7677H39.7711Z" fill="#0000FF"/>
<path d="M44.3474 33.6469C43.6381 33.6469 43.0891 33.4287 42.7003 32.9922C42.3116 32.5557 42.1172 31.9385 42.1172 31.1405C42.1172 30.3426 42.315 29.6878 42.7105 29.2411C43.1061 28.7944 43.6654 28.5728 44.3951 28.5728C44.6304 28.5728 44.8657 28.5966 45.101 28.6478C45.3363 28.6989 45.5204 28.7569 45.6534 28.8251L45.4249 29.456C45.2613 29.3912 45.0839 29.3366 44.8896 29.2923C44.6952 29.2479 44.5247 29.2275 44.3747 29.2275C43.3789 29.2275 42.8845 29.8618 42.8845 31.1303C42.8845 31.7305 43.0072 32.1942 43.2493 32.5148C43.4914 32.8353 43.8529 32.999 44.3269 32.999C44.7361 32.999 45.1521 32.9103 45.5818 32.7364V33.3946C45.2544 33.5651 44.8418 33.6503 44.344 33.6503L44.3474 33.6469Z" fill="#0000FF"/>
<path d="M48.7009 33.6469C47.9916 33.6469 47.4426 33.4287 47.0538 32.9922C46.6651 32.5557 46.4707 31.9385 46.4707 31.1405C46.4707 30.3426 46.6685 29.6878 47.0641 29.2411C47.4596 28.7944 48.0189 28.5728 48.7486 28.5728C48.9839 28.5728 49.2192 28.5966 49.4545 28.6478C49.6898 28.6989 49.8739 28.7569 50.0069 28.8251L49.7785 29.456C49.6148 29.3912 49.4375 29.3366 49.2431 29.2923C49.0487 29.2479 48.8782 29.2275 48.7282 29.2275C47.7324 29.2275 47.238 29.8618 47.238 31.1303C47.238 31.7305 47.3607 32.1942 47.6028 32.5148C47.845 32.8353 48.2064 32.999 48.6804 32.999C49.0896 32.999 49.5057 32.9103 49.9353 32.7364V33.3946C49.608 33.5651 49.1953 33.6503 48.6975 33.6503L48.7009 33.6469Z" fill="#0000FF"/>
<path d="M53.1674 33.6469C52.4445 33.6469 51.8716 33.4253 51.4556 32.9854C51.0361 32.5455 50.8281 31.9317 50.8281 31.1508C50.8281 30.3699 51.0225 29.7356 51.4112 29.2718C51.8 28.8081 52.3217 28.5762 52.9765 28.5762C53.5903 28.5762 54.0745 28.7774 54.4326 29.1798C54.7906 29.5821 54.9679 30.1141 54.9679 30.7757V31.2462H51.5954C51.609 31.8225 51.7557 32.2556 52.0319 32.5557C52.3081 32.8558 52.6968 33.0024 53.1947 33.0024C53.7199 33.0024 54.2416 32.8933 54.7565 32.6717V33.3332C54.4939 33.4457 54.245 33.5276 54.0131 33.5753C53.7778 33.6231 53.4982 33.6503 53.1674 33.6503V33.6469ZM52.9662 29.1934C52.5741 29.1934 52.2603 29.323 52.0251 29.5787C51.7898 29.8345 51.6534 30.1891 51.6124 30.6427H54.17C54.17 30.1755 54.0643 29.8174 53.8563 29.5685C53.6482 29.3196 53.3516 29.1968 52.9628 29.1968L52.9662 29.1934Z" fill="#0000FF"/>
<path d="M58.5084 33.6469C58.1913 33.6469 57.898 33.589 57.6354 33.4696C57.3728 33.3537 57.1512 33.1695 56.9705 32.9274H56.9159C56.9534 33.2138 56.9705 33.4832 56.9705 33.739V35.7543H56.2305V28.6614H56.8341L56.9364 29.3298H56.9705C57.1614 29.0604 57.3831 28.8694 57.6354 28.7501C57.8878 28.6307 58.1776 28.5728 58.505 28.5728C59.1529 28.5728 59.6542 28.7944 60.0088 29.2377C60.3635 29.681 60.5374 30.3051 60.5374 31.103C60.5374 31.901 60.3566 32.5318 59.9986 32.9751C59.6405 33.4219 59.1427 33.6435 58.505 33.6435L58.5084 33.6469ZM58.4027 29.2036C57.9014 29.2036 57.5399 29.3434 57.3183 29.6196C57.0932 29.8959 56.9807 30.3358 56.9739 30.9427V31.1098C56.9739 31.7987 57.0898 32.2897 57.3183 32.5864C57.5468 32.8831 57.915 33.0297 58.4197 33.0297C58.8426 33.0297 59.1734 32.8592 59.4121 32.5148C59.6508 32.1738 59.7701 31.6998 59.7701 31.0996C59.7701 30.4994 59.6508 30.022 59.4121 29.6947C59.1734 29.3673 58.8358 29.207 58.3993 29.207L58.4027 29.2036Z" fill="#0000FF"/>
<path d="M63.4191 33.0365C63.5487 33.0365 63.6749 33.0263 63.7977 33.0093C63.9204 32.9888 64.0159 32.9683 64.0875 32.9479V33.514C64.0057 33.5515 63.8897 33.5856 63.7329 33.6094C63.576 33.6333 63.4362 33.6469 63.31 33.6469C62.362 33.6469 61.888 33.1491 61.888 32.1499V29.2377H61.1855V28.8797L61.888 28.5728L62.2017 27.5293H62.6314V28.6648H64.0534V29.2411H62.6314V32.1226C62.6314 32.4159 62.703 32.6444 62.8428 32.8012C62.9826 32.9581 63.1736 33.0365 63.4191 33.0365Z" fill="#0000FF"/>
<path d="M68.0732 33.5583L67.9266 32.8626H67.8925C67.647 33.1695 67.4049 33.3776 67.1627 33.4867C66.9206 33.5958 66.6171 33.6504 66.2523 33.6504C65.768 33.6504 65.3861 33.5242 65.1099 33.2753C64.8337 33.0263 64.6973 32.6683 64.6973 32.2079C64.6973 31.219 65.4884 30.7007 67.0673 30.6529L67.8993 30.6256V30.3221C67.8993 29.9368 67.8175 29.6538 67.6504 29.473C67.4833 29.2889 67.2207 29.1968 66.8558 29.1968C66.4466 29.1968 65.9863 29.323 65.4714 29.5719L65.2429 29.0059C65.485 28.8763 65.7476 28.7706 66.034 28.699C66.3205 28.6239 66.6103 28.5864 66.8968 28.5864C67.4799 28.5864 67.913 28.716 68.1926 28.9752C68.4756 29.2343 68.6154 29.6504 68.6154 30.2198V33.5617H68.0664L68.0732 33.5583ZM66.3989 33.0366C66.8592 33.0366 67.2241 32.9104 67.4867 32.658C67.7493 32.4057 67.8823 32.051 67.8823 31.5941V31.1508L67.1423 31.1815C66.5523 31.2019 66.1295 31.294 65.8669 31.4543C65.6078 31.618 65.4748 31.8703 65.4748 32.2113C65.4748 32.4807 65.5566 32.6819 65.7169 32.8217C65.8771 32.9615 66.1056 33.0331 66.3989 33.0331V33.0366Z" fill="#0000FF"/>
<path d="M73.503 33.5583V30.3903C73.503 29.9913 73.4109 29.6947 73.2302 29.4969C73.0494 29.2991 72.763 29.2036 72.3777 29.2036C71.8661 29.2036 71.491 29.3434 71.2523 29.6196C71.0136 29.8959 70.8943 30.3528 70.8943 30.9905V33.5583H70.1543V28.6648H70.7579L70.8772 29.3332H70.9113C71.0648 29.0911 71.2762 28.9069 71.549 28.774C71.8218 28.641 72.1287 28.5762 72.4629 28.5762C73.0528 28.5762 73.4962 28.7194 73.7928 29.0024C74.0895 29.2855 74.2395 29.7424 74.2395 30.3665V33.5583H73.4996H73.503Z" fill="#0000FF"/>
<path d="M77.7204 33.6469C77.0111 33.6469 76.4621 33.4287 76.0734 32.9922C75.6846 32.5557 75.4902 31.9385 75.4902 31.1405C75.4902 30.3426 75.688 29.6878 76.0836 29.2411C76.4791 28.7944 77.0384 28.5728 77.7682 28.5728C78.0034 28.5728 78.2387 28.5966 78.474 28.6478C78.7093 28.6989 78.8935 28.7569 79.0265 28.8251L78.798 29.456C78.6343 29.3912 78.457 29.3366 78.2626 29.2923C78.0682 29.2479 77.8977 29.2275 77.7477 29.2275C76.752 29.2275 76.2575 29.8618 76.2575 31.1303C76.2575 31.7305 76.3803 32.1942 76.6224 32.5148C76.8645 32.8353 77.226 32.999 77.7 32.999C78.1092 32.999 78.5252 32.9103 78.9549 32.7364V33.3946C78.6275 33.5651 78.2149 33.6503 77.717 33.6503L77.7204 33.6469Z" fill="#0000FF"/>
<path d="M82.1889 33.6469C81.466 33.6469 80.8931 33.4253 80.4771 32.9854C80.0576 32.5455 79.8496 31.9317 79.8496 31.1508C79.8496 30.3699 80.044 29.7356 80.4327 29.2718C80.8215 28.8081 81.3432 28.5762 81.9979 28.5762C82.6118 28.5762 83.096 28.7774 83.454 29.1798C83.8121 29.5821 83.9894 30.1141 83.9894 30.7757V31.2462H80.6169C80.6305 31.8225 80.7771 32.2556 81.0534 32.5557C81.3296 32.8558 81.7183 33.0024 82.2162 33.0024C82.7413 33.0024 83.2631 32.8933 83.778 32.6717V33.3332C83.5154 33.4457 83.2665 33.5276 83.0346 33.5753C82.7993 33.6231 82.5197 33.6503 82.1889 33.6503V33.6469ZM81.9877 29.1934C81.5956 29.1934 81.2818 29.323 81.0465 29.5787C80.8112 29.8345 80.6748 30.1891 80.6339 30.6427H83.1915C83.1915 30.1755 83.0858 29.8174 82.8777 29.5685C82.6697 29.3196 82.3731 29.1968 81.9843 29.1968L81.9877 29.1934Z" fill="#0000FF"/>
<path fill-rule="evenodd" clip-rule="evenodd" d="M132.542 23.6794H130.926V14.312H132.542V23.6794ZM130.121 16.4399C130.121 16.9037 129.739 17.2788 129.272 17.2788C128.805 17.2788 128.423 16.9037 128.423 16.4399C128.423 15.9761 128.805 15.601 129.272 15.601C129.739 15.601 130.121 15.9761 130.121 16.4399ZM126.991 20.191C127.656 20.191 128.096 19.7681 128.096 19.1134C128.096 18.4586 127.639 18.0085 126.95 18.0085C126.326 18.0085 125.882 18.445 125.882 19.1372C125.882 19.8295 126.298 20.191 126.987 20.191H126.991ZM125.548 24.2251C125.548 24.6615 126.043 24.9719 126.875 24.9719C128.007 24.9719 128.645 24.6138 128.645 24.1364C128.645 23.7647 128.344 23.6215 127.734 23.5976L126.237 23.5192C125.77 23.7374 125.548 23.942 125.548 24.2251ZM124.3 22.1586C124.3 21.6846 124.651 21.2208 125.316 20.8866C124.692 20.5149 124.368 19.9113 124.368 19.127C124.368 17.7528 125.408 16.7911 126.957 16.7911C127.591 16.7911 128.225 16.9923 128.709 17.4015C129.03 17.6709 129.282 18.0256 129.422 18.4211C129.518 18.6871 129.545 18.9736 129.545 19.2566C129.545 20.5524 128.583 21.4015 126.994 21.4015C126.708 21.4015 126.462 21.3742 126.251 21.3231C125.951 21.439 125.807 21.5925 125.807 21.7732C125.807 22.1551 126.261 22.1858 127.117 22.2404C127.267 22.2506 127.427 22.2609 127.604 22.2745C129.361 22.4041 130.104 22.7383 130.104 24.0205C130.104 25.3026 128.999 26.1006 126.902 26.1006C124.989 26.1006 124.014 25.5106 124.014 24.4194C124.014 23.7886 124.392 23.4441 125.197 23.185C124.587 22.8883 124.3 22.6189 124.3 22.1586ZM136.368 22.445C137.241 22.445 137.661 21.7357 137.661 20.3069C137.661 18.8781 137.245 18.1824 136.368 18.1824C135.492 18.1824 135.076 18.8781 135.076 20.3069C135.076 21.7357 135.506 22.445 136.368 22.445ZM136.368 16.8014C138.196 16.8014 139.291 18.0904 139.291 20.3069C139.291 22.5234 138.182 23.8124 136.368 23.8124C134.554 23.8124 133.446 22.5098 133.446 20.3069C133.446 18.104 134.541 16.8014 136.368 16.8014ZM144.433 20.3069C144.433 21.7118 143.884 22.4723 142.984 22.4723C142.541 22.4723 142.176 22.2779 141.77 21.8926V18.6837C142.189 18.3086 142.554 18.1176 142.997 18.1176C143.87 18.1176 144.433 18.8917 144.433 20.3069ZM140.191 14.3154V22.1108C140.191 22.4314 140.164 22.9599 140.113 23.6829H141.364L141.535 22.9633C142.097 23.5567 142.656 23.8124 143.386 23.8124C144.938 23.8124 146.049 22.4075 146.049 20.3069C146.049 18.2063 144.914 16.8014 143.441 16.8014C142.749 16.8014 142.254 17.0332 141.783 17.5754V14.3154H140.191ZM148.126 21.8244C148.126 22.2745 148.389 22.5473 148.856 22.5473C149.364 22.5473 149.862 22.3154 150.356 21.838V20.3956C148.842 20.6002 148.126 21.0264 148.126 21.8244ZM150.397 23.0861C149.77 23.5362 149.091 23.7545 148.361 23.7545C147.212 23.7545 146.534 23.0725 146.534 21.9505C146.534 20.4433 147.799 19.6453 150.408 19.3214V18.7928C150.408 18.3018 150.07 18.0187 149.442 18.0187C148.815 18.0187 148.307 18.2881 147.942 18.7928L146.847 18.1108C147.42 17.2344 148.297 16.7979 149.47 16.7979C151.076 16.7979 151.976 17.5584 151.976 18.7962V22.7655C151.976 22.9974 152.017 23.3077 152.082 23.6794H150.541L150.397 23.0861ZM154.963 23.6794H153.347V14.312H154.963V23.6794ZM157.306 21.8755C157.985 22.7246 158.598 23.1509 159.356 23.1509C160.477 23.1509 161.142 22.1586 161.142 20.3171C161.142 18.4757 160.477 17.4834 159.356 17.4834C158.598 17.4834 157.985 17.896 157.306 18.7451V21.8755ZM156.498 16.9412H157.098L157.306 17.8176H157.371C158.012 17.1492 158.687 16.8116 159.42 16.8116C160.907 16.8116 161.951 18.0869 161.951 20.3035C161.951 22.52 160.907 23.7954 159.42 23.7954C158.691 23.7954 158.012 23.4748 157.371 22.8031H157.306V26.1279H156.498V16.9412ZM163.284 21.9642C163.284 20.8184 164.341 20.3921 166.636 19.8909V21.9642C165.841 22.7621 165.163 23.1611 164.416 23.1611C163.71 23.1611 163.281 22.711 163.281 21.9642H163.284ZM164.314 23.8056C165.149 23.8056 165.893 23.4714 166.636 22.7894C166.65 23.0725 166.701 23.3691 166.766 23.6794H167.56C167.482 23.2532 167.444 22.9463 167.444 22.7758V18.5882C167.444 17.5823 166.544 16.8218 165.252 16.8218C164.078 16.8218 163.359 17.2719 162.824 18.1995L163.451 18.5609C163.857 17.838 164.402 17.48 165.146 17.48C166.087 17.48 166.646 17.9301 166.646 18.5882V19.2464C163.789 19.7476 162.469 20.4433 162.469 22.0017C162.469 23.0452 163.188 23.8056 164.31 23.8056H164.314ZM168.164 16.9378H168.972L170.98 22.6701L172.975 16.9378H173.746L171.175 24.2046C170.704 25.5447 170.155 26.0972 168.982 26.0972C168.774 26.0972 168.539 26.0835 168.276 26.046V25.4015C168.484 25.439 168.682 25.4527 168.849 25.4527C169.828 25.4527 170.271 24.9105 170.534 23.6351L168.16 16.9378H168.164ZM175.301 16.9378H174.558V23.676H175.342V18.769C176.02 17.9335 176.685 17.5209 177.313 17.5209C178.278 17.5209 178.486 18.0869 178.486 19.2736V23.6794H179.27V18.7724C179.935 17.9369 180.614 17.5243 181.241 17.5243C182.206 17.5243 182.414 18.0904 182.414 19.2771V23.6829H183.185V18.994C183.185 17.5516 182.612 16.8286 181.463 16.8286C180.733 16.8286 180.014 17.214 179.27 17.9881H179.178C178.864 17.214 178.315 16.8286 177.548 16.8286C176.832 16.8286 176.075 17.214 175.356 17.9881H175.304V16.9446L175.301 16.9378ZM186.994 17.4663C185.923 17.4663 185.166 18.2643 185.037 19.7067H188.781C188.74 18.2506 188.061 17.4663 186.994 17.4663ZM189.579 22.0528C188.979 23.2634 188.208 23.792 187.008 23.792C185.313 23.792 184.229 22.4655 184.229 20.3512C184.229 18.1245 185.35 16.8082 186.98 16.8082C188.61 16.8082 189.538 17.9301 189.538 20.0682V20.2864H185.037C185.05 22.1551 185.766 23.1475 187.059 23.1475C187.932 23.1475 188.494 22.7212 188.975 21.7289L189.575 22.0494L189.579 22.0528ZM191.407 16.9378H190.598V23.676H191.407V18.769C192.136 17.9335 192.856 17.5209 193.535 17.5209C194.578 17.5209 194.813 18.0869 194.813 19.2736V23.6794H195.608V18.9906C195.608 17.5482 194.994 16.8252 193.766 16.8252C193.009 16.8252 192.215 17.2106 191.403 17.9983V16.9412L191.407 16.9378ZM198.936 23.1713C199.12 23.1713 199.356 23.1202 199.652 23.0418V23.6863C199.352 23.7647 199.038 23.8158 198.738 23.8158C197.801 23.8158 197.395 23.3521 197.395 22.3734V17.5925H196.379V16.9343H197.395V14.9361H198.189V16.9343H199.611V17.5925H198.189V22.4109C198.189 22.9258 198.425 23.1713 198.933 23.1713H198.936ZM203.935 21.9233C203.935 22.6326 203.373 23.1611 202.527 23.1611C201.732 23.1611 201.054 22.7621 200.464 21.9881L199.864 22.4655C200.542 23.3691 201.364 23.792 202.435 23.792C203.843 23.792 204.757 22.9804 204.757 21.8585C204.757 20.7366 204.065 20.3751 202.708 19.8738C202.599 19.8329 202.493 19.7954 202.394 19.7579C201.453 19.41 200.907 19.2123 200.907 18.5609C200.907 17.9096 201.391 17.4527 202.135 17.4527C202.878 17.4527 203.454 17.7732 203.976 18.4586L204.549 18.046C203.949 17.2344 203.165 16.8082 202.278 16.8082C200.921 16.8082 200.072 17.5686 200.072 18.5985C200.072 19.6283 200.788 20.017 202.172 20.5183C202.24 20.5422 202.309 20.5695 202.373 20.5899C203.373 20.9548 203.935 21.1594 203.935 21.9199V21.9233Z" fill="#003C71"/>
<path fill-rule="evenodd" clip-rule="evenodd" d="M115.744 13.7084C115.962 13.6777 116.187 13.7186 116.378 13.8311C116.634 13.9777 116.815 14.2403 116.856 14.5302C116.896 14.7928 116.825 15.069 116.661 15.277C116.521 15.4611 116.313 15.5907 116.088 15.6384C115.863 15.6828 115.621 15.6521 115.42 15.543C115.222 15.4373 115.062 15.2599 114.98 15.0519C114.868 14.7791 114.888 14.4483 115.035 14.1926C115.181 13.9334 115.451 13.7493 115.747 13.7084H115.744ZM111.478 14.2642C112.532 14.005 113.65 14.005 114.707 14.2608C114.629 14.4824 114.608 14.7314 114.663 14.9598C114.734 15.277 114.936 15.5634 115.212 15.7373C115.423 15.8703 115.672 15.9419 115.918 15.9317C116.358 15.9283 116.777 15.6623 116.985 15.277C117.998 15.976 118.82 16.9581 119.328 18.08C119.85 19.2224 120.037 20.508 119.88 21.7493C119.764 22.6802 119.451 23.5873 118.97 24.3921C118.196 25.6947 116.975 26.7245 115.563 27.2667C114.55 27.6589 113.442 27.7987 112.365 27.6828C111.096 27.5498 109.868 27.0451 108.869 26.2471C107.853 25.4424 107.069 24.3409 106.649 23.1133C106.107 21.5413 106.165 19.768 106.816 18.2369C107.188 17.3571 107.744 16.5592 108.44 15.9078C109.292 15.1099 110.349 14.5336 111.485 14.2574L111.478 14.2642ZM111.447 15.6282C110.966 15.8499 110.554 16.2113 110.288 16.6717C110.015 17.1423 109.902 17.6913 109.933 18.2335C109.954 18.6666 110.073 19.1031 110.318 19.4645C110.503 19.7407 110.755 19.9692 111.038 20.1397C110.666 20.3307 110.312 20.583 110.076 20.9377C109.902 21.1968 109.814 21.5208 109.868 21.8311C109.906 22.0494 110.029 22.2506 110.189 22.3972C110.397 22.5881 110.649 22.7211 110.898 22.8473C110.615 22.9428 110.329 23.0519 110.08 23.2224C109.899 23.3486 109.739 23.5089 109.643 23.7066C109.514 23.9658 109.5 24.2659 109.534 24.5455C109.568 24.832 109.677 25.1082 109.858 25.3332C110.046 25.5719 110.301 25.7493 110.574 25.8789C110.874 26.0187 111.195 26.1073 111.519 26.1653C111.928 26.2403 112.347 26.2676 112.763 26.2744C113.422 26.2778 114.09 26.2301 114.724 26.0459C115.205 25.9061 115.679 25.6811 116.027 25.3128C116.252 25.0843 116.416 24.7979 116.504 24.4875C116.6 24.1534 116.61 23.7987 116.573 23.4509C116.538 23.161 116.457 22.8712 116.279 22.6325C116.129 22.4279 115.921 22.2744 115.696 22.1653C115.386 22.0187 115.048 21.9402 114.714 21.8823C113.957 21.7527 113.186 21.7459 112.426 21.6708C112.245 21.6504 112.058 21.6265 111.887 21.5617C111.781 21.5174 111.676 21.4492 111.631 21.3367C111.587 21.2207 111.59 21.0775 111.659 20.9718C111.744 20.832 111.891 20.7433 112.037 20.6751C112.068 20.6649 112.095 20.6444 112.126 20.6444C112.508 20.7331 112.903 20.7467 113.292 20.7228C113.889 20.6853 114.492 20.5285 114.983 20.1772C115.219 20.0101 115.42 19.7987 115.577 19.5566C115.788 19.2258 115.901 18.8439 115.931 18.4552C115.955 18.1585 115.938 17.8584 115.887 17.5651C115.775 16.9718 115.437 16.433 114.98 16.0374C114.451 15.5805 113.756 15.3384 113.06 15.3111C112.508 15.294 111.945 15.3827 111.444 15.618L111.447 15.6282ZM112.726 16.7638C112.982 16.7263 113.251 16.7569 113.493 16.849C113.742 16.9411 113.957 17.1184 114.09 17.3503C114.254 17.6265 114.295 17.9607 114.254 18.2744C114.216 18.5404 114.104 18.803 113.902 18.9905C113.66 19.2258 113.313 19.3281 112.982 19.3281C112.665 19.3281 112.33 19.2531 112.085 19.0451C111.87 18.8678 111.747 18.5984 111.71 18.3256C111.672 18.0357 111.696 17.7322 111.815 17.4594C111.911 17.2275 112.088 17.0263 112.31 16.9036C112.44 16.832 112.579 16.7842 112.726 16.7638ZM112.068 23.2531C112.092 23.2429 112.116 23.2326 112.143 23.2395C112.746 23.2736 113.347 23.3008 113.95 23.3349C114.148 23.3486 114.346 23.3725 114.53 23.4407C114.666 23.4918 114.799 23.5805 114.857 23.7203C114.932 23.8942 114.919 24.0988 114.83 24.2625C114.724 24.4534 114.537 24.5864 114.346 24.6819C114.08 24.8081 113.787 24.8763 113.493 24.9138C113.22 24.9479 112.941 24.9581 112.665 24.9479C112.361 24.9343 112.054 24.8797 111.781 24.7467C111.607 24.6581 111.44 24.5285 111.359 24.3443C111.266 24.1431 111.284 23.8908 111.423 23.7135C111.59 23.502 111.833 23.3725 112.068 23.2565V23.2531Z" fill="#003C71"/>
</g>
<defs>
<clipPath id="clip0_493_48994">
<rect width="204.69" height="40" fill="white" transform="translate(0.0566406 0.146484)"/>
</clipPath>
</defs>
</svg>
