<svg width="66" height="42" viewBox="0 0 66 42" fill="none" xmlns="http://www.w3.org/2000/svg">
<g clip-path="url(#clip0_493_40448)">
<path d="M65.585 25.5659H1.09473V26.0425H65.585V25.5659Z" fill="#0000FF"/>
<path d="M23.9089 0.22168C23.9089 2.79229 12.6556 3.07252 12.6556 5.8373H12.4062C12.4062 3.07252 1.15291 2.79229 1.15291 0.22168H0.901367V2.90482C0.901367 6.10871 12.1767 5.80862 12.4062 8.88894H12.6556C12.885 5.80862 24.1604 6.10871 24.1604 2.90482V0.22168H23.9089Z" fill="#0000FF"/>
<path d="M23.7147 6.44629C23.7147 8.99483 12.5563 9.27286 12.5563 12.0156H12.3091C12.3091 9.27286 1.15071 8.99483 1.15071 6.44629H0.901367V9.10737C0.901367 12.2848 12.0819 11.9869 12.3091 15.0407H12.5563C12.7857 11.9869 23.964 12.2848 23.964 9.10737V6.44629H23.7147Z" fill="#0000FF"/>
<path d="M23.7147 12.4834C23.7147 15.032 12.5563 15.31 12.5563 18.0527H12.3091C12.3091 15.31 1.15071 15.032 1.15071 12.4834H0.901367V15.1445C0.901367 18.3197 12.0819 18.0218 12.3091 21.0756H12.5563C12.7857 18.0218 23.964 18.3197 23.964 15.1423V12.4812H23.7147V12.4834Z" fill="#0000FF"/>
<path d="M39.025 0.146484H40.146V5.22151H39.025V0.146484ZM31.0926 4.65222H30.3446V2.78329H31.0926C31.6641 2.78329 32.0701 3.05249 32.0767 3.67693C32.0811 4.30359 31.7722 4.65222 31.0926 4.65222ZM30.3446 0.715769H31.0043C31.4809 0.715769 31.8803 0.863607 31.8781 1.42848C31.8781 1.98453 31.5383 2.2118 30.9999 2.214H30.3423V0.713563L30.3446 0.715769ZM31.9222 2.43907C32.454 2.32212 33.0056 2.04189 33.0056 1.27402C33.0056 0.506149 32.3746 0.146484 31.6685 0.146484H29.2236V5.22151H31.4456C32.4363 5.22371 33.2704 4.75152 33.2704 3.75416C33.2704 2.83404 32.4562 2.46776 31.9244 2.43907M35.8962 0.865814C36.567 0.861401 36.8516 1.46158 36.8649 2.74357C36.8781 4.00791 36.5934 4.58161 35.8962 4.58161C35.1989 4.58161 34.9319 4.00791 34.9319 2.74357C34.9319 1.47923 35.1967 0.872433 35.8962 0.865814ZM35.905 5.30094C37.0811 5.30094 38.1822 4.6103 38.1711 2.74137C38.1623 0.861401 37.1738 0.139865 35.905 0.150897C34.6914 0.157517 33.6213 0.863607 33.6235 2.74137C33.6301 4.61912 34.7311 5.30094 35.905 5.30094Z" fill="#0000FF"/>
<path d="M32.4983 9.40293C32.4983 9.91484 32.324 10.3076 31.9732 10.5834C31.6223 10.8592 31.1237 10.996 30.4749 10.996H29.8792V12.9841H29.29V7.92676H30.6007C31.8651 7.92676 32.4961 8.41881 32.4961 9.40072L32.4983 9.40293ZM29.8792 10.493H30.4087C30.9295 10.493 31.3068 10.4091 31.5385 10.2414C31.7702 10.0737 31.8871 9.80231 31.8871 9.43161C31.8871 9.09843 31.7768 8.84909 31.5584 8.6836C31.3399 8.52031 30.9979 8.43867 30.5345 8.43867H29.877V10.493H29.8792Z" fill="#0000FF"/>
<path d="M35.7991 12.9842L35.6843 12.4436H35.6578C35.4681 12.6819 35.2805 12.843 35.093 12.9268C34.9054 13.0107 34.6693 13.0526 34.3891 13.0526C34.014 13.0526 33.7183 12.9555 33.5065 12.7613C33.2924 12.5672 33.1865 12.2914 33.1865 11.9339C33.1865 11.1682 33.7977 10.7666 35.0224 10.7291L35.6667 10.7093V10.4732C35.6667 10.1753 35.6027 9.95684 35.4747 9.81342C35.3467 9.67 35.1415 9.60159 34.8613 9.60159C34.5457 9.60159 34.1883 9.69868 33.7889 9.89285L33.6124 9.45375C33.7999 9.35225 34.0029 9.27282 34.2258 9.21545C34.4487 9.15808 34.6715 9.12939 34.8944 9.12939C35.3467 9.12939 35.6821 9.22869 35.8983 9.42948C36.1168 9.63028 36.2249 9.95243 36.2249 10.3937V12.9798H35.7991V12.9842ZM34.5016 12.5804C34.8591 12.5804 35.1393 12.4833 35.3445 12.2869C35.5475 12.0906 35.6512 11.817 35.6512 11.4639V11.1219L35.0775 11.1462C34.6208 11.1616 34.292 11.2322 34.0912 11.358C33.8904 11.4838 33.7889 11.6801 33.7889 11.9449C33.7889 12.1523 33.8507 12.3112 33.9765 12.4193C34.1022 12.5275 34.2788 12.5826 34.5038 12.5826L34.5016 12.5804Z" fill="#0000FF"/>
<path d="M36.8076 9.19557H37.4232L38.2529 11.358C38.436 11.8522 38.5486 12.2075 38.5927 12.4259H38.6214C38.6523 12.309 38.7141 12.1082 38.8089 11.8213C38.9038 11.5367 39.2171 10.6607 39.7489 9.19557H40.3645L38.7361 13.5115C38.575 13.9374 38.3853 14.2397 38.1713 14.4184C37.955 14.5972 37.6902 14.6854 37.3769 14.6854C37.2026 14.6854 37.0283 14.6656 36.8584 14.6258V14.1669C36.9841 14.1956 37.1276 14.2088 37.2842 14.2088C37.6792 14.2088 37.9594 13.9882 38.1271 13.5446L38.339 13.004L36.8098 9.19336L36.8076 9.19557Z" fill="#0000FF"/>
<path d="M45.8118 12.9843V10.5174C45.8118 10.2151 45.7478 9.9878 45.6176 9.83776C45.4874 9.68771 45.2866 9.61048 45.0152 9.61048C44.6578 9.61048 44.393 9.71198 44.2231 9.91719C44.0532 10.1224 43.9671 10.4379 43.9671 10.8638V12.9799H43.3934V10.513C43.3934 10.2107 43.3294 9.98339 43.1993 9.83334C43.0713 9.6833 42.8683 9.60607 42.5947 9.60607C42.235 9.60607 41.9724 9.71419 41.8047 9.92822C41.637 10.1445 41.5532 10.4975 41.5532 10.9874V12.9754H40.9795V9.18462H41.4473L41.5399 9.70316H41.5664C41.6745 9.51781 41.8268 9.37438 42.0254 9.27068C42.2218 9.16697 42.4424 9.11401 42.6873 9.11401C43.2809 9.11401 43.667 9.32805 43.8502 9.75832H43.8767C43.9892 9.55973 44.1525 9.40307 44.3687 9.28833C44.5828 9.17359 44.8277 9.11622 45.1013 9.11622C45.5294 9.11622 45.8515 9.22655 46.0655 9.4472C46.2796 9.66785 46.3855 10.0187 46.3855 10.5041V12.9777H45.8118V12.9843Z" fill="#0000FF"/>
<path d="M49.17 13.0548C48.6095 13.0548 48.1682 12.8849 47.8438 12.5429C47.5195 12.2009 47.3584 11.7287 47.3584 11.1219C47.3584 10.5151 47.5084 10.0253 47.8085 9.66559C48.1086 9.30593 48.5146 9.1272 49.0199 9.1272C49.4943 9.1272 49.8716 9.28386 50.1475 9.59498C50.4233 9.90831 50.5623 10.3187 50.5623 10.8306V11.1947H47.952C47.963 11.6404 48.0755 11.978 48.2896 12.2075C48.5036 12.437 48.8037 12.5539 49.1898 12.5539C49.598 12.5539 50.0018 12.4679 50.4012 12.298V12.8099C50.1982 12.8982 50.0062 12.9599 49.8253 12.9975C49.6444 13.035 49.4259 13.0548 49.17 13.0548ZM49.0133 9.60601C48.7088 9.60601 48.4661 9.70531 48.2851 9.9039C48.1042 10.1025 47.9983 10.3761 47.9652 10.7269H49.9467C49.9467 10.3651 49.865 10.087 49.7039 9.89507C49.5429 9.7031 49.3112 9.60601 49.0133 9.60601Z" fill="#0000FF"/>
<path d="M54.1366 12.9842V10.5328C54.1366 10.2239 54.066 9.99217 53.9248 9.84212C53.7836 9.68987 53.5629 9.61485 53.265 9.61485C52.8679 9.61485 52.5788 9.72297 52.3935 9.937C52.2081 10.151 52.1176 10.5063 52.1176 10.9983V12.9864H51.5439V9.19561H52.0117L52.1044 9.71414H52.1309C52.2478 9.52659 52.4133 9.38316 52.6251 9.27946C52.837 9.17796 53.0731 9.125 53.3334 9.125C53.7902 9.125 54.1344 9.23533 54.3639 9.45598C54.5934 9.67663 54.7103 10.0275 54.7103 10.5129V12.9864H54.1366V12.9842Z" fill="#0000FF"/>
<path d="M57.1132 12.5804C57.2147 12.5804 57.3118 12.5738 57.4067 12.5583C57.5016 12.5429 57.5766 12.5274 57.6317 12.512V12.9511C57.57 12.982 57.4773 13.0063 57.3559 13.0261C57.2346 13.046 57.1264 13.0548 57.0294 13.0548C56.2968 13.0548 55.9305 12.6687 55.9305 11.8964V9.6413H55.3877V9.36549L55.9305 9.12718L56.1732 8.31738H56.5042V9.19558H57.6031V9.6413H56.5042V11.8721C56.5042 12.0994 56.5594 12.2759 56.6675 12.3973C56.7756 12.5186 56.9256 12.5804 57.1132 12.5804Z" fill="#0000FF"/>
<path d="M32.4711 20.835L31.8422 19.2265H29.8166L29.1944 20.835H28.5986L30.5978 15.7578H31.092L33.0801 20.835H32.4711ZM31.6591 18.6969L31.0699 17.1303C30.9949 16.9317 30.9155 16.689 30.8338 16.3999C30.7831 16.6206 30.7103 16.8655 30.6154 17.1303L30.0196 18.6969H31.6547H31.6591Z" fill="#0000FF"/>
<path d="M35.203 20.9057C34.6536 20.9057 34.23 20.7358 33.9277 20.3982C33.6276 20.0606 33.4775 19.5817 33.4775 18.9639C33.4775 18.3461 33.6298 17.8408 33.9365 17.4944C34.241 17.1479 34.6779 16.9758 35.2428 16.9758C35.4259 16.9758 35.6068 16.9957 35.79 17.0354C35.9731 17.0751 36.1143 17.1215 36.2181 17.1744L36.0415 17.6621C35.9158 17.6113 35.7767 17.5694 35.6267 17.5363C35.4767 17.5032 35.3443 17.4855 35.2295 17.4855C34.4594 17.4855 34.0755 17.9776 34.0755 18.9595C34.0755 19.4251 34.1682 19.7825 34.3579 20.0319C34.5455 20.2812 34.8235 20.4048 35.1942 20.4048C35.5098 20.4048 35.8341 20.3364 36.1651 20.2018V20.7093C35.9113 20.8417 35.5914 20.9057 35.2075 20.9057H35.203Z" fill="#0000FF"/>
<path d="M38.5761 20.9057C38.0267 20.9057 37.603 20.7358 37.3007 20.3982C37.0006 20.0606 36.8506 19.5817 36.8506 18.9639C36.8506 18.3461 37.0028 17.8408 37.3095 17.4944C37.614 17.1479 38.0509 16.9758 38.6158 16.9758C38.799 16.9758 38.9799 16.9957 39.163 17.0354C39.3462 17.0751 39.4874 17.1215 39.5911 17.1744L39.4146 17.6621C39.2888 17.6113 39.1498 17.5694 38.9997 17.5363C38.8497 17.5032 38.7173 17.4855 38.6026 17.4855C37.8325 17.4855 37.4486 17.9776 37.4486 18.9595C37.4486 19.4251 37.5412 19.7825 37.731 20.0319C37.9185 20.2812 38.1966 20.4048 38.5673 20.4048C38.8828 20.4048 39.2072 20.3364 39.5381 20.2018V20.7093C39.2844 20.8417 38.9644 20.9057 38.5805 20.9057H38.5761Z" fill="#0000FF"/>
<path d="M42.0332 20.9057C41.4728 20.9057 41.0315 20.7358 40.7071 20.3937C40.3828 20.0517 40.2217 19.5795 40.2217 18.9727C40.2217 18.3659 40.3717 17.8761 40.6718 17.5164C40.9719 17.1568 41.3779 16.978 41.8832 16.978C42.3576 16.978 42.7349 17.1347 43.0107 17.4458C43.2866 17.7591 43.4256 18.1696 43.4256 18.6815V19.0455H40.8152C40.8263 19.4913 40.9388 19.8289 41.1528 20.0583C41.3669 20.2878 41.667 20.4048 42.0531 20.4048C42.4613 20.4048 42.8651 20.3187 43.2645 20.1488V20.6607C43.0615 20.749 42.8695 20.8108 42.6886 20.8483C42.5076 20.8858 42.2892 20.9057 42.0332 20.9057ZM41.8766 17.4568C41.5721 17.4568 41.3294 17.5561 41.1484 17.7547C40.9675 17.9533 40.8616 18.2269 40.8285 18.5778H42.8099C42.8099 18.2159 42.7283 17.9379 42.5672 17.7459C42.4061 17.5539 42.1745 17.4568 41.8766 17.4568Z" fill="#0000FF"/>
<path d="M46.1702 20.9057C45.9231 20.9057 45.698 20.8593 45.495 20.7689C45.292 20.6784 45.1199 20.5372 44.9809 20.3496H44.939C44.9655 20.5703 44.9809 20.7799 44.9809 20.9785V22.5385H44.4072V17.0464H44.875L44.9544 17.565H44.9809C45.1288 17.3576 45.3009 17.2075 45.4973 17.1148C45.6936 17.0222 45.9187 16.9758 46.1725 16.9758C46.6755 16.9758 47.0639 17.1479 47.3353 17.49C47.6089 17.8342 47.7457 18.3152 47.7457 18.9352C47.7457 19.5553 47.6067 20.0407 47.3287 20.3871C47.0507 20.7313 46.6645 20.9035 46.1725 20.9035L46.1702 20.9057ZM46.0864 17.4635C45.7003 17.4635 45.42 17.5716 45.2457 17.7856C45.0736 17.9997 44.9831 18.3417 44.9787 18.8095V18.9374C44.9787 19.4692 45.067 19.8509 45.2457 20.0804C45.4244 20.3099 45.7069 20.4246 46.0996 20.4246C46.4262 20.4246 46.6844 20.2922 46.8697 20.0275C47.0551 19.7627 47.1477 19.3964 47.1477 18.9308C47.1477 18.4652 47.0551 18.0945 46.8697 17.843C46.6844 17.5915 46.424 17.4635 46.0864 17.4635Z" fill="#0000FF"/>
<path d="M49.9706 20.4312C50.0721 20.4312 50.1692 20.4246 50.2641 20.4092C50.359 20.3937 50.434 20.3783 50.4892 20.3628V20.8019C50.4274 20.8328 50.3347 20.8571 50.2133 20.877C50.092 20.8968 49.9839 20.9056 49.8868 20.9056C49.1542 20.9056 48.7879 20.5195 48.7879 19.7472V17.4921H48.2451V17.2163L48.7879 16.978L49.0306 16.1682H49.3616V17.0464H50.4605V17.4921H49.3616V19.7229C49.3616 19.9502 49.4168 20.1267 49.5249 20.2481C49.633 20.3694 49.7831 20.4312 49.9706 20.4312Z" fill="#0000FF"/>
<path d="M53.5784 20.835L53.4636 20.2944H53.4371C53.2474 20.5327 53.0598 20.6938 52.8723 20.7777C52.6847 20.8615 52.4486 20.9034 52.1684 20.9034C51.7933 20.9034 51.4976 20.8063 51.2858 20.6122C51.0717 20.418 50.9658 20.1422 50.9658 19.7847C50.9658 19.0191 51.577 18.6175 52.8017 18.58L53.446 18.5601V18.324C53.446 18.0261 53.382 17.8077 53.254 17.6642C53.126 17.5208 52.9208 17.4524 52.6406 17.4524C52.325 17.4524 51.9676 17.5495 51.5682 17.7437L51.3917 17.3046C51.5792 17.2031 51.7822 17.1236 52.0051 17.0663C52.228 17.0089 52.4508 16.9802 52.6737 16.9802C53.126 16.9802 53.4614 17.0795 53.6776 17.2803C53.8961 17.4811 54.0042 17.8033 54.0042 18.2446V20.8306H53.5784V20.835ZM52.2809 20.4312C52.6384 20.4312 52.9186 20.3342 53.1238 20.1378C53.3268 19.9414 53.4305 19.6678 53.4305 19.3147V18.9727L52.8568 18.997C52.4001 19.0124 52.0713 19.083 51.8705 19.2088C51.6697 19.3346 51.5682 19.531 51.5682 19.7958C51.5682 20.0032 51.63 20.162 51.7558 20.2702C51.8815 20.3783 52.0581 20.4334 52.2831 20.4334L52.2809 20.4312Z" fill="#0000FF"/>
<path d="M57.7812 20.8351V18.3836C57.7812 18.0747 57.7105 17.843 57.5693 17.693C57.4281 17.5407 57.2075 17.4657 56.9096 17.4657C56.5124 17.4657 56.2233 17.5738 56.038 17.7878C55.8526 18.0019 55.7622 18.3571 55.7622 18.8492V20.8373H55.1885V17.0464H55.6563L55.7489 17.565H55.7754C55.8924 17.3774 56.0578 17.234 56.2697 17.1303C56.4815 17.0288 56.7176 16.9758 56.978 16.9758C57.4347 16.9758 57.7789 17.0862 58.0084 17.3068C58.2379 17.5275 58.3549 17.8783 58.3549 18.3637V20.8373H57.7812V20.8351Z" fill="#0000FF"/>
<path d="M61.0488 20.9057C60.4993 20.9057 60.0757 20.7358 59.7734 20.3982C59.4733 20.0606 59.3232 19.5817 59.3232 18.9639C59.3232 18.3461 59.4755 17.8408 59.7822 17.4944C60.0867 17.1479 60.5236 16.9758 61.0885 16.9758C61.2716 16.9758 61.4525 16.9957 61.6357 17.0354C61.8188 17.0751 61.9601 17.1215 62.0638 17.1744L61.8872 17.6621C61.7615 17.6113 61.6225 17.5694 61.4724 17.5363C61.3224 17.5032 61.19 17.4855 61.0752 17.4855C60.3051 17.4855 59.9212 17.9776 59.9212 18.9595C59.9212 19.4251 60.0139 19.7825 60.2037 20.0319C60.3912 20.2812 60.6692 20.4048 61.0399 20.4048C61.3555 20.4048 61.6798 20.3364 62.0108 20.2018V20.7093C61.7571 20.8417 61.4371 20.9057 61.0532 20.9057H61.0488Z" fill="#0000FF"/>
<path d="M64.5059 20.9057C63.9454 20.9057 63.5041 20.7358 63.1798 20.3937C62.8554 20.0517 62.6943 19.5795 62.6943 18.9727C62.6943 18.3659 62.8444 17.8761 63.1445 17.5164C63.4446 17.1568 63.8506 16.978 64.3559 16.978C64.8303 16.978 65.2076 17.1347 65.4834 17.4458C65.7592 17.7591 65.8982 18.1696 65.8982 18.6815V19.0455H63.2879C63.2989 19.4913 63.4115 19.8289 63.6255 20.0583C63.8395 20.2878 64.1396 20.4048 64.5258 20.4048C64.934 20.4048 65.3378 20.3187 65.7371 20.1488V20.6607C65.5341 20.749 65.3422 20.8108 65.1612 20.8483C64.9803 20.8858 64.7619 20.9057 64.5059 20.9057ZM64.3492 17.4568C64.0447 17.4568 63.802 17.5561 63.6211 17.7547C63.4401 17.9533 63.3342 18.2269 63.3011 18.5778H65.2826C65.2826 18.2159 65.201 17.9379 65.0399 17.7459C64.8788 17.5539 64.6471 17.4568 64.3492 17.4568Z" fill="#0000FF"/>
<path fill-rule="evenodd" clip-rule="evenodd" d="M18.3086 39.3809H17.2627V33.3196H18.3086V39.3809ZM16.7419 34.6965C16.7419 34.9965 16.4948 35.2393 16.1925 35.2393C15.8902 35.2393 15.6431 34.9965 15.6431 34.6965C15.6431 34.3964 15.8902 34.1536 16.1925 34.1536C16.4948 34.1536 16.7419 34.3964 16.7419 34.6965ZM14.7163 37.1236C15.1466 37.1236 15.4313 36.85 15.4313 36.4264C15.4313 36.0027 15.1356 35.7115 14.6899 35.7115C14.2861 35.7115 13.9992 35.9939 13.9992 36.4418C13.9992 36.8897 14.2684 37.1236 14.7141 37.1236H14.7163ZM13.783 39.734C13.783 40.0164 14.1029 40.2172 14.6413 40.2172C15.3739 40.2172 15.7865 39.9855 15.7865 39.6766C15.7865 39.4361 15.5923 39.3434 15.1974 39.328L14.2287 39.2772C13.9264 39.4184 13.783 39.5508 13.783 39.734ZM12.9754 38.3968C12.9754 38.0901 13.2027 37.79 13.6329 37.5738C13.2291 37.3333 13.0195 36.9427 13.0195 36.4352C13.0195 35.546 13.6925 34.9237 14.6943 34.9237C15.1047 34.9237 15.5151 35.0539 15.8284 35.3187C16.0358 35.493 16.1991 35.7225 16.2896 35.9785C16.3514 36.1506 16.369 36.3359 16.369 36.5191C16.369 37.3575 15.7468 37.907 14.7185 37.907C14.5332 37.907 14.3743 37.8893 14.2375 37.8562C14.0433 37.9312 13.9507 38.0305 13.9507 38.1475C13.9507 38.3946 14.2441 38.4145 14.798 38.4498C14.8951 38.4564 14.9988 38.463 15.1135 38.4718C16.2499 38.5557 16.7309 38.7719 16.7309 39.6016C16.7309 40.4312 16.016 40.9476 14.659 40.9476C13.4211 40.9476 12.79 40.5658 12.79 39.8597C12.79 39.4515 13.035 39.2287 13.5557 39.061C13.1607 38.869 12.9754 38.6947 12.9754 38.3968ZM20.7843 38.5822C21.3492 38.5822 21.6206 38.1232 21.6206 37.1987C21.6206 36.2741 21.3514 35.824 20.7843 35.824C20.2172 35.824 19.948 36.2741 19.948 37.1987C19.948 38.1232 20.226 38.5822 20.7843 38.5822ZM20.7843 34.9303C21.967 34.9303 22.6753 35.7644 22.6753 37.1987C22.6753 38.6329 21.9582 39.467 20.7843 39.467C19.6104 39.467 18.8933 38.6241 18.8933 37.1987C18.8933 35.7732 19.6016 34.9303 20.7843 34.9303ZM26.0027 37.1987C26.0027 38.1078 25.6475 38.5998 25.065 38.5998C24.7781 38.5998 24.542 38.474 24.2794 38.2247V36.1484C24.5509 35.9056 24.787 35.7821 25.0738 35.7821C25.6387 35.7821 26.0027 36.283 26.0027 37.1987ZM23.2578 33.3218V38.3659C23.2578 38.5733 23.2402 38.9153 23.2071 39.3831H24.0169L24.1272 38.9176C24.4913 39.3015 24.8531 39.467 25.3253 39.467C26.3293 39.467 27.0486 38.5579 27.0486 37.1987C27.0486 35.8394 26.3139 34.9303 25.3606 34.9303C24.9127 34.9303 24.5928 35.0804 24.2883 35.4312V33.3218H23.2578ZM28.3924 38.1806C28.3924 38.4718 28.5623 38.6484 28.8646 38.6484C29.1934 38.6484 29.5155 38.4983 29.8355 38.1894V37.256C28.8558 37.3884 28.3924 37.6642 28.3924 38.1806ZM29.862 38.997C29.456 39.2882 29.0169 39.4295 28.5447 39.4295C27.8011 39.4295 27.362 38.9882 27.362 38.2622C27.362 37.2869 28.1806 36.7706 29.8686 36.561V36.219C29.8686 35.9012 29.6501 35.7181 29.2441 35.7181C28.8381 35.7181 28.5094 35.8924 28.2733 36.219L27.565 35.7777C27.9357 35.2106 28.5027 34.9281 29.2618 34.9281C30.3011 34.9281 30.8836 35.4202 30.8836 36.2212V38.7896C30.8836 38.9396 30.9101 39.1404 30.952 39.3809H29.9546L29.862 38.997ZM32.8165 39.3809H31.7706V33.3196H32.8165V39.3809ZM34.3324 38.2137C34.7715 38.7631 35.1687 39.0389 35.6585 39.0389C36.3845 39.0389 36.8148 38.3968 36.8148 37.2053C36.8148 36.0138 36.3845 35.3717 35.6585 35.3717C35.1687 35.3717 34.7715 35.6386 34.3324 36.1881V38.2137ZM33.8095 35.0208H34.1978L34.3324 35.5879H34.3743C34.7892 35.1554 35.2261 34.937 35.7005 34.937C36.6625 34.937 37.3377 35.7622 37.3377 37.1965C37.3377 38.6307 36.6625 39.4559 35.7005 39.4559C35.2283 39.4559 34.7892 39.2485 34.3743 38.8138H34.3324V40.9652H33.8095V35.0208ZM38.2005 38.271C38.2005 37.5296 38.8845 37.2538 40.3695 36.9295V38.271C39.8554 38.7874 39.4163 39.0455 38.933 39.0455C38.4763 39.0455 38.1982 38.7543 38.1982 38.271H38.2005ZM38.8668 39.4626C39.4074 39.4626 39.8885 39.2463 40.3695 38.805C40.3783 38.9882 40.4114 39.1801 40.4533 39.3809H40.9674C40.9167 39.1051 40.8924 38.9065 40.8924 38.7962V36.0866C40.8924 35.4356 40.3099 34.9436 39.4736 34.9436C38.7146 34.9436 38.249 35.2349 37.9026 35.835L38.3086 36.0689C38.5712 35.6011 38.9242 35.3694 39.4052 35.3694C40.0142 35.3694 40.3761 35.6607 40.3761 36.0866V36.5124C38.527 36.8368 37.6731 37.2869 37.6731 38.2953C37.6731 38.9705 38.1387 39.4626 38.8646 39.4626H38.8668ZM41.358 35.0186H41.8809L43.1806 38.7278L44.4714 35.0186H44.9701L43.3064 39.7207C43.0019 40.5879 42.6466 40.9454 41.8876 40.9454C41.753 40.9454 41.6007 40.9365 41.4308 40.9123V40.4952C41.5654 40.5195 41.6934 40.5283 41.8015 40.5283C42.4348 40.5283 42.7216 40.1775 42.8915 39.3522L41.3558 35.0186H41.358ZM45.9763 35.0186H45.4952V39.3787H46.0027V36.2035C46.4418 35.6629 46.8721 35.3959 47.2781 35.3959C47.9026 35.3959 48.0372 35.7622 48.0372 36.5301V39.3809H48.5447V36.2057C48.9749 35.6651 49.414 35.3981 49.82 35.3981C50.4445 35.3981 50.5791 35.7644 50.5791 36.5323V39.3831H51.0778V36.3491C51.0778 35.4158 50.7071 34.948 49.9635 34.948C49.4913 34.948 49.0257 35.1973 48.5447 35.6982H48.4851C48.2821 35.1973 47.9268 34.948 47.4304 34.948C46.967 34.948 46.4772 35.1973 46.0116 35.6982H45.9785V35.023L45.9763 35.0186ZM53.5425 35.3606C52.8496 35.3606 52.3598 35.877 52.2759 36.8103H54.6987C54.6722 35.8681 54.2331 35.3606 53.5425 35.3606ZM55.215 38.3284C54.8267 39.1117 54.328 39.4537 53.5513 39.4537C52.4546 39.4537 51.753 38.5954 51.753 37.2273C51.753 35.7865 52.4789 34.9348 53.5336 34.9348C54.5884 34.9348 55.1885 35.6607 55.1885 37.0442V37.1854H52.2759C52.2847 38.3946 52.7481 39.0367 53.5844 39.0367C54.1493 39.0367 54.5133 38.7609 54.8245 38.1188L55.2128 38.3262L55.215 38.3284ZM56.3977 35.0186H55.8748V39.3787H56.3977V36.2035C56.8699 35.6629 57.3355 35.3959 57.7746 35.3959C58.4498 35.3959 58.602 35.7622 58.602 36.5301V39.3809H59.1162V36.3469C59.1162 35.4136 58.719 34.9458 57.9246 34.9458C57.4348 34.9458 56.9207 35.1951 56.3955 35.7048V35.0208L56.3977 35.0186ZM61.2697 39.0522C61.3889 39.0522 61.5411 39.0191 61.7331 38.9683V39.3853C61.5389 39.4361 61.3359 39.4692 61.1418 39.4692C60.535 39.4692 60.2724 39.1691 60.2724 38.5358V35.4423H59.6148V35.0164H60.2724V33.7234H60.7865V35.0164H61.7066V35.4423H60.7865V38.5601C60.7865 38.8933 60.9388 39.0522 61.2675 39.0522H61.2697ZM64.5045 38.2446C64.5045 38.7035 64.1404 39.0455 63.5932 39.0455C63.0791 39.0455 62.64 38.7874 62.2583 38.2865L61.8699 38.5954C62.309 39.1801 62.8408 39.4537 63.5336 39.4537C64.4449 39.4537 65.0363 38.9286 65.0363 38.2026C65.0363 37.4767 64.5884 37.2428 63.7102 36.9184C63.6396 36.892 63.5712 36.8677 63.5072 36.8434C62.8982 36.6183 62.5451 36.4904 62.5451 36.0689C62.5451 35.6475 62.8584 35.3518 63.3395 35.3518C63.8205 35.3518 64.1934 35.5592 64.531 36.0027L64.9017 35.7357C64.5133 35.2106 64.0058 34.9348 63.4321 34.9348C62.5539 34.9348 62.0045 35.4268 62.0045 36.0932C62.0045 36.7596 62.4679 37.0111 63.3637 37.3355C63.4079 37.3509 63.452 37.3686 63.4939 37.3818C64.1404 37.6179 64.5045 37.7503 64.5045 38.2424V38.2446Z" fill="#003C71"/>
<path fill-rule="evenodd" clip-rule="evenodd" d="M7.44032 32.9309C7.58154 32.9111 7.72717 32.9376 7.85074 33.0104C8.01623 33.1053 8.13317 33.2752 8.15965 33.4627C8.18613 33.6326 8.13979 33.8113 8.03388 33.9459C7.94341 34.0651 7.80881 34.1489 7.66318 34.1798C7.51755 34.2085 7.36089 34.1887 7.2307 34.1181C7.10272 34.0497 6.99902 33.9349 6.94606 33.8003C6.87324 33.6238 6.88648 33.4098 6.98136 33.2443C7.07624 33.0766 7.25056 32.9574 7.44253 32.9309H7.44032ZM4.67995 33.2906C5.36177 33.1229 6.08551 33.1229 6.76954 33.2884C6.71879 33.4318 6.70555 33.5929 6.74085 33.7407C6.78719 33.9459 6.91737 34.1313 7.0961 34.2438C7.23291 34.3299 7.39399 34.3762 7.55286 34.3696C7.8375 34.3674 8.1089 34.1953 8.2435 33.9459C8.89884 34.3983 9.43061 35.0338 9.75939 35.7597C10.097 36.4989 10.2183 37.3308 10.1168 38.1339C10.0418 38.7363 9.83882 39.3233 9.5277 39.844C9.02682 40.6869 8.23688 41.3533 7.32338 41.7041C6.66804 41.9579 5.95091 42.0483 5.25365 41.9733C4.43282 41.8873 3.63847 41.5607 2.99196 41.0444C2.33441 40.5236 1.82691 39.8109 1.5555 39.0166C1.20467 37.9993 1.24218 36.8519 1.66362 35.8612C1.90414 35.2919 2.2638 34.7756 2.71393 34.3542C3.26557 33.8378 3.94959 33.4649 4.68437 33.2862L4.67995 33.2906ZM4.66009 34.1732C4.34897 34.3166 4.08198 34.5505 3.90987 34.8484C3.73335 35.1529 3.66053 35.5082 3.68039 35.859C3.69363 36.1392 3.77086 36.4217 3.92973 36.6556C4.04888 36.8343 4.21217 36.9821 4.39531 37.0925C4.1548 37.216 3.92532 37.3793 3.77307 37.6088C3.66053 37.7765 3.60316 37.9861 3.63847 38.1869C3.66274 38.3281 3.74218 38.4583 3.84588 38.5532C3.98048 38.6768 4.14377 38.7628 4.30484 38.8444C4.1217 38.9062 3.93635 38.9768 3.77527 39.0872C3.65833 39.1688 3.55462 39.2725 3.49284 39.4005C3.40899 39.5682 3.40016 39.7624 3.42223 39.9433C3.44429 40.1286 3.5149 40.3074 3.63185 40.453C3.75321 40.6075 3.9187 40.7222 4.09522 40.8061C4.2894 40.8965 4.49681 40.9539 4.70643 40.9914C4.97121 41.0399 5.24262 41.0576 5.51181 41.062C5.93767 41.0642 6.37015 41.0333 6.78057 40.9142C7.09169 40.8237 7.3984 40.6781 7.62346 40.4398C7.7691 40.2919 7.87501 40.1066 7.93238 39.9058C7.99416 39.6895 8.00078 39.4601 7.97651 39.235C7.95444 39.0474 7.90149 38.8599 7.78675 38.7054C7.68966 38.573 7.55506 38.4738 7.40943 38.4031C7.20864 38.3083 6.99019 38.2575 6.77395 38.22C6.2841 38.1362 5.78542 38.1317 5.29337 38.0832C5.17642 38.07 5.05506 38.0545 4.94474 38.0126C4.87633 37.9839 4.80793 37.9398 4.77925 37.867C4.75056 37.7919 4.75277 37.6993 4.7969 37.6309C4.85206 37.5404 4.94694 37.483 5.04182 37.4389C5.06168 37.4323 5.07933 37.419 5.09919 37.419C5.34632 37.4764 5.60228 37.4852 5.85383 37.4698C6.23997 37.4455 6.63053 37.344 6.94827 37.1167C7.10052 37.0086 7.2307 36.8718 7.3322 36.7151C7.46901 36.5011 7.54182 36.254 7.56168 36.0024C7.57713 35.8105 7.56609 35.6163 7.533 35.4265C7.46018 35.0426 7.24173 34.694 6.94606 34.438C6.60405 34.1423 6.15391 33.9857 5.70378 33.968C5.34632 33.957 4.98225 34.0143 4.65789 34.1666L4.66009 34.1732ZM5.48754 34.908C5.65303 34.8837 5.82735 34.9036 5.98401 34.9632C6.14509 35.0227 6.2841 35.1375 6.37016 35.2875C6.47607 35.4662 6.50255 35.6825 6.47607 35.8855C6.4518 36.0576 6.37898 36.2275 6.2488 36.3489C6.09213 36.5011 5.86707 36.5673 5.65303 36.5673C5.44782 36.5673 5.23158 36.5188 5.07271 36.3842C4.9337 36.2694 4.85427 36.0951 4.83 35.9186C4.80572 35.731 4.82117 35.5347 4.8984 35.3581C4.96018 35.2081 5.07492 35.0779 5.21835 34.9985C5.30219 34.9521 5.39266 34.9212 5.48754 34.908ZM5.06168 39.107C5.07713 39.1004 5.09257 39.0938 5.11023 39.0982C5.50078 39.1203 5.88913 39.1379 6.27969 39.16C6.40767 39.1688 6.53565 39.1843 6.6548 39.2284C6.74306 39.2615 6.82911 39.3189 6.86662 39.4093C6.91517 39.5219 6.90634 39.6542 6.84897 39.7602C6.78057 39.8837 6.65921 39.9698 6.53565 40.0316C6.36354 40.1132 6.17377 40.1573 5.98401 40.1816C5.80749 40.2037 5.62655 40.2103 5.44782 40.2037C5.25144 40.1948 5.05286 40.1595 4.87633 40.0735C4.7638 40.0161 4.65568 39.9323 4.60272 39.8131C4.54315 39.6829 4.55418 39.5196 4.64465 39.4049C4.75277 39.2681 4.90943 39.1843 5.06168 39.1092V39.107Z" fill="#003C71"/>
</g>
<defs>
<clipPath id="clip0_493_40448">
<rect width="65" height="41.85" fill="white" transform="translate(0.901367 0.146484)"/>
</clipPath>
</defs>
</svg>
