<svg width="65" height="29" viewBox="0 0 65 29" fill="none" xmlns="http://www.w3.org/2000/svg">
<g clip-path="url(#clip0_153_116167)">
<path d="M6.17491 20.792C6.53602 20.792 6.80686 20.5211 6.80686 20.16C6.80686 19.7989 6.53602 19.5281 6.17491 19.5281C5.8138 19.5281 5.54297 19.7989 5.54297 20.16C5.54297 20.5211 5.8138 20.792 6.17491 20.792Z" fill="#003C71"/>
<path d="M4.27868 23.2294C4.77521 23.2294 5.13632 22.9135 5.13632 22.3718C5.13632 21.8753 4.77521 21.5142 4.27868 21.5142C3.78215 21.5142 3.46618 21.8301 3.46618 22.3718C3.42104 22.9135 3.73701 23.2294 4.27868 23.2294Z" fill="#003C71"/>
<path d="M4.82053 25.8475L3.69206 25.8024C3.33095 25.9829 3.15039 26.1183 3.15039 26.344C3.15039 26.66 3.5115 26.9308 4.14345 26.9308C5.00109 26.9308 5.49761 26.66 5.49761 26.2989C5.54275 25.9829 5.31706 25.8926 4.82053 25.8475Z" fill="#003C71"/>
<path d="M6.89692 20.5663C6.7615 20.8371 6.49067 21.0177 6.1747 21.0177C5.72331 21.0177 5.3622 20.6566 5.3622 20.2052C5.3622 20.1149 5.3622 20.0246 5.40734 19.9344C5.09136 19.8441 4.73025 19.799 4.36914 19.799C1.93164 19.799 -0.0996094 21.8302 -0.0996094 24.3128C-0.0996094 26.7955 1.8865 28.8267 4.36914 28.8267C6.85178 28.8267 8.83789 26.7955 8.83789 24.3128C8.79275 22.733 8.07053 21.3788 6.89692 20.5663ZM4.18859 27.7885C2.74414 27.7885 1.97678 27.3371 1.97678 26.4795C1.97678 25.983 2.24761 25.7121 2.87956 25.5316C2.42817 25.3059 2.20247 25.0802 2.20247 24.7191C2.20247 24.358 2.47331 23.9969 2.96984 23.726C2.47331 23.4552 2.24761 22.9587 2.24761 22.3719C2.24761 21.2885 3.01497 20.5663 4.23372 20.5663C4.73025 20.5663 5.18164 20.7017 5.54275 21.0628C5.76845 21.2885 5.99414 21.5594 6.08442 21.8753C6.1747 22.101 6.1747 22.2816 6.1747 22.5073C6.1747 23.5003 5.45247 24.1774 4.23372 24.1774C4.00803 24.1774 3.82747 24.1774 3.69206 24.1323C3.46636 24.2226 3.37609 24.358 3.37609 24.4934C3.37609 24.8545 3.87261 24.8094 4.73025 24.8996C6.08442 24.9899 6.62608 25.2608 6.62608 26.2538C6.62608 27.2017 5.81359 27.7885 4.18859 27.7885Z" fill="#003C71"/>
<path fill-rule="evenodd" clip-rule="evenodd" d="M17.2339 26.1183H16.1506V19.8891H17.2339V26.1183ZM15.6089 21.3336C15.6089 21.6496 15.3381 21.8752 15.0673 21.8752C14.7964 21.8752 14.5256 21.6044 14.5256 21.3336C14.5256 21.0176 14.7964 20.7919 15.0673 20.7919C15.3381 20.7919 15.6089 21.0176 15.6089 21.3336ZM13.5777 23.8162C14.0291 23.8162 14.2999 23.5454 14.2999 23.094C14.2999 22.6426 13.9839 22.3718 13.5326 22.3718C13.1263 22.3718 12.8103 22.6426 12.8103 23.1391C12.8103 23.5454 13.1263 23.8162 13.5777 23.8162ZM12.6298 26.4794C12.6298 26.7502 12.9457 26.9759 13.4874 26.9759C14.2548 26.9759 14.661 26.7502 14.661 26.4343C14.661 26.2086 14.4805 26.0732 14.0742 26.0732L13.0812 26.028C12.7652 26.1634 12.6298 26.2989 12.6298 26.4794ZM11.7721 25.1252C11.7721 24.8093 11.9978 24.4933 12.4492 24.2676C12.043 24.0419 11.8173 23.6357 11.8173 23.094C11.8173 22.1912 12.4944 21.5593 13.5326 21.5593C13.9388 21.5593 14.3902 21.6947 14.7062 21.9655C14.9319 22.1461 15.0673 22.3718 15.1576 22.6426C15.2027 22.8232 15.2478 23.0037 15.2478 23.1843C15.2478 24.0419 14.6159 24.6287 13.5777 24.6287C13.3971 24.6287 13.2166 24.6287 13.0812 24.5836C12.9006 24.6739 12.8103 24.7641 12.8103 24.8995C12.8103 25.1704 13.1263 25.1704 13.668 25.2155C13.7582 25.2155 13.8937 25.2155 13.9839 25.2155C15.1576 25.3058 15.6541 25.5315 15.6541 26.3891C15.6541 27.2468 14.9319 27.7884 13.5326 27.7884C12.2687 27.7884 11.6367 27.3822 11.6367 26.66C11.6367 26.2537 11.9076 26.028 12.4041 25.8475C11.9527 25.6218 11.7721 25.4412 11.7721 25.1252ZM19.7617 25.3058C20.3485 25.3058 20.6194 24.8544 20.6194 23.8614C20.6194 22.9134 20.3485 22.4621 19.7617 22.4621C19.1749 22.4621 18.9041 22.9134 18.9041 23.8614C18.9041 24.8544 19.1749 25.3058 19.7617 25.3058ZM19.7617 21.5593C20.9805 21.5593 21.7027 22.4169 21.7027 23.9065C21.7027 25.3961 20.9805 26.2537 19.7617 26.2537C18.543 26.2537 17.8207 25.3961 17.8207 23.9065C17.8207 22.4169 18.543 21.5593 19.7617 21.5593ZM25.0881 23.9065C25.0881 24.8544 24.727 25.3509 24.1402 25.3509C23.8694 25.3509 23.5985 25.2155 23.3277 24.9447V22.8232C23.5985 22.5523 23.8242 22.4621 24.1402 22.4621C24.727 22.4169 25.0881 22.9586 25.0881 23.9065ZM22.2895 19.8891V25.0801C22.2895 25.3058 22.2895 25.6669 22.2444 26.1183H23.0569L23.1471 25.6218C23.5082 26.028 23.8694 26.2086 24.3659 26.2086C25.4041 26.2086 26.1263 25.2607 26.1263 23.8614C26.1263 22.4169 25.3589 21.5141 24.411 21.5141C23.9596 21.5141 23.6437 21.6496 23.3277 22.0107V19.844H22.2895V19.8891ZM27.5256 24.8995C27.5256 25.2155 27.7062 25.3961 28.0221 25.3961C28.3381 25.3961 28.6992 25.2607 29.0152 24.9447V23.9968C27.977 24.087 27.5256 24.3579 27.5256 24.8995ZM29.0152 25.7572C28.6089 26.0732 28.1576 26.2086 27.661 26.2086C26.8937 26.2086 26.4423 25.7572 26.4423 24.9898C26.4423 23.9968 27.2999 23.4551 29.0152 23.2294V22.8683C29.0152 22.5523 28.7895 22.3718 28.3832 22.3718C27.977 22.3718 27.6159 22.5523 27.3902 22.8683L26.668 22.4169C27.0291 21.8301 27.6159 21.5593 28.3832 21.5593C29.4214 21.5593 30.0534 22.0558 30.0534 22.8683V25.4864C30.0534 25.6218 30.0985 25.8475 30.1437 26.0732H29.1055L29.0152 25.7572ZM32.0395 26.1183H30.9562V19.8891H32.0395V26.1183ZM33.5742 24.9447C34.0256 25.5315 34.4319 25.8023 34.9284 25.8023C35.6506 25.8023 36.102 25.1252 36.102 23.9065C36.102 22.6877 35.6506 22.0107 34.9284 22.0107C34.4319 22.0107 34.0256 22.2815 33.5742 22.8683V24.9447ZM33.0326 21.6495H33.4388L33.5742 22.2364H33.6194C34.0256 21.785 34.477 21.5593 34.9735 21.5593C35.9666 21.5593 36.6437 22.4169 36.6437 23.8614C36.6437 25.3509 35.9666 26.1634 34.9735 26.1634C34.477 26.1634 34.0256 25.9377 33.6194 25.4864H33.5742V27.6982H33.0326V21.6495ZM37.5013 24.9898C37.5013 24.2225 38.1784 23.9516 39.7131 23.5905V24.9898C39.1714 25.5315 38.7201 25.8023 38.2687 25.8023C37.8173 25.8023 37.5013 25.4864 37.5013 24.9898ZM38.2235 26.2086C38.7652 26.2086 39.2617 25.9829 39.7582 25.5315C39.7582 25.7121 39.8034 25.9377 39.8485 26.1183H40.3902C40.3451 25.8475 40.2999 25.6218 40.2999 25.5315V22.7329C40.2999 22.0558 39.7131 21.5593 38.8555 21.5593C38.0881 21.5593 37.5916 21.8752 37.2305 22.4621L37.6367 22.6877C37.9076 22.1912 38.2687 21.9655 38.7652 21.9655C39.3971 21.9655 39.7582 22.2815 39.7582 22.6877V23.1391C37.8624 23.4551 37.0048 23.9516 37.0048 24.9898C37.0048 25.7121 37.4562 26.2086 38.2235 26.2086ZM40.7513 21.6495H41.293L42.602 25.4412L43.911 21.6495H44.4076L42.6923 26.4794C42.3763 27.3822 42.0152 27.7433 41.2478 27.7433C41.1124 27.7433 40.977 27.7433 40.7964 27.6982V27.2919C40.9319 27.337 41.0673 27.3371 41.1576 27.3371C41.7895 27.3371 42.1055 26.9759 42.286 26.1183L40.7513 21.6495ZM45.4457 21.6495H44.9492V26.1183H45.4457V22.8683C45.8971 22.3266 46.3485 22.0558 46.7548 22.0558C47.3867 22.0558 47.5221 22.4169 47.5221 23.2294V26.1634H48.0187V22.9134C48.4701 22.3718 48.9214 22.1009 49.3277 22.1009C49.9596 22.1009 50.0951 22.4621 50.0951 23.2746V26.2086H50.5916V23.094C50.5916 22.1461 50.2305 21.6495 49.4631 21.6495C48.9666 21.6495 48.5152 21.9204 48.0187 22.4169H47.9735C47.7478 21.9204 47.3867 21.6495 46.8902 21.6495C46.4388 21.6495 45.8971 21.9204 45.4457 22.4169H45.4006V21.6495H45.4457ZM53.1645 22.0107C52.4423 22.0107 51.9457 22.5523 51.8555 23.5002H54.3381C54.3381 22.5072 53.8867 22.0107 53.1645 22.0107ZM54.8798 25.035C54.4735 25.8475 53.977 26.2086 53.1645 26.2086C52.036 26.2086 51.3138 25.3058 51.3138 23.9065C51.3138 22.4169 52.036 21.5593 53.1194 21.5593C54.2027 21.5593 54.7895 22.3266 54.7895 23.7259V23.8614H51.8103C51.8103 25.1252 52.3069 25.7572 53.1645 25.7572C53.7513 25.7572 54.1124 25.4864 54.4284 24.8093L54.8798 25.035ZM56.0985 21.6495H55.5569V26.1183H56.0985V22.8683C56.5951 22.3266 57.0464 22.0558 57.4978 22.0558C58.1749 22.0558 58.3555 22.4169 58.3555 23.2294V26.1634H58.8971V23.0489C58.8971 22.1009 58.4909 21.6044 57.6784 21.6044C57.1819 21.6044 56.6402 21.8752 56.0985 22.3718V21.6495ZM61.0638 25.8023C61.1992 25.8023 61.3346 25.7572 61.5152 25.712V26.1183C61.3346 26.1634 61.1089 26.2086 60.9284 26.2086C60.2964 26.2086 60.0256 25.8926 60.0256 25.2607V22.1009H59.3485V21.6495H60.0256V20.3405H60.5673V21.6495H61.5152V22.1009H60.5673V25.3058C60.5673 25.6218 60.7027 25.8023 61.0638 25.8023ZM64.3589 24.9898C64.3589 25.4412 63.9978 25.8023 63.411 25.8023C62.8694 25.8023 62.418 25.5315 62.0569 25.035L61.6506 25.3509C62.102 25.9377 62.6437 26.2537 63.3659 26.2537C64.3138 26.2537 64.9006 25.7121 64.9006 24.9898C64.9006 24.2676 64.4492 23.9968 63.5464 23.6808C63.4562 23.6357 63.411 23.6357 63.3207 23.5905C62.6888 23.3648 62.3277 23.2294 62.3277 22.778C62.3277 22.3266 62.6437 22.0558 63.1402 22.0558C63.6367 22.0558 63.9978 22.2815 64.3589 22.7329L64.7201 22.4621C64.3138 21.9204 63.8173 21.6495 63.2305 21.6495C62.3277 21.6495 61.786 22.1461 61.786 22.8232C61.786 23.5002 62.2374 23.7711 63.1853 24.0871C63.2305 24.0871 63.2756 24.1322 63.3207 24.1322C63.9978 24.3127 64.3589 24.4482 64.3589 24.9898Z" fill="#003C71"/>
<path d="M21.792 5.48961C21.4761 4.18058 20.5282 3.59378 19.3997 3.59378C18.3164 3.59378 17.4136 4.22572 17.0525 5.48961H21.792ZM17.0073 6.21183C17.0525 7.65628 18.0455 8.73961 19.3997 8.73961C20.7539 8.73961 21.3407 7.97225 21.8372 7.20489L22.5143 7.566C21.8823 8.82989 20.8893 9.46183 19.49 9.46183C17.3684 9.46183 16.1948 7.83683 16.1948 6.16669C16.1948 4.49655 17.4587 2.82642 19.4448 2.82642C21.2504 2.82642 22.6948 4.13544 22.74 6.21183H17.0073Z" fill="#0140BE"/>
<path d="M35.3787 5.48961C35.0627 4.18058 34.1148 3.59378 32.9863 3.59378C31.903 3.59378 31.0002 4.22572 30.6391 5.48961H35.3787ZM30.5488 6.21183C30.594 7.65628 31.587 8.73961 32.9412 8.73961C34.2954 8.73961 34.8822 7.97225 35.3787 7.20489L36.0558 7.566C35.4238 8.82989 34.4308 9.46183 33.0315 9.46183C30.9099 9.46183 29.7363 7.83683 29.7363 6.16669C29.7363 4.49655 31.0002 2.82642 32.9863 2.82642C34.7919 2.82642 36.2363 4.13544 36.2815 6.21183H30.5488Z" fill="#0140BE"/>
<path d="M41.5181 2.96191H42.3757L44.4972 7.56608L46.6188 2.96191H47.4764L44.5875 9.3265H44.4521L41.5181 2.96191Z" fill="#0140BE"/>
<path d="M49.4624 2.96191H48.6499V9.3265H49.4624V2.96191Z" fill="#0140BE"/>
<path d="M57.3616 8.01748C56.7297 8.9654 55.6463 9.46193 54.3824 9.46193C52.306 9.46193 50.9067 7.97234 50.9067 6.16679C50.9067 4.31609 52.3512 2.78137 54.4727 2.78137C55.6915 2.78137 56.8199 3.2779 57.4067 4.27096L56.7297 4.67721C56.188 3.95498 55.3755 3.59387 54.4276 3.59387C52.8026 3.59387 51.7644 4.76748 51.7644 6.12165C51.7644 7.47582 52.8026 8.69457 54.4727 8.69457C55.3755 8.69457 56.1428 8.33346 56.7748 7.56609L57.3616 8.01748Z" fill="#0140BE"/>
<path d="M63.9969 5.48973C63.6809 4.1807 62.733 3.5939 61.6045 3.5939C60.5212 3.5939 59.6184 4.22584 59.2573 5.48973H63.9969ZM59.167 6.21195C59.2121 7.6564 60.2052 8.73973 61.5594 8.73973C62.9135 8.73973 63.5003 7.97237 63.9969 7.20501L64.6739 7.56612C64.042 8.83001 63.0489 9.46196 61.6496 9.46196C59.5281 9.46196 58.3545 7.83696 58.3545 6.16682C58.3545 4.49668 59.6184 2.82654 61.6045 2.82654C63.41 2.82654 64.8545 4.13557 64.8996 6.21195H59.167Z" fill="#0140BE"/>
<path d="M24.3195 7.97237C24.8612 8.42376 25.4931 8.73973 26.1251 8.73973C27.1181 8.73973 27.7952 8.28834 27.7952 7.6564C27.7952 7.20501 27.3889 6.93418 26.9376 6.75362C25.0869 5.94112 24.1389 5.62515 24.1389 4.49668C24.1389 3.45848 25.0417 2.82654 26.3507 2.82654C27.2987 2.82654 27.9306 3.14251 28.5626 3.68418L28.0209 4.22584C27.5244 3.86473 26.9827 3.63904 26.2605 3.5939C25.4931 3.5939 24.8612 3.95501 24.8612 4.45154C24.8612 4.85779 25.132 5.08348 25.6285 5.30918C27.4792 6.16682 28.5174 6.48279 28.5174 7.61126C28.5174 8.60432 27.6598 9.46196 26.1251 9.50709C25.2223 9.50709 24.3646 9.19112 23.7778 8.60432L24.3195 7.97237Z" fill="#0140BE"/>
<path d="M38.4482 3.86471C38.9448 3.18762 39.4864 2.78137 40.1184 2.78137C40.4795 2.78137 40.7052 2.91679 40.8406 3.00707L40.4344 3.68415C40.3441 3.63901 40.1635 3.59387 39.983 3.59387C39.4413 3.59387 38.8094 4.13554 38.5837 4.99318C38.4934 5.39943 38.4482 6.07651 38.4482 6.93415V9.32651H37.6357V2.96193H38.4482V3.86471Z" fill="#0140BE"/>
<path d="M5.9935 0.16333C2.9692 0.16333 0.44142 2.37514 -0.00996904 5.30916C0.937948 5.89597 2.06642 6.30222 3.28517 6.30222C4.14281 6.30222 4.86503 6.1668 5.76781 5.76055C6.89628 5.26402 7.79906 5.08347 8.79211 5.03833C8.29559 4.00014 7.25739 3.23277 6.03864 3.23277C4.5942 3.23277 3.37545 4.22583 3.05948 5.58C2.60809 5.58 2.20184 5.48972 1.79559 5.3543C2.20184 3.41333 3.96225 1.92375 5.9935 1.92375C8.38586 1.92375 10.2817 3.81958 10.3268 6.21194C10.1011 6.21194 9.87545 6.21194 9.64975 6.1668C9.4692 6.1668 9.2435 6.1668 9.06295 6.1668C8.06989 6.21194 7.07684 6.43764 5.90322 6.9793C5.00045 7.38555 3.87198 7.52097 3.24003 7.52097C3.73656 8.55916 4.81989 9.28139 6.08378 9.28139C7.34767 9.28139 8.38586 8.55916 8.88239 7.52097L10.056 8.0175C9.37892 9.50708 7.8442 10.5453 6.08378 10.5453C4.09767 10.5453 2.38239 9.19111 1.88586 7.38555C1.16364 7.06958 0.531698 6.66333 -0.00996904 6.12166C-0.00996904 6.12166 -0.00996904 6.12166 -0.0551079 6.07652C-0.0551079 6.12166 -0.0551079 6.1668 -0.0551079 6.21194C-0.100247 9.6425 2.60809 12.3508 5.9935 12.3508C9.37892 12.3508 12.0873 9.6425 12.0873 6.25708C12.0873 2.87166 9.37892 0.16333 5.9935 0.16333Z" fill="#0140BE"/>
<path d="M64.9004 15.5107H-0.0996094" stroke="#383838" stroke-width="0.451389" stroke-miterlimit="10"/>
</g>
<defs>
<clipPath id="clip0_153_116167">
<rect width="65" height="28.66" fill="white"/>
</clipPath>
</defs>
</svg>
