<svg width="66" height="29" viewBox="0 0 66 29" fill="none" xmlns="http://www.w3.org/2000/svg">
<g clip-path="url(#clip0_152_88328)">
<g clip-path="url(#clip1_152_88328)">
<path d="M7.31136 20.4478C6.95025 20.4478 6.63428 20.1318 6.63428 19.7707C6.63428 19.4096 6.95025 19.0936 7.31136 19.0936C7.67247 19.0936 7.98844 19.4096 7.98844 19.7707C7.98844 20.1318 7.67247 20.4478 7.31136 20.4478Z" fill="#173E76"/>
<path d="M12.9093 24.736C12.9545 24.3297 13.2253 24.0138 13.5864 23.8784C13.1802 23.6527 12.9545 23.2013 12.9545 22.7047C12.9545 21.802 13.6316 21.1249 14.6698 21.1249C15.076 21.1249 15.4823 21.2603 15.8434 21.5311C16.0691 21.7117 16.2496 21.9374 16.3399 22.2082C16.385 22.3888 16.4302 22.5693 16.385 22.7499C16.385 23.6075 15.7531 24.1943 14.7149 24.1943C14.5343 24.1943 14.3989 24.1943 14.2184 24.1492C14.0378 24.2395 13.9475 24.3297 13.9475 24.4652C13.9475 24.7811 14.3538 24.736 15.1211 24.7811C16.2948 24.8714 16.7461 25.0971 16.7461 25.9547C16.7461 26.8124 16.0239 27.354 14.6698 27.354C13.4059 27.354 12.7739 26.9478 12.7739 26.2256C12.7739 25.8193 12.9996 25.5936 13.5413 25.4131C13.0899 25.2325 12.9093 25.0068 12.9093 24.736ZM13.7218 26.1353C13.7218 26.4061 14.0378 26.6318 14.5795 26.6318C15.3017 26.6318 15.7531 26.4061 15.7531 26.0902C15.7531 25.8645 15.5725 25.729 15.1663 25.729L14.1732 25.6388C13.8573 25.7742 13.7218 25.9096 13.7218 26.1353ZM14.6698 23.427C15.076 23.427 15.392 23.1561 15.392 22.7499V22.7047C15.392 22.2985 15.1211 21.9825 14.7149 21.9825C14.6698 21.9825 14.6698 21.9825 14.6246 21.9825C14.2184 21.9825 13.9475 22.2985 13.9024 22.6596V22.7047C13.9024 23.0659 14.1732 23.3818 14.5343 23.3818C14.6246 23.427 14.6246 23.427 14.6698 23.427Z" fill="#173E76"/>
<path d="M16.1589 20.3575C16.4748 20.3575 16.7005 20.6284 16.7005 20.8992C16.7005 21.2152 16.4297 21.4409 16.1589 21.4409C15.8429 21.4409 15.6172 21.17 15.6172 20.8992C15.6172 20.5832 15.888 20.3575 16.1589 20.3575Z" fill="#173E76"/>
<path d="M18.3709 19.4999H17.2876V25.729H18.3709V19.4999Z" fill="#173E76"/>
<path d="M20.8536 21.17C22.0723 21.17 22.7945 22.0277 22.7945 23.5173C22.7945 25.0068 22.0723 25.8645 20.8536 25.8645C19.68 25.8645 18.9126 25.0068 18.9126 23.5173C18.9126 22.0277 19.6348 21.17 20.8536 21.17ZM20.8536 24.9166C21.4404 24.9166 21.7112 24.4652 21.7112 23.4721C21.7112 22.5242 21.4404 22.0728 20.8536 22.0728C20.2668 22.0728 19.9959 22.5242 19.9959 23.4721C19.9959 24.4652 20.2668 24.9166 20.8536 24.9166Z" fill="#173E76"/>
<path d="M23.3806 24.6909V19.4999H24.4188V21.6665C24.6896 21.3506 25.0959 21.1249 25.5021 21.17C26.4952 21.17 27.2174 22.0728 27.2174 23.5172C27.2174 24.9165 26.4952 25.8645 25.457 25.8645C25.0056 25.8645 24.5542 25.6388 24.2382 25.2777L24.1479 25.729H23.3354C23.3354 25.2325 23.3806 24.9165 23.3806 24.6909ZM25.1861 24.9165C25.7729 24.9165 26.1341 24.42 26.1341 23.4721C26.1341 22.5242 25.7729 22.0277 25.1861 22.0277C24.8702 22.0277 24.5993 22.2082 24.3736 22.4339V24.5554C24.5993 24.7811 24.9153 24.9165 25.1861 24.9165Z" fill="#173E76"/>
<path d="M30.0617 25.3228C29.6554 25.5936 29.204 25.7742 28.7075 25.7742C28.1207 25.8193 27.579 25.3679 27.4888 24.7811C27.4888 24.6908 27.4888 24.6457 27.4888 24.5554C27.4888 23.5624 28.3013 23.0207 30.0165 22.795V22.4339C30.0165 22.1179 29.7909 21.9374 29.3846 21.9374C28.9784 21.9374 28.6172 22.1179 28.3915 22.4339L27.6693 21.9825C28.0304 21.3957 28.7075 21.0797 29.3846 21.1249C30.4228 21.1249 31.0547 21.6214 31.0547 22.4339V25.0971C31.0547 25.3228 31.0999 25.5033 31.145 25.729H30.152L30.0617 25.3228ZM28.5721 24.5103C28.527 24.736 28.7075 24.9617 28.9784 25.0068C29.0235 25.0068 29.0235 25.0068 29.0686 25.0068C29.4297 25.0068 29.7909 24.8262 30.0617 24.5103V23.5172C29.0686 23.6978 28.5721 23.9686 28.5721 24.5103Z" fill="#173E76"/>
<path d="M33.0411 19.4999H32.0029V25.729H33.0411V19.4999Z" fill="#173E76"/>
<path d="M34.124 21.2603H34.5303L34.6657 21.8471H34.7108C35.0268 21.4409 35.5233 21.2152 36.065 21.17C37.0581 21.17 37.7351 22.0277 37.7351 23.5173C37.7351 25.0068 37.0581 25.8645 36.065 25.8645C35.5233 25.8645 35.0719 25.5937 34.7108 25.1874H34.6657V27.3992H34.124V21.2603ZM34.6206 24.5555C35.0719 25.1423 35.4782 25.4131 35.9747 25.4131C36.6969 25.4131 37.1483 24.736 37.1483 23.5173C37.1483 22.2985 36.6969 21.6214 35.9747 21.6214C35.4782 21.6214 35.0719 21.8923 34.6206 22.4791V24.5555Z" fill="#173E76"/>
<path d="M40.7593 25.1422C40.3531 25.5485 39.8114 25.8193 39.2246 25.8193C38.5927 25.8645 38.051 25.3679 38.0059 24.736C38.0059 24.6909 38.0059 24.6457 38.0059 24.6006C38.0059 23.5624 38.8635 23.111 40.7593 22.7499V22.2985C40.7593 21.8471 40.3982 21.5763 39.7663 21.5763C39.2697 21.5763 38.8635 21.8471 38.6378 22.2985L38.2316 22.0277C38.5475 21.4409 39.1795 21.0797 39.8114 21.1249C40.6691 21.1249 41.2559 21.6214 41.2559 22.2985V25.0971C41.2559 25.2777 41.301 25.5034 41.3461 25.6839H40.8045C40.8045 25.5485 40.7593 25.3228 40.7593 25.1422ZM40.7593 23.2013C39.2698 23.5624 38.5475 23.8332 38.5475 24.6006C38.5024 24.9617 38.7732 25.3228 39.1343 25.4131C39.1795 25.4131 39.2246 25.4131 39.2697 25.4131C39.7663 25.4131 40.2177 25.1422 40.7142 24.6006V23.2013H40.7593Z" fill="#173E76"/>
<path d="M41.7524 21.2603H42.2941L43.6031 25.0971L44.9122 21.2603H45.4087L43.6934 26.0901C43.3774 26.9929 43.0163 27.354 42.249 27.354C42.1136 27.354 41.933 27.354 41.7976 27.3089V26.8575C41.933 26.9026 42.0684 26.9026 42.1587 26.9026C42.7906 26.9026 43.1066 26.5415 43.2872 25.6839L41.7524 21.2603Z" fill="#173E76"/>
<path d="M45.9956 21.2603H46.4921V21.9374H46.5373C46.8984 21.486 47.3949 21.2152 47.9817 21.17C48.4782 21.17 48.9296 21.486 49.065 21.9374H49.1102C49.4713 21.486 49.9678 21.2152 50.5546 21.17C51.322 21.17 51.6831 21.6666 51.6831 22.6145V25.7742H51.1866V22.8402C51.1866 22.0728 51.0512 21.6666 50.4192 21.6666C50.013 21.6666 49.5616 21.9374 49.1102 22.4791V25.7291H48.6137V22.795C48.6137 22.0277 48.4782 21.6214 47.8463 21.6214C47.44 21.6214 46.9887 21.8923 46.5373 22.4339V25.7291H46.0407V21.2603H45.9956Z" fill="#173E76"/>
<path d="M55.8363 24.6457C55.43 25.4582 54.9335 25.8193 54.1661 25.8193C53.0377 25.8193 52.3154 24.9166 52.3154 23.5173C52.3154 22.0277 53.0377 21.17 54.121 21.17C55.2043 21.17 55.7911 21.9374 55.7911 23.3367V23.4721H52.812C52.812 24.736 53.3085 25.368 54.121 25.368C54.7078 25.368 55.0689 25.0971 55.3849 24.42L55.8363 24.6457ZM54.1661 21.5763C53.489 21.5763 52.9474 22.118 52.8571 23.0659H55.3397C55.2946 22.118 54.8432 21.5763 54.1661 21.5763Z" fill="#173E76"/>
<path d="M56.5129 21.2603H57.0546V21.9374C57.4608 21.486 58.0025 21.2152 58.5893 21.17C59.4018 21.17 59.8081 21.6666 59.8081 22.6145V25.7742H59.2664V22.8402C59.2664 22.0728 59.131 21.6666 58.4087 21.6666C57.9574 21.6666 57.506 21.9374 57.0094 22.4791V25.7291H56.4678V21.2603H56.5129Z" fill="#173E76"/>
<path d="M62.02 25.4131C62.2005 25.4131 62.3359 25.368 62.4713 25.3228V25.7742C62.2908 25.8194 62.0651 25.8645 61.8845 25.8645C61.2526 25.8645 60.9818 25.5485 60.9818 24.9166V21.7569H60.3047V21.3055H60.9818V19.9965H61.5234V21.3055H62.4713V21.7569H61.5234V24.9617C61.5234 25.2326 61.6588 25.4131 62.02 25.4131Z" fill="#173E76"/>
<path d="M64.3671 25.3679C64.8185 25.4131 65.2247 25.0971 65.2699 24.6006C65.2699 24.5554 65.2699 24.5554 65.2699 24.5103C65.2699 23.9686 64.8636 23.8332 64.0962 23.5624C63.1935 23.2013 62.6969 22.9756 62.6969 22.2985C62.6969 21.6214 63.2386 21.1249 64.1414 21.1249C64.7282 21.1249 65.315 21.4408 65.631 21.9374L65.2699 22.2082C64.999 21.802 64.5476 21.5311 64.0511 21.5311C63.6449 21.486 63.2837 21.802 63.2386 22.2082C63.2386 22.2534 63.2386 22.2534 63.2386 22.2985C63.2386 22.795 63.69 22.8853 64.4122 23.1561C65.315 23.5172 65.7664 23.7429 65.7664 24.4652C65.7664 25.1874 65.1796 25.7742 64.2317 25.7742C63.5546 25.7742 62.9226 25.4582 62.5615 24.8714L62.9678 24.5554C63.2837 25.0971 63.8254 25.3679 64.3671 25.3679Z" fill="#173E76"/>
<path d="M5.506 21.0347C5.55113 21.0347 5.59627 21.0347 5.59627 21.0347C6.04766 21.0798 6.40877 21.4409 6.36364 21.8923V21.9374C6.36364 22.3888 5.95738 22.7499 5.506 22.7048C5.46086 22.7048 5.41572 22.7048 5.37058 22.7048C4.96433 22.6597 4.60322 22.2986 4.64836 21.8923V21.8472C4.6935 21.3958 5.05461 21.0347 5.506 21.0347Z" fill="#173E76"/>
<path d="M6.09299 25.4132L4.96452 25.3229C4.60341 25.5034 4.42285 25.6388 4.42285 25.8645C4.42285 26.2257 4.78396 26.4513 5.46105 26.4513C6.31869 26.4513 6.81521 26.1805 6.81521 25.7743C6.81521 25.5486 6.58952 25.4132 6.09299 25.4132Z" fill="#173E76"/>
<path d="M7.98866 20.0415C7.89838 20.3124 7.58241 20.5381 7.26644 20.5381C6.86019 20.5381 6.49908 20.1769 6.49908 19.7707C6.49908 19.6353 6.54422 19.545 6.58936 19.4096C6.22824 19.3193 5.82199 19.2742 5.41574 19.2742C2.93311 19.2742 0.901855 21.3054 0.901855 23.8332C0.901855 26.361 2.93311 28.3922 5.46088 28.3922C7.98866 28.3922 10.0199 26.361 10.0199 23.8332C10.0199 22.2533 9.20741 20.854 7.98866 20.0415ZM5.46088 27.354C3.9713 27.354 3.20394 26.9026 3.20394 26.045C3.20394 25.5485 3.47477 25.2776 4.10672 25.0971C3.61019 24.8714 3.38449 24.6457 3.38449 24.2846C3.42963 23.8332 3.74561 23.4269 4.15186 23.2915C3.65533 23.0207 3.38449 22.479 3.42963 21.8922C3.42963 20.8089 4.24213 20.0415 5.41574 20.0415C5.91227 20.0415 6.4088 20.2221 6.76991 20.5381C7.04074 20.7638 7.2213 21.0346 7.35672 21.3506C7.40186 21.5763 7.44699 21.7568 7.44699 21.9825C7.44699 23.0207 6.72477 23.6526 5.46088 23.6526C5.28033 23.6526 5.09977 23.6526 4.87408 23.6075C4.64838 23.6978 4.51297 23.8332 4.51297 23.9686C4.51297 24.3297 5.00949 24.2846 5.91227 24.3749C7.26644 24.4651 7.85324 24.736 7.85324 25.729C7.94352 26.7221 7.08588 27.354 5.46088 27.354Z" fill="#173E76"/>
<path d="M5.41518 22.7048C5.46032 22.7048 5.50546 22.7048 5.5506 22.7048C6.00199 22.7048 6.40824 22.3888 6.40824 21.9374V21.8923C6.45337 21.4409 6.09226 21.0347 5.64087 21.0347C5.59574 21.0347 5.5506 21.0347 5.5506 21.0347C5.09921 21.0347 4.7381 21.3958 4.7381 21.8472V21.8923C4.64782 22.3437 4.96379 22.7048 5.41518 22.7048Z" fill="#173E76"/>
<path d="M65.9019 14.5797H0.901855V15.0311H65.9019V14.5797Z" fill="#414042"/>
<path d="M0.991699 8.84717V0.722168H2.57156L6.00212 5.82286V0.722168H7.71739V8.84717H6.13753L2.70698 3.70133V8.84717H0.991699Z" fill="#173E76"/>
<path d="M9.3425 0.722168H12.1863C14.1724 0.722168 15.5265 1.48953 15.5265 2.88883C15.5265 3.92703 14.8043 4.4687 13.8564 4.69439C14.9397 4.82981 15.7522 5.41661 15.7522 6.54508C15.7522 7.94439 14.5786 8.84717 12.3217 8.84717H9.29736V0.722168H9.3425ZM11.1029 2.07633V4.06245H12.096C13.1342 4.06245 13.8113 3.70133 13.8113 3.06939C13.8113 2.48258 13.1793 2.07633 12.096 2.07633H11.1029ZM11.1029 5.41661V7.493H12.1411C13.2244 7.493 13.9918 7.13189 13.9918 6.49995C13.9918 5.868 13.3147 5.46175 12.1411 5.46175H11.1029V5.41661Z" fill="#173E76"/>
<path d="M16.7451 4.78461C16.7451 2.30198 18.2798 0.631836 20.7625 0.631836C22.7035 0.631836 24.1028 1.85059 24.3285 3.611H22.568C22.3423 2.70822 21.7104 2.12142 20.7173 2.12142C19.3632 2.12142 18.5055 3.20475 18.5055 4.78461C18.5055 6.36447 19.318 7.44781 20.7173 7.44781C21.6653 7.44781 22.568 6.95128 22.7486 5.82281V5.73253H20.7625V4.33323H24.3736V8.84711H23.1548L22.9743 7.85406C22.5229 8.44086 21.7555 8.89225 20.6271 8.89225C18.325 8.89225 16.7451 7.26725 16.7451 4.78461Z" fill="#173E76"/>
<path d="M44.8215 0.722168H47.5298C49.6965 0.722168 51.2764 1.8055 51.2764 3.4305C51.2764 5.0555 49.7868 6.13883 47.891 6.13883H46.5368V8.84717H44.7764V0.722168H44.8215ZM46.5819 2.16661V4.64925H47.5298C48.7486 4.64925 49.5611 4.19786 49.5611 3.38536C49.5611 2.618 48.7486 2.12147 47.5298 2.12147H46.5819V2.16661Z" fill="#173E76"/>
<path d="M51.0508 8.84717L54.0299 0.722168H56.1063L59.0404 8.84717H57.1897L56.5577 7.08675H53.4883L52.8563 8.84717H51.0508ZM53.9397 5.64231H56.1063L55.023 2.57286L53.9397 5.64231Z" fill="#173E76"/>
<path d="M58.1821 0.722168H60.2134L62.0641 4.06245L63.9599 0.722168H65.9009L62.9217 5.82286V8.84717H61.1613V5.82286L58.1821 0.722168Z" fill="#173E76"/>
<path d="M34.5753 0.722127H38.5024C37.3739 0.270738 36.0197 0.0450439 34.5753 0.0450439C33.1309 0.0450439 31.8218 0.270738 30.6934 0.722127H34.5753Z" fill="#00DEF8"/>
<path d="M30.0608 2.57288C29.2934 3.15968 28.7969 3.92704 28.7969 4.78468C28.7969 5.64232 29.2483 6.40968 30.0608 6.99649V4.78468V2.57288Z" fill="#00DEF8"/>
<path d="M34.5747 7.71863H31.3247C32.2726 8.12488 33.4011 8.35057 34.5747 8.35057C35.7935 8.35057 36.9219 8.12488 37.8247 7.71863H34.5747Z" fill="#00DEF8"/>
<path d="M28.3005 2.12146C27.488 2.88882 27.0366 3.7916 27.0366 4.78465C27.0366 5.77771 27.488 6.68049 28.3005 7.44785V4.78465V2.12146Z" fill="#00DEF8"/>
<path d="M34.5747 1.85069H37.8247C36.8768 1.44444 35.7483 1.21875 34.5747 1.21875C33.356 1.21875 32.2275 1.44444 31.3247 1.85069H34.5747Z" fill="#00DEF8"/>
<path d="M39.0889 2.57288V4.78468V6.99649C39.8562 6.40968 40.3528 5.64232 40.3528 4.78468C40.3528 3.92704 39.9014 3.15968 39.0889 2.57288Z" fill="#00DEF8"/>
<path d="M34.5745 8.84717H30.6475C31.7759 9.29856 33.1301 9.52425 34.5745 9.52425C36.019 9.52425 37.3732 9.25342 38.5016 8.84717H34.5745Z" fill="#00DEF8"/>
<path d="M37.5087 2.97915C36.7413 2.52776 35.7031 2.21179 34.5747 2.21179C33.4462 2.21179 32.408 2.48263 31.6406 2.97915C30.8733 3.43054 30.4219 4.06249 30.4219 4.78471C30.4219 5.50693 30.8733 6.13888 31.6406 6.59026C32.408 7.04165 33.4462 7.35763 34.5747 7.35763C35.7031 7.35763 36.7413 7.08679 37.5087 6.59026C38.276 6.13888 38.7274 5.50693 38.7274 4.78471C38.7274 4.06249 38.276 3.43054 37.5087 2.97915Z" fill="#00DEF8"/>
<path d="M42.1584 4.78465C42.1584 3.7916 41.707 2.88882 40.8945 2.12146V4.78465V7.44785C41.6619 6.68049 42.1584 5.77771 42.1584 4.78465Z" fill="#00DEF8"/>
</g>
</g>
<defs>
<clipPath id="clip0_152_88328">
<rect width="65" height="28.39" fill="white" transform="translate(0.901855)"/>
</clipPath>
<clipPath id="clip1_152_88328">
<rect width="65" height="28.3924" fill="white" transform="translate(0.901855)"/>
</clipPath>
</defs>
</svg>
