<svg width="206" height="14" viewBox="0 0 206 14" fill="none" xmlns="http://www.w3.org/2000/svg">
<g clip-path="url(#clip0_152_57418)">
<path d="M120.11 2.15077C120.623 2.15077 121.043 1.73026 121.043 1.21119C121.043 0.692119 120.629 0.271606 120.11 0.271606C119.591 0.271606 119.177 0.692119 119.177 1.21119C119.177 1.73026 119.591 2.15077 120.11 2.15077Z" fill="#003C71"/>
<path d="M117.35 5.66597C118.086 5.66597 118.572 5.18632 118.572 4.45042C118.572 3.71453 118.066 3.20203 117.311 3.20203C116.621 3.20203 116.135 3.69481 116.135 4.47671C116.135 5.2586 116.595 5.66597 117.357 5.66597H117.35Z" fill="#003C71"/>
<path d="M118.171 9.50949L116.516 9.42407C115.997 9.67375 115.753 9.90372 115.753 10.2191C115.753 10.7119 116.299 11.0601 117.219 11.0601C118.467 11.0601 119.17 10.6528 119.17 10.1205C119.17 9.70003 118.842 9.53577 118.165 9.50949H118.171Z" fill="#003C71"/>
<path d="M121.161 1.78934C120.957 2.16386 120.563 2.41354 120.11 2.41354C119.453 2.41354 118.914 1.87476 118.914 1.21114C118.914 1.07316 118.94 0.935178 118.986 0.810338C118.5 0.692069 117.988 0.632935 117.469 0.632935C113.888 0.632935 110.983 3.56338 110.983 7.18374C110.983 10.8041 113.888 13.7345 117.469 13.7345C121.049 13.7345 123.954 10.8041 123.954 7.18374C123.954 4.94976 122.843 2.97861 121.155 1.79592L121.161 1.78934ZM117.252 12.3416C115.143 12.3416 114.058 11.678 114.058 10.4427C114.058 9.73309 114.479 9.33886 115.366 9.04976C114.689 8.71466 114.374 8.41242 114.374 7.89335C114.374 7.37428 114.761 6.8355 115.497 6.45441C114.807 6.0339 114.446 5.35056 114.446 4.46354C114.446 2.9129 115.596 1.8222 117.304 1.8222C118.007 1.8222 118.704 2.05217 119.243 2.5121C119.597 2.82092 119.873 3.22172 120.031 3.66194C120.136 3.96418 120.169 4.28614 120.169 4.60152C120.169 6.06675 119.105 7.02604 117.35 7.02604C117.035 7.02604 116.765 6.99976 116.529 6.94063C116.2 7.07204 116.043 7.24944 116.043 7.44656C116.043 7.95249 116.733 7.91306 118.027 8.01162C119.965 8.15617 120.787 8.53726 120.787 9.98277C120.787 11.4743 119.558 12.3284 117.245 12.3284L117.252 12.3416Z" fill="#003C71"/>
<path fill-rule="evenodd" clip-rule="evenodd" d="M136.201 9.90422H134.644V0.836914H136.201V9.90422ZM133.876 2.89348C133.876 3.34028 133.508 3.70823 133.061 3.70823C132.614 3.70823 132.246 3.34685 132.246 2.89348C132.246 2.44012 132.614 2.07874 133.061 2.07874C133.508 2.07874 133.876 2.44012 133.876 2.89348ZM130.866 6.52698C131.504 6.52698 131.931 6.11961 131.931 5.48227C131.931 4.84493 131.49 4.41127 130.833 4.41127C130.235 4.41127 129.808 4.83179 129.808 5.50855C129.808 6.18531 130.209 6.52698 130.873 6.52698H130.866ZM129.48 10.4299C129.48 10.8504 129.953 11.1526 130.755 11.1526C131.845 11.1526 132.456 10.8044 132.456 10.3444C132.456 9.98307 132.167 9.84509 131.582 9.82538L130.143 9.7531C129.697 9.96336 129.48 10.1605 129.48 10.4364V10.4299ZM128.277 8.43243C128.277 7.97249 128.613 7.5257 129.25 7.20374C128.652 6.84236 128.337 6.25759 128.337 5.50198C128.337 4.16816 129.335 3.24172 130.827 3.24172C131.438 3.24172 132.042 3.43884 132.515 3.83307C132.824 4.09589 133.067 4.43756 133.199 4.81864C133.291 5.07489 133.317 5.35743 133.317 5.62682C133.317 6.88179 132.391 7.7031 130.866 7.7031C130.59 7.7031 130.354 7.67682 130.157 7.63082C129.867 7.74252 129.73 7.89364 129.73 8.06448C129.73 8.43243 130.163 8.46528 130.984 8.51784C131.129 8.52441 131.287 8.53755 131.451 8.5507C133.14 8.67554 133.849 8.99749 133.849 10.2393C133.849 11.4811 132.785 12.2565 130.774 12.2565C128.934 12.2565 128.001 11.6848 128.001 10.627C128.001 10.0159 128.363 9.68082 129.138 9.43114C128.553 9.14861 128.277 8.88579 128.277 8.439V8.43243ZM139.874 8.70839C140.715 8.70839 141.116 8.02505 141.116 6.63868C141.116 5.2523 140.715 4.58211 139.874 4.58211C139.033 4.58211 138.633 5.25887 138.633 6.63868C138.633 8.01848 139.046 8.70839 139.874 8.70839ZM139.874 3.24172C141.629 3.24172 142.687 4.49012 142.687 6.63211C142.687 8.77409 141.622 10.0225 139.874 10.0225C138.127 10.0225 137.062 8.76095 137.062 6.63211C137.062 4.50326 138.113 3.24172 139.874 3.24172ZM147.628 6.63868C147.628 7.99877 147.102 8.73467 146.235 8.73467C145.808 8.73467 145.459 8.5507 145.065 8.17618V5.06832C145.466 4.70695 145.821 4.5164 146.241 4.5164C147.082 4.5164 147.621 5.26544 147.621 6.63868H147.628ZM143.547 0.836914V8.38643C143.547 8.69525 143.521 9.20775 143.475 9.91079H144.677L144.842 9.21432C145.38 9.78595 145.919 10.0356 146.622 10.0356C148.114 10.0356 149.178 8.67554 149.178 6.64525C149.178 4.61496 148.088 3.25486 146.668 3.25486C146.005 3.25486 145.525 3.47826 145.078 4.0039V0.836914H143.547ZM151.176 8.11047C151.176 8.54413 151.425 8.80695 151.879 8.80695C152.365 8.80695 152.845 8.58355 153.324 8.12361V6.72409C151.872 6.92121 151.182 7.33515 151.182 8.11047H151.176ZM153.357 9.33259C152.753 9.76624 152.102 9.98307 151.399 9.98307C150.295 9.98307 149.645 9.31945 149.645 8.23531C149.645 6.77666 150.86 6.00134 153.37 5.69252V5.18002C153.37 4.70695 153.042 4.43098 152.444 4.43098C151.846 4.43098 151.353 4.6938 151.005 5.18002L149.954 4.5164C150.505 3.6688 151.346 3.24172 152.477 3.24172C154.021 3.24172 154.881 3.97762 154.881 5.17345V9.0172C154.881 9.2406 154.921 9.54284 154.98 9.90422H153.502L153.364 9.33259H153.357ZM157.746 9.90422H156.189V0.836914H157.746V9.90422ZM160 8.15647C160.65 8.97778 161.242 9.39172 161.971 9.39172C163.049 9.39172 163.686 8.43243 163.686 6.64525C163.686 4.85807 163.049 3.89877 161.971 3.89877C161.242 3.89877 160.657 4.29957 160 5.12089V8.14989V8.15647ZM159.218 3.3797H159.796L160 4.2273H160.066C160.683 3.57682 161.334 3.25486 162.037 3.25486C163.469 3.25486 164.468 4.49012 164.468 6.63868C164.468 8.78723 163.463 10.0159 162.037 10.0159C161.334 10.0159 160.683 9.70711 160.066 9.05663H160V12.2762H159.225V3.3797H159.218ZM165.742 8.24845C165.742 7.13804 166.761 6.72409 168.969 6.23788V8.24845C168.206 9.02377 167.549 9.41143 166.84 9.41143C166.163 9.41143 165.749 8.97778 165.749 8.24845H165.742ZM166.735 10.0291C167.536 10.0291 168.252 9.70711 168.969 9.04348C168.982 9.31945 169.034 9.60198 169.093 9.90422H169.856C169.783 9.49028 169.744 9.19461 169.744 9.03034V4.97634C169.744 4.0039 168.877 3.268 167.635 3.268C166.505 3.268 165.815 3.70166 165.302 4.60182L165.907 4.95006C166.294 4.25358 166.82 3.89877 167.536 3.89877C168.436 3.89877 168.982 4.33243 168.982 4.96977V5.60711C166.235 6.09332 164.967 6.77009 164.967 8.27473C164.967 9.28659 165.657 10.0225 166.735 10.0225V10.0291ZM170.434 3.3797H171.209L173.141 8.93179L175.059 3.3797H175.802L173.331 10.4167C172.878 11.7111 172.352 12.2499 171.222 12.2499C171.019 12.2499 170.795 12.2368 170.546 12.1973V11.5731C170.749 11.6126 170.933 11.6257 171.097 11.6257C172.037 11.6257 172.464 11.1001 172.714 9.8648L170.434 3.3797ZM177.293 3.3797H176.577V9.90422H177.333V5.15374C177.983 4.34557 178.627 3.94477 179.225 3.94477C180.152 3.94477 180.355 4.49669 180.355 5.63996V9.90422H181.111V5.15374C181.748 4.34557 182.405 3.94477 183.003 3.94477C183.93 3.94477 184.133 4.49669 184.133 5.63996V9.90422H184.876V5.364C184.876 3.96448 184.324 3.268 183.22 3.268C182.517 3.268 181.827 3.64252 181.111 4.39156H181.026C180.723 3.64252 180.198 3.268 179.455 3.268C178.765 3.268 178.036 3.64252 177.346 4.39156H177.293V3.3797ZM188.529 3.8922C187.497 3.8922 186.775 4.66752 186.65 6.06047H190.25C190.211 4.64781 189.561 3.8922 188.529 3.8922ZM191.013 8.33387C190.434 9.50342 189.699 10.0159 188.542 10.0159C186.913 10.0159 185.868 8.7281 185.868 6.68467C185.868 4.52954 186.946 3.25486 188.516 3.25486C190.086 3.25486 190.973 4.339 190.973 6.40871V6.61897H186.65C186.663 8.42586 187.353 9.38515 188.595 9.38515C189.436 9.38515 189.975 8.97121 190.441 8.01191L191.019 8.32073L191.013 8.33387ZM192.767 3.3797H191.992V9.90422H192.767V5.15374C193.47 4.34557 194.16 3.94477 194.81 3.94477C195.816 3.94477 196.039 4.49669 196.039 5.63996V9.90422H196.801V5.364C196.801 3.96448 196.21 3.268 195.034 3.268C194.305 3.268 193.542 3.64252 192.767 4.4047V3.3797ZM200.001 9.418C200.179 9.418 200.402 9.36544 200.691 9.29316V9.91736C200.402 9.98964 200.1 10.0422 199.811 10.0422C198.91 10.0422 198.516 9.59541 198.516 8.64268V4.01704H197.537V3.3797H198.516V1.44797H199.278V3.3797H200.645V4.01704H199.278V8.68211C199.278 9.18147 199.502 9.418 199.995 9.418H200.001ZM204.804 8.20903C204.804 8.89236 204.265 9.40486 203.451 9.40486C202.688 9.40486 202.031 9.0172 201.466 8.26816L200.888 8.7281C201.539 9.60198 202.327 10.0159 203.359 10.0159C204.712 10.0159 205.593 9.22746 205.593 8.14332C205.593 7.05919 204.929 6.71095 203.621 6.22473C203.516 6.18531 203.418 6.14589 203.319 6.11304C202.413 5.77794 201.893 5.58739 201.893 4.95006C201.893 4.31272 202.36 3.87906 203.07 3.87906C203.779 3.87906 204.338 4.18788 204.837 4.8515L205.389 4.4507C204.811 3.66223 204.062 3.25486 203.208 3.25486C201.907 3.25486 201.092 3.99076 201.092 4.98948C201.092 5.9882 201.782 6.36272 203.109 6.84893C203.175 6.87522 203.24 6.89493 203.3 6.92121C204.259 7.27602 204.798 7.47313 204.798 8.20903H204.804Z" fill="#003C71"/>
<path d="M104.946 0.271729V13.7216" stroke="#1A1A1A" stroke-width="0.657051" stroke-miterlimit="10"/>
<path d="M4.5884 11.5141C2.70267 11.5141 1.20459 10.0817 1.20459 7.93975C1.20459 5.9226 2.76837 4.29968 4.71981 4.29968C5.69225 4.29968 6.53985 4.68734 7.05892 5.33782L6.08648 6.37596C5.69882 5.9883 5.23888 5.79119 4.65411 5.79119C3.61597 5.79119 2.83408 6.76363 2.83408 7.93975C2.83408 9.175 3.55026 10.0883 4.65411 10.0883C5.30459 10.0883 5.75796 9.89119 6.15219 9.43782L7.06549 10.4103C6.48071 11.1264 5.63312 11.5141 4.59497 11.5141H4.5884ZM11.2246 10.0817C12.4599 10.0817 13.1761 9.1093 13.1761 7.93318C13.1761 6.69792 12.3942 5.78462 11.2246 5.78462C9.98937 5.78462 9.27318 6.75705 9.27318 7.93318C9.27318 9.1093 9.98937 10.0817 11.2246 10.0817ZM11.1589 11.5141C9.07606 11.5141 7.58456 10.016 7.58456 7.93975C7.58456 5.86346 9.14834 4.29968 11.2246 4.29968C13.3009 4.29968 14.799 5.86346 14.799 7.87404C14.799 9.88462 13.2352 11.5141 11.1589 11.5141ZM20.5219 11.3827L21.6914 7.61122C21.8886 6.96074 22.0791 6.17885 22.0791 6.17885C22.0791 6.17885 22.0791 6.96074 22.1448 7.67693L22.4668 11.3827H23.9648L23.3144 4.49023H21.2972L20.2591 7.93975C20.062 8.52452 19.9371 9.24071 19.9371 9.24071C19.9371 9.24071 19.74 8.52452 19.5495 7.93975L18.5113 4.49023H16.4942L15.8437 11.3827H17.2761L17.598 7.67693C17.6637 6.96074 17.6637 6.17885 17.6637 6.17885C17.6637 6.17885 17.8608 6.96074 18.0514 7.61122L19.2209 11.3827H20.5219ZM30.2134 11.3827L31.383 7.61122C31.5801 6.96074 31.7706 6.17885 31.7706 6.17885C31.7706 6.17885 31.7706 6.96074 31.8363 7.67693L32.1583 11.3827H33.7221L33.0716 4.49023H31.0544L30.0163 7.93975C29.8192 8.52452 29.6943 9.24071 29.6943 9.24071C29.6943 9.24071 29.4972 8.52452 29.3067 7.93975L28.2685 4.49023H26.12L25.4695 11.3827H26.9019L27.2238 7.67693C27.2895 6.96074 27.2895 6.17885 27.2895 6.17885C27.2895 6.17885 27.4866 6.96074 27.6772 7.61122L28.8467 11.3827H30.2134ZM35.3515 11.3827H39.8392V10.0817H36.8496V8.58366H39.3858V7.2827H36.8496V5.78462H39.7735V4.48366H35.2858V11.3761H35.3515V11.3827ZM44.9773 6.63879C44.9773 5.9883 44.524 5.72548 43.6764 5.72548H43.0259V7.54552H43.6764C44.5897 7.61122 44.9773 7.2827 44.9773 6.63221V6.63879ZM46.8631 11.3827H45.1088L43.6107 8.84648H43.1573V11.3827H41.6592V4.49023H43.7421C45.8249 4.49023 46.6068 5.33782 46.6068 6.70449C46.6068 7.61779 46.0878 8.26827 45.1745 8.59023L46.8631 11.3893V11.3827ZM47.7764 11.3827H52.5926V10.0817H49.6687L52.5334 5.59407V4.42452H47.8487V5.72548H50.6477L47.783 10.2131V11.3827H47.7764ZM55.6479 8.52452V10.0883H56.7517C57.5336 10.0883 57.8555 9.82548 57.8555 9.30641C57.8555 8.78734 57.4022 8.52452 56.7517 8.52452H55.6479ZM55.6479 5.72548V7.22356H56.5612C57.0145 7.22356 57.4745 7.02645 57.4745 6.44167C57.4745 5.85689 57.0211 5.72548 56.502 5.72548H55.6544H55.6479ZM54.1498 11.3827V4.49023H56.5546C57.7898 4.49023 59.0908 4.75305 59.0908 6.24455C59.0908 7.02645 58.6374 7.54552 57.9213 7.80834C58.8346 7.93975 59.4193 8.52452 59.4193 9.43125C59.4193 10.8636 58.0527 11.4484 56.8174 11.4484H54.1498V11.3827ZM61.3708 11.3827H59.8727L62.3432 4.49023H64.2289L66.6995 11.3827H65.0765L64.6232 9.95032H61.8898L61.3708 11.3827ZM64.1041 8.65593L63.5193 6.8359C63.3222 6.31683 63.1974 5.86347 63.1974 5.86347C63.1974 5.86347 63.066 6.31683 62.8754 6.8359L62.2906 8.65593H64.1107H64.1041ZM67.6128 11.3827H69.0451V8.06459C69.0451 7.41411 68.9794 6.82933 68.9794 6.82933C68.9794 6.82933 69.3014 7.41411 69.6956 7.93318L72.0347 11.3827H73.4014V4.49023H71.969V7.61122C71.969 8.2617 72.0347 8.84648 72.0347 8.84648C72.0347 8.84648 71.7128 8.2617 71.3185 7.74263L69.1043 4.42452H67.6719V11.3827H67.6062H67.6128ZM75.0309 4.42452V11.3827H76.5289V8.13029L78.7432 11.3827H80.5632L78.027 7.67693L80.3004 4.49023H78.5461L76.4632 7.61122V4.49023H75.0309V4.42452Z" fill="black"/>
<path d="M93.4146 0.71875C93.1452 0.71875 92.337 0.71875 91.3975 1.86202C91.3975 1.86202 91.4237 1.8883 91.4369 1.90801C91.68 1.62548 91.9822 1.33638 92.3042 1.12612C92.6064 0.935577 92.9481 0.804167 93.2372 0.771314C93.4475 0.745032 94.1374 0.758173 94.9258 0.758173C94.9258 0.758173 94.9258 0.758173 94.9324 0.758173L94.9127 0.725321C94.9127 0.725321 94.9127 0.725321 94.9061 0.725321H93.408L93.4146 0.71875Z" fill="url(#paint0_radial_152_57418)"/>
<path d="M87.9222 0.71875C87.9222 0.71875 87.9222 0.71875 87.9156 0.71875L84.9786 5.82404L84.0587 7.42724L83.9536 7.61122L83.9404 7.6375C83.9404 7.6375 83.9404 7.6375 83.9404 7.64407L86.7395 12.5062V12.4865C86.6803 12.3748 86.6343 12.2894 86.6146 12.2369C86.4964 11.974 86.4307 11.6061 86.4504 11.2447C86.4964 10.3051 86.9957 9.37212 87.2454 8.93846C87.8302 7.91346 88.9669 5.94231 88.9669 5.94231C88.9669 5.94231 90.1036 3.96458 90.6949 2.94615C90.9446 2.5125 91.4965 1.61234 92.285 1.09984C92.5872 0.902724 92.9355 0.777885 93.2246 0.751603C93.4348 0.725321 94.1313 0.725321 94.9198 0.725321H87.9287L87.9222 0.71875Z" fill="url(#paint1_radial_152_57418)"/>
<path d="M83.9595 7.68323C84.0055 7.76207 84.0449 7.83435 84.0909 7.9132L83.9595 7.68323ZM98.0269 9.10903C97.8561 9.34557 97.5736 9.58211 97.2582 9.74637C96.4237 10.1735 95.3725 10.2063 94.8731 10.2063H87.9741C87.4747 10.2063 86.4234 10.1735 85.589 9.74637C85.2736 9.58211 84.9845 9.339 84.8136 9.10903C84.7019 8.95791 84.426 8.48483 84.0975 7.9132L84.8005 9.13531L87.4418 13.7281C87.4418 13.7281 87.4418 13.7281 87.4484 13.7281H95.3987C95.3987 13.7281 95.3987 13.7281 95.4053 13.7281L98.868 7.70294C98.4869 8.36656 98.1518 8.94477 98.0269 9.10903Z" fill="url(#paint2_radial_152_57418)"/>
<path d="M93.2183 0.745053C92.9292 0.777906 92.581 0.902746 92.2787 1.09329C91.9502 1.31012 91.6611 1.58608 91.418 1.87518C91.7531 2.27598 92.0027 2.68335 92.1473 2.9396C92.7321 3.9646 93.8753 5.93576 93.8753 5.93576C93.8753 5.93576 95.012 7.91348 95.6034 8.93191C95.8531 9.36557 96.3524 10.2986 96.3984 11.2382C96.4181 11.593 96.3459 11.9609 96.2342 12.2303C96.1553 12.4143 95.8334 12.9793 95.4588 13.6298L98.9084 7.63752L94.9332 0.725342C94.9332 0.725342 94.9332 0.725342 94.9266 0.725342C94.1382 0.725342 93.4417 0.725342 93.2314 0.751624" fill="url(#paint3_radial_152_57418)"/>
</g>
<defs>
<radialGradient id="paint0_radial_152_57418" cx="0" cy="0" r="1" gradientUnits="userSpaceOnUse" gradientTransform="translate(94.5749 12.581) scale(11.675 11.7211)">
<stop stop-color="#FFEF19"/>
<stop offset="0.25" stop-color="#FFDF08"/>
<stop offset="0.44" stop-color="#FFD700"/>
<stop offset="0.59" stop-color="#FDD401"/>
<stop offset="0.71" stop-color="#F7C903"/>
<stop offset="0.83" stop-color="#ECB808"/>
<stop offset="0.9" stop-color="#E3A90B"/>
<stop offset="1" stop-color="#D98B07"/>
</radialGradient>
<radialGradient id="paint1_radial_152_57418" cx="0" cy="0" r="1" gradientUnits="userSpaceOnUse" gradientTransform="translate(92.8569 1.29906) scale(11.6838 11.7299)">
<stop stop-color="#FFEF19"/>
<stop offset="0.25" stop-color="#FFDF08"/>
<stop offset="0.44" stop-color="#FFD700"/>
<stop offset="0.59" stop-color="#FDD401"/>
<stop offset="0.71" stop-color="#F7C903"/>
<stop offset="0.83" stop-color="#ECB808"/>
<stop offset="0.9" stop-color="#E3A90B"/>
<stop offset="1" stop-color="#D98B07"/>
</radialGradient>
<radialGradient id="paint2_radial_152_57418" cx="0" cy="0" r="1" gradientUnits="userSpaceOnUse" gradientTransform="translate(81.6442 9.02893) scale(11.6785 11.7246)">
<stop stop-color="#FFEF19"/>
<stop offset="0.25" stop-color="#FFDF08"/>
<stop offset="0.44" stop-color="#FFD700"/>
<stop offset="0.59" stop-color="#FDD401"/>
<stop offset="0.71" stop-color="#F7C903"/>
<stop offset="0.83" stop-color="#ECB808"/>
<stop offset="0.9" stop-color="#E3A90B"/>
<stop offset="1" stop-color="#D98B07"/>
</radialGradient>
<radialGradient id="paint3_radial_152_57418" cx="0" cy="0" r="1" gradientUnits="userSpaceOnUse" gradientTransform="translate(96.8074 12.7155) scale(11.7122 11.7583)">
<stop stop-color="#FFEF19"/>
<stop offset="0.25" stop-color="#FFDF08"/>
<stop offset="0.44" stop-color="#FFD700"/>
<stop offset="0.59" stop-color="#FDD401"/>
<stop offset="0.71" stop-color="#F7C903"/>
<stop offset="0.83" stop-color="#ECB808"/>
<stop offset="0.9" stop-color="#E3A90B"/>
<stop offset="1" stop-color="#D98B07"/>
</radialGradient>
<clipPath id="clip0_152_57418">
<rect width="205" height="13.7981" fill="white" transform="translate(0.901855 0.100952)"/>
</clipPath>
</defs>
</svg>
