<svg width="205" height="16" viewBox="0 0 205 16" fill="none" xmlns="http://www.w3.org/2000/svg">
<g clip-path="url(#clip0_152_88324)">
<g clip-path="url(#clip1_152_88324)">
<path d="M118.058 3.19286C117.524 3.19286 117.057 2.72568 117.057 2.19177C117.057 1.65785 117.524 1.19067 118.058 1.19067C118.592 1.19067 119.059 1.65785 119.059 2.19177C119.059 2.72568 118.592 3.19286 118.058 3.19286Z" fill="#173E76"/>
<path d="M126.4 9.46623C126.467 8.86558 126.868 8.3984 127.402 8.19818C126.801 7.86449 126.467 7.19709 126.467 6.46296C126.467 5.12817 127.468 4.12708 129.003 4.12708C129.604 4.12708 130.205 4.32729 130.738 4.72773C131.072 4.99469 131.339 5.32839 131.473 5.72882C131.539 5.99578 131.606 6.26274 131.539 6.5297C131.539 7.79775 130.605 8.66536 129.07 8.66536C128.803 8.66536 128.603 8.66536 128.336 8.59862C128.069 8.7321 127.935 8.86558 127.935 9.0658C127.935 9.53297 128.536 9.46623 129.671 9.53297C131.406 9.66645 132.073 10.0001 132.073 11.2682C132.073 12.5363 131.005 13.3371 129.003 13.3371C127.135 13.3371 126.2 12.7365 126.2 11.6686C126.2 11.068 126.601 10.7343 127.335 10.4673C126.667 10.2004 126.4 9.93341 126.4 9.46623ZM127.602 11.5352C127.602 11.9356 128.069 12.2693 128.87 12.2693C130.004 12.2693 130.605 11.9356 130.605 11.4684C130.605 11.068 130.338 10.9345 129.737 10.9345L128.269 10.801C127.802 11.0012 127.602 11.2682 127.602 11.5352ZM129.003 7.53079C129.604 7.53079 130.071 7.13035 130.071 6.5297V6.46296C130.071 5.8623 129.671 5.39513 129.07 5.39513C129.003 5.39513 129.003 5.39513 128.937 5.39513C128.336 5.39513 127.869 5.8623 127.869 6.39622V6.46296C127.869 6.99687 128.269 7.46405 128.803 7.46405C128.87 7.53079 128.937 7.53079 129.003 7.53079Z" fill="#173E76"/>
<path d="M131.205 2.99255C131.672 2.99255 132.006 3.39299 132.006 3.79343C132.006 4.2606 131.605 4.5943 131.205 4.5943C130.738 4.5943 130.404 4.19386 130.404 3.79343C130.404 3.39299 130.738 2.99255 131.205 2.99255Z" fill="#173E76"/>
<path d="M134.408 1.72461H132.806V10.9347H134.408V1.72461Z" fill="#173E76"/>
<path d="M138.079 4.19385C139.881 4.19385 140.949 5.4619 140.949 7.6643C140.949 9.8667 139.881 11.1348 138.079 11.1348C136.277 11.1348 135.209 9.8667 135.209 7.6643C135.209 5.4619 136.344 4.19385 138.079 4.19385ZM138.079 9.73322C138.947 9.73322 139.347 9.06583 139.347 7.59756C139.347 6.19603 138.947 5.52864 138.079 5.52864C137.212 5.52864 136.811 6.19603 136.811 7.59756C136.811 9.06583 137.278 9.73322 138.079 9.73322Z" fill="#173E76"/>
<path d="M141.817 9.39965V1.72461H143.352V4.9281C143.752 4.46093 144.353 4.12723 144.953 4.19397C146.422 4.19397 147.49 5.52876 147.49 7.66442C147.49 9.73335 146.422 11.1349 144.887 11.1349C144.219 11.1349 143.552 10.8012 143.085 10.2673L142.951 11.0014H141.75C141.817 10.2673 141.817 9.73335 141.817 9.39965ZM144.553 9.80009C145.421 9.80009 145.955 9.06595 145.955 7.66442C145.955 6.2629 145.421 5.52876 144.553 5.52876C144.086 5.52876 143.685 5.79572 143.352 6.12942V9.26617C143.685 9.59987 144.086 9.80009 144.553 9.80009Z" fill="#173E76"/>
<path d="M151.761 10.4007C151.16 10.8012 150.493 11.0681 149.759 11.0681C148.891 11.1349 148.09 10.4675 147.957 9.59984C147.957 9.46636 147.957 9.39962 147.957 9.26615C147.957 7.79788 149.225 6.997 151.761 6.66331V6.19613C151.761 5.72895 151.427 5.462 150.826 5.462C150.226 5.462 149.692 5.72895 149.358 6.19613L148.29 5.52873C148.824 4.66112 149.825 4.19394 150.826 4.26068C152.361 4.26068 153.296 4.99482 153.296 6.26287V10.2005C153.296 10.5342 153.362 10.8012 153.429 11.1349H151.961L151.761 10.4007ZM149.558 9.19941C149.492 9.5331 149.759 9.8668 150.159 9.93354C150.226 9.93354 150.226 9.93354 150.292 9.93354C150.826 9.93354 151.36 9.66658 151.761 9.19941V7.73114C150.292 7.93136 149.558 8.33179 149.558 9.19941Z" fill="#173E76"/>
<path d="M156.165 1.72461H154.63V10.9347H156.165V1.72461Z" fill="#173E76"/>
<path d="M157.767 4.32733H158.368L158.568 5.19494H158.635C159.102 4.59428 159.836 4.26059 160.637 4.19385C162.105 4.19385 163.106 5.4619 163.106 7.6643C163.106 9.8667 162.105 11.1348 160.637 11.1348C159.836 11.1348 159.169 10.7343 158.635 10.1337H158.568V13.4039H157.767V4.32733ZM158.568 9.19931C159.235 10.0669 159.836 10.4674 160.57 10.4674C161.638 10.4674 162.305 9.46627 162.305 7.6643C162.305 5.86233 161.638 4.86124 160.57 4.86124C159.836 4.86124 159.235 5.26168 158.568 6.12929V9.19931Z" fill="#173E76"/>
<path d="M167.578 10.1338C166.977 10.7344 166.176 11.1349 165.309 11.1349C164.374 11.2016 163.574 10.4675 163.507 9.53312C163.507 9.46638 163.507 9.39964 163.507 9.3329C163.507 7.79789 164.775 7.1305 167.578 6.59658V5.92919C167.578 5.26179 167.044 4.86136 166.11 4.86136C165.376 4.86136 164.775 5.26179 164.441 5.92919L163.841 5.52875C164.308 4.66114 165.242 4.12722 166.176 4.19396C167.444 4.19396 168.312 4.9281 168.312 5.92919V10.067C168.312 10.334 168.379 10.6677 168.446 10.9347H167.645C167.645 10.6677 167.578 10.4007 167.578 10.1338ZM167.578 7.26398C165.376 7.79789 164.308 8.19833 164.308 9.3329C164.241 9.86682 164.641 10.4007 165.175 10.5342C165.242 10.5342 165.309 10.5342 165.376 10.5342C166.11 10.5342 166.777 10.1338 167.511 9.3329V7.26398H167.578Z" fill="#173E76"/>
<path d="M169.113 4.32739H169.914L171.849 10.0002L173.785 4.32739H174.519L172.049 11.4685C171.582 12.8033 171.048 13.3372 169.914 13.3372C169.713 13.3372 169.446 13.3372 169.246 13.2705V12.6031C169.446 12.6698 169.647 12.6698 169.78 12.6698C170.715 12.6698 171.182 12.1359 171.449 10.8679L169.113 4.32739Z" fill="#173E76"/>
<path d="M175.319 4.32733H176.053V5.32842H176.12C176.654 4.66102 177.388 4.26059 178.256 4.19385C178.99 4.19385 179.657 4.66102 179.858 5.32842H179.924C180.458 4.66102 181.192 4.26059 182.06 4.19385C183.195 4.19385 183.729 4.92798 183.729 6.32951V11.0013H182.994V6.66321C182.994 5.4619 182.794 4.92798 181.86 4.92798C181.259 4.92798 180.592 5.32842 179.924 6.12929V11.0013H179.19V6.66321C179.19 5.4619 178.99 4.92798 178.056 4.92798C177.455 4.92798 176.788 5.32842 176.12 6.12929V11.0013H175.386V4.32733H175.319Z" fill="#173E76"/>
<path d="M189.935 9.39956C189.334 10.6009 188.6 11.1348 187.399 11.1348C185.73 11.1348 184.663 9.8 184.663 7.73107C184.663 5.52867 185.73 4.26062 187.332 4.26062C188.934 4.26062 189.802 5.39519 189.802 7.46412V7.66433H185.397C185.397 9.53304 186.131 10.4674 187.399 10.4674C188.267 10.4674 188.8 10.067 189.268 9.06586L189.935 9.39956ZM187.399 4.86128C186.398 4.86128 185.597 5.66215 185.463 7.06368H189.134C189.134 5.59541 188.467 4.86128 187.399 4.86128Z" fill="#173E76"/>
<path d="M190.937 4.32733H191.738V5.32842C192.339 4.66102 193.139 4.26059 194.007 4.19385C195.208 4.19385 195.809 4.92798 195.809 6.32951V11.0013H195.008V6.66321C195.008 5.4619 194.808 4.92798 193.74 4.92798C193.073 4.92798 192.405 5.32842 191.671 6.12929V11.0013H190.937V4.32733Z" fill="#173E76"/>
<path d="M199.079 10.4674C199.346 10.4674 199.546 10.4007 199.746 10.3339V11.0013C199.479 11.0681 199.145 11.1348 198.878 11.1348C197.944 11.1348 197.544 10.6676 197.544 9.73328V4.99477H196.542V4.32738H197.544V2.3252H198.344V4.32738H199.746V4.99477H198.344V9.73328C198.344 10.2672 198.545 10.4674 199.079 10.4674Z" fill="#173E76"/>
<path d="M202.549 10.4674C203.217 10.5341 203.817 10.0669 203.884 9.33279C203.884 9.26605 203.884 9.26605 203.884 9.19931C203.884 8.39844 203.283 8.19822 202.149 7.79778C200.814 7.26386 200.08 6.93017 200.08 5.92907C200.08 4.92798 200.881 4.19385 202.216 4.19385C203.083 4.19385 203.951 4.66102 204.418 5.39516L203.884 5.7956C203.484 5.19494 202.816 4.7945 202.082 4.7945C201.481 4.72776 200.948 5.19494 200.881 5.7956C200.881 5.86233 200.881 5.86233 200.881 5.92907C200.881 6.66321 201.548 6.79669 202.616 7.19712C203.951 7.73104 204.618 8.06474 204.618 9.13257C204.618 10.2004 203.751 11.068 202.349 11.068C201.348 11.068 200.414 10.6008 199.813 9.73322L200.414 9.26605C200.948 10.0002 201.748 10.4674 202.549 10.4674Z" fill="#173E76"/>
<path d="M115.388 3.99353C115.455 3.99353 115.521 3.99353 115.521 3.99353C116.189 4.06027 116.723 4.59419 116.656 5.26158V5.32832C116.656 5.99571 116.055 6.52963 115.388 6.46289C115.321 6.46289 115.254 6.46289 115.188 6.46289C114.587 6.39615 114.053 5.86224 114.12 5.26158V5.19484C114.187 4.52745 114.721 3.99353 115.388 3.99353Z" fill="#173E76"/>
<path d="M116.322 10.4673L114.653 10.3339C114.119 10.6008 113.853 10.801 113.853 11.1347C113.853 11.6687 114.386 12.0023 115.388 12.0023C116.656 12.0023 117.39 11.6019 117.39 11.0013C117.323 10.6676 116.989 10.4673 116.322 10.4673Z" fill="#173E76"/>
<path d="M119.125 2.52544C118.991 2.92588 118.524 3.25957 118.057 3.25957C117.456 3.25957 116.923 2.72566 116.923 2.125C116.923 1.92479 116.989 1.79131 117.056 1.59109C116.522 1.45761 115.921 1.39087 115.321 1.39087C111.583 1.39087 108.58 4.39415 108.58 8.13156C108.58 11.869 111.583 14.8722 115.321 14.8722C119.058 14.8722 122.061 11.869 122.061 8.13156C122.061 5.79568 120.927 3.79349 119.125 2.52544ZM115.388 13.404C113.185 13.404 112.051 12.7366 112.051 11.4685C112.051 10.7344 112.451 10.334 113.385 10.067C112.651 9.7333 112.317 9.39961 112.317 8.86569C112.384 8.1983 112.851 7.59764 113.452 7.39742C112.718 6.99699 112.317 6.19611 112.384 5.3285C112.384 3.72675 113.586 2.59218 115.388 2.59218C116.122 2.59218 116.856 2.85914 117.39 3.32631C117.79 3.66001 118.057 4.06045 118.257 4.52762C118.324 4.86132 118.391 5.12828 118.391 5.46198C118.391 6.99699 117.256 7.93134 115.454 7.93134C115.187 7.93134 114.92 7.93134 114.587 7.8646C114.253 7.99808 114.053 8.1983 114.053 8.39851C114.053 8.93243 114.787 8.86569 116.122 8.99917C118.124 9.13265 118.991 9.53309 118.991 11.0014C119.058 12.4696 117.723 13.404 115.388 13.404Z" fill="#173E76"/>
<path d="M115.254 6.52979C115.32 6.52979 115.387 6.52979 115.454 6.52979C116.121 6.52979 116.722 6.06261 116.722 5.39521V5.32847C116.789 4.66108 116.255 4.06042 115.587 4.06042C115.521 4.06042 115.454 4.06042 115.454 4.06042C114.787 4.06042 114.253 4.59434 114.253 5.26174V5.32847C114.119 5.92913 114.653 6.46305 115.254 6.52979Z" fill="#173E76"/>
<path d="M102.773 0.923706H102.106V15.0725H102.773V0.923706Z" fill="#414042"/>
<path d="M0.12793 14.0047V1.99158H2.46381L7.60275 9.53314V1.99158H10.1389V14.0047H7.73623L2.66403 6.46312V14.0047H0.12793Z" fill="#173E76"/>
<path d="M12.4746 1.99158H16.7459C19.6825 1.99158 21.6847 3.12615 21.6847 5.19507C21.6847 6.73008 20.6168 7.59769 19.2153 7.86465C20.817 8.06487 22.0184 8.93248 22.0184 10.601C22.0184 12.6699 20.2164 14.0047 16.9462 14.0047H12.4746V1.99158ZM15.0774 3.99376V6.9303H16.5457C18.0807 6.9303 19.0818 6.39638 19.0818 5.46203C19.0818 4.59442 18.1475 3.99376 16.5457 3.99376H15.0774ZM15.0774 8.93248V12.0025H16.6125C18.2142 12.0025 19.3488 11.4686 19.3488 10.5342C19.3488 9.59988 18.3477 8.99922 16.6125 8.99922H15.0774V8.93248Z" fill="#173E76"/>
<path d="M23.4868 7.99806C23.4868 4.32739 25.756 1.85803 29.4266 1.85803C32.3632 1.85803 34.3654 3.66 34.6991 6.26284H32.0962C31.7625 4.92805 30.8282 4.06044 29.3599 4.06044C27.3577 4.06044 26.0897 5.66218 26.0897 7.99806C26.0897 10.3339 27.291 11.9357 29.3599 11.9357C30.7614 11.9357 32.0962 11.2016 32.3632 9.53307V9.39959H29.3599V7.33067H34.7658V14.0046H32.9638L32.6969 12.5364C32.0295 13.404 30.8949 14.0714 29.1597 14.0714C25.756 14.1381 23.4868 11.6687 23.4868 7.99806Z" fill="#173E76"/>
<path d="M64.9985 1.99158H69.0696C72.2731 1.99158 74.609 3.59332 74.609 5.99595C74.609 8.39857 72.4066 10.0003 69.6036 10.0003H67.6014V14.0714H64.9985V1.99158ZM67.6014 4.12724V7.79791H69.0029C70.8049 7.79791 72.0062 7.13052 72.0062 5.92921C72.0062 4.79464 70.8049 4.0605 69.0029 4.0605H67.6014V4.12724Z" fill="#173E76"/>
<path d="M74.2754 14.0047L78.6802 1.99158H81.7502L86.0883 14.0047H83.352L82.4176 11.4018H77.8793L76.945 14.0047H74.2754ZM78.5467 9.33292H81.7502L80.1485 4.7279L78.5467 9.33292Z" fill="#173E76"/>
<path d="M84.8198 1.9917H87.8231L90.5594 6.93042L93.3625 1.9917H96.2323L91.8275 9.53326V14.0048H89.2246V9.53326L84.8198 1.9917Z" fill="#173E76"/>
<path d="M49.9157 1.99169H55.722C54.0536 1.3243 52.0514 0.990601 49.9157 0.990601C47.78 0.990601 45.7779 1.3243 44.1094 1.99169H49.9157Z" fill="#00DEF8"/>
<path d="M43.1744 4.72778C42.0398 5.5954 41.3057 6.72997 41.3057 7.99802C41.3057 9.26607 41.9731 10.4006 43.1744 11.2683V7.99802V4.72778Z" fill="#00DEF8"/>
<path d="M49.9149 12.3361H45.043C46.4445 12.9367 48.113 13.2704 49.9149 13.2704C51.7169 13.2704 53.3854 12.9367 54.7869 12.3361H49.9149Z" fill="#00DEF8"/>
<path d="M40.5718 4.06055C39.3705 5.19512 38.7031 6.52991 38.7031 7.99818C38.7031 9.46644 39.3705 10.8012 40.5718 11.9358V7.99818V4.06055Z" fill="#00DEF8"/>
<path d="M49.9149 3.66006H54.7869C53.3854 3.05941 51.7169 2.72571 49.9149 2.72571C48.113 2.72571 46.4445 3.05941 45.043 3.66006H49.9149Z" fill="#00DEF8"/>
<path d="M56.5889 4.72791V7.99814V11.2684C57.7234 10.4008 58.4576 9.26619 58.4576 7.99814C58.4576 6.73009 57.7234 5.59552 56.5889 4.72791Z" fill="#00DEF8"/>
<path d="M49.9157 14.0048H44.1094C45.7779 14.6722 47.78 15.0059 49.9157 15.0059C52.0514 15.0059 54.0536 14.6054 55.722 14.0048H49.9157Z" fill="#00DEF8"/>
<path d="M54.2535 5.32854C53.1189 4.66115 51.5839 4.19397 49.9154 4.19397C48.2469 4.19397 46.7119 4.59441 45.5774 5.32854C44.4428 5.99594 43.7754 6.93029 43.7754 7.99812C43.7754 9.06595 44.4428 10.0003 45.5774 10.6677C46.7119 11.3351 48.2469 11.8023 49.9154 11.8023C51.5839 11.8023 53.1189 11.4018 54.2535 10.6677C55.3881 10.0003 56.0555 9.06595 56.0555 7.99812C56.0555 6.93029 55.3213 5.99594 54.2535 5.32854Z" fill="#00DEF8"/>
<path d="M61.0606 7.99793C61.0606 6.52966 60.3932 5.19487 59.1919 4.0603V7.99793V11.9356C60.3932 10.801 61.0606 9.4662 61.0606 7.99793Z" fill="#00DEF8"/>
</g>
</g>
<defs>
<clipPath id="clip0_152_88324">
<rect width="204.69" height="14.42" fill="white" transform="translate(0.0566406 0.790039)"/>
</clipPath>
<clipPath id="clip1_152_88324">
<rect width="204.69" height="14.4157" fill="white" transform="translate(0.0605469 0.790039)"/>
</clipPath>
</defs>
</svg>
