<svg width="205" height="17" viewBox="0 0 205 17" fill="none" xmlns="http://www.w3.org/2000/svg">
<g clip-path="url(#clip0_153_116190)">
<path d="M112.05 3.1205C112.62 3.1205 113.048 2.69297 113.048 2.12293C113.048 1.55289 112.62 1.12537 112.05 1.12537C111.48 1.12537 111.053 1.55289 111.053 2.12293C111.053 2.69297 111.552 3.1205 112.05 3.1205Z" fill="#003C71"/>
<path d="M109.058 6.89726C109.842 6.89726 110.412 6.39847 110.412 5.54342C110.412 4.75961 109.842 4.18958 109.058 4.18958C108.274 4.18958 107.775 4.68836 107.775 5.54342C107.775 6.46973 108.274 6.89726 109.058 6.89726Z" fill="#003C71"/>
<path d="M109.986 11.101L108.204 11.0298C107.634 11.3148 107.349 11.5286 107.349 11.8848C107.349 12.3836 107.919 12.8112 108.917 12.8112C110.271 12.8112 111.054 12.3836 111.054 11.8136C111.054 11.3148 110.698 11.101 109.986 11.101Z" fill="#003C71"/>
<path d="M113.191 2.69302C112.977 3.12055 112.55 3.40557 112.051 3.40557C111.338 3.40557 110.768 2.83553 110.768 2.12298C110.768 1.98047 110.768 1.83796 110.84 1.69545C110.341 1.55294 109.771 1.48169 109.201 1.48169C105.353 1.48169 102.146 4.68815 102.146 8.60717C102.146 12.5262 105.282 15.7326 109.201 15.7326C113.12 15.7326 116.255 12.5262 116.255 8.60717C116.255 6.11325 115.044 3.97561 113.191 2.69302ZM108.987 14.165C106.707 14.165 105.495 13.4525 105.495 12.0987C105.495 11.3148 105.923 10.8873 106.921 10.6023C106.208 10.246 105.852 9.88975 105.852 9.31972C105.852 8.74968 106.279 8.17964 107.063 7.75211C106.279 7.32458 105.923 6.54078 105.923 5.61447C105.923 3.90435 107.134 2.76428 109.058 2.76428C109.842 2.76428 110.555 2.97804 111.125 3.54808C111.481 3.90435 111.837 4.33188 111.98 4.83066C112.122 5.18694 112.122 5.47196 112.122 5.82823C112.122 7.39584 110.982 8.46466 109.058 8.46466C108.702 8.46466 108.417 8.46466 108.203 8.3934C107.847 8.53591 107.704 8.74968 107.704 8.96344C107.704 9.53348 108.488 9.46222 109.842 9.60473C111.98 9.74724 112.835 10.1748 112.835 11.7424C112.835 13.2387 111.481 14.165 108.987 14.165Z" fill="#003C71"/>
<path fill-rule="evenodd" clip-rule="evenodd" d="M129.508 11.5286H127.797V1.69543H129.508V11.5286ZM127.014 3.90433C127.014 4.40312 126.586 4.75939 126.159 4.75939C125.731 4.75939 125.232 4.40312 125.232 3.90433C125.232 3.40555 125.66 3.04928 126.087 3.04928C126.515 3.04928 127.014 3.40555 127.014 3.90433ZM123.736 7.82335C124.448 7.82335 124.876 7.39582 124.876 6.68327C124.876 5.97072 124.377 5.54319 123.665 5.54319C123.023 5.54319 122.525 5.97072 122.525 6.75452C122.596 7.46707 123.023 7.82335 123.736 7.82335ZM122.24 12.0986C122.24 12.5262 122.738 12.8824 123.593 12.8824C124.805 12.8824 125.446 12.5262 125.446 12.0274C125.446 11.6711 125.161 11.4573 124.52 11.4573L122.952 11.3861C122.453 11.5286 122.24 11.8136 122.24 12.0986ZM120.957 9.88973C120.957 9.39095 121.313 8.89217 122.026 8.53589C121.384 8.17962 121.028 7.53833 121.028 6.68327C121.028 5.25817 122.097 4.26061 123.736 4.26061C124.377 4.26061 125.09 4.47437 125.589 4.9019C125.945 5.18692 126.159 5.54319 126.301 5.97072C126.372 6.25574 126.444 6.54076 126.444 6.82578C126.444 8.17962 125.446 9.10593 123.807 9.10593C123.522 9.10593 123.237 9.10593 123.023 9.03468C122.738 9.17719 122.596 9.3197 122.596 9.53346C122.596 9.96099 123.095 9.96099 123.95 10.0322C124.092 10.0322 124.306 10.0322 124.448 10.0322C126.301 10.1748 127.085 10.531 127.085 11.8849C127.085 13.2387 125.945 14.0938 123.736 14.0938C121.741 14.0938 120.743 13.4525 120.743 12.3124C120.743 11.6711 121.171 11.3148 121.955 11.0298C121.242 10.6735 120.957 10.3885 120.957 9.88973ZM133.498 10.1748C134.424 10.1748 134.852 9.46221 134.852 7.8946C134.852 6.39825 134.424 5.6857 133.498 5.6857C132.572 5.6857 132.144 6.39825 132.144 7.8946C132.144 9.46221 132.643 10.1748 133.498 10.1748ZM133.498 4.26061C135.422 4.26061 136.562 5.61445 136.562 7.96585C136.562 10.3173 135.422 11.6711 133.498 11.6711C131.574 11.6711 130.434 10.3173 130.434 7.96585C130.505 5.61445 131.645 4.26061 133.498 4.26061ZM141.906 7.96585C141.906 9.4622 141.336 10.246 140.41 10.246C139.982 10.246 139.555 10.0322 139.127 9.60472V6.25574C139.555 5.82821 139.911 5.6857 140.41 5.6857C141.336 5.6857 141.906 6.4695 141.906 7.96585ZM137.488 1.69543V9.88973C137.488 10.246 137.488 10.816 137.417 11.5286H138.699L138.842 10.7448C139.412 11.3861 139.982 11.6711 140.766 11.6711C142.405 11.6711 143.545 10.1748 143.545 7.96585C143.545 5.6857 142.333 4.26061 140.837 4.26061C140.125 4.26061 139.626 4.47437 139.127 5.04441V1.69543H137.488ZM145.754 9.53346C145.754 10.0322 146.039 10.3173 146.538 10.3173C147.036 10.3173 147.606 10.1035 148.105 9.60472V8.10836C146.538 8.25087 145.754 8.74966 145.754 9.53346ZM148.105 10.8873C147.464 11.3861 146.751 11.5998 145.968 11.5998C144.756 11.5998 144.044 10.8873 144.044 9.67597C144.044 8.10837 145.397 7.25331 148.105 6.89703V6.39825C148.105 5.89947 147.749 5.61445 147.108 5.61445C146.466 5.61445 145.896 5.89947 145.54 6.39825L144.471 5.6857C145.041 4.75939 145.968 4.33186 147.179 4.33186C148.818 4.33186 149.815 5.11566 149.815 6.39825V10.531C149.815 10.7448 149.887 11.1011 149.958 11.4573H148.319L148.105 10.8873ZM152.879 11.5286H151.169V1.69543H152.879V11.5286ZM155.373 9.60472C156.086 10.531 156.727 10.9586 157.511 10.9586C158.651 10.9586 159.363 9.88973 159.363 7.96585C159.363 6.04198 158.651 4.97315 157.511 4.97315C156.727 4.97315 156.086 5.40068 155.373 6.32699V9.60472ZM154.518 4.40312H155.159L155.373 5.32943H155.444C156.086 4.61688 156.798 4.26061 157.582 4.26061C159.15 4.26061 160.219 5.61445 160.219 7.8946C160.219 10.246 159.15 11.5286 157.582 11.5286C156.798 11.5286 156.086 11.1723 155.444 10.4598H155.373V13.9513H154.518V4.40312ZM161.572 9.67597C161.572 8.46464 162.641 8.03711 165.064 7.46707V9.67597C164.209 10.531 163.496 10.9586 162.784 10.9586C162 10.9586 161.572 10.4598 161.572 9.67597ZM162.641 11.6711C163.496 11.6711 164.28 11.3148 165.064 10.6023C165.064 10.8873 165.135 11.2436 165.206 11.5286H166.062C165.99 11.1011 165.919 10.7448 165.919 10.6023V6.18449C165.919 5.11566 164.993 4.33186 163.639 4.33186C162.427 4.33186 161.644 4.83065 161.074 5.75696L161.715 6.11323C162.142 5.32943 162.712 4.97315 163.496 4.97315C164.494 4.97315 165.064 5.47194 165.064 6.11323V6.82578C162.071 7.32456 160.717 8.10836 160.717 9.74722C160.717 10.816 161.501 11.6711 162.641 11.6711ZM166.632 4.40312H167.487L169.553 10.3885L171.619 4.40312H172.403L169.696 12.0274C169.197 13.4525 168.627 14.0225 167.415 14.0225C167.202 14.0225 166.988 14.0225 166.703 13.9513V13.31C166.917 13.3812 167.13 13.3812 167.273 13.3812C168.27 13.3812 168.769 12.8112 169.054 11.4573L166.632 4.40312ZM174.113 4.40312H173.33V11.4573H174.113V6.32699C174.826 5.47194 175.538 5.04441 176.18 5.04441C177.177 5.04441 177.391 5.61445 177.391 6.89703V11.5286H178.175V6.32699C178.887 5.47194 179.6 5.04441 180.241 5.04441C181.239 5.04441 181.453 5.61445 181.453 6.89703V11.5286H182.236V6.61201C182.236 5.11566 181.666 4.33186 180.455 4.33186C179.671 4.33186 178.959 4.75939 178.175 5.54319H178.104C177.747 4.75939 177.177 4.33186 176.394 4.33186C175.681 4.33186 174.826 4.75939 174.113 5.54319H174.042V4.40312H174.113ZM186.298 4.97315C185.158 4.97315 184.374 5.82821 184.232 7.32456H188.151C188.079 5.82821 187.367 4.97315 186.298 4.97315ZM189.006 9.81848C188.364 11.1011 187.581 11.6711 186.298 11.6711C184.517 11.6711 183.377 10.246 183.377 8.03711C183.377 5.6857 184.517 4.33186 186.227 4.33186C187.937 4.33186 188.863 5.54319 188.863 7.75209V7.96585H184.16C184.16 9.96099 184.944 10.9586 186.298 10.9586C187.224 10.9586 187.794 10.531 188.293 9.4622L189.006 9.81848ZM190.858 4.40312H190.003V11.4573H190.858V6.32699C191.642 5.47194 192.355 5.04441 193.067 5.04441C194.136 5.04441 194.421 5.61445 194.421 6.89703V11.5286H195.276V6.61201C195.276 5.11566 194.635 4.33186 193.352 4.33186C192.568 4.33186 191.713 4.75939 190.858 5.54319V4.40312ZM198.696 10.9586C198.91 10.9586 199.124 10.8873 199.409 10.816V11.4573C199.124 11.5286 198.768 11.5998 198.483 11.5998C197.485 11.5998 197.058 11.1011 197.058 10.1035V5.11566H195.989V4.40312H197.058V2.33673H197.913V4.40312H199.409V5.11566H197.913V10.1748C197.913 10.7448 198.198 10.9586 198.696 10.9586ZM203.898 9.67597C203.898 10.3885 203.328 10.9586 202.402 10.9586C201.547 10.9586 200.834 10.531 200.264 9.74722L199.623 10.246C200.335 11.1723 201.19 11.6711 202.33 11.6711C203.827 11.6711 204.753 10.816 204.753 9.67597C204.753 8.53589 204.041 8.10836 202.615 7.60958C202.473 7.53833 202.402 7.53833 202.259 7.46707C201.262 7.1108 200.692 6.89703 200.692 6.18449C200.692 5.47194 201.19 5.04441 201.974 5.04441C202.758 5.04441 203.328 5.40068 203.898 6.11323L204.468 5.6857C203.827 4.83064 203.043 4.40312 202.117 4.40312C200.692 4.40312 199.836 5.18692 199.836 6.25574C199.836 7.32456 200.549 7.75209 202.045 8.25087C202.117 8.25087 202.188 8.32213 202.259 8.32213C203.328 8.6784 203.898 8.89217 203.898 9.67597Z" fill="#003C71"/>
<path d="M29.8918 7.25387C29.4643 5.4725 28.1104 4.61744 26.6141 4.61744C25.1177 4.61744 23.9064 5.4725 23.4076 7.25387H29.8918ZM23.2651 8.25143C23.3363 10.2466 24.6902 11.7429 26.5428 11.7429C28.3955 11.7429 29.2505 10.6741 29.8918 9.67653L30.8181 10.1753C29.9631 11.8854 28.538 12.8117 26.6853 12.8117C23.7639 12.8117 22.125 10.6028 22.125 8.25143C22.125 5.90003 23.9064 3.61987 26.6141 3.61987C29.108 3.61987 31.1032 5.40124 31.1032 8.32269L23.2651 8.25143Z" fill="#0140BE"/>
<path d="M48.5613 7.25387C48.1337 5.4725 46.7799 4.61744 45.2835 4.61744C43.7872 4.61744 42.5758 5.4725 42.077 7.25387H48.5613ZM41.9345 8.25143C42.0058 10.2466 43.3596 11.7429 45.2123 11.7429C47.0649 11.7429 47.92 10.6741 48.5613 9.67653L49.4876 10.1753C48.6325 11.8854 47.2074 12.8117 45.3548 12.8117C42.4333 12.8117 40.7944 10.6028 40.7944 8.25143C40.7944 5.90003 42.5758 3.61987 45.2835 3.61987C47.7774 3.61987 49.7726 5.40124 49.7726 8.32269L41.9345 8.25143Z" fill="#0140BE"/>
<path d="M56.9707 3.83337H58.182L61.1035 10.175L63.9537 3.83337H65.1651L61.1748 12.5265H60.961L56.9707 3.83337Z" fill="#0140BE"/>
<path d="M67.9423 3.83337H66.8022V12.5265H67.9423V3.83337Z" fill="#0140BE"/>
<path d="M78.7038 10.8163C77.8487 12.0989 76.3524 12.8114 74.6423 12.8114C71.7921 12.8114 69.8682 10.745 69.8682 8.32236C69.8682 5.75718 71.8633 3.6908 74.7135 3.6908C76.3524 3.6908 77.92 4.40334 78.7038 5.75718L77.7775 6.32722C76.9937 5.32966 75.9249 4.83087 74.6423 4.83087C72.4334 4.83087 70.937 6.46973 70.937 8.32236C70.937 10.175 72.3621 11.8851 74.6423 11.8851C75.9249 11.8851 76.9224 11.3863 77.7775 10.3887L78.7038 10.8163Z" fill="#0140BE"/>
<path d="M87.8952 7.25362C87.4677 5.47225 86.1139 4.6172 84.6175 4.6172C83.1211 4.6172 81.9098 5.47225 81.411 7.25362H87.8952ZM81.2685 8.25119C81.3398 10.2463 82.6936 11.7427 84.5462 11.7427C86.3989 11.7427 87.2539 10.6739 87.8952 9.67628L88.8216 10.1751C87.9665 11.8852 86.5414 12.8115 84.6888 12.8115C81.7673 12.8115 80.1284 10.6026 80.1284 8.25119C80.1284 5.89978 81.9098 3.61963 84.6175 3.61963C87.1114 3.61963 89.1066 5.401 89.1066 8.32244L81.2685 8.25119Z" fill="#0140BE"/>
<path d="M33.3136 10.6739C34.0261 11.3152 34.9525 11.6715 35.7363 11.6715C37.0901 11.6715 38.0164 11.0302 38.0164 10.1752C38.0164 9.53386 37.4464 9.17759 36.8764 8.96383C34.3112 7.82375 33.0286 7.39622 33.0286 5.82861C33.0286 4.40352 34.3112 3.54846 36.0213 3.54846C37.3039 3.54846 38.1589 3.97599 39.0853 4.75979L38.3727 5.47234C37.7314 4.97356 36.9476 4.61728 35.95 4.61728C34.8812 4.61728 34.0261 5.11607 34.0261 5.75736C34.0261 6.3274 34.4537 6.61242 35.095 6.96869C37.6602 8.10877 39.0853 8.5363 39.0853 10.1039C39.0853 11.4577 37.8739 12.6691 35.7363 12.6691C34.5249 12.6691 33.3136 12.2415 32.5298 11.4577L33.3136 10.6739Z" fill="#0140BE"/>
<path d="M52.7665 5.11598C53.4078 4.18967 54.1916 3.61963 55.0467 3.61963C55.5455 3.61963 55.8305 3.76214 56.0443 3.90465L55.4742 4.83096C55.3317 4.75971 55.1179 4.68845 54.8329 4.68845C54.0491 4.68845 53.194 5.47225 52.909 6.61233C52.7665 7.18237 52.6953 8.10868 52.6953 9.24876V12.5977H51.5552V3.83339H52.6953V5.11598H52.7665Z" fill="#0140BE"/>
<path d="M8.16007 -0.0144043C4.02727 -0.0144043 0.535761 3.04955 -0.105536 7.03982C1.17706 7.89488 2.74467 8.39366 4.38354 8.39366C5.59488 8.39366 6.59246 8.17989 7.80379 7.68111C9.37141 6.96856 10.5827 6.7548 11.9366 6.68354C11.2953 5.25845 9.79894 4.26088 8.08882 4.26088C6.23618 4.18963 4.52605 5.54347 4.09852 7.39609C3.52848 7.39609 2.95844 7.25358 2.3884 7.11107C2.95844 4.40339 5.30986 2.40826 8.16007 2.40826C11.4378 2.40826 14.0743 5.04468 14.0743 8.25115C13.7892 8.25115 13.433 8.25115 13.1479 8.25115C12.8629 8.25115 12.5779 8.25115 12.3641 8.25115C11.0103 8.3224 9.65643 8.67868 8.01756 9.31997C6.73497 9.81875 5.23861 10.0325 4.38354 10.0325C5.02484 11.4576 6.5212 12.4552 8.30258 12.4552C10.0127 12.4552 11.5091 11.4576 12.1504 10.0325L13.718 10.7451C12.7917 12.8115 10.654 14.1653 8.23133 14.1653C5.45237 14.1653 3.1722 12.3127 2.45965 9.81875C1.46208 9.39123 0.607016 8.82119 -0.176792 8.03738C-0.176792 8.03738 -0.176792 8.03738 -0.248047 7.96613C-0.248047 8.03738 -0.248047 8.10864 -0.248047 8.17989C-0.248047 12.8115 3.52848 16.5167 8.08882 16.5167C12.7204 16.5167 16.4257 12.7402 16.4257 8.17989C16.5682 3.7621 12.7917 -0.0144043 8.16007 -0.0144043Z" fill="#0140BE"/>
<path d="M95.8042 -0.0144043V16.7305" stroke="#414042" stroke-width="0.71255" stroke-miterlimit="10"/>
</g>
<defs>
<clipPath id="clip0_153_116190">
<rect width="205" height="16.74" fill="white"/>
</clipPath>
</defs>
</svg>
