<svg width="66" height="42" viewBox="0 0 66 42" fill="none" xmlns="http://www.w3.org/2000/svg">
<g clip-path="url(#clip0_589_119)">
<g clip-path="url(#clip1_589_119)">
<path d="M65.5865 25.4149H1.09619V25.8915H65.5865V25.4149Z" fill="#0000FF"/>
<path d="M23.9094 0.0706177C23.9094 2.64123 12.656 2.92146 12.656 5.68624H12.4067C12.4067 2.92146 1.1534 2.64123 1.1534 0.0706177H0.901855V2.75376C0.901855 5.95764 12.1772 5.65756 12.4067 8.73787H12.656C12.8855 5.65756 24.1609 5.95764 24.1609 2.75376V0.0706177H23.9094Z" fill="#0000FF"/>
<path d="M23.7152 6.29743C23.7152 8.84598 12.5568 9.124 12.5568 11.8667H12.3096C12.3096 9.124 1.15119 8.84598 1.15119 6.29743H0.901855V8.95851C0.901855 12.1337 12.0824 11.8358 12.3096 14.8897H12.5568C12.7862 11.8358 23.9645 12.1337 23.9645 8.9563V6.29523H23.7152V6.29743Z" fill="#0000FF"/>
<path d="M23.7152 12.3323C23.7152 14.8808 12.5568 15.1589 12.5568 17.9016H12.3096C12.3096 15.1589 1.15119 14.8808 1.15119 12.3323H0.901855V14.9934C0.901855 18.1686 12.0824 17.8707 12.3096 20.9245H12.5568C12.7862 17.8707 23.9645 18.1686 23.9645 14.9912V12.3301H23.7152V12.3323Z" fill="#0000FF"/>
<path d="M32.4993 9.25199C32.4993 9.7639 32.325 10.1567 31.9742 10.4325C31.6233 10.7083 31.1246 10.8451 30.4759 10.8451H29.8802V12.8332H29.291V7.77582H30.6017C31.866 7.77582 32.4971 8.26787 32.4971 9.24978L32.4993 9.25199ZM29.8802 10.342H30.4097C30.9305 10.342 31.3078 10.2582 31.5395 10.0905C31.7712 9.92277 31.8881 9.65137 31.8881 9.28067C31.8881 8.94749 31.7778 8.69815 31.5593 8.53266C31.3409 8.36937 30.9989 8.28773 30.5355 8.28773H29.878V10.342H29.8802Z" fill="#0000FF"/>
<path d="M35.8005 12.8354L35.6858 12.2948H35.6593C35.4695 12.5331 35.282 12.6942 35.0944 12.778C34.9069 12.8619 34.6708 12.9038 34.3905 12.9038C34.0154 12.9038 33.7198 12.8067 33.5079 12.6125C33.2939 12.4184 33.188 12.1425 33.188 11.7851C33.188 11.0194 33.7992 10.6178 35.0238 10.5803L35.6681 10.5605V10.3244C35.6681 10.0265 35.6041 9.80804 35.4762 9.66462C35.3482 9.52119 35.143 9.45279 34.8627 9.45279C34.5472 9.45279 34.1898 9.54988 33.7904 9.74405L33.6138 9.30495C33.8014 9.20345 34.0044 9.12402 34.2273 9.06665C34.4501 9.00928 34.673 8.98059 34.8958 8.98059C35.3482 8.98059 35.6836 9.07988 35.8998 9.28068C36.1183 9.48147 36.2264 9.80363 36.2264 10.2449V12.831H35.8005V12.8354ZM34.5031 12.4316C34.8605 12.4316 35.1408 12.3345 35.346 12.1381C35.549 11.9418 35.6527 11.6681 35.6527 11.3151V10.9731L35.079 10.9974C34.6222 11.0128 34.2935 11.0834 34.0927 11.2092C33.8919 11.335 33.7904 11.5313 33.7904 11.7961C33.7904 12.0035 33.8522 12.1624 33.9779 12.2705C34.1037 12.3786 34.2802 12.4338 34.5053 12.4338L34.5031 12.4316Z" fill="#0000FF"/>
<path d="M36.8086 9.04457H37.4242L38.2539 11.207C38.437 11.7012 38.5495 12.0565 38.5937 12.2749H38.6224C38.6533 12.158 38.715 11.9572 38.8099 11.6703C38.9048 11.3857 39.2181 10.5097 39.7499 9.04457H40.3655L38.7371 13.3605C38.576 13.7864 38.3863 14.0887 38.1722 14.2674C37.956 14.4462 37.6912 14.5344 37.3779 14.5344C37.2036 14.5344 37.0292 14.5146 36.8593 14.4748V14.0159C36.9851 14.0446 37.1285 14.0578 37.2852 14.0578C37.6802 14.0578 37.9604 13.8372 38.1281 13.3936L38.3399 12.853L36.8108 9.04236L36.8086 9.04457Z" fill="#0000FF"/>
<path d="M45.8113 12.8354V10.3685C45.8113 10.0662 45.7473 9.83894 45.6171 9.68889C45.4869 9.53885 45.2862 9.46162 45.0147 9.46162C44.6573 9.46162 44.3925 9.56312 44.2226 9.76833C44.0527 9.97353 43.9666 10.2891 43.9666 10.7149V12.831H43.3929V10.3641C43.3929 10.0618 43.329 9.83452 43.1988 9.68448C43.0708 9.53443 42.8678 9.45721 42.5942 9.45721C42.2345 9.45721 41.9719 9.56533 41.8042 9.77936C41.6365 9.9956 41.5527 10.3486 41.5527 10.8385V12.8266H40.979V9.03576H41.4468L41.5395 9.55429H41.5659C41.6741 9.36894 41.8263 9.22552 42.0249 9.12181C42.2213 9.01811 42.4419 8.96515 42.6869 8.96515C43.2804 8.96515 43.6666 9.17918 43.8497 9.60946H43.8762C43.9887 9.41087 44.152 9.2542 44.3682 9.13946C44.5823 9.02472 44.8272 8.96736 45.1008 8.96736C45.5289 8.96736 45.851 9.07768 46.0651 9.29833C46.2791 9.51899 46.385 9.86983 46.385 10.3553V12.8288H45.8113V12.8354Z" fill="#0000FF"/>
<path d="M49.17 12.9038C48.6095 12.9038 48.1682 12.7339 47.8438 12.3919C47.5195 12.0499 47.3584 11.5777 47.3584 10.9709C47.3584 10.3641 47.5084 9.87425 47.8085 9.51459C48.1086 9.15493 48.5146 8.9762 49.0199 8.9762C49.4943 8.9762 49.8716 9.13286 50.1475 9.44398C50.4233 9.75731 50.5623 10.1677 50.5623 10.6796V11.0437H47.952C47.963 11.4894 48.0755 11.827 48.2896 12.0565C48.5036 12.286 48.8037 12.4029 49.1898 12.4029C49.598 12.4029 50.0018 12.3169 50.4012 12.147V12.6589C50.1982 12.7472 50.0062 12.8089 49.8253 12.8465C49.6444 12.884 49.4259 12.9038 49.17 12.9038ZM49.0133 9.45501C48.7088 9.45501 48.4661 9.55431 48.2851 9.7529C48.1042 9.95148 47.9983 10.2251 47.9652 10.5759H49.9467C49.9467 10.2141 49.865 9.93604 49.7039 9.74407C49.5429 9.5521 49.3112 9.45501 49.0133 9.45501Z" fill="#0000FF"/>
<path d="M54.1366 12.8354V10.384C54.1366 10.075 54.066 9.84336 53.9248 9.69332C53.7836 9.54107 53.5629 9.46605 53.265 9.46605C52.8679 9.46605 52.5788 9.57417 52.3935 9.7882C52.2081 10.0022 52.1176 10.3575 52.1176 10.8495V12.8376H51.5439V9.04681H52.0117L52.1044 9.56534H52.1309C52.2478 9.37778 52.4133 9.23436 52.6251 9.13065C52.837 9.02915 53.0731 8.9762 53.3334 8.9762C53.7902 8.9762 54.1344 9.08652 54.3639 9.30718C54.5934 9.52783 54.7103 9.87867 54.7103 10.3641V12.8376H54.1366V12.8354Z" fill="#0000FF"/>
<path d="M57.1132 12.4294C57.2147 12.4294 57.3118 12.4228 57.4067 12.4073C57.5016 12.3919 57.5766 12.3764 57.6317 12.361V12.8001C57.57 12.831 57.4773 12.8553 57.3559 12.8751C57.2346 12.895 57.1264 12.9038 57.0294 12.9038C56.2968 12.9038 55.9305 12.5177 55.9305 11.7454V9.4903H55.3877V9.21448L55.9305 8.97618L56.1732 8.16638H56.5042V9.04458H57.6031V9.4903H56.5042V11.7211C56.5042 11.9484 56.5594 12.1249 56.6675 12.2463C56.7756 12.3676 56.9256 12.4294 57.1132 12.4294Z" fill="#0000FF"/>
<path d="M32.4706 20.684L31.8417 19.0755H29.8161L29.1939 20.684H28.5981L30.5973 15.6068H31.0915L33.0796 20.684H32.4706ZM31.6586 18.5459L31.0695 16.9793C30.9944 16.7807 30.915 16.538 30.8334 16.2489C30.7826 16.4696 30.7098 16.7145 30.6149 16.9793L30.0192 18.5459H31.6542H31.6586Z" fill="#0000FF"/>
<path d="M35.2026 20.7547C34.6531 20.7547 34.2295 20.5848 33.9272 20.2472C33.6271 19.9096 33.4771 19.4307 33.4771 18.8129C33.4771 18.1951 33.6293 17.6898 33.936 17.3434C34.2405 16.9969 34.6774 16.8248 35.2423 16.8248C35.4254 16.8248 35.6064 16.8447 35.7895 16.8844C35.9726 16.9241 36.1139 16.9705 36.2176 17.0234L36.041 17.5111C35.9153 17.4603 35.7763 17.4184 35.6262 17.3853C35.4762 17.3522 35.3438 17.3345 35.229 17.3345C34.459 17.3345 34.075 17.8266 34.075 18.8085C34.075 19.2741 34.1677 19.6315 34.3575 19.8809C34.545 20.1302 34.823 20.2538 35.1937 20.2538C35.5093 20.2538 35.8336 20.1854 36.1646 20.0508V20.5583C35.9109 20.6907 35.5909 20.7547 35.207 20.7547H35.2026Z" fill="#0000FF"/>
<path d="M38.5761 20.7547C38.0267 20.7547 37.603 20.5848 37.3007 20.2472C37.0006 19.9096 36.8506 19.4307 36.8506 18.8129C36.8506 18.1951 37.0028 17.6898 37.3095 17.3434C37.614 16.9969 38.0509 16.8248 38.6158 16.8248C38.799 16.8248 38.9799 16.8447 39.163 16.8844C39.3462 16.9241 39.4874 16.9705 39.5911 17.0234L39.4146 17.5111C39.2888 17.4603 39.1498 17.4184 38.9997 17.3853C38.8497 17.3522 38.7173 17.3345 38.6026 17.3345C37.8325 17.3345 37.4486 17.8266 37.4486 18.8085C37.4486 19.2741 37.5412 19.6315 37.731 19.8809C37.9185 20.1302 38.1966 20.2538 38.5673 20.2538C38.8828 20.2538 39.2072 20.1854 39.5381 20.0508V20.5583C39.2844 20.6907 38.9644 20.7547 38.5805 20.7547H38.5761Z" fill="#0000FF"/>
<path d="M42.0337 20.7547C41.4733 20.7547 41.032 20.5847 40.7076 20.2427C40.3832 19.9007 40.2222 19.4285 40.2222 18.8217C40.2222 18.2149 40.3722 17.7251 40.6723 17.3654C40.9724 17.0058 41.3784 16.827 41.8837 16.827C42.3581 16.827 42.7354 16.9837 43.0112 17.2948C43.287 17.6081 43.4261 18.0186 43.4261 18.5305V18.8945H40.8157C40.8268 19.3403 40.9393 19.6779 41.1533 19.9073C41.3674 20.1368 41.6674 20.2538 42.0536 20.2538C42.4618 20.2538 42.8656 20.1677 43.265 19.9978V20.5097C43.062 20.598 42.87 20.6598 42.6891 20.6973C42.5081 20.7348 42.2897 20.7547 42.0337 20.7547ZM41.8771 17.3058C41.5726 17.3058 41.3298 17.4051 41.1489 17.6037C40.968 17.8023 40.8621 18.0759 40.829 18.4268H42.8104C42.8104 18.0649 42.7288 17.7869 42.5677 17.5949C42.4066 17.4029 42.1749 17.3058 41.8771 17.3058Z" fill="#0000FF"/>
<path d="M46.1712 20.7547C45.9241 20.7547 45.699 20.7083 45.496 20.6179C45.293 20.5274 45.1209 20.3862 44.9819 20.1986H44.94C44.9665 20.4193 44.9819 20.6289 44.9819 20.8275V22.3875H44.4082V16.8954H44.876L44.9554 17.414H44.9819C45.1297 17.2066 45.3018 17.0565 45.4982 16.9638C45.6946 16.8712 45.9197 16.8248 46.1734 16.8248C46.6765 16.8248 47.0649 16.9969 47.3363 17.339C47.6099 17.6832 47.7467 18.1642 47.7467 18.7842C47.7467 19.4043 47.6077 19.8897 47.3297 20.2361C47.0516 20.5803 46.6655 20.7525 46.1734 20.7525L46.1712 20.7547ZM46.0874 17.3125C45.7012 17.3125 45.421 17.4206 45.2467 17.6346C45.0746 17.8487 44.9841 18.1907 44.9797 18.6585V18.7864C44.9797 19.3182 45.068 19.6999 45.2467 19.9294C45.4254 20.1589 45.7078 20.2736 46.1006 20.2736C46.4272 20.2736 46.6853 20.1412 46.8707 19.8765C47.056 19.6117 47.1487 19.2454 47.1487 18.7798C47.1487 18.3142 47.056 17.9435 46.8707 17.692C46.6853 17.4405 46.425 17.3125 46.0874 17.3125Z" fill="#0000FF"/>
<path d="M49.9706 20.2802C50.0721 20.2802 50.1692 20.2736 50.2641 20.2582C50.359 20.2427 50.434 20.2273 50.4892 20.2118V20.6509C50.4274 20.6818 50.3347 20.7061 50.2133 20.726C50.092 20.7458 49.9839 20.7546 49.8868 20.7546C49.1542 20.7546 48.7879 20.3685 48.7879 19.5962V17.3411H48.2451V17.0653L48.7879 16.827L49.0306 16.0172H49.3616V16.8954H50.4605V17.3411H49.3616V19.5719C49.3616 19.7992 49.4168 19.9757 49.5249 20.0971C49.633 20.2184 49.7831 20.2802 49.9706 20.2802Z" fill="#0000FF"/>
<path d="M53.5784 20.684L53.4636 20.1434H53.4371C53.2474 20.3817 53.0598 20.5428 52.8723 20.6267C52.6847 20.7105 52.4486 20.7524 52.1684 20.7524C51.7933 20.7524 51.4976 20.6554 51.2858 20.4612C51.0717 20.267 50.9658 19.9912 50.9658 19.6337C50.9658 18.8681 51.577 18.4665 52.8017 18.429L53.446 18.4091V18.173C53.446 17.8751 53.382 17.6567 53.254 17.5132C53.126 17.3698 52.9208 17.3014 52.6406 17.3014C52.325 17.3014 51.9676 17.3985 51.5682 17.5927L51.3917 17.1536C51.5792 17.0521 51.7822 16.9726 52.0051 16.9153C52.228 16.8579 52.4508 16.8292 52.6737 16.8292C53.126 16.8292 53.4614 16.9285 53.6776 17.1293C53.8961 17.3301 54.0042 17.6523 54.0042 18.0936V20.6796H53.5784V20.684ZM52.2809 20.2802C52.6384 20.2802 52.9186 20.1832 53.1238 19.9868C53.3268 19.7904 53.4305 19.5168 53.4305 19.1637V18.8217L52.8568 18.846C52.4001 18.8614 52.0713 18.932 51.8705 19.0578C51.6697 19.1836 51.5682 19.38 51.5682 19.6448C51.5682 19.8522 51.63 20.011 51.7558 20.1192C51.8815 20.2273 52.0581 20.2824 52.2831 20.2824L52.2809 20.2802Z" fill="#0000FF"/>
<path d="M57.7816 20.6841V18.2326C57.7816 17.9237 57.711 17.692 57.5698 17.542C57.4286 17.3897 57.2079 17.3147 56.9101 17.3147C56.5129 17.3147 56.2238 17.4228 56.0385 17.6368C55.8531 17.8509 55.7627 18.2061 55.7627 18.6982V20.6863H55.189V16.8954H55.6567L55.7494 17.414H55.7759C55.8928 17.2264 56.0583 17.083 56.2702 16.9793C56.482 16.8778 56.7181 16.8248 56.9785 16.8248C57.4352 16.8248 57.7794 16.9352 58.0089 17.1558C58.2384 17.3765 58.3553 17.7273 58.3553 18.2127V20.6863H57.7816V20.6841Z" fill="#0000FF"/>
<path d="M61.0497 20.7547C60.5003 20.7547 60.0766 20.5848 59.7744 20.2472C59.4743 19.9096 59.3242 19.4307 59.3242 18.8129C59.3242 18.1951 59.4765 17.6898 59.7832 17.3434C60.0877 16.9969 60.5246 16.8248 61.0894 16.8248C61.2726 16.8248 61.4535 16.8447 61.6367 16.8844C61.8198 16.9241 61.961 16.9705 62.0647 17.0234L61.8882 17.5111C61.7624 17.4603 61.6234 17.4184 61.4734 17.3853C61.3233 17.3522 61.1909 17.3345 61.0762 17.3345C60.3061 17.3345 59.9222 17.8266 59.9222 18.8085C59.9222 19.2741 60.0149 19.6315 60.2046 19.8809C60.3922 20.1302 60.6702 20.2538 61.0409 20.2538C61.3564 20.2538 61.6808 20.1854 62.0118 20.0508V20.5583C61.758 20.6907 61.4381 20.7547 61.0541 20.7547H61.0497Z" fill="#0000FF"/>
<path d="M64.5074 20.7547C63.9469 20.7547 63.5056 20.5847 63.1812 20.2427C62.8569 19.9007 62.6958 19.4285 62.6958 18.8217C62.6958 18.2149 62.8458 17.7251 63.1459 17.3654C63.446 17.0058 63.852 16.827 64.3573 16.827C64.8317 16.827 65.209 16.9837 65.4849 17.2948C65.7607 17.6081 65.8997 18.0186 65.8997 18.5305V18.8945H63.2894C63.3004 19.3403 63.4129 19.6779 63.627 19.9073C63.841 20.1368 64.1411 20.2538 64.5272 20.2538C64.9354 20.2538 65.3392 20.1677 65.7386 19.9978V20.5097C65.5356 20.598 65.3436 20.6598 65.1627 20.6973C64.9818 20.7348 64.7633 20.7547 64.5074 20.7547ZM64.3507 17.3058C64.0462 17.3058 63.8035 17.4051 63.6225 17.6037C63.4416 17.8023 63.3357 18.0759 63.3026 18.4268H65.2841C65.2841 18.0649 65.2024 17.7869 65.0413 17.5949C64.8803 17.4029 64.6486 17.3058 64.3507 17.3058Z" fill="#0000FF"/>
<path fill-rule="evenodd" clip-rule="evenodd" d="M18.3091 39.2299H17.2632V33.1686H18.3091V39.2299ZM16.7424 34.5455C16.7424 34.8455 16.4953 35.0883 16.193 35.0883C15.8907 35.0883 15.6436 34.8455 15.6436 34.5455C15.6436 34.2454 15.8907 34.0026 16.193 34.0026C16.4953 34.0026 16.7424 34.2454 16.7424 34.5455ZM14.7168 36.9726C15.1471 36.9726 15.4317 36.699 15.4317 36.2754C15.4317 35.8517 15.1361 35.5605 14.6904 35.5605C14.2866 35.5605 13.9997 35.8429 13.9997 36.2908C13.9997 36.7387 14.2689 36.9726 14.7146 36.9726H14.7168ZM13.7835 39.583C13.7835 39.8654 14.1034 40.0662 14.6418 40.0662C15.3744 40.0662 15.787 39.8345 15.787 39.5256C15.787 39.2851 15.5928 39.1924 15.1979 39.177L14.2292 39.1262C13.9269 39.2674 13.7835 39.3998 13.7835 39.583ZM12.9759 38.2458C12.9759 37.9391 13.2031 37.639 13.6334 37.4228C13.2296 37.1823 13.02 36.7917 13.02 36.2842C13.02 35.395 13.693 34.7727 14.6948 34.7727C15.1052 34.7727 15.5156 34.9029 15.8289 35.1677C16.0363 35.342 16.1996 35.5715 16.2901 35.8274C16.3519 35.9996 16.3695 36.1849 16.3695 36.368C16.3695 37.2065 15.7473 37.756 14.719 37.756C14.5337 37.756 14.3748 37.7383 14.238 37.7052C14.0438 37.7802 13.9512 37.8795 13.9512 37.9965C13.9512 38.2436 14.2446 38.2635 14.7985 38.2988C14.8956 38.3054 14.9993 38.312 15.114 38.3208C16.2504 38.4047 16.7314 38.6209 16.7314 39.4506C16.7314 40.2802 16.0165 40.7966 14.6595 40.7966C13.4216 40.7966 12.7905 40.4148 12.7905 39.7087C12.7905 39.3005 13.0355 39.0777 13.5562 38.91C13.1612 38.718 12.9759 38.5437 12.9759 38.2458ZM20.7848 38.4312C21.3497 38.4312 21.6211 37.9722 21.6211 37.0477C21.6211 36.1231 21.3519 35.673 20.7848 35.673C20.2177 35.673 19.9485 36.1231 19.9485 37.0477C19.9485 37.9722 20.2265 38.4312 20.7848 38.4312ZM20.7848 34.7793C21.9675 34.7793 22.6758 35.6134 22.6758 37.0477C22.6758 38.4819 21.9587 39.316 20.7848 39.316C19.6109 39.316 18.8938 38.4731 18.8938 37.0477C18.8938 35.6222 19.6021 34.7793 20.7848 34.7793ZM26.0032 37.0477C26.0032 37.9567 25.648 38.4488 25.0655 38.4488C24.7786 38.4488 24.5425 38.323 24.2799 38.0737V35.9974C24.5513 35.7546 24.7874 35.6311 25.0743 35.6311C25.6392 35.6311 26.0032 36.1319 26.0032 37.0477ZM23.2583 33.1708V38.2149C23.2583 38.4223 23.2407 38.7643 23.2076 39.2321H24.0174L24.1277 38.7665C24.4918 39.1505 24.8536 39.316 25.3258 39.316C26.3298 39.316 27.0491 38.4069 27.0491 37.0477C27.0491 35.6884 26.3144 34.7793 25.3611 34.7793C24.9132 34.7793 24.5933 34.9294 24.2888 35.2802V33.1708H23.2583ZM28.3929 38.0296C28.3929 38.3208 28.5628 38.4974 28.8651 38.4974C29.1939 38.4974 29.516 38.3473 29.836 38.0384V37.105C28.8563 37.2374 28.3929 37.5132 28.3929 38.0296ZM29.8625 38.846C29.4565 39.1372 29.0174 39.2785 28.5452 39.2785C27.8016 39.2785 27.3625 38.8372 27.3625 38.1112C27.3625 37.1359 28.1811 36.6196 29.8691 36.41V36.068C29.8691 35.7502 29.6506 35.5671 29.2446 35.5671C28.8386 35.5671 28.5099 35.7414 28.2738 36.068L27.5655 35.6267C27.9362 35.0596 28.5032 34.7771 29.2623 34.7771C30.3016 34.7771 30.8841 35.2692 30.8841 36.0702V38.6386C30.8841 38.7886 30.9106 38.9894 30.9525 39.2299H29.9551L29.8625 38.846ZM32.817 39.2299H31.7711V33.1686H32.817V39.2299ZM34.3329 38.0627C34.772 38.6121 35.1692 38.8879 35.659 38.8879C36.385 38.8879 36.8152 38.2458 36.8152 37.0543C36.8152 35.8628 36.385 35.2207 35.659 35.2207C35.1692 35.2207 34.772 35.4876 34.3329 36.0371V38.0627ZM33.8099 34.8698H34.1983L34.3329 35.4369H34.3748C34.7896 35.0044 35.2265 34.786 35.7009 34.786C36.663 34.786 37.3382 35.6112 37.3382 37.0455C37.3382 38.4797 36.663 39.3049 35.7009 39.3049C35.2287 39.3049 34.7896 39.0975 34.3748 38.6628H34.3329V40.8142H33.8099V34.8698ZM38.2009 38.12C38.2009 37.3786 38.885 37.1028 40.37 36.7785V38.12C39.8558 38.6364 39.4167 38.8945 38.9335 38.8945C38.4768 38.8945 38.1987 38.6033 38.1987 38.12H38.2009ZM38.8673 39.3116C39.4079 39.3116 39.8889 39.0953 40.37 38.654C40.3788 38.8372 40.4119 39.0291 40.4538 39.2299H40.9679C40.9172 38.9541 40.8929 38.7555 40.8929 38.6452V35.9356C40.8929 35.2846 40.3104 34.7926 39.4741 34.7926C38.7151 34.7926 38.2495 35.0838 37.9031 35.684L38.3091 35.9179C38.5716 35.4501 38.9247 35.2184 39.4057 35.2184C40.0147 35.2184 40.3766 35.5097 40.3766 35.9356V36.3614C38.5275 36.6858 37.6736 37.1359 37.6736 38.1443C37.6736 38.8195 38.1392 39.3116 38.8651 39.3116H38.8673ZM41.3585 34.8676H41.8814L43.1811 38.5768L44.4719 34.8676H44.9706L43.3069 39.5697C43.0024 40.4369 42.6471 40.7944 41.8881 40.7944C41.7535 40.7944 41.6012 40.7855 41.4313 40.7613V40.3442C41.5659 40.3685 41.6939 40.3773 41.802 40.3773C42.4353 40.3773 42.7221 40.0265 42.892 39.2012L41.3563 34.8676H41.3585ZM45.9768 34.8676H45.4957V39.2277H46.0032V36.0525C46.4423 35.5119 46.8726 35.2449 47.2786 35.2449C47.9031 35.2449 48.0377 35.6112 48.0377 36.3791V39.2299H48.5452V36.0547C48.9754 35.5141 49.4145 35.2471 49.8205 35.2471C50.445 35.2471 50.5796 35.6134 50.5796 36.3813V39.2321H51.0783V36.1981C51.0783 35.2648 50.7076 34.797 49.964 34.797C49.4918 34.797 49.0262 35.0463 48.5452 35.5472H48.4856C48.2826 35.0463 47.9273 34.797 47.4309 34.797C46.9675 34.797 46.4776 35.0463 46.0121 35.5472H45.979V34.872L45.9768 34.8676ZM53.543 35.2096C52.8501 35.2096 52.3603 35.7259 52.2764 36.6593H54.6992C54.6727 35.7171 54.2336 35.2096 53.543 35.2096ZM55.2155 38.1774C54.8272 38.9607 54.3285 39.3027 53.5518 39.3027C52.4551 39.3027 51.7535 38.4444 51.7535 37.0763C51.7535 35.6355 52.4794 34.7838 53.5341 34.7838C54.5889 34.7838 55.189 35.5097 55.189 36.8932V37.0344H52.2764C52.2852 38.2436 52.7486 38.8857 53.5849 38.8857C54.1497 38.8857 54.5138 38.6099 54.825 37.9678L55.2133 38.1752L55.2155 38.1774ZM56.3982 34.8676H55.8753V39.2277H56.3982V36.0525C56.8704 35.5119 57.336 35.2449 57.7751 35.2449C58.4503 35.2449 58.6025 35.6112 58.6025 36.3791V39.2299H59.1166V36.1959C59.1166 35.2626 58.7195 34.7948 57.9251 34.7948C57.4353 34.7948 56.9212 35.0441 56.396 35.5538V34.8698L56.3982 34.8676ZM61.2702 38.9011C61.3894 38.9011 61.5416 38.868 61.7336 38.8173V39.2343C61.5394 39.2851 61.3364 39.3182 61.1423 39.3182C60.5355 39.3182 60.2729 39.0181 60.2729 38.3848V35.2913H59.6153V34.8654H60.2729V33.5724H60.787V34.8654H61.7071V35.2913H60.787V38.4091C60.787 38.7423 60.9392 38.9011 61.268 38.9011H61.2702ZM64.505 38.0936C64.505 38.5525 64.1409 38.8945 63.5937 38.8945C63.0796 38.8945 62.6405 38.6364 62.2588 38.1355L61.8704 38.4444C62.3095 39.0291 62.8413 39.3027 63.5341 39.3027C64.4454 39.3027 65.0368 38.7776 65.0368 38.0516C65.0368 37.3257 64.5889 37.0918 63.7107 36.7674C63.64 36.741 63.5716 36.7167 63.5077 36.6924C62.8987 36.4673 62.5456 36.3394 62.5456 35.9179C62.5456 35.4965 62.8589 35.2008 63.34 35.2008C63.821 35.2008 64.1939 35.4082 64.5315 35.8517L64.9022 35.5847C64.5138 35.0596 64.0063 34.7838 63.4326 34.7838C62.5544 34.7838 62.005 35.2758 62.005 35.9422C62.005 36.6086 62.4684 36.8601 63.3642 37.1845C63.4084 37.1999 63.4525 37.2176 63.4944 37.2308C64.1409 37.4669 64.505 37.5993 64.505 38.0914V38.0936Z" fill="#003C71"/>
<path fill-rule="evenodd" clip-rule="evenodd" d="M7.43984 32.7802C7.58105 32.7604 7.72668 32.7869 7.85025 32.8597C8.01574 32.9546 8.13269 33.1245 8.15916 33.312C8.18564 33.4819 8.13931 33.6607 8.03339 33.7953C7.94292 33.9144 7.80833 33.9983 7.66269 34.0291C7.51706 34.0578 7.3604 34.038 7.23021 33.9674C7.10224 33.899 6.99853 33.7842 6.94557 33.6496C6.87276 33.4731 6.886 33.2591 6.98088 33.0936C7.07576 32.9259 7.25007 32.8067 7.44204 32.7802H7.43984ZM4.67946 33.1399C5.36128 32.9722 6.08502 32.9722 6.76905 33.1377C6.7183 33.2811 6.70506 33.4422 6.74036 33.59C6.7867 33.7953 6.91689 33.9806 7.09562 34.0931C7.23242 34.1792 7.3935 34.2255 7.55237 34.2189C7.83701 34.2167 8.10841 34.0446 8.24301 33.7953C8.89835 34.2476 9.43013 34.8831 9.7589 35.609C10.0965 36.3482 10.2179 37.1801 10.1164 37.9832C10.0413 38.5856 9.83834 39.1726 9.52721 39.6933C9.02633 40.5362 8.23639 41.2026 7.32289 41.5534C6.66755 41.8072 5.95043 41.8976 5.25316 41.8226C4.43233 41.7366 3.63798 41.41 2.99147 40.8937C2.33392 40.3729 1.82642 39.6602 1.55502 38.8659C1.20418 37.8487 1.24169 36.7013 1.66314 35.7105C1.90365 35.1412 2.26331 34.6249 2.71344 34.2035C3.26508 33.6871 3.9491 33.3142 4.68388 33.1355L4.67946 33.1399ZM4.65961 34.0225C4.34848 34.166 4.08149 34.3998 3.90938 34.6977C3.73286 35.0022 3.66005 35.3575 3.67991 35.7083C3.69314 35.9885 3.77037 36.271 3.92924 36.5049C4.0484 36.6836 4.21168 36.8314 4.39482 36.9418C4.15431 37.0653 3.92483 37.2286 3.77258 37.4581C3.66005 37.6258 3.60268 37.8354 3.63798 38.0362C3.66225 38.1774 3.74169 38.3076 3.8454 38.4025C3.97999 38.5261 4.14328 38.6121 4.30435 38.6938C4.12121 38.7555 3.93586 38.8261 3.77479 38.9365C3.65784 39.0181 3.55413 39.1218 3.49235 39.2498C3.4085 39.4175 3.39968 39.6117 3.42174 39.7926C3.44381 39.978 3.51442 40.1567 3.63136 40.3023C3.75272 40.4568 3.91821 40.5715 4.09473 40.6554C4.28891 40.7458 4.49632 40.8032 4.70594 40.8407C4.97073 40.8893 5.24213 40.9069 5.51133 40.9113C5.93719 40.9135 6.36967 40.8826 6.78008 40.7635C7.0912 40.673 7.39791 40.5274 7.62298 40.2891C7.76861 40.1412 7.87452 39.9559 7.93189 39.7551C7.99367 39.5389 8.00029 39.3094 7.97602 39.0843C7.95396 38.8968 7.901 38.7092 7.78626 38.5547C7.68917 38.4223 7.55457 38.3231 7.40894 38.2524C7.20815 38.1576 6.9897 38.1068 6.77346 38.0693C6.28361 37.9855 5.78494 37.981 5.29288 37.9325C5.17593 37.9193 5.05457 37.9038 4.94425 37.8619C4.87585 37.8332 4.80744 37.7891 4.77876 37.7163C4.75007 37.6412 4.75228 37.5486 4.79641 37.4802C4.85157 37.3897 4.94645 37.3323 5.04134 37.2882C5.06119 37.2816 5.07885 37.2683 5.09871 37.2683C5.34584 37.3257 5.60179 37.3345 5.85334 37.3191C6.23948 37.2948 6.63004 37.1933 6.94778 36.966C7.10003 36.8579 7.23021 36.7211 7.33172 36.5645C7.46852 36.3504 7.54134 36.1033 7.56119 35.8517C7.57664 35.6598 7.56561 35.4656 7.53251 35.2758C7.45969 34.8919 7.24125 34.5433 6.94557 34.2873C6.60356 33.9916 6.15343 33.835 5.70329 33.8173C5.34584 33.8063 4.98176 33.8637 4.6574 34.0159L4.65961 34.0225ZM5.48705 34.7573C5.65254 34.733 5.82686 34.7529 5.98352 34.8125C6.1446 34.872 6.28361 34.9868 6.36967 35.1368C6.47558 35.3156 6.50206 35.5318 6.47558 35.7348C6.45131 35.9069 6.37849 36.0768 6.24831 36.1982C6.09164 36.3504 5.86658 36.4166 5.65254 36.4166C5.44734 36.4166 5.2311 36.3681 5.07223 36.2335C4.93322 36.1187 4.85378 35.9444 4.82951 35.7679C4.80524 35.5803 4.82068 35.384 4.89791 35.2074C4.95969 35.0574 5.07443 34.9272 5.21786 34.8478C5.30171 34.8014 5.39217 34.7705 5.48705 34.7573ZM5.06119 38.9563C5.07664 38.9497 5.09209 38.9431 5.10974 38.9475C5.50029 38.9696 5.88864 38.9872 6.2792 39.0093C6.40718 39.0181 6.53516 39.0336 6.65431 39.0777C6.74257 39.1108 6.82863 39.1682 6.86614 39.2586C6.91468 39.3712 6.90585 39.5035 6.84848 39.6095C6.78008 39.733 6.65872 39.8191 6.53516 39.8809C6.36305 39.9625 6.17329 40.0066 5.98352 40.0309C5.807 40.053 5.62607 40.0596 5.44734 40.053C5.25096 40.0442 5.05237 40.0088 4.87585 39.9228C4.76331 39.8654 4.65519 39.7816 4.60224 39.6624C4.54266 39.5322 4.55369 39.3689 4.64416 39.2542C4.75228 39.1174 4.90894 39.0336 5.06119 38.9585V38.9563Z" fill="#003C71"/>
<path d="M39.013 0H40.1317V5.07061H39.013V0ZM31.0916 4.50132H30.3458V2.63239H31.0916C31.6631 2.63239 32.0691 2.90159 32.0757 3.52604C32.0801 4.15269 31.7712 4.49912 31.0916 4.49912M30.3458 0.564872H31.0055C31.4821 0.562665 31.8793 0.71271 31.8793 1.27758C31.8793 1.83363 31.5417 2.0609 31.0011 2.06311H30.3458V0.567079V0.564872ZM31.9212 2.28817C32.453 2.17123 33.0024 1.891 33.0024 1.12312C33.0024 0.355252 32.3714 0 31.6675 0H29.2271V5.07061H31.4446C32.4331 5.07282 33.2672 4.60062 33.2672 3.60327C33.2672 2.68314 32.453 2.31906 31.9212 2.28817ZM35.8886 0.714916C36.5571 0.710503 36.8418 1.31068 36.855 2.59047C36.8683 3.8526 36.5836 4.4263 35.8886 4.4263C35.1935 4.4263 34.9243 3.8526 34.9243 2.59047C34.9243 1.32833 35.1891 0.719329 35.8886 0.714916ZM35.8974 5.14784C37.0713 5.14784 38.1701 4.45719 38.1613 2.59047C38.1525 0.712709 37.1662 -0.00882613 35.8974 0.00220653C34.686 0.00882613 33.6158 0.714916 33.6181 2.59047C33.6247 4.46602 34.7257 5.14784 35.8974 5.14784Z" fill="#0000FF"/>
<path d="M47.228 0.00439453V5.07059H48.3578V2.5397L49.803 5.07059H51.2329L49.5228 2.29257L50.946 0.00660106L50.006 0.00439453L48.3578 2.53308V0.00439453H47.228Z" fill="#0000FF"/>
<path d="M45.3478 3.23255C45.3478 3.23255 45.3809 4.34464 44.4365 4.34464C43.4922 4.34464 43.5253 3.23255 43.5253 3.23255V0.00439453H42.3955V3.23255C42.3955 5.20298 44.4343 5.18974 44.4343 5.18974C44.4343 5.18974 46.4732 5.20298 46.4732 3.23255V0.00439453H45.3434V3.23255H45.3478Z" fill="#0000FF"/>
</g>
</g>
<defs>
<clipPath id="clip0_589_119">
<rect width="65" height="41.85" fill="white" transform="translate(0.901855)"/>
</clipPath>
<clipPath id="clip1_589_119">
<rect width="65" height="41.8491" fill="white" transform="translate(0.901855)"/>
</clipPath>
</defs>
</svg>
