<svg width="18" height="25" viewBox="0 0 18 25" fill="none" xmlns="http://www.w3.org/2000/svg">
<g clip-path="url(#clip0_630_51481)">
<path d="M16.1221 11.2331L1.73276 11.0551C1.05079 11.0475 0.486281 11.5931 0.478704 12.2788L0.380198 20.254C0.353678 22.2999 2.00175 23.9858 4.04385 24.0086L13.7656 24.1298C15.8115 24.1563 17.4974 22.512 17.5202 20.4662L17.6187 12.491C17.6263 11.809 17.0769 11.2445 16.3949 11.2369H16.0577L16.0956 8.24767C16.1449 4.3908 13.0457 1.2121 9.18508 1.16285C5.32821 1.11738 2.14951 4.21273 2.10026 8.07718" stroke="white" stroke-miterlimit="10"/>
<path d="M8.99923 16.5828C9.61678 16.5904 10.1093 17.0981 10.1017 17.7119C10.0942 18.3256 9.59026 18.8257 8.97271 18.8182C8.35515 18.8106 7.86263 18.3029 7.8702 17.6891C7.87778 17.0754 8.38167 16.5753 8.99923 16.5828Z" stroke="white" stroke-miterlimit="10"/>
</g>
<defs>
<clipPath id="clip0_630_51481">
<rect width="18" height="23.7247" fill="white" transform="translate(0 0.78418)"/>
</clipPath>
</defs>
</svg>
