<svg width="109" height="20" viewBox="0 0 109 20" fill="none" xmlns="http://www.w3.org/2000/svg">
<path fill-rule="evenodd" clip-rule="evenodd" d="M8.44661 15.4138H5.52273L3.33017 6.8803C3.22611 6.48776 3.00514 6.14073 2.68011 5.97717C1.86895 5.56614 0.975102 5.23902 0 5.07404V4.7455H4.71014C5.36021 4.7455 5.84776 5.23902 5.92902 5.81219L7.06664 11.9677L9.9891 4.7455H12.8317L8.44661 15.4138ZM14.4569 15.4138H11.6956L13.9694 4.7455H16.7307L14.4569 15.4138ZM20.305 7.70148C20.3862 7.12689 20.8738 6.79835 21.4426 6.79835C22.3364 6.71586 23.3101 6.88084 24.1227 7.29045L24.6102 4.99352C23.7976 4.66498 22.9038 4.5 22.0926 4.5C19.4125 4.5 17.4623 5.97772 17.4623 8.0286C17.4623 9.5888 18.8437 10.408 19.8188 10.9015C20.8738 11.3936 21.2801 11.7222 21.1988 12.2143C21.1988 12.9524 20.3862 13.281 19.575 13.281C18.5999 13.281 17.6248 13.0349 16.7324 12.6239L16.2449 14.9222C17.22 15.3318 18.2749 15.4968 19.25 15.4968C22.2552 15.5779 24.1227 14.1016 24.1227 11.8857C24.1227 9.09528 20.305 8.93172 20.305 7.70148ZM33.7854 15.4138L31.5929 4.7455H29.2378C28.7503 4.7455 28.2627 5.07404 28.1002 5.56614L24.0401 15.4138H26.8827L27.4501 13.855H30.9428L31.2679 15.4138H33.7854ZM29.6457 7.61904L30.4568 11.6397H28.183L29.6457 7.61904Z" fill="#1A1F71"/>
<path d="M52.1746 4.49707H46.0496V15.5039H52.1746V4.49707Z" fill="#FF5F00"/>
<path d="M46.4376 10C46.4366 8.93996 46.6769 7.89361 47.1401 6.94013C47.6033 5.98666 48.2773 5.15106 49.1112 4.4966C48.0786 3.68492 46.8384 3.18015 45.5324 3.03998C44.2265 2.89981 42.9074 3.1299 41.726 3.70395C40.5447 4.278 39.5486 5.17284 38.8518 6.28621C38.1549 7.39958 37.7854 8.68654 37.7854 10C37.7854 11.3135 38.1549 12.6004 38.8518 13.7138C39.5486 14.8272 40.5447 15.722 41.726 16.2961C42.9074 16.8701 44.2265 17.1002 45.5324 16.96C46.8384 16.8199 48.0786 16.3151 49.1112 15.5034C48.2773 14.8489 47.6033 14.0133 47.1401 13.0599C46.6769 12.1064 46.4366 11.06 46.4376 10Z" fill="#EB001B"/>
<path d="M60.4375 10C60.4376 11.3134 60.0681 12.6004 59.3713 13.7138C58.6744 14.8271 57.6784 15.722 56.4971 16.296C55.3157 16.8701 53.9967 17.1002 52.6908 16.96C51.3848 16.8199 50.1447 16.3151 49.1121 15.5034C49.9452 14.8483 50.6187 14.0125 51.0819 13.0592C51.545 12.1059 51.7856 11.0599 51.7856 10C51.7856 8.94013 51.545 7.8941 51.0819 6.94078C50.6187 5.98746 49.9452 5.15172 49.1121 4.4966C50.1447 3.68492 51.3848 3.18015 52.6908 3.03998C53.9967 2.89981 55.3157 3.1299 56.4971 3.70396C57.6784 4.27801 58.6744 5.17287 59.3713 6.28623C60.0681 7.3996 60.4376 8.68656 60.4375 10Z" fill="#F79E1B"/>
<path d="M59.7672 14.3375V14.1122H59.8581V14.0662H59.6267V14.1122H59.7176V14.3375H59.7672ZM60.2165 14.3375V14.0658H60.1456L60.064 14.2527L59.9824 14.0658H59.9114V14.3375H59.9615V14.1326L60.038 14.3092H60.09L60.1665 14.1321V14.3375H60.2165Z" fill="#F79E1B"/>
<rect x="64.4375" y="3" width="20.4167" height="14" fill="#1F72CD"/>
<path fill-rule="evenodd" clip-rule="evenodd" d="M68.0977 7.95775L66.1875 12.185H68.4743L68.7578 11.511H69.4058L69.6893 12.185H72.2064V11.6706L72.4307 12.185H73.7328L73.9571 11.6597V12.185H79.192L79.8286 11.5285L80.4246 12.185L83.1134 12.1905L81.1971 10.0832L83.1134 7.95775H80.4663L79.8467 8.60211L79.2694 7.95775H73.5745L73.0854 9.04884L72.585 7.95775H70.3029V8.45466L70.0491 7.95775H68.0977ZM68.5399 8.558H69.6546L70.9216 11.4245V8.558H72.1427L73.1214 10.6133L74.0233 8.558H75.2383V11.5913H74.499L74.493 9.21443L73.4151 11.5913H72.7538L71.6699 9.21443V11.5913H70.149L69.8607 10.9113H68.3029L68.0152 11.5907H67.2003L68.5399 8.558ZM78.9217 8.558H75.9156V11.5895H78.8752L79.8291 10.5848L80.7485 11.5895H81.7097L80.3127 10.0826L81.7097 8.558H80.7902L79.8412 9.55117L78.9217 8.558ZM69.0828 9.07122L68.5696 10.2826H69.5954L69.0828 9.07122ZM76.657 9.73959V9.18586V9.18533H78.5328L79.3512 10.0709L78.4965 10.9613H76.657V10.3568H78.297V9.73959H76.657Z" fill="white"/>
<path d="M88.854 3.07202H108.464V14.8152C108.464 15.982 107.519 16.928 106.352 16.928H88.854V3.07202Z" fill="white"/>
<path d="M108.464 11.864V15.5213C108.464 16.3653 107.761 16.928 107.058 16.928H95.8044C96.9344 16.7674 98.5764 16.5163 100.306 16.084C101.994 15.662 103.119 15.24 103.822 14.9586C104.699 14.6082 106.431 13.552 107.058 13.13C107.513 12.8237 108.042 12.4266 108.464 11.864Z" fill="#FF5000"/>
<path fill-rule="evenodd" clip-rule="evenodd" d="M106.179 9.11265C106.791 9.11265 107.127 9.38472 107.127 9.89864C107.157 10.2916 106.882 10.6242 106.516 10.6846L107.341 11.8032H106.699L105.996 10.7149H105.935V11.8032H105.415V9.11265H106.179ZM105.933 10.3525H106.086C106.422 10.3525 106.575 10.2013 106.575 9.92923C106.575 9.68739 106.422 9.53624 106.086 9.53624H105.933V10.3525ZM103.611 11.8044H105.078V11.3509H104.131V10.6254H105.048V10.1719H104.131V9.56733H105.078V9.11388H103.611V11.8044ZM102.085 10.9277L101.382 9.11388H100.832L101.963 11.8648H102.238L103.369 9.11388H102.819L102.085 10.9277ZM95.8783 10.4733C95.8783 11.2291 96.4897 11.8639 97.2539 11.8639C97.4984 11.8639 97.7124 11.8034 97.9264 11.7127V11.1081C97.7736 11.2895 97.5596 11.4104 97.315 11.4104C96.8259 11.4104 96.4285 11.0477 96.4285 10.564V10.5035C96.398 10.0198 96.7954 9.59662 97.2845 9.56639C97.529 9.56639 97.7736 9.68731 97.9264 9.86869V9.26408C97.743 9.14316 97.4984 9.11293 97.2845 9.11293C96.4897 9.05247 95.8783 9.68731 95.8783 10.4733ZM94.9322 10.1409C94.6265 10.02 94.5348 9.95954 94.5348 9.80839C94.5653 9.62701 94.7182 9.47586 94.9016 9.50609C95.0544 9.50609 95.2073 9.59678 95.3296 9.7177L95.6047 9.35493C95.3907 9.17355 95.1156 9.05263 94.8405 9.05263C94.4125 9.0224 94.0457 9.35493 94.0151 9.77816V9.80839C94.0151 10.1712 94.168 10.3828 94.6571 10.5339C94.7793 10.5641 94.9016 10.6246 95.0239 10.6851C95.1156 10.7455 95.1767 10.8362 95.1767 10.9571C95.1767 11.1688 94.9933 11.3501 94.8099 11.3501H94.7793C94.5348 11.3501 94.3208 11.199 94.2291 10.9874L93.8928 11.3199C94.0763 11.6524 94.4431 11.8338 94.8099 11.8338C95.299 11.8641 95.6964 11.5013 95.7269 11.0176V10.9269C95.6964 10.5641 95.5435 10.3828 94.9322 10.1409ZM93.1567 11.8044H93.6763V9.11388H93.1567V11.8044ZM90.7419 9.11338H91.5062H91.659C92.3926 9.14361 92.9734 9.74822 92.9429 10.4738C92.9429 10.8667 92.7595 11.2295 92.4538 11.5016C92.1787 11.7132 91.8424 11.8341 91.5062 11.8039H90.7419V9.11338ZM91.412 11.3505C91.6565 11.3808 91.9316 11.2901 92.115 11.1389C92.2984 10.9576 92.3901 10.7157 92.3901 10.4436C92.3901 10.2018 92.2984 9.95995 92.115 9.77857C91.9316 9.62742 91.6565 9.53673 91.412 9.56696H91.2591V11.3505H91.412Z" fill="black"/>
<path fill-rule="evenodd" clip-rule="evenodd" d="M99.484 9.05081C98.7198 9.05081 98.0779 9.65542 98.0779 10.4414C98.0779 11.1972 98.6893 11.832 99.484 11.8622C100.279 11.8925 100.89 11.2576 100.921 10.4716C100.89 9.68565 100.279 9.05081 99.484 9.05081V9.05081Z" fill="url(#paint0_linear_2355_13842)"/>
<defs>
<linearGradient id="paint0_linear_2355_13842" x1="98.5818" y1="9.33215" x2="100.129" y2="11.8641" gradientUnits="userSpaceOnUse">
<stop stop-color="#993B1A"/>
<stop offset="0.239583" stop-color="#FF5000"/>
<stop offset="1" stop-color="#EB8B1F"/>
</linearGradient>
</defs>
</svg>
