<svg width="50" height="18" viewBox="0 0 50 18" fill="none" xmlns="http://www.w3.org/2000/svg">
<rect width="50" height="18" fill="white"/>
<g clip-path="url(#clip0_176_487)">
<path d="M2.76799 11.828C2.70499 11.765 2.66299 11.625 2.68399 11.52L3.66399 7.88C3.68499 7.775 3.78999 7.677 3.88799 7.656L7.50699 6.676C7.61199 6.655 7.75199 6.697 7.81499 6.76L10.461 9.427C10.524 9.49 10.566 9.63 10.545 9.735L9.58599 13.375C9.56499 13.48 9.45999 13.578 9.36199 13.599L5.74299 14.572C5.63799 14.593 5.49799 14.551 5.43499 14.488L2.76799 11.828Z" fill="#1976D2"/>
<path d="M8.753 5.822C8.69 5.759 8.648 5.619 8.711 5.535L10.44 2.14C10.482 2.056 10.601 2 10.706 2L14.451 2.588C14.556 2.609 14.654 2.693 14.654 2.791L15.242 6.557C15.263 6.662 15.2 6.781 15.102 6.823L11.721 8.552C11.637 8.594 11.497 8.573 11.434 8.51L8.746 5.822H8.753Z" fill="#12DE4C"/>
<path d="M20.996 7.838H20.135L19.05 5.941H18.546V7.838H17.769V3.26H19.456C20.373 3.26 20.912 3.729 20.912 4.576C20.912 5.423 20.52 5.738 19.827 5.878L20.996 7.845V7.838ZM19.351 3.925H18.546V5.311H19.358C19.848 5.311 20.107 5.073 20.107 4.611C20.107 4.149 19.848 3.925 19.351 3.925ZM24.587 6.081V6.333H22.151C22.214 6.991 22.536 7.299 23.145 7.299C23.754 7.299 23.887 7.166 24.125 6.928L24.468 7.439C24.132 7.754 23.67 7.929 23.124 7.929C22.032 7.929 21.381 7.25 21.381 6.095C21.381 4.94 22.039 4.226 23.012 4.226C23.985 4.226 24.594 4.926 24.594 6.081H24.587ZM23.012 4.87C22.536 4.87 22.221 5.171 22.158 5.808H23.852C23.803 5.185 23.502 4.87 23.019 4.87H23.012ZM26.785 7.922C25.777 7.922 25.091 7.215 25.091 6.088C25.091 4.961 25.763 4.219 26.792 4.219C27.821 4.219 27.681 4.387 27.968 4.681L27.569 5.199C27.366 4.989 27.114 4.884 26.82 4.884C26.225 4.884 25.847 5.325 25.847 6.074C25.847 6.823 26.211 7.243 26.82 7.243C27.429 7.243 27.373 7.138 27.583 6.942L27.961 7.467C27.66 7.754 27.247 7.915 26.785 7.915V7.922ZM30.467 4.226C31.216 4.226 31.685 4.709 31.685 5.549V7.838H30.943V5.64C30.943 5.15 30.698 4.891 30.243 4.891C29.788 4.891 29.613 5.052 29.403 5.381V7.831H28.668V2.987H29.403V4.765C29.627 4.429 30.005 4.226 30.467 4.226ZM34.38 4.226C35.129 4.226 35.598 4.709 35.598 5.549V7.838H34.856V5.64C34.856 5.143 34.611 4.891 34.156 4.891C33.701 4.891 33.526 5.052 33.316 5.381V7.831H32.581V4.31H33.316V4.758C33.54 4.422 33.918 4.219 34.38 4.219V4.226ZM38.636 6.774V4.317H39.378V7.838H38.636V7.39C38.419 7.726 38.041 7.922 37.586 7.922C36.879 7.922 36.424 7.467 36.424 6.641V4.31H37.159V6.522C37.159 6.998 37.39 7.257 37.817 7.257C38.244 7.257 38.44 7.096 38.636 6.774ZM42.15 4.226C42.899 4.226 43.368 4.709 43.368 5.549V7.838H42.626V5.64C42.626 5.143 42.381 4.891 41.926 4.891C41.471 4.891 41.296 5.052 41.086 5.381V7.831H40.351V4.31H41.086V4.758C41.31 4.422 41.688 4.219 42.15 4.219V4.226ZM46.588 4.814V4.317H47.323V7.712C47.323 8.72 46.672 9.273 45.601 9.273C44.53 9.273 44.551 9.119 44.187 8.846L44.474 8.279C44.775 8.51 45.167 8.629 45.58 8.629C46.231 8.629 46.588 8.293 46.588 7.698V7.292C46.364 7.649 45.993 7.859 45.517 7.859C44.621 7.859 44.026 7.11 44.026 6.046C44.026 4.982 44.642 4.219 45.51 4.219C46.378 4.219 46.364 4.45 46.588 4.807V4.814ZM45.706 7.194C46.238 7.194 46.616 6.767 46.616 6.039C46.616 5.311 46.238 4.884 45.706 4.884C45.174 4.884 44.796 5.311 44.796 6.039C44.796 6.767 45.174 7.194 45.706 7.194ZM19.785 12.192C20.254 12.388 20.541 12.787 20.541 13.333C20.541 14.131 19.932 14.656 19.008 14.656C18.084 14.656 17.86 14.432 17.496 13.991L17.839 13.606C18.105 13.949 18.518 14.138 18.987 14.138C19.456 14.138 19.953 13.837 19.953 13.305C19.953 12.773 19.568 12.486 18.973 12.486H18.476V11.975H18.959C19.477 11.975 19.82 11.695 19.82 11.205C19.82 10.715 19.484 10.442 18.959 10.442C18.434 10.442 18.182 10.61 17.93 10.911L17.601 10.519C17.958 10.113 18.448 9.91 18.994 9.91C19.827 9.91 20.415 10.386 20.415 11.163C20.415 11.94 20.184 12.003 19.792 12.192H19.785ZM22.655 14.656C21.661 14.656 21.129 13.823 21.129 12.283C21.129 10.743 21.661 9.91 22.655 9.91C23.649 9.91 24.195 10.743 24.195 12.283C24.195 13.823 23.656 14.656 22.655 14.656ZM22.655 14.131C23.285 14.131 23.6 13.536 23.6 12.283C23.6 11.03 23.292 10.435 22.655 10.435C22.018 10.435 21.71 11.03 21.71 12.283C21.71 13.536 22.025 14.131 22.655 14.131ZM26.365 9.994H29.767V10.519H28.36V14.572H27.765V10.519H26.365V9.994ZM32.35 11.674V11.079H32.91V14.565H32.35V13.97C32.133 14.39 31.727 14.642 31.23 14.642C30.383 14.642 29.781 13.921 29.781 12.815C29.781 11.709 30.383 10.988 31.23 10.988C32.077 10.988 32.133 11.254 32.35 11.66V11.674ZM31.377 14.138C31.965 14.138 32.371 13.655 32.371 12.822C32.371 11.989 31.958 11.506 31.377 11.506C30.796 11.506 30.369 11.989 30.369 12.822C30.369 13.655 30.775 14.138 31.377 14.138ZM36.235 11.674V11.079H36.795V14.474C36.795 15.461 36.179 15.993 35.178 15.993C34.177 15.993 34.163 15.832 33.834 15.552L34.079 15.111C34.359 15.349 34.744 15.489 35.171 15.489C35.843 15.489 36.242 15.132 36.242 14.46V13.942C36.025 14.355 35.626 14.593 35.129 14.593C34.268 14.593 33.673 13.872 33.673 12.794C33.673 11.716 34.275 10.988 35.122 10.988C35.969 10.988 36.025 11.254 36.242 11.66L36.235 11.674ZM35.262 14.103C35.85 14.103 36.256 13.627 36.256 12.801C36.256 11.975 35.843 11.513 35.262 11.513C34.681 11.513 34.254 11.989 34.254 12.801C34.254 13.613 34.667 14.103 35.262 14.103ZM40.61 12.829V13.025H38.146C38.195 13.795 38.566 14.159 39.224 14.159C39.882 14.159 39.987 14.005 40.218 13.746L40.498 14.145C40.183 14.467 39.742 14.656 39.196 14.656C38.174 14.656 37.544 13.991 37.544 12.843C37.544 11.695 38.167 11.002 39.084 11.002C40.001 11.002 40.596 11.681 40.596 12.829H40.61ZM39.105 11.506C38.566 11.506 38.216 11.87 38.153 12.584H40.043C39.994 11.884 39.651 11.506 39.098 11.506H39.105Z" fill="black"/>
</g>
<defs>
<clipPath id="clip0_176_487">
<rect width="46" height="14" fill="white" transform="translate(2 2)"/>
</clipPath>
</defs>
</svg>
