<svg width="122" height="28" viewBox="0 0 122 28" fill="none" xmlns="http://www.w3.org/2000/svg">
<g clip-path="url(#clip0_2034_9892)">
<path d="M0.761354 21.8188C0.622803 21.6804 0.530436 21.3729 0.576619 21.1422L2.74725 13.0544C2.79344 12.8237 3.02435 12.6085 3.23988 12.5623L11.2912 10.3943C11.5221 10.3482 11.83 10.4404 11.9686 10.5788L17.8493 16.4986C17.9879 16.637 18.0802 16.9445 18.034 17.1752L15.9096 25.263C15.8634 25.4937 15.6325 25.709 15.417 25.7551L7.36562 27.9077C7.1347 27.9539 6.82681 27.8616 6.68826 27.7232L0.761354 21.8188Z" fill="#1976D2"/>
<path d="M14.0619 8.48764C13.9234 8.34926 13.831 8.04174 13.9696 7.85722L17.8028 0.307523C17.8952 0.123009 18.1569 0 18.3878 0L26.7162 1.30697C26.9472 1.3531 27.1627 1.53762 27.1627 1.75288L28.4712 10.1175C28.5174 10.3482 28.3789 10.6096 28.1633 10.7018L20.6508 14.5459C20.4661 14.6381 20.1582 14.592 20.0196 14.4536L14.0465 8.48764H14.0619Z" fill="#12DE4C"/>
<path d="M36.3841 12.4701L38.9396 15.9451H37.3232L35.1063 12.9006V15.9451H33.6901V9.27182H35.1063V12.1318L37.2924 9.27182H38.8626L36.3995 12.4701H36.3841ZM42.8806 11.3784V10.7479H44.2199V15.9451H42.8806V15.33C42.5573 15.7759 42.0185 16.0835 41.3411 16.0835C40.048 16.0835 39.1397 14.961 39.1397 13.3619C39.1397 11.7628 40.048 10.6249 41.3411 10.6249C42.6343 10.6249 42.5573 10.9325 42.8806 11.3937V11.3784ZM41.7414 14.8534C42.4188 14.8534 42.9268 14.3306 42.9268 13.3465C42.9268 12.3624 42.4188 11.8396 41.7414 11.8396C41.064 11.8396 40.556 12.3624 40.556 13.3465C40.556 14.3306 41.0486 14.8534 41.7414 14.8534ZM48.7767 14.2383V10.7479H50.116V15.9451H48.7767V15.3608C48.4688 15.8067 47.9146 16.0835 47.2527 16.0835C46.175 16.0835 45.4823 15.3915 45.4823 14.1307V10.7479H46.8216V13.8847C46.8216 14.5151 47.0987 14.8534 47.6837 14.8534C48.2687 14.8534 48.515 14.6535 48.7767 14.2383ZM53.195 10.4865V10.7479H54.6266V11.9319H53.195V15.9451H51.8556V11.9319H50.9781V10.7479H51.8556V10.4404C51.8556 9.27183 52.5792 8.68753 53.6876 8.68753C54.796 8.68753 54.5189 8.77979 54.8114 8.9028L54.4727 9.933C54.3034 9.8715 54.1032 9.82537 53.8877 9.82537C53.3797 9.82537 53.195 10.056 53.195 10.5019V10.4865ZM61.2771 11.3784V10.7479H62.6164V15.9451H61.2771V15.33C60.9538 15.7759 60.415 16.0835 59.7376 16.0835C58.4445 16.0835 57.5362 14.961 57.5362 13.3619C57.5362 11.7628 58.4445 10.6249 59.7376 10.6249C61.0308 10.6249 60.9384 10.9325 61.2771 11.3937V11.3784ZM60.1379 14.8534C60.8153 14.8534 61.3233 14.3306 61.3233 13.3465C61.3233 12.3624 60.8153 11.8396 60.1379 11.8396C59.4605 11.8396 58.9525 12.3624 58.9525 13.3465C58.9525 14.3306 59.4451 14.8534 60.1379 14.8534ZM67.1578 14.2383V10.7479H68.4971V15.9451H67.1578V15.3608C66.8499 15.8067 66.2957 16.0835 65.6338 16.0835C64.5561 16.0835 63.8634 15.3915 63.8634 14.1307V10.7479H65.2027V13.8847C65.2027 14.5151 65.4798 14.8534 66.0648 14.8534C66.6498 14.8534 66.8961 14.6535 67.1578 14.2383ZM71.576 10.4865V10.7479H73.0077V11.9319H71.576V15.9451H70.2367V11.9319H69.3592V10.7479H70.2367V10.4404C70.2367 9.27183 70.9603 8.68753 72.0687 8.68753C73.1771 8.68753 72.9 8.77979 73.1925 8.9028L72.8538 9.933C72.6845 9.8715 72.4843 9.82537 72.2688 9.82537C71.7608 9.82537 71.576 10.056 71.576 10.5019V10.4865ZM81.3054 15.9451H79.7352L78.2881 13.3004H77.7031V15.9451H76.2868V9.27182H78.9654C80.3509 9.27182 81.1823 9.9945 81.1823 11.24C81.1823 12.4854 80.6434 12.8852 79.689 13.1466L81.3054 15.9605V15.9451ZM78.7807 10.4865H77.6877V12.1779H78.7807C79.3657 12.1779 79.689 11.8858 79.689 11.3169C79.689 10.7479 79.3503 10.4865 78.7653 10.4865H78.7807ZM86.7859 13.3465V13.8232H83.2759C83.3683 14.6074 83.7839 14.9456 84.5844 14.9456C85.385 14.9456 85.6313 14.7765 85.9854 14.469L86.5704 15.3915C86.0469 15.8374 85.3388 16.0835 84.5383 16.0835C82.8295 16.0835 81.8288 15.0686 81.8288 13.3773C81.8288 11.6859 82.8449 10.6096 84.3381 10.6096C85.8314 10.6096 86.7705 11.6551 86.7705 13.3465H86.7859ZM84.3689 11.7474C83.7685 11.7474 83.3837 12.101 83.2913 12.9006H85.4465C85.385 12.1164 85.0001 11.7474 84.3689 11.7474ZM90.0957 16.0835C88.5408 16.0835 87.494 15.0225 87.494 13.3773C87.494 11.732 88.5101 10.6249 90.0957 10.6249C91.6813 10.6249 91.435 10.8863 91.8815 11.3015L91.1887 12.2702C90.8962 11.978 90.5575 11.855 90.1727 11.855C89.3875 11.855 88.9103 12.4086 88.9103 13.3773C88.9103 14.346 89.3722 14.8687 90.1727 14.8687C90.9732 14.8687 90.8962 14.7457 91.1733 14.4997L91.8507 15.4684C91.3888 15.8836 90.7731 16.0988 90.0957 16.0988V16.0835ZM95.7301 10.6096C96.8847 10.6096 97.5928 11.363 97.5928 12.6546V15.9297H96.2381V12.8237C96.2381 12.1625 95.9456 11.8243 95.2991 11.8243C94.6525 11.8243 94.4678 12.0242 94.1907 12.4547V15.9451H92.8513V8.87204H94.1907V11.363C94.5139 10.9017 95.0681 10.6096 95.7301 10.6096ZM101.703 10.6096C102.858 10.6096 103.566 11.363 103.566 12.6546V15.9297H102.211V12.8237C102.211 12.1625 101.919 11.8243 101.272 11.8243C100.626 11.8243 100.441 12.0242 100.179 12.4547V15.9451H98.8398V10.7479H100.179V11.363C100.502 10.9017 101.057 10.6096 101.719 10.6096H101.703ZM108 14.2383V10.7479H109.339V15.9451H108V15.3608C107.692 15.8067 107.137 16.0835 106.476 16.0835C105.398 16.0835 104.705 15.3915 104.705 14.1307V10.7479H106.044V13.8847C106.044 14.5151 106.322 14.8534 106.907 14.8534C107.492 14.8534 107.738 14.6535 108 14.2383ZM113.572 10.6096C114.727 10.6096 115.435 11.363 115.435 12.6546V15.9297H114.08V12.8237C114.08 12.1625 113.788 11.8243 113.141 11.8243C112.495 11.8243 112.31 12.0242 112.048 12.4547V15.9451H110.709V10.7479H112.048V11.363C112.372 10.9017 112.926 10.6096 113.588 10.6096H113.572ZM120.1 11.363V10.7479H121.439V15.6991C121.439 17.2059 120.423 18.0516 118.73 18.0516C117.036 18.0516 117.159 17.8517 116.574 17.4673L117.067 16.4217C117.544 16.7293 118.114 16.8984 118.699 16.8984C119.638 16.8984 120.084 16.4525 120.084 15.6837V15.2685C119.761 15.6991 119.253 15.9605 118.576 15.9605C117.221 15.9605 116.343 14.838 116.343 13.3158C116.343 11.7935 117.252 10.6096 118.56 10.6096C119.869 10.6096 119.746 10.9171 120.069 11.363H120.1ZM118.945 14.7457C119.638 14.7457 120.146 14.223 120.146 13.3004C120.146 12.3778 119.638 11.855 118.945 11.855C118.252 11.855 117.775 12.3778 117.775 13.3004C117.775 14.223 118.283 14.7457 118.945 14.7457ZM36.7844 22.4492C37.4463 22.7413 37.862 23.3103 37.862 24.0637C37.862 25.2477 36.9383 26.0318 35.5374 26.0318C34.1365 26.0318 33.8132 25.6936 33.2744 25.0478L33.8902 24.3251C34.275 24.771 34.8446 25.0478 35.4758 25.0478C36.107 25.0478 36.7074 24.6787 36.7074 24.0022C36.7074 23.3256 36.2455 22.9874 35.4758 22.9874H34.6907V22.034H35.445C36.107 22.034 36.5227 21.6804 36.5227 21.0653C36.5227 20.4503 36.0916 20.0966 35.4142 20.0966C34.7369 20.0966 34.352 20.3273 33.9979 20.7424L33.4129 20.0044C33.9364 19.4201 34.6753 19.0972 35.4912 19.0972C36.7536 19.0972 37.6465 19.8199 37.6465 20.9731C37.6465 22.1263 37.3386 22.1571 36.769 22.4492H36.7844ZM41.0025 26.0318C39.4938 26.0318 38.6779 24.8171 38.6779 22.5722C38.6779 20.3273 39.4784 19.1126 41.0025 19.1126C42.5265 19.1126 43.327 20.3273 43.327 22.5722C43.327 24.8171 42.5265 26.0318 41.0025 26.0318ZM41.0025 25.0324C41.803 25.0324 42.1878 24.2636 42.1878 22.5722C42.1878 20.8808 41.803 20.112 41.0025 20.112C40.202 20.112 39.8171 20.8808 39.8171 22.5722C39.8171 24.2636 40.202 25.0324 41.0025 25.0324ZM46.4675 19.2202H51.5939V20.2043H49.5926V25.8935H48.4688V20.2043H46.4675V19.2202ZM55.3964 21.5113V20.7732H56.474V25.9088H55.3964V25.1708C55.0731 25.6936 54.5189 26.0318 53.8107 26.0318C52.5484 26.0318 51.6555 24.9401 51.6555 23.341C51.6555 21.7419 52.5484 20.6348 53.8107 20.6348C55.0731 20.6348 55.0731 20.9731 55.3964 21.4959V21.5113ZM54.1032 25.0631C54.873 25.0631 55.4272 24.4327 55.4272 23.341C55.4272 22.2493 54.873 21.6189 54.1032 21.6189C53.3335 21.6189 52.7793 22.2493 52.7793 23.341C52.7793 24.4327 53.3335 25.0631 54.1032 25.0631ZM61.2771 21.4959V20.7732H62.3547V25.7243C62.3547 27.2004 61.4003 28 59.8454 28C58.2906 28 58.3059 27.7694 57.7825 27.3849L58.1982 26.5546C58.6446 26.8929 59.2142 27.062 59.8146 27.062C60.7691 27.062 61.2925 26.57 61.2925 25.7089V25.1247C60.9692 25.6474 60.4304 25.955 59.7222 25.955C58.4137 25.955 57.5516 24.8633 57.5516 23.3103C57.5516 21.7573 58.4445 20.6502 59.7069 20.6502C60.9692 20.6502 60.9538 20.9885 61.2771 21.5113V21.4959ZM59.984 24.9709C60.7537 24.9709 61.3079 24.3558 61.3079 23.2949C61.3079 22.2339 60.7537 21.6189 59.984 21.6189C59.2142 21.6189 58.66 22.2339 58.66 23.2949C58.66 24.3558 59.2142 24.9709 59.984 24.9709ZM68.0969 23.341V23.71H64.5407C64.6331 24.6787 65.0949 25.1093 66.0032 25.1093C66.9115 25.1093 67.0808 24.9094 67.4349 24.5711L67.9429 25.3245C67.4503 25.7858 66.7729 26.0472 65.9724 26.0472C64.3868 26.0472 63.4323 25.0631 63.4323 23.3718C63.4323 21.6804 64.4022 20.6502 65.8031 20.6502C67.204 20.6502 68.1123 21.665 68.1123 23.3564L68.0969 23.341ZM65.8031 21.5728C65.1103 21.5728 64.6485 22.0187 64.5561 22.9412H67.0193C66.9577 22.034 66.5112 21.5728 65.8031 21.5728ZM71.7916 20.6348C72.8846 20.6348 73.5773 21.3421 73.5773 22.5568V25.8935H72.4997V22.6952C72.4997 21.9725 72.1457 21.6035 71.4837 21.6035C70.8217 21.6035 70.56 21.8342 70.2521 22.3262V25.8935H69.1745V20.7578H70.2521V21.419C70.5754 20.927 71.1296 20.6348 71.807 20.6348H71.7916Z" fill="black"/>
</g>
<defs>
<clipPath id="clip0_2034_9892">
<rect width="120.878" height="28" fill="white" transform="translate(0.560974)"/>
</clipPath>
</defs>
</svg>
