<svg width="21" height="21" viewBox="0 0 21 21" fill="none" xmlns="http://www.w3.org/2000/svg">
<path fill-rule="evenodd" clip-rule="evenodd" d="M10.5 0.5C4.97581 0.5 0.5 4.97581 0.5 10.5C0.5 16.0242 4.97581 20.5 10.5 20.5C16.0242 20.5 20.5 16.0242 20.5 10.5C20.5 4.97581 16.0242 0.5 10.5 0.5ZM19.2099 10.5C19.2099 15.2863 15.3349 19.2097 10.5002 19.2097C5.71392 19.2097 1.79053 15.3347 1.79053 10.5C1.79053 5.7137 5.66553 1.79032 10.5002 1.79032C15.2865 1.79032 19.2099 5.66532 19.2099 10.5ZM9.93154 11.6814L13.2057 14.0605C13.4235 14.2177 13.7259 14.1693 13.8832 13.9556L14.2138 13.5C14.3711 13.2822 14.3267 12.9798 14.109 12.8226L11.2662 10.754V4.85482C11.2662 4.58869 11.0485 4.37095 10.7823 4.37095H10.2178C9.9517 4.37095 9.73396 4.58869 9.73396 4.85482V11.2903C9.73396 11.4435 9.80654 11.5887 9.93154 11.6814Z" fill="#9296A5"/>
</svg>
