<svg width="16" height="16" viewBox="0 0 16 16" fill="none" xmlns="http://www.w3.org/2000/svg">
<path d="M9.6973 8.00025L14.8255 2.87209L15.883 1.81456C16.039 1.65855 16.039 1.40504 15.883 1.24904L14.7515 0.117504C14.5955 -0.0385012 14.3419 -0.0385012 14.1859 0.117504L8.00025 6.3032L1.81456 0.117004C1.65855 -0.0390012 1.40504 -0.0390012 1.24904 0.117004L0.117004 1.24854C-0.0390012 1.40454 -0.0390012 1.65805 0.117004 1.81406L6.3032 8.00025L0.117004 14.1859C-0.0390012 14.3419 -0.0390012 14.5955 0.117004 14.7515L1.24854 15.883C1.40454 16.039 1.65805 16.039 1.81406 15.883L8.00025 9.6973L13.1284 14.8255L14.1859 15.883C14.3419 16.039 14.5955 16.039 14.7515 15.883L15.883 14.7515C16.039 14.5955 16.039 14.3419 15.883 14.1859L9.6973 8.00025Z" fill="#C2C1C2"/>
</svg>
