<svg width="40" height="41" viewBox="0 0 40 41" fill="none" xmlns="http://www.w3.org/2000/svg">
<rect x="1" y="1.5" width="37.9981" height="38" rx="18.9991" fill="white"/>
<path fill-rule="evenodd" clip-rule="evenodd" d="M25.5 19.5H25V17.5469C25 14.7844 22.7781 12.5094 20.0156 12.5C17.25 12.4907 15 14.7375 15 17.5V19.5H14.5C13.6719 19.5 13 20.1719 13 21V27C13 27.8281 13.6719 28.5 14.5 28.5H25.5C26.3281 28.5 27 27.8281 27 27V21C27 20.1719 26.3281 19.5 25.5 19.5ZM15.9999 17.5001C15.9999 15.2939 17.7937 13.5001 19.9999 13.5001C22.2062 13.5001 23.9999 15.2939 23.9999 17.5001V19.5001H15.9999V17.5001ZM14.5 27.5001H25.5C25.775 27.5001 26 27.2751 26 27.0001V21.0001C26 20.7251 25.775 20.5001 25.5 20.5001H14.5C14.225 20.5001 14 20.7251 14 21.0001V27.0001C14 27.2751 14.225 27.5001 14.5 27.5001Z" fill="#005C9E"/>
<rect x="1" y="1.5" width="37.9981" height="38" rx="18.9991" stroke="#F1F2F4" stroke-width="2"/>
</svg>
