<svg width="40" height="40" viewBox="0 0 40 40" fill="none" xmlns="http://www.w3.org/2000/svg">
<rect x="1" y="1" width="37.9981" height="38" rx="18.9991" fill="white"/>
<path fill-rule="evenodd" clip-rule="evenodd" d="M15.04 13.5H28.2497C28.7255 13.5 29.081 13.9372 28.984 14.403L27.6299 20.903C27.5574 21.2507 27.2509 21.5 26.8957 21.5H16.54L16.915 23.5H26.1665C26.5237 23.5 26.8132 23.7466 26.8942 24.0666C27.2677 24.43 27.5 24.9377 27.5 25.5C27.5 26.6046 26.6046 27.5 25.5 27.5C24.3955 27.5 23.5 26.6046 23.5 25.5C23.4996 25.1488 23.5922 24.8038 23.7682 24.5H19.2318C19.4079 24.8038 19.5004 25.1488 19.5 25.5C19.5 26.6046 18.6046 27.5 17.5 27.5C16.3954 27.5 15.5 26.6046 15.5 25.5C15.5 24.9819 15.697 24.5098 16.0202 24.1546L13.835 12.5H11.375C11.1679 12.5 11 12.3321 11 12.125V11.875C11 11.6679 11.1679 11.5 11.375 11.5H14.0426C14.4035 11.5 14.7132 11.7571 14.7797 12.1118L15.04 13.5ZM17.5 26.5C18.0514 26.5 18.5 26.0514 18.5 25.5C18.5 24.9486 18.0514 24.5 17.5 24.5C16.9486 24.5 16.5 24.9486 16.5 25.5C16.5 26.0514 16.9486 26.5 17.5 26.5ZM25.5 26.5C24.9486 26.5 24.5 26.0514 24.5 25.5C24.5 24.9486 24.9486 24.5 25.5 24.5C26.0514 24.5 26.5 24.9486 26.5 25.5C26.5 26.0514 26.0514 26.5 25.5 26.5ZM16.3525 20.4999H26.6924L27.9424 14.4999H15.2275L16.3525 20.4999Z" fill="#005C9E"/>
<rect x="1" y="1" width="37.9981" height="38" rx="18.9991" stroke="#F1F2F4" stroke-width="2"/>
</svg>
