<svg width="28" height="18" viewBox="0 0 28 18" fill="none" xmlns="http://www.w3.org/2000/svg">
<path d="M20.6913 0.712567C20.632 0.616109 20.5527 0.533483 20.4588 0.470263C20.3648 0.407043 20.2584 0.364697 20.1467 0.34607C20.035 0.327444 19.9206 0.332975 19.8112 0.362288C19.7018 0.391602 19.6 0.444014 19.5126 0.516001C19.4252 0.587989 19.3542 0.67788 19.3044 0.77961C19.2547 0.88134 19.2273 0.99255 19.2242 1.10575C19.2211 1.21895 19.2422 1.3315 19.2862 1.43583C19.3303 1.54017 19.3961 1.63385 19.4794 1.71057L25.4431 8.97746L19.5457 16.1063H16.998L22.5714 9.58803C22.5749 9.58403 22.5782 9.58 22.5817 9.57594L22.5828 9.57638C22.7248 9.42072 22.8035 9.21765 22.8035 9.00697C22.8035 8.79629 22.7248 8.59322 22.5828 8.43756L22.5817 8.43785C22.5782 8.43385 22.5749 8.42982 22.5714 8.42589L15.916 0.725133L15.9115 0.719752C15.8419 0.601214 15.7425 0.502927 15.6231 0.43461C15.5038 0.366293 15.3687 0.330317 15.2312 0.330243H10.557C10.4529 0.330504 10.3498 0.351277 10.2537 0.391382C10.1575 0.431487 10.0702 0.490136 9.99676 0.563977C9.9233 0.637819 9.8651 0.725407 9.82549 0.821741C9.78588 0.918075 9.76564 1.02127 9.76591 1.12543C9.75701 1.25498 9.78867 1.38409 9.85649 1.49482L16.0508 9.03646L10.7715 15.4027C10.6211 15.6048 10.4277 15.771 10.2053 15.8891C9.98284 16.0073 9.73691 16.0745 9.48529 16.0859H3.1561C2.94981 16.0877 2.74523 16.0485 2.55426 15.9705C2.36329 15.8924 2.18976 15.7772 2.04377 15.6315C1.89778 15.4857 1.78226 15.3124 1.70394 15.1215C1.62561 14.9307 1.58605 14.7261 1.58756 14.5199V3.48412C1.6047 3.06954 1.77783 2.67674 2.07229 2.38439C2.36674 2.09204 2.76077 1.92173 3.17546 1.90757H7.12214C7.22672 1.91308 7.3313 1.89669 7.42918 1.85946C7.52706 1.82222 7.61608 1.76496 7.69056 1.69134C7.76503 1.61771 7.82331 1.52934 7.86166 1.4319C7.90002 1.33445 7.9176 1.23006 7.91328 1.12543C7.91813 1.01935 7.90114 0.913413 7.86335 0.81418C7.82556 0.714948 7.76778 0.624544 7.6936 0.548569C7.61941 0.472595 7.53041 0.412675 7.43211 0.372528C7.33381 0.332382 7.2283 0.312864 7.12214 0.315188L3.13701 0.331016C2.30522 0.331601 1.50767 0.66228 0.919494 1.25044C0.331319 1.83859 0.000610848 2.63614 0 3.46793V14.5199C0.0195135 15.3472 0.3558 16.1355 0.939496 16.7222C1.52319 17.3089 2.30978 17.6491 3.13701 17.6729H9.46445C9.7589 17.6731 10.0519 17.6322 10.335 17.5511C10.3724 17.5404 10.4093 17.5291 10.4454 17.5173C11.0228 17.3269 11.5389 16.9859 11.9405 16.5294L17.8819 9.5695C18.0259 9.41651 18.1065 9.21456 18.1074 9.00445C18.1082 8.79434 18.0293 8.59173 17.8866 8.43756L17.8854 8.43785C17.8819 8.43385 17.8786 8.42982 17.8752 8.42589L12.2551 1.90757H14.8495L20.7226 9.00701L14.5422 16.5004C14.5402 16.5026 14.544 16.509 14.5528 16.5191C14.4895 16.6401 14.4585 16.7752 14.4625 16.9116C14.4666 17.048 14.5057 17.1811 14.576 17.2981C14.6464 17.415 14.7456 17.5119 14.8642 17.5794C14.9828 17.6469 15.1167 17.6829 15.2532 17.6837H19.9274C20.0649 17.6836 20.2 17.6476 20.3193 17.5792C20.4387 17.5109 20.5381 17.4126 20.6078 17.2941L20.6122 17.2888L27.2677 9.58803L27.2779 9.57594L27.279 9.57638C27.4218 9.42217 27.5007 9.21955 27.4998 9.00942C27.499 8.7993 27.4184 8.59733 27.2744 8.44429L20.6913 0.712567Z" fill="black"/>
</svg>
