<svg width="207" height="44" viewBox="0 0 207 44" fill="none" xmlns="http://www.w3.org/2000/svg">
<path d="M21.4067 32.1361C19.6588 32.3093 18.0088 31.9052 17.3532 31.3719C17.1523 31.1908 17.0167 30.9506 16.9673 30.6879C16.8868 30.3191 17.0167 29.9365 17.3073 29.6887C17.9138 29.2998 18.6555 29.1692 19.3623 29.3271C19.967 29.4039 20.576 29.4419 21.186 29.4415C27.3581 29.4415 31.3445 25.7809 31.3445 20.1142C31.3445 14.4475 27.3546 10.7844 21.1857 10.7844C15.0168 10.7844 11.0268 14.4464 11.0268 20.1135C11.0268 23.2702 12.2642 25.8037 14.428 27.4296C13.3854 28.0438 12.5841 28.9839 12.1537 30.0982C11.7929 31.3674 12.2077 32.7268 13.2206 33.5944L13.4744 33.8356L13.1567 33.9922C10.7949 35.1546 9.65531 36.7787 9.94586 38.5677C9.97587 38.7457 10.0196 38.921 10.0775 39.0921C11.1328 42.6594 16.4275 44.148 21.6499 43.9883C24.6383 43.8967 32.9131 42.6359 32.9992 37.5934C33.1161 30.6844 25.057 31.7843 21.8907 32.0926L21.4067 32.1361ZM21.1857 15.2822C23.7494 15.2822 25.3416 17.1345 25.3416 20.1152C25.3416 23.096 23.7494 24.9483 21.1857 24.9483C18.622 24.9483 17.028 23.096 17.028 20.1152C17.028 17.1345 18.6202 15.2822 21.1857 15.2822ZM17.332 35.8327C17.4552 35.8165 17.6201 35.7923 17.8171 35.7629C21.2785 35.2621 26.0339 34.7605 27.3662 36.2336C27.727 36.6422 27.8372 37.2087 27.6543 37.7181C27.2684 39.0955 24.2331 39.7024 21.3841 39.7024C20.6318 39.7038 19.8798 39.6589 19.1332 39.5673C16.8452 39.2756 15.5795 38.5854 15.5707 37.6234C15.5467 36.6591 16.7841 35.9036 17.3345 35.8306" fill="#262AFF"/>
<path d="M26.8989 6.74017C18.5431 3.75265 9.30325 7.96868 6.26132 16.1401C5.70997 17.6199 5.38676 19.1742 5.3012 20.7564C5.13009 24.1068 6.02366 27.4294 7.88685 30.2494C8.64733 31.4035 8.30511 32.9391 7.12636 33.6837C5.96662 34.4096 4.43616 34.1025 3.65666 32.995C-2.98806 23.2692 -0.326378 10.1093 9.60744 3.59443C11.4231 2.40314 13.4099 1.49109 15.5012 0.886144C19.9025 -0.388902 24.5985 -0.286548 28.9427 1.18394H28.9522C30.5112 1.75166 31.3097 3.44553 30.7394 4.97186C30.1785 6.46096 28.5055 7.25205 26.9655 6.74948L26.9084 6.73088" fill="url(#paint0_linear_3381_105390)"/>
<path d="M26.8989 6.74017C18.5431 3.75265 9.30325 7.96868 6.26132 16.1401C5.70997 17.6199 5.38676 19.1742 5.3012 20.7564C5.13009 24.1068 6.02366 27.4294 7.88685 30.2494C8.64733 31.4035 8.30511 32.9391 7.12636 33.6837C5.96662 34.4096 4.43616 34.1025 3.65666 32.995C-2.98806 23.2692 -0.326378 10.1093 9.60744 3.59443C11.4231 2.40314 13.4099 1.49109 15.5012 0.886144C19.9025 -0.388902 24.5985 -0.286548 28.9427 1.18394H28.9522C30.5112 1.75166 31.3097 3.44553 30.7394 4.97186C30.1785 6.46096 28.5055 7.25205 26.9655 6.74948L26.9084 6.73088" fill="url(#paint1_linear_3381_105390)"/>
<path d="M26.8989 6.74017C18.5431 3.75265 9.30325 7.96868 6.26132 16.1401C5.70997 17.6199 5.38676 19.1742 5.3012 20.7564C5.13009 24.1068 6.02366 27.4294 7.88685 30.2494C8.64733 31.4035 8.30511 32.9391 7.12636 33.6837C5.96662 34.4096 4.43616 34.1025 3.65666 32.995C-2.98806 23.2692 -0.326378 10.1093 9.60744 3.59443C11.4231 2.40314 13.4099 1.49109 15.5012 0.886144C19.9025 -0.388902 24.5985 -0.286548 28.9427 1.18394H28.9522C30.5112 1.75166 31.3097 3.44553 30.7394 4.97186C30.1785 6.46096 28.5055 7.25205 26.9655 6.74948L26.9084 6.73088" fill="url(#paint2_linear_3381_105390)"/>
<path d="M32.3276 4.52538C32.3276 6.32176 30.8351 7.78307 29.0002 7.78307C27.1654 7.78307 25.6729 6.32176 25.6729 4.52538C25.6729 2.729 27.1654 1.2677 29.0002 1.2677C30.8351 1.2677 32.3276 2.729 32.3276 4.52538Z" fill="#262AFF"/>
<path d="M50.68 32V12.4H63.84V16.012H54.88V20.408H62.16V23.852H54.88V28.388H64.148V32H50.68ZM64.9121 32L70.2601 24.664L65.1641 17.608H69.6721L72.6401 21.864L75.6921 17.608H79.9481L74.8801 24.664L80.2281 32H75.7201L72.4161 27.492L69.1401 32H64.9121ZM89.7492 17.44C93.6412 17.412 96.4412 20.296 96.4412 24.832C96.4412 29.312 93.6412 32.168 89.7772 32.168C87.7892 32.168 86.3612 31.356 85.4372 30.18V37.6H81.4892V17.608H84.9332L85.3252 19.596C86.2492 18.364 87.7052 17.44 89.7492 17.44ZM88.8812 28.948C91.0372 28.948 92.4372 27.24 92.4372 24.776C92.4372 22.34 91.0372 20.66 88.8812 20.66C86.7252 20.66 85.3812 22.34 85.3812 24.776C85.3812 27.24 86.7252 28.948 88.8812 28.948ZM106.726 17.608H107.398V21.192H105.83C103.478 21.192 102.582 22.76 102.582 24.944V32H98.6337V17.608H102.218L102.582 19.764C103.366 18.476 104.486 17.608 106.726 17.608ZM115.808 32.168C111.02 32.168 108.136 29.284 108.136 24.832C108.136 20.352 111.076 17.44 115.528 17.44C119.84 17.44 122.752 20.128 122.808 24.356C122.808 24.776 122.78 25.252 122.696 25.7H112.252V25.896C112.336 27.94 113.652 29.172 115.64 29.172C117.236 29.172 118.356 28.472 118.692 27.128H122.584C122.136 29.928 119.644 32.168 115.808 32.168ZM112.336 23.124H118.832C118.552 21.36 117.348 20.38 115.556 20.38C113.848 20.38 112.56 21.416 112.336 23.124ZM124.184 27.212H127.936C128.076 28.472 129.168 29.34 131.1 29.34C132.752 29.34 133.76 28.808 133.76 27.8C133.76 26.624 132.78 26.54 130.456 26.232C127.096 25.84 124.492 25.084 124.492 22.116C124.492 19.26 126.984 17.384 130.68 17.412C134.544 17.412 137.204 19.12 137.4 22.06H133.62C133.508 20.912 132.416 20.212 130.82 20.212C129.28 20.212 128.272 20.772 128.272 21.696C128.272 22.788 129.504 22.9 131.576 23.152C134.88 23.488 137.624 24.244 137.624 27.492C137.624 30.348 134.936 32.168 131.072 32.168C127.068 32.168 124.352 30.292 124.184 27.212ZM138.759 27.212H142.511C142.651 28.472 143.743 29.34 145.675 29.34C147.327 29.34 148.335 28.808 148.335 27.8C148.335 26.624 147.355 26.54 145.031 26.232C141.671 25.84 139.067 25.084 139.067 22.116C139.067 19.26 141.559 17.384 145.255 17.412C149.119 17.412 151.779 19.12 151.975 22.06H148.195C148.083 20.912 146.991 20.212 145.395 20.212C143.855 20.212 142.847 20.772 142.847 21.696C142.847 22.788 144.079 22.9 146.151 23.152C149.455 23.488 152.199 24.244 152.199 27.492C152.199 30.348 149.511 32.168 145.647 32.168C141.643 32.168 138.927 30.292 138.759 27.212ZM161.532 32V12.4H169.512C173.768 12.4 176.596 14.948 176.596 18.924C176.596 22.872 173.768 25.42 169.512 25.42H165.732V32H161.532ZM169.12 15.9H165.732V21.92H169.12C171.08 21.92 172.34 20.772 172.34 18.924C172.34 17.048 171.08 15.9 169.12 15.9ZM191.514 28.668H191.962V32H189.946C187.902 32 187.258 31.02 187.286 29.648C186.278 31.244 184.822 32.168 182.582 32.168C179.474 32.168 177.234 30.684 177.234 27.94C177.234 24.888 179.53 23.152 183.842 23.152H186.698V22.452C186.698 21.164 185.774 20.324 184.122 20.324C182.582 20.324 181.546 21.024 181.378 22.088H177.57C177.85 19.288 180.426 17.44 184.234 17.44C188.266 17.44 190.59 19.232 190.59 22.676V27.772C190.59 28.528 190.898 28.668 191.514 28.668ZM186.698 26.064V25.784H183.814C182.162 25.784 181.21 26.456 181.21 27.66C181.21 28.668 182.022 29.312 183.338 29.312C185.41 29.312 186.67 28.024 186.698 26.064ZM196.977 32.084L191.433 17.608H195.633L199.133 27.856L202.549 17.608H206.777L200.393 34.044C199.497 36.424 198.769 37.6 196.529 37.6H192.693V34.268H194.877C195.885 34.268 196.221 34.016 196.613 33.036L196.977 32.084Z" fill="#262AFF"/>
<defs>
<linearGradient id="paint0_linear_3381_105390" x1="11.0921" y1="0.296781" x2="26.9636" y2="4.21551" gradientUnits="userSpaceOnUse">
<stop stop-color="#3FA3DE"/>
<stop offset="1" stop-color="#3FA3DE" stop-opacity="0"/>
</linearGradient>
<linearGradient id="paint1_linear_3381_105390" x1="6.47712" y1="28.9918" x2="18.8194" y2="13.0425" gradientUnits="userSpaceOnUse">
<stop stop-color="#262AFF"/>
<stop offset="1" stop-color="#262AFF" stop-opacity="0"/>
</linearGradient>
<linearGradient id="paint2_linear_3381_105390" x1="6.92243" y1="15.0406" x2="18.6581" y2="6.6825" gradientUnits="userSpaceOnUse">
<stop stop-color="#262AFF" stop-opacity="0.2"/>
<stop offset="1" stop-color="#262AFF" stop-opacity="0"/>
</linearGradient>
</defs>
</svg>
