<svg width="11" height="11" viewBox="0 0 11 11" fill="none" xmlns="http://www.w3.org/2000/svg">
<path fill-rule="evenodd" clip-rule="evenodd" d="M4.15573 7.24071C4.07565 7.32081 4.07565 7.45066 4.15573 7.53075L4.25241 7.62742C4.33251 7.7075 4.46236 7.7075 4.54244 7.62742L10.065 2.10485L10.0771 2.11693L10.0713 3.65429C10.0713 3.76755 10.1631 3.85937 10.2763 3.85937H10.4472C10.5605 3.85937 10.6523 3.76755 10.6523 3.65429L10.6582 1.33008C10.6582 1.21681 10.5663 1.125 10.4531 1.125L8.12886 1.13086C8.01559 1.13086 7.92378 1.22267 7.92378 1.33594V1.50682C7.92378 1.62008 8.01561 1.7119 8.12886 1.7119L9.66623 1.70605L9.67831 1.71814L4.15573 7.24071ZM7.98389 5.00773L8.12061 4.87101C8.24979 4.74183 8.4707 4.83333 8.4707 5.01604V9.05469C8.4707 9.50774 8.10344 9.875 7.65038 9.875H1.63476C1.18171 9.875 0.814453 9.50774 0.814453 9.05469V3.03907C0.814453 2.58602 1.18171 2.21876 1.63476 2.21876H7.58161C7.76432 2.21876 7.85582 2.43964 7.72662 2.56884L7.5899 2.70556C7.55145 2.74403 7.49929 2.76563 7.4449 2.76563H1.63476C1.48376 2.76563 1.36133 2.88805 1.36133 3.03907V9.05469C1.36133 9.20571 1.48376 9.32813 1.63476 9.32813H7.65038C7.80139 9.32813 7.92382 9.20571 7.92382 9.05469V5.15274C7.92382 5.09835 7.94543 5.04619 7.98389 5.00773Z" fill="#5A5E6D"/>
<path d="M4.15573 7.53075L3.97896 7.70752H3.97896L4.15573 7.53075ZM4.15573 7.24071L3.97896 7.06394L3.97894 7.06396L4.15573 7.24071ZM4.25241 7.62742L4.07563 7.8042L4.07565 7.80422L4.25241 7.62742ZM4.54244 7.62742L4.36566 7.45065L4.54244 7.62742ZM10.065 2.10485L10.2418 1.92807L10.065 1.75129L9.88824 1.92807L10.065 2.10485ZM10.0771 2.11693L10.3271 2.11788L10.3275 2.01377L10.2539 1.94015L10.0771 2.11693ZM10.0713 3.65429L9.82126 3.65334V3.65429H10.0713ZM10.6523 3.65429L10.4023 3.65366V3.65429H10.6523ZM10.6582 1.33008L10.9082 1.33071V1.33008H10.6582ZM10.4531 1.125V0.874999L10.4524 0.875001L10.4531 1.125ZM8.12886 1.13086V1.38086L8.12949 1.38086L8.12886 1.13086ZM8.12886 1.7119V1.9619L8.12981 1.9619L8.12886 1.7119ZM9.66623 1.70605L9.84301 1.52928L9.76939 1.45566L9.66528 1.45606L9.66623 1.70605ZM9.67831 1.71814L9.85509 1.89491L10.0319 1.71814L9.85509 1.54136L9.67831 1.71814ZM7.98389 5.00773L8.16066 5.18451L8.16067 5.18451L7.98389 5.00773ZM7.72662 2.56884L7.9034 2.74562V2.74562L7.72662 2.56884ZM7.5899 2.70556L7.41313 2.52878L7.41309 2.52882L7.5899 2.70556ZM7.92382 5.15274L7.67382 5.15273V5.15274H7.92382ZM4.33251 7.35397C4.35007 7.37153 4.35004 7.39995 4.33253 7.41747L3.97894 7.06396C3.80126 7.24167 3.80123 7.5298 3.97896 7.70752L4.33251 7.35397ZM4.42919 7.45064L4.33251 7.35397L3.97896 7.70752L4.07563 7.8042L4.42919 7.45064ZM4.36566 7.45065C4.38322 7.43309 4.41165 7.43311 4.42917 7.45063L4.07565 7.80422C4.25337 7.9819 4.54149 7.98192 4.71922 7.8042L4.36566 7.45065ZM9.88824 1.92807L4.36566 7.45065L4.71922 7.8042L10.2418 2.28162L9.88824 1.92807ZM10.2539 1.94015L10.2418 1.92807L9.88824 2.28162L9.90032 2.2937L10.2539 1.94015ZM10.3213 3.65524L10.3271 2.11788L9.8271 2.11598L9.82126 3.65334L10.3213 3.65524ZM10.2763 3.60937C10.3012 3.60937 10.3213 3.62948 10.3213 3.65429H9.82126C9.82126 3.90562 10.025 4.10937 10.2763 4.10937V3.60937ZM10.4472 3.60937H10.2763V4.10937H10.4472V3.60937ZM10.4023 3.65429C10.4023 3.62948 10.4224 3.60937 10.4472 3.60937V4.10937C10.6985 4.10937 10.9023 3.90562 10.9023 3.65429H10.4023ZM10.4082 1.32945L10.4023 3.65366L10.9023 3.65492L10.9082 1.33071L10.4082 1.32945ZM10.4531 1.375C10.4283 1.375 10.4082 1.35489 10.4082 1.33008H10.9082C10.9082 1.07872 10.7044 0.875 10.4531 0.875V1.375ZM8.12949 1.38086L10.4537 1.375L10.4524 0.875001L8.12823 0.880863L8.12949 1.38086ZM8.17378 1.33594C8.17378 1.36074 8.15366 1.38086 8.12886 1.38086V0.880862C7.87752 0.880862 7.67378 1.0846 7.67378 1.33594H8.17378ZM8.17378 1.50682V1.33594H7.67378V1.50682H8.17378ZM8.12886 1.4619C8.15368 1.4619 8.17378 1.482 8.17378 1.50682H7.67378C7.67378 1.75815 7.87753 1.9619 8.12886 1.9619V1.4619ZM9.66528 1.45606L8.12791 1.4619L8.12981 1.9619L9.66718 1.95605L9.66528 1.45606ZM9.85509 1.54136L9.84301 1.52928L9.48945 1.88283L9.50153 1.89491L9.85509 1.54136ZM4.33251 7.41749L9.85509 1.89491L9.50153 1.54136L3.97896 7.06394L4.33251 7.41749ZM7.94383 4.69424L7.80712 4.83096L8.16067 5.18451L8.29739 5.04779L7.94383 4.69424ZM8.7207 5.01604C8.7207 4.61062 8.23052 4.40755 7.94383 4.69424L8.29739 5.04779C8.29279 5.05238 8.28381 5.05785 8.27248 5.05981C8.26251 5.06154 8.25435 5.05999 8.24842 5.05753C8.24249 5.05508 8.23563 5.05041 8.2298 5.04214C8.22318 5.03274 8.2207 5.02252 8.2207 5.01604H8.7207ZM8.7207 9.05469V5.01604H8.2207V9.05469H8.7207ZM7.65038 10.125C8.24151 10.125 8.7207 9.64581 8.7207 9.05469H8.2207C8.2207 9.36967 7.96536 9.625 7.65038 9.625V10.125ZM1.63476 10.125H7.65038V9.625H1.63476V10.125ZM0.564453 9.05469C0.564453 9.64581 1.04364 10.125 1.63476 10.125V9.625C1.31978 9.625 1.06445 9.36967 1.06445 9.05469H0.564453ZM0.564453 3.03907V9.05469H1.06445V3.03907H0.564453ZM1.63476 1.96876C1.04364 1.96876 0.564453 2.44795 0.564453 3.03907H1.06445C1.06445 2.72409 1.31978 2.46876 1.63476 2.46876V1.96876ZM7.58161 1.96876H1.63476V2.46876H7.58161V1.96876ZM7.9034 2.74562C8.19009 2.45893 7.98705 1.96876 7.58161 1.96876V2.46876C7.57513 2.46876 7.56492 2.46627 7.55552 2.45965C7.54725 2.45382 7.54257 2.44696 7.54011 2.44102C7.53765 2.43509 7.53611 2.42692 7.53783 2.41696C7.5398 2.40562 7.54526 2.39665 7.54984 2.39207L7.9034 2.74562ZM7.76668 2.88234L7.9034 2.74562L7.54985 2.39207L7.41313 2.52878L7.76668 2.88234ZM7.4449 3.01563C7.56558 3.01563 7.68136 2.9677 7.76672 2.8823L7.41309 2.52882C7.42155 2.52036 7.433 2.51563 7.4449 2.51563V3.01563ZM1.63476 3.01563H7.4449V2.51563H1.63476V3.01563ZM1.61133 3.03907C1.61133 3.02613 1.62182 3.01563 1.63476 3.01563V2.51563C1.3457 2.51563 1.11133 2.74996 1.11133 3.03907H1.61133ZM1.61133 9.05469V3.03907H1.11133V9.05469H1.61133ZM1.63476 9.07813C1.62182 9.07813 1.61133 9.06763 1.61133 9.05469H1.11133C1.11133 9.34379 1.3457 9.57813 1.63476 9.57813V9.07813ZM7.65038 9.07813H1.63476V9.57813H7.65038V9.07813ZM7.67382 9.05469C7.67382 9.06763 7.66333 9.07813 7.65038 9.07813V9.57813C7.93945 9.57813 8.17382 9.34379 8.17382 9.05469H7.67382ZM7.67382 5.15274V9.05469H8.17382V5.15274H7.67382ZM7.80712 4.83095C7.72178 4.91629 7.67383 5.03203 7.67382 5.15273L8.17382 5.15275C8.17382 5.16467 8.16909 5.17609 8.16066 5.18451L7.80712 4.83095Z" fill="#5A5E6D"/>
</svg>
