<svg width="24" height="16" viewBox="0 0 24 16" fill="none" xmlns="http://www.w3.org/2000/svg">
<path d="M21.9972 15.9737H2.00276C1.74192 15.976 1.48321 15.926 1.2414 15.8266C0.999586 15.7272 0.779405 15.5805 0.59343 15.3947C0.407455 15.2089 0.259328 14.9877 0.157507 14.7437C0.0556855 14.4997 0.00216457 14.2378 0 13.9728L0 2.00093C0.00216457 1.73595 0.0556855 1.47401 0.157507 1.23004C0.259328 0.986083 0.407455 0.764884 0.59343 0.57908C0.779405 0.393276 0.999586 0.246504 1.2414 0.147147C1.48321 0.0477897 1.74192 -0.00220771 2.00276 9.61217e-06H21.9972C22.2581 -0.00220771 22.5168 0.0477897 22.7586 0.147147C23.0004 0.246504 23.2206 0.393276 23.4066 0.57908C23.5925 0.764884 23.7407 0.986083 23.8425 1.23004C23.9443 1.47401 23.9978 1.73595 24 2.00093V13.9812C23.9935 14.5149 23.779 15.0242 23.4037 15.3976C23.0283 15.7711 22.5226 15.9782 21.9972 15.9737ZM8.27586 4.90142C8.27586 4.51469 7.98621 4.20362 7.63035 4.20362H3.12828C2.77241 4.20362 2.48276 4.51469 2.48276 4.90142V7.70943C2.48276 8.09617 2.77241 8.40723 3.12828 8.40723H7.63035C7.98621 8.40723 8.27586 8.09617 8.27586 7.70943V4.90142Z" fill="#D2D2D2"/>
<path opacity="0.3" d="M20.6897 12.6109H18.2069C17.669 12.6109 17.3793 12.3587 17.3793 11.7702C17.3793 11.1817 17.669 10.9294 18.2069 10.9294H20.6897C21.2276 10.9294 21.5173 11.1817 21.5173 11.7702C21.5173 12.3587 21.2276 12.6109 20.6897 12.6109ZM15.7242 12.6109H13.2414C12.7035 12.6109 12.4138 12.3587 12.4138 11.7702C12.4138 11.1817 12.7035 10.9294 13.2414 10.9294H15.7242C16.2621 10.9294 16.5518 11.1817 16.5518 11.7702C16.5518 12.3587 16.2621 12.6109 15.7242 12.6109ZM10.7587 12.6109H8.27589C7.73796 12.6109 7.44831 12.3587 7.44831 11.7702C7.44831 11.1817 7.73796 10.9294 8.27589 10.9294H10.7587C11.2966 10.9294 11.5862 11.1817 11.5862 11.7702C11.5862 12.3587 11.2966 12.6109 10.7587 12.6109ZM5.79313 12.6109H3.31037C2.77244 12.6109 2.48279 12.3587 2.48279 11.7702C2.48279 11.1817 2.77244 10.9294 3.31037 10.9294H5.79313C6.33106 10.9294 6.62072 11.1817 6.62072 11.7702C6.62072 12.3587 6.33106 12.6109 5.79313 12.6109Z" fill="black"/>
</svg>
