<svg width="24" height="16" viewBox="0 0 24 16" fill="none" xmlns="http://www.w3.org/2000/svg">
<rect x="0.25" y="0.25" width="23.5" height="15.5" rx="1.75" fill="white" stroke="#D9D9D9" stroke-width="0.5"/>
<path fill-rule="evenodd" clip-rule="evenodd" d="M11.6575 11.8055C10.7739 12.5504 9.62767 13 8.37516 13C5.58048 13 3.31494 10.7614 3.31494 8C3.31494 5.23858 5.58048 3 8.37516 3C9.62767 3 10.7739 3.44964 11.6575 4.19448C12.5411 3.44964 13.6874 3 14.9399 3C17.7346 3 20.0001 5.23858 20.0001 8C20.0001 10.7614 17.7346 13 14.9399 13C13.6874 13 12.5411 12.5504 11.6575 11.8055Z" fill="#ED0006"/>
<path fill-rule="evenodd" clip-rule="evenodd" d="M11.6575 11.8056C12.7455 10.8885 13.4354 9.52386 13.4354 8C13.4354 6.47614 12.7455 5.11151 11.6575 4.19442C12.5411 3.44962 13.6873 3 14.9398 3C17.7344 3 20 5.23858 20 8C20 10.7614 17.7344 13 14.9398 13C13.6873 13 12.5411 12.5504 11.6575 11.8056Z" fill="#F9A000"/>
<path fill-rule="evenodd" clip-rule="evenodd" d="M11.6575 11.8055C12.7455 10.8884 13.4354 9.52375 13.4354 7.99993C13.4354 6.4761 12.7455 5.11149 11.6575 4.1944C10.5695 5.11149 9.87964 6.4761 9.87964 7.99993C9.87964 9.52375 10.5695 10.8884 11.6575 11.8055Z" fill="#FF5E00"/>
</svg>
