<svg width="24" height="16" viewBox="0 0 24 16" fill="none" xmlns="http://www.w3.org/2000/svg">
<path d="M23.9995 1.99999V14C23.9995 15.1045 23.1041 15.9999 21.9995 15.9999H1.99957C1.76748 16.0017 1.53703 15.961 1.31957 15.8799C0.527676 15.5936 -6.89774e-05 14.842 -0.000427246 14V1.99999C-0.000427246 0.895427 0.895 0 1.99957 0H21.9995C23.1041 0 23.9995 0.895427 23.9995 1.99999Z" fill="#DFE3E8"/>
<path d="M23.9995 8V13.9823C23.9995 15.0966 23.0914 15.9999 21.9713 15.9999H1.68916C1.45381 16.0017 1.2201 15.9607 0.999573 15.8789C2.70327 15.6367 4.34612 15.3341 5.95855 14.9911C6.38447 14.9104 6.80026 14.8095 7.21604 14.7187C13.9193 13.1954 19.72 10.9558 22.9854 8.75661C23.3505 8.50441 23.6953 8.2522 23.9995 8Z" fill="#EE7623"/>
<path fill-rule="evenodd" clip-rule="evenodd" d="M1.99957 5.32012H2.90957V5.30012C3.6062 5.24974 4.25586 5.65426 4.518 6.30165C4.78015 6.94903 4.59498 7.6916 4.05957 8.14011C3.73283 8.39609 3.32394 8.52409 2.90957 8.50011H1.99957V5.32012ZM2.78945 8.00135C3.10225 8.0288 3.41276 7.9277 3.64944 7.72135C3.87456 7.51659 4.00185 7.22565 3.99944 6.92135C4.00379 6.61665 3.87617 6.32496 3.64944 6.12135C3.4088 5.92369 3.09929 5.83011 2.78945 5.86135H2.62945V8.00135H2.78945Z" fill="#231F20"/>
<rect x="4.92436" y="5.31445" width="0.624998" height="3.20999" fill="#231F20"/>
<path d="M7.08432 6.54474C6.70932 6.40974 6.58432 6.31474 6.58432 6.13974C6.58432 5.96474 6.77932 5.78474 7.04932 5.78474C7.24628 5.79301 7.42943 5.88825 7.54932 6.04474L7.87432 5.61974C7.61775 5.38524 7.28189 5.25662 6.93432 5.25974C6.67823 5.24332 6.42656 5.3323 6.23771 5.50604C6.04887 5.67978 5.93926 5.92317 5.93432 6.17974C5.93432 6.62474 6.13432 6.84974 6.71932 7.05974C6.86969 7.10791 7.01531 7.16984 7.15432 7.24474C7.27217 7.31278 7.34464 7.43865 7.34432 7.57473C7.34341 7.70312 7.28889 7.82528 7.19393 7.9117C7.09897 7.99811 6.97222 8.0409 6.84432 8.02973C6.55273 8.0329 6.28646 7.86453 6.16432 7.59973L5.75932 7.98973C5.99568 8.38991 6.43525 8.62512 6.89932 8.59973C7.18792 8.61946 7.47151 8.51692 7.68075 8.31719C7.88999 8.11745 8.00561 7.83894 7.99932 7.54973C7.99932 7.03974 7.79432 6.80474 7.08432 6.54474Z" fill="#231F20"/>
<path d="M8.20469 6.92035C8.20053 7.36933 8.37844 7.80085 8.69781 8.11646C9.01718 8.43206 9.45078 8.60483 9.89969 8.59534C10.1723 8.59695 10.4414 8.53353 10.6847 8.41034V7.67534C10.4958 7.89616 10.2202 8.02391 9.92969 8.02534C9.63577 8.03272 9.35212 7.91711 9.14709 7.70639C8.94206 7.49566 8.83427 7.20895 8.84969 6.91535C8.84026 6.62946 8.94623 6.3518 9.14374 6.1449C9.34124 5.93799 9.61367 5.81922 9.89969 5.81535C10.201 5.81656 10.4872 5.94778 10.6847 6.17535V5.44035C10.449 5.30972 10.1841 5.24091 9.91469 5.24035C9.46474 5.23502 9.03125 5.40934 8.71027 5.72469C8.38929 6.04005 8.20732 6.47038 8.20469 6.92035V6.92035Z" fill="#231F20"/>
<path d="M15.6499 7.46945L14.7899 5.31445H14.1099L15.4699 8.60444H15.8049L17.1949 5.31445H16.5149L15.6499 7.46945V7.46945Z" fill="#231F20"/>
<path d="M17.4741 8.52444H19.2541V7.97944H18.0991V7.11445H19.2091V6.56945H18.0991V5.85945H19.2541V5.31445H17.4741V8.52444V8.52444Z" fill="#231F20"/>
<path fill-rule="evenodd" clip-rule="evenodd" d="M21.7294 6.26031C21.7635 6.71049 21.4456 7.11113 20.9994 7.18031L21.9994 8.5003H21.2394L20.3694 7.23031H20.2994V8.5003H19.6694V5.32031H20.5894C21.3194 5.32031 21.7294 5.66031 21.7294 6.26031ZM20.2992 6.79029H20.4992C20.8692 6.79029 21.0892 6.66029 21.0892 6.32029C21.0892 5.98029 20.8792 5.82029 20.4992 5.82029H20.2992V6.79029Z" fill="#231F20"/>
<path d="M14.2943 6.91984C14.2943 7.86148 13.5309 8.62483 12.5893 8.62483C11.6477 8.62483 10.8843 7.86148 10.8843 6.91984C10.8843 5.9782 11.6477 5.21484 12.5893 5.21484C13.5298 5.21759 14.2916 5.97934 14.2943 6.91984V6.91984Z" fill="#EE7623"/>
<path fill-rule="evenodd" clip-rule="evenodd" d="M22.0592 5.38053C22.0575 5.41485 22.0328 5.44369 21.9992 5.45053L22.0892 5.58053H22.0092L21.9192 5.46053V5.58053H21.8492V5.29053H21.9492C22.0192 5.29053 22.0592 5.32053 22.0592 5.38053ZM21.9889 5.38084C21.9889 5.35084 21.9689 5.35084 21.9389 5.35084V5.41084H21.9489C21.9755 5.41084 21.9851 5.41084 21.9883 5.40632C21.991 5.40234 21.9889 5.39487 21.9889 5.38084Z" fill="#231F20"/>
<path fill-rule="evenodd" clip-rule="evenodd" d="M21.73 5.42989C21.7299 5.29563 21.8358 5.18526 21.97 5.17989C22.038 5.17716 22.1042 5.2023 22.1532 5.24948C22.2023 5.29666 22.23 5.36181 22.23 5.42989C22.23 5.56796 22.118 5.67989 21.98 5.67989C21.8419 5.67989 21.73 5.56796 21.73 5.42989ZM21.9694 5.63939C22.0198 5.64098 22.068 5.61875 22.0994 5.57939C22.1369 5.53829 22.1582 5.485 22.1594 5.42939C22.1594 5.32446 22.0744 5.2394 21.9694 5.2394C21.8645 5.2394 21.7794 5.32446 21.7794 5.42939C21.7753 5.4828 21.7933 5.53555 21.8293 5.57527C21.8652 5.61499 21.9159 5.63818 21.9694 5.63939Z" fill="#231F20"/>
</svg>
