<svg width="24" height="16" viewBox="0 0 24 16" fill="none" xmlns="http://www.w3.org/2000/svg">
<g id="jcb-color-large">
<rect id="card_bg" width="24" height="16" rx="2" fill="white"/>
<g id="jcb-logo">
<path id="Path" d="M16.05 9.285H17.205H17.345C17.5836 9.23888 17.7544 9.02793 17.75 8.785C17.7415 8.54671 17.5763 8.34279 17.345 8.285C17.2985 8.27967 17.2515 8.27967 17.205 8.285H16.05V9.285Z" fill="#40A648"/>
<path id="Path_2" d="M17.07 2C15.9654 2 15.07 2.89543 15.07 4V6.075H17.895C17.9614 6.06718 18.0286 6.06718 18.095 6.075C18.73 6.105 19.205 6.435 19.205 7.005C19.1919 7.5048 18.7898 7.90688 18.29 7.92V7.92C18.94 7.965 19.435 8.325 19.435 8.89C19.435 9.455 18.885 9.89 18.16 9.89H15.06V14H18C19.1046 14 20 13.1046 20 12V2H17.07Z" fill="#40A648"/>
<path id="Path_3" d="M17.61 7.15503C17.6281 6.90759 17.4508 6.68868 17.205 6.65503H17.095H16.05V7.62003H17.095C17.1315 7.62566 17.1686 7.62566 17.205 7.62003C17.4401 7.58949 17.6145 7.38702 17.61 7.15003V7.15503Z" fill="#40A648"/>
<path id="Path_4" d="M6 2C4.89543 2 4 2.89543 4 4V8.935C4.53326 9.21433 5.12325 9.36824 5.725 9.385C6.00518 9.41765 6.28553 9.32543 6.49162 9.13283C6.6977 8.94023 6.80865 8.66674 6.795 8.385V6.065H8.5V8.385C8.5 9.285 7.94 10.02 6.04 10.02C5.35239 10.0195 4.66739 9.93554 4 9.77V14H6.935C8.03957 14 8.935 13.1046 8.935 12V2H6Z" fill="#0D67B0"/>
<path id="Path_5" d="M11.545 2C10.4404 2 9.545 2.89543 9.545 4V6.615C10.045 6.185 10.93 5.91 12.345 5.98C12.8746 6.0116 13.4001 6.09194 13.915 6.22V7.065C13.4509 6.81583 12.9401 6.66598 12.415 6.625C11.34 6.55 10.69 7.075 10.69 8C10.69 8.925 11.34 9.46 12.415 9.375C12.9388 9.32713 13.4483 9.17768 13.915 8.935V9.78C13.4004 9.90911 12.8747 9.98947 12.345 10.02C10.93 10.09 10.05 9.815 9.545 9.385V14H12.5C13.6046 14 14.5 13.1046 14.5 12V2H11.545Z" fill="#BE2034"/>
</g>
</g>
</svg>
