<svg width="24" height="16" viewBox="0 0 24 16" fill="none" xmlns="http://www.w3.org/2000/svg">
<rect x="0.25" y="0.25" width="23.5" height="15.5" rx="1.75" fill="white" stroke="#D9D9D9" stroke-width="0.5"/>
<path d="M13.7049 7.90879C13.7049 10.6198 11.5324 12.8176 8.85246 12.8176C6.17252 12.8176 4 10.6198 4 7.90879C4 5.19774 6.17252 3 8.85246 3C11.5324 3 13.7049 5.19774 13.7049 7.90879Z" fill="#ED0006"/>
<path d="M20 7.90879C20 10.6198 17.8274 12.8176 15.1475 12.8176C12.4676 12.8176 10.295 10.6198 10.295 7.90879C10.295 5.19774 12.4676 3 15.1475 3C17.8274 3 20 5.19774 20 7.90879Z" fill="#0099DF"/>
<path fill-rule="evenodd" clip-rule="evenodd" d="M12 11.6449C13.0433 10.7445 13.7049 9.40479 13.7049 7.90877C13.7049 6.41275 13.0433 5.07303 12 4.17267C10.9567 5.07303 10.2952 6.41275 10.2952 7.90877C10.2952 9.40479 10.9567 10.7445 12 11.6449Z" fill="#6C6BBD"/>
</svg>
