<svg width="24" height="16" viewBox="0 0 24 16" fill="none" xmlns="http://www.w3.org/2000/svg">
<rect x="-0.000335693" width="23.9999" height="15.9999" rx="1.99999" fill="#DFE3E8"/>
<path fill-rule="evenodd" clip-rule="evenodd" d="M6.56506 10.3664C6.56506 10.6914 6.37506 11.5013 5.22006 11.5013H4.31506V11.4164C4.31946 11.4159 4.32382 11.4155 4.32812 11.415C4.51453 11.396 4.61006 11.3863 4.61006 11.1664V9.59136C4.61006 9.31136 4.46006 9.31136 4.31506 9.31136V9.22636H5.26006C5.58654 9.19443 5.91172 9.29869 6.15877 9.5145C6.40583 9.73032 6.55283 10.0385 6.56506 10.3664ZM5.18477 9.34741C5.09984 9.34249 5.0147 9.34249 4.92977 9.34741L4.90977 11.1174C4.90977 11.3674 5.08977 11.3974 5.24977 11.3974C5.51237 11.4076 5.76642 11.3031 5.9459 11.1112C6.12537 10.9192 6.21255 10.6587 6.18477 10.3974C6.19847 10.1236 6.0992 9.85624 5.91016 9.65775C5.72112 9.45926 5.45888 9.34706 5.18477 9.34741Z" fill="#211E1F"/>
<path d="M7.37493 11.5012V11.4162H7.31993C7.22493 11.4162 7.15493 11.4162 7.15493 11.3062V10.0562V10.0112C7.13518 10.0067 7.11468 10.0067 7.09493 10.0112C6.98053 10.0575 6.86369 10.0976 6.74493 10.1312V10.1812C6.86493 10.2462 6.91493 10.2662 6.91493 10.4112V11.2912C6.91493 11.4012 6.84993 11.4012 6.75993 11.4012H6.69493V11.5012H7.39493H7.37493Z" fill="#211E1F"/>
<path d="M7.02497 9.53109C7.06828 9.53111 7.10976 9.51357 7.13991 9.48248C7.17006 9.45138 7.18632 9.40939 7.18497 9.36609C7.18227 9.27969 7.11142 9.21105 7.02497 9.21109C6.9366 9.21109 6.86497 9.28273 6.86497 9.37109C6.86497 9.45946 6.9366 9.53109 7.02497 9.53109V9.53109Z" fill="#211E1F"/>
<path d="M9.10082 11.4359H9.04582C8.95082 11.4359 8.88082 11.4359 8.88082 11.3259V10.5009C8.88082 10.2509 8.78582 10.0459 8.50583 10.0459C8.29708 10.0629 8.09999 10.1491 7.94583 10.2909V10.0809C7.94583 10.0559 7.94583 10.0459 7.94583 10.0459C7.80545 10.1054 7.6619 10.1572 7.51583 10.2009V10.2659C7.66583 10.3259 7.70583 10.3609 7.70583 10.4809V10.4809V11.3409C7.70583 11.4509 7.64083 11.4509 7.54583 11.4509H7.49083V11.5009H8.18583V11.4159H8.12583C8.03583 11.4159 7.96583 11.4159 7.96583 11.3059V10.3659C8.07525 10.2817 8.20429 10.2266 8.34083 10.2059C8.41964 10.1952 8.49907 10.2205 8.55721 10.2748C8.61535 10.329 8.64605 10.4065 8.64083 10.4859V11.3259C8.64083 11.4359 8.57583 11.4359 8.48583 11.4359H8.42583V11.5009H9.10082V11.4359Z" fill="#211E1F"/>
<path fill-rule="evenodd" clip-rule="evenodd" d="M10.3154 11.2011C10.1865 11.4161 9.96052 11.5543 9.71041 11.5711C9.53489 11.5672 9.36828 11.493 9.24796 11.3652C9.12764 11.2373 9.06367 11.0665 9.07042 10.8911C9.07042 10.2511 9.50041 10.0611 9.72541 10.0611C9.86645 10.0469 10.0069 10.0933 10.1118 10.1886C10.2166 10.284 10.2761 10.4194 10.2754 10.5611V10.6211H10.2454H9.33041C9.32486 10.6843 9.32486 10.7479 9.33041 10.8111C9.31885 11.102 9.54003 11.3498 9.83041 11.3711C10.0001 11.3617 10.1587 11.2842 10.2704 11.1561L10.3154 11.2011ZM9.71091 10.1371C9.71502 10.1371 9.71913 10.1371 9.72322 10.1371H9.71091ZM9.72676 10.1372C9.72558 10.1372 9.7244 10.1372 9.72322 10.1371H9.73591C9.73285 10.1371 9.7298 10.1372 9.72676 10.1372ZM9.72676 10.1372C9.79935 10.1398 9.86824 10.171 9.9181 10.2244C9.97157 10.2817 9.99806 10.3591 9.99091 10.4371C9.99091 10.4771 9.99091 10.5171 9.90091 10.5171H9.36091C9.4003 10.2857 9.5318 10.1416 9.72676 10.1372Z" fill="#211E1F"/>
<path d="M10.4607 11.4356H10.3707V11.5006H11.2157V11.4156H11.0357C10.9407 11.4156 10.8757 11.4156 10.8757 11.3056V10.5606C10.8771 10.4233 10.9795 10.308 11.1157 10.2906C11.2307 10.2906 11.2307 10.3706 11.3307 10.3706C11.3727 10.3693 11.4124 10.351 11.4407 10.3199C11.469 10.2888 11.4834 10.2475 11.4807 10.2056C11.4808 10.1574 11.461 10.1113 11.426 10.0781C11.391 10.045 11.3438 10.0278 11.2957 10.0306C11.1007 10.0306 10.9607 10.2406 10.8807 10.3656V10.3656V10.0756C10.8807 10.0406 10.8807 10.0306 10.8507 10.0306C10.8207 10.0306 10.6907 10.1156 10.4507 10.2156V10.2656C10.5007 10.2656 10.6207 10.3106 10.6207 10.4106V11.3256C10.6157 11.4356 10.5507 11.4356 10.4607 11.4356Z" fill="#211E1F"/>
<path d="M12.035 11.4663C11.8175 11.4544 11.6422 11.2835 11.625 11.0663H11.565L11.605 11.4363C11.7251 11.5068 11.8609 11.5463 12 11.5513C12.385 11.5513 12.56 11.3213 12.56 11.1063C12.56 10.6063 11.805 10.7113 11.805 10.3313C11.8088 10.2683 11.8382 10.2097 11.8864 10.169C11.9346 10.1284 11.9974 10.1093 12.06 10.1163C12.246 10.1078 12.4043 10.2504 12.415 10.4363H12.5L12.475 10.1063C12.3606 10.0468 12.234 10.0143 12.105 10.0113C11.9821 9.99583 11.8582 10.0324 11.7633 10.1121C11.6684 10.1918 11.611 10.3075 11.605 10.4313C11.605 10.9313 12.315 10.8313 12.315 11.2163C12.3212 11.2898 12.2924 11.362 12.2374 11.4111C12.1823 11.4602 12.1074 11.4807 12.035 11.4663V11.4663Z" fill="#211E1F"/>
<path d="M15.4305 11.3954L15.5055 10.9204H15.4305C15.3812 11.2444 15.1032 11.4842 14.7755 11.4854C14.1974 11.4375 13.7652 10.934 13.8055 10.3554C13.7741 10.0934 13.8561 9.83043 14.0309 9.63272C14.2057 9.43502 14.4566 9.32137 14.7205 9.32039C15.0612 9.27599 15.3739 9.51496 15.4205 9.85539H15.5005L15.4655 9.39039C15.2224 9.28867 14.9636 9.22947 14.7005 9.21539C14.0433 9.19566 13.4926 9.70846 13.4655 10.3654C13.4458 10.6995 13.5713 11.0258 13.8099 11.2605C14.0485 11.4952 14.3768 11.6155 14.7105 11.5904C14.9613 11.5752 15.2063 11.5089 15.4305 11.3954V11.3954Z" fill="#211E1F"/>
<path d="M16.3152 11.5007V11.4157H16.2602C16.1652 11.4157 16.0952 11.4157 16.0952 11.3057V9.05574V9.01074C16.0952 9.01074 16.0602 9.01074 16.0252 9.04574C15.9183 9.10311 15.8061 9.14999 15.6902 9.18574V9.24074C15.8102 9.27574 15.8602 9.28074 15.8602 9.49574V11.3057C15.8602 11.4157 15.7952 11.4157 15.7052 11.4157H15.6402V11.5007H16.3402H16.3152Z" fill="#211E1F"/>
<path d="M16.5003 10.3461V11.1811C16.4887 11.2815 16.5211 11.382 16.5892 11.4567C16.6572 11.5315 16.7542 11.5732 16.8553 11.571C17.0764 11.5557 17.2835 11.4575 17.4353 11.2961V11.561V11.561C17.5893 11.515 17.7463 11.48 17.9053 11.456V11.4011H17.8003C17.7453 11.4011 17.7053 11.4011 17.7053 11.3411V10.1411C17.7053 10.1061 17.7053 10.0811 17.7053 10.0811C17.7053 10.0811 17.4903 10.1061 17.2053 10.1261V10.1861C17.3203 10.2161 17.4753 10.2511 17.4753 10.3161V11.1961C17.368 11.299 17.232 11.367 17.0853 11.3911C16.8003 11.3911 16.8003 11.1111 16.8003 11.0161V10.1761C16.8003 10.1061 16.8003 10.0811 16.7653 10.0811L16.3453 10.1061V10.1661C16.5003 10.1811 16.5003 10.2611 16.5003 10.3461Z" fill="#211E1F"/>
<path fill-rule="evenodd" clip-rule="evenodd" d="M18.0958 10.9012V9.50125C18.0958 9.30839 18.0493 9.29685 17.9205 9.26489C17.9157 9.26371 17.9108 9.2625 17.9058 9.26125V9.20625C18.0224 9.1724 18.1348 9.12544 18.2408 9.06625L18.3158 9.03125C18.3408 9.03125 18.3408 9.07625 18.3408 9.07625V10.2712C18.4755 10.1378 18.6521 10.0548 18.8408 10.0362C19.013 10.0438 19.1747 10.1211 19.2888 10.2503C19.4029 10.3794 19.4596 10.5494 19.4458 10.7212C19.4629 11.1714 19.1157 11.552 18.6658 11.5762C18.5087 11.5753 18.3542 11.5358 18.2158 11.4612L18.1158 11.5362L18.0508 11.5012C18.0818 11.3028 18.0968 11.1021 18.0958 10.9012ZM18.6666 10.1923C18.548 10.2054 18.4381 10.2604 18.3566 10.3473L18.3316 11.1373C18.3392 11.3191 18.4848 11.4647 18.6666 11.4723C19.0216 11.4723 19.1666 11.1273 19.1666 10.8373C19.1848 10.5275 18.9712 10.2519 18.6666 10.1923Z" fill="#211E1F"/>
<path d="M4.57041 12.2307H4.31042V12.2307V12.3007H4.34541C4.41041 12.3007 4.46541 12.3007 4.47041 12.3957V13.3207C4.47041 13.4107 4.41041 13.4157 4.34541 13.4157H4.30042V13.5007V13.5007H4.56041H4.84041V13.5007V13.4357H4.82541C4.76041 13.4357 4.70041 13.4357 4.70041 13.3407V12.3857C4.70041 12.2957 4.76041 12.2907 4.82541 12.2907H4.86041V12.2207V12.2207L4.57041 12.2307Z" fill="#211E1F"/>
<path d="M6.12576 12.2308H5.87576V12.2308V12.3008H5.92076C5.97576 12.3008 6.06576 12.3008 6.07076 12.4608V13.1108L5.29077 12.2358C5.23077 12.2358 5.18077 12.2358 5.12577 12.2358H4.92077V12.2358V12.3058H4.95077C4.99141 12.3045 5.03086 12.3197 5.06008 12.3479C5.0893 12.3762 5.10579 12.4152 5.10577 12.4558V13.2058C5.10577 13.3458 5.07077 13.4208 4.95077 13.4208H4.91077V13.5008V13.5008H5.15577H5.38076V13.5008V13.4358H5.34077C5.21077 13.4358 5.18577 13.3908 5.18077 13.2358V12.5008L6.08076 13.5008H6.16576V13.5008C6.16576 13.4458 6.16576 13.3858 6.16576 13.3258V12.5008C6.16576 12.2958 6.24576 12.2858 6.31576 12.2858H6.35076V12.2158V12.2158L6.12576 12.2308Z" fill="#211E1F"/>
<path d="M7.57565 12.166V12.166C7.57565 12.211 7.53565 12.211 7.48565 12.211H6.56065C6.51565 12.211 6.48565 12.211 6.47065 12.166H6.41565V12.166C6.41831 12.2143 6.41831 12.2627 6.41565 12.311C6.41565 12.366 6.41565 12.416 6.41565 12.461V12.461H6.48565C6.51565 12.331 6.51565 12.306 6.64565 12.306V12.306V12.306V12.306H6.92565V13.246C6.92565 13.381 6.88565 13.381 6.78565 13.386H6.74565V13.501V13.501H7.04565H7.33065V13.501V13.436H7.29065C7.20565 13.436 7.15065 13.436 7.15065 13.291V12.326H7.43065C7.54565 12.326 7.55065 12.421 7.55565 12.491V12.491L7.62065 12.466V12.466V12.321C7.62065 12.276 7.62065 12.226 7.62065 12.176V12.176H7.57065L7.57565 12.166Z" fill="#211E1F"/>
<path d="M8.63528 13.1613V13.1613C8.58528 13.3613 8.49528 13.3713 8.28528 13.3713C8.17028 13.3713 8.07528 13.3713 8.07528 13.2613V12.8563H8.28028C8.40028 12.8563 8.40028 12.9213 8.41028 13.0263V13.0263H8.47528V13.0263C8.47528 12.9563 8.47528 12.8913 8.47528 12.8263C8.47528 12.7613 8.47528 12.6863 8.47528 12.6163V12.6163H8.40528V12.6163C8.40528 12.7113 8.37528 12.7613 8.27528 12.7663H8.07028V12.3163H8.31028C8.49028 12.3163 8.50528 12.4013 8.51528 12.5163V12.5163H8.57528V12.5163C8.57528 12.4663 8.57528 12.3963 8.57528 12.3363V12.2363V12.2363H8.12028H7.68028V12.2363V12.3063H7.71028C7.77528 12.3063 7.83028 12.3063 7.83528 12.4013V13.3263C7.83528 13.4163 7.77528 13.4213 7.71028 13.4213H7.68028V13.5013V13.5013H8.15028H8.65028V13.5013V13.5013C8.65028 13.4113 8.69028 13.3163 8.71028 13.2213V13.2213H8.65528L8.63528 13.1613Z" fill="#211E1F"/>
<path fill-rule="evenodd" clip-rule="evenodd" d="M9.51512 12.8557L9.81512 13.3007C9.83818 13.383 9.91467 13.4389 10.0001 13.4357V13.5007L9.80512 13.4707H9.63512C9.49859 13.2896 9.37495 13.0991 9.26512 12.9007H9.16012V13.3007C9.16512 13.4357 9.21512 13.4357 9.30012 13.4357H9.33012V13.5007H9.02513H8.77013V13.4057H8.81013C8.87513 13.4057 8.93013 13.3757 8.93013 13.3157V12.4157C8.93013 12.2907 8.86513 12.2907 8.81013 12.2907H8.77013V12.2207H9.04513H9.33012C9.55012 12.2207 9.76012 12.2857 9.76012 12.5407C9.75673 12.6882 9.65724 12.8161 9.51512 12.8557ZM9.23521 12.8221C9.41021 12.8221 9.50021 12.7621 9.50021 12.5521C9.50045 12.4875 9.4735 12.4257 9.42593 12.382C9.37837 12.3382 9.31459 12.3165 9.25021 12.3221H9.15521V12.8221H9.23521Z" fill="#211E1F"/>
<path d="M11.4659 12.2907V12.2207V12.2207H11.2459H10.9959V12.2207V12.2907H11.0409C11.0959 12.2907 11.1859 12.2907 11.1909 12.4507V13.1007L10.4009 12.2257C10.3409 12.2257 10.2909 12.2257 10.2359 12.2257H10.0309V12.2257V12.2957H10.0609C10.1015 12.2943 10.141 12.3096 10.1702 12.3378C10.1994 12.3661 10.2159 12.405 10.2159 12.4457V13.1907C10.2159 13.3357 10.1809 13.4107 10.0609 13.4107H10.0309V13.5007V13.5007H10.2759H10.5009V13.5007V13.4357H10.4609C10.3309 13.4357 10.3059 13.3907 10.3059 13.2357V12.5007L11.2009 13.5007H11.2859V13.5007C11.2859 13.4457 11.2859 13.3857 11.2859 13.3257V12.5007C11.2859 12.2957 11.3659 12.2857 11.4359 12.2857H11.4709L11.4659 12.2907Z" fill="#211E1F"/>
<path fill-rule="evenodd" clip-rule="evenodd" d="M12.5222 13.2088C12.5437 13.2541 12.5653 13.3001 12.5653 13.3405C12.5654 13.3798 12.5864 13.416 12.6205 13.4356C12.6545 13.4552 12.6963 13.4552 12.7303 13.4355V13.5005H12.4903H12.2203V13.4355H12.2453C12.2903 13.4355 12.3503 13.4255 12.3503 13.3905C12.3437 13.3476 12.3319 13.3057 12.3153 13.2655L12.2453 13.0655H11.8553L11.8003 13.2455C11.7841 13.2896 11.7708 13.3347 11.7603 13.3805C11.7603 13.4355 11.8303 13.4355 11.8853 13.4355H11.9153V13.5005H11.7003H11.5103V13.4105C11.5792 13.4113 11.6403 13.3665 11.6603 13.3005L11.9403 12.4855C11.9689 12.4123 11.9923 12.3371 12.0103 12.2605C12.0682 12.2425 12.1237 12.2173 12.1753 12.1855V12.2305L12.5003 13.1605C12.5069 13.1764 12.5146 13.1925 12.5222 13.2088ZM12.0005 12.4461L11.8455 12.921H12.1555L12.0005 12.4461Z" fill="#211E1F"/>
<path d="M13.7299 12.166V12.166C13.7299 12.211 13.6899 12.211 13.6399 12.211H12.7199C12.6749 12.211 12.6399 12.211 12.6299 12.166H12.5699V12.166C12.575 12.2142 12.575 12.2628 12.5699 12.311C12.5699 12.366 12.5699 12.416 12.5699 12.466H12.6399C12.6649 12.336 12.6649 12.311 12.7949 12.311V12.311V12.311V12.311H13.0799V13.251C13.0799 13.386 13.0349 13.386 12.9399 13.391H12.8949V13.501V13.501H13.1949H13.4849V13.501V13.436H13.4449C13.3599 13.436 13.3049 13.436 13.3049 13.291V12.326H13.5899C13.6999 12.326 13.7049 12.421 13.7099 12.491V12.491L13.7749 12.466V12.466C13.7723 12.4177 13.7723 12.3693 13.7749 12.321C13.7749 12.276 13.7749 12.226 13.7749 12.176V12.176H13.7249L13.7299 12.166Z" fill="#211E1F"/>
<path d="M14.1103 12.2307H13.8453V12.2307V12.3007H13.8753C13.9403 12.3007 14.0003 12.3007 14.0003 12.3957V13.3207C14.0003 13.4107 13.9403 13.4157 13.8753 13.4157H13.8453V13.5007V13.5007H14.1053H14.3853V13.5007V13.4357H14.3503C14.2853 13.4357 14.2303 13.4357 14.2303 13.3407V12.3857C14.2303 12.2957 14.2853 12.2907 14.3503 12.2907H14.3853V12.2207V12.2207L14.1103 12.2307Z" fill="#211E1F"/>
<path fill-rule="evenodd" clip-rule="evenodd" d="M14.6222 12.3881C14.7463 12.264 14.9149 12.1949 15.0904 12.1962C15.2658 12.1794 15.4403 12.2369 15.5715 12.3547C15.7026 12.4726 15.7784 12.64 15.7804 12.8162C15.7874 12.9991 15.7182 13.1767 15.5892 13.3065C15.4603 13.4364 15.2833 13.5069 15.1004 13.5012C14.9242 13.511 14.752 13.447 14.6249 13.3247C14.4978 13.2023 14.4273 13.0326 14.4304 12.8562C14.429 12.6808 14.4981 12.5121 14.6222 12.3881ZM15.5149 12.8569C15.5149 12.5969 15.3749 12.2919 15.0899 12.2919C14.7849 12.2919 14.6949 12.5619 14.6949 12.7969C14.6949 13.1119 14.7849 13.4069 15.1199 13.4069C15.4549 13.4069 15.5149 13.1169 15.5149 12.8569Z" fill="#211E1F"/>
<path d="M17.2506 12.2907V12.2207V12.2207H17.0356H16.7856V12.2207V12.2907H16.8306C16.8806 12.2907 16.9756 12.2907 16.9756 12.4507V13.1007L16.1956 12.2257C16.1356 12.2257 16.0856 12.2257 16.0356 12.2257H15.8306V12.2257V12.2957H15.8606C15.9008 12.2943 15.9398 12.3096 15.9683 12.3381C15.9967 12.3665 16.0121 12.4055 16.0106 12.4457V13.1957C16.0106 13.3357 15.9756 13.4107 15.8606 13.4107H15.8306V13.5007V13.5007H16.0706H16.3006V13.5007V13.4357H16.2656C16.1306 13.4357 16.1106 13.3907 16.1056 13.2357V12.5007L17.0006 13.5007H17.0806V13.5007C17.0755 13.4425 17.0755 13.3839 17.0806 13.3257V12.5007C17.0806 12.2957 17.1556 12.2857 17.2306 12.2857H17.2656L17.2506 12.2907Z" fill="#211E1F"/>
<path fill-rule="evenodd" clip-rule="evenodd" d="M18.2854 13.1605C18.304 13.2216 18.3257 13.2817 18.3504 13.3405C18.3521 13.3727 18.3685 13.4023 18.3948 13.4208C18.4211 13.4394 18.4545 13.4448 18.4854 13.4355V13.5005H18.2404H17.9754V13.4355H18.0004C18.0404 13.4355 18.1004 13.4255 18.1004 13.3905C18.0931 13.3478 18.0814 13.3059 18.0654 13.2655L18.0004 13.0655H17.6754L17.6204 13.2455C17.6018 13.2888 17.5884 13.3341 17.5804 13.3805C17.5804 13.4355 17.6454 13.4355 17.7054 13.4355V13.5005H17.4904H17.3004V13.4105C17.3674 13.4091 17.4259 13.3647 17.4454 13.3005L17.7304 12.4855C17.7589 12.4123 17.7823 12.3371 17.8004 12.2605C17.8563 12.2415 17.91 12.2164 17.9604 12.1855V12.2305L18.2854 13.1605ZM17.6268 12.921H17.9368L17.7868 12.4461L17.6268 12.921Z" fill="#211E1F"/>
<path d="M19.5 13.1557V13.1557C19.4893 13.2003 19.4707 13.2426 19.445 13.2807C19.4035 13.3306 19.3445 13.3628 19.28 13.3707H19.05C18.995 13.3707 18.95 13.3457 18.95 13.2757V12.3807C18.95 12.2907 18.995 12.2907 19.06 12.2907H19.115V12.2207V12.2207H18.845H18.565V12.2207V12.2907H18.595C18.66 12.2907 18.72 12.2907 18.72 12.3857V13.2957C18.72 13.4007 18.66 13.4057 18.595 13.4057H18.565V13.5007V13.5007H19.035H19.5V13.5007V13.5007C19.5 13.4007 19.545 13.3007 19.565 13.2007V13.2007H19.5V13.1557Z" fill="#211E1F"/>
<path fill-rule="evenodd" clip-rule="evenodd" d="M19.3204 12.3694C19.3186 12.2679 19.3989 12.1839 19.5003 12.1812C19.5507 12.1784 19.5999 12.1968 19.636 12.2319C19.6721 12.2671 19.6918 12.3158 19.6903 12.3662C19.6903 12.4677 19.6085 12.5502 19.507 12.5511C19.4055 12.552 19.3222 12.4709 19.3204 12.3694ZM19.3505 12.3504C19.3505 12.4332 19.4177 12.5004 19.5005 12.5004C19.5403 12.5004 19.5784 12.4846 19.6066 12.4565C19.6347 12.4283 19.6505 12.3902 19.6505 12.3504C19.6505 12.2675 19.5833 12.2004 19.5005 12.2004C19.4177 12.2004 19.3505 12.2675 19.3505 12.3504Z" fill="#211E1F"/>
<path fill-rule="evenodd" clip-rule="evenodd" d="M19.5805 12.3164C19.5809 12.3432 19.5619 12.3665 19.5355 12.3714V12.4114L19.5755 12.4564H19.5405C19.5275 12.4564 19.5167 12.4396 19.5011 12.4155C19.4926 12.4024 19.4828 12.3872 19.4705 12.3714V12.4314H19.4205V12.2914V12.2664H19.5155C19.5505 12.2664 19.5805 12.2814 19.5805 12.3164ZM19.4803 12.2868V12.3718H19.4853C19.5203 12.3718 19.5203 12.3518 19.5203 12.3268C19.522 12.3158 19.5184 12.3046 19.5104 12.2967C19.5025 12.2888 19.4913 12.2851 19.4803 12.2868Z" fill="#211E1F"/>
<path d="M12.6803 8.79586C14.436 8.80587 15.8872 7.42961 15.9703 5.67587C15.9598 4.81701 15.6061 3.99803 14.9881 3.40158C14.37 2.80512 13.539 2.48078 12.6803 2.50088H11.1803C10.3329 2.48149 9.51451 2.80993 8.91562 3.40976C8.31674 4.0096 7.98958 4.8285 8.01031 5.67587C8.02954 7.4105 9.44559 8.80421 11.1803 8.79586H12.6803Z" fill="#0779BE"/>
<path fill-rule="evenodd" clip-rule="evenodd" d="M11.2116 2.76172C9.62103 2.76172 8.33162 4.05113 8.33162 5.64171C8.33162 7.23228 9.62103 8.5217 11.2116 8.5217C12.8022 8.5217 14.0916 7.23228 14.0916 5.64171C14.0916 4.05113 12.8022 2.76172 11.2116 2.76172ZM9.38628 5.6415C9.38703 4.88618 9.85178 4.20892 10.5563 3.93651V7.3465C9.85086 7.07525 9.38562 6.39727 9.38628 5.6415ZM11.8619 3.93651V7.3465C12.5689 7.0766 13.036 6.39831 13.036 5.6415C13.036 4.88469 12.5689 4.20641 11.8619 3.93651Z" fill="white"/>
<path d="M12.6803 8.79586C14.436 8.80587 15.8872 7.42961 15.9703 5.67587C15.9598 4.81701 15.6061 3.99803 14.9881 3.40158C14.37 2.80512 13.539 2.48078 12.6803 2.50088H11.1803C10.3329 2.48149 9.51451 2.80993 8.91562 3.40976C8.31674 4.0096 7.98958 4.8285 8.01031 5.67587C8.02954 7.4105 9.44559 8.80421 11.1803 8.79586H12.6803Z" fill="#0779BE"/>
<path fill-rule="evenodd" clip-rule="evenodd" d="M11.2116 2.76172C9.62103 2.76172 8.33162 4.05113 8.33162 5.64171C8.33162 7.23228 9.62103 8.5217 11.2116 8.5217C12.8022 8.5217 14.0916 7.23228 14.0916 5.64171C14.0916 4.05113 12.8022 2.76172 11.2116 2.76172ZM9.38628 5.6415C9.38703 4.88618 9.85178 4.20892 10.5563 3.93651V7.3465C9.85086 7.07525 9.38562 6.39727 9.38628 5.6415ZM11.8619 3.93651V7.3465C12.5689 7.0766 13.036 6.39831 13.036 5.6415C13.036 4.88469 12.5689 4.20641 11.8619 3.93651Z" fill="white"/>
</svg>
