<svg width="24" height="16" viewBox="0 0 24 16" fill="none" xmlns="http://www.w3.org/2000/svg">
<rect x="0.25" y="0.25" width="23.5" height="15.5" rx="1.75" fill="white" stroke="#D9D9D9" stroke-width="0.5"/>
<path d="M23.5 9.5V14C23.5 14.6825 23 15.5 21.9628 15.5H7.5C8.82415 15.3118 11.4735 15.0066 13.5 14.5C15.478 14.0055 17.1758 13.3297 18 13C19.0267 12.5893 20.8134 11.7182 21.8077 11C22.5 10.5 22.8077 10.1923 23.5 9.5Z" fill="#FF5000"/>
<path fill-rule="evenodd" clip-rule="evenodd" d="M20.6003 6.07493C21.337 6.07493 21.7421 6.40276 21.7421 7.02199C21.779 7.49551 21.4475 7.89619 21.0055 7.96904L21.9999 9.31676H21.2265L20.3793 8.00546H20.3057V9.31676H19.6795V6.07493H20.6003ZM20.3057 7.56865H20.4898C20.895 7.56865 21.0791 7.38652 21.0791 7.0587C21.0791 6.7673 20.895 6.58517 20.4898 6.58517H20.3057V7.56865ZM17.5064 9.31676H19.2744V8.77039H18.1326V7.89619H19.2375V7.34981H18.1326V6.62131H19.2744V6.07493H17.5064V9.31676ZM15.6648 8.26044L14.8177 6.07493H14.1547L15.5175 9.38961H15.849L17.2118 6.07493H16.5488L15.6648 8.26044ZM8.18805 7.71435C8.18805 8.62497 8.9247 9.3899 9.84551 9.3899C10.1402 9.3899 10.398 9.31705 10.6558 9.20778V8.47927C10.4717 8.69783 10.2138 8.84353 9.91918 8.84353C9.32986 8.84353 8.85104 8.40642 8.85104 7.82362V7.75077C8.8142 7.16797 9.29303 6.65802 9.88234 6.6216C10.177 6.6216 10.4717 6.7673 10.6558 6.98585V6.25735C10.4348 6.11165 10.1402 6.07522 9.88234 6.07522C8.9247 6.00237 8.18805 6.7673 8.18805 7.71435ZM7.04597 7.3136C6.67764 7.1679 6.56715 7.09505 6.56715 6.91293C6.60398 6.69438 6.78814 6.51225 7.00914 6.54868C7.1933 6.54868 7.37746 6.65795 7.52479 6.80365L7.85628 6.36655C7.59845 6.148 7.26696 6.0023 6.93547 6.0023C6.41982 5.96588 5.97783 6.36655 5.941 6.8765V6.91293C5.941 7.35003 6.12516 7.605 6.71448 7.78713C6.86181 7.82355 7.00914 7.8964 7.15647 7.96925C7.26696 8.0421 7.34063 8.15138 7.34063 8.29708C7.34063 8.55205 7.11963 8.7706 6.89864 8.7706H6.86181C6.56715 8.7706 6.30932 8.58848 6.19882 8.3335L5.79367 8.73418C6.01466 9.13486 6.45665 9.35341 6.89864 9.35341C7.48796 9.38983 7.96678 8.95273 8.00361 8.36993V8.26065C7.96678 7.82355 7.78262 7.605 7.04597 7.3136ZM4.90977 9.31676H5.53592V6.07493H4.90977V9.31676ZM2 6.07493H2.92081H3.10497C3.98895 6.11136 4.68877 6.83986 4.65193 7.71406C4.65193 8.18759 4.43094 8.62469 4.06262 8.95251C3.73112 9.20749 3.32597 9.35319 2.92081 9.31676H2V6.07493ZM2.8105 8.77047C3.10516 8.8069 3.43665 8.69762 3.65764 8.5155C3.87864 8.29695 3.98914 8.00555 3.98914 7.67772C3.98914 7.38632 3.87864 7.09492 3.65764 6.87637C3.43665 6.69425 3.10516 6.58497 2.8105 6.6214H2.62634V8.77047H2.8105Z" fill="black"/>
<path fill-rule="evenodd" clip-rule="evenodd" d="M12.5339 6C11.6131 6 10.8396 6.7285 10.8396 7.67555C10.8396 8.58618 11.5762 9.3511 12.5339 9.38753C13.4915 9.42395 14.2282 8.65903 14.265 7.71198C14.2282 6.76493 13.4915 6 12.5339 6V6Z" fill="url(#paint0_linear_3_2163)"/>
<defs>
<linearGradient id="paint0_linear_3_2163" x1="11.4467" y1="6.33898" x2="13.3111" y2="9.38983" gradientUnits="userSpaceOnUse">
<stop stop-color="#993B1A"/>
<stop offset="0.239583" stop-color="#FF5000"/>
<stop offset="1" stop-color="#EB8B1F"/>
</linearGradient>
</defs>
</svg>
