<svg width="24" height="16" viewBox="0 0 24 16" fill="none" xmlns="http://www.w3.org/2000/svg">
<rect x="0.25" y="0.25" width="23.5" height="15.5" rx="1.75" fill="#1F72CD" stroke="#D9D9D9" stroke-width="0.5"/>
<path fill-rule="evenodd" clip-rule="evenodd" d="M4.25716 5L2 10.1419H4.70214L5.03713 9.3221H5.80283L6.13782 10.1419H9.11211V9.51621L9.37714 10.1419H10.9157L11.1807 9.50299V10.1419H17.3664L18.1186 9.34339L18.8229 10.1419L22 10.1486L19.7357 7.58532L22 5H18.8722L18.14 5.78379L17.4579 5H10.7286L10.1508 6.32718L9.55936 5H6.86286V5.60444L6.5629 5H4.25716ZM4.77994 5.73018H6.09709L7.59427 9.21696V5.73018H9.03715L10.1935 8.23018L11.2593 5.73018H12.695V9.41986H11.8214L11.8143 6.52865L10.5407 9.41986H9.75922L8.4785 6.52865V9.41986H6.68136L6.34065 8.59268H4.49995L4.15995 9.41914H3.19706L4.77994 5.73018ZM17.0465 5.73018H13.4943V9.41768H16.9915L18.1186 8.19559L19.2051 9.41768H20.3408L18.69 7.58462L20.3408 5.73018H19.2543L18.1329 6.93825L17.0465 5.73018ZM5.42074 6.35442L4.8143 7.82797H6.02647L5.42074 6.35442ZM14.3715 7.16778V6.49423V6.49359H16.5879L17.555 7.57077L16.545 8.65383H14.3715V7.91851H16.3093V7.16778H14.3715Z" fill="white"/>
</svg>
