<svg width="24" height="16" viewBox="0 0 24 16" fill="none" xmlns="http://www.w3.org/2000/svg">
<rect width="23.9999" height="15.9999" rx="1.99999" fill="#DFE3E8"/>
<path fill-rule="evenodd" clip-rule="evenodd" d="M15.1751 8.83522C15.1782 8.07285 14.5494 7.74357 14.0614 7.48804C13.7526 7.32627 13.5001 7.19405 13.5001 7.00023C13.5001 6.83523 13.6601 6.66023 14.0001 6.61523C14.4047 6.5752 14.8127 6.64606 15.1801 6.82023L15.3901 5.82023C15.0319 5.68591 14.6526 5.61649 14.2701 5.61523C13.0901 5.61523 12.2701 6.24523 12.2701 7.14523C12.2701 7.81023 12.8651 8.18023 13.3151 8.40022C13.7651 8.62022 13.9401 8.77522 13.9351 8.97522C13.9351 9.28522 13.5651 9.42522 13.2201 9.43022C12.7945 9.4357 12.3746 9.33244 12.0001 9.13022L11.7851 10.1302C12.2088 10.2956 12.6602 10.3788 13.1151 10.3752C14.3701 10.3752 15.1951 9.75522 15.2001 8.79522L15.1751 8.83522ZM11.9304 5.69531L10.9304 10.3203H9.73042L10.7304 5.69531H11.9304ZM16.9599 8.69495L17.5899 6.95996L17.9549 8.69495H16.9599ZM19.4046 10.3349H18.2946L18.1496 9.64495H16.6446L16.3996 10.3349H15.1396L16.9346 6.04996C17.0173 5.84609 17.2146 5.71197 17.4346 5.70996H18.4346L19.4046 10.3349ZM8.30503 10.3057L10.245 5.68067H8.94503L7.70004 8.82566L7.20004 6.15067C7.15578 5.87884 6.92044 5.67955 6.64504 5.68067H4.61005L4.58005 5.81567C4.98822 5.89553 5.38468 6.02656 5.76004 6.20567C5.91992 6.28084 6.02826 6.4348 6.04504 6.61067L7.00004 10.3057H8.30503Z" fill="#2A2A6C"/>
<path d="M0 1.99999C0 0.895427 0.895427 0 1.99999 0H21.9999C23.1045 0 23.9999 0.895427 23.9999 1.99999V2.49999H0V1.99999Z" fill="#2A2A6C"/>
<path d="M0 13.5H23.9999V14C23.9999 15.1046 23.1045 16 21.9999 16H1.99999C0.895425 16 0 15.1046 0 14V13.5Z" fill="#E2B050"/>
</svg>
