<svg width="24" height="16" viewBox="0 0 24 16" fill="none" xmlns="http://www.w3.org/2000/svg">
<rect x="0.25" y="0.25" width="23.5" height="15.5" rx="1.75" fill="white" stroke="#D9D9D9" stroke-width="0.5"/>
<path fill-rule="evenodd" clip-rule="evenodd" d="M7.25018 10.5416H5.77894L4.67568 6.20886C4.62332 6.00955 4.51213 5.83336 4.34858 5.75031C3.94042 5.54162 3.49065 5.37553 3 5.29176V5.12495H5.37006C5.69716 5.12495 5.94249 5.37553 5.98337 5.66654L6.5558 8.79191L8.02633 5.12495H9.45669L7.25018 10.5416ZM10.2745 10.5416H8.88504L10.0292 5.12495H11.4186L10.2745 10.5416ZM13.2162 6.62551C13.2571 6.33377 13.5024 6.16696 13.7886 6.16696C14.2384 6.12508 14.7283 6.20884 15.1372 6.41681L15.3825 5.25058C14.9736 5.08377 14.5239 5 14.1157 5C12.7671 5 11.7858 5.75029 11.7858 6.7916C11.7858 7.58377 12.4809 7.99972 12.9716 8.2503C13.5024 8.50015 13.7068 8.66696 13.6659 8.91682C13.6659 9.29161 13.2571 9.45842 12.8489 9.45842C12.3582 9.45842 11.8676 9.33349 11.4185 9.12479L11.1732 10.2918C11.6639 10.4997 12.1947 10.5835 12.6853 10.5835C14.1975 10.6247 15.1372 9.87508 15.1372 8.75001C15.1372 7.33319 13.2162 7.25015 13.2162 6.62551ZM20 10.5416L18.8967 5.12495H17.7117C17.4664 5.12495 17.221 5.29176 17.1393 5.54162L15.0963 10.5416H16.5267L16.8122 9.75018H18.5696L18.7332 10.5416H20ZM17.9162 6.58359L18.3244 8.62505H17.1802L17.9162 6.58359Z" fill="#172B85"/>
</svg>
