<svg width="24" height="16" viewBox="0 0 24 16" fill="none" xmlns="http://www.w3.org/2000/svg">
<g clip-path="url(#clip0_1_2)">
<path d="M22 0.25H2C1.0335 0.25 0.25 1.0335 0.25 2V14C0.25 14.9665 1.0335 15.75 2 15.75H22C22.9665 15.75 23.75 14.9665 23.75 14V2C23.75 1.0335 22.9665 0.25 22 0.25Z" fill="white" stroke="#D9D9D9" stroke-width="0.5"/>
<path d="M11.9883 6.13795C15.1042 6.13795 17.6852 7.33154 18.2045 8.90548C18.2625 8.71672 18.3021 8.5237 18.3021 8.32643C18.3021 6.48141 15.4749 4.98694 11.9883 4.98694C8.49881 4.98694 5.66875 6.48141 5.66875 8.32643C5.66875 8.5237 5.70979 8.71672 5.76922 8.90548C6.28712 7.33296 8.86955 6.13795 11.9883 6.13795ZM11.9883 4.15101C15.1042 4.15101 17.6852 5.34459 18.2045 6.91712C18.2625 6.72836 18.3021 6.53534 18.3021 6.33948C18.3021 4.49588 15.4749 3 11.9883 3C8.49881 3 5.66875 4.49588 5.66875 6.33948C5.66875 6.53534 5.70979 6.72836 5.76922 6.91712C6.28712 5.34459 8.86955 4.15101 11.9883 4.15101ZM14.5834 12.147L13.2844 10.4879H12.6675V12.9617H13.2547V11.3381L14.5325 12.9617H15.1707V10.4879H14.5834V12.147ZM4.86501 12.4479C4.74473 12.5316 4.6004 12.5756 4.4306 12.5756C4.19995 12.5756 4.01599 12.5089 3.87024 12.3784C3.72874 12.2421 3.65941 12.0207 3.65941 11.7056C3.65941 11.4133 3.72874 11.2018 3.8759 11.0698C4.01882 10.9378 4.20844 10.8726 4.44192 10.8726C4.61455 10.8726 4.75605 10.908 4.8735 10.9847C4.99095 11.0585 5.06878 11.1578 5.10415 11.287L5.73526 11.1692C5.66592 10.9719 5.55696 10.8186 5.41404 10.715C5.17349 10.5376 4.86218 10.4468 4.47446 10.4468C4.0358 10.4468 3.6778 10.5632 3.40611 10.7874C3.13584 11.0145 3 11.3338 3 11.7468C3 12.1328 3.13584 12.4394 3.40611 12.6622C3.67497 12.8879 4.01882 13 4.43626 13C4.77303 13 5.0518 12.9319 5.27254 12.7999C5.49187 12.6707 5.65177 12.4678 5.74516 12.1995L5.13104 12.0505C5.07585 12.2336 4.98953 12.3642 4.86501 12.4479ZM18.5696 10.4879V10.9066H19.5063V12.9617H20.1445V10.9066H21.0742V10.4879H18.5696ZM16.4881 11.8717H18.0687V11.4544H16.4881V10.908H18.1833V10.4894H15.8485V12.9631H18.247V12.543H16.4867V11.8717H16.4881ZM11.5723 12.0775C11.4831 12.0051 11.3685 11.9327 11.2298 11.8717C11.5043 11.8405 11.7166 11.7653 11.8553 11.6418C11.9954 11.524 12.0619 11.3693 12.0619 11.1848C12.0619 11.0358 12.018 10.908 11.9232 10.7945C11.8326 10.681 11.7109 10.6001 11.5595 10.5546C11.4053 10.5106 11.1591 10.4879 10.8223 10.4879H9.48226V12.9617H10.1204V11.9313H10.2506C10.395 11.9313 10.5025 11.9398 10.5704 11.9583C10.6369 11.9767 10.7006 12.0122 10.7586 12.0605C10.8223 12.1116 10.9355 12.2308 11.0982 12.4224L11.5567 12.9617H12.318L11.9317 12.4763C11.7789 12.2861 11.66 12.1541 11.5723 12.0775ZM10.5902 11.5353H10.1219V10.908H10.6171C10.8718 10.908 11.0275 10.9109 11.0812 10.9165C11.1845 10.9322 11.2638 10.962 11.3232 11.0131C11.3756 11.067 11.4053 11.1323 11.4053 11.216C11.4053 11.2912 11.3855 11.3537 11.3416 11.4005C11.2963 11.4488 11.2397 11.4857 11.1605 11.5055C11.0841 11.5268 10.8959 11.5353 10.5902 11.5353ZM7.20123 10.4879L5.9744 12.9617H6.65078L6.91398 12.4039H8.17194L8.44646 12.9617H9.14124L7.87903 10.4879H7.20123ZM7.10642 11.9838L7.53093 11.067L7.96535 11.9838H7.10642Z" fill="#B92C32"/>
</g>
<defs>
<clipPath id="clip0_1_2">
<rect width="24" height="16" fill="white"/>
</clipPath>
</defs>
</svg>
