<svg width="25" height="16" viewBox="0 0 25 16" fill="none" xmlns="http://www.w3.org/2000/svg">
<g clip-path="url(#clip0)">
<rect x="-0.000244141" width="24.9999" height="15.9999" rx="1.49999" fill="#0F3560"/>
<path d="M14.6878 11.9312H10.3132V4.06934H14.6878V11.9312Z" fill="#6C6BBD"/>
<path d="M10.5934 8.00002C10.5934 6.4052 11.3401 4.98458 12.503 4.06908C11.6526 3.39961 10.5794 3.00004 9.41313 3.00004C6.652 3.00004 4.41379 5.23857 4.41379 8.00002C4.41379 10.7615 6.652 13 9.41313 13C10.5794 13 11.6526 12.6004 12.503 11.931C11.3401 11.0155 10.5934 9.59484 10.5934 8.00002Z" fill="#EB001B"/>
<path d="M20.5872 8.00002C20.5872 10.7615 18.349 13 15.5879 13C14.4216 13 13.3484 12.6004 12.4977 11.931C13.6609 11.0155 14.4076 9.59484 14.4076 8.00002C14.4076 6.4052 13.6609 4.98458 12.4977 4.06908C13.3484 3.39961 14.4216 3.00004 15.5879 3.00004C18.349 3.00004 20.5872 5.23857 20.5872 8.00002Z" fill="#0099DF"/>
<path d="M17.008 7.14538C17.0795 7.14538 17.1824 7.15907 17.2611 7.18998L17.1515 7.52483C17.0764 7.49393 17.0013 7.48376 16.9293 7.48376C16.697 7.48376 16.5808 7.63397 16.5808 7.90389V8.82004H16.2252V7.18646H16.5773V7.38479C16.6696 7.24122 16.803 7.14538 17.008 7.14538V7.14538ZM15.6944 7.51114H15.1134V8.2493C15.1134 8.41321 15.1713 8.52274 15.3493 8.52274C15.4416 8.52274 15.5578 8.49184 15.6635 8.43042L15.7659 8.73437C15.6533 8.813 15.4757 8.86112 15.3219 8.86112C14.9014 8.86112 14.7547 8.6354 14.7547 8.25595V7.51114H14.423V7.18646H14.7547V6.69082H15.1134V7.18646H15.6944V7.51114ZM11.1453 7.85968C11.1832 7.6238 11.3264 7.46302 11.5795 7.46302C11.8083 7.46302 11.9554 7.60659 11.993 7.85968H11.1453ZM12.3622 8.00325C12.3587 7.49393 12.0442 7.14538 11.5861 7.14538C11.1077 7.14538 10.7729 7.49393 10.7729 8.00325C10.7729 8.52235 11.1214 8.86073 11.6104 8.86073C11.8564 8.86073 12.0818 8.79931 12.2801 8.63188L12.1056 8.36862C11.9691 8.47815 11.7946 8.53956 11.6307 8.53956C11.4019 8.53956 11.1934 8.43355 11.1421 8.13977H12.3552C12.3587 8.09518 12.3622 8.05097 12.3622 8.00325V8.00325ZM13.9239 7.60346C13.8249 7.54165 13.6234 7.46302 13.4149 7.46302C13.2201 7.46302 13.1039 7.535 13.1039 7.6547C13.1039 7.76384 13.2268 7.79475 13.3805 7.81509L13.5479 7.83895C13.9035 7.89059 14.1187 8.0408 14.1187 8.32793C14.1187 8.63892 13.8452 8.86112 13.3738 8.86112C13.1071 8.86112 12.861 8.79266 12.6662 8.6491L12.8336 8.37214C12.9533 8.46446 13.1313 8.54308 13.3774 8.54308C13.6199 8.54308 13.7498 8.4715 13.7498 8.34475C13.7498 8.25282 13.6575 8.20119 13.4626 8.1742L13.2952 8.15033C12.9295 8.0987 12.7311 7.93479 12.7311 7.66839C12.7311 7.34371 12.9979 7.14538 13.4114 7.14538C13.6711 7.14538 13.907 7.20367 14.0776 7.31633L13.9239 7.60346ZM18.3071 7.48297C18.2339 7.48297 18.1663 7.49588 18.1033 7.52131C18.0407 7.54713 17.9863 7.58312 17.9405 7.62928C17.8948 7.67544 17.8588 7.73098 17.8326 7.79553C17.8064 7.86008 17.7935 7.93127 17.7935 8.00873C17.7935 8.08657 17.8064 8.15738 17.8326 8.22192C17.8588 8.28647 17.8948 8.34201 17.9405 8.38817C17.9863 8.43433 18.0407 8.47032 18.1033 8.49614C18.1663 8.52196 18.2339 8.53448 18.3071 8.53448C18.3802 8.53448 18.4483 8.52196 18.5109 8.49614C18.5739 8.47032 18.6286 8.43433 18.6744 8.38817C18.721 8.34201 18.7569 8.28647 18.7835 8.22192C18.8098 8.15738 18.8227 8.08657 18.8227 8.00873C18.8227 7.93127 18.8098 7.86008 18.7835 7.79553C18.7569 7.73098 18.721 7.67544 18.6744 7.62928C18.6286 7.58312 18.5739 7.54713 18.5109 7.52131C18.4483 7.49588 18.3802 7.48297 18.3071 7.48297V7.48297ZM18.3071 7.14538C18.4338 7.14538 18.5512 7.16729 18.6591 7.21149C18.7671 7.2553 18.8606 7.31594 18.9392 7.393C19.0183 7.47006 19.0797 7.56121 19.1243 7.66605C19.1689 7.77128 19.1912 7.8855 19.1912 8.00873C19.1912 8.13195 19.1689 8.24617 19.1243 8.3514C19.0797 8.45624 19.0183 8.54778 18.9392 8.62484C18.8606 8.7019 18.7671 8.76215 18.6591 8.80635C18.5512 8.85016 18.4338 8.87207 18.3071 8.87207C18.1803 8.87207 18.063 8.85016 17.955 8.80635C17.847 8.76215 17.7543 8.7019 17.6761 8.62484C17.5979 8.54778 17.5364 8.45624 17.4918 8.3514C17.4473 8.24617 17.425 8.13195 17.425 8.00873C17.425 7.8855 17.4473 7.77128 17.4918 7.66605C17.5364 7.56121 17.5979 7.47006 17.6761 7.393C17.7543 7.31594 17.847 7.2553 17.955 7.21149C18.063 7.16729 18.1803 7.14538 18.3071 7.14538V7.14538ZM9.06886 8.00325C9.06886 7.71612 9.25702 7.48023 9.56449 7.48023C9.85827 7.48023 10.0566 7.70595 10.0566 8.00325C10.0566 8.30055 9.85827 8.52587 9.56449 8.52587C9.25702 8.52587 9.06886 8.29038 9.06886 8.00325V8.00325ZM10.3915 8.00325V7.18646H10.0363V7.38479C9.92321 7.2377 9.75265 7.14538 9.52029 7.14538C9.06221 7.14538 8.70349 7.5041 8.70349 8.00325C8.70349 8.50201 9.06221 8.86112 9.52029 8.86112C9.75265 8.86112 9.92321 8.7688 10.0363 8.62171V8.82004H10.3915V8.00325ZM8.38898 8.82004V7.79475C8.38898 7.40865 8.14292 7.1489 7.74665 7.14538C7.53815 7.14186 7.32261 7.2068 7.17239 7.43603C7.05973 7.25491 6.88174 7.14538 6.63217 7.14538C6.45809 7.14538 6.28714 7.19663 6.15375 7.38792V7.18646H5.79855V8.82004H6.15727V7.91445C6.15727 7.63084 6.31453 7.48023 6.55706 7.48023C6.79295 7.48023 6.91265 7.63397 6.91265 7.91093V8.82004H7.27136V7.91445C7.27136 7.63084 7.43566 7.48023 7.67116 7.48023C7.91408 7.48023 8.03026 7.63397 8.03026 7.91093V8.82004H8.38898Z" fill="white"/>
</g>
<defs>
<clipPath id="clip0">
<rect width="24.9999" height="15.9999" fill="white" transform="translate(-0.000244141)"/>
</clipPath>
</defs>
</svg>
