<svg width="24" height="16" viewBox="0 0 24 16" fill="none" xmlns="http://www.w3.org/2000/svg">
<rect x="0.25" y="0.25" width="23.5" height="15.5" rx="1.75" fill="white" stroke="#D9D9D9" stroke-width="0.5"/>
<path fill-rule="evenodd" clip-rule="evenodd" d="M10.9793 13.1754H12.8012C15.645 13.1754 17.9111 10.9193 18 8.13227V8.08803C17.9556 5.25678 15.645 2.95639 12.8012 3.00063H10.7572C8.04667 3.0891 5.91381 5.3895 6.00268 8.13227C6.00268 10.875 8.22441 13.1312 10.9793 13.1754ZM6.89142 8.08794C6.89142 5.78755 8.80211 3.8853 11.1127 3.8853C13.4233 3.8853 15.334 5.78755 15.334 8.08794C15.334 10.3883 13.4233 12.2906 11.1127 12.2906C8.80211 12.2906 6.89142 10.3883 6.89142 8.08794ZM11.7792 10.9193V5.301C13.3344 5.69915 14.312 7.24749 13.9121 8.79583C13.6455 9.85755 12.8456 10.6538 11.7792 10.9193ZM8.35772 7.3802C7.95781 8.92854 8.89093 10.5211 10.4461 10.9193V5.301C9.42415 5.56643 8.62432 6.36272 8.35772 7.3802Z" fill="#0069AA"/>
</svg>
