<svg width="24" height="16" viewBox="0 0 24 16" fill="none" xmlns="http://www.w3.org/2000/svg">
<rect x="-9.15527e-05" width="23.9999" height="15.9999" rx="1.99999" fill="#DFE3E8"/>
<g opacity="0.01">
<rect x="2.3251" y="1.59961" width="19.3549" height="12.8" fill="white"/>
</g>
<rect x="9.45105" y="3.83008" width="5.10498" height="8.33997" fill="#F26122"/>
<path d="M10.0012 7.9994C9.99279 6.37617 10.7301 4.83894 12.0012 3.82941C9.82635 2.11907 6.70221 2.36743 4.82489 4.39992C2.94757 6.4324 2.94757 9.5664 4.82489 11.5989C6.70221 13.6314 9.82635 13.8797 12.0012 12.1694C10.7301 11.1599 9.99279 9.62263 10.0012 7.9994Z" fill="#EA1D25"/>
<path fill-rule="evenodd" clip-rule="evenodd" d="M20.0718 11.1151V11.2851H20.0418V11.1151H19.9718V11.0801H20.1468V11.1151H20.0718ZM20.4111 11.0801V11.2851H20.3761V11.1301L20.3211 11.2651H20.2811L20.2211 11.1301V11.2851H20.1861V11.0801H20.2361L20.3011 11.2251L20.3611 11.0801H20.4111Z" fill="#F69E1E"/>
<path d="M20.5808 7.99985C20.5795 10.0295 19.4203 11.8805 17.5948 12.7677C15.7693 13.655 13.5976 13.4228 12.0009 12.1698C14.3009 10.3588 14.6992 7.027 12.8909 4.72486C12.6316 4.3915 12.3328 4.09095 12.0009 3.82987C13.5976 2.57687 15.7693 2.34474 17.5948 3.23196C19.4203 4.11917 20.5795 5.97019 20.5808 7.99985V7.99985Z" fill="#F69E1E"/>
<path d="M7.66929 8.03205C7.66929 7.81366 7.81241 7.63424 8.04628 7.63424C8.26974 7.63424 8.42059 7.80592 8.42059 8.03205C8.42059 8.25819 8.26974 8.42987 8.04628 8.42987C7.81241 8.42987 7.66929 8.25045 7.66929 8.03205ZM8.67529 8.03205V7.41078H8.40512V7.56164C8.31943 7.44976 8.1894 7.37954 8.01266 7.37954C7.66423 7.37954 7.39109 7.65269 7.39109 8.03205C7.39109 8.41172 7.66423 8.68457 8.01266 8.68457C8.1894 8.68457 8.31943 8.61435 8.40512 8.50247V8.65333H8.67529V8.03205ZM17.8052 8.03205C17.8052 7.81366 17.9483 7.63424 18.1821 7.63424C18.4059 7.63424 18.5565 7.80592 18.5565 8.03205C18.5565 8.25819 18.4059 8.42987 18.1821 8.42987C17.9483 8.42987 17.8052 8.25045 17.8052 8.03205ZM18.8115 8.03205V6.9118H18.541V7.56164C18.4553 7.44976 18.3253 7.37954 18.1485 7.37954C17.8001 7.37954 17.5269 7.65269 17.5269 8.03205C17.5269 8.41172 17.8001 8.68457 18.1485 8.68457C18.3253 8.68457 18.4553 8.61435 18.541 8.50247V8.65333H18.8115V8.03205ZM12.0289 7.62144C12.203 7.62144 12.3149 7.73064 12.3434 7.92286H11.6986C11.7275 7.74344 11.8364 7.62144 12.0289 7.62144ZM12.0343 7.37954C11.6701 7.37954 11.4154 7.64465 11.4154 8.03205C11.4154 8.42719 11.6805 8.68457 12.0524 8.68457C12.2396 8.68457 12.411 8.63786 12.5618 8.51051L12.4294 8.31026C12.3253 8.39327 12.1926 8.44029 12.0679 8.44029C11.8938 8.44029 11.7352 8.35965 11.6963 8.1359H12.6189C12.6216 8.10228 12.6243 8.06836 12.6243 8.03205C12.6216 7.64465 12.3824 7.37954 12.0343 7.37954ZM15.2966 8.03205C15.2966 7.81366 15.4397 7.63424 15.6735 7.63424C15.897 7.63424 16.0479 7.80592 16.0479 8.03205C16.0479 8.25819 15.897 8.42987 15.6735 8.42987C15.4397 8.42987 15.2966 8.25045 15.2966 8.03205ZM16.3026 8.03205V7.41078H16.0324V7.56164C15.9464 7.44976 15.8167 7.37954 15.6399 7.37954C15.2915 7.37954 15.0183 7.65269 15.0183 8.03205C15.0183 8.41172 15.2915 8.68457 15.6399 8.68457C15.8167 8.68457 15.9464 8.61435 16.0324 8.50247V8.65333H16.3026V8.03205ZM13.7707 8.03205C13.7707 8.40904 14.0332 8.68457 14.4337 8.68457C14.6208 8.68457 14.7455 8.64291 14.8806 8.53639L14.7509 8.318C14.6494 8.39089 14.5429 8.42987 14.4256 8.42987C14.2099 8.42719 14.0513 8.27128 14.0513 8.03205C14.0513 7.79283 14.2099 7.63692 14.4256 7.63424C14.5429 7.63424 14.6494 7.67322 14.7509 7.74611L14.8806 7.52772C14.7455 7.4212 14.6208 7.37954 14.4337 7.37954C14.0332 7.37954 13.7707 7.65507 13.7707 8.03205ZM17.2541 7.37954C17.0982 7.37954 16.9967 7.45244 16.9265 7.56164V7.41078H16.6587V8.65333H16.9292V7.95678C16.9292 7.75117 17.0176 7.63692 17.1943 7.63692C17.249 7.63692 17.3062 7.64465 17.3633 7.66816L17.4466 7.41346C17.3868 7.38995 17.3088 7.37954 17.2541 7.37954ZM10.0116 7.50957C9.88154 7.42387 9.70241 7.37954 9.50484 7.37954C9.19004 7.37954 8.98741 7.53039 8.98741 7.77736C8.98741 7.97998 9.13827 8.10495 9.41618 8.14393L9.54382 8.16208C9.692 8.18291 9.76192 8.22189 9.76192 8.29211C9.76192 8.38822 9.66314 8.44296 9.47866 8.44296C9.29151 8.44296 9.15642 8.38316 9.06537 8.31294L8.93802 8.5233C9.0862 8.6325 9.27335 8.68457 9.47598 8.68457C9.83482 8.68457 10.0428 8.51556 10.0428 8.27902C10.0428 8.06062 9.87916 7.94636 9.60869 7.90738L9.48134 7.88894C9.3644 7.87346 9.27068 7.85025 9.27068 7.76694C9.27068 7.67589 9.35905 7.62144 9.50722 7.62144C9.66582 7.62144 9.81935 7.68125 9.89463 7.72796L10.0116 7.50957ZM13.4976 7.37954C13.3417 7.37954 13.2402 7.45244 13.1703 7.56164V7.41078H12.9025V8.65333H13.1727V7.95678C13.1727 7.75117 13.261 7.63692 13.4378 7.63692C13.4925 7.63692 13.5497 7.64465 13.6068 7.66816L13.6901 7.41346C13.6303 7.38995 13.5523 7.37954 13.4976 7.37954ZM11.1919 7.41078H10.7501V7.03379H10.4769V7.41078H10.2249V7.65774H10.4769V8.22457C10.4769 8.51289 10.5888 8.68457 10.9084 8.68457C11.0256 8.68457 11.1607 8.64827 11.2464 8.58846L11.1684 8.35697C11.0878 8.40369 10.9994 8.42719 10.9292 8.42719C10.7941 8.42719 10.7501 8.34388 10.7501 8.21921V7.65774H11.1919V7.41078ZM7.15216 8.65333V7.87346C7.15216 7.57979 6.965 7.38222 6.66329 7.37954C6.5047 7.37686 6.34105 7.42625 6.2265 7.60061C6.1408 7.46285 6.00572 7.37954 5.81588 7.37954C5.68318 7.37954 5.55345 7.41852 5.45199 7.56402V7.41078H5.18152V8.65333H5.45437V7.96451C5.45437 7.74879 5.57398 7.63424 5.75876 7.63424C5.93817 7.63424 6.02893 7.75117 6.02893 7.96183V8.65333H6.30207V7.96451C6.30207 7.74879 6.42674 7.63424 6.60616 7.63424C6.79064 7.63424 6.87901 7.75117 6.87901 7.96183V8.65333H7.15216Z" fill="white"/>
</svg>
