<svg width="24" height="16" viewBox="0 0 24 16" fill="none" xmlns="http://www.w3.org/2000/svg">
<rect x="-0.000183105" y="0.000244141" width="23.9999" height="15.9999" rx="1.99999" fill="white"/>
<path d="M4.4398 8.95006V13.03H8.56979L8.99979 12.42L9.41978 13.03H11.9448V12.11H12.2248C12.4789 12.1123 12.7319 12.0752 12.9748 12V13.03H14.6898V12.3L15.2698 13.03H23.0797C23.4008 13.0356 23.7166 12.9489 23.9897 12.78V14.5C23.7609 15.3861 22.9599 16.0039 22.0447 16H1.99981C0.895244 16 -0.000183105 15.1046 -0.000183105 14V7.70006H1.13981L1.37481 7.09006H1.93481L2.16481 7.70006H11.3348V6.97006L11.9148 7.70006H14.3198V7.33006C14.6724 7.58109 15.097 7.71092 15.5298 7.70006H16.9648L17.1948 7.09006H17.7548L17.9998 7.70006H20.4497V6.91006L20.9497 7.70006H22.6397V3.62007H20.8447V4.45007L20.3097 3.62007H18.7398V4.67007L18.2398 3.62007H15.5698C15.1181 3.60699 14.676 3.75199 14.3198 4.03007V3.62007H5.4998L5.1998 4.50007L4.8998 3.60007H2.89981V4.65007L2.42981 3.60007H0.799814L-0.000183105 5.50007V2.00008C-0.000183105 0.895514 0.895244 8.63727e-05 1.99981 8.63727e-05H22.0447C22.9636 -0.00840728 23.77 0.610336 23.9997 1.50008V8.95006H9.42978L8.99979 9.55005L8.57979 8.95006H4.4398Z" fill="#296DB6"/>
<path fill-rule="evenodd" clip-rule="evenodd" d="M10.6599 9.60131H12.2149V9.58131C12.4739 9.55954 12.7297 9.65013 12.9172 9.83001C13.1047 10.0099 13.2059 10.2617 13.1949 10.5213C13.2013 10.784 13.0963 11.0372 12.9057 11.2182C12.7152 11.3992 12.457 11.4912 12.1949 11.4713H11.3449V12.4013H10.6599V9.60131ZM7.35462 10.1811V9.58105H5.08963V12.401H7.35462V11.801H5.76963V11.301H7.32462V10.6911H5.76963V10.1911L7.35462 10.1811ZM9.39985 11.001L10.5298 9.60105H9.69985L8.99985 10.4711L8.30485 9.58105H7.45486L8.59985 11.001L7.49986 12.401H8.31985L8.99985 11.501L9.67985 12.411H10.5398L9.39985 11.001ZM12.1545 10.8916H11.3445V10.1816H12.1545C12.345 10.1816 12.4995 10.3361 12.4995 10.5266C12.4995 10.7172 12.345 10.8716 12.1545 10.8716V10.8916ZM16.0843 10.3967C16.1423 10.8883 15.7909 11.3337 15.2993 11.3917L16.2443 12.4017H15.3893L14.5493 11.4017H14.2393V12.4017H13.5593V9.61173H15.0893C15.5809 9.55374 16.0263 9.90519 16.0843 10.3967ZM15.03 10.8313H14.24V10.1813H15.03C15.1189 10.1697 15.2084 10.1972 15.2755 10.2566C15.3426 10.3161 15.3807 10.4017 15.38 10.4913C15.3825 10.5815 15.3449 10.6682 15.2773 10.728C15.2098 10.7878 15.1192 10.8146 15.03 10.8013V10.8313ZM18.68 9.61133V10.2113L17.095 10.1913V10.6913H18.64V11.3013H17.095V11.8013H18.68V12.4013H16.405V9.61133H18.68ZM20.5644 10.7113H19.9094C19.8082 10.7316 19.7046 10.6889 19.6472 10.6031C19.5898 10.5172 19.5898 10.4053 19.6472 10.3194C19.7046 10.2336 19.8082 10.1909 19.9094 10.2113H21.1244L21.3944 9.61126H19.9294C19.6801 9.58237 19.4305 9.66252 19.2447 9.83112C19.0589 9.99973 18.9549 10.2404 18.9594 10.4913C18.9442 10.7247 19.0339 10.9528 19.2041 11.1133C19.3743 11.2738 19.6072 11.3501 19.8394 11.3213H20.4994C20.6006 11.3009 20.7042 11.3436 20.7616 11.4294C20.819 11.5153 20.819 11.6272 20.7616 11.7131C20.7042 11.7989 20.6006 11.8416 20.4994 11.8212H19.0394V12.4212H20.4994C20.7514 12.4419 20.9999 12.3525 21.1811 12.1761C21.3622 11.9998 21.4582 11.7537 21.4444 11.5012C21.457 11.2701 21.3657 11.0455 21.1954 10.8887C21.0251 10.732 20.7937 10.6595 20.5644 10.6913V10.7113ZM23.7299 10.2115H22.5149L22.4999 10.1915C22.3986 10.1711 22.2951 10.2139 22.2377 10.2997C22.1803 10.3855 22.1803 10.4975 22.2377 10.5833C22.2951 10.6691 22.3986 10.7118 22.4999 10.6915H23.1799C23.5257 10.6559 23.8557 10.8451 23.9999 11.1615V11.8315C23.8622 12.2127 23.4832 12.4516 23.0799 12.4115H21.6449V11.8115H23.0899C23.1911 11.8318 23.2946 11.7891 23.352 11.7033C23.4095 11.6175 23.4095 11.5055 23.352 11.4197C23.2946 11.3339 23.1911 11.2911 23.0899 11.3115H22.4449C22.2127 11.3403 21.9798 11.264 21.8096 11.1035C21.6394 10.943 21.5497 10.7149 21.5649 10.4815C21.5603 10.2306 21.6643 9.98996 21.8502 9.82136C22.036 9.65275 22.2856 9.57261 22.5349 9.60149H23.9999L23.7299 10.2115Z" fill="#296DB6"/>
<path fill-rule="evenodd" clip-rule="evenodd" d="M12.725 5.13971C12.7359 5.59045 12.4026 5.97573 11.955 6.0297L12.895 7.0697H12.045L11.205 6.0697H10.895V7.0697H10.2V4.24971H11.725C11.9798 4.21629 12.2365 4.29526 12.4284 4.4661C12.6204 4.63694 12.7286 4.88277 12.725 5.13971ZM2.11481 4.25H1.22481L-0.000183105 7.06999H0.739814L0.999813 6.49999H2.31481L2.55481 7.08999H3.32481L2.11481 4.25ZM1.19024 5.93007L1.46524 5.27007L1.64524 4.83008L1.82524 5.27007L2.09524 5.93007H1.19024ZM5.29988 5.87999L5.84987 4.25H6.94487V7.06999H6.28487V5.22V4.79L6.15487 5.22L5.49988 7.06999H4.89988L4.25988 5.22L4.11988 4.79V5.22V7.06999H3.45488V4.25H4.55988L5.11988 5.87999L5.20988 6.18999L5.29988 5.87999ZM9.74978 4.85V4.25H7.49979V7.06999H9.74978V6.46999H8.16479V5.96999H9.70978V5.36H8.16479V4.86L9.74978 4.85ZM11.6843 5.46961H10.8943V4.84961H11.6843C11.7729 4.8397 11.8615 4.86777 11.9282 4.92685C11.9949 4.98593 12.0334 5.0705 12.0343 5.15961C12.0368 5.2498 11.9992 5.33646 11.9316 5.39628C11.8641 5.4561 11.7735 5.48295 11.6843 5.46961ZM13.0545 7.06999V4.25H13.7395V7.06999H13.0545ZM15.5544 4.85961H16.2894V4.24961H15.4994C15.1276 4.22611 14.764 4.36646 14.5044 4.63377C14.2448 4.90107 14.1151 5.26857 14.1495 5.63961V5.67961C14.1077 6.04534 14.2292 6.41089 14.4817 6.67878C14.7342 6.94667 15.0919 7.08965 15.4594 7.0696H15.4994L15.7744 6.46961H15.5494C15.3419 6.48027 15.1404 6.3982 14.9994 6.2456C14.8584 6.09299 14.7925 5.88563 14.8195 5.67961V5.63961C14.7957 5.4352 14.8631 5.23068 15.0037 5.08043C15.1443 4.93018 15.3439 4.84941 15.5494 4.85961H15.5544ZM17.0447 4.25H17.9447L19.1497 7.08999H18.3797L18.1397 6.49999H16.8047L16.5647 7.06999H15.8347L17.0447 4.25ZM17.0251 5.93007L17.2851 5.27007L17.4651 4.83008L17.6351 5.27007L17.9051 5.93007H17.0251ZM21.305 5.74999V4.25H22V7.06999H21.175L20.13 5.48L19.95 5.17V5.5V7.08999H19.28V4.27H20.115L21.115 5.76999L21.305 6.08999V5.74999Z" fill="#296DB6"/>
</svg>
