<svg width="16" height="16" viewBox="0 0 16 16" fill="none" xmlns="http://www.w3.org/2000/svg">
<path fill-rule="evenodd" clip-rule="evenodd" d="M0 8C0 3.58332 3.58203 0 8 0C12.418 0 16 3.58332 16 8C16 12.4193 12.418 16 8 16C3.58203 16 0 12.4193 0 8ZM8.00012 1.03224C11.8266 1.03224 14.9679 4.13144 14.9679 7.99998C14.9679 11.8481 11.8514 14.9677 8.00012 14.9677C4.15354 14.9677 1.03238 11.8528 1.03238 7.99998C1.03238 4.15473 4.14857 1.03224 8.00012 1.03224ZM7.34419 9.54834C7.34419 9.76211 7.51751 9.93543 7.73129 9.93543H8.24742C8.46119 9.93543 8.63451 9.76211 8.63451 9.54834V9.53605C8.63451 8.90989 9.13058 8.5856 9.6806 8.22604C10.3648 7.77873 11.1326 7.27684 11.1326 6.07127C11.1326 4.44353 9.67709 3.48382 7.98935 3.48382C6.54329 3.48382 5.7309 4.04879 5.04619 4.92708C4.91022 5.10146 4.95006 5.35475 5.13151 5.48117L5.55519 5.77634C5.72274 5.89308 5.95325 5.86034 6.07932 5.69969C6.56145 5.0854 7.04922 4.77414 7.98935 4.77414C9.26932 4.77414 9.84225 5.42559 9.84225 6.07127C9.84225 6.69424 9.35637 7.00028 8.81318 7.34241C8.12472 7.77604 7.34419 8.26766 7.34419 9.53605V9.54834ZM7.09674 11.6129C7.09674 11.114 7.50112 10.7096 7.99996 10.7096C8.4988 10.7096 8.90319 11.114 8.90319 11.6129C8.90319 12.1117 8.4988 12.5161 7.99996 12.5161C7.50112 12.5161 7.09674 12.1117 7.09674 11.6129Z" fill="#394046"/>
</svg>
