<svg width="19" height="21" viewBox="0 0 19 21" fill="none" xmlns="http://www.w3.org/2000/svg">
<path fill-rule="evenodd" clip-rule="evenodd" d="M18.25 18.625V11.125C18.25 10.0899 17.4101 9.25002 16.375 9.25002H15.75V6.80862C15.75 3.3555 12.9726 0.511755 9.51952 0.500037C6.06249 0.488318 3.25 3.29691 3.25 6.75003V9.25002H2.625C1.58984 9.25002 0.75 10.0899 0.75 11.125V18.625C0.75 19.6602 1.58984 20.5 2.625 20.5H16.375C17.4101 20.5 18.25 19.6602 18.25 18.625ZM8.71904 16.125C8.71904 16.5547 9.07061 16.9062 9.50029 16.9062C9.92998 16.9062 10.2815 16.5547 10.2815 16.125V13.625C10.2815 13.1953 9.92998 12.8437 9.50029 12.8437C9.07061 12.8437 8.71904 13.1953 8.71904 13.625V16.125ZM14.5001 9.24993V6.74994C14.5001 3.99213 12.2579 1.74994 9.50008 1.74994C6.74227 1.74994 4.50009 3.99213 4.50009 6.74994V9.24993H14.5001ZM17.0002 11.1249V18.6249C17.0002 18.9687 16.7189 19.2499 16.3752 19.2499H2.6252C2.28145 19.2499 2.0002 18.9687 2.0002 18.6249V11.1249C2.0002 10.7812 2.28145 10.4999 2.6252 10.4999H16.3752C16.7189 10.4999 17.0002 10.7812 17.0002 11.1249Z" fill="white"/>
</svg>
