<svg width="18" height="16" viewBox="0 0 18 16" fill="none" xmlns="http://www.w3.org/2000/svg">
<g opacity="0.6">
<path fill-rule="evenodd" clip-rule="evenodd" d="M16.4465 7.66602C16.2607 7.66602 16.1096 7.8152 16.1096 7.99902C16.1096 12.0433 12.7891 15.3329 8.70738 15.3329C5.81039 15.3329 3.22235 13.6852 2.00581 11.1068L3.75266 11.8777C3.92398 11.9537 4.12128 11.8768 4.19732 11.7093C4.27335 11.5409 4.19635 11.3436 4.02696 11.2694L1.56789 10.1848C1.48608 10.1491 1.39369 10.1463 1.30995 10.178C1.22622 10.2098 1.15981 10.2723 1.12324 10.3541L0.0289274 12.7901C-0.046144 12.9576 0.0298899 13.1549 0.199282 13.23C0.243555 13.2502 0.289752 13.2588 0.33595 13.2588C0.464919 13.2588 0.588113 13.1857 0.643936 13.0606L1.39561 11.3878C2.72091 14.2011 5.54571 15.9999 8.70738 15.9999C13.1597 15.9999 16.7824 12.4109 16.7824 7.99999C16.7824 7.8152 16.6322 7.66602 16.4465 7.66602Z" fill="white"/>
<path fill-rule="evenodd" clip-rule="evenodd" d="M17.2318 2.75551C17.0624 2.68043 16.8632 2.75647 16.7881 2.9249L16.0258 4.6217C14.7015 1.80075 11.8796 0 8.70927 0C4.25695 0 0.634277 3.58899 0.634277 7.99992C0.634277 8.18375 0.78442 8.33293 0.971136 8.33293C1.15689 8.33293 1.308 8.18375 1.308 7.99992C1.308 3.95569 4.62846 0.666018 8.71023 0.666018C11.6034 0.666018 14.1808 2.30123 15.4012 4.86617L13.6803 4.10679C13.5109 4.03076 13.3117 4.10775 13.2366 4.27618C13.1606 4.44461 13.2376 4.64095 13.407 4.71602L15.8661 5.80071C15.9103 5.82092 15.9565 5.82958 16.0027 5.82958C16.1317 5.82958 16.2549 5.75644 16.3107 5.63132L17.405 3.19535C17.4772 3.02692 17.4012 2.82961 17.2318 2.75551Z" fill="white"/>
<path fill-rule="evenodd" clip-rule="evenodd" d="M10.9971 6.07517L10.5476 6.182L10.1357 4.47942C9.84311 3.26769 8.60924 2.51698 7.38597 2.80764C6.16269 3.0983 5.4062 4.32062 5.69878 5.53235L6.11071 7.23493L5.66125 7.34176C5.17232 7.45822 4.86915 7.94714 4.98657 8.43222L5.96731 12.4899C6.08473 12.975 6.57847 13.2753 7.06739 13.1588L12.4042 11.8922C12.8931 11.7758 13.1963 11.2869 13.0789 10.8018L12.0981 6.74408C11.9798 6.259 11.486 5.95871 10.9971 6.07517ZM9.85558 10.9923L8.92681 11.2127L8.39842 9.79118C8.31373 9.44181 8.53124 9.09051 8.8835 9.00678C9.23672 8.92304 9.5909 9.13863 9.6756 9.488L9.85558 10.9923ZM7.06066 7.00971L9.59769 6.40721L9.1848 4.70463C9.01733 4.01166 8.31282 3.58241 7.61311 3.74891C6.91437 3.91542 6.48127 4.61416 6.64873 5.30713L7.06066 7.00971Z" fill="white"/>
</g>
</svg>
