<svg width="88" height="26" viewBox="0 0 88 26" fill="none" xmlns="http://www.w3.org/2000/svg">
<path d="M39.3948 19.0813C38.7985 19.0813 38.3133 18.8862 37.9392 18.4958C37.5652 18.1028 37.3781 17.5783 37.3781 16.9223V16.7841C37.3781 16.3477 37.4608 15.9587 37.6261 15.6172C37.7942 15.2729 38.0273 15.0046 38.3255 14.8121C38.6264 14.617 38.9516 14.5194 39.3013 14.5194C39.8732 14.5194 40.3178 14.7078 40.6349 15.0845C40.952 15.4613 41.1106 16.0007 41.1106 16.7028V17.0158H38.1303C38.1412 17.4495 38.2672 17.8006 38.5084 18.0689C38.7524 18.3345 39.0614 18.4674 39.4355 18.4674C39.7011 18.4674 39.9261 18.4132 40.1104 18.3047C40.2947 18.1963 40.456 18.0526 40.5942 17.8737L41.0537 18.2315C40.685 18.7981 40.1321 19.0813 39.3948 19.0813ZM39.3013 15.1374C38.9977 15.1374 38.7429 15.2485 38.5369 15.4708C38.3309 15.6904 38.2035 15.9994 38.1547 16.3978H40.3584V16.3409C40.3367 15.9587 40.2337 15.6633 40.0494 15.4545C39.8651 15.2431 39.6157 15.1374 39.3013 15.1374ZM42.6963 14.6007L42.7207 15.1537C43.0568 14.7308 43.4959 14.5194 44.0381 14.5194C44.9678 14.5194 45.4367 15.0439 45.4448 16.0929V19H44.6927V16.0888C44.6899 15.7717 44.6168 15.5372 44.4731 15.3854C44.3322 15.2336 44.1112 15.1577 43.8104 15.1577C43.5664 15.1577 43.3523 15.2228 43.168 15.3529C42.9836 15.483 42.84 15.6538 42.737 15.8652V19H41.9848V14.6007H42.6963ZM48.3438 18.4674C48.6122 18.4674 48.8466 18.3861 49.0472 18.2234C49.2478 18.0608 49.3589 17.8575 49.3806 17.6135H50.0922C50.0786 17.8656 49.9919 18.1055 49.8319 18.3332C49.672 18.5609 49.4579 18.7425 49.1895 18.878C48.9239 19.0136 48.642 19.0813 48.3438 19.0813C47.7448 19.0813 47.2677 18.8821 46.9126 18.4836C46.5603 18.0825 46.3841 17.5349 46.3841 16.841V16.715C46.3841 16.2867 46.4627 15.9059 46.6199 15.5725C46.7771 15.2391 47.0021 14.9802 47.2948 14.7959C47.5903 14.6116 47.9386 14.5194 48.3398 14.5194C48.8331 14.5194 49.2424 14.6671 49.5677 14.9626C49.8956 15.258 50.0705 15.6416 50.0922 16.1132H49.3806C49.3589 15.8286 49.2505 15.5955 49.0554 15.4139C48.8629 15.2296 48.6244 15.1374 48.3398 15.1374C47.9576 15.1374 47.6608 15.2756 47.4493 15.5521C47.2406 15.8259 47.1363 16.223 47.1363 16.7434V16.8857C47.1363 17.3926 47.2406 17.7829 47.4493 18.0567C47.658 18.3305 47.9562 18.4674 48.3438 18.4674ZM53.0643 15.2756C52.9505 15.2567 52.8271 15.2472 52.6943 15.2472C52.201 15.2472 51.8662 15.4573 51.6901 15.8774V19H50.9379V14.6007H51.6697L51.6819 15.1089C51.9286 14.7159 52.2783 14.5194 52.7309 14.5194C52.8773 14.5194 52.9884 14.5384 53.0643 14.5763V15.2756ZM55.2747 17.8981L56.2993 14.6007H57.1043L55.3357 19.679C55.0619 20.4109 54.6269 20.7768 54.0305 20.7768L53.8882 20.7646L53.6077 20.7117V20.1019L53.811 20.1181C54.0658 20.1181 54.2636 20.0666 54.4046 19.9636C54.5483 19.8606 54.6662 19.6722 54.7583 19.3985L54.925 18.9512L53.3556 14.6007H54.1769L55.2747 17.8981ZM61.4955 16.8491C61.4955 17.5187 61.3423 18.0581 61.0361 18.4674C60.7298 18.8767 60.315 19.0813 59.7919 19.0813C59.2579 19.0813 58.8378 18.9119 58.5315 18.5731V20.6914H57.7793V14.6007H58.4664L58.503 15.0886C58.8093 14.7091 59.2349 14.5194 59.7797 14.5194C60.3083 14.5194 60.7257 14.7186 61.032 15.1171C61.341 15.5155 61.4955 16.0699 61.4955 16.78V16.8491ZM60.7433 16.7638C60.7433 16.2677 60.6376 15.876 60.4262 15.5887C60.2147 15.3014 59.9247 15.1577 59.5561 15.1577C59.1007 15.1577 58.7592 15.3597 58.5315 15.7636V17.8656C58.7564 18.2668 59.1007 18.4674 59.5642 18.4674C59.9247 18.4674 60.2107 18.3251 60.4221 18.0405C60.6362 17.7531 60.7433 17.3276 60.7433 16.7638ZM63.4756 13.5354V14.6007H64.2969V15.1821H63.4756V17.9103C63.4756 18.0865 63.5122 18.2193 63.5854 18.3088C63.6586 18.3955 63.7832 18.4389 63.9594 18.4389C64.0462 18.4389 64.1654 18.4226 64.3172 18.3901V19C64.1194 19.0542 63.9269 19.0813 63.7399 19.0813C63.4038 19.0813 63.1503 18.9797 62.9795 18.7764C62.8088 18.5731 62.7234 18.2844 62.7234 17.9103V15.1821H61.9224V14.6007H62.7234V13.5354H63.4756ZM67.0048 19.0813C66.4084 19.0813 65.9233 18.8862 65.5492 18.4958C65.1751 18.1028 64.9881 17.5783 64.9881 16.9223V16.7841C64.9881 16.3477 65.0708 15.9587 65.2361 15.6172C65.4042 15.2729 65.6373 15.0046 65.9354 14.8121C66.2363 14.617 66.5616 14.5194 66.9113 14.5194C67.4832 14.5194 67.9277 14.7078 68.2449 15.0845C68.562 15.4613 68.7206 16.0007 68.7206 16.7028V17.0158H65.7403C65.7511 17.4495 65.8772 17.8006 66.1184 18.0689C66.3624 18.3345 66.6714 18.4674 67.0454 18.4674C67.3111 18.4674 67.5361 18.4132 67.7204 18.3047C67.9047 18.1963 68.066 18.0526 68.2042 17.8737L68.6637 18.2315C68.295 18.7981 67.7421 19.0813 67.0048 19.0813ZM66.9113 15.1374C66.6077 15.1374 66.3529 15.2485 66.1469 15.4708C65.9409 15.6904 65.8135 15.9994 65.7647 16.3978H67.9684V16.3409C67.9467 15.9587 67.8437 15.6633 67.6594 15.4545C67.4751 15.2431 67.2257 15.1374 66.9113 15.1374ZM69.4118 16.7638C69.4118 16.0888 69.5717 15.5467 69.8916 15.1374C70.2114 14.7254 70.6302 14.5194 71.1479 14.5194C71.6629 14.5194 72.0709 14.6956 72.3717 15.048V12.7548H73.1239V19H72.4327L72.3961 18.5284C72.0953 18.897 71.6765 19.0813 71.1398 19.0813C70.6302 19.0813 70.2141 18.8726 69.8916 18.4552C69.5717 18.0377 69.4118 17.4929 69.4118 16.8207V16.7638ZM70.164 16.8491C70.164 17.3479 70.267 17.7382 70.473 18.0201C70.679 18.302 70.9636 18.443 71.3268 18.443C71.8039 18.443 72.1522 18.2288 72.3717 17.8006V15.7798C72.1468 15.3651 71.8012 15.1577 71.3349 15.1577C70.9663 15.1577 70.679 15.3 70.473 15.5847C70.267 15.8693 70.164 16.2908 70.164 16.8491Z" fill="#579E00"/>
<path d="M85.2008 25.5056H2.80021C1.53124 25.5056 0.494444 24.4653 0.494444 23.1735V2.82654C0.494444 1.53465 1.53124 0.494444 2.80021 0.494444H85.2008C86.4686 0.494444 87.5056 1.53454 87.5056 2.82654V23.1735C87.5056 24.4655 86.4686 25.5056 85.2008 25.5056Z" stroke="#579E00" stroke-width="0.988889"/>
<path fill-rule="evenodd" clip-rule="evenodd" d="M22.6024 12.3584C22.4076 12.3584 22.2503 12.5171 22.2503 12.7128C22.2503 17.021 18.7797 20.5265 14.5132 20.5265C11.4846 20.5265 8.77928 18.7703 7.50771 16.0246L9.33398 16.8453C9.51295 16.9262 9.7196 16.8443 9.7987 16.6646C9.87781 16.4869 9.79772 16.2762 9.62073 16.1973L7.04991 15.0412C6.96487 15.0022 6.86798 15.0002 6.78096 15.0342C6.69395 15.0671 6.62375 15.134 6.58617 15.2209L5.44216 17.8168C5.36306 17.9955 5.44216 18.2052 5.62014 18.2861C5.66661 18.306 5.71506 18.316 5.76252 18.316C5.897 18.316 6.02554 18.2381 6.08388 18.1053L6.86995 16.3231C8.25622 19.3204 11.2077 21.2374 14.5132 21.2374C19.1673 21.2374 22.9544 17.4124 22.9544 12.7128C22.9544 12.5171 22.7971 12.3584 22.6024 12.3584" fill="#579E00"/>
<path fill-rule="evenodd" clip-rule="evenodd" d="M23.4226 7.12875C23.2456 7.04788 23.0369 7.12975 22.9588 7.30947L22.1609 9.11662C20.7766 6.11136 17.8271 4.19238 14.5127 4.19238C9.85755 4.19238 6.07153 8.01635 6.07153 12.7159C6.07153 12.9116 6.22875 13.0704 6.42354 13.0704C6.61734 13.0704 6.77455 12.9116 6.77455 12.7159C6.77455 8.40674 10.2461 4.90326 14.5127 4.90326C17.5364 4.90326 20.2308 6.64551 21.5073 9.37721L19.7077 8.56848C19.5307 8.48761 19.3221 8.56948 19.244 8.7482C19.1649 8.92792 19.244 9.13758 19.422 9.21746L21.9918 10.3726C22.0383 10.3946 22.0867 10.4036 22.1352 10.4036C22.2696 10.4036 22.3982 10.3247 22.4565 10.1929L23.6005 7.59801C23.6796 7.4183 23.5996 7.20863 23.4226 7.12875" fill="#579E00"/>
<path fill-rule="evenodd" clip-rule="evenodd" d="M15.4425 11.0171L12.7906 11.6591L12.3605 9.84396C12.1854 9.10612 12.6373 8.3613 13.369 8.18457C14.1007 8.00685 14.8373 8.46413 15.0123 9.20297L15.4425 11.0171ZM15.7138 15.9021L14.7438 16.1368L14.1911 14.6211C14.1031 14.2487 14.3305 13.8743 14.6984 13.7855C15.0672 13.6966 15.438 13.9262 15.526 14.2977L15.7138 15.9021ZM16.9065 10.6635L16.4368 10.7773L16.0057 8.96218C15.7002 7.67121 14.4098 6.87247 13.1313 7.18098C11.8529 7.4905 11.0618 8.79244 11.3674 10.0834L11.7975 11.8985L11.3278 12.0124C10.8166 12.1362 10.5002 12.6573 10.6228 13.1735L11.6482 17.4967C11.7708 18.0139 12.2869 18.3334 12.7981 18.2096L18.3768 16.8607C18.888 16.7369 19.2044 16.2157 19.0818 15.6986L18.0564 11.3754C17.9338 10.8592 17.4177 10.5387 16.9065 10.6635V10.6635Z" fill="#579E00"/>
<path d="M38.3708 10H34.492V9.45924L36.5412 7.18234C36.8448 6.83809 37.0535 6.5589 37.1673 6.34477C37.2839 6.12792 37.3422 5.9043 37.3422 5.6739C37.3422 5.36489 37.2486 5.11145 37.0616 4.91357C36.8746 4.7157 36.6252 4.61676 36.3135 4.61676C35.9394 4.61676 35.648 4.72383 35.4393 4.93797C35.2333 5.1494 35.1303 5.44485 35.1303 5.82433H34.3781C34.3781 5.2795 34.553 4.83903 34.9026 4.50292C35.255 4.16681 35.7253 3.99875 36.3135 3.99875C36.8637 3.99875 37.2988 4.14377 37.6186 4.4338C37.9385 4.72112 38.0984 5.10467 38.0984 5.58445C38.0984 6.16722 37.7271 6.86113 36.9844 7.66618L35.3987 9.38605H38.3708V10ZM39.5092 7.0319L39.8101 4.08007H42.8432V4.77533H40.4484L40.2695 6.38949C40.5595 6.21872 40.8889 6.13334 41.2575 6.13334C41.7969 6.13334 42.2252 6.31224 42.5423 6.67004C42.8595 7.02513 43.018 7.50626 43.018 8.11343C43.018 8.72331 42.8527 9.20444 42.522 9.55682C42.194 9.90648 41.7346 10.0813 41.1437 10.0813C40.6205 10.0813 40.1936 9.9363 39.8629 9.64627C39.5322 9.35623 39.3438 8.95507 39.2978 8.44276H40.0093C40.0554 8.78159 40.176 9.03774 40.3711 9.21122C40.5663 9.38199 40.8238 9.46737 41.1437 9.46737C41.4933 9.46737 41.7671 9.3481 41.965 9.10957C42.1656 8.87104 42.2659 8.5417 42.2659 8.12156C42.2659 7.72581 42.1574 7.40867 41.9406 7.17014C41.7264 6.9289 41.4405 6.80828 41.0827 6.80828C40.7547 6.80828 40.4972 6.88011 40.3102 7.02377L40.1109 7.18641L39.5092 7.0319ZM46.787 4.076V4.71435H46.6488C46.0633 4.72519 45.5971 4.89867 45.2501 5.23478C44.9032 5.57089 44.7026 6.04389 44.6484 6.65377C44.9601 6.29598 45.3856 6.11708 45.9251 6.11708C46.4401 6.11708 46.8507 6.29869 47.157 6.66191C47.466 7.02513 47.6205 7.49406 47.6205 8.0687C47.6205 8.67859 47.4538 9.16649 47.1204 9.53242C46.7897 9.89835 46.3452 10.0813 45.7868 10.0813C45.2203 10.0813 44.7609 9.86447 44.4085 9.43078C44.0561 8.99437 43.8799 8.43328 43.8799 7.7475V7.45882C43.8799 6.36916 44.1117 5.53701 44.5752 4.96236C45.0414 4.38501 45.734 4.08955 46.6528 4.076H46.787ZM45.799 6.74322C45.5415 6.74322 45.3043 6.82048 45.0875 6.97498C44.8706 7.12948 44.7202 7.32329 44.6362 7.5564V7.83288C44.6362 8.32079 44.7459 8.71382 44.9655 9.01199C45.1851 9.31015 45.4588 9.45924 45.7868 9.45924C46.1256 9.45924 46.3913 9.33455 46.5837 9.08518C46.7789 8.8358 46.8765 8.50917 46.8765 8.1053C46.8765 7.69871 46.7775 7.37073 46.5797 7.12135C46.3845 6.86927 46.1243 6.74322 45.799 6.74322ZM50.1494 7.79222H48.1653V7.17827H50.1494V7.79222ZM54.6055 7.84915C54.6055 8.52137 54.451 9.06214 54.142 9.47143C53.833 9.87802 53.4183 10.0813 52.8979 10.0813C52.3422 10.0813 51.9126 9.8848 51.609 9.49176L51.5724 10H50.8812V3.7548H51.6334V6.08455C51.937 5.70778 52.3557 5.51939 52.8897 5.51939C53.4237 5.51939 53.8425 5.72133 54.1461 6.12521C54.4524 6.52909 54.6055 7.08205 54.6055 7.78409V7.84915ZM53.8533 7.76376C53.8533 7.25146 53.7544 6.85571 53.5565 6.57652C53.3587 6.29733 53.074 6.15774 52.7027 6.15774C52.2067 6.15774 51.8502 6.38814 51.6334 6.84894V8.75177C51.8638 9.21257 52.2229 9.44297 52.7108 9.44297C53.0713 9.44297 53.3519 9.30338 53.5525 9.02419C53.753 8.745 53.8533 8.32485 53.8533 7.76376ZM56.37 10H55.6178V5.60071H56.37V10ZM55.5569 4.4338C55.5569 4.31182 55.5934 4.20882 55.6666 4.12479C55.7425 4.04076 55.8537 3.99875 56 3.99875C56.1464 3.99875 56.2575 4.04076 56.3334 4.12479C56.4093 4.20882 56.4473 4.31182 56.4473 4.4338C56.4473 4.55578 56.4093 4.65742 56.3334 4.73874C56.2575 4.82006 56.1464 4.86072 56 4.86072C55.8537 4.86072 55.7425 4.82006 55.6666 4.73874C55.5934 4.65742 55.5569 4.55578 55.5569 4.4338ZM58.594 4.53545V5.60071H59.4153V6.18213H58.594V8.91034C58.594 9.08653 58.6306 9.21935 58.7038 9.3088C58.7769 9.39554 58.9016 9.43891 59.0778 9.43891C59.1646 9.43891 59.2838 9.42264 59.4356 9.39012V10C59.2377 10.0542 59.0453 10.0813 58.8583 10.0813C58.5221 10.0813 58.2687 9.97967 58.0979 9.77638C57.9272 9.57308 57.8418 9.2844 57.8418 8.91034V6.18213H57.0408V5.60071H57.8418V4.53545H58.594ZM64.2169 7.36124C63.5474 7.16879 63.0595 6.93297 62.7532 6.65377C62.4496 6.37187 62.2978 6.02492 62.2978 5.61291C62.2978 5.14669 62.4835 4.76178 62.8548 4.45819C63.2289 4.1519 63.7141 3.99875 64.3104 3.99875C64.717 3.99875 65.0789 4.07736 65.396 4.23457C65.7159 4.39179 65.9625 4.60863 66.136 4.88511C66.3122 5.16159 66.4003 5.46382 66.4003 5.79181H65.6156C65.6156 5.43401 65.5017 5.15346 65.274 4.95017C65.0463 4.74416 64.7251 4.64116 64.3104 4.64116C63.9255 4.64116 63.6246 4.72654 63.4078 4.89731C63.1937 5.06537 63.0866 5.29983 63.0866 5.60071C63.0866 5.84195 63.1882 6.0466 63.3915 6.21466C63.5975 6.38 63.9458 6.5318 64.4365 6.67004C64.9298 6.80828 65.3147 6.96143 65.5912 7.12948C65.8704 7.29483 66.0764 7.48864 66.2092 7.71091C66.3447 7.93317 66.4125 8.19475 66.4125 8.49562C66.4125 8.9754 66.2254 9.3603 65.8514 9.65033C65.4773 9.93766 64.9772 10.0813 64.3511 10.0813C63.9445 10.0813 63.565 10.0041 63.2126 9.84956C62.8602 9.69235 62.5878 9.47821 62.3954 9.20715C62.2056 8.93609 62.1108 8.62844 62.1108 8.2842H62.8955C62.8955 8.64199 63.0269 8.92525 63.2899 9.13397C63.5555 9.33997 63.9092 9.44297 64.3511 9.44297C64.7631 9.44297 65.0789 9.35894 65.2984 9.19089C65.518 9.02283 65.6278 8.79379 65.6278 8.50375C65.6278 8.21372 65.5261 7.9901 65.3228 7.83288C65.1195 7.67296 64.7509 7.51574 64.2169 7.36124ZM69.1569 7.36124C68.4873 7.16879 67.9994 6.93297 67.6931 6.65377C67.3896 6.37187 67.2378 6.02492 67.2378 5.61291C67.2378 5.14669 67.4234 4.76178 67.7948 4.45819C68.1688 4.1519 68.654 3.99875 69.2504 3.99875C69.657 3.99875 70.0188 4.07736 70.336 4.23457C70.6558 4.39179 70.9025 4.60863 71.076 4.88511C71.2521 5.16159 71.3402 5.46382 71.3402 5.79181H70.5555C70.5555 5.43401 70.4417 5.15346 70.214 4.95017C69.9863 4.74416 69.6651 4.64116 69.2504 4.64116C68.8655 4.64116 68.5646 4.72654 68.3477 4.89731C68.1336 5.06537 68.0265 5.29983 68.0265 5.60071C68.0265 5.84195 68.1282 6.0466 68.3315 6.21466C68.5375 6.38 68.8858 6.5318 69.3764 6.67004C69.8697 6.80828 70.2546 6.96143 70.5311 7.12948C70.8103 7.29483 71.0163 7.48864 71.1491 7.71091C71.2847 7.93317 71.3524 8.19475 71.3524 8.49562C71.3524 8.9754 71.1654 9.3603 70.7913 9.65033C70.4173 9.93766 69.9172 10.0813 69.291 10.0813C68.8844 10.0813 68.505 10.0041 68.1526 9.84956C67.8002 9.69235 67.5278 9.47821 67.3353 9.20715C67.1456 8.93609 67.0507 8.62844 67.0507 8.2842H67.8354C67.8354 8.64199 67.9669 8.92525 68.2298 9.13397C68.4955 9.33997 68.8492 9.44297 69.291 9.44297C69.703 9.44297 70.0188 9.35894 70.2384 9.19089C70.4579 9.02283 70.5677 8.79379 70.5677 8.50375C70.5677 8.21372 70.4661 7.9901 70.2628 7.83288C70.0595 7.67296 69.6908 7.51574 69.1569 7.36124ZM73.1373 9.36166H75.9427V10H72.3525V4.08007H73.1373V9.36166Z" fill="#579E00"/>
</svg>
