<svg width="100" height="23" viewBox="0 0 100 23" fill="none" xmlns="http://www.w3.org/2000/svg">
<path d="M2.04395 5.66577C1.48112 5.50399 1.07096 5.30575 0.813477 5.07104C0.558268 4.83407 0.430664 4.5424 0.430664 4.19604C0.430664 3.80412 0.586751 3.48055 0.898926 3.22534C1.21338 2.96785 1.62126 2.83911 2.12256 2.83911C2.46436 2.83911 2.76855 2.90519 3.03516 3.03735C3.30404 3.16951 3.51139 3.35181 3.65723 3.58423C3.80534 3.81665 3.87939 4.07072 3.87939 4.34644H3.21973C3.21973 4.04565 3.12402 3.80981 2.93262 3.63892C2.74121 3.46574 2.47119 3.37915 2.12256 3.37915C1.79899 3.37915 1.54606 3.45093 1.36377 3.59448C1.18376 3.73576 1.09375 3.93286 1.09375 4.18579C1.09375 4.38859 1.1792 4.56063 1.3501 4.7019C1.52327 4.8409 1.81608 4.96851 2.22852 5.08472C2.64323 5.20093 2.9668 5.32967 3.19922 5.47095C3.43392 5.60994 3.6071 5.77287 3.71875 5.95972C3.83268 6.14657 3.88965 6.36646 3.88965 6.61938C3.88965 7.02271 3.73242 7.34627 3.41797 7.59009C3.10352 7.83162 2.68311 7.95239 2.15674 7.95239C1.81494 7.95239 1.49593 7.88745 1.19971 7.75757C0.903483 7.62541 0.674479 7.44539 0.512695 7.21753C0.35319 6.98966 0.273438 6.73104 0.273438 6.44165H0.933105C0.933105 6.74243 1.04362 6.98055 1.26465 7.15601C1.48796 7.32918 1.78532 7.41577 2.15674 7.41577C2.50309 7.41577 2.76855 7.34513 2.95312 7.20386C3.1377 7.06258 3.22998 6.87004 3.22998 6.62622C3.22998 6.38241 3.14453 6.19442 2.97363 6.06226C2.80273 5.92782 2.49284 5.79565 2.04395 5.66577ZM6.16943 7.95239C5.66813 7.95239 5.26025 7.78833 4.9458 7.46021C4.63135 7.1298 4.47412 6.68888 4.47412 6.13745V6.02124C4.47412 5.65438 4.54362 5.32739 4.68262 5.04028C4.82389 4.7509 5.01986 4.52531 5.27051 4.36353C5.52344 4.19946 5.79688 4.11743 6.09082 4.11743C6.57161 4.11743 6.94531 4.2758 7.21191 4.59253C7.47852 4.90926 7.61182 5.36271 7.61182 5.95288V6.21606H5.10645C5.11556 6.58065 5.22152 6.87573 5.42432 7.10132C5.62939 7.32463 5.88916 7.43628 6.20361 7.43628C6.42692 7.43628 6.61605 7.39071 6.771 7.29956C6.92594 7.20841 7.06152 7.08765 7.17773 6.93726L7.56396 7.23804C7.25407 7.71427 6.78923 7.95239 6.16943 7.95239ZM6.09082 4.63696C5.83561 4.63696 5.62142 4.73039 5.44824 4.91724C5.27507 5.10181 5.16797 5.36157 5.12695 5.69653H6.97949V5.64868C6.96126 5.32739 6.87467 5.07902 6.71973 4.90356C6.56478 4.72583 6.35514 4.63696 6.09082 4.63696ZM9.83008 7.43628C10.0557 7.43628 10.2528 7.36792 10.4214 7.2312C10.59 7.09448 10.6834 6.92358 10.7017 6.71851H11.2998C11.2884 6.93042 11.2155 7.13208 11.0811 7.32349C10.9466 7.51489 10.7666 7.66756 10.541 7.78149C10.3177 7.89543 10.0807 7.95239 9.83008 7.95239C9.3265 7.95239 8.92546 7.78491 8.62695 7.44995C8.33073 7.11271 8.18262 6.65243 8.18262 6.06909V5.96313C8.18262 5.60311 8.2487 5.28296 8.38086 5.00269C8.51302 4.72241 8.70215 4.5048 8.94824 4.34985C9.19661 4.19491 9.48942 4.11743 9.82666 4.11743C10.2414 4.11743 10.5854 4.24162 10.8589 4.48999C11.1346 4.73836 11.2816 5.06079 11.2998 5.45728H10.7017C10.6834 5.21802 10.5923 5.02205 10.4282 4.86938C10.2664 4.71444 10.0659 4.63696 9.82666 4.63696C9.50537 4.63696 9.25586 4.75317 9.07812 4.9856C8.90267 5.21574 8.81494 5.54956 8.81494 5.98706V6.10669C8.81494 6.5328 8.90267 6.86092 9.07812 7.09106C9.25358 7.32121 9.50423 7.43628 9.83008 7.43628ZM14.2939 7.51831C14.0479 7.8077 13.6867 7.95239 13.2104 7.95239C12.8162 7.95239 12.5155 7.83846 12.3081 7.6106C12.103 7.38045 11.9993 7.04093 11.9971 6.59204V4.18579H12.6294V6.57495C12.6294 7.1355 12.8573 7.41577 13.313 7.41577C13.7961 7.41577 14.1174 7.23576 14.2769 6.87573V4.18579H14.9092V7.88403H14.3076L14.2939 7.51831ZM17.6606 4.75317C17.5649 4.73722 17.4613 4.72925 17.3496 4.72925C16.9349 4.72925 16.6535 4.90584 16.5054 5.25903V7.88403H15.873V4.18579H16.4883L16.4985 4.61304C16.7059 4.28263 16.9998 4.11743 17.3804 4.11743C17.5034 4.11743 17.5968 4.13338 17.6606 4.16528V4.75317ZM19.7231 7.95239C19.2218 7.95239 18.8139 7.78833 18.4995 7.46021C18.185 7.1298 18.0278 6.68888 18.0278 6.13745V6.02124C18.0278 5.65438 18.0973 5.32739 18.2363 5.04028C18.3775 4.7509 18.5735 4.52531 18.8242 4.36353C19.0771 4.19946 19.3505 4.11743 19.6445 4.11743C20.1253 4.11743 20.499 4.2758 20.7656 4.59253C21.0322 4.90926 21.1655 5.36271 21.1655 5.95288V6.21606H18.6601C18.6692 6.58065 18.7752 6.87573 18.978 7.10132C19.183 7.32463 19.4428 7.43628 19.7573 7.43628C19.9806 7.43628 20.1697 7.39071 20.3246 7.29956C20.4796 7.20841 20.6152 7.08765 20.7314 6.93726L21.1176 7.23804C20.8077 7.71427 20.3429 7.95239 19.7231 7.95239ZM19.6445 4.63696C19.3893 4.63696 19.1751 4.73039 19.0019 4.91724C18.8287 5.10181 18.7216 5.36157 18.6806 5.69653H20.5331V5.64868C20.5149 5.32739 20.4283 5.07902 20.2734 4.90356C20.1184 4.72583 19.9088 4.63696 19.6445 4.63696ZM22.5873 7.88403H21.955V2.63403H22.5873V7.88403ZM24.8124 6.95776L25.6738 4.18579H26.3505L24.8637 8.45483C24.6336 9.07007 24.2678 9.37769 23.7665 9.37769L23.6469 9.36743L23.4111 9.323V8.8103L23.582 8.82397C23.7962 8.82397 23.9625 8.78068 24.081 8.69409C24.2018 8.6075 24.3009 8.44914 24.3784 8.21899L24.5185 7.84302L23.1992 4.18579H23.8896L24.8124 6.95776ZM31.7783 6.07593C31.7783 6.63875 31.6495 7.0922 31.392 7.43628C31.1345 7.78035 30.7859 7.95239 30.3461 7.95239C29.8972 7.95239 29.544 7.80998 29.2866 7.52515V9.30591H28.6542V4.18579H29.2319L29.2626 4.59595C29.5201 4.27694 29.8779 4.11743 30.3359 4.11743C30.7802 4.11743 31.1311 4.28491 31.3886 4.61987C31.6484 4.95483 31.7783 5.42082 31.7783 6.01782V6.07593ZM31.1459 6.00415C31.1459 5.58716 31.0571 5.25789 30.8793 5.01636C30.7016 4.77482 30.4578 4.65405 30.1479 4.65405C29.7651 4.65405 29.478 4.82381 29.2866 5.16333V6.93042C29.4757 7.26766 29.7651 7.43628 30.1547 7.43628C30.4578 7.43628 30.6982 7.31665 30.8759 7.07739C31.0559 6.83586 31.1459 6.47811 31.1459 6.00415ZM34.3725 4.75317C34.2768 4.73722 34.1731 4.72925 34.0615 4.72925C33.6467 4.72925 33.3653 4.90584 33.2172 5.25903V7.88403H32.5849V4.18579H33.2001L33.2104 4.61304C33.4177 4.28263 33.7117 4.11743 34.0922 4.11743C34.2153 4.11743 34.3087 4.13338 34.3725 4.16528V4.75317ZM34.7181 6.00073C34.7181 5.63843 34.7887 5.31258 34.93 5.02319C35.0736 4.73381 35.2718 4.5105 35.5247 4.35327C35.7799 4.19604 36.0705 4.11743 36.3963 4.11743C36.8999 4.11743 37.3066 4.29175 37.6165 4.64038C37.9287 4.98901 38.0848 5.45272 38.0848 6.03149V6.07593C38.0848 6.43595 38.0153 6.75952 37.8763 7.04663C37.7396 7.33146 37.5425 7.55363 37.285 7.71313C37.0298 7.87264 36.7358 7.95239 36.4031 7.95239C35.9018 7.95239 35.4951 7.77808 35.1829 7.42944C34.873 7.08081 34.7181 6.61938 34.7181 6.04517V6.00073ZM35.3538 6.07593C35.3538 6.48608 35.4484 6.81535 35.6375 7.06372C35.8289 7.31209 36.0841 7.43628 36.4031 7.43628C36.7244 7.43628 36.9796 7.31095 37.1688 7.0603C37.3579 6.80737 37.4525 6.45418 37.4525 6.00073C37.4525 5.59513 37.3556 5.26701 37.1619 5.01636C36.9705 4.76343 36.7153 4.63696 36.3963 4.63696C36.0841 4.63696 35.8323 4.76115 35.6409 5.00952C35.4495 5.25789 35.3538 5.61336 35.3538 6.07593ZM40.3612 7.43628C40.5867 7.43628 40.7838 7.36792 40.9525 7.2312C41.1211 7.09448 41.2145 6.92358 41.2327 6.71851H41.8309C41.8195 6.93042 41.7466 7.13208 41.6121 7.32349C41.4777 7.51489 41.2977 7.66756 41.0721 7.78149C40.8488 7.89543 40.6118 7.95239 40.3612 7.95239C39.8576 7.95239 39.4565 7.78491 39.158 7.44995C38.8618 7.11271 38.7137 6.65243 38.7137 6.06909V5.96313C38.7137 5.60311 38.7798 5.28296 38.9119 5.00269C39.0441 4.72241 39.2332 4.5048 39.4793 4.34985C39.7277 4.19491 40.0205 4.11743 40.3577 4.11743C40.7725 4.11743 41.1165 4.24162 41.39 4.48999C41.6657 4.73836 41.8127 5.06079 41.8309 5.45728H41.2327C41.2145 5.21802 41.1234 5.02205 40.9593 4.86938C40.7975 4.71444 40.597 4.63696 40.3577 4.63696C40.0364 4.63696 39.7869 4.75317 39.6092 4.9856C39.4337 5.21574 39.346 5.54956 39.346 5.98706V6.10669C39.346 6.5328 39.4337 6.86092 39.6092 7.09106C39.7847 7.32121 40.0353 7.43628 40.3612 7.43628ZM44.0765 7.95239C43.5752 7.95239 43.1673 7.78833 42.8529 7.46021C42.5384 7.1298 42.3812 6.68888 42.3812 6.13745V6.02124C42.3812 5.65438 42.4507 5.32739 42.5897 5.04028C42.7309 4.7509 42.9269 4.52531 43.1776 4.36353C43.4305 4.19946 43.7039 4.11743 43.9979 4.11743C44.4787 4.11743 44.8524 4.2758 45.119 4.59253C45.3856 4.90926 45.5189 5.36271 45.5189 5.95288V6.21606H43.0135C43.0226 6.58065 43.1286 6.87573 43.3314 7.10132C43.5364 7.32463 43.7962 7.43628 44.1107 7.43628C44.334 7.43628 44.5231 7.39071 44.6781 7.29956C44.833 7.20841 44.9686 7.08765 45.0848 6.93726L45.471 7.23804C45.1611 7.71427 44.6963 7.95239 44.0765 7.95239ZM43.9979 4.63696C43.7427 4.63696 43.5285 4.73039 43.3553 4.91724C43.1821 5.10181 43.075 5.36157 43.034 5.69653H44.8865V5.64868C44.8683 5.32739 44.7817 5.07902 44.6268 4.90356C44.4718 4.72583 44.2622 4.63696 43.9979 4.63696ZM48.4071 6.90308C48.4071 6.73218 48.3421 6.60002 48.2122 6.50659C48.0846 6.41089 47.8602 6.32886 47.5389 6.2605C47.2199 6.19214 46.9658 6.11011 46.7767 6.0144C46.5898 5.9187 46.4508 5.80477 46.3597 5.67261C46.2708 5.54045 46.2264 5.38322 46.2264 5.20093C46.2264 4.89787 46.354 4.64152 46.6092 4.43188C46.8667 4.22225 47.1948 4.11743 47.5936 4.11743C48.0128 4.11743 48.3524 4.22567 48.6121 4.44214C48.8742 4.65861 49.0052 4.93547 49.0052 5.27271H48.3695C48.3695 5.09953 48.2954 4.95028 48.1473 4.82495C48.0015 4.69963 47.8169 4.63696 47.5936 4.63696C47.3634 4.63696 47.1834 4.68709 47.0535 4.78735C46.9237 4.88761 46.8587 5.01864 46.8587 5.18042C46.8587 5.33309 46.9191 5.44816 47.0399 5.52563C47.1606 5.60311 47.3782 5.67716 47.6927 5.7478C48.0094 5.81844 48.2658 5.90275 48.4617 6.00073C48.6577 6.09871 48.8024 6.2172 48.8958 6.3562C48.9915 6.49292 49.0394 6.6604 49.0394 6.85864C49.0394 7.18905 48.9072 7.45451 48.6429 7.65503C48.3786 7.85327 48.0356 7.95239 47.6141 7.95239C47.3179 7.95239 47.0558 7.89998 46.828 7.79517C46.6001 7.69035 46.4212 7.54451 46.2913 7.35767C46.1637 7.16854 46.0999 6.9646 46.0999 6.74585H46.7323C46.7436 6.95776 46.828 7.12638 46.9852 7.25171C47.1447 7.37476 47.3543 7.43628 47.6141 7.43628C47.8533 7.43628 48.0448 7.38843 48.1883 7.29272C48.3341 7.19474 48.4071 7.06486 48.4071 6.90308ZM52.0164 6.90308C52.0164 6.73218 51.9515 6.60002 51.8216 6.50659C51.694 6.41089 51.4696 6.32886 51.1483 6.2605C50.8293 6.19214 50.5752 6.11011 50.3861 6.0144C50.1992 5.9187 50.0602 5.80477 49.9691 5.67261C49.8802 5.54045 49.8358 5.38322 49.8358 5.20093C49.8358 4.89787 49.9634 4.64152 50.2186 4.43188C50.4761 4.22225 50.8042 4.11743 51.203 4.11743C51.6222 4.11743 51.9617 4.22567 52.2215 4.44214C52.4836 4.65861 52.6146 4.93547 52.6146 5.27271H51.9788C51.9788 5.09953 51.9048 4.95028 51.7567 4.82495C51.6108 4.69963 51.4263 4.63696 51.203 4.63696C50.9728 4.63696 50.7928 4.68709 50.6629 4.78735C50.533 4.88761 50.4681 5.01864 50.4681 5.18042C50.4681 5.33309 50.5285 5.44816 50.6492 5.52563C50.77 5.60311 50.9876 5.67716 51.3021 5.7478C51.6188 5.81844 51.8752 5.90275 52.0711 6.00073C52.2671 6.09871 52.4118 6.2172 52.5052 6.3562C52.6009 6.49292 52.6488 6.6604 52.6488 6.85864C52.6488 7.18905 52.5166 7.45451 52.2523 7.65503C51.9879 7.85327 51.645 7.95239 51.2235 7.95239C50.9272 7.95239 50.6652 7.89998 50.4373 7.79517C50.2095 7.69035 50.0306 7.54451 49.9007 7.35767C49.7731 7.16854 49.7093 6.9646 49.7093 6.74585H50.3416C50.353 6.95776 50.4373 7.12638 50.5946 7.25171C50.7541 7.37476 50.9637 7.43628 51.2235 7.43628C51.4627 7.43628 51.6541 7.38843 51.7977 7.29272C51.9435 7.19474 52.0164 7.06486 52.0164 6.90308ZM55.0072 7.95239C54.5059 7.95239 54.098 7.78833 53.7835 7.46021C53.4691 7.1298 53.3118 6.68888 53.3118 6.13745V6.02124C53.3118 5.65438 53.3813 5.32739 53.5203 5.04028C53.6616 4.7509 53.8576 4.52531 54.1082 4.36353C54.3612 4.19946 54.6346 4.11743 54.9285 4.11743C55.4093 4.11743 55.783 4.2758 56.0496 4.59253C56.3162 4.90926 56.4495 5.36271 56.4495 5.95288V6.21606H53.9442C53.9533 6.58065 54.0592 6.87573 54.262 7.10132C54.4671 7.32463 54.7269 7.43628 55.0413 7.43628C55.2646 7.43628 55.4538 7.39071 55.6087 7.29956C55.7637 7.20841 55.8992 7.08765 56.0155 6.93726L56.4017 7.23804C56.0918 7.71427 55.6269 7.95239 55.0072 7.95239ZM54.9285 4.63696C54.6733 4.63696 54.4591 4.73039 54.286 4.91724C54.1128 5.10181 54.0057 5.36157 53.9647 5.69653H55.8172V5.64868C55.799 5.32739 55.7124 5.07902 55.5574 4.90356C55.4025 4.72583 55.1929 4.63696 54.9285 4.63696ZM57.0306 6.00415C57.0306 5.43677 57.165 4.98104 57.4339 4.63696C57.7028 4.29061 58.0548 4.11743 58.4901 4.11743C58.923 4.11743 59.2659 4.26554 59.5189 4.56177V2.63403H60.1512V7.88403H59.5701L59.5394 7.48755C59.2864 7.79744 58.9344 7.95239 58.4832 7.95239C58.0548 7.95239 57.7051 7.77694 57.4339 7.42603C57.165 7.07511 57.0306 6.61711 57.0306 6.052V6.00415ZM57.6629 6.07593C57.6629 6.4952 57.7495 6.82332 57.9227 7.0603C58.0959 7.29728 58.3351 7.41577 58.6405 7.41577C59.0415 7.41577 59.3343 7.23576 59.5189 6.87573V5.177C59.3297 4.82837 59.0392 4.65405 58.6473 4.65405C58.3374 4.65405 58.0959 4.77368 57.9227 5.01294C57.7495 5.2522 57.6629 5.60653 57.6629 6.07593ZM66.0028 6.07593C66.0028 6.64103 65.8729 7.09562 65.6131 7.4397C65.3533 7.78149 65.0047 7.95239 64.5672 7.95239C64.1001 7.95239 63.7389 7.78719 63.4837 7.45679L63.453 7.88403H62.8719V2.63403H63.5042V4.59253C63.7594 4.2758 64.1115 4.11743 64.5604 4.11743C65.0093 4.11743 65.3613 4.28719 65.6165 4.62671C65.874 4.96623 66.0028 5.43107 66.0028 6.02124V6.07593ZM65.3704 6.00415C65.3704 5.57349 65.2873 5.2408 65.1209 5.0061C64.9546 4.7714 64.7153 4.65405 64.4031 4.65405C63.9862 4.65405 63.6865 4.84774 63.5042 5.23511V6.83472C63.6979 7.22209 63.9998 7.41577 64.41 7.41577C64.713 7.41577 64.9489 7.29842 65.1175 7.06372C65.2861 6.82902 65.3704 6.47583 65.3704 6.00415ZM67.9684 6.95776L68.8298 4.18579H69.5065L68.0197 8.45483C67.7895 9.07007 67.4238 9.37769 66.9225 9.37769L66.8029 9.36743L66.5671 9.323V8.8103L66.738 8.82397C66.9521 8.82397 67.1185 8.78068 67.237 8.69409C67.3577 8.6075 67.4569 8.44914 67.5343 8.21899L67.6745 7.84302L66.3551 4.18579H67.0456L67.9684 6.95776Z" fill="#9296A5"/>
<path d="M22.7754 16.032C22.6068 16.2735 22.3709 16.4547 22.0679 16.5754C21.7671 16.6939 21.4162 16.7532 21.0151 16.7532C20.6095 16.7532 20.2495 16.6586 19.9351 16.4695C19.6206 16.2781 19.3768 16.0069 19.2036 15.656C19.0327 15.3051 18.945 14.8984 18.9404 14.4358V14.0017C18.9404 13.252 19.1147 12.671 19.4634 12.2585C19.8143 11.8461 20.3065 11.6399 20.9399 11.6399C21.4595 11.6399 21.8776 11.7732 22.1943 12.0398C22.5111 12.3041 22.7048 12.6801 22.7754 13.1677H22.1191C21.9961 12.5092 21.6042 12.1799 20.9434 12.1799C20.5036 12.1799 20.1698 12.3349 19.9419 12.6448C19.7163 12.9524 19.6024 13.399 19.6001 13.9846V14.3914C19.6001 14.9496 19.7277 15.394 19.9829 15.7244C20.2381 16.0525 20.5833 16.2166 21.0186 16.2166C21.2646 16.2166 21.48 16.1892 21.6646 16.1345C21.8491 16.0798 22.0018 15.9875 22.1226 15.8577V14.74H20.9707V14.2068H22.7754V16.032ZM24.4604 16.6848H23.8281V11.4348H24.4604V16.6848ZM25.3081 14.8015C25.3081 14.4392 25.3787 14.1134 25.52 13.824C25.6636 13.5346 25.8618 13.3113 26.1147 13.1541C26.37 12.9968 26.6605 12.9182 26.9863 12.9182C27.4899 12.9182 27.8966 13.0925 28.2065 13.4412C28.5187 13.7898 28.6748 14.2535 28.6748 14.8323V14.8767C28.6748 15.2367 28.6053 15.5603 28.4663 15.8474C28.3296 16.1322 28.1325 16.3544 27.875 16.5139C27.6198 16.6734 27.3258 16.7532 26.9932 16.7532C26.4919 16.7532 26.0851 16.5789 25.7729 16.2302C25.4631 15.8816 25.3081 15.4202 25.3081 14.8459V14.8015ZM25.9438 14.8767C25.9438 15.2869 26.0384 15.6161 26.2275 15.8645C26.4189 16.1129 26.6742 16.2371 26.9932 16.2371C27.3145 16.2371 27.5697 16.1117 27.7588 15.8611C27.9479 15.6082 28.0425 15.255 28.0425 14.8015C28.0425 14.3959 27.9456 14.0678 27.752 13.8171C27.5605 13.5642 27.3053 13.4377 26.9863 13.4377C26.6742 13.4377 26.4224 13.5619 26.231 13.8103C26.0396 14.0587 25.9438 14.4141 25.9438 14.8767ZM32.5986 14.8767C32.5986 15.4418 32.4688 15.8964 32.209 16.2405C31.9492 16.5823 31.6006 16.7532 31.1631 16.7532C30.696 16.7532 30.3348 16.588 30.0796 16.2576L30.0488 16.6848H29.4678V11.4348H30.1001V13.3933C30.3553 13.0766 30.7074 12.9182 31.1562 12.9182C31.6051 12.9182 31.9572 13.088 32.2124 13.4275C32.4699 13.767 32.5986 14.2319 32.5986 14.822V14.8767ZM31.9663 14.8049C31.9663 14.3743 31.8831 14.0416 31.7168 13.8069C31.5505 13.5722 31.3112 13.4548 30.999 13.4548C30.582 13.4548 30.2824 13.6485 30.1001 14.0359V15.6355C30.2938 16.0229 30.5957 16.2166 31.0059 16.2166C31.3089 16.2166 31.5448 16.0992 31.7134 15.8645C31.882 15.6298 31.9663 15.2766 31.9663 14.8049ZM35.6816 16.6848C35.6452 16.6119 35.6156 16.482 35.5928 16.2952C35.2988 16.6005 34.9479 16.7532 34.54 16.7532C34.1755 16.7532 33.8758 16.6506 33.6411 16.4456C33.4087 16.2382 33.2925 15.9762 33.2925 15.6594C33.2925 15.2743 33.4383 14.9758 33.73 14.7639C34.0239 14.5497 34.4364 14.4426 34.9673 14.4426H35.5825V14.1521C35.5825 13.9311 35.5164 13.7556 35.3843 13.6257C35.2521 13.4936 35.0573 13.4275 34.7998 13.4275C34.5742 13.4275 34.3851 13.4845 34.2324 13.5984C34.0798 13.7123 34.0034 13.8502 34.0034 14.012H33.3677C33.3677 13.8274 33.4326 13.6497 33.5625 13.4788C33.6947 13.3056 33.8724 13.1689 34.0957 13.0686C34.3213 12.9683 34.5685 12.9182 34.8374 12.9182C35.2635 12.9182 35.5973 13.0253 35.8389 13.2395C36.0804 13.4514 36.2057 13.7442 36.2148 14.1179V15.8201C36.2148 16.1596 36.2581 16.4296 36.3447 16.6301V16.6848H35.6816ZM34.6323 16.2029C34.8306 16.2029 35.0186 16.1516 35.1963 16.0491C35.374 15.9465 35.5028 15.8132 35.5825 15.6492V14.8904H35.0869C34.3122 14.8904 33.9248 15.1171 33.9248 15.5706C33.9248 15.7688 33.9909 15.9237 34.123 16.0354C34.2552 16.1471 34.425 16.2029 34.6323 16.2029ZM37.8931 16.6848H37.2607V11.4348H37.8931V16.6848ZM41.3999 14.7366V16.6848H40.7437V11.7083H42.5791C43.1237 11.7083 43.5498 11.8472 43.8574 12.1252C44.1673 12.4032 44.3223 12.7712 44.3223 13.2292C44.3223 13.7123 44.1707 14.0849 43.8677 14.3469C43.5669 14.6067 43.1351 14.7366 42.5723 14.7366H41.3999ZM41.3999 14.2H42.5791C42.93 14.2 43.1989 14.1179 43.3857 13.9539C43.5726 13.7875 43.666 13.5483 43.666 13.2361C43.666 12.9399 43.5726 12.7029 43.3857 12.5251C43.1989 12.3474 42.9425 12.2551 42.6167 12.2483H41.3999V14.2ZM47.3004 16.6848C47.2639 16.6119 47.2343 16.482 47.2115 16.2952C46.9175 16.6005 46.5666 16.7532 46.1587 16.7532C45.7942 16.7532 45.4945 16.6506 45.2598 16.4456C45.0274 16.2382 44.9112 15.9762 44.9112 15.6594C44.9112 15.2743 45.057 14.9758 45.3487 14.7639C45.6426 14.5497 46.0551 14.4426 46.586 14.4426H47.2012V14.1521C47.2012 13.9311 47.1351 13.7556 47.003 13.6257C46.8708 13.4936 46.676 13.4275 46.4185 13.4275C46.1929 13.4275 46.0038 13.4845 45.8511 13.5984C45.6985 13.7123 45.6221 13.8502 45.6221 14.012H44.9864C44.9864 13.8274 45.0513 13.6497 45.1812 13.4788C45.3134 13.3056 45.4911 13.1689 45.7144 13.0686C45.94 12.9683 46.1872 12.9182 46.4561 12.9182C46.8822 12.9182 47.216 13.0253 47.4576 13.2395C47.6991 13.4514 47.8244 13.7442 47.8336 14.1179V15.8201C47.8336 16.1596 47.8768 16.4296 47.9634 16.6301V16.6848H47.3004ZM46.251 16.2029C46.4493 16.2029 46.6373 16.1516 46.815 16.0491C46.9927 15.9465 47.1215 15.8132 47.2012 15.6492V14.8904H46.7056C45.9309 14.8904 45.5435 15.1171 45.5435 15.5706C45.5435 15.7688 45.6096 15.9237 45.7418 16.0354C45.8739 16.1471 46.0437 16.2029 46.251 16.2029ZM49.9836 15.7585L50.845 12.9866H51.5217L50.0349 17.2556C49.8048 17.8708 49.439 18.1785 48.9377 18.1785L48.8181 18.1682L48.5823 18.1238V17.6111L48.7532 17.6248C48.9673 17.6248 49.1337 17.5815 49.2522 17.4949C49.3729 17.4083 49.4721 17.2499 49.5495 17.0198L49.6897 16.6438L48.3703 12.9866H49.0608L49.9836 15.7585ZM52.6838 12.9866L52.7009 13.3967C52.9721 13.0777 53.3378 12.9182 53.7981 12.9182C54.3153 12.9182 54.6674 13.1165 54.8542 13.5129C54.9773 13.3352 55.1368 13.1917 55.3327 13.0823C55.531 12.9729 55.7645 12.9182 56.0334 12.9182C56.8446 12.9182 57.2571 13.3477 57.2707 14.2068V16.6848H56.6384V14.2444C56.6384 13.9801 56.578 13.783 56.4573 13.6531C56.3365 13.5209 56.1337 13.4548 55.8489 13.4548C55.6142 13.4548 55.4193 13.5255 55.2644 13.6667C55.1094 13.8057 55.0194 13.9937 54.9944 14.2307V16.6848H54.3586V14.2615C54.3586 13.7237 54.0954 13.4548 53.5691 13.4548C53.1544 13.4548 52.8707 13.6314 52.718 13.9846V16.6848H52.0857V12.9866H52.6838ZM59.7624 16.7532C59.2611 16.7532 58.8533 16.5891 58.5388 16.261C58.2243 15.9306 58.0671 15.4897 58.0671 14.9382V14.822C58.0671 14.4552 58.1366 14.1282 58.2756 13.8411C58.4169 13.5517 58.6129 13.3261 58.8635 13.1643C59.1164 13.0002 59.3899 12.9182 59.6838 12.9182C60.1646 12.9182 60.5383 13.0766 60.8049 13.3933C61.0715 13.71 61.2048 14.1635 61.2048 14.7537V15.0168H58.6994C58.7086 15.3814 58.8145 15.6765 59.0173 15.9021C59.2224 16.1254 59.4822 16.2371 59.7966 16.2371C60.0199 16.2371 60.209 16.1915 60.364 16.1003C60.5189 16.0092 60.6545 15.8884 60.7707 15.738L61.157 16.0388C60.8471 16.5151 60.3822 16.7532 59.7624 16.7532ZM59.6838 13.4377C59.4286 13.4377 59.2144 13.5312 59.0412 13.718C58.8681 13.9026 58.761 14.1624 58.72 14.4973H60.5725V14.4495C60.5543 14.1282 60.4677 13.8798 60.3127 13.7043C60.1578 13.5266 59.9481 13.4377 59.6838 13.4377ZM62.5378 12.9866L62.5583 13.4514C62.8409 13.0959 63.21 12.9182 63.6658 12.9182C64.4473 12.9182 64.8415 13.3591 64.8484 14.241V16.6848H64.216V14.2375C64.2138 13.9709 64.1522 13.7738 64.0315 13.6462C63.913 13.5186 63.7273 13.4548 63.4743 13.4548C63.2693 13.4548 63.0893 13.5095 62.9343 13.6189C62.7794 13.7283 62.6586 13.8718 62.572 14.0496V16.6848H61.9397V12.9866H62.5378ZM66.6599 12.0911V12.9866H67.3503V13.4753H66.6599V15.7688C66.6599 15.9169 66.6907 16.0286 66.7522 16.1038C66.8137 16.1767 66.9185 16.2131 67.0666 16.2131C67.1395 16.2131 67.2398 16.1995 67.3674 16.1721V16.6848C67.2011 16.7304 67.0393 16.7532 66.8821 16.7532C66.5995 16.7532 66.3865 16.6677 66.2429 16.4968C66.0993 16.3259 66.0276 16.0833 66.0276 15.7688V13.4753H65.3542V12.9866H66.0276V12.0911H66.6599ZM70.2453 15.7039C70.2453 15.533 70.1804 15.4008 70.0505 15.3074C69.9229 15.2117 69.6985 15.1296 69.3772 15.0613C69.0582 14.9929 68.8041 14.9109 68.615 14.8152C68.4281 14.7195 68.2891 14.6056 68.198 14.4734C68.1091 14.3412 68.0647 14.184 68.0647 14.0017C68.0647 13.6986 68.1923 13.4423 68.4475 13.2327C68.705 13.023 69.0331 12.9182 69.4319 12.9182C69.8511 12.9182 70.1907 13.0264 70.4504 13.2429C70.7125 13.4594 70.8435 13.7362 70.8435 14.0735H70.2077C70.2077 13.9003 70.1337 13.7511 69.9856 13.6257C69.8397 13.5004 69.6552 13.4377 69.4319 13.4377C69.2017 13.4377 69.0217 13.4879 68.8918 13.5881C68.7619 13.6884 68.697 13.8194 68.697 13.9812C68.697 14.1339 68.7574 14.2489 68.8782 14.3264C68.9989 14.4039 69.2165 14.4779 69.531 14.5486C69.8477 14.6192 70.1041 14.7035 70.3 14.8015C70.496 14.8995 70.6407 15.018 70.7341 15.157C70.8298 15.2937 70.8777 15.4612 70.8777 15.6594C70.8777 15.9898 70.7455 16.2553 70.4812 16.4558C70.2169 16.6541 69.8739 16.7532 69.4524 16.7532C69.1561 16.7532 68.8941 16.7008 68.6662 16.5959C68.4384 16.4911 68.2595 16.3453 68.1296 16.1584C68.002 15.9693 67.9382 15.7654 67.9382 15.5466H68.5705C68.5819 15.7585 68.6662 15.9272 68.8235 16.0525C68.983 16.1755 69.1926 16.2371 69.4524 16.2371C69.6916 16.2371 69.883 16.1892 70.0266 16.0935C70.1724 15.9955 70.2453 15.8656 70.2453 15.7039Z" fill="#9296A5"/>
<path fill-rule="evenodd" clip-rule="evenodd" d="M95.2393 1.5364C95.2393 2.3852 94.559 3.07382 93.7192 3.07382C92.8794 3.07382 92.1991 2.3852 92.1991 1.5364C92.1991 0.687606 92.8794 0 93.7192 0C94.559 0 95.2393 0.687606 95.2393 1.5364" fill="#9296A5"/>
<path fill-rule="evenodd" clip-rule="evenodd" d="M89.2139 8.81995C90.411 8.81995 91.2094 8.03645 91.2094 6.82651C91.2094 5.61555 90.3878 4.78613 89.1432 4.78613C88.0158 4.78613 87.2174 5.5931 87.2174 6.87446C87.2174 8.10888 87.9694 8.81995 89.2139 8.81995" fill="#9296A5"/>
<path fill-rule="evenodd" clip-rule="evenodd" d="M90.5528 15.1089L87.8528 14.9661C87.0069 15.3701 86.6082 15.7496 86.6082 16.2729C86.6082 17.0789 87.5005 17.6481 89.0034 17.6481C91.0464 17.6481 92.1961 16.984 92.1961 16.1066C92.1961 15.418 91.6571 15.1568 90.5528 15.1089" fill="#9296A5"/>
<path fill-rule="evenodd" clip-rule="evenodd" d="M89.0498 19.7385C85.5977 19.7385 83.8364 18.6469 83.8364 16.6289C83.8364 15.4669 84.5177 14.8252 85.9732 14.3509C84.87 13.8051 84.3532 13.3062 84.3532 12.4513C84.3532 11.5739 84.9871 10.719 86.1852 10.1028C85.0577 9.41417 84.4703 8.29808 84.4703 6.85043C84.4703 4.31119 86.3497 2.53198 89.1436 2.53198C90.2903 2.53198 91.4319 2.90537 92.309 3.66133C92.8884 4.16122 93.3436 4.81618 93.5939 5.54562C93.7625 6.03939 93.816 6.56784 93.816 7.08814C93.816 9.48456 92.0789 11.0516 89.2143 11.0516C88.6975 11.0516 88.2514 11.0036 87.8759 10.9098C87.3359 11.123 87.0775 11.4076 87.0775 11.7392C87.0775 12.5706 88.2039 12.4992 90.3175 12.6655C93.4879 12.9032 94.8264 13.5194 94.8264 15.8924C94.8264 18.3377 92.8298 19.7385 89.0498 19.7385M95.4296 2.47995C95.0986 3.09207 94.4566 3.50626 93.7177 3.50626C92.6418 3.50626 91.7697 2.62482 91.7697 1.53628C91.7697 1.3047 91.8111 1.0823 91.8847 0.87622C91.0884 0.681364 90.2566 0.579346 89.4017 0.579346C83.5484 0.579346 78.8034 5.37525 78.8034 11.2913C78.8034 17.2074 83.5484 22.0033 89.4017 22.0033C95.255 22.0033 100 17.2074 100 11.2913C100 7.63904 98.1902 4.41423 95.4296 2.47995" fill="#9296A5"/>
</svg>
