<svg width="17" height="16" viewBox="0 0 17 16" fill="none" xmlns="http://www.w3.org/2000/svg">
<path fill-rule="evenodd" clip-rule="evenodd" d="M0.4646 8C0.4646 3.58332 4.04663 0 8.4646 0C12.8826 0 16.4646 3.58332 16.4646 8C16.4646 12.4193 12.8826 16 8.4646 16C4.04663 16 0.4646 12.4193 0.4646 8ZM15.4323 7.99989C15.4323 4.13134 12.291 1.03215 8.46455 1.03215C4.61301 1.03215 1.49681 4.15463 1.49681 7.99989C1.49681 11.8527 4.61797 14.9676 8.46455 14.9676C12.3158 14.9676 15.4323 11.848 15.4323 7.99989ZM7.30343 11.0967H7.69052V7.22568H7.30343C7.08965 7.22568 6.91633 7.05236 6.91633 6.83859V6.58052C6.91633 6.36675 7.08965 6.19343 7.30343 6.19343H8.85181C9.06559 6.19343 9.23891 6.36675 9.23891 6.58052V11.0967H9.62601C9.83978 11.0967 10.0131 11.27 10.0131 11.4837V11.7418C10.0131 11.9556 9.83978 12.1289 9.62601 12.1289H7.30343C7.08965 12.1289 6.91633 11.9556 6.91633 11.7418V11.4837C6.91633 11.27 7.08965 11.0967 7.30343 11.0967ZM7.43238 4.38697C7.43238 3.81687 7.89454 3.35471 8.46464 3.35471C9.03474 3.35471 9.4969 3.81687 9.4969 4.38697C9.4969 4.95706 9.03474 5.41922 8.46464 5.41922C7.89454 5.41922 7.43238 4.95706 7.43238 4.38697Z" fill="#0074C7"/>
</svg>
