<svg width="22" height="22" viewBox="0 0 22 22" fill="none" xmlns="http://www.w3.org/2000/svg">
<path fill-rule="evenodd" clip-rule="evenodd" d="M0.5 11C0.5 5.20311 5.20142 0.5 11 0.5C16.7986 0.5 21.5 5.20311 21.5 11C21.5 16.8003 16.7986 21.5 11 21.5C5.20142 21.5 0.5 16.8003 0.5 11ZM20.1451 10.9999C20.1451 5.92239 16.0222 1.85469 10.9999 1.85469C5.94478 1.85469 1.85478 5.95295 1.85478 10.9999C1.85478 16.0567 5.9513 20.145 10.9999 20.145C16.0548 20.145 20.1451 16.0505 20.1451 10.9999ZM9.47596 15.0644H9.98402V9.98371H9.47596C9.19538 9.98371 8.96789 9.75622 8.96789 9.47565V9.13694C8.96789 8.85636 9.19538 8.62887 9.47596 8.62887H11.5082C11.7888 8.62887 12.0163 8.85636 12.0163 9.13694V15.0644H12.5243C12.8049 15.0644 13.0324 15.2918 13.0324 15.5724V15.9111C13.0324 16.1917 12.8049 16.4192 12.5243 16.4192H9.47596C9.19538 16.4192 8.96789 16.1917 8.96789 15.9111V15.5724C8.96789 15.2918 9.19538 15.0644 9.47596 15.0644ZM9.64522 6.25789C9.64522 5.50964 10.2518 4.90305 11.0001 4.90305C11.7483 4.90305 12.3549 5.50964 12.3549 6.25789C12.3549 7.00614 11.7483 7.61273 11.0001 7.61273C10.2518 7.61273 9.64522 7.00614 9.64522 6.25789Z" fill="#5A5E6D"/>
<path d="M9.98402 15.0644V15.2144H10.134V15.0644H9.98402ZM9.98402 9.98371H10.134V9.83371H9.98402V9.98371ZM12.0163 15.0644H11.8663V15.2144H12.0163V15.0644ZM11 0.35C5.11856 0.35 0.35 5.12028 0.35 11H0.65C0.65 5.28594 5.28428 0.65 11 0.65V0.35ZM21.65 11C21.65 5.12028 16.8814 0.35 11 0.35V0.65C16.7157 0.65 21.35 5.28594 21.35 11H21.65ZM11 21.65C16.8814 21.65 21.65 16.8831 21.65 11H21.35C21.35 16.7174 16.7158 21.35 11 21.35V21.65ZM0.35 11C0.35 16.8831 5.11859 21.65 11 21.65V21.35C5.28424 21.35 0.65 16.7174 0.65 11H0.35ZM10.9999 2.00469C15.9399 2.00469 19.9951 6.00582 19.9951 10.9999H20.2951C20.2951 5.83895 16.1045 1.70469 10.9999 1.70469V2.00469ZM2.00478 10.9999C2.00478 6.03571 6.02772 2.00469 10.9999 2.00469V1.70469C5.86185 1.70469 1.70478 5.8702 1.70478 10.9999H2.00478ZM10.9999 19.995C6.03406 19.995 2.00478 15.9738 2.00478 10.9999H1.70478C1.70478 16.1396 5.86855 20.295 10.9999 20.295V19.995ZM19.9951 10.9999C19.9951 15.9677 15.9719 19.995 10.9999 19.995V20.295C16.1376 20.295 20.2951 16.1333 20.2951 10.9999H19.9951ZM9.98402 14.9144H9.47596V15.2144H9.98402V14.9144ZM9.83402 9.98371V15.0644H10.134V9.98371H9.83402ZM9.47596 10.1337H9.98402V9.83371H9.47596V10.1337ZM8.81789 9.47565C8.81789 9.83907 9.11254 10.1337 9.47596 10.1337V9.83371C9.27822 9.83371 9.11789 9.67338 9.11789 9.47565H8.81789ZM8.81789 9.13694V9.47565H9.11789V9.13694H8.81789ZM9.47596 8.47887C9.11254 8.47887 8.81789 8.77351 8.81789 9.13694H9.11789C9.11789 8.9392 9.27822 8.77887 9.47596 8.77887V8.47887ZM11.5082 8.47887H9.47596V8.77887H11.5082V8.47887ZM12.1663 9.13694C12.1663 8.77351 11.8716 8.47887 11.5082 8.47887V8.77887C11.706 8.77887 11.8663 8.9392 11.8663 9.13694H12.1663ZM12.1663 15.0644V9.13694H11.8663V15.0644H12.1663ZM12.5243 14.9144H12.0163V15.2144H12.5243V14.9144ZM13.1824 15.5724C13.1824 15.209 12.8878 14.9144 12.5243 14.9144V15.2144C12.7221 15.2144 12.8824 15.3747 12.8824 15.5724H13.1824ZM13.1824 15.9111V15.5724H12.8824V15.9111H13.1824ZM12.5243 16.5692C12.8878 16.5692 13.1824 16.2746 13.1824 15.9111H12.8824C12.8824 16.1089 12.7221 16.2692 12.5243 16.2692V16.5692ZM9.47596 16.5692H12.5243V16.2692H9.47596V16.5692ZM8.81789 15.9111C8.81789 16.2746 9.11254 16.5692 9.47596 16.5692V16.2692C9.27822 16.2692 9.11789 16.1089 9.11789 15.9111H8.81789ZM8.81789 15.5724V15.9111H9.11789V15.5724H8.81789ZM9.47596 14.9144C9.11254 14.9144 8.81789 15.209 8.81789 15.5724H9.11789C9.11789 15.3747 9.27822 15.2144 9.47596 15.2144V14.9144ZM11.0001 4.75305C10.169 4.75305 9.49522 5.4268 9.49522 6.25789H9.79522C9.79522 5.59248 10.3346 5.05305 11.0001 5.05305V4.75305ZM12.5049 6.25789C12.5049 5.4268 11.8311 4.75305 11.0001 4.75305V5.05305C11.6655 5.05305 12.2049 5.59248 12.2049 6.25789H12.5049ZM11.0001 7.76273C11.8311 7.76273 12.5049 7.08899 12.5049 6.25789H12.2049C12.2049 6.9233 11.6655 7.46273 11.0001 7.46273V7.76273ZM9.49522 6.25789C9.49522 7.08899 10.169 7.76273 11.0001 7.76273V7.46273C10.3346 7.46273 9.79522 6.9233 9.79522 6.25789H9.49522Z" fill="#5A5E6D"/>
</svg>
