<svg width="67" height="28" viewBox="0 0 67 28" fill="none" xmlns="http://www.w3.org/2000/svg">
<path d="M0 14C0 8.30294 0 5.45442 1.40735 3.42572C1.95803 2.6319 2.65005 1.94463 3.44934 1.39771C5.49202 0 8.36019 0 14.0965 0H52.9036C58.6396 0 61.508 0 63.5506 1.39771C64.3501 1.94463 65.0422 2.6319 65.5926 3.42572C67 5.45442 67 8.30294 67 14C67 19.6971 67 22.5456 65.5926 24.5743C65.0422 25.3681 64.3501 26.0554 63.5506 26.6023C61.508 28 58.6396 28 52.9036 28H14.0966C8.36019 28 5.49202 28 3.44934 26.6023C2.65005 26.0554 1.95803 25.3681 1.40735 24.5743C0 22.5456 0 19.6971 0 14Z" fill="#FFA8CD"/>
<path d="M53.9879 17.8857C52.8189 17.8857 51.9078 16.9256 51.9078 15.7599C51.9078 14.5941 52.8189 13.6341 53.9879 13.6341C55.1568 13.6341 56.0679 14.5941 56.0679 15.7599C56.0679 16.9256 55.1568 17.8857 53.9879 17.8857ZM53.4032 20.1315C54.4004 20.1315 55.6725 19.7543 56.3776 18.28L56.4461 18.3143C56.1369 19.12 56.1369 19.6 56.1369 19.72V19.9086H58.6465V11.6112H56.1369V11.7998C56.1369 11.9198 56.1369 12.3998 56.4461 13.2055L56.3776 13.2398C55.6725 11.7655 54.4004 11.3883 53.4032 11.3883C51.0139 11.3883 49.3292 13.2741 49.3292 15.7599C49.3292 18.2457 51.0139 20.1315 53.4032 20.1315ZM44.9625 11.3883C43.8278 11.3883 42.9339 11.7826 42.2118 13.2398L42.1431 13.2055C42.4525 12.3998 42.4525 11.9198 42.4525 11.7998V11.6112H39.9426V19.9086H42.5213V15.537C42.5213 14.3884 43.1918 13.6684 44.2748 13.6684C45.3579 13.6684 45.8908 14.2855 45.8908 15.5199V19.9086H48.4695V14.6284C48.4695 12.7427 46.9908 11.3883 44.9625 11.3883ZM36.2121 13.2398L36.1433 13.2055C36.4527 12.3998 36.4527 11.9198 36.4527 11.7998V11.6112H33.9429V19.9086H36.5215L36.5387 15.9142C36.5387 14.7484 37.1576 14.0455 38.1719 14.0455C38.4469 14.0455 38.6705 14.0798 38.9283 14.1484V11.6112C37.7937 11.3712 36.7794 11.7998 36.2121 13.2398ZM28.0119 17.8857C26.8428 17.8857 25.9317 16.9256 25.9317 15.7599C25.9317 14.5941 26.8428 13.6341 28.0119 13.6341C29.1809 13.6341 30.092 14.5941 30.092 15.7599C30.092 16.9256 29.1809 17.8857 28.0119 17.8857ZM27.4273 20.1315C28.4244 20.1315 29.6966 19.7543 30.4014 18.28L30.4702 18.3143C30.1607 19.12 30.1607 19.6 30.1607 19.72V19.9086H32.6707V11.6112H30.1607V11.7998C30.1607 11.9198 30.1607 12.3998 30.4702 13.2055L30.4014 13.2398C29.6966 11.7655 28.4244 11.3883 27.4273 11.3883C25.0377 11.3883 23.353 13.2741 23.353 15.7599C23.353 18.2457 25.0377 20.1315 27.4273 20.1315ZM19.76 19.9086H22.3387V7.9082H19.76V19.9086ZM17.869 7.9082H15.2387C15.2387 10.0511 13.915 11.9712 11.9036 13.3427L11.1128 13.8913V7.9082H8.37939V19.9086H11.1128V13.9598L15.6341 19.9086H18.9692L14.6198 14.217C16.5968 12.7941 17.8862 10.5826 17.869 7.9082Z" fill="#0B051D"/>
</svg>
