<svg width="94" height="30" viewBox="0 0 94 30" fill="none" xmlns="http://www.w3.org/2000/svg">
<path d="M30.5396 11.1357V1.94682H35.029C36.1842 1.94682 37.0505 2.1656 37.6281 2.60317C38.2145 3.04073 38.5076 3.61832 38.5076 4.33592C38.5076 4.81724 38.3895 5.2373 38.1532 5.59611C37.9169 5.94616 37.5931 6.21745 37.1818 6.40998C36.7705 6.6025 36.2979 6.69877 35.7641 6.69877L36.0135 6.16056C36.5911 6.16056 37.1031 6.25683 37.5494 6.44936C37.9957 6.63313 38.3414 6.9088 38.5864 7.27635C38.8402 7.64391 38.9671 8.0946 38.9671 8.62842C38.9671 9.41604 38.6564 10.033 38.0351 10.4793C37.4137 10.9169 36.4992 11.1357 35.2915 11.1357H30.5396ZM32.653 9.53418H35.134C35.6853 9.53418 36.101 9.44667 36.3811 9.27164C36.6699 9.08787 36.8143 8.79907 36.8143 8.40527C36.8143 8.02021 36.6699 7.73579 36.3811 7.55202C36.101 7.35949 35.6853 7.26322 35.134 7.26322H32.4955V5.71425H34.7665C35.2828 5.71425 35.6766 5.62674 35.9479 5.45171C36.2279 5.26793 36.3679 4.99227 36.3679 4.62471C36.3679 4.26591 36.2279 3.999 35.9479 3.82397C35.6766 3.6402 35.2828 3.54831 34.7665 3.54831H32.653V9.53418ZM44.7646 11.1357V9.75734L44.6333 9.45542V6.98756C44.6333 6.55 44.4976 6.2087 44.2264 5.96366C43.9638 5.71862 43.5569 5.59611 43.0055 5.59611C42.6292 5.59611 42.2573 5.65737 41.8898 5.77988C41.531 5.89365 41.2247 6.05117 40.9709 6.25245L40.2358 4.82162C40.6208 4.55033 41.0846 4.3403 41.6272 4.19153C42.1698 4.04275 42.7211 3.96837 43.2812 3.96837C44.3576 3.96837 45.1934 4.22216 45.7885 4.72973C46.3835 5.2373 46.6811 6.02929 46.6811 7.1057V11.1357H44.7646ZM42.6117 11.2407C42.0604 11.2407 41.5878 11.1488 41.194 10.965C40.8002 10.7725 40.4983 10.5143 40.2883 10.1905C40.0782 9.86673 39.9732 9.50355 39.9732 9.10099C39.9732 8.68093 40.0739 8.31338 40.2752 7.99833C40.4852 7.68329 40.8134 7.43825 41.2597 7.26322C41.706 7.07945 42.2879 6.98756 43.0055 6.98756H44.8827V8.18211H43.2287C42.7474 8.18211 42.4148 8.26087 42.2311 8.41839C42.056 8.57592 41.9685 8.77282 41.9685 9.00911C41.9685 9.27164 42.0692 9.48167 42.2704 9.6392C42.4805 9.78797 42.7649 9.86235 43.1237 9.86235C43.465 9.86235 43.7713 9.78359 44.0426 9.62607C44.3139 9.4598 44.5108 9.21914 44.6333 8.90409L44.9483 9.84923C44.7996 10.3043 44.5283 10.65 44.1345 10.8863C43.7407 11.1225 43.2331 11.2407 42.6117 11.2407ZM52.8269 3.96837C53.387 3.96837 53.8859 4.08214 54.3234 4.30967C54.7697 4.52845 55.1198 4.86975 55.3736 5.33357C55.6274 5.78863 55.7542 6.37497 55.7542 7.09257V11.1357H53.7064V7.40762C53.7064 6.83879 53.5796 6.41873 53.3258 6.14744C53.0807 5.87615 52.7307 5.7405 52.2756 5.7405C51.9518 5.7405 51.6587 5.81051 51.3961 5.95053C51.1423 6.0818 50.941 6.28746 50.7923 6.5675C50.6523 6.84754 50.5822 7.20634 50.5822 7.64391V11.1357H48.5344V4.07338H50.4904V6.02929L50.1228 5.43858C50.3766 4.96601 50.7398 4.60284 51.2123 4.34905C51.6849 4.09526 52.2231 3.96837 52.8269 3.96837ZM59.3038 9.6917L59.3564 7.19759L62.6512 4.07338H65.0928L61.9292 7.28948L60.866 8.15586L59.3038 9.6917ZM57.6105 11.1357V1.39549H59.6583V11.1357H57.6105ZM62.8744 11.1357L60.4853 8.16898L61.7717 6.58063L65.3554 11.1357H62.8744ZM30.5396 27.1357V17.9468H34.517C35.3397 17.9468 36.0485 18.0825 36.6436 18.3538C37.2387 18.6163 37.6981 18.997 38.0219 19.4958C38.3457 19.9946 38.5076 20.5897 38.5076 21.2811C38.5076 21.9637 38.3457 22.5544 38.0219 23.0532C37.6981 23.552 37.2387 23.9371 36.6436 24.2084C36.0485 24.4709 35.3397 24.6022 34.517 24.6022H31.721L32.6662 23.6439V27.1357H30.5396ZM32.6662 23.8802L31.721 22.8694H34.3989C35.0553 22.8694 35.5453 22.7294 35.8691 22.4494C36.1929 22.1693 36.3548 21.7799 36.3548 21.2811C36.3548 20.7735 36.1929 20.3797 35.8691 20.0996C35.5453 19.8196 35.0553 19.6796 34.3989 19.6796H31.721L32.6662 18.6688V23.8802ZM44.1492 27.1357V25.7573L44.018 25.4554V22.9876C44.018 22.55 43.8823 22.2087 43.611 21.9637C43.3485 21.7186 42.9416 21.5961 42.3902 21.5961C42.0139 21.5961 41.642 21.6574 41.2744 21.7799C40.9156 21.8936 40.6093 22.0512 40.3556 22.2525L39.6204 20.8216C40.0055 20.5503 40.4693 20.3403 41.0119 20.1915C41.5545 20.0428 42.1058 19.9684 42.6659 19.9684C43.7423 19.9684 44.578 20.2222 45.1731 20.7297C45.7682 21.2373 46.0658 22.0293 46.0658 23.1057V27.1357H44.1492ZM41.9964 27.2407C41.4451 27.2407 40.9725 27.1488 40.5787 26.965C40.1849 26.7725 39.883 26.5143 39.673 26.1905C39.4629 25.8667 39.3579 25.5036 39.3579 25.101C39.3579 24.6809 39.4585 24.3134 39.6598 23.9983C39.8699 23.6833 40.198 23.4383 40.6443 23.2632C41.0907 23.0794 41.6726 22.9876 42.3902 22.9876H44.2674V24.1821H42.6134C42.1321 24.1821 41.7995 24.2609 41.6157 24.4184C41.4407 24.5759 41.3532 24.7728 41.3532 25.0091C41.3532 25.2716 41.4538 25.4817 41.6551 25.6392C41.8651 25.788 42.1496 25.8624 42.5084 25.8624C42.8497 25.8624 43.156 25.7836 43.4273 25.6261C43.6985 25.4598 43.8954 25.2191 44.018 24.9041L44.333 25.8492C44.1842 26.3043 43.9129 26.65 43.5191 26.8863C43.1253 27.1225 42.6178 27.2407 41.9964 27.2407ZM48.6836 29.7873C48.316 29.7873 47.9528 29.7304 47.594 29.6167C47.2352 29.5029 46.9421 29.3454 46.7145 29.1441L47.4628 27.687C47.6203 27.827 47.7997 27.9364 48.001 28.0152C48.211 28.0939 48.4166 28.1333 48.6179 28.1333C48.9067 28.1333 49.1342 28.0633 49.3005 27.9233C49.4755 27.792 49.6331 27.5689 49.7731 27.2538L50.1406 26.3874L50.2982 26.1643L52.8317 20.0734H54.8007L51.6109 27.5689C51.3833 28.1377 51.1208 28.584 50.8232 28.9078C50.5345 29.2316 50.2107 29.4591 49.8519 29.5904C49.5018 29.7217 49.1124 29.7873 48.6836 29.7873ZM49.8912 27.4113L46.7408 20.0734H48.8542L51.2958 25.9805L49.8912 27.4113ZM64.6808 19.9684C65.2408 19.9684 65.7353 20.0821 66.1641 20.3097C66.6017 20.5285 66.943 20.8698 67.188 21.3336C67.4418 21.7886 67.5687 22.375 67.5687 23.0926V27.1357H65.5209V23.4076C65.5209 22.8388 65.4027 22.4187 65.1665 22.1474C64.9302 21.8761 64.5976 21.7405 64.1688 21.7405C63.8713 21.7405 63.6043 21.8105 63.3681 21.9505C63.1318 22.0818 62.948 22.2831 62.8167 22.5544C62.6855 22.8257 62.6198 23.1713 62.6198 23.5914V27.1357H60.572V23.4076C60.572 22.8388 60.4539 22.4187 60.2176 22.1474C59.9901 21.8761 59.6619 21.7405 59.2331 21.7405C58.9355 21.7405 58.6686 21.8105 58.4323 21.9505C58.1961 22.0818 58.0123 22.2831 57.881 22.5544C57.7497 22.8257 57.6841 23.1713 57.6841 23.5914V27.1357H55.6363V20.0734H57.5922V22.003L57.2247 21.4386C57.4697 20.9573 57.8154 20.5941 58.2617 20.349C58.7168 20.0953 59.2331 19.9684 59.8107 19.9684C60.4583 19.9684 61.0227 20.1346 61.504 20.4672C61.9941 20.791 62.3179 21.2898 62.4754 21.9637L61.7535 21.7668C61.9897 21.2154 62.366 20.7779 62.8824 20.4541C63.4074 20.1303 64.0069 19.9684 64.6808 19.9684ZM72.9604 27.2407C72.1552 27.2407 71.4464 27.0832 70.8338 26.7681C70.23 26.4531 69.7618 26.0243 69.4292 25.4817C69.0967 24.9303 68.9304 24.3046 68.9304 23.6045C68.9304 22.8957 69.0923 22.27 69.4161 21.7274C69.7486 21.176 70.1993 20.7472 70.7682 20.4409C71.337 20.1259 71.9802 19.9684 72.6978 19.9684C73.3892 19.9684 74.0105 20.1171 74.5618 20.4147C75.1219 20.7035 75.5639 21.1235 75.8877 21.6749C76.2115 22.2174 76.3734 22.8694 76.3734 23.6308C76.3734 23.7095 76.369 23.8014 76.3602 23.9064C76.3515 24.0027 76.3427 24.0946 76.334 24.1821H70.5975V22.9876H75.2576L74.47 23.342C74.47 22.9744 74.3956 22.655 74.2468 22.3837C74.098 22.1124 73.8924 21.9024 73.6298 21.7536C73.3673 21.5961 73.061 21.5173 72.7109 21.5173C72.3609 21.5173 72.0502 21.5961 71.7789 21.7536C71.5164 21.9024 71.3107 22.1168 71.162 22.3968C71.0132 22.6681 70.9388 22.9919 70.9388 23.3682V23.6833C70.9388 24.0683 71.0219 24.4096 71.1882 24.7072C71.3632 24.996 71.6039 25.2191 71.9102 25.3767C72.2252 25.5254 72.5928 25.5998 73.0129 25.5998C73.3892 25.5998 73.7173 25.5429 73.9974 25.4292C74.2862 25.3154 74.5487 25.1447 74.785 24.9172L75.8745 26.0986C75.5507 26.4662 75.1438 26.7506 74.6537 26.9519C74.1637 27.1444 73.5992 27.2407 72.9604 27.2407ZM82.0292 19.9684C82.5893 19.9684 83.0881 20.0821 83.5257 20.3097C83.972 20.5285 84.322 20.8698 84.5758 21.3336C84.8296 21.7886 84.9565 22.375 84.9565 23.0926V27.1357H82.9087V23.4076C82.9087 22.8388 82.7818 22.4187 82.528 22.1474C82.283 21.8761 81.9329 21.7405 81.4779 21.7405C81.1541 21.7405 80.8609 21.8105 80.5984 21.9505C80.3446 22.0818 80.1433 22.2875 79.9945 22.5675C79.8545 22.8475 79.7845 23.2063 79.7845 23.6439V27.1357H77.7367V20.0734H79.6926V22.0293L79.3251 21.4386C79.5789 20.966 79.942 20.6028 80.4146 20.349C80.8872 20.0953 81.4254 19.9684 82.0292 19.9684ZM89.7007 27.2407C88.8693 27.2407 88.2217 27.0307 87.7579 26.6106C87.2941 26.1818 87.0622 25.5473 87.0622 24.7072V18.5113H89.11V24.6809C89.11 24.9785 89.1887 25.2104 89.3462 25.3767C89.5038 25.5342 89.7182 25.6129 89.9895 25.6129C90.3133 25.6129 90.5889 25.5254 90.8165 25.3504L91.3678 26.7944C91.1578 26.9431 90.904 27.0569 90.6064 27.1357C90.3176 27.2057 90.0157 27.2407 89.7007 27.2407ZM85.9726 21.8061V20.2309H90.869V21.8061H85.9726Z" fill="#004A80"/>
<path d="M13.4251 4.47362C12.1627 4.47362 11.1361 5.50024 11.1361 6.76257C11.1361 8.0249 12.1627 9.05146 13.4251 9.05146C14.6874 9.05146 15.7139 8.02485 15.7139 6.76257C15.7139 5.50029 14.6873 4.47362 13.4251 4.47362ZM13.4251 7.90758C12.7939 7.90758 12.2801 7.39373 12.2801 6.76257C12.2801 6.1314 12.7939 5.61756 13.4251 5.61756C14.0562 5.61756 14.5701 6.1314 14.5701 6.76257C14.5701 7.39373 14.0562 7.90758 13.4251 7.90758Z" fill="#004A80"/>
<path d="M25.4399 11.3382C25.756 11.3382 25.4896 11.3382 26.0119 11.3382V8.48027C26.0119 8.27866 25.9057 8.09158 25.732 7.98879L14.5438 1.34448C14.5388 1.3411 14.5337 1.33832 14.5288 1.33553C13.8334 0.950159 13.0492 0.93847 12.3136 1.34336L1.126 7.98879C0.952275 8.09153 0.846161 8.27866 0.846161 8.48027V11.3382C1.29467 11.3382 1.10198 11.3382 1.41813 11.3382H3.13397V21.6338C1.87218 21.6338 0.846161 22.6597 0.846161 23.9213V26.2089C1.41813 26.2089 1.10198 26.2089 1.41813 26.2089H25.4399C25.756 26.2089 26.0118 26.2089 26.0118 26.2089L26.0119 23.9213C26.0119 22.6597 24.9858 21.6338 23.724 21.6338V11.3382H25.4399ZM24.8679 23.9211V25.065H1.99004V23.9211C1.99004 23.2905 2.50334 22.7772 3.13391 22.7772H3.70588H23.1521H23.724C24.3546 22.7772 24.8679 23.2905 24.8679 23.9211ZM4.27784 21.6333V11.3382H6.56565V21.6333H4.27784ZM7.70952 21.6333V11.3382H11.1412V21.6333H7.70952ZM12.2851 21.6333V11.3382H14.5729V21.6333H12.2851ZM15.7168 21.6333V11.3382H19.1484V21.6333H15.7168ZM20.2924 21.6333V11.3382H22.5802V21.6333H20.2924ZM1.99004 10.1943V8.80409L12.8811 2.33388C13.2374 2.13785 13.6161 2.13838 13.968 2.32997L24.8679 8.80409V10.1943H1.99004Z" fill="#004A80"/>
</svg>
