<svg width="112" height="36" viewBox="0 0 112 36" fill="none" xmlns="http://www.w3.org/2000/svg">
<path d="M36.2698 14.1839V3.17032H41.6507C43.0352 3.17032 44.0737 3.43255 44.766 3.957C45.4687 4.48146 45.8201 5.17374 45.8201 6.03385C45.8201 6.61075 45.6785 7.11423 45.3953 7.54428C45.1121 7.96385 44.724 8.28901 44.231 8.51977C43.738 8.75053 43.1716 8.86591 42.5318 8.86591L42.8307 8.22083C43.523 8.22083 44.1366 8.33621 44.6716 8.56697C45.2065 8.78725 45.6208 9.11765 45.9145 9.5582C46.2187 9.99874 46.3708 10.5389 46.3708 11.1788C46.3708 12.1228 45.9984 12.8623 45.2537 13.3972C44.509 13.9217 43.4129 14.1839 41.9654 14.1839H36.2698ZM38.8029 12.2644H41.7766C42.4374 12.2644 42.9356 12.1595 43.2713 11.9497C43.6174 11.7294 43.7905 11.3833 43.7905 10.9113C43.7905 10.4498 43.6174 10.1089 43.2713 9.8886C42.9356 9.65784 42.4374 9.54246 41.7766 9.54246H38.6141V7.68589H41.336C41.9549 7.68589 42.4269 7.581 42.752 7.37121C43.0877 7.15094 43.2555 6.82054 43.2555 6.37999C43.2555 5.94994 43.0877 5.63002 42.752 5.42024C42.4269 5.19997 41.9549 5.08983 41.336 5.08983H38.8029V12.2644ZM53.3195 14.1839V12.5319L53.1622 12.17V9.21205C53.1622 8.6876 52.9996 8.27852 52.6745 7.98483C52.3598 7.69113 51.872 7.54428 51.2112 7.54428C50.7602 7.54428 50.3144 7.61771 49.8739 7.76456C49.4438 7.90091 49.0767 8.08972 48.7725 8.33097L47.8914 6.616C48.3529 6.29083 48.9089 6.0391 49.5592 5.86078C50.2095 5.68247 50.8703 5.59331 51.5416 5.59331C52.8318 5.59331 53.8335 5.89749 54.5468 6.50586C55.26 7.11423 55.6167 8.0635 55.6167 9.35366V14.1839H53.3195ZM50.7392 14.3098C50.0784 14.3098 49.512 14.1996 49.04 13.9794C48.568 13.7486 48.2061 13.4392 47.9544 13.0511C47.7026 12.663 47.5767 12.2277 47.5767 11.7452C47.5767 11.2417 47.6974 10.8012 47.9386 10.4235C48.1904 10.0459 48.5837 9.75224 49.1187 9.54246C49.6536 9.32219 50.3511 9.21205 51.2112 9.21205H53.4611V10.6438H51.4787C50.9018 10.6438 50.5032 10.7382 50.2829 10.927C50.0732 11.1158 49.9683 11.3518 49.9683 11.635C49.9683 11.9497 50.0889 12.2015 50.3301 12.3903C50.5819 12.5686 50.9228 12.6577 51.3528 12.6577C51.7619 12.6577 52.129 12.5633 52.4542 12.3745C52.7794 12.1752 53.0154 11.8868 53.1622 11.5092L53.5398 12.642C53.3615 13.1874 53.0363 13.6018 52.5643 13.885C52.0923 14.1682 51.4839 14.3098 50.7392 14.3098ZM62.983 5.59331C63.6543 5.59331 64.2522 5.72967 64.7766 6.00238C65.3116 6.26461 65.7311 6.67369 66.0353 7.22961C66.3395 7.77505 66.4916 8.47782 66.4916 9.33792V14.1839H64.0371V9.71553C64.0371 9.03374 63.885 8.53026 63.5809 8.2051C63.2872 7.87994 62.8676 7.71736 62.3222 7.71736C61.9341 7.71736 61.5827 7.80127 61.268 7.96909C60.9638 8.12643 60.7226 8.37293 60.5443 8.70858C60.3764 9.04423 60.2925 9.47428 60.2925 9.99874V14.1839H57.8381V5.71918H60.1824V8.0635L59.7418 7.35548C60.046 6.78907 60.4813 6.35377 61.0477 6.04958C61.6141 5.7454 62.2592 5.59331 62.983 5.59331ZM70.7461 12.4532L70.809 9.46379L74.7582 5.71918H77.6846L73.8928 9.57393L72.6184 10.6124L70.7461 12.4532ZM68.7164 14.1839V2.50951H71.1709V14.1839H68.7164ZM75.0256 14.1839L72.1621 10.6281L73.704 8.72431L77.9993 14.1839H75.0256ZM36.2698 32.1839V21.1703H41.0371C42.023 21.1703 42.8727 21.3329 43.5859 21.6581C44.2992 21.9727 44.8499 22.429 45.238 23.0269C45.6261 23.6248 45.8201 24.338 45.8201 25.1667C45.8201 25.9848 45.6261 26.6928 45.238 27.2907C44.8499 27.8886 44.2992 28.3501 43.5859 28.6753C42.8727 28.99 42.023 29.1473 41.0371 29.1473H37.6858L38.8186 27.9987V32.1839H36.2698ZM38.8186 28.2819L37.6858 27.0705H40.8955C41.6821 27.0705 42.2695 26.9026 42.6576 26.567C43.0457 26.2313 43.2398 25.7646 43.2398 25.1667C43.2398 24.5583 43.0457 24.0863 42.6576 23.7506C42.2695 23.415 41.6821 23.2472 40.8955 23.2472H37.6858L38.8186 22.0357V28.2819ZM52.582 32.1839V30.5319L52.4247 30.17V27.2121C52.4247 26.6876 52.2621 26.2785 51.9369 25.9848C51.6223 25.6911 51.1345 25.5443 50.4737 25.5443C50.0227 25.5443 49.5769 25.6177 49.1364 25.7646C48.7063 25.9009 48.3392 26.0897 48.035 26.331L47.1539 24.616C47.6154 24.2908 48.1714 24.0391 48.8217 23.8608C49.472 23.6825 50.1328 23.5933 50.8041 23.5933C52.0943 23.5933 53.096 23.8975 53.8093 24.5059C54.5225 25.1142 54.8791 26.0635 54.8791 27.3537V32.1839H52.582ZM50.0017 32.3098C49.3409 32.3098 48.7745 32.1996 48.3025 31.9794C47.8305 31.7486 47.4686 31.4392 47.2168 31.0511C46.9651 30.663 46.8392 30.2277 46.8392 29.7452C46.8392 29.2417 46.9599 28.8012 47.2011 28.4235C47.4528 28.0459 47.8462 27.7522 48.3811 27.5425C48.9161 27.3222 49.6136 27.2121 50.4737 27.2121H52.7236V28.6438H50.7412C50.1643 28.6438 49.7657 28.7382 49.5454 28.927C49.3356 29.1158 49.2308 29.3518 49.2308 29.635C49.2308 29.9497 49.3514 30.2015 49.5926 30.3903C49.8444 30.5686 50.1853 30.6577 50.6153 30.6577C51.0244 30.6577 51.3915 30.5633 51.7167 30.3745C52.0418 30.1752 52.2778 29.8868 52.4247 29.5092L52.8023 30.642C52.624 31.1874 52.2988 31.6018 51.8268 31.885C51.3548 32.1682 50.7464 32.3098 50.0017 32.3098ZM58.0168 35.3621C57.5762 35.3621 57.1409 35.2939 56.7109 35.1576C56.2808 35.0212 55.9295 34.8324 55.6567 34.5912L56.5536 32.8447C56.7424 33.0125 56.9574 33.1437 57.1986 33.2381C57.4504 33.3325 57.6969 33.3797 57.9381 33.3797C58.2843 33.3797 58.557 33.2957 58.7563 33.1279C58.9661 32.9706 59.1549 32.7031 59.3227 32.3255L59.7632 31.2871L59.952 31.0196L62.9886 23.7192H65.3487L61.5254 32.7031C61.2527 33.3849 60.938 33.9198 60.5814 34.3079C60.2352 34.696 59.8471 34.9688 59.4171 35.1261C58.9975 35.2834 58.5308 35.3621 58.0168 35.3621ZM59.4643 32.5143L55.6882 23.7192H58.2213L61.1478 30.7993L59.4643 32.5143ZM77.1907 23.5933C77.862 23.5933 78.4547 23.7297 78.9686 24.0024C79.4931 24.2646 79.9022 24.6737 80.1959 25.2296C80.5001 25.775 80.6521 26.4778 80.6521 27.3379V32.1839H78.1977V27.7155C78.1977 27.0337 78.0561 26.5303 77.7729 26.2051C77.4897 25.8799 77.0911 25.7174 76.5771 25.7174C76.2205 25.7174 75.9006 25.8013 75.6174 25.9691C75.3342 26.1264 75.1139 26.3677 74.9566 26.6928C74.7992 27.018 74.7205 27.4323 74.7205 27.9358V32.1839H72.2661V27.7155C72.2661 27.0337 72.1245 26.5303 71.8413 26.2051C71.5686 25.8799 71.1752 25.7174 70.6613 25.7174C70.3046 25.7174 69.9847 25.8013 69.7015 25.9691C69.4183 26.1264 69.198 26.3677 69.0407 26.6928C68.8834 27.018 68.8047 27.4323 68.8047 27.9358V32.1839H66.3502V23.7192H68.6945V26.032L68.254 25.3555C68.5477 24.7786 68.962 24.3433 69.497 24.0496C70.0424 23.7454 70.6613 23.5933 71.3535 23.5933C72.1297 23.5933 72.8063 23.7926 73.3832 24.1912C73.9706 24.5793 74.3587 25.1772 74.5475 25.9848L73.6821 25.7488C73.9653 25.088 74.4164 24.5636 75.0352 24.1755C75.6646 23.7874 76.3831 23.5933 77.1907 23.5933ZM87.1145 32.3098C86.1495 32.3098 85.2999 32.121 84.5657 31.7434C83.8419 31.3657 83.2807 30.8518 82.8822 30.2015C82.4836 29.5406 82.2843 28.7907 82.2843 27.9515C82.2843 27.1019 82.4783 26.3519 82.8664 25.7016C83.265 25.0408 83.8052 24.5268 84.487 24.1597C85.1688 23.7821 85.9397 23.5933 86.7998 23.5933C87.6285 23.5933 88.3732 23.7716 89.034 24.1283C89.7053 24.4744 90.235 24.9779 90.6231 25.6387C91.0112 26.289 91.2053 27.0705 91.2053 27.983C91.2053 28.0774 91.2 28.1875 91.1895 28.3134C91.179 28.4288 91.1686 28.5389 91.1581 28.6438H84.2824V27.2121H89.8679L88.9239 27.6369C88.9239 27.1963 88.8347 26.8135 88.6564 26.4883C88.4781 26.1631 88.2316 25.9114 87.9169 25.7331C87.6023 25.5443 87.2351 25.4499 86.8156 25.4499C86.396 25.4499 86.0236 25.5443 85.6985 25.7331C85.3838 25.9114 85.1373 26.1684 84.959 26.504C84.7807 26.8292 84.6915 27.2173 84.6915 27.6683V28.0459C84.6915 28.5075 84.7912 28.9165 84.9905 29.2732C85.2002 29.6193 85.4887 29.8868 85.8558 30.0756C86.2334 30.2539 86.674 30.3431 87.1774 30.3431C87.6285 30.3431 88.0218 30.2749 88.3575 30.1385C88.7036 30.0022 89.0183 29.7976 89.3015 29.5249L90.6074 30.9409C90.2193 31.3815 89.7315 31.7224 89.1442 31.9636C88.5568 32.1944 87.8802 32.3098 87.1145 32.3098ZM97.9843 23.5933C98.6556 23.5933 99.2535 23.7297 99.7779 24.0024C100.313 24.2646 100.732 24.6737 101.037 25.2296C101.341 25.775 101.493 26.4778 101.493 27.3379V32.1839H99.0384V27.7155C99.0384 27.0337 98.8863 26.5303 98.5822 26.2051C98.2885 25.8799 97.8689 25.7174 97.3235 25.7174C96.9354 25.7174 96.584 25.8013 96.2693 25.9691C95.9651 26.1264 95.7239 26.3729 95.5456 26.7086C95.3777 27.0442 95.2938 27.4743 95.2938 27.9987V32.1839H92.8394V23.7192H95.1837V26.0635L94.7431 25.3555C95.0473 24.7891 95.4826 24.3538 96.049 24.0496C96.6154 23.7454 97.2605 23.5933 97.9843 23.5933ZM107.179 32.3098C106.183 32.3098 105.406 32.058 104.851 31.5546C104.295 31.0406 104.017 30.2801 104.017 29.2732V21.8469H106.471V29.2417C106.471 29.5983 106.566 29.8763 106.754 30.0756C106.943 30.2644 107.2 30.3588 107.525 30.3588C107.913 30.3588 108.244 30.2539 108.516 30.0441L109.177 31.7748C108.926 31.9531 108.621 32.0895 108.265 32.1839C107.919 32.2678 107.557 32.3098 107.179 32.3098ZM102.711 25.796V23.908H108.579V25.796H102.711Z" fill="#004A80"/>
<path d="M15.7581 5.38318C14.2451 5.38318 13.0146 6.61366 13.0146 8.12667C13.0146 9.63967 14.2451 10.8701 15.7581 10.8701C17.2711 10.8701 18.5015 9.63961 18.5015 8.12667C18.5015 6.61373 17.2711 5.38318 15.7581 5.38318ZM15.7581 9.49905C15.0016 9.49905 14.3857 8.88317 14.3857 8.12667C14.3857 7.37016 15.0016 6.75428 15.7581 6.75428C16.5146 6.75428 17.1305 7.37016 17.1305 8.12667C17.1305 8.88317 16.5146 9.49905 15.7581 9.49905Z" fill="#004A80"/>
<path d="M30.1587 13.611C30.5377 13.611 30.2183 13.611 30.8443 13.611V10.1856C30.8443 9.9439 30.7171 9.71967 30.5089 9.59647L17.0989 1.63272C17.0929 1.62867 17.0868 1.62533 17.0809 1.62199C16.2474 1.16009 15.3074 1.14608 14.4258 1.63137L1.01657 9.59647C0.808339 9.71961 0.681152 9.9439 0.681152 10.1856V13.611C1.21873 13.611 0.987775 13.611 1.3667 13.611H3.42327V25.9511C1.91092 25.9511 0.681152 27.1807 0.681152 28.6929V31.4347C1.3667 31.4348 0.987775 31.4348 1.3667 31.4348H30.1587C30.5377 31.4348 30.8442 31.4347 30.8442 31.4347L30.8443 28.6929C30.8443 27.1807 29.6145 25.9511 28.1022 25.9511V13.611H30.1587ZM29.4732 28.6926V30.0637H2.05218V28.6926C2.05218 27.9368 2.66742 27.3216 3.42321 27.3216H4.10876H27.4166H28.1022C28.858 27.3215 29.4732 27.9368 29.4732 28.6926ZM4.7943 25.9505V13.611H7.53642V25.9505H4.7943ZM8.90745 25.9505V13.611H13.0206V25.9505H8.90745ZM14.3916 25.9505V13.611H17.1338V25.9505H14.3916ZM18.5048 25.9505V13.611H22.6179V25.9505H18.5048ZM23.989 25.9505V13.611H26.7311V25.9505H23.989ZM2.05218 12.24V10.5737L15.106 2.8186C15.5331 2.58364 15.987 2.58428 16.4087 2.81391L29.4732 10.5737V12.24H2.05218Z" fill="#004A80"/>
</svg>
