<svg width="76" height="20" viewBox="0 0 76 20" fill="none" xmlns="http://www.w3.org/2000/svg">
<path d="M11.0609 5.72958C10.8784 6.88733 9.98341 7.74008 8.27047 7.74008H6.08143L6.74547 3.52958H8.89613C10.6666 3.52958 11.243 4.57418 11.0609 5.72958ZM8.58683 11.2658C11.7277 11.2658 14.3936 8.97418 14.8806 5.86897C15.3716 2.73752 12.9254 0.00660515 9.45798 -4.95911e-05H3.87165C3.65631 -4.95911e-05 3.47307 0.156561 3.4394 0.369553L0.946538 16.1795C0.907385 16.425 1.09728 16.647 1.3459 16.647H4.30272C4.51767 16.647 4.7009 16.4904 4.73458 16.2778L5.46713 11.635C5.50041 11.4224 5.68364 11.2658 5.89898 11.2658H8.58683Z" fill="#003087"/>
<path d="M23.5665 10.9668C23.3214 12.5196 22.0482 13.6633 20.4151 13.6633C20.0933 13.6633 19.7981 13.619 19.5334 13.5341C18.3228 13.1453 17.6317 11.9821 17.8306 10.7209C18.0757 9.16814 19.3529 8.02449 20.986 8.02449C21.3082 8.02449 21.6034 8.06873 21.8677 8.15369C23.0787 8.54248 23.7654 9.70571 23.5665 10.9668ZM27.6905 4.98309H24.884C24.6687 4.98309 24.4854 5.1397 24.4522 5.3523L24.3602 5.9349C24.3602 5.9349 22.1813 3.5548 18.3243 5.16163C16.1122 6.08368 15.0496 7.98964 14.5986 9.37918C14.5986 9.37918 13.1632 13.6179 16.4074 15.9467C16.4074 15.9467 19.4159 18.1882 22.803 15.8081L22.7447 16.1796C22.7059 16.4251 22.8954 16.6471 23.1441 16.6471H25.9505C26.1659 16.6471 26.3491 16.4905 26.3828 16.2779L28.0902 5.45058C28.129 5.20509 27.9391 4.98309 27.6905 4.98309Z" fill="#003087"/>
<path d="M51.4788 5.72958C51.2963 6.88733 50.4017 7.74008 48.6884 7.74008H46.4993L47.1633 3.52958H49.314C51.0845 3.52958 51.6608 4.57418 51.4788 5.72958ZM49.0047 11.2658C52.1456 11.2658 54.8115 8.97418 55.2981 5.86897C55.7895 2.73752 53.3432 0.00660515 49.8759 -4.95911e-05H44.2895C44.0742 -4.95911e-05 43.891 0.156561 43.8573 0.369553L41.3644 16.1795C41.3257 16.425 41.5152 16.647 41.7638 16.647H44.7206C44.9356 16.647 45.1188 16.4904 45.1525 16.2778L45.885 11.635C45.9183 11.4224 46.1015 11.2658 46.3169 11.2658H49.0047Z" fill="#0070E0"/>
<path d="M63.9845 10.9668C63.7394 12.5196 62.4661 13.6633 60.8331 13.6633C60.5112 13.6633 60.216 13.619 59.9514 13.5341C58.7408 13.1453 58.0497 11.9821 58.2486 10.7209C58.4937 9.16814 59.7709 8.02449 61.4039 8.02449C61.7262 8.02449 62.0214 8.06873 62.2857 8.15369C63.4966 8.54248 64.1834 9.70571 63.9845 10.9668ZM68.1085 4.98309H65.302C65.0866 4.98309 64.9034 5.1397 64.8701 5.3523L64.7781 5.9349C64.7781 5.9349 62.5993 3.5548 58.7423 5.16163C56.5302 6.08368 55.4676 7.98964 55.0165 9.37918C55.0165 9.37918 53.5812 13.6179 56.8254 15.9467C56.8254 15.9467 59.8339 18.1882 63.221 15.8081L63.1627 16.1796C63.1239 16.4251 63.3138 16.6471 63.5624 16.6471H66.3685C66.5839 16.6471 66.7671 16.4905 66.8008 16.2779L68.5082 5.45058C68.547 5.20509 68.3571 4.98309 68.1085 4.98309Z" fill="#0070E0"/>
<path d="M37.9926 5.25108L34.6098 10.9623L32.8925 5.29336C32.8365 5.10895 32.6666 4.98288 32.474 4.98288H29.4208C29.1984 4.98288 29.0407 5.19979 29.1088 5.4116L32.1854 14.9602L29.4032 19.4604C29.2681 19.6789 29.4251 19.9608 29.682 19.9608H32.9704C33.1615 19.9608 33.3393 19.861 33.4379 19.6973L42.0316 5.48051C42.1635 5.26204 42.0061 4.98288 41.7509 4.98288H38.4628C38.2698 4.98288 38.0908 5.08507 37.9926 5.25108Z" fill="#003087"/>
<path d="M71.2659 0.369404L68.7726 16.1793C68.7339 16.4248 68.9237 16.6472 69.1724 16.6472H72.1288C72.3437 16.6472 72.527 16.4906 72.5607 16.278L75.0539 0.467678C75.0927 0.222189 74.9028 0.000192642 74.6545 0.000192642H71.6977C71.4828 0.000192642 71.2995 0.156805 71.2659 0.369404Z" fill="#0070E0"/>
</svg>
