<svg width="96" height="28" viewBox="0 0 96 28" fill="none" xmlns="http://www.w3.org/2000/svg">
<path d="M14.7569 3.81699C13.3524 3.81699 12.2102 4.95921 12.2102 6.36371C12.2102 7.76819 13.3524 8.91037 14.7569 8.91037C16.1613 8.91037 17.3035 7.76813 17.3035 6.36371C17.3035 4.95927 16.1613 3.81699 14.7569 3.81699ZM14.7569 7.63767C14.0546 7.63767 13.4829 7.06595 13.4829 6.36371C13.4829 5.66147 14.0546 5.08975 14.7569 5.08975C15.4591 5.08975 16.0309 5.66147 16.0309 6.36371C16.0309 7.06595 15.4591 7.63767 14.7569 7.63767Z" fill="#004A80"/>
<path d="M28.1232 11.4545C28.475 11.4545 28.1784 11.4545 28.7596 11.4545V8.27474C28.7596 8.05044 28.6416 7.84228 28.4482 7.72792L16 0.335337C15.9944 0.331577 15.9888 0.328457 15.9832 0.325357C15.2094 -0.103403 14.337 -0.116403 13.5186 0.334077L1.071 7.72792C0.877703 7.84222 0.759644 8.05044 0.759644 8.27474V11.4545C1.25866 11.4545 1.04428 11.4545 1.39602 11.4545H3.30512V22.9096C1.90122 22.9096 0.759644 24.051 0.759644 25.4548V28C1.39602 28 1.04428 28 1.39602 28H28.1232C28.475 28 28.7596 28 28.7596 28V25.4548C28.7596 24.051 27.618 22.9096 26.2142 22.9096V11.4545H28.1232ZM27.4868 25.4546V26.7272H2.03234V25.4546C2.03234 24.753 2.60346 24.1818 3.30506 24.1818H3.94144H25.5778H26.2142C26.9158 24.1818 27.4868 24.7528 27.4868 25.4546ZM4.57782 22.909V11.4545H7.12328V22.909H4.57782ZM8.396 22.909V11.4545H12.2142V22.909H8.396ZM13.4869 22.909V11.4545H16.0324V22.909H13.4869ZM17.305 22.909V11.4545H21.1232V22.909H17.305ZM22.396 22.909V11.4545H24.9414V22.909H22.396ZM2.03234 10.1818V8.63502L14.15 1.43616C14.5465 1.21804 14.9678 1.21864 15.3592 1.4318L27.4868 8.63502V10.1818H2.03234Z" fill="#004A80"/>
<path d="M37.9234 11.0001V1.2001H42.1654C43.0428 1.2001 43.7989 1.34476 44.4335 1.6341C45.0681 1.9141 45.558 2.3201 45.9034 2.8521C46.2488 3.3841 46.4214 4.01876 46.4214 4.7561C46.4214 5.4841 46.2488 6.1141 45.9034 6.6461C45.558 7.1781 45.0681 7.58876 44.4335 7.8781C43.7989 8.1581 43.0428 8.2981 42.1654 8.2981H39.1834L40.1914 7.2761V11.0001H37.9234ZM40.1914 7.5281L39.1834 6.4501H42.0394C42.7394 6.4501 43.262 6.30076 43.6075 6.0021C43.9529 5.70344 44.1254 5.2881 44.1254 4.7561C44.1254 4.21476 43.9529 3.79476 43.6075 3.4961C43.262 3.19744 42.7394 3.0481 42.0394 3.0481H39.1834L40.1914 1.9701V7.5281ZM47.873 11.0001V3.4681H49.9591V5.5961L49.665 4.9801C49.889 4.4481 50.2483 4.04676 50.7431 3.7761C51.2377 3.4961 51.8397 3.3561 52.5491 3.3561V5.3721C52.4557 5.36276 52.3717 5.3581 52.2971 5.3581C52.2223 5.34876 52.1431 5.3441 52.0591 5.3441C51.4617 5.3441 50.9762 5.51676 50.603 5.8621C50.239 6.1981 50.0571 6.72544 50.0571 7.4441V11.0001H47.873ZM53.3843 11.0001V9.6841L57.8363 4.4201L58.2143 5.1481H53.4823V3.4681H59.9783V4.7841L55.5263 10.0481L55.1343 9.3201H60.1042V11.0001H53.3843ZM65.1461 11.1121C64.2875 11.1121 63.5315 10.9441 62.8781 10.6081C62.2341 10.2721 61.7349 9.81476 61.3801 9.2361C61.0255 8.6481 60.8481 7.98076 60.8481 7.2341C60.8481 6.4781 61.0209 5.81076 61.3661 5.2321C61.7209 4.6441 62.2015 4.18676 62.8081 3.8601C63.4149 3.5241 64.1009 3.3561 64.8661 3.3561C65.6035 3.3561 66.2661 3.51476 66.8541 3.8321C67.4515 4.1401 67.9229 4.5881 68.2681 5.1761C68.6135 5.75476 68.7861 6.4501 68.7861 7.2621C68.7861 7.3461 68.7815 7.4441 68.7721 7.5561C68.7629 7.65876 68.7535 7.75676 68.7441 7.8501H62.6261V6.5761H67.5961L66.7561 6.9541C66.7561 6.5621 66.6769 6.22144 66.5181 5.9321C66.3595 5.64276 66.1401 5.41876 65.8601 5.2601C65.5801 5.0921 65.2535 5.0081 64.8801 5.0081C64.5069 5.0081 64.1755 5.0921 63.8861 5.2601C63.6061 5.41876 63.3869 5.64744 63.2281 5.9461C63.0695 6.23544 62.9901 6.58076 62.9901 6.9821V7.3181C62.9901 7.72876 63.0789 8.09276 63.2561 8.4101C63.4429 8.7181 63.6995 8.9561 64.0261 9.1241C64.3621 9.28276 64.7541 9.3621 65.2021 9.3621C65.6035 9.3621 65.9535 9.30144 66.2521 9.1801C66.5601 9.05876 66.8401 8.87676 67.0921 8.6341L68.2541 9.8941C67.9089 10.2861 67.4749 10.5894 66.9521 10.8041C66.4295 11.0094 65.8275 11.1121 65.1461 11.1121ZM70.2403 11.0001V0.612099H72.4243V11.0001H70.2403ZM78.1891 11.1121C77.3305 11.1121 76.5745 10.9441 75.9211 10.6081C75.2771 10.2721 74.7779 9.81476 74.4231 9.2361C74.0685 8.6481 73.8911 7.98076 73.8911 7.2341C73.8911 6.4781 74.0639 5.81076 74.4091 5.2321C74.7639 4.6441 75.2445 4.18676 75.8511 3.8601C76.4579 3.5241 77.1439 3.3561 77.9091 3.3561C78.6465 3.3561 79.3091 3.51476 79.8971 3.8321C80.4945 4.1401 80.9659 4.5881 81.3111 5.1761C81.6565 5.75476 81.8291 6.4501 81.8291 7.2621C81.8291 7.3461 81.8245 7.4441 81.8151 7.5561C81.8059 7.65876 81.7965 7.75676 81.7871 7.8501H75.6691V6.5761H80.6391L79.7991 6.9541C79.7991 6.5621 79.7199 6.22144 79.5611 5.9321C79.4025 5.64276 79.1831 5.41876 78.9031 5.2601C78.6231 5.0921 78.2965 5.0081 77.9231 5.0081C77.5499 5.0081 77.2185 5.0921 76.9291 5.2601C76.6491 5.41876 76.4299 5.64744 76.2711 5.9461C76.1125 6.23544 76.0331 6.58076 76.0331 6.9821V7.3181C76.0331 7.72876 76.1219 8.09276 76.2991 8.4101C76.4859 8.7181 76.7425 8.9561 77.0691 9.1241C77.4051 9.28276 77.7971 9.3621 78.2451 9.3621C78.6465 9.3621 78.9965 9.30144 79.2951 9.1801C79.6031 9.05876 79.8831 8.87676 80.1351 8.6341L81.2971 9.8941C80.9519 10.2861 80.5179 10.5894 79.9951 10.8041C79.4725 11.0094 78.8705 11.1121 78.1891 11.1121ZM84.8685 11.0001L82.1525 3.4681H84.2105L86.4645 9.9501H85.4845L87.8365 3.4681H89.6845L91.9665 9.9501H90.9865L93.3105 3.4681H95.2425L92.5125 11.0001H90.3985L88.3965 5.4421H89.0405L86.9685 11.0001H84.8685ZM42.6835 27.1681C41.9088 27.1681 41.19 27.0421 40.5274 26.7901C39.874 26.5381 39.3048 26.1835 38.8194 25.7261C38.3434 25.2687 37.97 24.7321 37.6994 24.1161C37.438 23.5001 37.3074 22.8281 37.3074 22.1001C37.3074 21.3721 37.438 20.7001 37.6994 20.0841C37.97 19.4681 38.348 18.9315 38.8334 18.4741C39.3188 18.0167 39.888 17.6621 40.5414 17.4101C41.1948 17.1581 41.904 17.0321 42.6695 17.0321C43.4441 17.0321 44.1534 17.1581 44.7974 17.4101C45.4508 17.6621 46.0154 18.0167 46.4914 18.4741C46.9768 18.9315 47.3548 19.4681 47.6254 20.0841C47.896 20.6907 48.0315 21.3627 48.0315 22.1001C48.0315 22.8281 47.896 23.5047 47.6254 24.1301C47.3548 24.7461 46.9768 25.2827 46.4914 25.7401C46.0154 26.1881 45.4508 26.5381 44.7974 26.7901C44.1534 27.0421 43.4489 27.1681 42.6835 27.1681ZM42.6695 25.2361C43.1081 25.2361 43.5094 25.1615 43.8734 25.0121C44.2468 24.8627 44.5734 24.6481 44.8534 24.3681C45.1334 24.0881 45.348 23.7567 45.4974 23.3741C45.656 22.9915 45.7354 22.5667 45.7354 22.1001C45.7354 21.6335 45.656 21.2087 45.4974 20.8261C45.348 20.4435 45.1334 20.1121 44.8534 19.8321C44.5828 19.5521 44.2608 19.3375 43.8874 19.1881C43.514 19.0387 43.1081 18.9641 42.6695 18.9641C42.2309 18.9641 41.8248 19.0387 41.4514 19.1881C41.0874 19.3375 40.7654 19.5521 40.4854 19.8321C40.2054 20.1121 39.9861 20.4435 39.8275 20.8261C39.6781 21.2087 39.6034 21.6335 39.6034 22.1001C39.6034 22.5575 39.6781 22.9821 39.8275 23.3741C39.9861 23.7567 40.2008 24.0881 40.4714 24.3681C40.7514 24.6481 41.078 24.8627 41.4514 25.0121C41.8248 25.1615 42.2309 25.2361 42.6695 25.2361ZM54.1601 19.3561C54.7573 19.3561 55.2893 19.4775 55.7561 19.7201C56.2321 19.9535 56.6053 20.3175 56.8761 20.8121C57.1467 21.2975 57.2821 21.9227 57.2821 22.6881V27.0001H55.0981V23.0241C55.0981 22.4175 54.9627 21.9695 54.6921 21.6801C54.4307 21.3907 54.0573 21.2461 53.5721 21.2461C53.2267 21.2461 52.9141 21.3207 52.6341 21.4701C52.3633 21.6101 52.1487 21.8295 51.9901 22.1281C51.8407 22.4267 51.7661 22.8095 51.7661 23.2761V27.0001H49.582V19.4681H51.6681V21.5541L51.2761 20.9241C51.5467 20.4201 51.9341 20.0327 52.4381 19.7621C52.9421 19.4915 53.5161 19.3561 54.1601 19.3561ZM59.2617 27.0001V16.6121H61.4457V27.0001H59.2617ZM63.4727 27.0001V19.4681H65.6567V27.0001H63.4727ZM64.5647 18.4181C64.1633 18.4181 63.8367 18.3015 63.5847 18.0681C63.3327 17.8347 63.2067 17.5455 63.2067 17.2001C63.2067 16.8547 63.3327 16.5655 63.5847 16.3321C63.8367 16.0987 64.1633 15.9821 64.5647 15.9821C64.9659 15.9821 65.2927 16.0941 65.5447 16.3181C65.7967 16.5327 65.9227 16.8127 65.9227 17.1581C65.9227 17.5221 65.7967 17.8255 65.5447 18.0681C65.3019 18.3015 64.9753 18.4181 64.5647 18.4181ZM72.2615 19.3561C72.8589 19.3561 73.3909 19.4775 73.8575 19.7201C74.3335 19.9535 74.7069 20.3175 74.9775 20.8121C75.2483 21.2975 75.3835 21.9227 75.3835 22.6881V27.0001H73.1995V23.0241C73.1995 22.4175 73.0643 21.9695 72.7935 21.6801C72.5323 21.3907 72.1589 21.2461 71.6735 21.2461C71.3283 21.2461 71.0155 21.3207 70.7355 21.4701C70.4649 21.6101 70.2503 21.8295 70.0915 22.1281C69.9423 22.4267 69.8675 22.8095 69.8675 23.2761V27.0001H67.6835V19.4681H69.7695V21.5541L69.3775 20.9241C69.6483 20.4201 70.0355 20.0327 70.5395 19.7621C71.0435 19.4915 71.6175 19.3561 72.2615 19.3561ZM81.1559 27.1121C80.2973 27.1121 79.5413 26.9441 78.8879 26.6081C78.2439 26.2721 77.7447 25.8147 77.3899 25.2361C77.0353 24.6481 76.8579 23.9807 76.8579 23.2341C76.8579 22.4781 77.0307 21.8107 77.3759 21.2321C77.7307 20.6441 78.2113 20.1867 78.8179 19.8601C79.4247 19.5241 80.1107 19.3561 80.8759 19.3561C81.6133 19.3561 82.2759 19.5147 82.8639 19.8321C83.4613 20.1401 83.9327 20.5881 84.2779 21.1761C84.6233 21.7547 84.7959 22.4501 84.7959 23.2621C84.7959 23.3461 84.7913 23.4441 84.7819 23.5561C84.7727 23.6587 84.7633 23.7567 84.7539 23.8501H78.6359V22.5761H83.6059L82.7659 22.9541C82.7659 22.5621 82.6867 22.2215 82.5279 21.9321C82.3693 21.6427 82.1499 21.4187 81.8699 21.2601C81.5899 21.0921 81.2633 21.0081 80.8899 21.0081C80.5167 21.0081 80.1853 21.0921 79.8959 21.2601C79.6159 21.4187 79.3967 21.6475 79.2379 21.9461C79.0793 22.2355 78.9999 22.5807 78.9999 22.9821V23.3181C78.9999 23.7287 79.0887 24.0927 79.2659 24.4101C79.4527 24.7181 79.7093 24.9561 80.0359 25.1241C80.3719 25.2827 80.7639 25.3621 81.2119 25.3621C81.6133 25.3621 81.9633 25.3015 82.2619 25.1801C82.5699 25.0587 82.8499 24.8767 83.1019 24.6341L84.2639 25.8941C83.9187 26.2861 83.4847 26.5895 82.9619 26.8041C82.4393 27.0095 81.8373 27.1121 81.1559 27.1121Z" fill="#004A80"/>
</svg>
