<svg width="112" height="28" viewBox="0 0 112 28" fill="none" xmlns="http://www.w3.org/2000/svg">
<g clip-path="url(#clip0_5739_6040)">
<path d="M1.8999 18.8293C4.43273 21.3619 8.53857 21.3619 11.0714 18.8293L11.3142 18.5866C12.5799 17.321 10.047 10.6816 11.3142 9.41602L1.8999 18.8293Z" fill="url(#paint0_linear_5739_6040)"/>
<path d="M11.5583 9.17206L11.3156 9.41479C10.0499 10.6804 12.5813 17.3198 11.3156 18.5854L20.7298 9.17206C19.4627 7.90648 17.8041 7.27368 16.1441 7.27368C14.4841 7.27228 12.824 7.90648 11.5583 9.17206Z" fill="url(#paint1_linear_5739_6040)"/>
<path d="M1.90011 9.65885C-0.632718 12.1914 -0.632718 16.2969 1.90011 18.8294L11.5599 9.17058C14.0927 6.638 14.0927 2.53257 11.5599 0L1.90011 9.65885Z" fill="url(#paint2_linear_5739_6040)"/>
<path d="M11.0715 18.8295C8.53867 21.3621 8.53867 25.4675 11.0715 28.0001L20.7313 18.3412C23.2641 15.8087 23.2641 11.7032 20.7313 9.17065L11.0715 18.8295Z" fill="url(#paint3_linear_5739_6040)"/>
<path d="M58.3097 14.0505C58.1147 13.3826 57.8242 12.7442 57.4439 12.1563C56.7942 11.1503 55.892 10.3113 54.8311 9.73041C53.1571 8.817 51.1575 8.60233 49.3178 9.13831C47.46 9.6799 45.9262 10.9146 44.9973 12.6166C44.074 14.3101 43.8607 16.2604 44.3981 18.1125L44.4037 18.1307C44.5272 18.5432 44.7251 19.0708 44.7293 19.0792C45.3453 20.5216 46.3781 21.623 47.8837 22.4452C48.9474 23.0275 50.1443 23.3347 51.3455 23.3347C52.0359 23.3347 52.7249 23.2351 53.3942 23.0373C54.8101 22.6234 56.0449 21.8068 56.9781 20.6591L57.037 20.5861C57.2755 20.2858 57.4902 19.9645 57.6769 19.6292C58.0094 19.0357 57.7961 18.2822 57.2026 17.9497C57.0187 17.8473 56.8111 17.7925 56.6006 17.7925C56.153 17.7925 55.7404 18.0339 55.5229 18.4239C55.2184 18.9683 54.8143 19.4426 54.3231 19.8298C54.281 19.8635 54.2404 19.9 54.2193 19.9252C53.7675 20.262 53.2567 20.5145 52.7038 20.6773C51.4942 21.0323 50.1752 20.8906 49.0624 20.2844C48.3286 19.8846 47.7153 19.291 47.2789 18.5642L57.4762 15.5743C58.1259 15.3834 58.4992 14.7001 58.3097 14.0505ZM51.3651 11.2991C52.1538 11.2991 52.9438 11.5025 53.651 11.887C54.3484 12.2672 54.9462 12.8214 55.3784 13.4879C55.4022 13.5258 55.4275 13.565 55.4513 13.6043L46.5731 16.2085C46.5507 15.3708 46.7527 14.5374 47.1597 13.7923C47.7715 12.6713 48.7832 11.8561 50.0096 11.4955C50.4559 11.365 50.9119 11.2991 51.3651 11.2991Z" fill="#382757"/>
<path d="M71.3975 20.9917H64.6508L72.1959 9.9101C72.339 9.70104 72.3531 9.43164 72.2352 9.20715C72.1173 8.98266 71.8858 8.84375 71.6318 8.84375H62.0393C61.4023 8.84375 60.8845 9.36149 60.8845 9.99849C60.8845 10.6355 61.4023 11.1532 62.0393 11.1532H68.4675L60.9252 22.2348C60.7821 22.4453 60.768 22.7147 60.8859 22.9378C61.0038 23.1623 61.2353 23.2998 61.4893 23.2998H71.3961C72.0331 23.2998 72.5509 22.782 72.5509 22.145C72.5523 21.5108 72.0345 20.9917 71.3975 20.9917Z" fill="#382757"/>
<path d="M86.3446 20.9917H79.5993L87.143 9.91016C87.2861 9.7011 87.3002 9.43171 87.1823 9.20721C87.0644 8.98412 86.8329 8.84521 86.5789 8.84521H76.9879C76.3508 8.84521 75.833 9.36295 75.833 9.99995C75.833 10.637 76.3508 11.1547 76.9879 11.1547H83.416L75.8737 22.2363C75.732 22.4467 75.7165 22.7161 75.8344 22.9392C75.9537 23.1637 76.1838 23.3012 76.4378 23.3012H86.3446C86.9816 23.3012 87.4994 22.7835 87.4994 22.1465C87.4994 21.5109 86.9816 20.9917 86.3446 20.9917Z" fill="#382757"/>
<path d="M93.0059 2.59155C92.3689 2.59155 91.8511 3.10929 91.8511 3.74629V22.1871C91.8511 22.8241 92.3689 23.3418 93.0059 23.3418C93.643 23.3418 94.1608 22.8227 94.1608 22.1871V3.74629C94.1608 3.10929 93.643 2.59155 93.0059 2.59155Z" fill="#382757"/>
<path d="M111.951 14.052C111.757 13.3841 111.465 12.7471 111.086 12.1578C110.437 11.1518 109.533 10.3128 108.473 9.73188C106.798 8.81847 104.801 8.60379 102.96 9.13977C101.102 9.68136 99.5686 10.9161 98.6411 12.618C97.7164 14.3101 97.5045 16.2618 98.0405 18.1139L98.0461 18.1336C98.1696 18.5447 98.3674 19.0722 98.3717 19.082C98.9877 20.5244 100.02 21.6244 101.526 22.4481C102.59 23.0303 103.787 23.3376 104.988 23.3376C105.677 23.3376 106.367 23.238 107.037 23.0402C108.452 22.6262 109.687 21.8096 110.619 20.6633L110.679 20.5862C110.918 20.2845 111.133 19.9632 111.318 19.6321C111.65 19.0386 111.437 18.2851 110.844 17.9526C110.66 17.8501 110.452 17.7954 110.242 17.7954C109.794 17.7954 109.381 18.0367 109.164 18.4268C108.859 18.9726 108.455 19.4454 107.966 19.8327C107.922 19.8664 107.883 19.9029 107.86 19.9281C107.408 20.2648 106.898 20.5174 106.343 20.6802C105.135 21.0351 103.815 20.8934 102.702 20.2873C101.968 19.8874 101.354 19.2939 100.919 18.5671L111.117 15.5743C111.767 15.3835 112.14 14.7002 111.951 14.052ZM105.008 11.2991C105.796 11.2991 106.586 11.5026 107.293 11.887C107.991 12.2673 108.587 12.8215 109.021 13.4879C109.045 13.5258 109.07 13.5651 109.094 13.6044L100.215 16.2085C100.193 15.3695 100.395 14.5374 100.802 13.7924C101.414 12.6713 102.426 11.8561 103.652 11.4956C104.097 11.3651 104.553 11.2991 105.008 11.2991Z" fill="#382757"/>
<path d="M40.5293 16.8806C40.1869 16.3797 39.6916 15.9616 39.0601 15.6388C38.026 15.1127 36.6859 14.8714 35.4005 14.6707L35.197 14.6398C34.2948 14.4995 33.3616 14.3536 32.7624 14.0506C32.3092 13.8204 32.1478 13.5623 32.1478 13.0586C32.1478 12.0834 33.2101 11.3482 34.6175 11.3482C36.2986 11.3482 37.2359 11.8393 38.2884 12.4805C38.4834 12.5998 38.7079 12.6629 38.9352 12.6629C39.3731 12.6629 39.7702 12.4412 39.9989 12.068C40.1715 11.7846 40.2248 11.4506 40.1462 11.1265C40.0677 10.8038 39.8684 10.5302 39.5849 10.3576C39.0026 10.0012 38.3655 9.63083 37.5615 9.34179C36.6564 9.01768 35.6938 8.85913 34.6189 8.85913C33.3223 8.85913 32.1085 9.2534 31.2035 9.96897C30.2086 10.7547 29.6599 11.8519 29.6599 13.0586C29.6599 14.5037 30.3447 15.615 31.6399 16.2702C32.5913 16.7515 33.7223 16.9269 34.8154 17.0967L35.0174 17.1275C37.8211 17.5667 38.6321 17.9624 38.6321 18.8898C38.6321 20.0389 37.4815 20.791 35.7008 20.8064H35.6363C33.7251 20.8064 32.653 20.0726 32.0777 19.6783C31.9823 19.6138 31.9009 19.5563 31.8195 19.5058C31.6216 19.3823 31.3943 19.3177 31.1614 19.3177C30.7292 19.3177 30.3335 19.5366 30.1047 19.9028C29.7413 20.4851 29.9195 21.254 30.5018 21.6174C30.5341 21.637 30.5832 21.6707 30.638 21.7086L30.6716 21.7311C31.355 22.1983 32.9547 23.2955 35.6363 23.2955H35.7219C37.2682 23.2815 38.5957 22.8661 39.5639 22.0916C40.5672 21.2877 41.1201 20.1512 41.1201 18.8912C41.1187 18.1265 40.9194 17.4516 40.5293 16.8806Z" fill="#382757"/>
</g>
<defs>
<linearGradient id="paint0_linear_5739_6040" x1="10.785" y1="19.102" x2="6.23429" y2="13.6782" gradientUnits="userSpaceOnUse">
<stop stop-color="#CE5DCB"/>
<stop offset="0.2095" stop-color="#C558CC"/>
<stop offset="0.5525" stop-color="#AC4ACF"/>
<stop offset="0.9845" stop-color="#8534D4"/>
<stop offset="1" stop-color="#8333D4"/>
</linearGradient>
<linearGradient id="paint1_linear_5739_6040" x1="10.9501" y1="12.929" x2="20.7295" y2="12.929" gradientUnits="userSpaceOnUse">
<stop offset="0.0237" stop-color="#FF5667"/>
<stop offset="0.6592" stop-color="#FC8B82"/>
<stop offset="1" stop-color="#FBA28E"/>
</linearGradient>
<linearGradient id="paint2_linear_5739_6040" x1="0.000137474" y1="9.41474" x2="13.4595" y2="9.41474" gradientUnits="userSpaceOnUse">
<stop stop-color="#00B874"/>
<stop offset="0.5126" stop-color="#29D3A2"/>
<stop offset="0.6817" stop-color="#53DFB6"/>
<stop offset="1" stop-color="#9FF4D9"/>
</linearGradient>
<linearGradient id="paint3_linear_5739_6040" x1="9.1715" y1="18.5853" x2="22.6307" y2="18.5853" gradientUnits="userSpaceOnUse">
<stop stop-color="#FCD77E"/>
<stop offset="0.5241" stop-color="#FEA500"/>
<stop offset="1" stop-color="#FF5B00"/>
</linearGradient>
<clipPath id="clip0_5739_6040">
<rect width="112" height="28" fill="white"/>
</clipPath>
</defs>
</svg>
