<svg width="19" height="18" viewBox="0 0 19 18" fill="none" xmlns="http://www.w3.org/2000/svg">
<path fill-rule="evenodd" clip-rule="evenodd" d="M17.7221 8.79102C17.5273 8.79102 17.3701 8.94825 17.3701 9.14207C17.3701 13.4091 13.8991 16.8811 9.63203 16.8811C6.60306 16.8811 3.89746 15.1417 2.62575 12.4222L4.45223 13.2351C4.63122 13.3152 4.8379 13.2341 4.91701 13.0561C4.99612 12.8801 4.91602 12.6714 4.73901 12.5933L2.1679 11.4482C2.08285 11.4096 1.98594 11.4076 1.89892 11.4412C1.8119 11.4739 1.74168 11.5401 1.70411 11.6262L0.559963 14.1973C0.480852 14.3743 0.559963 14.5819 0.737963 14.662C0.78444 14.6818 0.832896 14.6917 0.880363 14.6917C1.01485 14.6917 1.14341 14.6146 1.20175 14.4831L1.98792 12.7179C3.37434 15.6865 6.32617 17.5852 9.63203 17.5852C14.2867 17.5852 18.0742 13.7968 18.0742 9.14207C18.0742 8.94825 17.9169 8.79102 17.7221 8.79102" fill="#468000"/>
<path fill-rule="evenodd" clip-rule="evenodd" d="M18.5425 3.61145C18.3655 3.53135 18.1568 3.61244 18.0787 3.79044L17.2807 5.58033C15.8962 2.60377 12.9464 0.703125 9.6316 0.703125C4.97591 0.703125 1.18945 4.49057 1.18945 9.14527C1.18945 9.33909 1.34669 9.49633 1.5415 9.49633C1.73532 9.49633 1.89255 9.33909 1.89255 9.14527C1.89255 4.87722 5.36454 1.40721 9.6316 1.40721C12.6556 1.40721 15.3503 3.13282 16.627 5.83842L14.8272 5.03743C14.6502 4.95733 14.4416 5.03841 14.3634 5.21543C14.2843 5.39343 14.3634 5.60109 14.5414 5.6802L17.1116 6.82435C17.158 6.8461 17.2065 6.855 17.2549 6.855C17.3894 6.855 17.518 6.77688 17.5763 6.64635L18.7205 4.07623C18.7996 3.89823 18.7195 3.69056 18.5425 3.61145" fill="#468000"/>
<path fill-rule="evenodd" clip-rule="evenodd" d="M10.5614 7.46259L7.90923 8.09844L7.47906 6.30064C7.30403 5.56985 7.75595 4.83214 8.48773 4.65711C9.2195 4.48109 9.95623 4.934 10.1313 5.66578L10.5614 7.46259ZM10.8328 12.3009L9.86273 12.5333L9.30994 11.0322C9.22193 10.6633 9.44937 10.2925 9.81724 10.2045C10.1861 10.1165 10.5569 10.3439 10.6449 10.7118L10.8328 12.3009ZM12.0256 7.11251L11.5559 7.22524L11.1247 5.42744C10.8192 4.14881 9.52868 3.3577 8.25005 3.66326C6.97141 3.96982 6.1803 5.25933 6.48587 6.53796L6.91604 8.33576L6.44631 8.4485C5.93506 8.57112 5.61861 9.08732 5.74124 9.59857L6.76671 13.8805C6.88934 14.3927 7.40554 14.7092 7.91679 14.5865L13.4961 13.2505C14.0074 13.1279 14.3238 12.6117 14.2012 12.0995L13.1757 7.81758C13.0531 7.30633 12.5369 6.9889 12.0256 7.11251V7.11251Z" fill="#468000"/>
</svg>
