<svg width="16" height="18" viewBox="0 0 16 18" fill="none" xmlns="http://www.w3.org/2000/svg">
<g clip-path="url(#clip0_3134_2668)">
<g clip-path="url(#clip1_3134_2668)">
<path d="M15.8199 14.0316C16.3326 14.9064 15.6891 16 14.665 16H1.33484C0.308814 16 -0.331798 14.9047 0.179925 14.0316L6.84509 2.65584C7.35806 1.78059 8.64287 1.78218 9.15492 2.65584L15.8199 14.0316ZM8.00001 11.6797C7.29431 11.6797 6.72223 12.2428 6.72223 12.9375C6.72223 13.6322 7.29431 14.1953 8.00001 14.1953C8.7057 14.1953 9.27779 13.6322 9.27779 12.9375C9.27779 12.2428 8.7057 11.6797 8.00001 11.6797ZM6.78687 7.15851L6.99292 10.8773C7.00256 11.0513 7.14873 11.1875 7.32576 11.1875H8.67426C8.85129 11.1875 8.99745 11.0513 9.00709 10.8773L9.21315 7.15851C9.22356 6.97055 9.07154 6.8125 8.88031 6.8125H7.11967C6.92845 6.8125 6.77645 6.97055 6.78687 7.15851Z" fill="#9296A5"/>
</g>
</g>
<defs>
<clipPath id="clip0_3134_2668">
<rect width="16" height="16" fill="white" transform="translate(0 2)"/>
</clipPath>
<clipPath id="clip1_3134_2668">
<rect width="16" height="16" fill="white" transform="translate(0 2)"/>
</clipPath>
</defs>
</svg>
