<svg width="76" height="28" viewBox="0 0 76 28" fill="none" xmlns="http://www.w3.org/2000/svg">
<mask id="mask0_5739_6060" style="mask-type:luminance" maskUnits="userSpaceOnUse" x="0" y="0" width="76" height="28">
<path d="M76 0H0V28H76V0Z" fill="white"/>
</mask>
<g mask="url(#mask0_5739_6060)">
<path d="M1.93277 22.3281L2.59183 27.6589H25.6659L24.9109 21.5539H14.1521L14.0581 20.7974L23.9668 13.9231L23.3048 8.58252H0.232666L0.987718 14.6865H11.7643L11.8583 15.4499L1.93277 22.3281Z" fill="black"/>
<path d="M25.9856 8.58252L28.3458 27.6589H51.4367L49.0765 8.58252H25.9856Z" fill="#AA8FFF"/>
<path d="M75.6508 15.45C75.1184 11.1625 71.7262 8.56395 67.1147 8.58262H51.7554L54.1145 27.6599H61.0248L60.5518 23.8441H67.8638C73.6182 23.8431 76.2515 20.2837 75.6508 15.45ZM67.1167 18.4956L59.8927 18.5035L59.3267 13.9252L66.5912 13.9311C68.2992 13.9517 69.173 14.9067 69.3145 16.2133C69.4016 17.0543 69.0137 18.4946 67.1167 18.4946V18.4956Z" fill="black"/>
<path d="M32.8844 6.04787C34.0997 4.75264 33.8878 2.59566 32.4112 1.23012C30.9347 -0.135422 28.7524 -0.192418 27.5372 1.10281C26.3219 2.39804 26.5338 4.55502 28.0104 5.92056C29.4869 7.2861 31.6691 7.3431 32.8844 6.04787Z" fill="black"/>
</g>
</svg>
